<svg width="25" height="29" viewBox="0 0 25 29" fill="none" xmlns="http://www.w3.org/2000/svg">
<path d="M4.20792 26.6054C5.1552 27.8219 6.57852 29 8.21664 29C9.14868 29 9.94031 28.5469 10.7912 28.2162C11.5749 27.9176 12.4035 27.7643 13.2386 27.7631C14.0445 27.7582 14.843 27.92 15.5874 28.2388C15.9822 28.411 16.3726 28.5944 16.7738 28.753C17.1809 28.9155 17.6136 28.9992 18.0501 29C18.8576 28.9905 19.6433 28.7292 20.3046 28.2502C22.2256 26.8908 23.6489 24.5029 24.6577 22.412C24.7586 22.2036 24.8551 21.9929 24.9516 21.7845C25.1118 21.4356 24.8596 20.9938 24.4122 20.7401C22.4385 19.6209 21.2828 17.89 21.0898 15.5021C20.8967 13.1142 21.7958 11.2293 23.6008 9.86073L23.956 9.55933C24.1533 9.39164 24.0458 8.9272 23.6752 8.56471V8.5645C22.31 7.17564 20.4812 6.38106 18.5653 6.34424C18.1935 6.34445 17.8225 6.3762 17.4557 6.43931C15.789 6.73384 14.4513 7.55408 12.8811 7.55408C12.4047 7.55448 11.9311 7.47802 11.4776 7.32752C10.1618 6.89241 8.85482 6.34424 7.4556 6.34424C7.30209 6.34424 7.14643 6.34424 6.99077 6.36467C5.26574 6.55461 3.65524 7.34655 2.4248 8.60979C-0.00063579 11.0793 -0.34485 14.9151 0.260369 18.1568C0.841529 21.2968 2.27127 24.1265 4.20778 26.6049L4.20792 26.6054Z" fill="black"/>
<path d="M14.1355 2.25243L12.7821 5.59253H14.1355L15.94 4.32381L17.0929 2.25243L17.5441 0.388184L14.1355 2.25243Z" fill="black"/>
<path d="M12.7193 6.3442C12.7506 6.34703 12.7822 6.34703 12.8137 6.3442C17.4474 5.45154 17.9541 1.75417 17.9827 0.403997C17.9846 0.293551 17.9421 0.187352 17.865 0.110685C17.788 0.0342196 17.6837 -0.00562855 17.577 0.000642557C17.5378 0.000642557 17.4988 0.00509281 17.4606 0.0141956C12.7809 1.13341 12.2942 4.62017 12.2806 5.92281C12.2828 6.03932 12.3308 6.15017 12.4134 6.22947C12.4962 6.30897 12.6065 6.35023 12.7192 6.34416L12.7193 6.3442ZM17.0526 1.06321C16.8662 2.43612 16.0965 4.54997 13.2018 5.32026C13.3772 4.03109 14.114 1.98746 17.0526 1.06321Z" fill="black"/>
</svg>
