<svg width="110" height="60" viewBox="0 0 110 60" fill="none" xmlns="http://www.w3.org/2000/svg">
<mask id="mask0_928_132" style="mask-type:alpha" maskUnits="userSpaceOnUse" x="0" y="0" width="110" height="60">
<rect width="110" height="60" fill="#C4C4C4"/>
</mask>
<g mask="url(#mask0_928_132)">
<circle cx="55" cy="30" r="20" fill="white"/>
<path d="M47.2578 36H45V27.2969L42.3047 28.1328V26.2969L47.0156 24.6094H47.2578V36ZM58.375 27.6484C58.375 28.2005 58.237 28.6901 57.9609 29.1172C57.6849 29.5443 57.3047 29.8854 56.8203 30.1406C57.3724 30.4062 57.8099 30.7734 58.1328 31.2422C58.4557 31.7057 58.6172 32.2526 58.6172 32.8828C58.6172 33.8932 58.2734 34.6927 57.5859 35.2812C56.8984 35.8646 55.9635 36.1562 54.7812 36.1562C53.599 36.1562 52.6615 35.862 51.9688 35.2734C51.276 34.6849 50.9297 33.888 50.9297 32.8828C50.9297 32.2526 51.0911 31.7031 51.4141 31.2344C51.737 30.7656 52.1719 30.401 52.7188 30.1406C52.2344 29.8854 51.8542 29.5443 51.5781 29.1172C51.3073 28.6901 51.1719 28.2005 51.1719 27.6484C51.1719 26.6797 51.4948 25.9089 52.1406 25.3359C52.7865 24.7578 53.6641 24.4688 54.7734 24.4688C55.8776 24.4688 56.7526 24.7552 57.3984 25.3281C58.0495 25.8958 58.375 26.6693 58.375 27.6484ZM56.3516 32.7188C56.3516 32.224 56.2083 31.8281 55.9219 31.5312C55.6354 31.2344 55.25 31.0859 54.7656 31.0859C54.2865 31.0859 53.9036 31.2344 53.6172 31.5312C53.3307 31.8229 53.1875 32.2188 53.1875 32.7188C53.1875 33.2031 53.3281 33.5938 53.6094 33.8906C53.8906 34.1875 54.2812 34.3359 54.7812 34.3359C55.2708 34.3359 55.6536 34.1927 55.9297 33.9062C56.2109 33.6198 56.3516 33.224 56.3516 32.7188ZM56.1172 27.7578C56.1172 27.3151 56 26.9609 55.7656 26.6953C55.5312 26.4245 55.2005 26.2891 54.7734 26.2891C54.3516 26.2891 54.0234 26.4193 53.7891 26.6797C53.5547 26.9401 53.4375 27.2995 53.4375 27.7578C53.4375 28.2109 53.5547 28.5755 53.7891 28.8516C54.0234 29.1276 54.3542 29.2656 54.7812 29.2656C55.2083 29.2656 55.5365 29.1276 55.7656 28.8516C56 28.5755 56.1172 28.2109 56.1172 27.7578ZM64.7969 29.6328H67.6172V31.6719H64.7969V34.8594H62.6484V31.6719H59.8203V29.6328H62.6484V26.5781H64.7969V29.6328Z" fill="black"/>
</g>
</svg>
