<svg width="110" height="60" viewBox="0 0 110 60" fill="none" xmlns="http://www.w3.org/2000/svg">
<mask id="mask0_928_137" style="mask-type:alpha" maskUnits="userSpaceOnUse" x="0" y="0" width="110" height="60">
<rect width="110" height="60" fill="#C4C4C4"/>
</mask>
<g mask="url(#mask0_928_137)">
<path d="M8.25285 32.0357C8.20831 32.8172 7.52246 33.3562 6.74754 33.3023H4.7167V30.6703L6.56048 30.6254C7.5759 30.6254 8.26175 31.1644 8.26175 31.9908V32.0357H8.25285ZM7.96782 28.0293C7.91437 28.721 7.28197 29.2061 6.60502 29.1522H4.7167V26.8167H6.4625C7.33541 26.8167 7.96782 27.3017 7.96782 27.9395V28.0293ZM8.59132 29.79C9.56223 29.3049 9.85617 28.8108 9.85617 27.8407C9.85617 26.8167 9.32169 25.9363 8.40427 25.4962C7.91437 25.2985 7.33541 25.2536 5.68758 25.2536H2V26.8167H2.73039V33.3112H2V34.8742H7.09491C8.93873 34.8742 10.2035 33.8053 10.2035 32.1884C10.2926 31.1105 9.61564 30.1313 8.59132 29.79ZM13.0538 30.2571C13.1963 29.4846 13.8644 28.8558 14.666 28.8558H14.7106C15.4677 28.8558 16.1357 29.4846 16.1357 30.302L13.0538 30.2571ZM12.9559 31.5596H18.0864C18.1309 30.5894 17.8459 29.6732 17.3738 28.8558C16.7592 27.8856 15.7082 27.3556 14.6126 27.3556C12.6173 27.3556 11.1477 28.9546 11.1477 31.1733C11.1477 33.3921 12.6173 34.991 14.6126 34.991C16.3228 34.991 17.6054 34.0209 17.9349 32.4309L16.1268 32.4759C15.9398 33.1046 15.3163 33.5897 14.6571 33.5358C14.3364 33.5448 13.1518 33.446 12.9559 31.5596ZM26.379 34.8653H27.4389V30.0235L24.1166 30.0145V30.0235L24.072 30.9128H26.3344C26.3344 31.1554 26.3344 31.4159 26.2899 31.6584C26.0494 32.916 24.9895 33.8772 23.689 33.9311C22.0501 33.9311 20.8031 32.2423 20.8031 29.9247C20.8031 26.9783 22.5311 25.9633 23.689 25.9633C24.455 26.0082 25.2299 26.3945 25.7109 27.0233C25.9514 27.3646 26.1474 27.7419 26.2365 28.1731H27.2964V25.2536H26.2899V26.646C25.7109 25.6309 24.651 24.9572 23.4485 25.0021C21.2841 25.0021 19.5472 27.2209 19.5472 30.0235C19.5472 32.8262 21.2752 34.991 23.493 34.991C24.2591 34.991 25.034 34.7036 25.6575 34.1736C25.9425 33.8861 26.1831 33.6167 26.379 33.2753V34.8653ZM33.3623 32.2872C33.2197 33.3472 32.2933 34.1107 31.2245 34.1646C30.4496 34.1646 29.7638 33.5897 29.7192 32.7723C29.7192 31.856 30.4496 31.4788 32.6853 31.1823L33.3623 31.0835V32.2872ZM33.3623 34.8653H35.4465L35.3485 33.976H34.3331V29.9876C34.3331 28.1641 33.0683 27.4904 31.563 27.4904C30.886 27.4904 30.1556 27.679 29.6212 28.1192C29.1848 28.5054 28.8908 29.0174 28.7928 29.5924H29.9062C30.1022 28.6312 30.6366 28.3078 31.652 28.3078C32.6764 28.3078 33.2999 28.8378 33.2999 29.6552V30.3739L32.6229 30.4188C29.7103 30.7062 28.4989 31.38 28.4989 32.7723V32.916C28.5969 34.1197 29.6658 35.0808 30.8771 34.982C31.8925 34.982 32.8634 34.4431 33.3533 33.5268V34.8653H33.3623ZM45.3157 34.8653H47.3287V33.976H46.3222V29.3408C46.3222 28.0832 45.6987 27.3556 44.6031 27.3556C44.0331 27.3556 43.5075 27.5982 43.071 27.9844C42.786 28.2719 42.5901 28.5683 42.403 28.9007C42.216 27.8856 41.6905 27.3466 40.7284 27.3466C39.3924 27.3466 38.7689 28.4156 38.4304 28.9007L38.3859 27.4814H36.2838V28.3707H37.3348V33.976H36.2838V34.8653H39.3924V33.976H38.3413V30.3559C38.3413 29.6822 39.1519 28.2719 40.2564 28.2719C40.9779 28.2719 41.3074 28.6581 41.3074 29.5834V34.8653H43.4096V33.976H42.3496V30.2661C42.3496 29.7361 43.0176 28.227 44.2646 28.227C44.9772 28.227 45.3157 28.712 45.3157 29.7271V34.8653ZM54.6326 31.1464C54.6326 32.943 53.8666 34.0568 52.6285 34.0568C51.4794 33.958 50.5798 32.9879 50.5798 31.7842L50.5353 30.5266C50.5353 29.4576 51.5863 28.2988 52.6374 28.2988C53.822 28.2898 54.6326 29.3588 54.6326 31.1464ZM55.7816 31.2991C55.7816 29.1702 54.5435 27.4814 52.9135 27.4814C51.6754 27.4814 50.8559 28.5324 50.5709 29.0624V25.0021H48.5668V25.8914H49.5199V33.976H48.5133V34.8653H50.5709V33.5268C50.9984 34.1107 51.622 34.991 52.9135 34.991C54.4455 34.991 55.7816 33.2843 55.7816 31.2991ZM56.3428 34.8653H59.4336V33.976H58.4716V25.0021H56.3962V25.8285H57.4116V33.976H56.3517V34.8653H56.3428ZM61.4555 30.6074C61.4555 30.3649 61.5535 30.1223 61.598 29.8888C61.8385 29.0174 62.6046 28.3976 63.513 28.3437C63.9406 28.2988 64.3771 28.4875 64.7155 28.7749C65.1965 29.3049 65.437 29.9337 65.437 30.6074H61.4555ZM61.411 31.4249H66.6395C66.6395 28.8737 65.2054 27.4724 63.424 27.4724C61.6514 27.4724 60.262 29.1073 60.262 31.2272C60.262 33.446 61.6514 34.982 63.6199 34.982C64.5285 34.982 65.3479 34.5958 65.918 33.9221C66.2031 33.5807 66.399 33.2484 66.497 32.8172L65.3034 32.8621C64.9204 33.7334 64.3949 34.1107 63.5754 34.1107C63.0944 34.1107 62.6135 33.9221 62.2304 33.5807C61.7494 33.1136 61.509 32.4848 61.411 31.4249ZM73.3469 31.3171H70.8525L72.0994 27.0412L73.3469 31.3171ZM74.4511 34.8653H76.6064V33.3382H75.8848L73.2572 25.2536H70.9592L68.3675 33.3382H67.646V34.8653H69.855L70.4788 32.7813H73.8362L74.4511 34.8653ZM86.5378 28.8827H87.1616V27.4814H84.2847V28.8827H85.0063L84.0441 33.1945L82.8503 27.4814H80.9803L79.7776 33.2933L78.7801 28.8827H79.4929V27.4814H76.6153V28.8827H77.239L78.8155 34.8653H80.7309L81.8799 29.7451L83.082 34.8653H84.9974L86.5378 28.8827ZM92.2924 32.1525C92.2476 33.0238 91.526 33.6975 90.6623 33.6975C89.9407 33.6975 89.4596 33.3112 89.4596 32.7364C89.4596 31.7213 90.5645 31.5776 92.2387 31.4339H92.2836V32.1076V32.1525H92.2924ZM92.3454 34.8653H94.5993V33.455H93.9755L94.0204 30.0325C94.0204 28.3976 92.9604 27.4814 90.947 27.4814C89.2191 27.4814 88.0701 28.3976 87.9722 29.8439L89.7002 29.8888V29.8439C89.745 29.1702 90.0834 28.739 90.9919 28.739C91.9004 28.739 92.2836 29.0803 92.2836 30.1852C89.976 30.3739 87.5802 30.6164 87.5802 32.7364C87.5802 34.0388 88.685 35 90.1276 35C90.9919 35 91.8113 34.6587 92.3366 33.9939V34.8653H92.3454ZM99.8008 29.0713C100.086 29.0713 100.371 29.1163 100.656 29.1702V27.4544C100.371 27.4095 100.13 27.3556 99.8456 27.3556C99.035 27.3556 98.5097 27.7509 98.0375 28.6851V27.4814H95.6056V28.9276H96.3184V33.455H95.6056V34.8653H98.9371V33.455H98.0817V30.5984C98.1353 29.7091 98.8923 29.0264 99.8008 29.0713ZM102.918 30.2571C103.061 29.4846 103.729 28.8558 104.531 28.8558H104.576C105.332 28.8558 106 29.4846 106 30.302L102.918 30.2571ZM102.865 31.5596H107.995C108.04 30.5894 107.755 29.6732 107.283 28.8558C106.668 27.8856 105.617 27.3556 104.522 27.3556C102.527 27.3556 101.048 28.9546 101.048 31.1733C101.048 33.3921 102.517 34.991 104.522 34.991C106.232 34.991 107.514 34.0209 107.844 32.4309L106.036 32.4759C105.849 33.1046 105.225 33.5897 104.566 33.5358C104.246 33.5448 103.061 33.446 102.865 31.5596Z" fill="white"/>
</g>
</svg>
