<svg width="196" height="36" viewBox="0 0 196 36" fill="none" xmlns="http://www.w3.org/2000/svg">
<path d="M58.9731 31.9357C60.8163 31.9357 62.4036 31.5354 63.7349 30.7349C65.0746 29.9344 66.103 28.8145 66.8198 27.3753C67.5451 25.9361 67.9078 24.2627 67.9078 22.3551C67.9078 20.4474 67.5451 18.774 66.8198 17.3348C66.103 15.8956 65.0746 14.7757 63.7349 13.9752C62.4036 13.1747 60.8163 12.7744 58.9731 12.7744C57.1298 12.7744 55.5383 13.1747 54.1985 13.9752C52.8672 14.7757 51.8389 15.8956 51.1136 17.3348C50.3967 18.774 50.0383 20.4474 50.0383 22.3551C50.0383 24.2627 50.3967 25.9361 51.1136 27.3753C51.8389 28.8145 52.8672 29.9344 54.1985 30.7349C55.5383 31.5354 57.1298 31.9357 58.9731 31.9357ZM58.9731 28.6655C57.2237 28.64 55.9095 28.0609 55.0305 26.9282C54.1601 25.7956 53.7249 24.2712 53.7249 22.3551C53.7249 20.4389 54.1601 18.9018 55.0305 17.7436C55.9095 16.5854 57.2237 16.0191 58.9731 16.0446C60.731 16.0702 62.0452 16.6493 62.9156 17.7819C63.7861 18.9145 64.2213 20.4389 64.2213 22.3551C64.2213 24.2712 63.7861 25.8083 62.9156 26.9665C62.0452 28.1247 60.731 28.6911 58.9731 28.6655Z" fill="white"/>
<path d="M70.4631 31.5525H73.9961V19.2893L82.0092 31.5525H85.5421V13.1576H82.0092V25.4209L73.9961 13.1576H70.4631V31.5525Z" fill="white"/>
<path d="M169.693 31.9357C171.178 31.9357 172.483 31.6376 173.61 31.0415C174.736 30.4369 175.615 29.5895 176.247 28.4994C176.878 27.4094 177.194 26.1277 177.194 24.6544V13.1576H173.661V24.6289C173.661 25.4209 173.486 26.1192 173.136 26.7238C172.786 27.3285 172.313 27.8054 171.715 28.1545C171.118 28.4952 170.444 28.6655 169.693 28.6655C168.959 28.6655 168.289 28.4994 167.683 28.1673C167.086 27.8267 166.608 27.354 166.249 26.7494C165.9 26.1447 165.725 25.4379 165.725 24.6289V13.1576L162.192 13.1832V24.6544C162.192 26.1277 162.507 27.4094 163.139 28.4994C163.77 29.5895 164.649 30.4369 165.776 31.0415C166.902 31.6376 168.208 31.9357 169.693 31.9357Z" fill="white"/>
<path d="M180.767 31.5525H184.249V23.1726L191.597 31.5525H196L187.808 22.2273L195.514 13.1576H191.264L184.249 21.6397V13.1576H180.767V31.5525Z" fill="white"/>
<path d="M97.1897 32.1335C98.9647 32.1335 100.505 31.7502 101.811 30.9838C103.116 30.2088 104.128 29.14 104.844 27.7775C105.561 26.4149 105.92 24.8522 105.92 23.0893C105.92 23.0467 105.915 22.8849 105.907 22.6039C105.898 22.3229 105.885 22.127 105.868 22.0163H99.2378V24.6989H102.156C101.875 26.1551 101.311 27.2197 100.467 27.8924C99.6303 28.5652 98.6148 28.8888 97.4201 28.8633C95.6707 28.8377 94.3565 28.2586 93.4775 27.126C92.6071 25.9933 92.1719 24.4689 92.1719 22.5528C92.1719 20.6367 92.6071 19.0995 93.4775 17.9413C94.3565 16.7831 95.6707 16.2168 97.4201 16.2424C98.5977 16.2509 99.5621 16.5787 100.313 17.226C101.073 17.8647 101.619 18.7206 101.951 19.7936L105.51 19.2826C105.049 17.2728 104.14 15.7186 102.784 14.62C101.427 13.5215 99.562 12.9722 97.1897 12.9722C95.5854 12.9722 94.1218 13.3469 92.7991 14.0963C91.4849 14.8457 90.4353 15.9358 89.6502 17.3665C88.8736 18.7887 88.4854 20.5175 88.4854 22.5528C88.4854 24.1113 88.7158 25.4866 89.1766 26.6789C89.6459 27.8711 90.2817 28.8718 91.0839 29.6808C91.8946 30.4898 92.8247 31.103 93.8744 31.5203C94.924 31.9291 96.0291 32.1335 97.1897 32.1335Z" fill="#D0142C"/>
<path d="M106.705 31.7502H110.289L111.454 27.918H118.392L119.582 31.7502H123.167L117.534 13.3554H112.337L106.705 31.7502ZM112.44 24.6733L114.897 16.6128L117.393 24.6733H112.44Z" fill="#D0142C"/>
<path d="M125.461 31.7502H128.712V20.7644L134.063 31.7502H135.292L140.642 20.7644V31.7502H143.894V13.3554H140.77L134.677 25.5675L128.584 13.3554H125.461V31.7502Z" fill="#D0142C"/>
<path d="M147.487 31.7502H159.519V28.5056H150.968V23.7791H157.983V20.5345H150.968V16.6H159.519V13.3554H147.487V31.7502Z" fill="#D0142C"/>
<path d="M9.17636 14.5805C9.799 12.645 15.9216 7.61276 19.2008 4.64502C22.0649 7.3547 28.6025 12.2579 29.2252 14.5805C29.5585 15.8238 29.5988 16.7741 29.1007 17.8063C28.5723 18.9012 27.6863 20.023 26.7346 20.516C25.4894 21.1611 22.7498 20.7741 20.8819 20.645C20.5686 20.6234 21.6635 24.9183 22.2461 27.2036L22.2517 27.2257L23.2737 24.387L36.0742 18.8386L33.7468 32.516H4.60928L2.32739 18.9676H3.44813L15.1279 24.387L16.3989 27.2257C16.7725 25.1181 18.0536 20.6111 17.6442 20.645C14.531 20.9031 14.1574 20.9031 12.5386 20.516C11.0625 20.163 10.0105 18.7944 9.54995 17.9353C8.92731 16.7741 8.93683 15.3251 9.17636 14.5805Z" fill="white"/>
<path d="M33.7468 33.6772H4.65479V35.9998H33.7468V33.6772Z" fill="#D0142C"/>
<ellipse cx="2.32736" cy="18.5804" rx="2.32736" ry="2.32258" fill="white"/>
<ellipse cx="36.0742" cy="18.5804" rx="2.32736" ry="2.32258" fill="white"/>
<ellipse cx="19.2007" cy="2.90323" rx="2.9092" ry="2.90323" fill="white"/>
</svg>
