<svg width="276" height="34" viewBox="0 0 276 34" fill="none" xmlns="http://www.w3.org/2000/svg">
<path d="M39.1201 3.37686H38.7201V3.77686V25.175V25.575H39.1201H41.5427H41.9427V25.175V6.76984L48.1895 22.7369L48.289 22.9912H48.562H52.1493H52.4216L52.5215 22.7378L58.8152 6.76594V25.175V25.575H59.2152H61.6378H62.0378V25.175V3.77686V3.37686H61.6378H57.0256H56.7531L56.6534 3.63039L50.3559 19.6347L44.0893 3.63101L43.9898 3.37686H43.7168H39.1201ZM69.4249 3.37686H69.0249V3.77686V25.175V25.575H69.4249H84.3798H84.7798V25.175V22.9178V22.5178H84.3798H72.5271V15.1219V12.8944V6.43398H84.3332H84.7332V6.03398V3.77686V3.37686H84.3332H69.4249ZM90.2257 3.37686H89.8257V3.77686V25.175V25.575H90.2257H97.5867C101.167 25.575 103.9 24.6786 105.702 22.8093C107.5 20.9426 108.36 18.1047 108.36 14.3794C108.36 10.7136 107.505 7.92427 105.716 6.09687C103.935 4.25729 101.217 3.37686 97.6488 3.37686H90.2257ZM93.3278 22.5178V6.43398H97.4158C99.3883 6.43398 100.874 6.68943 101.906 7.1689L101.907 7.16949C102.926 7.63863 103.653 8.41904 104.094 9.53669L104.095 9.53774C104.544 10.6672 104.781 12.2916 104.781 14.4388C104.781 16.4608 104.529 18.0464 104.05 19.2171L104.049 19.2187C103.585 20.3657 102.854 21.1905 101.858 21.7171C100.849 22.2406 99.4706 22.5178 97.6954 22.5178H93.3278ZM113.837 22.5921H113.437V22.9921V25.175V25.575H113.837H122.751H123.151V25.175V22.9921V22.5921H122.751H120.045V6.35973H122.86H123.26V5.95973V3.77686V3.37686H122.86H113.666H113.266V3.77686V5.95973V6.35973H113.666H116.543V22.5921H113.837ZM135.446 3.37686H135.173L135.074 3.62997L126.626 25.0281L126.41 25.575H126.998H129.746H130.019L130.118 25.3216L132.131 20.2143H141.991L144.019 25.3225L144.119 25.575H144.391H147.124H147.715L147.495 25.0264L138.938 3.62834L138.838 3.37686H138.567H135.446ZM133.166 17.3205L137.017 7.08677L140.936 17.3205H133.166Z" fill="#FF0000" stroke="#FF0000" stroke-width="0.8"/>
<rect x="72.89" y="12.3334" width="9.47391" height="3.5647" fill="#FF0000" stroke="#FF0000" stroke-width="0.8"/>
<mask id="path-3-outside-1_1_260" maskUnits="userSpaceOnUse" x="161.395" y="2.42676" width="115" height="32" fill="black">
<rect fill="white" x="161.395" y="2.42676" width="115" height="32"/>
<path d="M170.08 25.626C168.236 25.626 166.755 25.4343 165.635 25.0511C164.525 24.658 163.708 24.0389 163.182 23.1938C162.657 22.3388 162.395 21.2087 162.395 19.8035H164.847C164.847 20.7272 165.016 21.4495 165.353 21.9703C165.69 22.4813 166.24 22.8498 167.003 23.0759C167.766 23.2921 168.826 23.4002 170.184 23.4002C171.422 23.4002 172.403 23.2675 173.127 23.0022C173.85 22.7368 174.371 22.3192 174.688 21.7492C175.015 21.1694 175.178 20.3931 175.178 19.4202C175.178 18.5456 174.99 17.8381 174.613 17.2976C174.237 16.7571 173.598 16.3198 172.696 15.9857C171.794 15.6417 170.526 15.3518 168.89 15.116C166.651 14.7917 165.016 14.1382 163.985 13.1555C162.964 12.163 162.454 10.7872 162.454 9.02815C162.454 7.12171 163.088 5.71154 164.357 4.79763C165.625 3.88371 167.577 3.42676 170.213 3.42676C171.898 3.42676 173.246 3.60856 174.257 3.97216C175.267 4.32593 176.006 4.8959 176.471 5.68206C176.937 6.46822 177.17 7.51479 177.17 8.82179H174.807C174.807 8.00614 174.658 7.3723 174.361 6.92026C174.063 6.46822 173.568 6.14884 172.874 5.96213C172.19 5.76559 171.229 5.66732 169.99 5.66732C168.791 5.66732 167.83 5.78033 167.107 6.00635C166.393 6.22254 165.868 6.5714 165.531 7.05292C165.204 7.53445 165.04 8.1732 165.04 8.96919C165.04 9.80449 165.214 10.4727 165.561 10.9739C165.908 11.4653 166.512 11.8731 167.374 12.1974C168.236 12.5118 169.485 12.7968 171.12 13.0523C173.429 13.4061 175.114 14.0891 176.174 15.1012C177.235 16.1134 177.765 17.5138 177.765 19.3023C177.765 21.4642 177.145 23.0611 175.907 24.093C174.668 25.115 172.726 25.626 170.08 25.626Z"/>
<path d="M193.266 25.7586C190.898 25.7586 189.005 25.3361 187.588 24.491C186.171 23.636 185.15 22.388 184.526 20.7469C183.911 19.0959 183.604 17.0077 183.604 14.4821C183.604 12.0057 183.921 9.96663 184.556 8.36483C185.2 6.7532 186.23 5.53956 187.647 4.72392C189.064 3.90828 190.937 3.50046 193.266 3.50046C195.595 3.50046 197.468 3.91319 198.885 4.73866C200.302 5.55431 201.328 6.76794 201.962 8.37957C202.596 9.98137 202.913 12.0106 202.913 14.4674C202.913 17.0028 202.606 19.0959 201.992 20.7469C201.377 22.388 200.362 23.636 198.945 24.491C197.527 25.3361 195.635 25.7586 193.266 25.7586ZM193.266 23.577C195.139 23.577 196.581 23.2429 197.592 22.5747C198.603 21.8966 199.296 20.909 199.673 19.6118C200.059 18.3049 200.253 16.5851 200.253 14.4527C200.253 12.3792 200.054 10.7184 199.658 9.47037C199.272 8.21251 198.573 7.26912 197.562 6.64019C196.551 6.01126 195.119 5.6968 193.266 5.6968C191.393 5.6968 189.951 6.02109 188.941 6.66967C187.93 7.30843 187.231 8.26165 186.845 9.52933C186.458 10.7872 186.265 12.4676 186.265 14.5706C186.265 16.6932 186.458 18.3982 186.845 19.6855C187.231 20.9631 187.93 21.931 188.941 22.5894C189.961 23.2478 191.403 23.577 193.266 23.577ZM193.251 30.9512H202.988V33.0001H193.251V30.9512Z"/>
<path d="M218.727 25.906C216.894 25.906 215.333 25.5719 214.045 24.9037C212.757 24.2354 211.775 23.2626 211.102 21.9851C210.438 20.6977 210.106 19.1451 210.106 17.3271V3.95742H212.692V17.3713C212.692 19.3662 213.212 20.9041 214.253 21.9851C215.303 23.0562 216.795 23.5918 218.727 23.5918C220.65 23.5918 222.131 23.0513 223.172 21.9703C224.222 20.8894 224.747 19.3563 224.747 17.3713V3.95742H227.334V17.3271C227.334 19.1451 226.997 20.6977 226.323 21.9851C225.659 23.2626 224.683 24.2354 223.395 24.9037C222.116 25.5719 220.561 25.906 218.727 25.906Z"/>
<path d="M240.621 3.95742H243.608L251.799 25.1985H249.183L247.146 19.8772H237.187L235.165 25.1985H232.534L240.621 3.95742ZM246.433 17.7988L242.122 6.12427L237.885 17.7988H246.433Z"/>
<path d="M258.025 3.95742H265.13C268.49 3.95742 270.972 4.81728 272.577 6.53701C274.193 8.24691 275 10.8953 275 14.4821C275 18.128 274.188 20.8255 272.563 22.5747C270.937 24.3239 268.44 25.1985 265.071 25.1985H258.025V3.95742ZM265.175 22.9579C266.909 22.9579 268.296 22.6779 269.337 22.1177C270.377 21.5478 271.136 20.6535 271.611 19.435C272.097 18.2066 272.34 16.5753 272.34 14.5411C272.34 12.389 272.112 10.7184 271.656 9.52933C271.2 8.33044 270.437 7.47549 269.367 6.96448C268.306 6.45348 266.82 6.19797 264.907 6.19797H260.611V22.9579H265.175Z"/>
</mask>
<path d="M170.08 25.626C168.236 25.626 166.755 25.4343 165.635 25.0511C164.525 24.658 163.708 24.0389 163.182 23.1938C162.657 22.3388 162.395 21.2087 162.395 19.8035H164.847C164.847 20.7272 165.016 21.4495 165.353 21.9703C165.69 22.4813 166.24 22.8498 167.003 23.0759C167.766 23.2921 168.826 23.4002 170.184 23.4002C171.422 23.4002 172.403 23.2675 173.127 23.0022C173.85 22.7368 174.371 22.3192 174.688 21.7492C175.015 21.1694 175.178 20.3931 175.178 19.4202C175.178 18.5456 174.99 17.8381 174.613 17.2976C174.237 16.7571 173.598 16.3198 172.696 15.9857C171.794 15.6417 170.526 15.3518 168.89 15.116C166.651 14.7917 165.016 14.1382 163.985 13.1555C162.964 12.163 162.454 10.7872 162.454 9.02815C162.454 7.12171 163.088 5.71154 164.357 4.79763C165.625 3.88371 167.577 3.42676 170.213 3.42676C171.898 3.42676 173.246 3.60856 174.257 3.97216C175.267 4.32593 176.006 4.8959 176.471 5.68206C176.937 6.46822 177.17 7.51479 177.17 8.82179H174.807C174.807 8.00614 174.658 7.3723 174.361 6.92026C174.063 6.46822 173.568 6.14884 172.874 5.96213C172.19 5.76559 171.229 5.66732 169.99 5.66732C168.791 5.66732 167.83 5.78033 167.107 6.00635C166.393 6.22254 165.868 6.5714 165.531 7.05292C165.204 7.53445 165.04 8.1732 165.04 8.96919C165.04 9.80449 165.214 10.4727 165.561 10.9739C165.908 11.4653 166.512 11.8731 167.374 12.1974C168.236 12.5118 169.485 12.7968 171.12 13.0523C173.429 13.4061 175.114 14.0891 176.174 15.1012C177.235 16.1134 177.765 17.5138 177.765 19.3023C177.765 21.4642 177.145 23.0611 175.907 24.093C174.668 25.115 172.726 25.626 170.08 25.626Z" fill="white"/>
<path d="M193.266 25.7586C190.898 25.7586 189.005 25.3361 187.588 24.491C186.171 23.636 185.15 22.388 184.526 20.7469C183.911 19.0959 183.604 17.0077 183.604 14.4821C183.604 12.0057 183.921 9.96663 184.556 8.36483C185.2 6.7532 186.23 5.53956 187.647 4.72392C189.064 3.90828 190.937 3.50046 193.266 3.50046C195.595 3.50046 197.468 3.91319 198.885 4.73866C200.302 5.55431 201.328 6.76794 201.962 8.37957C202.596 9.98137 202.913 12.0106 202.913 14.4674C202.913 17.0028 202.606 19.0959 201.992 20.7469C201.377 22.388 200.362 23.636 198.945 24.491C197.527 25.3361 195.635 25.7586 193.266 25.7586ZM193.266 23.577C195.139 23.577 196.581 23.2429 197.592 22.5747C198.603 21.8966 199.296 20.909 199.673 19.6118C200.059 18.3049 200.253 16.5851 200.253 14.4527C200.253 12.3792 200.054 10.7184 199.658 9.47037C199.272 8.21251 198.573 7.26912 197.562 6.64019C196.551 6.01126 195.119 5.6968 193.266 5.6968C191.393 5.6968 189.951 6.02109 188.941 6.66967C187.93 7.30843 187.231 8.26165 186.845 9.52933C186.458 10.7872 186.265 12.4676 186.265 14.5706C186.265 16.6932 186.458 18.3982 186.845 19.6855C187.231 20.9631 187.93 21.931 188.941 22.5894C189.961 23.2478 191.403 23.577 193.266 23.577ZM193.251 30.9512H202.988V33.0001H193.251V30.9512Z" fill="white"/>
<path d="M218.727 25.906C216.894 25.906 215.333 25.5719 214.045 24.9037C212.757 24.2354 211.775 23.2626 211.102 21.9851C210.438 20.6977 210.106 19.1451 210.106 17.3271V3.95742H212.692V17.3713C212.692 19.3662 213.212 20.9041 214.253 21.9851C215.303 23.0562 216.795 23.5918 218.727 23.5918C220.65 23.5918 222.131 23.0513 223.172 21.9703C224.222 20.8894 224.747 19.3563 224.747 17.3713V3.95742H227.334V17.3271C227.334 19.1451 226.997 20.6977 226.323 21.9851C225.659 23.2626 224.683 24.2354 223.395 24.9037C222.116 25.5719 220.561 25.906 218.727 25.906Z" fill="white"/>
<path d="M240.621 3.95742H243.608L251.799 25.1985H249.183L247.146 19.8772H237.187L235.165 25.1985H232.534L240.621 3.95742ZM246.433 17.7988L242.122 6.12427L237.885 17.7988H246.433Z" fill="white"/>
<path d="M258.025 3.95742H265.13C268.49 3.95742 270.972 4.81728 272.577 6.53701C274.193 8.24691 275 10.8953 275 14.4821C275 18.128 274.188 20.8255 272.563 22.5747C270.937 24.3239 268.44 25.1985 265.071 25.1985H258.025V3.95742ZM265.175 22.9579C266.909 22.9579 268.296 22.6779 269.337 22.1177C270.377 21.5478 271.136 20.6535 271.611 19.435C272.097 18.2066 272.34 16.5753 272.34 14.5411C272.34 12.389 272.112 10.7184 271.656 9.52933C271.2 8.33044 270.437 7.47549 269.367 6.96448C268.306 6.45348 266.82 6.19797 264.907 6.19797H260.611V22.9579H265.175Z" fill="white"/>
<path d="M170.08 25.626C168.236 25.626 166.755 25.4343 165.635 25.0511C164.525 24.658 163.708 24.0389 163.182 23.1938C162.657 22.3388 162.395 21.2087 162.395 19.8035H164.847C164.847 20.7272 165.016 21.4495 165.353 21.9703C165.69 22.4813 166.24 22.8498 167.003 23.0759C167.766 23.2921 168.826 23.4002 170.184 23.4002C171.422 23.4002 172.403 23.2675 173.127 23.0022C173.85 22.7368 174.371 22.3192 174.688 21.7492C175.015 21.1694 175.178 20.3931 175.178 19.4202C175.178 18.5456 174.99 17.8381 174.613 17.2976C174.237 16.7571 173.598 16.3198 172.696 15.9857C171.794 15.6417 170.526 15.3518 168.89 15.116C166.651 14.7917 165.016 14.1382 163.985 13.1555C162.964 12.163 162.454 10.7872 162.454 9.02815C162.454 7.12171 163.088 5.71154 164.357 4.79763C165.625 3.88371 167.577 3.42676 170.213 3.42676C171.898 3.42676 173.246 3.60856 174.257 3.97216C175.267 4.32593 176.006 4.8959 176.471 5.68206C176.937 6.46822 177.17 7.51479 177.17 8.82179H174.807C174.807 8.00614 174.658 7.3723 174.361 6.92026C174.063 6.46822 173.568 6.14884 172.874 5.96213C172.19 5.76559 171.229 5.66732 169.99 5.66732C168.791 5.66732 167.83 5.78033 167.107 6.00635C166.393 6.22254 165.868 6.5714 165.531 7.05292C165.204 7.53445 165.04 8.1732 165.04 8.96919C165.04 9.80449 165.214 10.4727 165.561 10.9739C165.908 11.4653 166.512 11.8731 167.374 12.1974C168.236 12.5118 169.485 12.7968 171.12 13.0523C173.429 13.4061 175.114 14.0891 176.174 15.1012C177.235 16.1134 177.765 17.5138 177.765 19.3023C177.765 21.4642 177.145 23.0611 175.907 24.093C174.668 25.115 172.726 25.626 170.08 25.626Z" stroke="white" stroke-width="1.6" mask="url(#path-3-outside-1_1_260)"/>
<path d="M193.266 25.7586C190.898 25.7586 189.005 25.3361 187.588 24.491C186.171 23.636 185.15 22.388 184.526 20.7469C183.911 19.0959 183.604 17.0077 183.604 14.4821C183.604 12.0057 183.921 9.96663 184.556 8.36483C185.2 6.7532 186.23 5.53956 187.647 4.72392C189.064 3.90828 190.937 3.50046 193.266 3.50046C195.595 3.50046 197.468 3.91319 198.885 4.73866C200.302 5.55431 201.328 6.76794 201.962 8.37957C202.596 9.98137 202.913 12.0106 202.913 14.4674C202.913 17.0028 202.606 19.0959 201.992 20.7469C201.377 22.388 200.362 23.636 198.945 24.491C197.527 25.3361 195.635 25.7586 193.266 25.7586ZM193.266 23.577C195.139 23.577 196.581 23.2429 197.592 22.5747C198.603 21.8966 199.296 20.909 199.673 19.6118C200.059 18.3049 200.253 16.5851 200.253 14.4527C200.253 12.3792 200.054 10.7184 199.658 9.47037C199.272 8.21251 198.573 7.26912 197.562 6.64019C196.551 6.01126 195.119 5.6968 193.266 5.6968C191.393 5.6968 189.951 6.02109 188.941 6.66967C187.93 7.30843 187.231 8.26165 186.845 9.52933C186.458 10.7872 186.265 12.4676 186.265 14.5706C186.265 16.6932 186.458 18.3982 186.845 19.6855C187.231 20.9631 187.93 21.931 188.941 22.5894C189.961 23.2478 191.403 23.577 193.266 23.577ZM193.251 30.9512H202.988V33.0001H193.251V30.9512Z" stroke="white" stroke-width="1.6" mask="url(#path-3-outside-1_1_260)"/>
<path d="M218.727 25.906C216.894 25.906 215.333 25.5719 214.045 24.9037C212.757 24.2354 211.775 23.2626 211.102 21.9851C210.438 20.6977 210.106 19.1451 210.106 17.3271V3.95742H212.692V17.3713C212.692 19.3662 213.212 20.9041 214.253 21.9851C215.303 23.0562 216.795 23.5918 218.727 23.5918C220.65 23.5918 222.131 23.0513 223.172 21.9703C224.222 20.8894 224.747 19.3563 224.747 17.3713V3.95742H227.334V17.3271C227.334 19.1451 226.997 20.6977 226.323 21.9851C225.659 23.2626 224.683 24.2354 223.395 24.9037C222.116 25.5719 220.561 25.906 218.727 25.906Z" stroke="white" stroke-width="1.6" mask="url(#path-3-outside-1_1_260)"/>
<path d="M240.621 3.95742H243.608L251.799 25.1985H249.183L247.146 19.8772H237.187L235.165 25.1985H232.534L240.621 3.95742ZM246.433 17.7988L242.122 6.12427L237.885 17.7988H246.433Z" stroke="white" stroke-width="1.6" mask="url(#path-3-outside-1_1_260)"/>
<path d="M258.025 3.95742H265.13C268.49 3.95742 270.972 4.81728 272.577 6.53701C274.193 8.24691 275 10.8953 275 14.4821C275 18.128 274.188 20.8255 272.563 22.5747C270.937 24.3239 268.44 25.1985 265.071 25.1985H258.025V3.95742ZM265.175 22.9579C266.909 22.9579 268.296 22.6779 269.337 22.1177C270.377 21.5478 271.136 20.6535 271.611 19.435C272.097 18.2066 272.34 16.5753 272.34 14.5411C272.34 12.389 272.112 10.7184 271.656 9.52933C271.2 8.33044 270.437 7.47549 269.367 6.96448C268.306 6.45348 266.82 6.19797 264.907 6.19797H260.611V22.9579H265.175Z" stroke="white" stroke-width="1.6" mask="url(#path-3-outside-1_1_260)"/>
<ellipse cx="20.5951" cy="8.24462" rx="2.02381" ry="2.01708" fill="white"/>
<ellipse cx="20.5951" cy="14.6992" rx="2.02381" ry="2.01708" fill="white"/>
<ellipse cx="20.5951" cy="21.1538" rx="2.02381" ry="2.01708" fill="white"/>
<ellipse cx="8.88123" cy="8.24462" rx="2.02381" ry="2.01708" fill="white"/>
<ellipse cx="8.88123" cy="14.6992" rx="2.02381" ry="2.01708" fill="white"/>
<ellipse cx="8.88123" cy="21.1538" rx="2.02381" ry="2.01708" fill="white"/>
<rect x="1.9" y="1.9" width="24.8667" height="24.7913" rx="2.6" stroke="#FF0000" stroke-width="2.2"/>
</svg>
