<svg width="220" height="51" viewBox="0 0 220 51" fill="none" xmlns="http://www.w3.org/2000/svg">
<path d="M5.7973 47.2915C7.75569 45.808 8.52339 43.8765 9.74543 41.9913C12.1425 38.2364 15.746 34.5588 19.1301 31.6383C21.1981 29.8613 25.9766 23.4641 28.311 23.325C29.9247 23.2323 31.9301 25.5501 33.4969 25.9364C36.0036 26.5391 38.244 25.5965 40.5001 23.6186C47.284 17.6849 49.164 6.25027 57.828 1.87728C59.097 1.24374 62.5908 -0.456009 63.8912 0.115724C65.2385 0.70291 66.3353 4.44236 66.9776 5.69399C68.0273 7.73369 80.7804 32.8281 85.6372 39.7971C88.285 43.5984 91.5281 47.6932 94.7085 50.9845H67.8393C68.09 50.4592 68.372 49.9647 68.6853 49.5629C70.299 47.4305 72.5394 46.8279 72.1321 43.2739C70.4557 45.2209 68.1526 46.4725 66.2099 48.9912C65.6302 49.7329 64.9722 50.3819 64.2828 51H60.6637C61.2748 48.2804 58.0316 45.02 57.5773 42.5631C57.0289 39.6117 57.922 36.4903 58.7367 33.539C58.815 31.1748 58.8933 28.826 59.1127 26.5082C59.708 27.8989 60.3974 29.3823 61.0867 30.8348C61.3218 31.082 61.5411 31.3756 61.6978 31.731C62.6378 26.4773 58.862 21.7025 64.9722 17.994C65.1602 15.6452 64.5492 13.5592 64.0322 11.3804C63.5778 9.41798 63.6562 7.33193 63.2175 5.27678C62.5908 2.40266 61.9484 2.61899 59.2694 3.82427C55.8226 5.36949 53.6448 8.32087 51.4358 11.2723C50.6994 12.2612 50.0571 13.281 49.446 14.3163C50.7151 13.0956 52.2661 12.1685 54.1462 11.1795C52.7205 14.9962 48.8664 17.654 45.6859 20.6827C45.5449 20.899 44.2915 22.6606 43.7902 23.3714C45.0436 22.846 46.4379 22.367 47.6286 22.2279C46.5633 24.1594 38.197 28.2852 37.351 29.9231C36.3326 31.901 36.693 33.5853 37.304 35.3005C37.3823 35.316 37.4763 35.3469 37.5547 35.3623C39.4504 35.0996 40.7821 34.0798 42.6465 33.369C40.5941 35.1151 39.8734 37.2629 39.1684 39.4572C39.0744 39.8898 38.385 47.2297 38.103 51H29.5017C30.6611 49.5011 31.6795 47.8477 31.8048 46.4725C32.1338 47.2142 33.7005 48.574 33.6692 48.5431C33.5909 44.9736 34.0609 41.3887 34.1392 37.881C32.2591 40.0289 30.3634 48.1413 26.7913 49.2539C26.7913 49.2384 26.7913 49.223 26.7913 49.223C26.3526 46.9824 25.0993 44.8345 25.6789 42.3622C26.7443 42.7794 27.7313 43.4747 28.546 44.1856C28.405 41.466 25.9296 39.4263 26.6816 36.9075C26.7286 36.8612 26.7756 36.8148 26.8226 36.7685C27.4807 37.093 28.5774 37.0621 29.2511 37.402C29.0317 35.3469 27.418 34.3734 27.2143 32.1328C27.042 30.2476 27.7783 27.698 28.3267 25.9519C24.0339 29.2587 20.7594 33.029 17.4537 37.1548C17.203 37.4638 16.9523 37.7729 16.7017 38.0819C18.331 37.402 20.0701 36.9075 21.7778 35.9804C19.8037 39.2872 15.3699 40.4152 12.5029 42.9803C12.4559 43.0266 10.7951 44.8964 9.98044 45.8235C8.7114 47.2915 7.44235 48.7903 5.71896 49.8565C4.87293 50.3819 3.94858 50.6755 3.08689 51H0.000442151C1.70816 49.4857 3.9799 48.6822 5.7973 47.2915ZM64.9095 34.2188C64.3925 37.2784 62.8258 39.9207 62.5751 42.9648L62.4341 43.1039C64.4552 41.5123 66.1159 39.7971 66.5233 37.2475C67.0873 38.0665 67.432 39.5962 67.9176 40.6624C68.701 38.2982 70.205 35.3469 69.9544 33.2608C69.641 30.603 66.9463 28.6406 66.9149 25.6583C66.9463 25.6274 65.4266 31.1902 64.9095 34.2188Z" fill="white"/>
<path d="M53.0335 43.9229C53.0178 43.9229 53.5818 43.9229 53.5662 43.9229C54.1145 45.808 55.0545 48.6512 56.1982 50.9691H48.819C52.2188 49.5166 51.8114 47.3996 53.0335 43.9229Z" fill="white"/>
<path d="M106.661 17.07C104.313 17.07 102.498 16.3368 101.216 14.8705C99.9336 13.4041 99.2925 11.3241 99.2925 8.63048C99.2925 6.03248 99.9259 3.99234 101.193 2.51004C102.475 1.01181 104.236 0.262695 106.476 0.262695C108.824 0.262695 110.655 0.987903 111.968 2.43832C113.281 3.88873 113.937 5.91294 113.937 8.51094C113.937 11.2046 113.296 13.3085 112.014 14.8226C110.747 16.3209 108.963 17.07 106.661 17.07ZM106.638 3.60981C104.63 3.60981 103.626 5.2993 103.626 8.67829C103.626 10.2881 103.819 11.4835 104.205 12.2645C104.684 13.2367 105.487 13.7229 106.615 13.7229C108.608 13.7229 109.604 12.0812 109.604 8.79783C109.604 6.98083 109.365 5.66589 108.886 4.85302C108.422 4.02421 107.673 3.60981 106.638 3.60981Z" fill="#BF0A30"/>
<path d="M125.695 2.19924L129.773 12.4318V5.35509C129.773 4.2872 129.572 3.75326 129.17 3.75326C129.062 3.75326 128.9 3.78513 128.684 3.84889C128.483 3.8967 128.328 3.92061 128.22 3.92061C127.896 3.92061 127.618 3.7692 127.386 3.46636C127.17 3.16353 127.062 2.78897 127.062 2.34269C127.062 1.81671 127.208 1.39434 127.502 1.07557C127.795 0.756794 128.182 0.597408 128.661 0.597408C128.908 0.597408 129.333 0.637254 129.935 0.716948C130.538 0.796641 131.071 0.836487 131.534 0.836487C131.951 0.836487 132.438 0.80461 132.994 0.740855C133.828 0.645224 134.346 0.597408 134.546 0.597408C135.041 0.597408 135.442 0.756794 135.751 1.07557C136.06 1.39434 136.215 1.81671 136.215 2.34269C136.215 2.78897 136.091 3.16353 135.844 3.46636C135.597 3.7692 135.296 3.92061 134.94 3.92061C134.801 3.92061 134.616 3.8967 134.384 3.84889C134.152 3.78513 133.975 3.75326 133.851 3.75326C133.542 3.75326 133.341 3.95249 133.249 4.35096C133.218 4.51034 133.202 4.84505 133.202 5.35509V15.0856C133.202 16.1376 132.785 16.6635 131.951 16.6635C131.797 16.6635 131.557 16.6556 131.233 16.6396C130.924 16.6078 130.692 16.5918 130.538 16.5918C130.522 16.5918 130.144 16.6078 129.402 16.6396C129.402 16.6396 129.232 16.6396 128.892 16.6396C128.444 16.6396 128.112 16.5281 127.896 16.3049C127.772 16.1774 127.595 15.8347 127.363 15.2769L122.891 4.75739V11.9776C122.891 13.0614 123.092 13.6033 123.493 13.6033C123.601 13.6033 123.764 13.5794 123.98 13.5316C124.212 13.4679 124.381 13.436 124.49 13.436C124.814 13.436 125.084 13.5874 125.301 13.8902C125.532 14.1931 125.648 14.5676 125.648 15.0139C125.648 16.1774 125.108 16.7592 124.026 16.7592C123.717 16.7592 123.207 16.7114 122.497 16.6157C122.018 16.552 121.539 16.5201 121.06 16.5201C120.658 16.5201 120.118 16.5599 119.438 16.6396C118.758 16.7193 118.326 16.7592 118.14 16.7592C117.013 16.7592 116.449 16.1774 116.449 15.0139C116.449 14.5676 116.565 14.1931 116.796 13.8902C117.044 13.5874 117.345 13.436 117.7 13.436C117.839 13.436 118.025 13.4679 118.256 13.5316C118.503 13.5794 118.689 13.6033 118.812 13.6033C119.229 13.6033 119.438 13.0614 119.438 11.9776V5.35509C119.438 4.2872 119.229 3.75326 118.812 3.75326C118.689 3.75326 118.503 3.78513 118.256 3.84889C118.025 3.8967 117.839 3.92061 117.7 3.92061C117.345 3.92061 117.044 3.7692 116.796 3.46636C116.565 3.16353 116.449 2.78897 116.449 2.34269C116.449 1.81671 116.603 1.39434 116.912 1.07557C117.221 0.756794 117.623 0.597408 118.117 0.597408C118.442 0.597408 118.913 0.637254 119.531 0.716948C120.149 0.796641 120.635 0.836487 120.991 0.836487C121.284 0.836487 121.786 0.80461 122.497 0.740855C122.821 0.724917 123.192 0.693039 123.609 0.645223C123.794 0.613346 123.995 0.597408 124.212 0.597408C124.629 0.597408 124.953 0.764763 125.185 1.09947C125.277 1.22698 125.447 1.59357 125.695 2.19924Z" fill="#BF0A30"/>
<path d="M145.913 0.262695C147.569 0.262695 148.949 0.828517 150.053 1.96016C150.195 1.01978 150.668 0.549591 151.472 0.549591C152.449 0.549591 152.938 1.02775 152.938 1.98407C152.938 2.14345 152.907 2.46223 152.844 2.94039C152.749 3.65762 152.702 4.14375 152.702 4.39877C152.702 4.68567 152.717 4.90084 152.749 5.04429C152.781 5.55432 152.796 5.84122 152.796 5.90497C152.796 6.31938 152.615 6.67003 152.252 6.95692C151.89 7.22788 151.424 7.36336 150.857 7.36336C149.942 7.36336 149.39 6.9091 149.201 6.0006C149.012 5.0921 148.736 4.47049 148.373 4.13578C148.026 3.78513 147.467 3.60981 146.694 3.60981C145.669 3.60981 144.873 4.09594 144.305 5.06819C143.753 6.02451 143.477 7.38726 143.477 9.15645C143.477 10.6547 143.745 11.8262 144.281 12.6709C144.833 13.4997 145.59 13.9141 146.552 13.9141C147.167 13.9141 147.672 13.7388 148.066 13.3882C148.476 13.0216 148.681 12.5673 148.681 12.0254C148.681 11.356 148.405 11.0213 147.853 11.0213C147.821 11.0213 147.774 11.0213 147.711 11.0213C147.648 11.0372 147.593 11.0452 147.545 11.0452C147.293 11.0771 147.151 11.093 147.12 11.093C146.804 11.093 146.536 10.9575 146.316 10.6866C146.095 10.3997 145.984 10.049 145.984 9.63461C145.984 9.15645 146.142 8.77392 146.457 8.48703C146.773 8.20013 147.183 8.05669 147.687 8.05669C148.018 8.05669 148.515 8.1045 149.177 8.20013C149.855 8.27983 150.368 8.31967 150.715 8.31967C151.235 8.31967 151.811 8.27983 152.441 8.20013C152.946 8.13638 153.293 8.1045 153.482 8.1045C153.987 8.1045 154.389 8.26389 154.688 8.58266C155.004 8.88549 155.162 9.2999 155.162 9.82587C155.162 10.2881 155.051 10.6786 154.83 10.9974C154.61 11.3002 154.334 11.4516 154.003 11.4516L153.435 11.4038C153.009 11.4038 152.796 11.7624 152.796 12.4797C152.796 12.7825 152.804 13.1013 152.82 13.436L152.867 14.464C152.883 14.8147 152.891 15.1494 152.891 15.4681C152.891 16.536 152.307 17.07 151.141 17.07C150.037 17.07 149.485 16.6795 149.485 15.8985V15.755C148.397 16.6317 147.159 17.07 145.771 17.07C144.557 17.07 143.414 16.7512 142.342 16.1137C141.27 15.4602 140.489 14.6154 140 13.5794C139.37 12.2565 139.054 10.7184 139.054 8.96519C139.054 6.2875 139.669 4.16766 140.899 2.60568C142.129 1.04369 143.8 0.262695 145.913 0.262695Z" fill="white"/>
<path d="M167.538 11.6907H164.392C163.493 11.6907 163.044 12.2326 163.044 13.3164C163.044 13.5715 163.178 13.699 163.446 13.699C163.525 13.699 163.643 13.691 163.801 13.6751C163.959 13.6432 164.077 13.6272 164.156 13.6272C164.739 13.6272 165.031 14.0974 165.031 15.0378C165.031 15.5478 164.897 15.9622 164.629 16.281C164.361 16.5998 164.006 16.7592 163.564 16.7592C163.344 16.7592 162.855 16.7034 162.098 16.5918C161.767 16.544 161.302 16.5201 160.702 16.5201C160.056 16.5201 159.551 16.544 159.189 16.5918C158.353 16.7034 157.856 16.7592 157.699 16.7592C157.21 16.7592 156.808 16.6078 156.492 16.3049C156.193 16.0021 156.043 15.6036 156.043 15.1095C156.043 13.9938 156.461 13.436 157.297 13.436C157.391 13.436 157.541 13.4519 157.746 13.4838C157.951 13.4997 158.101 13.5077 158.195 13.5077C158.495 13.5077 158.739 13.3403 158.929 13.0056C158.976 12.91 159.086 12.6151 159.26 12.121L162.524 2.72521C162.902 1.65733 163.328 0.987904 163.801 0.716948C164.148 0.541622 164.913 0.453959 166.095 0.453959C167.42 0.453959 168.255 0.541622 168.602 0.716948C168.949 0.876334 169.233 1.33855 169.454 2.10361L172.481 12.2884C172.718 13.1013 172.994 13.5077 173.309 13.5077C173.404 13.5077 173.569 13.4838 173.806 13.436H174.066C174.949 13.436 175.391 13.9619 175.391 15.0139C175.391 15.5399 175.233 15.9622 174.918 16.281C174.602 16.5998 174.192 16.7592 173.688 16.7592C173.467 16.7592 173.175 16.7353 172.813 16.6875C172.371 16.6078 172.079 16.5679 171.937 16.5679C171.59 16.536 171.141 16.5201 170.589 16.5201C169.99 16.5201 169.588 16.536 169.383 16.5679C168.579 16.6954 168.074 16.7592 167.869 16.7592C167.443 16.7592 167.089 16.5998 166.805 16.281C166.537 15.9463 166.403 15.5319 166.403 15.0378C166.403 14.0974 166.702 13.6272 167.302 13.6272C167.38 13.6272 167.499 13.6432 167.656 13.6751C167.814 13.691 167.932 13.699 168.011 13.699C168.311 13.699 168.46 13.5316 168.46 13.1969C168.46 12.7666 168.374 12.4079 168.2 12.121C168.027 11.8341 167.806 11.6907 167.538 11.6907ZM167.183 8.03278L166.048 3.13165L164.581 8.22404C164.566 8.27186 164.558 8.32764 164.558 8.3914C164.558 8.58266 164.755 8.67829 165.149 8.67829H166.616C167.026 8.67829 167.231 8.56672 167.231 8.34358C167.231 8.35952 167.215 8.25592 167.183 8.03278Z" fill="white"/>
<path d="M187.401 2.0797L189.364 10.8061L191.422 2.43832C191.595 1.73702 191.785 1.25886 191.989 1.00384C192.21 0.732886 192.518 0.597408 192.912 0.597408C193.259 0.597408 193.787 0.637254 194.497 0.716948C195.206 0.796641 195.742 0.836487 196.105 0.836487C196.483 0.836487 197.422 0.772733 198.92 0.645223C199.345 0.613346 199.661 0.597408 199.866 0.597408C200.386 0.597408 200.804 0.756794 201.119 1.07557C201.435 1.3784 201.592 1.80077 201.592 2.34269C201.592 2.78897 201.466 3.16353 201.214 3.46636C200.977 3.7692 200.678 3.92061 200.315 3.92061C200.173 3.92061 199.976 3.8967 199.724 3.84889C199.472 3.78513 199.29 3.75326 199.18 3.75326C198.754 3.75326 198.541 4.2872 198.541 5.35509V11.9776C198.541 13.0614 198.746 13.6033 199.156 13.6033C199.282 13.6033 199.472 13.5794 199.724 13.5316C199.976 13.4679 200.165 13.436 200.291 13.436C200.654 13.436 200.962 13.5874 201.214 13.8902C201.466 14.1931 201.592 14.5676 201.592 15.0139C201.592 15.5558 201.435 15.9862 201.119 16.3049C200.804 16.6078 200.386 16.7592 199.866 16.7592C199.566 16.7592 199.062 16.7114 198.352 16.6157C197.879 16.552 197.406 16.5201 196.933 16.5201C196.633 16.5201 196.192 16.5599 195.608 16.6396C195.025 16.7193 194.583 16.7592 194.284 16.7592C193.811 16.7592 193.424 16.5998 193.125 16.281C192.841 15.9622 192.699 15.5399 192.699 15.0139C192.699 14.0257 193.022 13.5316 193.669 13.5316C193.763 13.5316 193.834 13.5396 193.882 13.5555C193.929 13.5555 193.984 13.5555 194.047 13.5555C194.11 13.5715 194.15 13.5794 194.166 13.5794C194.418 13.5794 194.568 13.4041 194.615 13.0534C194.631 12.8941 194.639 12.6231 194.639 12.2406V3.22728L191.351 14.99C191.067 16.0101 190.602 16.5201 189.955 16.5201H188.442C187.811 16.5201 187.377 16.0658 187.141 15.1573L183.995 3.22728V12.2406C183.995 12.9897 184.066 13.4121 184.208 13.5077C184.255 13.5555 184.342 13.5794 184.468 13.5794C184.5 13.5794 184.547 13.5715 184.61 13.5555C184.657 13.5555 184.705 13.5555 184.752 13.5555C184.799 13.5396 184.87 13.5316 184.965 13.5316C185.595 13.5316 185.911 14.0177 185.911 14.99C185.911 15.5319 185.769 15.9622 185.485 16.281C185.201 16.5998 184.823 16.7592 184.35 16.7592C184.129 16.7592 183.845 16.7353 183.498 16.6875C183.057 16.6237 182.781 16.5839 182.67 16.5679C182.339 16.536 181.961 16.5201 181.535 16.5201C180.999 16.5201 180.55 16.544 180.187 16.5918C179.209 16.7193 178.72 16.7831 178.72 16.7831C178.232 16.7831 177.83 16.6157 177.514 16.281C177.199 15.9463 177.041 15.5239 177.041 15.0139C177.041 14.5517 177.159 14.1771 177.396 13.8902C177.648 13.5874 177.964 13.436 178.342 13.436C178.468 13.436 178.65 13.4679 178.886 13.5316C179.138 13.5794 179.328 13.6033 179.454 13.6033C179.769 13.6033 179.966 13.3961 180.045 12.9817C180.077 12.8223 180.092 12.4876 180.092 11.9776V5.35509C180.092 4.84505 180.077 4.51831 180.045 4.37486C179.966 3.96046 179.769 3.75326 179.454 3.75326C179.328 3.75326 179.138 3.78513 178.886 3.84889C178.65 3.8967 178.46 3.92061 178.318 3.92061C177.956 3.92061 177.648 3.7692 177.396 3.46636C177.159 3.16353 177.041 2.78897 177.041 2.34269C177.041 1.17917 177.625 0.597408 178.791 0.597408C179.17 0.597408 179.801 0.637254 180.684 0.716948C181.567 0.796641 182.229 0.836487 182.67 0.836487C183.38 0.836487 184.121 0.788671 184.894 0.693038C185.414 0.629285 185.824 0.597408 186.124 0.597408C186.518 0.597408 186.794 0.693039 186.952 0.884302C187.109 1.07557 187.259 1.47403 187.401 2.0797Z" fill="white"/>
<path d="M212.478 3.60981C211.957 3.60981 211.61 3.65762 211.437 3.75326C211.2 3.8967 211.082 4.21548 211.082 4.70957V6.04842C211.082 6.31938 211.114 6.52658 211.177 6.67002C211.256 6.79753 211.445 6.86129 211.744 6.86129C212.438 6.86129 212.785 6.60627 212.785 6.09623V5.78543C212.769 5.6898 212.762 5.57026 212.762 5.42681C212.762 4.75739 213.148 4.42268 213.92 4.42268C214.725 4.42268 215.127 4.82911 215.127 5.64198C215.127 5.86512 215.111 6.11217 215.079 6.38313C215.016 6.9091 214.985 7.39523 214.985 7.84151C214.985 8.25592 215.016 8.78189 215.079 9.41944C215.143 10.057 215.174 10.5033 215.174 10.7583C215.174 11.6987 214.756 12.1689 213.92 12.1689C213.132 12.1689 212.738 11.7624 212.738 10.9495C212.738 10.8699 212.738 10.83 212.738 10.83C212.738 10.7503 212.754 10.5591 212.785 10.2562C212.785 9.87369 212.446 9.68243 211.768 9.68243C211.311 9.68243 211.082 9.93744 211.082 10.4475V12.2406C211.082 12.7984 211.177 13.181 211.366 13.3882C211.571 13.5794 211.942 13.6751 212.478 13.6751H213.85C214.859 13.6751 215.56 13.5874 215.955 13.4121C216.365 13.2367 216.57 12.9259 216.57 12.4797C216.57 12.2565 216.546 11.9935 216.499 11.6907C216.451 11.3719 216.428 11.1089 216.428 10.9017C216.428 10.312 216.593 9.84978 216.924 9.51507C217.255 9.18036 217.705 9.013 218.273 9.013C219.424 9.013 219.999 9.65055 219.999 10.9256C219.999 11.34 219.976 11.7784 219.928 12.2406C219.849 13.0056 219.81 13.4838 219.81 13.6751C219.81 13.8504 219.849 14.1931 219.928 14.7031C219.976 15.0059 219.999 15.3167 219.999 15.6355C219.999 16.3846 219.534 16.7592 218.604 16.7592C218.304 16.7592 217.807 16.7353 217.114 16.6875C215.962 16.6078 214.125 16.552 211.603 16.5201C211.603 16.5201 210.901 16.5201 209.497 16.5201C208.709 16.5201 208.055 16.544 207.534 16.5918L205.737 16.7592C205.721 16.7592 205.689 16.7671 205.642 16.7831C205.595 16.7831 205.555 16.7831 205.524 16.7831C205.035 16.7831 204.633 16.6157 204.318 16.281C204.018 15.9463 203.868 15.5239 203.868 15.0139C203.868 14.5676 203.986 14.1931 204.223 13.8902C204.475 13.5874 204.791 13.436 205.169 13.436C205.295 13.436 205.484 13.4679 205.737 13.5316C205.989 13.5794 206.17 13.6033 206.281 13.6033C206.706 13.6033 206.919 13.0614 206.919 11.9776V5.35509C206.919 4.2872 206.706 3.75326 206.281 3.75326C206.186 3.75326 205.997 3.78513 205.713 3.84889C205.508 3.8967 205.327 3.92061 205.169 3.92061C204.806 3.92061 204.499 3.7692 204.247 3.46636C203.994 3.16353 203.868 2.78897 203.868 2.34269C203.868 1.17917 204.444 0.597408 205.595 0.597408C205.863 0.597408 206.407 0.629285 207.227 0.693038C208.457 0.788671 209.647 0.836487 210.798 0.836487C210.909 0.836487 211.855 0.812579 213.637 0.764763C214.93 0.732886 215.781 0.701009 216.191 0.669131C216.869 0.621316 217.579 0.597408 218.32 0.597408C219.203 0.597408 219.644 0.987904 219.644 1.7689C219.644 2.02391 219.613 2.39847 219.55 2.89257C219.502 3.38667 219.479 3.76123 219.479 4.01624C219.479 4.27126 219.51 4.63785 219.573 5.11601C219.652 5.57823 219.692 5.92888 219.692 6.16796C219.692 6.63018 219.518 7.02067 219.171 7.33945C218.84 7.65822 218.422 7.81761 217.918 7.81761C216.735 7.81761 216.144 7.20397 216.144 5.9767C216.144 5.76949 216.175 5.4826 216.238 5.11601C216.317 4.74942 216.357 4.47846 216.357 4.30314C216.357 3.95249 216.175 3.73732 215.813 3.65762C215.687 3.62575 215.355 3.60981 214.819 3.60981H212.478Z" fill="white"/>
<path d="M220 21.2715H99.2925V50.6842L106.77 44.6509H194.363L200.772 38.6175H153.438L155.281 35.9779L202.909 36.3549L210.386 30.0953H159.37L160.802 28.059H212.522L220 21.2715Z" fill="#BF0A30"/>
<path d="M116.821 24.0723C118.531 24.0723 120.018 24.6757 121.283 25.8827C121.265 25.831 121.256 25.7448 121.256 25.6241C121.256 24.6585 121.79 24.1757 122.859 24.1757C123.358 24.1757 123.759 24.3309 124.062 24.6413C124.382 24.9344 124.542 25.3223 124.542 25.8051C124.542 26.0293 124.516 26.3569 124.462 26.7879C124.373 27.4949 124.329 28.0035 124.329 28.3139C124.329 28.538 124.355 28.8743 124.409 29.3226C124.48 29.7536 124.516 30.0812 124.516 30.3054C124.516 30.8399 124.311 31.2709 123.901 31.5985C123.509 31.9261 122.993 32.0899 122.352 32.0899C120.998 32.0899 120.339 31.5468 120.374 30.4605L120.401 29.6588C120.419 29.0898 120.178 28.6242 119.68 28.2622C119.181 27.8828 118.548 27.6932 117.783 27.6932C115.396 27.6932 114.202 29.5208 114.202 33.1762C114.202 35.0729 114.487 36.4609 115.057 37.3402C115.645 38.2024 116.571 38.6334 117.836 38.6334C118.62 38.6334 119.261 38.461 119.76 38.1161C120.259 37.7541 120.499 37.2885 120.481 36.7195L120.454 35.7884C120.437 35.2539 120.615 34.8229 120.989 34.4953C121.363 34.1676 121.844 34.0038 122.432 34.0038C123.18 34.0038 123.768 34.2452 124.195 34.728C124.64 35.2108 124.863 35.866 124.863 36.6936C124.863 38.3317 124.186 39.6766 122.832 40.7284C121.496 41.7629 119.769 42.2802 117.649 42.2802C115.048 42.2802 112.991 41.4784 111.477 39.8749C109.981 38.2713 109.232 36.0815 109.232 33.3055C109.232 30.4433 109.909 28.1932 111.263 26.5552C112.617 24.8999 114.469 24.0723 116.821 24.0723Z" fill="white"/>
<path d="M136.345 42.2543C133.637 42.2543 131.544 41.4612 130.066 39.8749C128.587 38.2886 127.848 36.0384 127.848 33.1245C127.848 30.314 128.578 28.107 130.039 26.5034C131.518 24.8827 133.548 24.0723 136.131 24.0723C138.839 24.0723 140.949 24.8568 142.463 26.4258C143.978 27.9949 144.735 30.1847 144.735 32.9952C144.735 35.9091 143.995 38.1851 142.517 39.8231C141.056 41.4439 138.999 42.2543 136.345 42.2543ZM136.318 27.6932C134.002 27.6932 132.845 29.5208 132.845 33.1762C132.845 34.9177 133.067 36.2109 133.513 37.0557C134.065 38.1075 134.991 38.6334 136.291 38.6334C138.589 38.6334 139.738 36.8574 139.738 33.3055C139.738 31.3399 139.462 29.9174 138.91 29.0381C138.375 28.1415 137.512 27.6932 136.318 27.6932Z" fill="white"/>
</svg>
