<svg width="162" height="71" viewBox="0 0 162 71" fill="none" xmlns="http://www.w3.org/2000/svg">
<path d="M44.7175 27.4201C42.2679 27.4201 40.3743 26.6725 39.0367 25.1773C37.6991 23.6821 37.0303 21.5612 37.0303 18.8146C37.0303 16.1655 37.691 14.0852 39.0125 12.5738C40.3501 11.0461 42.1874 10.2822 44.5242 10.2822C46.9738 10.2822 48.8835 11.0217 50.2534 12.5006C51.6232 13.9796 52.3081 16.0436 52.3081 18.6927C52.3081 21.4393 51.6393 23.5846 50.3017 25.1285C48.9802 26.6562 47.1188 27.4201 44.7175 27.4201ZM44.6934 13.6952C42.5983 13.6952 41.5508 15.4179 41.5508 18.8633C41.5508 20.5048 41.7522 21.7237 42.1551 22.5201C42.6547 23.5114 43.4927 24.0071 44.6692 24.0071C46.7481 24.0071 47.7876 22.3332 47.7876 18.9852C47.7876 17.1325 47.5378 15.7917 47.0382 14.9628C46.5548 14.1177 45.7731 13.6952 44.6934 13.6952Z" fill="#BF0A30"/>
<path d="M64.5735 12.2569L68.8281 22.6907V15.4748C68.8281 14.3859 68.6186 13.8414 68.1996 13.8414C68.0868 13.8414 67.9175 13.8739 67.6919 13.9389C67.4824 13.9877 67.3213 14.0121 67.2084 14.0121C66.87 14.0121 66.5799 13.8577 66.3382 13.5489C66.1126 13.2401 65.9998 12.8582 65.9998 12.4031C65.9998 11.8668 66.1529 11.4361 66.4591 11.1111C66.7653 10.786 67.1682 10.6235 67.6677 10.6235C67.9256 10.6235 68.3688 10.6642 68.9973 10.7454C69.6258 10.8267 70.1818 10.8673 70.6653 10.8673C71.1004 10.8673 71.6081 10.8348 72.1883 10.7698C73.0585 10.6723 73.5984 10.6235 73.8079 10.6235C74.3236 10.6235 74.7426 10.786 75.0649 11.1111C75.3873 11.4361 75.5484 11.8668 75.5484 12.4031C75.5484 12.8582 75.4195 13.2401 75.1616 13.5489C74.9038 13.8577 74.5895 14.0121 74.2189 14.0121C74.0738 14.0121 73.8804 13.9877 73.6387 13.9389C73.3969 13.8739 73.2116 13.8414 73.0827 13.8414C72.7604 13.8414 72.5509 14.0446 72.4542 14.4509C72.4219 14.6134 72.4058 14.9547 72.4058 15.4748V25.3967C72.4058 26.4693 71.9707 27.0056 71.1004 27.0056C70.9393 27.0056 70.6895 26.9975 70.351 26.9813C70.0287 26.9487 69.787 26.9325 69.6258 26.9325C69.6097 26.9325 69.2149 26.9487 68.4413 26.9813C68.4413 26.9813 68.264 26.9813 67.9095 26.9813C67.4421 26.9813 67.0956 26.8675 66.87 26.64C66.7411 26.5099 66.5558 26.1605 66.314 25.5917L61.6485 14.8653V22.2275C61.6485 23.3327 61.858 23.8852 62.277 23.8852C62.3898 23.8852 62.559 23.8609 62.7846 23.8121C63.0264 23.7471 63.2037 23.7146 63.3165 23.7146C63.6549 23.7146 63.9369 23.869 64.1625 24.1778C64.4043 24.4866 64.5252 24.8685 64.5252 25.3235C64.5252 26.5099 63.9611 27.1031 62.833 27.1031C62.5107 27.1031 61.9788 27.0544 61.2375 26.9569C60.7379 26.8919 60.2383 26.8594 59.7387 26.8594C59.3197 26.8594 58.7557 26.9 58.0466 26.9813C57.3375 27.0625 56.8862 27.1031 56.6928 27.1031C55.5164 27.1031 54.9282 26.5099 54.9282 25.3235C54.9282 24.8685 55.049 24.4866 55.2908 24.1778C55.5486 23.869 55.8629 23.7146 56.2335 23.7146C56.3786 23.7146 56.572 23.7471 56.8137 23.8121C57.0716 23.8609 57.265 23.8852 57.3939 23.8852C57.829 23.8852 58.0466 23.3327 58.0466 22.2275V15.4748C58.0466 14.3859 57.829 13.8414 57.3939 13.8414C57.265 13.8414 57.0716 13.8739 56.8137 13.9389C56.572 13.9877 56.3786 14.0121 56.2335 14.0121C55.8629 14.0121 55.5486 13.8577 55.2908 13.5489C55.049 13.2401 54.9282 12.8582 54.9282 12.4031C54.9282 11.8668 55.0893 11.4361 55.4116 11.1111C55.7339 10.786 56.153 10.6235 56.6687 10.6235C57.0071 10.6235 57.4986 10.6642 58.1433 10.7454C58.7879 10.8267 59.2956 10.8673 59.6662 10.8673C59.9724 10.8673 60.4962 10.8348 61.2375 10.7698C61.5759 10.7535 61.9627 10.721 62.3979 10.6723C62.5913 10.6398 62.8008 10.6235 63.0264 10.6235C63.4615 10.6235 63.7999 10.7942 64.0417 11.1355C64.1384 11.2655 64.3156 11.6393 64.5735 12.2569Z" fill="#BF0A30"/>
<path d="M85.2245 10.2822C86.9403 10.2822 88.3701 10.8592 89.5139 12.0131C89.661 11.0542 90.1512 10.5748 90.9846 10.5748C91.9977 10.5748 92.5043 11.0623 92.5043 12.0375C92.5043 12.2 92.4716 12.525 92.4063 13.0126C92.3082 13.7439 92.2592 14.2396 92.2592 14.4996C92.2592 14.7922 92.2755 15.0116 92.3082 15.1579C92.3409 15.6779 92.3572 15.9705 92.3572 16.0355C92.3572 16.458 92.1693 16.8156 91.7935 17.1081C91.4176 17.3844 90.9356 17.5225 90.3473 17.5225C89.3996 17.5225 88.8276 17.0594 88.6315 16.133C88.4354 15.2066 88.1495 14.5728 87.7736 14.2315C87.4141 13.8739 86.834 13.6952 86.0333 13.6952C84.9712 13.6952 84.146 14.1909 83.5577 15.1822C82.9858 16.1574 82.6998 17.5469 82.6998 19.3509C82.6998 20.8786 82.9776 22.0731 83.5332 22.9345C84.1051 23.7796 84.8895 24.2021 85.8863 24.2021C86.5236 24.2021 87.0465 24.0234 87.455 23.6658C87.8799 23.292 88.0923 22.8288 88.0923 22.2763C88.0923 21.5937 87.8063 21.2524 87.2344 21.2524C87.2017 21.2524 87.1527 21.2524 87.0873 21.2524C87.022 21.2686 86.9648 21.2768 86.9157 21.2768C86.6543 21.3093 86.5072 21.3255 86.4745 21.3255C86.1477 21.3255 85.8699 21.1874 85.6412 20.9111C85.4124 20.6186 85.298 20.261 85.298 19.8385C85.298 19.3509 85.4614 18.9608 85.7882 18.6683C86.115 18.3758 86.5399 18.2295 87.0628 18.2295C87.406 18.2295 87.9207 18.2783 88.607 18.3758C89.3097 18.457 89.8408 18.4977 90.2003 18.4977C90.7395 18.4977 91.3359 18.457 91.9896 18.3758C92.5125 18.3108 92.872 18.2783 93.0681 18.2783C93.591 18.2783 94.0077 18.4408 94.3181 18.7658C94.645 19.0746 94.8084 19.4972 94.8084 20.0335C94.8084 20.5048 94.694 20.903 94.4652 21.228C94.2364 21.5368 93.9505 21.6912 93.6073 21.6912L93.019 21.6424C92.5778 21.6424 92.3572 22.0081 92.3572 22.7395C92.3572 23.0482 92.3654 23.3733 92.3818 23.7146L92.4308 24.7628C92.4471 25.1204 92.4553 25.4617 92.4553 25.7867C92.4553 26.8756 91.8507 27.4201 90.6415 27.4201C89.4976 27.4201 88.9257 27.0219 88.9257 26.2255V26.0793C87.7982 26.9731 86.5154 27.4201 85.0774 27.4201C83.8192 27.4201 82.6345 27.095 81.5233 26.4449C80.4121 25.7786 79.6032 24.9172 79.0967 23.8609C78.443 22.5119 78.1162 20.9436 78.1162 19.1559C78.1162 16.4255 78.7535 14.264 80.0281 12.6713C81.3027 11.0786 83.0348 10.2822 85.2245 10.2822Z" fill="white"/>
<path d="M107.634 21.935H104.374C103.443 21.935 102.977 22.4875 102.977 23.5927C102.977 23.8527 103.116 23.9827 103.394 23.9827C103.476 23.9827 103.598 23.9746 103.761 23.9584C103.925 23.9259 104.047 23.9096 104.129 23.9096C104.734 23.9096 105.036 24.389 105.036 25.3479C105.036 25.868 104.897 26.2905 104.619 26.6156C104.342 26.9406 103.974 27.1031 103.516 27.1031C103.288 27.1031 102.781 27.0463 101.997 26.9325C101.654 26.8837 101.171 26.8594 100.551 26.8594C99.8805 26.8594 99.3576 26.8837 98.9818 26.9325C98.1157 27.0463 97.601 27.1031 97.4376 27.1031C96.931 27.1031 96.5143 26.9487 96.1875 26.64C95.877 26.3312 95.7218 25.9249 95.7218 25.4211C95.7218 24.2834 96.1548 23.7146 97.0209 23.7146C97.1189 23.7146 97.2742 23.7308 97.4866 23.7633C97.699 23.7796 97.8543 23.7877 97.9523 23.7877C98.2628 23.7877 98.5161 23.6171 98.7122 23.2758C98.7612 23.1783 98.8756 22.8776 99.0553 22.3738L102.438 12.7932C102.83 11.7043 103.271 11.0217 103.761 10.7454C104.121 10.5666 104.914 10.4773 106.139 10.4773C107.512 10.4773 108.378 10.5666 108.737 10.7454C109.097 10.9079 109.391 11.3792 109.62 12.1593L112.757 22.5444C113.002 23.3733 113.288 23.7877 113.615 23.7877C113.713 23.7877 113.885 23.7633 114.13 23.7146H114.399C115.314 23.7146 115.772 24.2509 115.772 25.3235C115.772 25.8599 115.609 26.2905 115.282 26.6156C114.955 26.9406 114.53 27.1031 114.007 27.1031C113.778 27.1031 113.476 27.0788 113.1 27.03C112.643 26.9487 112.34 26.9081 112.193 26.9081C111.834 26.8756 111.368 26.8594 110.796 26.8594C110.175 26.8594 109.759 26.8756 109.546 26.9081C108.713 27.0381 108.19 27.1031 107.977 27.1031C107.536 27.1031 107.169 26.9406 106.874 26.6156C106.597 26.2743 106.458 25.8517 106.458 25.3479C106.458 24.389 106.768 23.9096 107.389 23.9096C107.471 23.9096 107.593 23.9259 107.757 23.9584C107.92 23.9746 108.043 23.9827 108.124 23.9827C108.435 23.9827 108.59 23.8121 108.59 23.4708C108.59 23.032 108.5 22.6663 108.321 22.3738C108.141 22.0812 107.912 21.935 107.634 21.935ZM107.267 18.2051L106.09 13.2076L104.57 18.4001C104.554 18.4489 104.546 18.5058 104.546 18.5708C104.546 18.7658 104.75 18.8633 105.159 18.8633H106.678C107.103 18.8633 107.316 18.7496 107.316 18.522C107.316 18.5383 107.299 18.4327 107.267 18.2051Z" fill="white"/>
<path d="M128.218 12.135L130.253 21.033L132.385 12.5006C132.565 11.7855 132.761 11.298 132.974 11.0379C133.202 10.7617 133.521 10.6235 133.929 10.6235C134.289 10.6235 134.836 10.6642 135.572 10.7454C136.307 10.8267 136.863 10.8673 137.238 10.8673C137.631 10.8673 138.603 10.8023 140.155 10.6723C140.596 10.6398 140.923 10.6235 141.136 10.6235C141.675 10.6235 142.108 10.786 142.435 11.1111C142.762 11.4199 142.925 11.8506 142.925 12.4031C142.925 12.8582 142.794 13.2401 142.533 13.5489C142.288 13.8577 141.977 14.0121 141.601 14.0121C141.454 14.0121 141.25 13.9877 140.989 13.9389C140.727 13.8739 140.539 13.8414 140.425 13.8414C139.984 13.8414 139.763 14.3859 139.763 15.4748V22.2275C139.763 23.3327 139.976 23.8852 140.4 23.8852C140.531 23.8852 140.727 23.8609 140.989 23.8121C141.25 23.7471 141.446 23.7146 141.577 23.7146C141.953 23.7146 142.271 23.869 142.533 24.1778C142.794 24.4866 142.925 24.8685 142.925 25.3235C142.925 25.8761 142.762 26.3149 142.435 26.64C142.108 26.9487 141.675 27.1031 141.136 27.1031C140.825 27.1031 140.302 27.0544 139.567 26.9569C139.077 26.8919 138.587 26.8594 138.096 26.8594C137.786 26.8594 137.328 26.9 136.724 26.9813C136.119 27.0625 135.662 27.1031 135.351 27.1031C134.861 27.1031 134.461 26.9406 134.15 26.6156C133.856 26.2905 133.709 25.8599 133.709 25.3235C133.709 24.3159 134.044 23.8121 134.714 23.8121C134.812 23.8121 134.885 23.8202 134.934 23.8365C134.983 23.8365 135.041 23.8365 135.106 23.8365C135.171 23.8527 135.212 23.8609 135.229 23.8609C135.49 23.8609 135.645 23.6821 135.694 23.3245C135.711 23.162 135.719 22.8857 135.719 22.4957V13.3051L132.312 25.2992C132.018 26.3393 131.536 26.8594 130.866 26.8594H129.297C128.643 26.8594 128.194 26.3962 127.949 25.4698L124.689 13.3051V22.4957C124.689 23.2595 124.762 23.6902 124.909 23.7877C124.958 23.8365 125.048 23.8609 125.179 23.8609C125.212 23.8609 125.261 23.8527 125.326 23.8365C125.375 23.8365 125.424 23.8365 125.473 23.8365C125.522 23.8202 125.596 23.8121 125.694 23.8121C126.347 23.8121 126.674 24.3078 126.674 25.2992C126.674 25.8517 126.527 26.2905 126.233 26.6156C125.939 26.9406 125.547 27.1031 125.056 27.1031C124.828 27.1031 124.533 27.0788 124.174 27.03C123.716 26.965 123.43 26.9244 123.316 26.9081C122.973 26.8756 122.581 26.8594 122.14 26.8594C121.584 26.8594 121.118 26.8837 120.742 26.9325C119.729 27.0625 119.223 27.1275 119.223 27.1275C118.716 27.1275 118.299 26.9569 117.973 26.6156C117.646 26.2743 117.482 25.8436 117.482 25.3235C117.482 24.8522 117.605 24.4703 117.85 24.1778C118.112 23.869 118.438 23.7146 118.831 23.7146C118.961 23.7146 119.149 23.7471 119.394 23.8121C119.656 23.8609 119.852 23.8852 119.983 23.8852C120.309 23.8852 120.514 23.674 120.595 23.2514C120.628 23.0889 120.644 22.7476 120.644 22.2275V15.4748C120.644 14.9547 120.628 14.6215 120.595 14.4753C120.514 14.0527 120.309 13.8414 119.983 13.8414C119.852 13.8414 119.656 13.8739 119.394 13.9389C119.149 13.9877 118.953 14.0121 118.806 14.0121C118.43 14.0121 118.112 13.8577 117.85 13.5489C117.605 13.2401 117.482 12.8582 117.482 12.4031C117.482 11.2167 118.087 10.6235 119.296 10.6235C119.688 10.6235 120.342 10.6642 121.257 10.7454C122.172 10.8267 122.859 10.8673 123.316 10.8673C124.051 10.8673 124.819 10.8185 125.62 10.721C126.159 10.656 126.584 10.6235 126.895 10.6235C127.303 10.6235 127.589 10.721 127.753 10.9161C127.916 11.1111 128.071 11.5174 128.218 12.135Z" fill="white"/>
<path d="M154.206 13.6952C153.666 13.6952 153.307 13.7439 153.127 13.8414C152.882 13.9877 152.759 14.3127 152.759 14.8166V16.1817C152.759 16.458 152.792 16.6693 152.857 16.8156C152.939 16.9456 153.135 17.0106 153.446 17.0106C154.165 17.0106 154.524 16.7506 154.524 16.2305V15.9136C154.508 15.8161 154.5 15.6942 154.5 15.5479C154.5 14.8653 154.9 14.524 155.701 14.524C156.534 14.524 156.951 14.9385 156.951 15.7673C156.951 15.9948 156.935 16.2467 156.902 16.523C156.836 17.0594 156.804 17.555 156.804 18.0101C156.804 18.4327 156.836 18.969 156.902 19.6191C156.967 20.2691 157 20.7242 157 20.9842C157 21.9431 156.567 22.4225 155.701 22.4225C154.884 22.4225 154.475 22.0081 154.475 21.1793C154.475 21.098 154.475 21.0574 154.475 21.0574C154.475 20.9761 154.492 20.7811 154.524 20.4723C154.524 20.0822 154.173 19.8872 153.47 19.8872C152.996 19.8872 152.759 20.1472 152.759 20.6673V22.4957C152.759 23.0645 152.857 23.4545 153.054 23.6658C153.266 23.8609 153.65 23.9584 154.206 23.9584H155.627C156.673 23.9584 157.4 23.869 157.809 23.6902C158.234 23.5114 158.446 23.1945 158.446 22.7395C158.446 22.5119 158.422 22.2438 158.373 21.935C158.323 21.6099 158.299 21.3418 158.299 21.1305C158.299 20.5292 158.471 20.0579 158.814 19.7166C159.157 19.3753 159.623 19.2046 160.211 19.2046C161.404 19.2046 162 19.8547 162 21.1549C162 21.5774 161.976 22.0244 161.927 22.4957C161.845 23.2758 161.804 23.7633 161.804 23.9584C161.804 24.1371 161.845 24.4866 161.927 25.0066C161.976 25.3154 162 25.6323 162 25.9574C162 26.7212 161.518 27.1031 160.554 27.1031C160.244 27.1031 159.729 27.0788 159.01 27.03C157.817 26.9487 155.913 26.8919 153.299 26.8594C153.299 26.8594 152.572 26.8594 151.117 26.8594C150.3 26.8594 149.622 26.8837 149.083 26.9325L147.22 27.1031C147.204 27.1031 147.171 27.1113 147.122 27.1275C147.073 27.1275 147.032 27.1275 146.999 27.1275C146.493 27.1275 146.076 26.9569 145.749 26.6156C145.439 26.2743 145.284 25.8436 145.284 25.3235C145.284 24.8685 145.406 24.4866 145.651 24.1778C145.913 23.869 146.239 23.7146 146.632 23.7146C146.762 23.7146 146.958 23.7471 147.22 23.8121C147.481 23.8609 147.669 23.8852 147.784 23.8852C148.225 23.8852 148.445 23.3327 148.445 22.2275V15.4748C148.445 14.3859 148.225 13.8414 147.784 13.8414C147.686 13.8414 147.49 13.8739 147.195 13.9389C146.983 13.9877 146.795 14.0121 146.632 14.0121C146.256 14.0121 145.937 13.8577 145.676 13.5489C145.414 13.2401 145.284 12.8582 145.284 12.4031C145.284 11.2167 145.88 10.6235 147.073 10.6235C147.351 10.6235 147.914 10.656 148.764 10.721C150.039 10.8185 151.272 10.8673 152.465 10.8673C152.58 10.8673 153.56 10.8429 155.407 10.7942C156.747 10.7617 157.629 10.7292 158.054 10.6967C158.757 10.6479 159.492 10.6235 160.26 10.6235C161.175 10.6235 161.633 11.0217 161.633 11.8181C161.633 12.0781 161.6 12.46 161.534 12.9638C161.485 13.4676 161.461 13.8496 161.461 14.1096C161.461 14.3696 161.494 14.7434 161.559 15.231C161.641 15.7023 161.682 16.0598 161.682 16.3036C161.682 16.7749 161.502 17.1731 161.142 17.4982C160.799 17.8232 160.366 17.9857 159.843 17.9857C158.618 17.9857 158.005 17.36 158.005 16.1086C158.005 15.8973 158.038 15.6048 158.103 15.231C158.185 14.8572 158.225 14.5809 158.225 14.4021C158.225 14.0446 158.038 13.8252 157.662 13.7439C157.531 13.7114 157.188 13.6952 156.632 13.6952H154.206Z" fill="white"/>
<path d="M162 33.4185H37.0303V64.2666L44.7718 57.9387H135.458L142.094 51.6109H98.9435L100.852 48.8425L144.305 49.238L152.047 42.6729H105.085L106.567 40.5373H154.259L162 33.4185Z" fill="#BF0A30"/>
<path d="M59.5709 37.8959L61.9829 48.4189L64.5111 38.3283C64.7242 37.4826 64.9567 36.906 65.2085 36.5985C65.4797 36.2718 65.8575 36.1084 66.3418 36.1084C66.7681 36.1084 67.4171 36.1564 68.2888 36.2525C69.1606 36.3486 69.8193 36.3967 70.2649 36.3967C70.7299 36.3967 71.8826 36.3198 73.723 36.1661C74.2461 36.1276 74.6336 36.1084 74.8854 36.1084C75.5247 36.1084 76.0381 36.3006 76.4256 36.685C76.813 37.0502 77.0068 37.5595 77.0068 38.213C77.0068 38.7512 76.8518 39.2028 76.5418 39.568C76.2512 39.9332 75.8831 40.1158 75.4375 40.1158C75.2632 40.1158 75.021 40.087 74.711 40.0293C74.4011 39.9524 74.1783 39.914 74.0427 39.914C73.5196 39.914 73.2581 40.5579 73.2581 41.8456V49.8316C73.2581 51.1385 73.5099 51.792 74.0136 51.792C74.1686 51.792 74.4011 51.7632 74.711 51.7055C75.021 51.6287 75.2535 51.5902 75.4085 51.5902C75.8541 51.5902 76.2318 51.7728 76.5418 52.138C76.8518 52.5032 77.0068 52.9548 77.0068 53.493C77.0068 54.1465 76.813 54.6654 76.4256 55.0498C76.0381 55.415 75.5247 55.5976 74.8854 55.5976C74.5173 55.5976 73.8974 55.5399 73.0256 55.4246C72.4444 55.3477 71.8632 55.3093 71.282 55.3093C70.9139 55.3093 70.3715 55.3574 69.6547 55.4535C68.9378 55.5496 68.3954 55.5976 68.0273 55.5976C67.4461 55.5976 66.9715 55.4054 66.6034 55.021C66.2547 54.6366 66.0803 54.1273 66.0803 53.493C66.0803 52.3014 66.4775 51.7055 67.2718 51.7055C67.388 51.7055 67.4752 51.7151 67.5333 51.7344C67.5914 51.7344 67.6592 51.7344 67.7367 51.7344C67.8142 51.7536 67.8626 51.7632 67.882 51.7632C68.192 51.7632 68.376 51.5518 68.4341 51.1289C68.4535 50.9367 68.4632 50.61 68.4632 50.1487V39.2797L64.4239 53.4642C64.0752 54.6943 63.5037 55.3093 62.7094 55.3093H60.8496C60.0746 55.3093 59.5419 54.7615 59.2513 53.666L55.3863 39.2797V50.1487C55.3863 51.052 55.4735 51.5614 55.6479 51.6767C55.706 51.7344 55.8125 51.7632 55.9675 51.7632C56.0063 51.7632 56.0644 51.7536 56.1419 51.7344C56.2 51.7344 56.2581 51.7344 56.3162 51.7344C56.3744 51.7151 56.4615 51.7055 56.5778 51.7055C57.3527 51.7055 57.7402 52.2917 57.7402 53.4642C57.7402 54.1177 57.5658 54.6366 57.2171 55.021C56.8684 55.4054 56.4034 55.5976 55.8222 55.5976C55.551 55.5976 55.2023 55.5688 54.7761 55.5111C54.2336 55.4342 53.8946 55.3862 53.759 55.367C53.3522 55.3285 52.8872 55.3093 52.3641 55.3093C51.7054 55.3093 51.1533 55.3381 50.7077 55.3958C49.5066 55.5496 48.906 55.6264 48.906 55.6264C48.3054 55.6264 47.8114 55.4246 47.424 55.021C47.0365 54.6174 46.8428 54.108 46.8428 53.493C46.8428 52.9356 46.9881 52.4839 47.2787 52.138C47.5886 51.7728 47.9761 51.5902 48.4411 51.5902C48.596 51.5902 48.8188 51.6287 49.1094 51.7055C49.4194 51.7632 49.6519 51.792 49.8069 51.792C50.1943 51.792 50.4365 51.5422 50.5334 51.0424C50.5721 50.8502 50.5915 50.4466 50.5915 49.8316V41.8456C50.5915 41.2306 50.5721 40.8366 50.5334 40.6636C50.4365 40.1638 50.1943 39.914 49.8069 39.914C49.6519 39.914 49.4194 39.9524 49.1094 40.0293C48.8188 40.087 48.5864 40.1158 48.412 40.1158C47.9664 40.1158 47.5886 39.9332 47.2787 39.568C46.9881 39.2028 46.8428 38.7512 46.8428 38.213C46.8428 36.8099 47.5596 36.1084 48.9932 36.1084C49.4581 36.1084 50.2331 36.1564 51.318 36.2525C52.4029 36.3486 53.2165 36.3967 53.759 36.3967C54.6308 36.3967 55.5413 36.339 56.4906 36.2237C57.1299 36.1468 57.6336 36.1084 58.0017 36.1084C58.486 36.1084 58.8251 36.2237 59.0188 36.4544C59.2125 36.685 59.3966 37.1655 59.5709 37.8959Z" fill="white"/>
<path d="M81.0234 51.792C81.4108 51.792 81.653 51.5422 81.7499 51.0424C81.7886 50.8502 81.808 50.4466 81.808 49.8316V41.8456C81.808 41.2306 81.7886 40.8366 81.7499 40.6636C81.653 40.1638 81.4108 39.914 81.0234 39.914C80.8684 39.914 80.6359 39.9524 80.3259 40.0293C80.0353 40.087 79.8029 40.1158 79.6285 40.1158C79.1829 40.1158 78.8051 39.9332 78.4952 39.568C78.2046 39.2028 78.0593 38.7512 78.0593 38.213C78.0593 37.5595 78.2433 37.0502 78.6114 36.685C78.9989 36.3006 79.5123 36.1084 80.1516 36.1084C80.4422 36.1084 81.1202 36.1661 82.1857 36.2814C82.9026 36.3583 83.6 36.3967 84.278 36.3967C84.8205 36.3967 85.5954 36.3486 86.6028 36.2525C87.6296 36.1564 88.3077 36.1084 88.637 36.1084C90.0512 36.1084 90.7584 36.8099 90.7584 38.213C90.7584 38.7512 90.6034 39.2028 90.2934 39.568C90.0028 39.9332 89.6347 40.1158 89.1891 40.1158C89.0342 40.1158 88.8017 40.087 88.4917 40.0293C88.1817 39.9524 87.9493 39.914 87.7943 39.914C87.2712 39.914 87.0097 40.5579 87.0097 41.8456V49.8316C87.0097 51.1385 87.2712 51.792 87.7943 51.792C87.9493 51.792 88.1817 51.7632 88.4917 51.7055C88.8017 51.6287 89.0342 51.5902 89.1891 51.5902C89.6347 51.5902 90.0028 51.7728 90.2934 52.138C90.6034 52.5032 90.7584 52.9548 90.7584 53.493C90.7584 54.108 90.5646 54.6174 90.1772 55.021C89.8091 55.4246 89.3344 55.6264 88.7532 55.6264C88.637 55.6264 88.5498 55.6168 88.4917 55.5976L86.6609 55.367C86.196 55.3093 85.6826 55.2805 85.1208 55.2805C84.249 55.2805 83.3385 55.3285 82.3892 55.4246C81.2462 55.5399 80.5003 55.5976 80.1516 55.5976C79.5316 55.5976 79.0279 55.4054 78.6405 55.021C78.253 54.6366 78.0593 54.1273 78.0593 53.493C78.0593 52.9356 78.2046 52.4839 78.4952 52.138C78.8051 51.7728 79.1926 51.5902 79.6576 51.5902C79.8125 51.5902 80.0353 51.6287 80.3259 51.7055C80.6359 51.7632 80.8684 51.792 81.0234 51.792Z" fill="white"/>
<path d="M31.9336 25.9351C30.8879 24.439 30.7592 23.2002 28.1611 24.439C25.563 25.6938 23.4796 26.8119 22.0479 27.5519C22.5627 28.5493 24.3886 30.5442 25.1688 30.5442C25.9491 30.5442 26.3352 30.6729 26.858 30.4235C27.3809 30.1661 31.2821 26.8038 31.9336 25.9351Z" fill="white"/>
<path d="M26.1093 30.6332C25.9967 30.6332 25.868 30.6252 25.7313 30.6171C25.5704 30.6171 25.3854 30.6091 25.1682 30.6091C24.3236 30.6091 22.4977 28.5579 21.9909 27.5846L21.9668 27.5203L22.0231 27.5042C22.2725 27.3755 22.5379 27.2307 22.8275 27.0779C24.1627 26.3861 25.9887 25.4128 28.1364 24.3913C28.8603 24.0454 29.4314 23.8765 29.8738 23.8765C30.7184 23.8765 31.0804 24.4797 31.5469 25.2359C31.6837 25.445 31.8204 25.6702 31.9893 25.9115L32.0215 25.9518L31.9893 25.9839C31.3217 26.8848 27.3883 30.2552 26.8976 30.4884C26.6402 30.585 26.415 30.6332 26.1093 30.6332ZM22.1277 27.5766C22.6988 28.6062 24.4604 30.4723 25.1682 30.4723C25.3854 30.4723 25.5704 30.4804 25.7393 30.4884C25.8761 30.4965 25.9967 30.5045 26.1093 30.5045C26.4069 30.5045 26.608 30.4563 26.8333 30.3436C27.3159 30.1104 31.1206 26.8607 31.8526 25.9115C31.6917 25.6944 31.571 25.4772 31.4343 25.268C30.9758 24.52 30.646 23.981 29.8658 23.981C29.4394 23.981 28.8925 24.1419 28.1846 24.4797C26.0289 25.5093 24.211 26.4666 22.8757 27.1664C22.6103 27.3192 22.369 27.4559 22.1277 27.5766Z" fill="white"/>
<path d="M5.14006 43.3667C3.44283 43.3667 0.0644531 45.3535 0.0644531 47.5977C1.1021 46.9864 2.27649 45.8603 3.44283 45.9729C3.57957 44.9835 4.35982 43.9941 5.14006 43.3667Z" fill="#BF0A30"/>
<path d="M0 47.71V47.5974C0 45.2888 3.44273 43.2939 5.13996 43.2939H5.31692L5.17213 43.4146C4.4482 43.9857 3.63578 44.959 3.50708 45.9806L3.49903 46.0369L3.44273 46.0288C2.574 45.9403 1.72136 46.5517 0.892857 47.1147C0.619369 47.3158 0.353925 47.4928 0.0965248 47.6537L0 47.71ZM4.95495 43.4387C3.28185 43.5594 0.233269 45.3692 0.1287 47.4928C0.353925 47.356 0.57915 47.1952 0.820463 47.0262C1.64897 46.4551 2.50965 45.8519 3.39446 45.9162C3.53925 44.9429 4.27123 44.0259 4.95495 43.4387Z" fill="#BF0A30"/>
<path d="M15.9351 21.9454C17.3588 22.4442 17.3588 23.4496 18.1391 24.3184C18.9193 25.1951 20.0937 25.8145 21.26 26.1925C22.4264 26.5626 24.1236 28.4368 24.5097 29.0481C24.8958 29.6755 25.5474 31.1716 24.8958 31.421C24.2443 31.6703 23.9949 30.7936 24.2443 31.5416C24.5097 32.2978 24.381 33.4078 24.381 33.4078C25.29 33.9065 26.593 34.7833 27.3733 35.652C28.1535 36.5288 28.0248 44.6208 27.3733 44.8701C26.7137 45.1195 25.9415 44.6208 25.5474 44.0014C25.6841 43.2453 25.5474 42.996 25.29 42.634C25.0326 42.2559 25.0326 41.8859 25.5474 41.7572C26.0702 41.6205 26.7137 41.3792 26.8504 40.5104C26.9791 39.6337 26.3276 38.3949 26.3276 38.3949C26.3276 38.3949 25.9335 37.3975 26.0702 36.8988C24.8958 36.6494 24.5097 36.4001 23.8582 36.1507C23.3434 38.3949 22.2977 44.1301 17.7449 46.7363C19.957 48.8599 20.0857 51.5947 18.9113 53.0909C17.7449 54.587 17.9943 54.9651 18.6458 55.7131C19.3054 56.4612 20.4718 58.086 20.9866 59.3248C21.5014 60.5555 22.6757 61.4322 23.7134 62.0597C24.7591 62.679 25.9254 62.9284 26.1909 63.6684C25.2739 63.9178 24.1075 63.419 23.1905 64.0465C22.8044 63.2984 22.4103 62.9203 21.6381 63.2984C20.8498 63.6684 20.327 64.0465 19.9489 64.0465C20.0776 62.9203 19.9489 62.7997 20.0776 61.8023C20.2063 60.8129 19.04 58.3193 17.214 57.4425C15.3961 56.5658 15.002 55.8177 15.002 54.3296C15.002 52.8415 14.085 51.4741 12.9187 51.096C12.5326 53.4689 11.3582 55.9544 9.28289 56.9519C7.19956 57.9493 6.02517 57.8286 5.12427 59.8154C4.20728 61.8022 4.47272 64.1752 4.47272 65.4139C4.47272 66.6687 5.51841 67.4168 6.03321 67.9075C5.13231 67.7788 3.95792 68.0281 3.56378 68.2775C3.42704 67.4087 2.77549 66.6687 1.215 67.1594C1.0863 66.162 2.13199 65.5346 2.51809 63.9178C2.91224 62.309 2.91223 59.8154 2.64679 58.6893C2.38939 57.5632 2.51809 56.0671 4.20728 56.4451C5.37362 56.0671 5.89647 56.0671 6.41127 55.5683C6.67671 54.8203 6.28257 54.5709 6.15387 54.0722C6.02517 53.5735 5.63907 53.8228 4.85882 52.2061C4.07858 50.5812 1.73785 45.2241 5.12427 43.366C8.50264 41.4918 13.3128 40.3737 13.3128 33.8985C11.1008 32.153 7.07086 27.4232 6.41931 23.6829C6.41931 21.4387 7.32826 19.8299 8.11654 18.3338C6.29061 18.4545 4.98752 18.2051 4.21532 15.4702C6.29061 15.1002 8.50264 15.2209 10.4573 15.5909C12.4119 15.9689 13.0554 15.1083 14.2298 14.3441C15.4042 13.6041 16.4418 13.6041 17.7449 14.4728C19.04 15.3496 21.1233 17.3364 23.9869 17.9557C24.5097 18.2051 24.5097 19.0819 24.373 19.9586C24.2362 20.8274 23.5927 20.8274 22.9412 20.6987C23.1986 21.7041 21.7748 22.0741 20.6005 21.5754C19.4341 21.0767 18.5171 20.8274 17.8656 21.1974C17.2382 21.5754 17.3669 21.9454 15.9351 21.9454Z" fill="white"/>
<path d="M3.5309 68.3658L3.52286 68.2773C3.45046 67.8189 3.17698 67.0547 2.14738 67.0547C1.88193 67.0547 1.58431 67.103 1.25452 67.1995L1.18213 67.2317L1.16604 67.1593C1.09364 66.6043 1.36713 66.1699 1.68084 65.647C1.96237 65.1805 2.29216 64.6577 2.47717 63.8935C2.86327 62.2687 2.86327 59.8073 2.60587 58.6972C2.51739 58.287 2.34847 57.2976 2.81501 56.7185C3.10458 56.3565 3.57916 56.2359 4.22267 56.3806C4.55246 56.268 4.8179 56.1956 5.05922 56.1313C5.6625 55.9704 6.02447 55.8739 6.37839 55.536C6.54731 55.0454 6.42665 54.788 6.28187 54.4984C6.22556 54.3777 6.15317 54.249 6.11295 54.0882C6.07273 53.9032 5.98425 53.8388 5.85555 53.7182C5.63032 53.5171 5.29248 53.2355 4.80986 52.222C3.80439 50.1467 1.83367 45.1113 5.09943 43.3015C5.63837 43.02 6.19338 42.7384 6.78862 42.4489C9.81307 40.9849 13.2478 39.3118 13.2638 33.9305C11.2529 32.3298 7.04602 27.5599 6.37035 23.7069C6.37035 21.5431 7.21494 19.9424 7.95497 18.5267L8.02736 18.398C7.82627 18.4141 7.64126 18.4141 7.48039 18.4141C5.99229 18.4141 4.85812 17.9154 4.1744 15.4862L4.15831 15.4138L4.22267 15.4058C5.05922 15.2529 5.96012 15.1725 6.89319 15.1725C8.05954 15.1725 9.27414 15.2931 10.4887 15.5184C10.7944 15.5747 11.084 15.6068 11.3414 15.6068C12.3469 15.6068 12.926 15.1886 13.6017 14.714C13.7947 14.5772 13.9958 14.4244 14.213 14.2877C14.8002 13.9177 15.3472 13.7246 15.8942 13.7246C16.4813 13.7246 17.1168 13.9579 17.7925 14.4164C18.074 14.6094 18.3797 14.8346 18.7336 15.092C20.0126 16.0734 21.7741 17.4006 24.0103 17.8913C24.4849 18.1245 24.6216 18.7841 24.4527 19.9505C24.3642 20.5296 24.0505 20.8031 23.4794 20.8031C23.3507 20.8031 23.214 20.7951 23.037 20.7629C23.0772 20.9962 23.029 21.2133 22.8922 21.3823C22.667 21.6718 22.2326 21.8408 21.6776 21.8408C21.3156 21.8408 20.9376 21.7603 20.5837 21.6236C19.6828 21.2294 19.0956 21.0766 18.6129 21.0766C18.3395 21.0766 18.1062 21.1249 17.9051 21.2455C17.7281 21.342 17.6075 21.4386 17.5029 21.5431C17.2375 21.7764 17.0283 21.9534 16.232 21.9936C16.9881 22.3395 17.2857 22.8543 17.5914 23.3932C17.7603 23.6828 17.9212 23.9804 18.1786 24.27C18.8784 25.0502 19.9804 25.7018 21.2754 26.12C22.482 26.4981 24.1873 28.4205 24.5573 29.0077C24.8469 29.4662 25.3858 30.6004 25.1927 31.1715C25.1445 31.3163 25.0479 31.4048 24.9112 31.4691C24.8308 31.5013 24.7423 31.5254 24.6538 31.5254C24.4849 31.5254 24.3481 31.453 24.2516 31.3967C24.2516 31.3967 24.2597 31.3967 24.2597 31.4048L24.2999 31.5174C24.5331 32.1931 24.4608 33.1583 24.4366 33.3755C25.3295 33.8662 26.6326 34.7429 27.4128 35.6036C28.1287 36.3919 28.0965 42.5856 27.6622 44.3794C27.5576 44.8057 27.4611 44.8942 27.3887 44.9102C27.268 44.9585 27.1474 44.9907 27.0026 44.9907C26.3752 44.9907 25.796 44.5 25.4904 44.0254L25.4823 44.0093V43.9772C25.611 43.2371 25.4823 43.0119 25.233 42.658C25.064 42.4167 25.0077 42.1995 25.0721 42.0225C25.1364 41.8617 25.2893 41.7571 25.5225 41.6927C26.0695 41.564 26.6567 41.3147 26.7774 40.4942C26.898 39.6496 26.2706 38.427 26.2626 38.4189C26.2465 38.3787 25.9006 37.4778 25.9891 36.9469C25.1445 36.77 24.7021 36.5769 24.2757 36.4C24.1551 36.3436 24.0264 36.2954 23.8896 36.2391C23.8575 36.3436 23.8333 36.4643 23.8092 36.593C23.2461 39.0866 22.0798 44.2507 17.8327 46.7362C20.0849 48.9482 20.093 51.667 18.9508 53.1149C17.7844 54.611 18.066 54.9408 18.6853 55.6567C19.353 56.4209 20.5274 58.0537 21.0422 59.2764C21.5811 60.5795 22.844 61.4482 23.7449 61.9871C24.0747 62.1802 24.4205 62.3491 24.7503 62.5019C25.4501 62.8317 26.0534 63.1133 26.2465 63.6361L26.2626 63.7085L26.1902 63.7165C25.9971 63.7728 25.7799 63.797 25.4904 63.797C25.3295 63.797 25.1525 63.797 24.9916 63.7809C24.8308 63.7809 24.6538 63.7728 24.4849 63.7728C24.0827 63.7728 23.6322 63.8211 23.222 64.0946L23.1657 64.1348L23.1335 64.0785C22.8118 63.4752 22.5303 63.2259 22.1763 63.2259C22.0155 63.2259 21.8465 63.2661 21.6535 63.3546C21.4041 63.4752 21.1869 63.5959 20.9939 63.6924C20.5595 63.9337 20.2136 64.1107 19.9402 64.1107H19.8678L19.8758 64.0383C19.9402 63.4833 19.9402 63.1856 19.9402 62.88C19.9402 62.5824 19.9402 62.2928 20.0045 61.7941C20.1252 60.853 19.0232 58.3835 17.1812 57.5068C15.2667 56.5817 14.9369 55.7854 14.9369 54.3295C14.9369 52.9218 14.0924 51.5785 12.9662 51.1763C12.4916 53.9675 11.1242 56.1393 9.29827 57.008C8.75934 57.2654 8.27672 57.4424 7.8504 57.6113C6.63579 58.0779 5.83142 58.3916 5.16378 59.8395C4.40767 61.4965 4.46398 63.435 4.5042 64.7301C4.51224 64.9794 4.52028 65.2127 4.52028 65.4218C4.52028 66.4755 5.2764 67.1593 5.83142 67.6499C5.91185 67.7384 5.99229 67.8028 6.06468 67.8752L6.19339 68.0039L6.00838 67.9878C5.8475 67.9717 5.68663 67.9476 5.49358 67.9476C4.69725 67.9476 3.87678 68.1567 3.57916 68.3497L3.5309 68.3658ZM2.14738 66.918C2.94371 66.918 3.4746 67.3765 3.61938 68.1647C3.98135 67.9717 4.76964 67.7947 5.52575 67.7947C5.64641 67.7947 5.75902 67.8028 5.87163 67.8108C5.83946 67.7786 5.80729 67.7545 5.77511 67.7143C5.23618 67.2236 4.4318 66.4997 4.4318 65.3896C4.4318 65.1886 4.42376 64.9633 4.41571 64.6979C4.38354 63.3948 4.31919 61.4402 5.09139 59.759C5.76707 58.2548 6.59557 57.9492 7.84235 57.4665C8.26867 57.3057 8.74326 57.1207 9.27414 56.8633C11.0759 56.0106 12.4273 53.8227 12.8858 51.0557L12.8938 50.9833L12.9662 50.9994C14.1808 51.3855 15.0898 52.8092 15.0898 54.2893C15.0898 55.6889 15.4035 56.4611 17.2616 57.3459C19.1599 58.2468 20.286 60.7886 20.1654 61.7619C20.101 62.2606 20.101 62.5422 20.101 62.8398C20.101 63.1293 20.101 63.427 20.0447 63.9337C20.2941 63.9015 20.5997 63.7407 20.9778 63.5476C21.1709 63.4431 21.4041 63.3144 21.6454 63.2017C21.8626 63.1052 22.0476 63.057 22.2246 63.057C22.7072 63.057 23.0048 63.4672 23.2542 63.9257C23.6805 63.6522 24.1551 63.62 24.5251 63.62C24.694 63.62 24.871 63.6281 25.0399 63.6361C25.2088 63.6441 25.3777 63.6522 25.5306 63.6522C25.7799 63.6522 25.9649 63.6361 26.1339 63.5959C25.9408 63.1615 25.3777 62.888 24.7262 62.5904C24.3884 62.4295 24.0505 62.2687 23.7127 62.0676C22.7957 61.5206 21.5167 60.6438 20.9537 59.3005C20.4469 58.0859 19.2886 56.4772 18.621 55.705C17.9534 54.9247 17.704 54.5225 18.8864 53.0103C20.0045 51.5866 19.9804 48.908 17.7201 46.7442L17.6557 46.6879L17.7362 46.6477C21.9913 44.2024 23.1496 39.0222 23.7127 36.5287C23.7529 36.3839 23.7851 36.231 23.8173 36.1023L23.8333 36.0299L23.8977 36.046C24.0586 36.1023 24.2114 36.1747 24.3562 36.2391C24.7905 36.416 25.233 36.6171 26.1097 36.7941L26.166 36.8021L26.1499 36.8745C26.0293 37.3411 26.4073 38.3224 26.4073 38.3305C26.4234 38.3787 27.0589 39.5933 26.9302 40.4781C26.7934 41.379 26.1419 41.6445 25.5869 41.7732C25.3938 41.8214 25.2651 41.9099 25.2249 42.0225C25.1686 42.1673 25.2249 42.3523 25.3617 42.5534C25.6191 42.9234 25.7638 43.1808 25.6351 43.945C25.973 44.4759 26.536 44.8298 27.0267 44.8298C27.1474 44.8298 27.26 44.8137 27.3645 44.7735C27.3887 44.7655 27.4691 44.7011 27.5576 44.323C27.9759 42.5936 28.008 36.4 27.3324 35.6519C26.5521 34.7832 25.241 33.9144 24.3562 33.4318L24.324 33.4077V33.3594C24.324 33.3514 24.4527 32.2413 24.1953 31.5335L24.1551 31.4128C24.0827 31.2278 24.0827 31.2037 24.1068 31.1635L24.1229 31.1313H24.1551C24.1873 31.1313 24.2114 31.1474 24.2355 31.1796C24.3079 31.2359 24.4527 31.3565 24.6618 31.3565C24.7342 31.3565 24.8066 31.3485 24.879 31.3163C24.9756 31.2761 25.0479 31.2117 25.0882 31.0991C25.249 30.6165 24.8066 29.5949 24.4608 29.048C24.0988 28.4608 22.4257 26.5866 21.2432 26.2085C19.9241 25.7822 18.806 25.1146 18.0981 24.3182C17.8327 24.0206 17.6557 23.723 17.4868 23.4254C17.149 22.8462 16.8353 22.2993 15.9102 21.9775L15.9344 21.8488C16.9398 21.8488 17.157 21.6718 17.4225 21.4225C17.5351 21.334 17.6557 21.2294 17.8488 21.1168C18.066 20.9881 18.3234 20.9318 18.6129 20.9318C19.1036 20.9318 19.7149 21.1007 20.6319 21.4868C20.9617 21.6397 21.3237 21.7121 21.6696 21.7121C22.1683 21.7121 22.5866 21.5512 22.7876 21.3018C22.9163 21.1329 22.9485 20.9238 22.8922 20.6905L22.8681 20.594L22.9646 20.6101C23.1738 20.6503 23.3346 20.6664 23.4794 20.6664C23.9781 20.6664 24.2436 20.4331 24.324 19.9103C24.4929 18.8163 24.3723 18.1808 23.9701 17.9878C21.7178 17.5052 19.9482 16.1619 18.6532 15.1805C18.3073 14.9151 17.9936 14.6818 17.7201 14.4888C17.0605 14.0544 16.4653 13.8372 15.8942 13.8372C15.3713 13.8372 14.8485 14.0061 14.2774 14.3762C14.0602 14.5209 13.8591 14.6577 13.666 14.7944C12.9743 15.2931 12.379 15.7195 11.3333 15.7195C11.0599 15.7195 10.7703 15.6873 10.4566 15.6229C8.30889 15.2127 6.16121 15.1564 4.3031 15.4862C4.97878 17.7947 6.01642 18.2613 7.47234 18.2613C7.66539 18.2613 7.87453 18.2532 8.12389 18.2452L8.22846 18.2372L8.05954 18.5589C7.3356 19.9585 6.49905 21.5431 6.49905 23.6586C7.16668 27.4955 11.3736 32.2494 13.3684 33.8179L13.3845 33.842V33.8742C13.3845 39.3681 9.90156 41.0492 6.84493 42.5454C6.24969 42.8189 5.69467 43.1004 5.16378 43.39C1.9865 45.1516 3.94113 50.0985 4.93052 52.1496C5.38901 53.131 5.7188 53.4125 5.93599 53.6055C6.08077 53.7262 6.1773 53.8147 6.2336 54.0319C6.27382 54.1686 6.33817 54.2973 6.39448 54.418C6.53927 54.7075 6.6921 55.0052 6.49905 55.5521L6.48296 55.5843C6.09686 55.9543 5.72685 56.0508 5.10748 56.2198C4.85812 56.2922 4.58463 56.3646 4.2468 56.4691L4.23071 56.4772L4.21462 56.4691C3.61134 56.3404 3.16893 56.4369 2.91153 56.7667C2.61391 57.1448 2.54152 57.8366 2.72653 58.6409C2.99197 59.7751 2.99197 62.2606 2.59783 63.8935C2.41282 64.6737 2.08303 65.2046 1.79345 65.6792C1.49583 66.1699 1.26256 66.556 1.29474 67.0225C1.6004 66.9743 1.88998 66.918 2.14738 66.918Z" fill="white"/>
<path d="M15.5808 13.9825C15.0579 13.2344 13.9801 12.7357 12.9344 12.8564C11.8967 12.9931 10.8591 13.1057 10.5936 13.6125C10.3362 14.0951 12.2828 15.2212 12.8057 15.2212C13.2481 15.358 15.5486 14.4329 15.5808 13.9825Z" fill="#BF0A30"/>
<path d="M12.9104 15.2936C12.8702 15.2936 12.83 15.2936 12.7978 15.2936C12.3473 15.2855 10.9316 14.5133 10.5938 13.9503C10.5053 13.8055 10.4892 13.6768 10.5375 13.5803C10.819 13.0574 11.8486 12.9207 12.9265 12.792C13.0391 12.7839 13.1517 12.7759 13.2643 12.7759C14.1974 12.7759 15.1546 13.2424 15.6372 13.9422L15.6533 13.9583V13.9744C15.597 14.4892 13.5056 15.2936 12.9104 15.2936ZM13.2643 12.9046C13.1597 12.9046 13.0552 12.9126 12.9426 12.9207C11.9371 13.0413 10.8994 13.162 10.6581 13.6285C10.6179 13.6848 10.642 13.7813 10.6984 13.8779C11.0281 14.4168 12.4036 15.1568 12.8139 15.1568H12.8299C12.846 15.1649 12.8782 15.1649 12.9104 15.1649C13.5378 15.1649 15.42 14.3605 15.5246 13.9824C15.05 13.3389 14.1491 12.9046 13.2643 12.9046Z" fill="#BF0A30"/>
<path d="M8.65442 25.0584C7.87417 23.8116 8.26027 23.4496 8.78311 22.0741C9.30596 20.6986 9.8288 19.3392 9.8288 17.5938C9.43466 17.8431 8.66246 17.8431 8.13961 18.3418C7.35133 19.838 6.44238 21.4467 6.44238 23.6909C7.09393 27.4313 11.1238 32.161 13.3359 33.9065C12.4269 32.2977 11.1238 30.7936 10.3436 28.7987C9.55532 26.8038 9.42662 26.3051 8.65442 25.0584Z" fill="#BF0A30"/>
<path d="M13.2965 33.9465C11.2936 32.3619 7.05458 27.5758 6.37891 23.6988C6.37891 21.535 7.2235 19.9343 7.96353 18.5186L8.10027 18.2773C8.43006 17.9555 8.85638 17.8429 9.22639 17.7383C9.45162 17.6659 9.66076 17.6016 9.7975 17.5131L9.89403 17.4648V17.5694C9.89403 19.3229 9.36314 20.7145 8.84834 22.0739C8.7679 22.2831 8.68746 22.4761 8.61507 22.637C8.22897 23.5781 8.06809 23.9803 8.7116 25.0099C9.36314 26.0475 9.56423 26.5704 10.0549 27.8574C10.1595 28.1148 10.2721 28.4204 10.4008 28.7583C10.8995 30.0292 11.6154 31.107 12.3072 32.1286C12.7013 32.7158 13.0633 33.2708 13.3931 33.85L13.2965 33.9465ZM8.18071 18.3657L8.06005 18.591C7.33611 19.9906 6.49956 21.5752 6.49956 23.6907C7.13502 27.3747 11.0282 31.8873 13.1035 33.6408C12.83 33.1663 12.5163 32.7078 12.2026 32.2171C11.5028 31.1875 10.7869 30.1096 10.2882 28.8226C10.1514 28.4848 10.0388 28.1872 9.93425 27.9137C9.45162 26.6508 9.24248 26.128 8.59898 25.0984C7.92331 24.0205 8.11636 23.5459 8.50246 22.6209C8.57485 22.452 8.64724 22.2589 8.72768 22.0578C9.2264 20.7387 9.7412 19.3793 9.75728 17.6981C9.62054 17.7785 9.43553 17.8188 9.25857 17.8751C8.88856 17.9716 8.48637 18.0842 8.18071 18.3657Z" fill="#BF0A30"/>
<path d="M25.5547 43.9932C25.249 44.0334 24.9434 44.2908 24.9434 44.6527C24.9434 44.9986 25.249 46.5833 25.7719 47.0578C26.2867 47.5324 26.3751 47.8863 26.9382 48.0794C27.26 47.2107 27.3726 45.2802 27.2841 44.9021C26.6406 44.7091 25.7558 44.3632 25.5547 43.9932Z" fill="#BF0A30"/>
<path d="M26.9871 48.1602L26.9308 48.1441C26.5447 48.0074 26.3758 47.8063 26.1586 47.5569C26.038 47.4282 25.9093 47.2834 25.7323 47.1065C25.2014 46.6239 24.8877 45.0151 24.8877 44.6612C24.8877 44.259 25.2255 43.9855 25.5473 43.9372L25.5875 43.9292L25.6036 43.9775C25.7806 44.3153 26.6251 44.6531 27.3008 44.8542L27.333 44.8623L27.341 44.9025C27.4295 45.2645 27.333 47.195 26.9952 48.1039L26.9871 48.1602ZM25.5232 44.0499C25.2738 44.1142 25.0084 44.3394 25.0084 44.6531C25.0084 44.991 25.314 46.5515 25.8127 47.01C25.9977 47.1789 26.1184 47.3317 26.239 47.4685C26.4482 47.7017 26.593 47.8787 26.9067 47.9913C27.2043 47.1145 27.3008 45.369 27.2284 44.9508C26.9308 44.8542 25.8127 44.5003 25.5232 44.0499Z" fill="#BF0A30"/>
<path d="M26.4003 45.3772C26.1831 45.5461 26.0785 45.7552 26.1187 46.0287C26.1589 46.3263 25.797 46.7848 25.5798 46.7526C25.5718 46.7526 25.5637 46.7607 25.5557 46.7687C25.6281 46.8813 25.7005 46.9779 25.7728 47.0503C26.2876 47.5248 26.3761 47.8788 26.9392 48.0718C27.2609 47.2031 27.3736 45.2726 27.2851 44.8945C27.1403 44.8543 26.9794 44.798 26.8185 44.7417H26.8105C26.5772 44.9589 26.6255 45.2082 26.4003 45.3772Z" fill="#BF0A30"/>
<path d="M26.9861 48.1604L26.9298 48.1444C26.5437 48.0076 26.3748 47.8065 26.1576 47.5572C26.0369 47.4285 25.9082 47.2837 25.7313 47.1067C25.6589 47.0343 25.5865 46.9458 25.506 46.8171L25.4658 46.7447L25.5302 46.7287C25.5382 46.7206 25.5543 46.7126 25.5784 46.7126H25.5945C25.6669 46.7126 25.7715 46.6402 25.868 46.5356C26.0048 46.3747 26.0771 46.1897 26.0611 46.053C26.0208 45.7715 26.1174 45.5301 26.3748 45.3371C26.4632 45.2647 26.5035 45.1762 26.5517 45.0636C26.6 44.959 26.6483 44.8223 26.777 44.7177L26.8172 44.6855L26.8493 44.6936C27.0022 44.7499 27.1631 44.7901 27.3159 44.8384L27.3481 44.8464L27.3561 44.8866C27.4446 45.2486 27.3481 47.1791 27.0102 48.0881L26.9861 48.1604ZM25.6589 46.8171C25.7071 46.8976 25.7634 46.9619 25.8117 47.0102C25.9967 47.1791 26.1174 47.3319 26.238 47.4687C26.4472 47.702 26.5919 47.8789 26.9057 47.9915C27.2033 47.1148 27.2998 45.3693 27.2274 44.951C27.0987 44.9108 26.962 44.8545 26.8333 44.8142C26.7367 44.9108 26.6885 44.9993 26.6483 45.1038C26.608 45.2084 26.5598 45.329 26.4391 45.4256C26.2219 45.5864 26.1415 45.7875 26.1817 46.0289C26.2139 46.2219 26.0771 46.4632 25.9645 46.6C25.86 46.7206 25.7554 46.8011 25.6589 46.8171Z" fill="#BF0A30"/>
<path d="M23.1673 64.0305C23.1513 64.2718 23.1513 64.9153 23.1673 65.0682C23.1834 65.229 23.0708 65.0843 23.3604 65.2612C23.658 65.4301 25.7172 66.0978 26.1435 65.9691C26.5698 65.8484 26.6905 65.8243 26.8594 65.6634C26.7388 65.1486 26.4975 63.926 26.1435 63.5801C25.8218 63.6123 23.3121 63.6123 23.1673 64.0305Z" fill="#BF0A30"/>
<path d="M26.0067 66.0575C25.3793 66.0575 23.6257 65.4944 23.3281 65.3175C23.2235 65.2451 23.1672 65.237 23.1511 65.229L23.119 65.2209L23.1029 65.1888C23.0948 65.1566 23.0948 65.1405 23.1029 65.1324C23.1029 65.1324 23.1029 65.1164 23.1029 65.0842C23.0868 64.9314 23.0868 64.2718 23.1029 64.0305V64.0224C23.2235 63.7007 24.2612 63.6041 25.7895 63.5478C25.9504 63.5398 26.0791 63.5398 26.1354 63.5317H26.1676L26.1836 63.5478C26.5215 63.8776 26.7628 64.9555 26.8835 65.5427L26.9237 65.7036L26.8915 65.7357C26.7306 65.8886 26.5939 65.9288 26.2319 66.0333L26.1595 66.0494C26.1193 66.0575 26.063 66.0575 26.0067 66.0575ZM23.2316 65.1324C23.2638 65.1405 23.312 65.1646 23.3925 65.2129C23.674 65.3818 25.4114 65.9368 26.0067 65.9368C26.0549 65.9368 26.0952 65.9368 26.1273 65.9207L26.2078 65.9046C26.5456 65.8081 26.6663 65.7759 26.795 65.6553L26.7789 65.5588C26.6582 65.044 26.433 63.9822 26.1273 63.6604C26.063 63.6685 25.9423 63.6685 25.7975 63.6685C25.1943 63.6846 23.3683 63.757 23.2396 64.0546C23.2235 64.3039 23.2235 64.9314 23.2396 65.0842C23.2316 65.0922 23.2316 65.1083 23.2316 65.1324Z" fill="#BF0A30"/>
<path d="M3.5629 68.3187C3.50659 68.6003 3.36985 69.6379 3.83638 70.0079C4.31097 70.386 7.11824 70.217 7.49629 69.5414C7.15845 69.0024 6.69192 68.2463 6.15299 67.9326C5.60601 67.5948 4.05357 67.8683 3.5629 68.3187Z" fill="#BF0A30"/>
<path d="M4.97918 70.2655C4.70569 70.2655 4.03806 70.2494 3.79675 70.0563C3.31412 69.6702 3.42674 68.6326 3.49913 68.3028L3.50718 68.2867L3.52326 68.2706C3.89328 67.9247 4.77809 67.7236 5.42159 67.7236C5.64681 67.7236 5.96856 67.7558 6.1777 67.8845C6.74076 68.2143 7.22339 69.0026 7.55318 69.5174L7.56927 69.5496L7.55318 69.5898C7.26361 70.0724 5.82378 70.2655 4.97918 70.2655ZM3.61979 68.343C3.56348 68.6326 3.44282 69.6139 3.87719 69.9678C4.02198 70.0724 4.43221 70.1528 4.97918 70.1528C5.99269 70.1528 7.15904 69.9196 7.42448 69.5415C7.10273 69.0348 6.6362 68.2947 6.1214 67.981C5.97661 67.8925 5.73529 67.8443 5.42159 67.8443C4.73787 67.8362 3.93349 68.0615 3.61979 68.343Z" fill="#BF0A30"/>
<path d="M15.9339 22.0102H15.9017C14.8319 21.962 13.0623 21.9057 12.0166 19.3156L12.1373 19.2593C13.1508 21.785 14.8078 21.8413 15.9098 21.8815H15.942L15.9339 22.0102Z" fill="white"/>
<path d="M11.1249 1.37801C9.95857 0.565593 8.78418 0.412762 7.54544 1.3941C6.86977 1.49063 6.6365 0.436893 6.57215 0.0910115C6.0493 -0.0939949 5.6632 1.33779 6.60432 2.23869C6.70889 2.67306 6.3791 2.95459 6.21822 3.11546C5.98495 3.33264 5.43798 3.30851 4.94731 2.93046C4.45664 2.5524 4.13489 2.36739 3.51552 1.58715C2.92028 0.839081 3.02485 1.5228 3.02485 1.99738C3.02485 2.46392 4.03032 3.62222 4.52099 3.89571C5.00362 4.17724 5.10014 4.30594 5.00362 4.70813C4.90709 5.11836 4.74622 5.35967 4.61752 5.52055C4.48882 5.66533 4.42447 5.85838 4.0625 5.57685C3.70857 5.28728 3.32247 5.07814 3.2179 4.66791C3.12138 4.26572 2.8318 4.50703 2.86398 4.98966C2.89615 5.44815 3.17768 6.33297 3.8051 6.66276C4.23142 6.87994 4.25555 7.07299 4.29577 7.3143C4.29577 7.59584 4.19924 7.93367 3.77292 8.09455C3.3466 8.25542 2.24461 8.16694 2.01938 7.87737C1.79416 7.59584 1.72981 7.84519 1.79416 8.22325C1.85046 8.59326 2.76745 9.25285 3.419 9.30916C4.07054 9.36546 4.33598 9.36546 4.29577 9.80787C4.26359 10.2503 4.29577 11.4086 4.32794 11.8349C4.36012 12.2693 4.32794 12.3336 4.00619 12.2693C3.6764 12.213 2.9605 11.9877 2.63875 11.7062C2.30896 11.4327 2.27678 11.5775 2.4457 12.1003C2.60658 12.6312 3.74075 13.5643 4.56121 13.6608C4.98753 13.8137 5.23689 14.3124 5.75973 14.5698C6.28257 14.803 7.85111 15.1731 8.55896 15.2857C9.25876 15.3902 12.1706 15.4385 12.4924 15.1891C12.5245 14.8513 12.235 14.5296 11.4225 14.4411C10.6021 14.3445 11.0284 14.9076 9.56443 14.4732C8.10046 14.0389 5.81604 13.8137 6.18605 9.67917C6.35497 7.87737 6.65259 7.86932 6.70889 7.32235C6.77324 6.72711 6.70889 6.25253 6.70889 5.72968C6.70889 5.20684 7.65001 3.46135 8.36591 2.64893C9.78161 1.02409 11.9052 1.90086 11.1249 1.37801Z" fill="#BF0A30"/>
<path d="M10.5056 15.4303C9.70927 15.4303 8.88076 15.3901 8.54293 15.3498C7.8753 15.2453 6.27459 14.8753 5.72761 14.6259C5.45413 14.4892 5.24499 14.2961 5.06803 14.1272C4.89106 13.9583 4.72214 13.8054 4.52909 13.725C3.71667 13.6285 2.55033 12.6954 2.37337 12.1243C2.25271 11.7382 2.25271 11.6175 2.30097 11.5451C2.35728 11.4647 2.46989 11.4888 2.66294 11.6497C2.96056 11.8991 3.62819 12.1243 3.99821 12.1967C4.15908 12.2289 4.21539 12.2047 4.22343 12.1967C4.27169 12.1404 4.25561 11.9876 4.23952 11.8267C4.21539 11.4084 4.18321 10.2421 4.20734 9.78357C4.23148 9.44573 4.08669 9.42964 3.49145 9.36529L3.39492 9.35725C2.74338 9.30094 1.78617 8.65744 1.71378 8.22308C1.6816 8.07025 1.65747 7.82893 1.74595 7.72436C1.81835 7.64393 1.92292 7.6761 2.05162 7.82089C2.17227 7.97372 2.67099 8.09438 3.18579 8.09438C3.41906 8.09438 3.61211 8.07829 3.73276 8.02198C4.05451 7.90133 4.21539 7.66002 4.21539 7.30609C4.18321 7.08086 4.16713 6.9039 3.76494 6.71085C3.11339 6.37301 2.82382 5.46407 2.79164 4.9734C2.77556 4.75622 2.82382 4.55513 2.92034 4.4586C2.96056 4.41838 3.00882 4.38621 3.05709 4.38621C3.11339 4.38621 3.21796 4.41838 3.26622 4.64361C3.34666 4.94927 3.61211 5.15841 3.90168 5.3595C3.96603 5.40776 4.03038 5.45603 4.08669 5.51233C4.1993 5.60081 4.28778 5.64103 4.35213 5.64103C4.40844 5.64103 4.44866 5.59277 4.51301 5.51233C4.52909 5.49624 4.54518 5.47211 4.56127 5.45603C4.73823 5.23884 4.85889 4.98949 4.93128 4.66774C5.01976 4.31381 4.95541 4.2012 4.48083 3.92771C3.95799 3.63814 2.94447 2.47179 2.94447 1.97308C2.94447 1.91677 2.94447 1.83634 2.94447 1.77199C2.93643 1.52263 2.92839 1.30545 3.01687 1.21697C3.04904 1.18479 3.07317 1.17675 3.11339 1.17675C3.18579 1.17675 3.2984 1.21697 3.54776 1.53872C4.0706 2.18222 4.37626 2.41549 4.75432 2.70506C4.82671 2.75332 4.89106 2.80159 4.96346 2.86594C5.22086 3.05899 5.51848 3.1716 5.77588 3.1716C5.93675 3.1716 6.06545 3.13138 6.14589 3.05094L6.17002 3.03486C6.33089 2.89007 6.59634 2.62462 6.5159 2.25461C5.92871 1.69155 5.83218 0.887174 6.03328 0.380417C6.14589 0.0908419 6.35503 -0.0539454 6.55612 0.0184484L6.58829 0.034536L6.59634 0.0667108C6.717 0.661949 6.95831 1.37784 7.4892 1.32958C8.07639 0.863043 8.65554 0.629774 9.26687 0.629774C9.8621 0.629774 10.4734 0.854999 11.125 1.29741C11.2698 1.39393 11.3502 1.46632 11.318 1.53872C11.3019 1.61916 11.1893 1.61916 10.9561 1.6272C10.401 1.63524 9.25882 1.67546 8.37401 2.67289C7.6742 3.46922 6.73308 5.20667 6.73308 5.71343C6.73308 5.89843 6.74113 6.05931 6.74917 6.22823C6.76526 6.56606 6.78134 6.9039 6.73308 7.30609C6.70895 7.51523 6.66069 7.63588 6.58829 7.8048C6.48373 8.10242 6.31481 8.51265 6.21828 9.679C5.88045 13.4033 7.69029 13.902 9.15425 14.2961C9.291 14.3363 9.42774 14.3685 9.5484 14.4007C9.91841 14.5052 10.208 14.5696 10.401 14.5696C10.586 14.5696 10.6826 14.5052 10.7791 14.465C10.9158 14.3926 11.0526 14.3283 11.3904 14.3685C12.4683 14.4892 12.5326 14.9798 12.5246 15.1729L12.5165 15.2051L12.5005 15.2211C12.3074 15.4142 11.1652 15.4303 10.5056 15.4303ZM2.40554 11.6256C2.40554 11.6336 2.38141 11.706 2.50207 12.0921C2.66294 12.615 3.79711 13.5159 4.56127 13.6043C4.80258 13.6848 4.97954 13.8537 5.16455 14.0307C5.34151 14.2157 5.53456 14.3765 5.78392 14.4972C6.28263 14.7466 7.82703 15.1085 8.56706 15.2131C8.9049 15.2614 9.71732 15.3016 10.5056 15.3016C11.5191 15.3016 12.2431 15.2453 12.4281 15.1407C12.4361 14.8029 12.0661 14.5776 11.4065 14.4892C11.1089 14.4489 10.9882 14.5052 10.8676 14.5857C10.763 14.642 10.6504 14.6903 10.4332 14.6903C10.2241 14.6903 9.9345 14.642 9.55644 14.5213C9.42774 14.4811 9.29904 14.4489 9.1623 14.4168C7.73855 14.0307 5.77588 13.4998 6.12176 9.67095C6.22633 8.47243 6.39525 8.07025 6.5159 7.75654C6.57221 7.61175 6.62047 7.48305 6.6446 7.29805C6.68482 6.91195 6.67678 6.57411 6.66069 6.22823C6.65265 6.06735 6.6446 5.89039 6.6446 5.71343C6.6446 5.17449 7.57768 3.42096 8.3177 2.60049C9.23469 1.55481 10.4171 1.52263 10.9802 1.51459C11.0687 1.50654 11.1491 1.50654 11.2054 1.4985C11.1893 1.48241 11.1491 1.45828 11.0848 1.41806C9.8058 0.533248 8.7038 0.541292 7.58572 1.45024L7.57768 1.45828H7.56159C7.52941 1.45828 7.50528 1.46632 7.47311 1.46632C7.1594 1.46632 6.74917 1.23306 6.52395 0.131061C6.39525 0.114973 6.26654 0.219542 6.18611 0.42868C6.02523 0.806737 6.02523 1.59502 6.66069 2.19026L6.66873 2.19831L6.67678 2.21439C6.78134 2.66484 6.46764 2.96246 6.29872 3.12334L6.26654 3.13943C6.16198 3.23595 6.0011 3.3003 5.80805 3.3003C5.51848 3.3003 5.19673 3.1716 4.91519 2.96246C4.83476 2.90616 4.77041 2.85789 4.70606 2.80159C4.328 2.52006 4.00625 2.27874 3.47536 1.60307C3.25014 1.31349 3.16166 1.28936 3.13752 1.28936C3.08122 1.34567 3.08926 1.58698 3.08926 1.76394C3.09731 1.83634 3.09731 1.90873 3.09731 1.96504C3.09731 2.3994 4.09473 3.54161 4.56931 3.80706C5.05998 4.09663 5.18868 4.24142 5.08411 4.69991C5.00367 5.02166 4.86693 5.29515 4.67388 5.52842C4.66584 5.54451 4.64171 5.56864 4.63366 5.58473C4.56931 5.66516 4.49692 5.76169 4.37626 5.76169C4.27974 5.76169 4.17517 5.70538 4.03842 5.59277C3.97407 5.55255 3.91777 5.50429 3.84538 5.44798C3.53971 5.22276 3.25818 5.01362 3.1697 4.65165C3.14557 4.54708 3.10535 4.50686 3.08122 4.50686C3.07317 4.50686 3.04904 4.51491 3.03296 4.52295C2.97665 4.59534 2.92839 4.75622 2.93643 4.94927C2.97665 5.41581 3.25014 6.26845 3.85342 6.58215C4.31191 6.82346 4.33604 7.04065 4.37626 7.28196C4.37626 7.57958 4.27974 7.95763 3.8132 8.12655C3.66841 8.17482 3.45927 8.20699 3.20992 8.20699C2.74338 8.20699 2.15619 8.10242 1.97922 7.88524C1.89879 7.78067 1.86661 7.78067 1.86661 7.78067C1.85052 7.79676 1.81835 7.92546 1.85857 8.16677C1.91487 8.51265 2.79969 9.15615 3.43514 9.21246L3.53167 9.2205C4.11082 9.26877 4.40039 9.30094 4.36822 9.76748C4.33604 10.2179 4.36822 11.3843 4.40039 11.7945C4.41648 12.0519 4.41648 12.1806 4.34409 12.253C4.29582 12.3013 4.22343 12.3093 4.17517 12.3093C4.13495 12.3093 4.0706 12.3013 3.99821 12.2932C3.69254 12.2369 2.95252 12.0117 2.59859 11.7221C2.46185 11.6417 2.41359 11.6256 2.40554 11.6256Z" fill="#BF0A30"/>
<path d="M15.934 3.23579C16.0305 2.92209 15.9018 2.86578 15.572 3.04274C15.2503 3.2358 14.9607 3.4208 14.5987 3.54146C14.2368 3.67016 14.1724 3.70233 14.1724 3.10709C14.1724 2.5199 14.0437 1.619 13.9472 1.17659C13.8506 0.734187 13.6496 0.661793 13.5852 1.29725C13.5209 1.92466 13.5852 2.42338 13.4243 2.88991C13.2635 3.35645 12.9658 3.94365 12.4189 4.193C11.8638 4.44236 11.5099 4.79628 11.3169 4.85259C11.1238 4.9089 10.5286 4.98129 10.3114 4.38605C10.0781 3.78277 10.0781 3.58168 10.1183 3.38863C10.1505 3.20362 9.9816 3.22775 9.73225 3.50928C9.4668 3.78277 9.43463 4.193 9.43463 4.62736C9.43463 5.06173 9.88508 5.43174 9.88508 5.65697C9.88508 5.87415 9.9253 6.09133 9.82877 6.31655C9.73225 6.53373 9.5955 7.19332 9.27375 6.92788C8.94396 6.67852 8.75091 6.42917 8.49351 6.31655C8.23611 6.17981 7.81783 6.62222 8.00284 7.24963C8.19589 7.869 8.59003 8.054 8.68656 8.36771C8.78308 8.68142 8.84744 9.99255 8.65439 10.1695C8.46133 10.3626 8.42916 10.4269 8.65439 10.8613C8.87961 11.2956 8.91178 12.2046 8.84743 12.6631C8.78308 13.1377 9.0807 14.0627 9.43463 14.3442C9.78855 14.6338 11.1882 14.7786 10.9629 14.2236C10.7297 13.6605 10.416 13.4755 10.1183 13.0974C9.82877 12.7274 9.82877 10.5717 10.1183 9.52601C10.416 8.45619 11.4536 5.32717 13.2715 4.88476C15.0894 4.4504 13.8587 4.65954 14.3815 4.63541C14.8963 4.60323 15.194 4.4504 15.387 4.1367C15.572 3.82299 15.9018 3.5495 15.934 3.23579Z" fill="#BF0A30"/>
<path d="M10.4323 14.666C10.0382 14.666 9.57971 14.5453 9.38666 14.3925C9.01664 14.0949 8.71098 13.1377 8.77533 12.6631C8.83968 12.2046 8.80751 11.3198 8.59033 10.8854C8.35706 10.435 8.38119 10.3384 8.59837 10.1293C8.75924 9.98451 8.72707 8.72969 8.61446 8.39185C8.57424 8.27119 8.4938 8.16662 8.38923 8.05401C8.2364 7.87705 8.05139 7.64378 7.93074 7.27377C7.83421 6.96006 7.87443 6.66244 8.03531 6.43722C8.15596 6.2683 8.35706 6.18786 8.50989 6.25221C8.67881 6.33265 8.81555 6.46135 8.96838 6.59809C9.06491 6.69462 9.16948 6.79114 9.29013 6.87962C9.33035 6.9118 9.36253 6.92789 9.3947 6.92789C9.5234 6.92789 9.61993 6.63831 9.69232 6.4533C9.70841 6.397 9.73254 6.3246 9.74863 6.28439C9.82102 6.12351 9.82102 5.96264 9.81298 5.78567C9.81298 5.74545 9.80493 5.70524 9.80493 5.65697C9.80493 5.58458 9.72449 5.46392 9.64406 5.34327C9.50731 5.15022 9.34644 4.9089 9.34644 4.62737C9.34644 4.22518 9.37057 3.77473 9.6521 3.46103C9.75667 3.34037 9.91755 3.20363 10.0382 3.20363C10.0784 3.20363 10.1106 3.21167 10.1267 3.24385C10.1589 3.27602 10.1669 3.32428 10.1589 3.38863C10.1267 3.55755 10.1186 3.75865 10.3439 4.35388C10.5771 4.94912 11.2126 4.80434 11.2769 4.7802C11.3574 4.76412 11.4619 4.68368 11.5987 4.57911C11.7837 4.45041 12.0491 4.27345 12.3789 4.12062C12.7892 3.94365 13.127 3.50929 13.3522 2.85775C13.4488 2.56817 13.4568 2.25447 13.4729 1.91663C13.4809 1.70749 13.489 1.5064 13.5131 1.28117C13.5533 0.943333 13.6257 0.774414 13.7464 0.774414C13.8751 0.774414 13.9555 0.983552 13.9957 1.15247C14.0923 1.57879 14.229 2.49578 14.229 3.09906C14.229 3.30015 14.237 3.41277 14.2531 3.47712C14.2692 3.54951 14.2933 3.54951 14.3175 3.54951C14.3657 3.54951 14.4462 3.51733 14.5507 3.47712C14.8645 3.37255 15.1138 3.22776 15.3793 3.06688L15.5401 2.9784C15.6688 2.89797 15.7734 2.87383 15.8538 2.87383C15.9262 2.87383 15.9664 2.90601 15.9906 2.93014C16.0308 2.98645 16.0308 3.09102 15.9906 3.24385C15.9664 3.45298 15.8056 3.66212 15.6447 3.85517C15.5643 3.95974 15.4838 4.05627 15.4275 4.15279C15.2103 4.49063 14.8966 4.6515 14.3738 4.68368C14.3014 4.69172 14.2692 4.69172 14.2451 4.68368C14.1325 4.7239 13.867 4.78825 13.2798 4.93304C11.4056 5.38349 10.36 8.83426 10.1669 9.52602C9.86928 10.6441 9.89341 12.7194 10.1589 13.0492C10.2554 13.1698 10.3439 13.2664 10.4404 13.3709C10.6495 13.5801 10.8506 13.7973 11.0115 14.1994C11.0678 14.3281 11.0276 14.4166 10.9954 14.4649C10.9069 14.6338 10.6415 14.666 10.4323 14.666ZM8.38923 6.36482C8.30879 6.36482 8.20423 6.42113 8.13183 6.5257C7.99509 6.71071 7.97096 6.97615 8.05139 7.24159C8.15596 7.58747 8.33293 7.78857 8.48576 7.98162C8.59033 8.10227 8.68685 8.21489 8.73511 8.35967C8.8236 8.64925 8.92012 10.0086 8.68685 10.2339C8.51793 10.3947 8.47771 10.4269 8.6949 10.8372C8.92816 11.2956 8.96838 12.2046 8.90403 12.6872C8.83968 13.1216 9.12121 14.0386 9.46709 14.3121C9.63601 14.4408 10.0704 14.5534 10.4323 14.5534C10.6817 14.5534 10.8426 14.4971 10.9069 14.4086C10.9311 14.3684 10.9311 14.3201 10.9069 14.2477C10.7461 13.8777 10.553 13.6766 10.36 13.4594C10.2634 13.3548 10.1669 13.2583 10.0704 13.1377C9.77276 12.7516 9.76471 10.5798 10.0623 9.50189C10.3358 8.52055 11.3735 5.27087 13.2637 4.82042C13.8268 4.67564 14.0762 4.61933 14.1968 4.57911C14.237 4.53889 14.3175 4.53889 14.3175 4.53889H14.3738L14.3818 4.55498H14.3899C14.8805 4.53889 15.1621 4.3941 15.3471 4.08844C15.4195 3.99192 15.4919 3.88735 15.5723 3.79082C15.7251 3.59777 15.8699 3.41277 15.886 3.22776C15.9423 3.05884 15.9182 3.01862 15.9021 3.00253C15.9021 3.00253 15.8538 2.95427 15.6206 3.09102L15.4677 3.18754C15.1942 3.34842 14.9449 3.48516 14.6392 3.59777C14.5025 3.64603 14.414 3.67821 14.3497 3.67821C14.2531 3.67821 14.1968 3.62995 14.1646 3.53342C14.1405 3.4369 14.1325 3.33233 14.1325 3.1071C14.1325 2.51186 13.9957 1.61901 13.9072 1.19269C13.8509 0.959421 13.8027 0.911158 13.7866 0.903114C13.7866 0.903114 13.7142 0.943333 13.682 1.31335C13.6579 1.53053 13.6498 1.73162 13.6418 1.93271C13.6338 2.28664 13.6257 2.60839 13.5051 2.91405C13.2718 3.60582 12.9179 4.05627 12.4674 4.25736C12.1537 4.40215 11.9044 4.57107 11.7113 4.70781C11.5665 4.80434 11.4459 4.88477 11.3574 4.91695C11.3172 4.92499 11.2126 4.95717 11.0678 4.95717C10.8506 4.95717 10.4565 4.88477 10.2715 4.41019C10.0462 3.83908 10.0302 3.60582 10.0784 3.38059C10.0865 3.34037 10.0784 3.33233 10.0784 3.33233C10.0543 3.33233 9.95776 3.38059 9.78885 3.5656C9.56362 3.81495 9.51536 4.16083 9.51536 4.63542C9.51536 4.87673 9.66015 5.09391 9.78885 5.28696C9.88537 5.43175 9.97385 5.56045 9.97385 5.66502C9.97385 5.71328 9.9819 5.7535 9.9819 5.79372C9.9819 5.97872 9.98994 6.15569 9.9095 6.34069C9.89341 6.38091 9.87733 6.43722 9.8532 6.50157C9.77276 6.74288 9.66014 7.05659 9.44296 7.05659C9.38666 7.05659 9.32231 7.0405 9.266 6.98419C9.12926 6.88767 9.01664 6.79114 8.92012 6.70266C8.77533 6.56592 8.63859 6.44526 8.4938 6.37287C8.43749 6.36482 8.41336 6.36482 8.38923 6.36482Z" fill="#BF0A30"/>
<path d="M14.4704 13.1061C14.9289 12.6396 15.2184 11.988 15.0254 11.2399C14.8323 10.4919 14.8002 9.87251 14.3738 9.39793C13.9475 8.93943 14.213 8.25571 14.768 8.61768C15.315 8.99574 15.7976 9.64728 15.87 10.3954C15.9424 11.1515 15.9424 11.8674 15.7976 12.2374C15.6689 12.6074 15.5724 12.7039 16.0952 12.3259C16.6181 11.9478 18.0096 10.9584 18.1785 10.339C18.3394 9.71968 18.6049 8.62573 18.5003 7.84548C18.4038 7.07328 18.2027 7.07328 17.9774 6.5987C17.7522 6.13216 18.0096 5.23126 18.4279 5.72193C18.8542 6.22064 19.176 6.79175 19.176 7.19394C19.176 7.59613 19.2484 7.56395 19.5058 7.19394C19.7632 6.81588 20.286 6.34934 20.6399 5.81846C21.0019 5.27952 21.4202 5.19104 21.388 5.60128C21.3558 6.00346 21.4845 6.43782 21.1949 6.87219C20.9054 7.30655 19.8677 8.30398 19.4736 8.76247C19.0875 9.23705 19.2805 9.79207 19.2484 10.1621C19.2081 10.5401 19.2484 10.2908 19.6988 10.0173C20.1573 9.73576 20.5756 9.51858 20.9375 9.42206C21.2915 9.32553 21.6213 9.67141 21.2915 10.0736C20.9697 10.4838 20.5112 10.9745 20.093 11.1434C19.6666 11.2882 19.0875 11.626 18.7577 11.7306C18.4279 11.8271 18.1866 11.8432 17.7764 12.2293C16.6744 13.2831 15.7654 13.2187 15.3069 13.5646C14.8565 13.9185 14.0521 13.6289 14.4704 13.1061Z" fill="#BF0A30"/>
<path d="M14.8481 13.7813C14.6068 13.7813 14.3977 13.6768 14.3253 13.532C14.277 13.4355 14.2609 13.2746 14.4299 13.0654C14.7275 12.7517 15.194 12.1163 14.9688 11.2556C14.9205 11.0786 14.8803 10.9097 14.8481 10.7408C14.7355 10.234 14.639 9.79164 14.3333 9.44576C14.084 9.18836 14.0679 8.86661 14.1564 8.6816C14.2529 8.44029 14.5264 8.39202 14.8079 8.57703C15.3066 8.91487 15.8697 9.57446 15.9421 10.403C15.9823 10.9017 16.0306 11.8106 15.8697 12.2691C15.8536 12.3174 15.8375 12.3656 15.8214 12.4059C15.8134 12.438 15.8054 12.4541 15.7893 12.4863C15.8697 12.438 15.9823 12.3496 16.0708 12.2932L16.0949 12.2772C16.6097 11.9071 17.9691 10.9339 18.122 10.3467C18.2265 9.93643 18.5483 8.70573 18.4437 7.87722C18.3794 7.35438 18.2748 7.20155 18.138 6.98437C18.0817 6.89589 18.0093 6.79936 17.9369 6.63849C17.7922 6.34087 17.8324 5.91455 17.9691 5.70541C18.0496 5.56867 18.1461 5.54453 18.2104 5.54453C18.307 5.54453 18.4035 5.5928 18.492 5.70541C18.9746 6.27652 19.2561 6.83154 19.2561 7.21764C19.2561 7.33829 19.2642 7.3946 19.2722 7.42677C19.3205 7.38656 19.4331 7.23372 19.4653 7.17742C19.5859 7.0085 19.7548 6.81545 19.9398 6.61435C20.157 6.365 20.4144 6.09151 20.6075 5.80194C20.8166 5.48823 21.0579 5.30322 21.2429 5.30322C21.3073 5.30322 21.3636 5.31931 21.4038 5.37562C21.4521 5.43192 21.4762 5.5204 21.4682 5.62497C21.4601 5.72954 21.4601 5.84215 21.4601 5.96281C21.4682 6.26847 21.4762 6.59827 21.2671 6.92806C21.0821 7.20155 20.6557 7.64396 20.2294 8.08636C19.9479 8.38398 19.6905 8.64942 19.5377 8.84247C19.2722 9.16422 19.2883 9.53424 19.3124 9.86403C19.3205 9.99273 19.3285 10.1134 19.3205 10.2099C19.3205 10.226 19.3205 10.2501 19.3205 10.2823C19.3929 10.2099 19.5055 10.1134 19.6824 10.0008C20.1972 9.67903 20.6075 9.48597 20.9292 9.38945C21.1544 9.33314 21.3797 9.42967 21.4601 9.61468C21.5405 9.77555 21.5003 9.97664 21.3555 10.1536C20.8729 10.7569 20.4707 11.1028 20.1248 11.2315C19.9318 11.3039 19.6985 11.4245 19.4733 11.5291C19.2079 11.6497 18.9585 11.7784 18.7815 11.8267C18.7333 11.8348 18.685 11.8589 18.6368 11.8669C18.3874 11.9232 18.1622 11.9876 17.8243 12.3013C17.1004 13.0091 16.4408 13.2263 15.9582 13.3792C15.7008 13.4596 15.4997 13.532 15.3629 13.6366C15.2101 13.725 15.0332 13.7813 14.8481 13.7813ZM14.4701 8.58507C14.3736 8.58507 14.3012 8.63334 14.2609 8.72986C14.2046 8.87465 14.2207 9.14009 14.4218 9.36532C14.7516 9.73533 14.8481 10.1938 14.9688 10.7086C15.001 10.8775 15.0412 11.0465 15.0895 11.2234C15.3308 12.1485 14.8401 12.8241 14.5184 13.1539C14.462 13.2344 14.3816 13.3631 14.4379 13.4757C14.4942 13.5963 14.6551 13.6607 14.8481 13.6607C15.009 13.6607 15.1619 13.6124 15.2825 13.532C15.4514 13.4033 15.6686 13.3228 15.918 13.2424C16.3925 13.0815 17.028 12.8724 17.7439 12.1887C18.0978 11.8508 18.3472 11.7865 18.6046 11.7141C18.6528 11.7061 18.7011 11.6819 18.7494 11.6739C18.9183 11.6256 19.1516 11.505 19.409 11.3763C19.6342 11.2717 19.8755 11.1591 20.0766 11.0947C20.3903 10.958 20.7844 10.6282 21.251 10.049C21.3636 9.90425 21.3958 9.75946 21.3475 9.63881C21.2912 9.51815 21.1223 9.4538 20.9534 9.49402C20.6477 9.57446 20.2455 9.76751 19.7387 10.0812C19.5698 10.1858 19.4572 10.2904 19.3929 10.3547C19.3285 10.411 19.3044 10.4432 19.2642 10.4432H19.232L19.1998 10.411C19.1676 10.3788 19.1676 10.3225 19.1837 10.1777C19.1918 10.0812 19.1918 9.9686 19.1837 9.85599C19.1516 9.51815 19.1274 9.10792 19.4331 8.75399C19.594 8.56094 19.8594 8.28746 20.1329 7.99788C20.5351 7.5796 20.9775 7.11307 21.1464 6.86371C21.3475 6.56609 21.3395 6.25239 21.3314 5.96281C21.3234 5.8502 21.3234 5.72954 21.3395 5.61693C21.3475 5.54454 21.3314 5.48019 21.3073 5.45605C21.2268 5.37562 20.9534 5.49627 20.704 5.87433C20.5029 6.17195 20.2455 6.45348 20.0203 6.70284C19.8433 6.89589 19.6744 7.07285 19.5618 7.24981C19.3929 7.49917 19.3205 7.57156 19.2481 7.57156C19.1355 7.57156 19.1274 7.41069 19.1274 7.22568C19.1274 6.86371 18.8539 6.34087 18.3954 5.79389C18.323 5.71345 18.2587 5.67324 18.2024 5.67324C18.1461 5.67324 18.0978 5.72954 18.0656 5.76976C17.9611 5.95477 17.9209 6.34891 18.0415 6.59827C18.1139 6.74305 18.1783 6.83958 18.2426 6.9361C18.3794 7.1372 18.5 7.31416 18.5644 7.86114C18.6609 8.62529 18.4196 9.66294 18.2426 10.3869C18.0737 11.0143 16.7384 11.9795 16.1673 12.3898L16.1432 12.4059C15.8456 12.615 15.7812 12.6552 15.733 12.6552C15.7008 12.6552 15.6767 12.6472 15.6606 12.623C15.6284 12.5667 15.6525 12.5185 15.7008 12.3817C15.7169 12.3415 15.741 12.2932 15.749 12.245C15.8697 11.9152 15.8858 11.2797 15.8214 10.4351C15.749 9.64685 15.2182 9.02748 14.7436 8.70573C14.631 8.60921 14.5425 8.58507 14.4701 8.58507Z" fill="#BF0A30"/>
<path d="M9.47559 15.1889C9.73299 14.7706 10.4328 14.1834 11.2935 14.1432C12.1622 14.1029 13.3768 14.851 13.3366 15.0602C13.2964 15.2693 11.4302 15.8484 11.0361 15.8967C10.65 15.9369 9.82951 15.6795 9.47559 15.1889Z" fill="white"/>
<path d="M10.9475 15.9535C10.5373 15.9535 9.78115 15.7203 9.42722 15.2135L9.41113 15.1813L9.42722 15.1411C9.68462 14.7389 10.3925 14.1276 11.2934 14.0713C11.3255 14.0713 11.3416 14.0713 11.3738 14.0713C12.138 14.0713 13.1032 14.6102 13.3365 14.8998C13.3847 14.9561 13.4089 15.0205 13.3928 15.0687C13.3365 15.3261 11.3738 15.9053 11.044 15.9455C11.0199 15.9535 10.9797 15.9535 10.9475 15.9535ZM9.55592 15.1894C9.9018 15.6398 10.674 15.8731 11.036 15.8248C11.5025 15.7846 13.2078 15.2135 13.2802 15.0446C13.2802 15.0365 13.2641 15.0044 13.1997 14.9481C12.9021 14.6344 11.961 14.1678 11.3014 14.208C10.4649 14.2402 9.80528 14.7952 9.55592 15.1894Z" fill="white"/>
<path d="M15.3073 13.6927C15.7014 13.4031 17.1976 11.6737 17.5435 11.5852C17.8893 11.5048 18.9752 12.1322 19.1924 12.3413C19.4096 12.5424 19.4981 13.0492 18.9752 13.1698C18.4524 13.2985 16.8919 13.6283 16.4173 13.9983C15.9347 14.3764 15.2188 14.2316 15.3073 13.6927Z" fill="white"/>
<path d="M15.8223 14.2798C15.6292 14.2798 15.4442 14.2074 15.3396 14.0948C15.2512 13.9822 15.219 13.8454 15.2431 13.6845V13.6684L15.2672 13.6443C15.412 13.5397 15.7418 13.1939 16.0877 12.8399C16.7956 12.116 17.3104 11.5932 17.5195 11.5449C17.5436 11.5369 17.5678 11.5288 17.608 11.5288C18.0182 11.5288 19.0076 12.0999 19.2248 12.3091C19.3454 12.4297 19.458 12.6549 19.3937 12.8882C19.3535 13.0169 19.2569 13.1697 18.9754 13.2421L18.7824 13.2984C18.1549 13.4432 16.8599 13.7328 16.4416 14.0626C16.2647 14.1913 16.0394 14.2798 15.8223 14.2798ZM15.3638 13.7248C15.3557 13.8454 15.3799 13.9339 15.4362 13.9982C15.5166 14.1028 15.6533 14.1511 15.8223 14.1511C16.0073 14.1511 16.2164 14.0787 16.3692 13.958C16.8036 13.6121 18.0745 13.3145 18.7502 13.1617L18.9432 13.1134C19.1202 13.0732 19.2328 12.9767 19.273 12.8399C19.3132 12.671 19.2328 12.486 19.1363 12.3814C18.9271 12.1964 17.978 11.6414 17.5999 11.6414C17.5678 11.6414 17.5517 11.6414 17.5436 11.6495C17.3506 11.7058 16.6669 12.3975 16.1681 12.9204C15.8303 13.2904 15.5327 13.6041 15.3638 13.7248Z" fill="white"/>
<path d="M31.5954 25.9024C31.885 26.0069 32.2711 25.9184 32.44 25.5967C32.6009 25.291 33.0594 23.7386 32.818 23.079C32.5767 22.4194 32.6652 22.0655 32.255 21.6392C31.5632 22.2585 30.5819 23.9155 30.4854 24.2936C30.968 24.7601 31.5954 25.4841 31.5954 25.9024Z" fill="#BF0A30"/>
<path d="M32.2551 21.5508L32.2953 21.599C32.5769 21.8967 32.6332 22.1541 32.7056 22.4758C32.7538 22.6447 32.794 22.8297 32.8745 23.0711C33.1238 23.7467 32.6573 25.3153 32.4884 25.629C32.3034 25.9829 31.877 26.0714 31.5714 25.9668L31.5312 25.9588L31.5392 25.9025C31.5392 25.5164 30.944 24.8246 30.4372 24.342L30.4131 24.3178L30.4211 24.2776C30.5096 23.9156 31.4909 22.2425 32.2068 21.591L32.2551 21.5508ZM31.6518 25.8622C31.9012 25.9185 32.239 25.8381 32.3838 25.5646C32.5366 25.267 32.9951 23.7387 32.7619 23.1032C32.6814 22.87 32.6332 22.6769 32.601 22.4999C32.5286 22.2023 32.4723 21.9771 32.2551 21.7277C31.5875 22.3632 30.6946 23.8754 30.5579 24.2776C30.7831 24.5028 31.6036 25.3313 31.6518 25.8622Z" fill="#BF0A30"/>
<path d="M31.4908 24.2787C31.7563 24.2305 31.9574 24.0937 32.0378 23.8283C32.1424 23.5467 32.6733 23.3054 32.8502 23.4341C32.8583 23.4422 32.8663 23.4341 32.8824 23.4261C32.8743 23.2974 32.8502 23.1767 32.818 23.0722C32.5767 22.4126 32.6652 22.0586 32.255 21.6323C31.5632 22.2517 30.5819 23.9087 30.4854 24.2868C30.598 24.3913 30.7106 24.512 30.8312 24.6407L30.8393 24.6487C31.1449 24.5763 31.2093 24.335 31.4908 24.2787Z" fill="#BF0A30"/>
<path d="M32.2551 21.5513L32.2953 21.5995C32.5768 21.8972 32.6331 22.1546 32.7055 22.4763C32.7538 22.6452 32.794 22.8302 32.8744 23.0715C32.9066 23.1681 32.9307 23.2807 32.9388 23.4335V23.5139L32.8744 23.4979C32.8664 23.5059 32.8422 23.5059 32.8181 23.4898L32.802 23.4818C32.7377 23.4496 32.609 23.4576 32.4722 23.5139C32.2792 23.5944 32.1264 23.7231 32.0781 23.8518C31.9816 24.1253 31.7885 24.2942 31.4748 24.3425C31.3622 24.3666 31.2898 24.4309 31.1933 24.5033C31.1048 24.5757 30.9922 24.6722 30.8313 24.7044L30.775 24.7125L30.7509 24.6883C30.6463 24.5677 30.5176 24.4551 30.405 24.3425L30.3809 24.3183L30.3889 24.2781C30.4774 23.9161 31.4587 22.243 32.1746 21.5915L32.2551 21.5513ZM32.8101 23.345C32.802 23.2485 32.7779 23.1681 32.7618 23.1037C32.6814 22.8704 32.6331 22.6774 32.6009 22.5004C32.5285 22.2028 32.4722 21.9776 32.2551 21.7282C31.5874 22.3637 30.6946 23.8759 30.5578 24.2781C30.6543 24.3746 30.7509 24.4872 30.8474 24.5757C30.9761 24.5355 31.0565 24.4792 31.145 24.4068C31.2335 24.3344 31.322 24.254 31.4829 24.2218C31.7483 24.1816 31.9172 24.0448 31.9896 23.8035C32.054 23.6185 32.2792 23.4657 32.4481 23.4013C32.5929 23.345 32.7135 23.3209 32.8101 23.345Z" fill="#BF0A30"/>
<path d="M23.2297 35.7646C23.1815 35.9336 23.1171 36.0944 23.0528 36.2473C22.5299 37.3573 21.621 38.1054 21.0981 38.8615C20.5833 39.6015 20.3179 40.8483 19.6663 41.7251C19.0148 42.6018 18.1059 43.9693 16.8028 44.838C15.5077 45.7148 13.1589 47.3316 12.25 48.321C13.1589 48.4577 13.2957 48.321 13.2957 48.321C13.1589 49.1897 12.9015 49.069 12.7728 50.0664C13.9392 49.3184 15.371 48.321 16.2799 48.0796L15.7571 47.3316C16.5373 47.2109 16.666 46.9616 17.8404 46.7042C22.3932 44.098 23.4308 38.3628 23.9537 36.1186L23.2297 35.7646Z" fill="white"/>
<path d="M12.701 50.1872L12.7171 50.0505C12.7895 49.5196 12.894 49.3024 12.9986 49.0852C13.0871 48.9163 13.1675 48.7474 13.2238 48.4095C13.1595 48.4256 13.063 48.4256 12.9343 48.4256C12.7493 48.4256 12.524 48.4176 12.2505 48.3693L12.1299 48.3613L12.2103 48.2728C13.063 47.3397 15.1624 45.8516 16.7711 44.7818C17.9053 44.0176 18.7579 42.8593 19.3773 42.0147C19.4577 41.8941 19.5462 41.7895 19.6267 41.6769C19.9725 41.2184 20.2058 40.6473 20.431 40.0923C20.6241 39.6177 20.8091 39.1673 21.0504 38.8214C21.2354 38.5479 21.4767 38.2985 21.718 38.009C22.1604 37.5102 22.6592 36.9311 22.997 36.2232C23.0613 36.0704 23.1177 35.9256 23.182 35.7487L23.1981 35.6763L24.0346 36.0865L24.0186 36.1348C23.9864 36.2635 23.9542 36.4083 23.922 36.5611C23.3509 39.0707 22.1846 44.275 17.8731 46.7525L17.857 46.7606C17.2538 46.8893 16.932 47.0099 16.6505 47.1225C16.4092 47.2191 16.2 47.3075 15.8702 47.3638L16.385 48.1039L16.3046 48.136C15.5485 48.3452 14.4063 49.0772 13.3928 49.7368C13.1997 49.8655 12.9906 49.9942 12.8056 50.1148L12.701 50.1872ZM13.3847 48.136L13.3525 48.3211C13.2962 48.7474 13.1917 48.9485 13.1032 49.1335C13.0067 49.3265 12.9182 49.5115 12.8538 49.9218C13.0067 49.8333 13.1675 49.7287 13.3284 49.6161C14.3097 48.9887 15.4198 48.2728 16.1839 48.0315L15.653 47.2673L15.7496 47.2593C16.1196 47.1949 16.3368 47.1064 16.6022 47.0099C16.8837 46.8893 17.2135 46.7686 17.8249 46.6319C22.072 44.1866 23.2303 39.0144 23.7933 36.5289C23.8255 36.4002 23.8577 36.2715 23.8818 36.1509L23.2624 35.8532C23.2142 35.99 23.1659 36.1348 23.1016 36.2635C22.7557 37.0035 22.2489 37.5746 21.7985 38.0894C21.5572 38.3709 21.3239 38.6283 21.1469 38.8857C20.9056 39.2236 20.7206 39.674 20.5356 40.1406C20.3023 40.6956 20.0691 41.2747 19.7151 41.7493C19.6347 41.8458 19.5543 41.9665 19.4738 42.0871C18.8464 42.9317 17.9938 44.0981 16.8435 44.8703C15.283 45.916 13.2721 47.3317 12.3873 48.2487C12.5964 48.2808 12.7814 48.2889 12.9343 48.2889C13.1917 48.2889 13.2641 48.2487 13.2641 48.2487L13.3847 48.136Z" fill="white"/>
<path d="M24.3568 33.4081C24.3568 33.4081 24.4855 32.2981 24.22 31.542C23.9626 32.0487 23.9626 32.0487 23.6972 32.7968C23.6811 32.8531 23.6569 32.9336 23.6328 33.022L24.3568 33.4081Z" fill="white"/>
<path d="M24.413 33.513L23.5684 33.0625L23.5764 33.0143C23.6005 32.9177 23.6247 32.8373 23.6488 32.781C23.9142 32.0249 23.9142 32.0249 24.1716 31.5262L24.244 31.3975L24.2923 31.5262C24.5577 32.2742 24.429 33.3762 24.429 33.4245L24.413 33.513ZM23.7051 32.9901L24.3003 33.3119C24.3164 33.0545 24.3727 32.2984 24.2119 31.7112C24.0188 32.0812 23.9947 32.1375 23.7614 32.8212C23.7453 32.8695 23.7292 32.9258 23.7051 32.9901Z" fill="black"/>
<path d="M23.2142 18.6478C22.6914 18.8168 22.2248 18.857 21.7422 18.8168C22.5224 18.9776 23.3912 19.1063 23.5601 19.4361C23.729 19.774 23.8657 20.1038 24.3886 19.9429C24.5173 19.0661 24.5173 18.1893 24.0025 17.94C23.8336 17.8998 23.6646 17.8596 23.5038 17.8193H23.4877C23.4796 18.2296 23.3027 18.4387 23.2142 18.6478Z" fill="#BF0A30"/>
<path d="M24.1395 20.0391C23.8097 20.0391 23.6729 19.7817 23.5442 19.5243L23.512 19.4519C23.3753 19.1945 22.7157 19.0658 22.0803 18.9371C21.9596 18.921 21.855 18.8888 21.7344 18.8647L21.7505 18.736C22.2411 18.7842 22.6916 18.736 23.1742 18.5912C23.1903 18.551 23.2225 18.5027 23.2386 18.4625C23.327 18.3016 23.4236 18.1166 23.4236 17.8109V17.7546L23.504 17.7466L23.512 17.7546C23.689 17.8029 23.8499 17.8431 24.0108 17.8753C24.4853 18.1086 24.6221 18.7681 24.4532 19.9345L24.4451 19.9747L24.4129 19.9827C24.3084 20.0149 24.2279 20.0391 24.1395 20.0391ZM22.3779 18.8808C22.9731 19.0095 23.4879 19.1382 23.6247 19.4036L23.6568 19.476C23.7775 19.7173 23.8821 19.9264 24.1395 19.9264C24.1958 19.9264 24.2601 19.9184 24.3325 19.8862C24.4853 18.8084 24.3647 18.197 23.9705 18.004C23.8418 17.9718 23.6971 17.9316 23.5362 17.8994C23.5201 18.189 23.4236 18.374 23.3431 18.5349C23.319 18.5831 23.2868 18.6314 23.2707 18.6716L23.2627 18.7038L23.2305 18.7118C22.949 18.7923 22.6675 18.8486 22.3779 18.8808Z" fill="#BF0A30"/>
<path d="M15.0664 16.5249C15.6295 16.6134 16.6752 16.734 17.1497 16.6134C17.4554 16.8225 17.9782 17.1845 18.1472 17.3132C17.7611 17.7315 16.9728 17.9004 16.3695 17.7315C15.7662 17.5706 15.2916 17.1925 15.0664 16.5249Z" fill="white"/>
<path d="M16.8678 17.86C16.6828 17.86 16.5219 17.844 16.353 17.7876C15.6613 17.5946 15.2189 17.1844 15.0097 16.5409L14.9775 16.4443L15.0741 16.4524C15.5004 16.5167 16.0956 16.5972 16.5863 16.5972C16.8196 16.5972 16.9965 16.5811 17.1333 16.5489L17.1574 16.5409L17.1815 16.5489C17.455 16.7339 17.8974 17.0637 18.1146 17.2085L18.2353 17.305L18.187 17.3533C17.9055 17.675 17.3987 17.86 16.8678 17.86ZM15.1625 16.6052C15.3717 17.1522 15.7819 17.5061 16.3852 17.675C16.538 17.7233 16.6989 17.7474 16.8678 17.7474C17.3344 17.7474 17.7848 17.5865 18.0503 17.3291H18.0422C17.8331 17.1763 17.4068 16.8707 17.1413 16.6937C17.0046 16.7259 16.8196 16.7339 16.5943 16.7339C16.1278 16.7259 15.5808 16.6696 15.1625 16.6052Z" fill="white"/>
<path d="M16.5058 16.6689C16.5058 16.6769 16.5058 16.685 16.5058 16.701C16.6345 16.9906 16.4575 17.24 16.2403 17.4491C16.176 17.5215 16.1518 17.5778 16.1357 17.6422C16.2162 17.6743 16.2966 17.7146 16.3771 17.7387C16.9803 17.9076 17.7606 17.7387 18.1547 17.3204C17.9858 17.1998 17.463 16.8297 17.1573 16.6206C16.9884 16.6528 16.7551 16.6689 16.5058 16.6689Z" fill="#BF0A30"/>
<path d="M22.9645 20.7322C22.1119 20.7322 21.2995 20.7322 20.9858 20.6115C20.7043 20.4909 20.4469 20.4024 19.8838 20.4024V20.2817C20.471 20.2817 20.7364 20.3702 21.034 20.4909C21.3236 20.6115 22.1521 20.6115 22.9645 20.6115V20.7322Z" fill="white"/>
<path d="M9.11319 16.8383C8.60643 16.8383 8.01119 16.6774 7.31139 16.3315C6.69202 16.0419 6.45875 16.0098 5.86351 16.05L5.85547 15.9213C6.45875 15.8811 6.73224 15.9213 7.35965 16.2189C8.3249 16.6854 9.07297 16.8141 9.66017 16.6372L9.70038 16.7578C9.51538 16.8061 9.33037 16.8383 9.11319 16.8383Z" fill="white"/>
</svg>
