<svg width="157" height="72" viewBox="0 0 157 72" fill="none" xmlns="http://www.w3.org/2000/svg">
<path d="M36.8214 28.0974C34.3113 28.0974 32.371 27.3313 31.0003 25.7992C29.6297 24.2671 28.9443 22.0938 28.9443 19.2794C28.9443 16.5649 29.6214 14.4333 30.9755 12.8845C32.3462 11.3191 34.2288 10.5364 36.6233 10.5364C39.1334 10.5364 41.0903 11.2941 42.4939 12.8096C43.8976 14.325 44.5994 16.44 44.5994 19.1545C44.5994 21.9689 43.9141 24.1672 42.5435 25.7493C41.1893 27.3147 39.282 28.0974 36.8214 28.0974ZM36.7967 14.0336C34.6499 14.0336 33.5765 15.7989 33.5765 19.3294C33.5765 21.0114 33.7829 22.2604 34.1957 23.0764C34.7077 24.0922 35.5664 24.6002 36.7719 24.6002C38.9022 24.6002 39.9673 22.8849 39.9673 19.4543C39.9673 17.5558 39.7114 16.1819 39.1994 15.3326C38.704 14.4666 37.9031 14.0336 36.7967 14.0336Z" fill="#BF0A30"/>
<path d="M57.1677 12.5598L61.5273 23.2513V15.8571C61.5273 14.7414 61.3127 14.1835 60.8833 14.1835C60.7677 14.1835 60.5943 14.2168 60.3631 14.2834C60.1484 14.3334 59.9833 14.3583 59.8677 14.3583C59.5209 14.3583 59.2237 14.2001 58.976 13.8837C58.7448 13.5673 58.6292 13.1759 58.6292 12.7096C58.6292 12.1601 58.786 11.7188 59.0998 11.3857C59.4136 11.0526 59.8264 10.8861 60.3383 10.8861C60.6026 10.8861 61.0567 10.9277 61.7007 11.011C62.3448 11.0943 62.9145 11.1359 63.4099 11.1359C63.8558 11.1359 64.376 11.1026 64.9705 11.036C65.8622 10.9361 66.4154 10.8861 66.6301 10.8861C67.1586 10.8861 67.5879 11.0526 67.9182 11.3857C68.2485 11.7188 68.4136 12.1601 68.4136 12.7096C68.4136 13.1759 68.2815 13.5673 68.0173 13.8837C67.7531 14.2001 67.431 14.3583 67.0512 14.3583C66.9026 14.3583 66.7044 14.3334 66.4567 14.2834C66.209 14.2168 66.0191 14.1835 65.887 14.1835C65.5567 14.1835 65.342 14.3916 65.243 14.808C65.2099 14.9745 65.1934 15.3242 65.1934 15.8571V26.024C65.1934 27.1232 64.7475 27.6727 63.8558 27.6727C63.6907 27.6727 63.4347 27.6644 63.0879 27.6478C62.7576 27.6144 62.5099 27.5978 62.3448 27.5978C62.3283 27.5978 61.9237 27.6144 61.131 27.6478C61.131 27.6478 60.9494 27.6478 60.5861 27.6478C60.1072 27.6478 59.7521 27.5312 59.5209 27.298C59.3888 27.1648 59.1989 26.8068 58.9512 26.2239L54.1704 15.2326V22.7766C54.1704 23.9091 54.3851 24.4753 54.8145 24.4753C54.9301 24.4753 55.1035 24.4503 55.3347 24.4003C55.5824 24.3337 55.764 24.3004 55.8796 24.3004C56.2264 24.3004 56.5154 24.4586 56.7466 24.775C56.9943 25.0915 57.1182 25.4828 57.1182 25.9491C57.1182 27.1648 56.5402 27.7727 55.3842 27.7727C55.0539 27.7727 54.509 27.7227 53.7493 27.6228C53.2374 27.5562 52.7255 27.5229 52.2135 27.5229C51.7842 27.5229 51.2062 27.5645 50.4796 27.6478C49.753 27.731 49.2906 27.7727 49.0924 27.7727C47.8869 27.7727 47.2842 27.1648 47.2842 25.9491C47.2842 25.4828 47.408 25.0915 47.6557 24.775C47.9199 24.4586 48.242 24.3004 48.6218 24.3004C48.7704 24.3004 48.9686 24.3337 49.2163 24.4003C49.4805 24.4503 49.6787 24.4753 49.8108 24.4753C50.2567 24.4753 50.4796 23.9091 50.4796 22.7766V15.8571C50.4796 14.7414 50.2567 14.1835 49.8108 14.1835C49.6787 14.1835 49.4805 14.2168 49.2163 14.2834C48.9686 14.3334 48.7704 14.3583 48.6218 14.3583C48.242 14.3583 47.9199 14.2001 47.6557 13.8837C47.408 13.5673 47.2842 13.1759 47.2842 12.7096C47.2842 12.1601 47.4493 11.7188 47.7796 11.3857C48.1099 11.0526 48.5392 10.8861 49.0677 10.8861C49.4144 10.8861 49.9181 10.9277 50.5787 11.011C51.2392 11.0943 51.7594 11.1359 52.1392 11.1359C52.453 11.1359 52.9897 11.1026 53.7493 11.036C54.0961 11.0193 54.4925 10.986 54.9383 10.9361C55.1365 10.9028 55.3512 10.8861 55.5824 10.8861C56.0282 10.8861 56.375 11.061 56.6227 11.4107C56.7218 11.5439 56.9035 11.9269 57.1677 12.5598Z" fill="#BF0A30"/>
<path d="M78.3287 10.5364C80.0869 10.5364 81.552 11.1276 82.7241 12.31C82.8748 11.3274 83.3771 10.8361 84.2311 10.8361C85.2692 10.8361 85.7883 11.3357 85.7883 12.3349C85.7883 12.5015 85.7548 12.8345 85.6878 13.3342C85.5874 14.0836 85.5371 14.5915 85.5371 14.8579C85.5371 15.1577 85.5539 15.3825 85.5874 15.5324C85.6209 16.0653 85.6376 16.3651 85.6376 16.4317C85.6376 16.8647 85.445 17.231 85.0599 17.5308C84.6748 17.8139 84.1809 17.9555 83.5781 17.9555C82.6069 17.9555 82.0208 17.4808 81.8199 16.5316C81.619 15.5824 81.3259 14.9329 80.9408 14.5832C80.5724 14.2168 79.978 14.0336 79.1576 14.0336C78.0692 14.0336 77.2236 14.5415 76.6208 15.5574C76.0347 16.5566 75.7417 17.9804 75.7417 19.829C75.7417 21.3944 76.0264 22.6184 76.5957 23.5011C77.1817 24.367 77.9854 24.8 79.0069 24.8C79.6599 24.8 80.1957 24.6168 80.6143 24.2505C81.0497 23.8674 81.2673 23.3928 81.2673 22.8266C81.2673 22.1271 80.9743 21.7774 80.3883 21.7774C80.3548 21.7774 80.3045 21.7774 80.2376 21.7774C80.1706 21.7941 80.112 21.8024 80.0617 21.8024C79.7938 21.8357 79.6431 21.8524 79.6096 21.8524C79.2748 21.8524 78.9901 21.7108 78.7557 21.4277C78.5213 21.1279 78.4041 20.7616 78.4041 20.3286C78.4041 19.829 78.5715 19.4293 78.9064 19.1295C79.2413 18.8298 79.6766 18.6799 80.2124 18.6799C80.5641 18.6799 81.0915 18.7299 81.7948 18.8298C82.5148 18.913 83.059 18.9547 83.4274 18.9547C83.9799 18.9547 84.5911 18.913 85.2609 18.8298C85.7967 18.7632 86.165 18.7299 86.366 18.7299C86.9018 18.7299 87.3288 18.8964 87.6469 19.2295C87.9818 19.5459 88.1493 19.9789 88.1493 20.5284C88.1493 21.0114 88.032 21.4194 87.7976 21.7524C87.5632 22.0689 87.2702 22.2271 86.9186 22.2271L86.3157 22.1771C85.8637 22.1771 85.6376 22.5518 85.6376 23.3012C85.6376 23.6176 85.646 23.9507 85.6627 24.3004L85.713 25.3746C85.7297 25.7409 85.7381 26.0907 85.7381 26.4237C85.7381 27.5395 85.1185 28.0974 83.8795 28.0974C82.7074 28.0974 82.1213 27.6894 82.1213 26.8734V26.7235C80.9659 27.6394 79.6515 28.0974 78.178 28.0974C76.8887 28.0974 75.6747 27.7643 74.5361 27.0982C73.3975 26.4154 72.5687 25.5328 72.0496 24.4503C71.3798 23.0681 71.0449 21.461 71.0449 19.6291C71.0449 16.8314 71.698 14.6165 73.004 12.9844C74.3101 11.3524 76.085 10.5364 78.3287 10.5364Z" fill="white"/>
<path d="M101.292 22.4769H97.9514C96.9969 22.4769 96.5197 23.0431 96.5197 24.1755C96.5197 24.442 96.6621 24.5752 96.9467 24.5752C97.0304 24.5752 97.156 24.5669 97.3234 24.5502C97.4909 24.5169 97.6165 24.5003 97.7002 24.5003C98.3197 24.5003 98.6295 24.9915 98.6295 25.9741C98.6295 26.507 98.4872 26.94 98.2025 27.2731C97.9179 27.6061 97.5411 27.7727 97.0723 27.7727C96.8379 27.7727 96.3188 27.7144 95.5151 27.5978C95.1634 27.5478 94.6695 27.5229 94.0332 27.5229C93.3467 27.5229 92.8109 27.5478 92.4257 27.5978C91.5383 27.7144 91.0108 27.7727 90.8434 27.7727C90.3243 27.7727 89.8973 27.6144 89.5625 27.298C89.2443 26.9816 89.0852 26.5653 89.0852 26.049C89.0852 24.8833 89.529 24.3004 90.4164 24.3004C90.5169 24.3004 90.676 24.3171 90.8936 24.3504C91.1113 24.367 91.2704 24.3754 91.3708 24.3754C91.689 24.3754 91.9485 24.2005 92.1495 23.8508C92.1997 23.7509 92.3169 23.4428 92.5011 22.9265L95.9672 13.1093C96.369 11.9936 96.8211 11.2941 97.3234 11.011C97.6918 10.8278 98.5039 10.7362 99.7598 10.7362C101.166 10.7362 102.054 10.8278 102.422 11.011C102.79 11.1775 103.092 11.6605 103.326 12.4598L106.541 23.1014C106.792 23.9507 107.085 24.3754 107.42 24.3754C107.521 24.3754 107.697 24.3504 107.948 24.3004H108.224C109.162 24.3004 109.631 24.85 109.631 25.9491C109.631 26.4987 109.463 26.94 109.128 27.2731C108.793 27.6061 108.358 27.7727 107.822 27.7727C107.588 27.7727 107.278 27.7477 106.893 27.6977C106.424 27.6144 106.114 27.5728 105.964 27.5728C105.595 27.5395 105.118 27.5229 104.532 27.5229C103.896 27.5229 103.469 27.5395 103.251 27.5728C102.397 27.706 101.861 27.7727 101.643 27.7727C101.191 27.7727 100.815 27.6061 100.513 27.2731C100.229 26.9233 100.086 26.4903 100.086 25.9741C100.086 24.9915 100.404 24.5003 101.041 24.5003C101.124 24.5003 101.25 24.5169 101.417 24.5502C101.585 24.5669 101.71 24.5752 101.794 24.5752C102.112 24.5752 102.271 24.4003 102.271 24.0506C102.271 23.601 102.179 23.2263 101.995 22.9265C101.811 22.6268 101.577 22.4769 101.292 22.4769ZM100.915 18.6549L99.7095 13.534L98.1523 18.8548C98.1356 18.9047 98.1272 18.963 98.1272 19.0296C98.1272 19.2295 98.3365 19.3294 98.7551 19.3294H100.312C100.748 19.3294 100.965 19.2128 100.965 18.9797C100.965 18.9963 100.949 18.8881 100.915 18.6549Z" fill="white"/>
<path d="M122.384 12.4349L124.469 21.5526L126.654 12.8096C126.838 12.0768 127.039 11.5772 127.257 11.3108C127.491 11.0277 127.818 10.8861 128.236 10.8861C128.605 10.8861 129.166 10.9277 129.919 11.011C130.673 11.0943 131.242 11.1359 131.627 11.1359C132.029 11.1359 133.025 11.0693 134.616 10.9361C135.068 10.9028 135.403 10.8861 135.621 10.8861C136.173 10.8861 136.617 11.0526 136.952 11.3857C137.287 11.7021 137.454 12.1434 137.454 12.7096C137.454 13.1759 137.32 13.5673 137.052 13.8837C136.801 14.2001 136.483 14.3583 136.098 14.3583C135.947 14.3583 135.738 14.3334 135.47 14.2834C135.202 14.2168 135.009 14.1835 134.892 14.1835C134.44 14.1835 134.214 14.7414 134.214 15.8571V22.7766C134.214 23.9091 134.432 24.4753 134.867 24.4753C135.001 24.4753 135.202 24.4503 135.47 24.4003C135.738 24.3337 135.939 24.3004 136.073 24.3004C136.458 24.3004 136.784 24.4586 137.052 24.775C137.32 25.0915 137.454 25.4828 137.454 25.9491C137.454 26.5153 137.287 26.965 136.952 27.298C136.617 27.6144 136.173 27.7727 135.621 27.7727C135.302 27.7727 134.767 27.7227 134.013 27.6228C133.511 27.5562 133.008 27.5229 132.506 27.5229C132.188 27.5229 131.719 27.5645 131.1 27.6478C130.48 27.731 130.011 27.7727 129.693 27.7727C129.191 27.7727 128.781 27.6061 128.462 27.2731C128.161 26.94 128.01 26.4987 128.01 25.9491C128.01 24.9166 128.354 24.4003 129.04 24.4003C129.141 24.4003 129.216 24.4087 129.266 24.4253C129.316 24.4253 129.375 24.4253 129.442 24.4253C129.509 24.442 129.551 24.4503 129.568 24.4503C129.835 24.4503 129.995 24.2671 130.045 23.9007C130.061 23.7342 130.07 23.4511 130.07 23.0514V13.6339L126.579 25.9241C126.277 26.9899 125.783 27.5229 125.097 27.5229H123.489C122.82 27.5229 122.359 27.0482 122.108 26.099L118.767 13.6339V23.0514C118.767 23.8341 118.843 24.2754 118.993 24.3754C119.044 24.4253 119.136 24.4503 119.27 24.4503C119.303 24.4503 119.353 24.442 119.42 24.4253C119.471 24.4253 119.521 24.4253 119.571 24.4253C119.621 24.4087 119.697 24.4003 119.797 24.4003C120.467 24.4003 120.802 24.9083 120.802 25.9241C120.802 26.4903 120.651 26.94 120.35 27.2731C120.048 27.6061 119.647 27.7727 119.144 27.7727C118.91 27.7727 118.608 27.7477 118.24 27.6977C117.771 27.6311 117.478 27.5895 117.361 27.5728C117.009 27.5395 116.607 27.5229 116.155 27.5229C115.586 27.5229 115.109 27.5478 114.724 27.5978C113.686 27.731 113.166 27.7976 113.166 27.7976C112.647 27.7976 112.22 27.6228 111.886 27.2731C111.551 26.9233 111.383 26.482 111.383 25.9491C111.383 25.4662 111.509 25.0748 111.76 24.775C112.028 24.4586 112.363 24.3004 112.765 24.3004C112.899 24.3004 113.091 24.3337 113.342 24.4003C113.61 24.4503 113.811 24.4753 113.945 24.4753C114.28 24.4753 114.489 24.2588 114.573 23.8258C114.606 23.6593 114.623 23.3095 114.623 22.7766V15.8571C114.623 15.3242 114.606 14.9828 114.573 14.833C114.489 14.4 114.28 14.1835 113.945 14.1835C113.811 14.1835 113.61 14.2168 113.342 14.2834C113.091 14.3334 112.89 14.3583 112.739 14.3583C112.354 14.3583 112.028 14.2001 111.76 13.8837C111.509 13.5673 111.383 13.1759 111.383 12.7096C111.383 11.4939 112.003 10.8861 113.242 10.8861C113.644 10.8861 114.313 10.9277 115.251 11.011C116.189 11.0943 116.892 11.1359 117.361 11.1359C118.114 11.1359 118.901 11.0859 119.722 10.986C120.274 10.9194 120.71 10.8861 121.028 10.8861C121.447 10.8861 121.74 10.986 121.907 11.1859C122.074 11.3857 122.234 11.802 122.384 12.4349Z" fill="white"/>
<path d="M149.013 14.0336C148.461 14.0336 148.092 14.0836 147.908 14.1835C147.657 14.3334 147.531 14.6664 147.531 15.1827V16.5816C147.531 16.8647 147.565 17.0812 147.632 17.231C147.716 17.3643 147.916 17.4309 148.235 17.4309C148.971 17.4309 149.34 17.1644 149.34 16.6315V16.3068C149.323 16.2069 149.315 16.082 149.315 15.9321C149.315 15.2326 149.725 14.8829 150.545 14.8829C151.399 14.8829 151.826 15.3076 151.826 16.1569C151.826 16.3901 151.809 16.6482 151.776 16.9313C151.709 17.4808 151.676 17.9888 151.676 18.4551C151.676 18.8881 151.709 19.4376 151.776 20.1038C151.843 20.7699 151.876 21.2362 151.876 21.5026C151.876 22.4852 151.433 22.9765 150.545 22.9765C149.708 22.9765 149.289 22.5518 149.289 21.7025C149.289 21.6192 149.289 21.5776 149.289 21.5776C149.289 21.4943 149.306 21.2945 149.34 20.9781C149.34 20.5784 148.98 20.3785 148.26 20.3785C147.774 20.3785 147.531 20.645 147.531 21.1779V23.0514C147.531 23.6343 147.632 24.034 147.833 24.2505C148.05 24.4503 148.444 24.5502 149.013 24.5502H150.47C151.542 24.5502 152.287 24.4586 152.705 24.2754C153.141 24.0922 153.358 23.7675 153.358 23.3012C153.358 23.0681 153.333 22.7933 153.283 22.4769C153.233 22.1438 153.208 21.869 153.208 21.6525C153.208 21.0364 153.383 20.5534 153.735 20.2037C154.087 19.854 154.564 19.6791 155.167 19.6791C156.389 19.6791 157 20.3452 157 21.6775C157 22.1105 156.975 22.5685 156.925 23.0514C156.841 23.8508 156.799 24.3504 156.799 24.5502C156.799 24.7334 156.841 25.0915 156.925 25.6244C156.975 25.9408 157 26.2655 157 26.5986C157 27.3813 156.506 27.7727 155.518 27.7727C155.2 27.7727 154.673 27.7477 153.936 27.6977C152.714 27.6144 150.763 27.5562 148.084 27.5229C148.084 27.5229 147.339 27.5229 145.849 27.5229C145.011 27.5229 144.316 27.5478 143.764 27.5978L141.855 27.7727C141.838 27.7727 141.805 27.781 141.755 27.7976C141.704 27.7976 141.662 27.7976 141.629 27.7976C141.11 27.7976 140.683 27.6228 140.348 27.2731C140.03 26.9233 139.871 26.482 139.871 25.9491C139.871 25.4828 139.996 25.0915 140.248 24.775C140.515 24.4586 140.85 24.3004 141.252 24.3004C141.386 24.3004 141.587 24.3337 141.855 24.4003C142.123 24.4503 142.315 24.4753 142.433 24.4753C142.885 24.4753 143.111 23.9091 143.111 22.7766V15.8571C143.111 14.7414 142.885 14.1835 142.433 14.1835C142.332 14.1835 142.131 14.2168 141.83 14.2834C141.612 14.3334 141.42 14.3583 141.252 14.3583C140.867 14.3583 140.541 14.2001 140.273 13.8837C140.005 13.5673 139.871 13.1759 139.871 12.7096C139.871 11.4939 140.482 10.8861 141.704 10.8861C141.989 10.8861 142.567 10.9194 143.437 10.986C144.743 11.0859 146.008 11.1359 147.23 11.1359C147.347 11.1359 148.352 11.1109 150.244 11.061C151.617 11.0277 152.521 10.9943 152.956 10.961C153.676 10.9111 154.43 10.8861 155.217 10.8861C156.155 10.8861 156.623 11.2941 156.623 12.1101C156.623 12.3766 156.59 12.7679 156.523 13.2842C156.473 13.8004 156.448 14.1918 156.448 14.4583C156.448 14.7247 156.481 15.1077 156.548 15.6073C156.632 16.0903 156.674 16.4567 156.674 16.7065C156.674 17.1894 156.49 17.5974 156.121 17.9305C155.77 18.2636 155.326 18.4301 154.79 18.4301C153.534 18.4301 152.906 17.7889 152.906 16.5066C152.906 16.2901 152.94 15.9904 153.007 15.6073C153.09 15.2243 153.132 14.9412 153.132 14.758C153.132 14.3916 152.94 14.1668 152.555 14.0836C152.421 14.0502 152.069 14.0336 151.5 14.0336H149.013Z" fill="white"/>
<path d="M157 34.2439H28.9443V65.8537L36.877 59.3697H129.802L136.602 52.8856H86.3864L88.3416 50.0488L138.868 50.4541L146.801 43.7268H92.6793L94.1985 41.5385H149.068L157 34.2439Z" fill="#BF0A30"/>
<path d="M42.4392 53.1057C42.8274 53.1057 43.0701 52.8471 43.1671 52.3301C43.2059 52.1312 43.2254 51.7136 43.2254 51.0772V42.8142C43.2254 42.1778 43.2059 41.7701 43.1671 41.5911C43.0701 41.0741 42.8274 40.8155 42.4392 40.8155C42.2839 40.8155 42.051 40.8553 41.7404 40.9349C41.4492 40.9945 41.2163 41.0244 41.0416 41.0244C40.5951 41.0244 40.2166 40.8354 39.906 40.4576C39.6148 40.0797 39.4692 39.6124 39.4692 39.0555C39.4692 38.3794 39.6536 37.8524 40.0225 37.4745C40.4107 37.0768 40.9251 36.8779 41.5657 36.8779C41.8568 36.8779 42.5362 36.9376 43.6039 37.0569C44.3221 37.1365 45.0209 37.1762 45.7003 37.1762C46.2438 37.1762 47.0203 37.1265 48.0297 37.0271C49.0585 36.9276 49.7379 36.8779 50.0679 36.8779C51.4849 36.8779 52.1934 37.6038 52.1934 39.0555C52.1934 39.6124 52.0381 40.0797 51.7276 40.4576C51.4364 40.8354 51.0676 41.0244 50.6211 41.0244C50.4658 41.0244 50.2329 40.9945 49.9223 40.9349C49.6117 40.8553 49.3788 40.8155 49.2235 40.8155C48.6994 40.8155 48.4373 41.4818 48.4373 42.8142V51.0772C48.4373 52.4295 48.6994 53.1057 49.2235 53.1057C49.3788 53.1057 49.6117 53.0758 49.9223 53.0162C50.2329 52.9366 50.4658 52.8968 50.6211 52.8968C51.0676 52.8968 51.4364 53.0858 51.7276 53.4636C52.0381 53.8415 52.1934 54.3088 52.1934 54.8657C52.1934 55.502 51.9993 56.029 51.6111 56.4467C51.2423 56.8643 50.7667 57.0731 50.1844 57.0731C50.0679 57.0731 49.9805 57.0632 49.9223 57.0433L48.0879 56.8046C47.622 56.745 47.1076 56.7151 46.5447 56.7151C45.6712 56.7151 44.7589 56.7649 43.8077 56.8643C42.6624 56.9836 41.9151 57.0433 41.5657 57.0433C40.9445 57.0433 40.4398 56.8444 40.0516 56.4467C39.6634 56.0489 39.4692 55.5219 39.4692 54.8657C39.4692 54.2889 39.6148 53.8216 39.906 53.4636C40.2166 53.0858 40.6048 52.8968 41.0707 52.8968C41.226 52.8968 41.4492 52.9366 41.7404 53.0162C42.051 53.0758 42.2839 53.1057 42.4392 53.1057Z" fill="white"/>
<path d="M66.5964 38.8766L71.721 51.644V42.8142C71.721 41.4818 71.4687 40.8155 70.964 40.8155C70.8281 40.8155 70.6243 40.8553 70.3525 40.9349C70.1002 40.9945 69.9061 41.0244 69.7702 41.0244C69.3625 41.0244 69.0131 40.8354 68.722 40.4576C68.4502 40.0797 68.3143 39.6124 68.3143 39.0555C68.3143 38.3993 68.4987 37.8723 68.8676 37.4745C69.2364 37.0768 69.7217 36.8779 70.3234 36.8779C70.634 36.8779 71.1678 36.9276 71.9249 37.0271C72.6819 37.1265 73.3516 37.1762 73.9339 37.1762C74.4581 37.1762 75.0695 37.1365 75.7683 37.0569C76.8165 36.9376 77.4668 36.8779 77.7192 36.8779C78.3403 36.8779 78.845 37.0768 79.2333 37.4745C79.6215 37.8723 79.8156 38.3993 79.8156 39.0555C79.8156 39.6124 79.6603 40.0797 79.3497 40.4576C79.0391 40.8354 78.6606 41.0244 78.2142 41.0244C78.0395 41.0244 77.8065 40.9945 77.5154 40.9349C77.2242 40.8553 77.0009 40.8155 76.8457 40.8155C76.4574 40.8155 76.2051 41.0641 76.0886 41.5613C76.0498 41.7602 76.0304 42.1778 76.0304 42.8142V54.9551C76.0304 56.2677 75.5063 56.9239 74.458 56.9239C74.2639 56.9239 73.9631 56.914 73.5554 56.8941C73.1672 56.8543 72.876 56.8345 72.6819 56.8345C72.6625 56.8345 72.1869 56.8543 71.2552 56.8941C71.2552 56.8941 71.0416 56.8941 70.6146 56.8941C70.0517 56.8941 69.6343 56.7549 69.3625 56.4765C69.2073 56.3174 68.984 55.8898 68.6929 55.1938L63.0732 42.0684V51.0772C63.0732 52.4295 63.3256 53.1057 63.8303 53.1057C63.9662 53.1057 64.17 53.0758 64.4417 53.0162C64.7329 52.9366 64.9464 52.8968 65.0823 52.8968C65.49 52.8968 65.8297 53.0858 66.1014 53.4636C66.3926 53.8415 66.5382 54.3088 66.5382 54.8657C66.5382 56.3174 65.8588 57.0433 64.5 57.0433C64.1118 57.0433 63.4712 56.9836 62.5782 56.8643C61.9765 56.7847 61.3747 56.745 60.773 56.745C60.2683 56.745 59.5889 56.7947 58.7348 56.8941C57.8807 56.9936 57.3372 57.0433 57.1042 57.0433C55.6872 57.0433 54.9787 56.3174 54.9787 54.8657C54.9787 54.3088 55.1243 53.8415 55.4154 53.4636C55.726 53.0858 56.1045 52.8968 56.551 52.8968C56.7257 52.8968 56.9586 52.9366 57.2498 53.0162C57.5604 53.0758 57.7933 53.1057 57.9486 53.1057C58.4727 53.1057 58.7348 52.4295 58.7348 51.0772V42.8142C58.7348 41.4818 58.4727 40.8155 57.9486 40.8155C57.7933 40.8155 57.5604 40.8553 57.2498 40.9349C56.9586 40.9945 56.7257 41.0244 56.551 41.0244C56.1045 41.0244 55.726 40.8354 55.4154 40.4576C55.1243 40.0797 54.9787 39.6124 54.9787 39.0555C54.9787 38.3993 55.1728 37.8723 55.561 37.4745C55.9492 37.0768 56.4539 36.8779 57.0751 36.8779C57.4827 36.8779 58.0748 36.9276 58.8513 37.0271C59.6277 37.1265 60.2392 37.1762 60.6856 37.1762C61.0545 37.1762 61.6853 37.1365 62.5782 37.0569C62.9859 37.037 63.4518 36.9973 63.9759 36.9376C64.2088 36.8978 64.4612 36.8779 64.7329 36.8779C65.257 36.8779 65.6647 37.0867 65.9558 37.5044C66.0723 37.6635 66.2858 38.1209 66.5964 38.8766Z" fill="white"/>
<path fill-rule="evenodd" clip-rule="evenodd" d="M10.3131 72.0001C8.87887 68.162 8.19588 63.0149 7.82024 57.481L10.2107 55.9637L12.7719 57.6C12.3963 63.0744 11.7133 68.1918 10.3131 72.0001ZM11.3718 51.0843L10.3473 48.3174L9.32282 51.0843L9.11792 51.6496H8.43493H5.12243L7.82024 53.3455L8.36663 53.7025L8.16173 54.2678L7.13725 57.0347L9.83506 55.3389L10.3815 54.9819L10.9278 55.3389L13.6257 57.0347L12.6012 54.2678L12.3963 53.7025L12.9427 53.3455L15.6405 51.6496H12.328H11.645L11.3718 51.0843ZM7.5129 51.0546C7.308 44.6281 7.30799 38.1422 6.93235 33.0545V32.9653H13.694V33.0545C13.2842 38.1422 13.3183 44.5984 13.1134 51.0546H12.0548L10.8595 47.8116L10.2449 46.1157L9.63016 47.8116L8.43493 51.0546H7.5129ZM0 16.2148H20.6605V18.238H0V16.2148ZM5.12243 30.0198H15.6405V32.5488H5.12243V30.0198ZM6.86406 29.6033C6.76161 24.4859 5.42977 22.9686 2.15142 19.1008L10.3131 19.0115L18.4749 19.1008C15.1965 22.9686 13.8647 24.4859 13.7623 29.6033H6.86406Z" fill="white"/>
<path fill-rule="evenodd" clip-rule="evenodd" d="M15.6063 15.5604C17.3821 13.329 18.0992 11.3654 17.8602 9.52074C17.6211 7.67611 17.3479 6.90256 17.8943 5.47445C18.4407 4.04635 20.7287 3.06453 20.7287 3.06453C20.7287 3.06453 19.8067 4.55214 19.6359 5.77198C19.4652 6.99181 19.9433 9.37198 19.9433 9.37198L21.924 7.4381C21.924 7.4381 22.0264 10.8001 21.1044 12.5257C20.3872 13.8646 19.0895 15.0844 18.5432 15.5604H15.6063ZM1.98063 7.46785C3.17587 5.29595 2.69778 3.80833 2.69778 3.80833C2.69778 3.80833 4.13205 4.81991 4.1662 7.17033C4.20035 9.52075 3.58566 10.7108 4.09791 12.1984C4.5077 13.4183 6.07858 14.9654 6.65912 15.5307H2.15138C-0.170787 12.496 0.204858 10.6216 1.98063 7.46785ZM7.51286 15.5604C5.32729 12.6447 4.54185 10.7108 5.42974 8.15215C6.31762 5.53396 7.41041 4.52239 7.64946 3.36205C7.8885 2.20172 7.88851 1.72569 7.88851 1.72569C7.88851 1.72569 8.29829 1.81494 8.77639 3.18354C9.25448 4.55214 9.25449 5.26619 9.25449 5.26619C9.25449 5.26619 11.5084 2.35048 13.4207 1.1604C15.3331 -0.0296865 18.6797 6.74774e-05 18.6797 6.74774e-05C18.6797 6.74774e-05 15.777 1.42817 15.3673 3.21329C14.9575 4.99842 16.4259 7.73562 16.1868 10.6811C16.0161 13.0017 15.1282 14.8464 14.7526 15.5307H7.51286V15.5604Z" fill="#BF0A30"/>
</svg>
