<svg width="182" height="52" viewBox="0 0 182 52" fill="none" xmlns="http://www.w3.org/2000/svg">
<path d="M73.201 15.8965C70.9328 15.8965 69.1795 15.2042 67.9409 13.8198C66.7024 12.4354 66.0831 10.4716 66.0831 7.92841C66.0831 5.47555 66.6949 3.54937 67.9186 2.14988C69.1571 0.735345 70.8582 0.0280762 73.0219 0.0280762C75.2901 0.0280762 77.0584 0.712772 78.3267 2.08216C79.5951 3.45156 80.2293 5.36268 80.2293 7.81555C80.2293 10.3587 79.61 12.3451 78.3715 13.7747C77.1479 15.1892 75.4244 15.8965 73.201 15.8965ZM73.1786 3.18821C71.2387 3.18821 70.2688 4.78333 70.2688 7.97356C70.2688 9.49343 70.4553 10.6221 70.8284 11.3594C71.291 12.2774 72.0669 12.7363 73.1562 12.7363C75.0812 12.7363 76.0437 11.1864 76.0437 8.08642C76.0437 6.37092 75.8124 5.12944 75.3498 4.36198C74.9021 3.57947 74.1784 3.18821 73.1786 3.18821Z" fill="#BF0A30"/>
<path d="M91.5862 1.85644L95.5256 11.5174V4.836C95.5256 3.82776 95.3316 3.32365 94.9436 3.32365C94.8392 3.32365 94.6825 3.35374 94.4736 3.41394C94.2796 3.45908 94.1304 3.48165 94.0259 3.48165C93.7126 3.48165 93.444 3.33869 93.2201 3.05278C93.0112 2.76686 92.9068 2.41323 92.9068 1.99187C92.9068 1.49528 93.0485 1.0965 93.3321 0.795538C93.6156 0.494573 93.9886 0.344091 94.4512 0.344091C94.69 0.344091 95.1003 0.381712 95.6823 0.456953C96.2643 0.532194 96.7791 0.569815 97.2267 0.569815C97.6296 0.569815 98.0997 0.539718 98.6369 0.479525C99.4427 0.389236 99.9426 0.344091 100.137 0.344091C100.614 0.344091 101.002 0.494573 101.3 0.795538C101.599 1.0965 101.748 1.49528 101.748 1.99187C101.748 2.41323 101.629 2.76686 101.39 3.05278C101.151 3.33869 100.86 3.48165 100.517 3.48165C100.383 3.48165 100.204 3.45908 99.9799 3.41394C99.756 3.35374 99.5844 3.32365 99.465 3.32365C99.1666 3.32365 98.9726 3.51175 98.8831 3.88796C98.8532 4.03844 98.8383 4.35445 98.8383 4.836V14.023C98.8383 15.0161 98.4354 15.5127 97.6296 15.5127C97.4804 15.5127 97.2491 15.5052 96.9357 15.4902C96.6373 15.4601 96.4135 15.445 96.2643 15.445C96.2493 15.445 95.8837 15.4601 95.1675 15.4902C95.1675 15.4902 95.0033 15.4902 94.675 15.4902C94.2423 15.4902 93.9215 15.3848 93.7126 15.1741C93.5932 15.0538 93.4216 14.7302 93.1978 14.2035L88.8778 4.27169V11.0885C88.8778 12.1118 89.0718 12.6235 89.4598 12.6235C89.5642 12.6235 89.7209 12.6009 89.9298 12.5558C90.1536 12.4956 90.3178 12.4655 90.4222 12.4655C90.7356 12.4655 90.9967 12.6084 91.2056 12.8943C91.4295 13.1803 91.5414 13.5339 91.5414 13.9552C91.5414 15.0538 91.0191 15.603 89.9746 15.603C89.6761 15.603 89.1837 15.5579 88.4973 15.4676C88.0347 15.4074 87.5721 15.3773 87.1095 15.3773C86.7215 15.3773 86.1993 15.4149 85.5427 15.4902C84.8861 15.5654 84.4683 15.603 84.2892 15.603C83.1999 15.603 82.6553 15.0538 82.6553 13.9552C82.6553 13.5339 82.7672 13.1803 82.991 12.8943C83.2298 12.6084 83.5208 12.4655 83.864 12.4655C83.9983 12.4655 84.1773 12.4956 84.4012 12.5558C84.6399 12.6009 84.819 12.6235 84.9384 12.6235C85.3412 12.6235 85.5427 12.1118 85.5427 11.0885V4.836C85.5427 3.82776 85.3412 3.32365 84.9384 3.32365C84.819 3.32365 84.6399 3.35374 84.4012 3.41394C84.1773 3.45908 83.9983 3.48165 83.864 3.48165C83.5208 3.48165 83.2298 3.33869 82.991 3.05278C82.7672 2.76686 82.6553 2.41323 82.6553 1.99187C82.6553 1.49528 82.8045 1.0965 83.1029 0.795538C83.4014 0.494573 83.7893 0.344091 84.2669 0.344091C84.5802 0.344091 85.0353 0.381712 85.6322 0.456953C86.2291 0.532194 86.6992 0.569815 87.0424 0.569815C87.3259 0.569815 87.8109 0.539718 88.4973 0.479525C88.8106 0.464477 89.1688 0.43438 89.5717 0.389235C89.7507 0.359139 89.9447 0.344091 90.1536 0.344091C90.5565 0.344091 90.8699 0.502097 91.0937 0.81811C91.1833 0.938497 91.3474 1.28461 91.5862 1.85644Z" fill="#BF0A30"/>
<path d="M110.707 0.0280762C112.296 0.0280762 113.62 0.56229 114.679 1.63072C114.815 0.742869 115.269 0.298945 116.041 0.298945C116.979 0.298945 117.448 0.750393 117.448 1.65329C117.448 1.80377 117.418 2.10474 117.357 2.55618C117.267 3.23336 117.221 3.69233 117.221 3.9331C117.221 4.20397 117.236 4.40712 117.267 4.54255C117.297 5.0241 117.312 5.29497 117.312 5.35516C117.312 5.74642 117.138 6.07748 116.79 6.34835C116.442 6.60417 115.996 6.73208 115.451 6.73208C114.573 6.73208 114.044 6.3032 113.862 5.44545C113.681 4.5877 113.416 4.00082 113.068 3.6848C112.735 3.35374 112.198 3.18821 111.456 3.18821C110.473 3.18821 109.709 3.64718 109.164 4.56513C108.635 5.46802 108.37 6.75465 108.37 8.425C108.37 9.83954 108.627 10.9456 109.141 11.7431C109.671 12.5257 110.397 12.9169 111.32 12.9169C111.91 12.9169 112.395 12.7514 112.773 12.4203C113.166 12.0742 113.363 11.6453 113.363 11.1337C113.363 10.5017 113.098 10.1857 112.569 10.1857C112.538 10.1857 112.493 10.1857 112.432 10.1857C112.372 10.2007 112.319 10.2082 112.273 10.2082C112.031 10.2383 111.895 10.2534 111.865 10.2534C111.562 10.2534 111.305 10.1255 111.093 9.86964C110.881 9.59877 110.776 9.26771 110.776 8.87645C110.776 8.42501 110.927 8.06385 111.229 7.79298C111.532 7.52211 111.925 7.38667 112.41 7.38667C112.727 7.38667 113.204 7.43182 113.839 7.52211C114.49 7.59735 114.982 7.63497 115.315 7.63497C115.814 7.63497 116.366 7.59735 116.971 7.52211C117.456 7.46192 117.788 7.43182 117.97 7.43182C118.454 7.43182 118.84 7.5823 119.128 7.88327C119.43 8.16918 119.581 8.56044 119.581 9.05703C119.581 9.49343 119.476 9.86211 119.264 10.1631C119.052 10.449 118.787 10.592 118.469 10.592L117.925 10.5468C117.516 10.5468 117.312 10.8854 117.312 11.5626C117.312 11.8485 117.319 12.1494 117.335 12.4655L117.38 13.4361C117.395 13.7671 117.403 14.0832 117.403 14.3841C117.403 15.3923 116.843 15.8965 115.723 15.8965C114.664 15.8965 114.135 15.5278 114.135 14.7904V14.655C113.091 15.4826 111.903 15.8965 110.571 15.8965C109.406 15.8965 108.309 15.5955 107.28 14.9936C106.252 14.3766 105.503 13.579 105.034 12.6009C104.428 11.3519 104.126 9.89974 104.126 8.24443C104.126 5.71632 104.716 3.7149 105.896 2.24017C107.076 0.765441 108.68 0.0280762 110.707 0.0280762Z" fill="white"/>
<path d="M131.457 10.8177H128.439C127.576 10.8177 127.145 11.3293 127.145 12.3526C127.145 12.5934 127.274 12.7138 127.531 12.7138C127.607 12.7138 127.72 12.7062 127.871 12.6912C128.023 12.6611 128.136 12.646 128.212 12.646C128.772 12.646 129.052 13.09 129.052 13.9778C129.052 14.4594 128.923 14.8506 128.666 15.1516C128.409 15.4525 128.068 15.603 127.644 15.603C127.433 15.603 126.964 15.5504 126.237 15.445C125.92 15.3999 125.473 15.3773 124.898 15.3773C124.278 15.3773 123.794 15.3999 123.446 15.445C122.644 15.5504 122.167 15.603 122.016 15.603C121.547 15.603 121.161 15.4601 120.858 15.1741C120.571 14.8882 120.427 14.512 120.427 14.0455C120.427 12.9922 120.828 12.4655 121.63 12.4655C121.721 12.4655 121.865 12.4805 122.061 12.5106C122.258 12.5257 122.402 12.5332 122.493 12.5332C122.78 12.5332 123.015 12.3752 123.196 12.0592C123.241 11.9689 123.347 11.6905 123.514 11.224L126.646 2.35303C127.009 1.3448 127.417 0.712773 127.871 0.456953C128.204 0.291421 128.938 0.208656 130.073 0.208656C131.344 0.208656 132.146 0.291421 132.479 0.456953C132.811 0.607435 133.084 1.04383 133.296 1.76615L136.201 11.382C136.428 12.1494 136.692 12.5332 136.995 12.5332C137.086 12.5332 137.245 12.5106 137.472 12.4655H137.721C138.569 12.4655 138.992 12.9621 138.992 13.9552C138.992 14.4518 138.841 14.8506 138.538 15.1516C138.236 15.4525 137.842 15.603 137.358 15.603C137.146 15.603 136.866 15.5805 136.518 15.5353C136.095 15.4601 135.815 15.4224 135.679 15.4224C135.346 15.3923 134.915 15.3773 134.385 15.3773C133.81 15.3773 133.424 15.3923 133.228 15.4224C132.456 15.5428 131.972 15.603 131.775 15.603C131.367 15.603 131.026 15.4525 130.754 15.1516C130.497 14.8356 130.368 14.4443 130.368 13.9778C130.368 13.09 130.655 12.646 131.23 12.646C131.306 12.646 131.419 12.6611 131.571 12.6912C131.722 12.7062 131.836 12.7138 131.911 12.7138C132.199 12.7138 132.342 12.5558 132.342 12.2397C132.342 11.8334 132.259 11.4949 132.093 11.224C131.926 10.9531 131.715 10.8177 131.457 10.8177ZM131.117 7.3641L130.027 2.73676L128.62 7.54468C128.605 7.58983 128.598 7.6425 128.598 7.70269C128.598 7.88327 128.787 7.97356 129.165 7.97356H130.572C130.966 7.97356 131.162 7.86822 131.162 7.65754C131.162 7.67259 131.147 7.57478 131.117 7.3641Z" fill="white"/>
<path d="M150.517 1.74358L152.4 9.9825L154.375 2.08216C154.541 1.42004 154.723 0.968593 154.92 0.727821C155.131 0.472001 155.426 0.344091 155.805 0.344091C156.138 0.344091 156.644 0.381712 157.325 0.456953C158.006 0.532194 158.521 0.569815 158.869 0.569815C159.232 0.569815 160.132 0.509621 161.569 0.389235C161.978 0.359139 162.281 0.344091 162.477 0.344091C162.977 0.344091 163.378 0.494573 163.68 0.795538C163.983 1.08146 164.134 1.48023 164.134 1.99187C164.134 2.41323 164.013 2.76686 163.771 3.05278C163.544 3.33869 163.256 3.48165 162.908 3.48165C162.772 3.48165 162.583 3.45908 162.341 3.41394C162.099 3.35374 161.925 3.32365 161.819 3.32365C161.411 3.32365 161.206 3.82776 161.206 4.836V11.0885C161.206 12.1118 161.403 12.6235 161.796 12.6235C161.917 12.6235 162.099 12.6009 162.341 12.5558C162.583 12.4956 162.765 12.4655 162.886 12.4655C163.234 12.4655 163.529 12.6084 163.771 12.8943C164.013 13.1803 164.134 13.5339 164.134 13.9552C164.134 14.4669 163.983 14.8732 163.68 15.1741C163.378 15.4601 162.977 15.603 162.477 15.603C162.19 15.603 161.706 15.5579 161.025 15.4676C160.571 15.4074 160.117 15.3773 159.663 15.3773C159.376 15.3773 158.952 15.4149 158.392 15.4902C157.832 15.5654 157.409 15.603 157.121 15.603C156.667 15.603 156.296 15.4525 156.009 15.1516C155.737 14.8506 155.6 14.4518 155.6 13.9552C155.6 13.0222 155.911 12.5558 156.531 12.5558C156.622 12.5558 156.69 12.5633 156.735 12.5783C156.781 12.5783 156.834 12.5783 156.894 12.5783C156.955 12.5934 156.992 12.6009 157.008 12.6009C157.25 12.6009 157.393 12.4354 157.439 12.1043C157.454 11.9538 157.462 11.698 157.462 11.3368V2.82705L154.307 13.9327C154.034 14.8958 153.588 15.3773 152.968 15.3773H151.515C150.91 15.3773 150.494 14.9484 150.267 14.0907L147.248 2.82705V11.3368C147.248 12.0441 147.317 12.4429 147.453 12.5332C147.498 12.5783 147.581 12.6009 147.702 12.6009C147.733 12.6009 147.778 12.5934 147.839 12.5783C147.884 12.5783 147.929 12.5783 147.975 12.5783C148.02 12.5633 148.088 12.5558 148.179 12.5558C148.784 12.5558 149.087 13.0147 149.087 13.9327C149.087 14.4443 148.951 14.8506 148.678 15.1516C148.406 15.4525 148.043 15.603 147.589 15.603C147.377 15.603 147.105 15.5805 146.772 15.5353C146.348 15.4751 146.083 15.4375 145.978 15.4224C145.66 15.3923 145.297 15.3773 144.888 15.3773C144.374 15.3773 143.942 15.3999 143.594 15.445C142.656 15.5654 142.187 15.6256 142.187 15.6256C141.718 15.6256 141.332 15.4676 141.03 15.1516C140.727 14.8356 140.576 14.4368 140.576 13.9552C140.576 13.5188 140.689 13.1652 140.916 12.8943C141.158 12.6084 141.461 12.4655 141.824 12.4655C141.945 12.4655 142.119 12.4956 142.346 12.5558C142.588 12.6009 142.77 12.6235 142.891 12.6235C143.194 12.6235 143.383 12.4278 143.458 12.0366C143.489 11.8861 143.504 11.5701 143.504 11.0885V4.836C143.504 4.35445 143.489 4.04596 143.458 3.91053C143.383 3.51927 143.194 3.32365 142.891 3.32365C142.77 3.32365 142.588 3.35374 142.346 3.41394C142.119 3.45908 141.938 3.48165 141.802 3.48165C141.454 3.48165 141.158 3.33869 140.916 3.05278C140.689 2.76686 140.576 2.41323 140.576 1.99187C140.576 0.893352 141.136 0.344091 142.255 0.344091C142.619 0.344091 143.224 0.381712 144.071 0.456953C144.918 0.532194 145.554 0.569815 145.978 0.569815C146.658 0.569815 147.37 0.524669 148.111 0.434379C148.61 0.374187 149.004 0.344091 149.291 0.344091C149.669 0.344091 149.934 0.43438 150.085 0.614959C150.237 0.795538 150.38 1.17174 150.517 1.74358Z" fill="white"/>
<path d="M174.579 3.18821C174.08 3.18821 173.747 3.23336 173.58 3.32365C173.353 3.45908 173.24 3.76005 173.24 4.22654V5.49059C173.24 5.74642 173.27 5.94204 173.331 6.07748C173.406 6.19786 173.588 6.25806 173.875 6.25806C174.541 6.25806 174.874 6.01728 174.874 5.53574V5.2423C174.859 5.15201 174.851 5.03915 174.851 4.90371C174.851 4.27169 175.222 3.95567 175.963 3.95567C176.735 3.95567 177.121 4.3394 177.121 5.10686C177.121 5.31754 177.106 5.55079 177.076 5.80661C177.015 6.3032 176.985 6.76217 176.985 7.18352C176.985 7.57478 177.015 8.07137 177.076 8.6733C177.136 9.27523 177.166 9.69658 177.166 9.93736C177.166 10.8252 176.765 11.2691 175.963 11.2691C175.207 11.2691 174.829 10.8854 174.829 10.1179C174.829 10.0427 174.829 10.0051 174.829 10.0051C174.829 9.92983 174.844 9.74925 174.874 9.46334C174.874 9.10218 174.549 8.9216 173.898 8.9216C173.459 8.9216 173.24 9.16237 173.24 9.64392V11.3368C173.24 11.8635 173.331 12.2247 173.512 12.4203C173.709 12.6009 174.065 12.6912 174.579 12.6912H175.895C176.864 12.6912 177.537 12.6084 177.915 12.4429C178.309 12.2774 178.505 11.9839 178.505 11.5626C178.505 11.3519 178.483 11.1036 178.437 10.8177C178.392 10.5167 178.369 10.2684 178.369 10.0728C178.369 9.516 178.528 9.07961 178.846 8.76359C179.163 8.44758 179.595 8.28957 180.139 8.28957C181.244 8.28957 181.796 8.8915 181.796 10.0954C181.796 10.4866 181.773 10.9004 181.728 11.3368C181.652 12.0592 181.615 12.5106 181.615 12.6912C181.615 12.8567 181.652 13.1803 181.728 13.6618C181.773 13.9477 181.796 14.2412 181.796 14.5421C181.796 15.2494 181.35 15.603 180.457 15.603C180.17 15.603 179.693 15.5805 179.027 15.5353C177.923 15.4601 176.16 15.4074 173.739 15.3773C173.739 15.3773 173.066 15.3773 171.719 15.3773C170.963 15.3773 170.335 15.3999 169.836 15.445L168.111 15.603C168.096 15.603 168.065 15.6105 168.02 15.6256C167.975 15.6256 167.937 15.6256 167.906 15.6256C167.437 15.6256 167.052 15.4676 166.749 15.1516C166.462 14.8356 166.318 14.4368 166.318 13.9552C166.318 13.5339 166.431 13.1803 166.658 12.8943C166.9 12.6084 167.203 12.4655 167.566 12.4655C167.687 12.4655 167.869 12.4956 168.111 12.5558C168.353 12.6009 168.527 12.6235 168.633 12.6235C169.041 12.6235 169.246 12.1118 169.246 11.0885V4.836C169.246 3.82776 169.041 3.32365 168.633 3.32365C168.542 3.32365 168.36 3.35374 168.088 3.41394C167.891 3.45908 167.717 3.48165 167.566 3.48165C167.218 3.48165 166.923 3.33869 166.681 3.05278C166.439 2.76686 166.318 2.41323 166.318 1.99187C166.318 0.893352 166.87 0.344091 167.975 0.344091C168.232 0.344091 168.754 0.374187 169.541 0.434379C170.721 0.524669 171.863 0.569815 172.968 0.569815C173.074 0.569815 173.981 0.547242 175.691 0.502097C176.932 0.472001 177.749 0.441904 178.142 0.411807C178.793 0.366663 179.474 0.344091 180.185 0.344091C181.032 0.344091 181.456 0.712773 181.456 1.45014C181.456 1.69091 181.425 2.04454 181.365 2.51104C181.32 2.97754 181.297 3.33117 181.297 3.57194C181.297 3.81271 181.327 4.15882 181.388 4.61027C181.463 5.04667 181.501 5.37773 181.501 5.60346C181.501 6.03986 181.335 6.40854 181.002 6.7095C180.684 7.01047 180.283 7.16095 179.799 7.16095C178.664 7.16095 178.097 6.58159 178.097 5.42288C178.097 5.22725 178.127 4.95638 178.188 4.61027C178.263 4.26416 178.301 4.00834 178.301 3.84281C178.301 3.51175 178.127 3.3086 177.779 3.23336C177.658 3.20326 177.34 3.18821 176.826 3.18821H174.579Z" fill="white"/>
<path d="M181.796 21.4504H66.0831V50.0135L73.2512 44.1544H157.22L163.364 38.2953H123.41L125.177 35.732L165.412 36.0982L172.58 30.0194H129.097L130.469 28.0419H174.628L181.796 21.4504Z" fill="#BF0A30"/>
<path d="M85.6814 35.4897C85.1996 35.4721 84.9588 35.7361 84.9588 36.2815V37.1261C84.9588 37.7243 85.2264 38.0235 85.7616 38.0235C85.9757 38.0235 86.2434 37.9971 86.5645 37.9443C86.957 37.8739 87.2871 37.8387 87.5547 37.8387C88.0008 37.8387 88.3576 37.9971 88.6252 38.3138C88.8928 38.6305 89.0266 39.0528 89.0266 39.5806C89.0266 40.1613 88.8482 40.6276 88.4914 40.9795C88.1346 41.3314 87.6707 41.5073 87.0998 41.5073C86.6002 41.5073 85.8598 41.4633 84.8785 41.3754C83.8972 41.2874 83.1568 41.2434 82.6572 41.2434C81.89 41.2434 81.2477 41.2698 80.7303 41.3226L79.419 41.4545C79.0621 41.4897 78.8213 41.5073 78.6964 41.5073C78.1255 41.5073 77.6616 41.3314 77.3047 40.9795C76.9658 40.6276 76.7963 40.1613 76.7963 39.5806C76.7963 39.088 76.9301 38.6745 77.1977 38.3402C77.4832 38.0059 77.8311 37.8387 78.2414 37.8387C78.402 37.8387 78.625 37.8739 78.9105 37.9443C79.196 37.9971 79.4011 38.0235 79.526 38.0235C80.0077 38.0235 80.2486 37.4252 80.2486 36.2287V28.9179C80.2486 28.3548 80.2308 27.9941 80.1951 27.8358C80.1059 27.3783 79.8829 27.1496 79.526 27.1496C79.3833 27.1496 79.1692 27.1847 78.8837 27.2551C78.6161 27.3079 78.402 27.3343 78.2414 27.3343C77.8311 27.3343 77.4832 27.1671 77.1977 26.8328C76.9301 26.4985 76.7963 26.085 76.7963 25.5924C76.7963 25.0117 76.9747 24.5454 77.3315 24.1935C77.6883 23.824 78.1522 23.6393 78.7232 23.6393C78.741 23.6393 78.7678 23.6393 78.8034 23.6393C78.8391 23.6569 78.8748 23.6657 78.9105 23.6657C79.3387 23.6657 79.9899 23.7097 80.8641 23.7976C81.7384 23.8856 82.3985 23.9296 82.8446 23.9296C83.7009 23.9296 84.6376 23.8944 85.6546 23.824C86.9392 23.7361 87.6707 23.6921 87.8491 23.6921C89.7938 23.6921 91.3639 24.2375 92.5593 25.3284C93.7725 26.4018 94.3791 27.8182 94.3791 29.5777C94.3791 31.4076 93.7547 32.8592 92.5058 33.9325C91.2747 35.0059 89.5887 35.5425 87.4477 35.5425C87.2693 35.5425 86.9303 35.5337 86.4307 35.5161L85.6814 35.4897ZM84.9588 31.0293C84.9588 31.522 85.0034 31.8299 85.0926 31.9531C85.1818 32.0586 85.4227 32.1202 85.8152 32.1378L86.2434 32.1642C88.3487 32.2874 89.4013 31.4692 89.4013 29.7097C89.4013 28.0205 88.4557 27.1759 86.5645 27.1759C86.1006 27.1759 85.7795 27.2023 85.6011 27.2551C85.2799 27.3431 85.0837 27.5542 85.0123 27.8886C84.9766 28.0645 84.9588 28.3284 84.9588 28.6803V31.0293Z" fill="white"/>
<path d="M105.911 35.912H102.352C101.335 35.912 100.826 36.5103 100.826 37.7067C100.826 37.9883 100.978 38.129 101.281 38.129C101.37 38.129 101.504 38.1202 101.683 38.1026C101.861 38.0674 101.995 38.0498 102.084 38.0498C102.744 38.0498 103.074 38.5689 103.074 39.607C103.074 40.1701 102.923 40.6276 102.619 40.9795C102.316 41.3314 101.915 41.5073 101.415 41.5073C101.165 41.5073 100.612 41.4457 99.7558 41.3226C99.3812 41.2698 98.8548 41.2434 98.1769 41.2434C97.4454 41.2434 96.8744 41.2698 96.4641 41.3226C95.5185 41.4457 94.9565 41.5073 94.778 41.5073C94.225 41.5073 93.77 41.3402 93.4132 41.0059C93.0742 40.6715 92.9047 40.2317 92.9047 39.6862C92.9047 38.4545 93.3775 37.8387 94.3231 37.8387C94.4301 37.8387 94.5996 37.8563 94.8316 37.8915C95.0635 37.9091 95.233 37.9179 95.3401 37.9179C95.679 37.9179 95.9556 37.7331 96.1697 37.3636C96.2232 37.2581 96.3481 36.9325 96.5444 36.3871L100.238 26.0147C100.666 24.8358 101.147 24.0968 101.683 23.7976C102.075 23.6041 102.941 23.5073 104.279 23.5073C105.777 23.5073 106.723 23.6041 107.115 23.7976C107.508 23.9736 107.829 24.4839 108.079 25.3284L111.504 36.5718C111.772 37.4692 112.084 37.9179 112.441 37.9179C112.548 37.9179 112.736 37.8915 113.003 37.8387H113.298C114.297 37.8387 114.796 38.4193 114.796 39.5806C114.796 40.1613 114.618 40.6276 114.261 40.9795C113.904 41.3314 113.44 41.5073 112.869 41.5073C112.62 41.5073 112.29 41.4809 111.879 41.4281C111.38 41.3402 111.05 41.2962 110.889 41.2962C110.496 41.261 109.988 41.2434 109.364 41.2434C108.686 41.2434 108.231 41.261 107.999 41.2962C107.089 41.4369 106.518 41.5073 106.286 41.5073C105.804 41.5073 105.403 41.3314 105.082 40.9795C104.778 40.61 104.627 40.1525 104.627 39.607C104.627 38.5689 104.966 38.0498 105.644 38.0498C105.733 38.0498 105.867 38.0674 106.045 38.1026C106.223 38.1202 106.357 38.129 106.446 38.129C106.785 38.129 106.955 37.9443 106.955 37.5748C106.955 37.0997 106.857 36.7038 106.661 36.3871C106.464 36.0704 106.214 35.912 105.911 35.912ZM105.51 31.8739L104.225 26.4633L102.566 32.085C102.548 32.1378 102.539 32.1994 102.539 32.2698C102.539 32.4809 102.762 32.5865 103.208 32.5865H104.867C105.331 32.5865 105.563 32.4633 105.563 32.217C105.563 32.2346 105.545 32.1202 105.51 31.8739Z" fill="white"/>
<path d="M14 10C14 8.5 13 6 11.5 5.5L14.5 2.5L20.5 4.5L22.5 7L21.5 11.5C19.3333 12.1667 14 12.912 14 10Z" fill="white" stroke="white"/>
<path d="M8.21582 2.20762C9.40826 -0.172736 12.2197 1.1024 14.179 1.44224L13.9234 2.80309C13.0718 1.78258 11.4533 1.01719 10.1751 1.953C11.1972 2.8878 12.56 3.31284 13.8382 3.73839C13.8382 4.16344 13.6677 4.92882 13.6677 5.35387C13.3269 5.35387 12.7309 5.43857 12.3901 5.43857C11.964 5.43857 11.0272 5.43857 10.5165 5.43857C10.6864 4.84311 11.0277 3.65318 11.1977 3.05822C10.4308 2.80309 8.98221 2.37804 8.21582 2.20762Z" fill="white"/>
<path fill-rule="evenodd" clip-rule="evenodd" d="M10.2191 3.58352C9.47835 3.3576 8.57642 3.10354 8.04295 2.98491L7.04675 2.76339L7.50384 1.85094C7.87722 1.10561 8.40542 0.601976 9.04564 0.311046C9.66755 0.0284392 10.3348 -0.0262144 10.956 0.00987444C11.5764 0.0459169 12.2044 0.176421 12.7693 0.308231C12.9356 0.34704 13.0943 0.385353 13.2467 0.422152C13.6361 0.51617 13.9846 0.600312 14.3151 0.657629L15.1107 0.795623L14.6344 3.33083V3.73837C14.6344 4.00892 14.585 4.35371 14.5463 4.62327C14.5446 4.63532 14.5429 4.64722 14.5412 4.65895C14.4952 4.97989 14.464 5.21144 14.464 5.35384V6.15014H13.6677C13.5416 6.15014 13.349 6.1668 13.1006 6.18926C13.0927 6.18997 13.0848 6.19069 13.0768 6.19142C12.861 6.21096 12.5971 6.23485 12.3901 6.23485H9.46115L9.75073 5.22005C9.84096 4.90385 9.98065 4.41608 10.117 3.94002C10.1515 3.81944 10.1858 3.69962 10.2191 3.58352ZM11.798 3.85483C11.7501 4.02224 11.6989 4.20089 11.6473 4.38106C11.6224 4.46814 11.5973 4.55556 11.5725 4.64225H12.3901C12.5133 4.64225 12.7 4.62635 12.9402 4.60466C12.9468 4.55789 12.9533 4.51244 12.9595 4.46896C12.9613 4.4569 12.963 4.445 12.9647 4.43326C12.9716 4.38467 12.9782 4.33813 12.9845 4.29364C12.6008 4.16434 12.1996 4.02255 11.798 3.85483Z" fill="white"/>
<path d="M14.7963 1.50739C16.3295 1.76251 19.2257 1.08234 19.2257 3.4627C20.7594 4.22808 22.207 5.16288 23.5704 6.18339C21.1855 7.62895 22.2075 10.2644 22.633 12.3897C20.5885 11.0298 21.9519 7.88358 22.3774 5.92827C21.3549 5.41751 20.4181 4.82254 19.6512 3.97245C18.4588 4.73733 16.5739 5.10235 15.2963 4.50739C16.2336 4.16705 13.9559 4.27327 14.2962 3.50739C14.2962 3.50739 15.5326 1.84672 15.4769 1.84672L14.7963 1.50739Z" fill="white"/>
<path fill-rule="evenodd" clip-rule="evenodd" d="M14.5938 1.74932L14.9271 0.721863C15.2291 0.772112 15.6123 0.779394 16.1008 0.788673C16.1172 0.788986 16.1338 0.789301 16.1505 0.78962C16.6299 0.798776 17.1954 0.811779 17.7226 0.903554C18.2461 0.994669 18.8329 1.17884 19.2918 1.60588C19.6678 1.95578 19.8982 2.41165 19.9839 2.95579C21.4196 3.70578 22.7738 4.59237 24.0476 5.54588L24.9921 6.25283L23.9832 6.86434C23.5077 7.15257 23.236 7.47635 23.0755 7.80963C22.9108 8.15155 22.8397 8.55298 22.8442 9.024C22.8487 9.49877 22.9295 10.0128 23.0443 10.5643C23.0981 10.8228 23.1575 11.081 23.2182 11.3447L23.2295 11.3936C23.2933 11.6708 23.3582 11.955 23.414 12.2333L23.791 14.1161L22.1922 13.0527C20.7875 12.1184 20.6386 10.5869 20.788 9.29104C20.864 8.63193 21.0226 7.96796 21.1804 7.36868C21.2325 7.17102 21.2834 6.9838 21.332 6.80538C21.3757 6.64493 21.4174 6.49161 21.4563 6.34422C20.7693 5.96508 20.1068 5.52214 19.5086 4.9623C18.9293 5.24288 18.2758 5.44333 17.6195 5.53798C16.7414 5.66462 15.7825 5.61215 14.9602 5.22923L14.927 4.5L13.6495 4.25817C13.6075 4.19564 13.5695 4.12552 13.5387 4.0471C13.4201 3.74478 13.4551 3.43949 13.5686 3.184L13.6047 3.10297L13.6576 3.03184L13.7099 2.96147L13.8482 2.77467C13.9626 2.61984 14.1142 2.41393 14.2637 2.20847C14.3833 2.04415 14.4995 1.88293 14.5938 1.74932ZM16.0912 2.38138C16.0562 2.43517 16.0141 2.49702 15.9701 2.56029C15.8568 2.72357 15.7032 2.93703 15.5514 3.14559C15.4813 3.24192 15.4109 3.33816 15.344 3.42924C15.406 3.44571 15.4727 3.46359 15.5253 3.47895L15.53 3.48031C15.6014 3.50114 15.7747 3.55167 15.9229 3.6484C15.9754 3.68264 16.1172 3.78018 16.2171 3.96165C16.5687 4.02181 16.9689 4.02273 17.3921 3.96169C17.7499 3.9101 18.1031 3.81703 18.4295 3.69396V3.46268C18.4295 3.04386 18.3103 2.86802 18.2068 2.77176C18.0748 2.64889 17.8417 2.54084 17.4495 2.47256C17.061 2.40494 16.615 2.39138 16.1201 2.38193C16.1105 2.38175 16.1008 2.38156 16.0912 2.38138Z" fill="white"/>
<path d="M9.90762 2.90184C10.894 1.66282 12.6568 1.97535 13.7474 2.73568C13.8146 2.98182 13.8442 3.41431 13.9112 3.65996C12.5663 3.58622 11.1396 3.53477 9.90762 2.90184Z" fill="#D39B29"/>
<path fill-rule="evenodd" clip-rule="evenodd" d="M11.8093 1.27298C12.6858 1.29587 13.5477 1.62567 14.2029 2.08245L14.4397 2.24758L14.5157 2.52614C14.5627 2.69861 14.5929 2.91121 14.6143 3.06143C14.6155 3.06969 14.6166 3.07776 14.6177 3.08562C14.6446 3.27402 14.662 3.3865 14.6795 3.45042L14.97 4.5155L13.8676 4.45506C13.7964 4.45116 13.7242 4.44732 13.6511 4.44344C12.3948 4.3767 10.8791 4.29617 9.54375 3.61014L8.67944 3.1661L9.28464 2.40588C9.964 1.55252 10.9126 1.24955 11.8093 1.27298Z" fill="white"/>
<path d="M24.7416 6.11811C26.8713 5.01289 28.8301 6.9682 30.3644 8.15913C31.642 9.34956 33.6014 10.1144 33.8575 11.985C34.0274 13.0903 34.1978 14.195 34.3693 15.3007C30.7047 14.1103 29.5985 10.1144 26.3631 8.49897C27.5545 13.175 32.2395 15.3859 34.8815 19.0414C33.7733 18.5317 32.7518 17.9362 31.644 17.3412C31.5568 21.6774 35.3076 24.0583 37.9456 26.8637C36.8393 26.3534 35.8158 25.9284 34.7953 25.5033C30.9614 25.2482 26.8713 25.2482 23.4654 23.1225C21.7617 22.1024 19.9733 21.0824 17.9283 20.6574C20.5698 24.3129 24.9987 25.7584 29.3444 26.2682C30.8767 26.2682 31.7288 27.5433 32.8365 28.4786C32.9232 28.0536 33.0926 27.3729 33.1773 27.0336C33.4319 27.2035 33.7728 27.4586 33.9427 27.6285C34.283 31.3693 37.9451 33.8353 39.9921 36.8111C39.6513 37.0663 38.9691 37.4913 38.6277 37.7459C35.9867 36.1305 34.1116 33.5802 32.1533 31.1993C31.813 32.2198 31.3869 33.3251 30.9614 34.3451C31.813 35.7054 32.5793 37.1505 33.4314 38.5113C33.6014 38.6812 34.0269 39.0211 34.1978 39.2762C33.8575 39.2762 33.0896 39.3619 32.7498 39.4466C33.0059 40.9769 33.3462 42.5072 33.6866 44.1226C33.1758 44.0379 32.24 44.0379 31.814 44.0379C30.4506 44.0379 29.173 44.1226 27.8948 44.2079C27.8091 43.1878 27.8948 42.252 27.7234 41.232C27.0427 35.6207 21.7602 32.5602 17.8426 29.0741C14.8612 26.609 12.3055 23.1225 11.709 19.2118C11.8794 16.4911 13.7535 14.2807 14.946 11.985C16.3093 11.56 17.6722 11.135 19.035 10.6247C19.2906 10.7946 19.9723 10.9645 20.3127 11.0497C19.9718 12.4101 21.3347 12.8351 22.272 13.2602V13.6C22.0164 14.195 21.6755 14.7899 21.3347 15.3002C19.2906 14.7052 17.0752 14.5348 15.4572 16.1503C18.4385 16.2355 21.4204 16.5753 24.316 17.3407V16.8315C24.316 16.4064 24.316 15.5563 24.316 15.1313C23.6343 12.2397 22.697 8.49897 24.7416 6.11811Z" fill="white"/>
<path fill-rule="evenodd" clip-rule="evenodd" d="M25.2446 6.75962C24.4874 7.71889 24.2446 8.96754 24.3022 10.4012C24.3604 11.8521 24.7195 13.3737 25.0553 14.7969C25.0673 14.8476 25.0792 14.8981 25.0911 14.9486L25.1124 15.0387V18.3748L24.1126 18.1106C21.2904 17.3646 18.3718 17.0302 15.4345 16.9462L13.5859 16.8934L14.8946 15.5868C16.6661 13.818 18.9905 13.8919 20.9753 14.3791C21.1032 14.1651 21.2259 13.9433 21.338 13.7196C21.0009 13.5655 20.6232 13.3715 20.3182 13.1295C20.0379 12.9072 19.764 12.6079 19.6032 12.2033C19.5326 12.0256 19.4889 11.8405 19.4716 11.6491C19.4513 11.6431 19.431 11.6371 19.4107 11.6309C19.2913 11.5946 19.1431 11.5473 18.9948 11.4885C17.8208 11.9173 16.6501 12.2874 15.4954 12.6478C15.2248 13.1456 14.9308 13.6351 14.6426 14.112C14.6196 14.15 14.5967 14.1879 14.5738 14.2258C14.2487 14.7634 13.9327 15.286 13.6445 15.8182C13.0423 16.93 12.5997 18.0174 12.5097 19.1776C13.0913 22.7977 15.484 26.0906 18.35 28.4604L18.3612 28.4696L18.372 28.4792C19.1258 29.15 19.9284 29.8025 20.7546 30.4743C20.9841 30.6608 21.2153 30.8488 21.4478 31.0391C22.5078 31.9065 23.583 32.8125 24.561 33.794C26.5158 35.7559 28.1372 38.0741 28.5117 41.1181C28.6048 41.6802 28.6266 42.21 28.6374 42.7025C28.6397 42.8087 28.6416 42.9123 28.6433 43.014C28.6454 43.1315 28.6475 43.2465 28.6502 43.3603C29.6688 43.2957 30.7131 43.2416 31.814 43.2416H31.8441C32.0365 43.2416 32.3496 43.2415 32.6877 43.251C32.424 42.0103 32.1678 40.7934 31.9644 39.5781L31.8429 38.852L32.5572 38.674C32.568 38.6713 32.5791 38.6686 32.5904 38.6659C32.2171 38.0579 31.8598 37.4385 31.509 36.8302L31.5065 36.8258C31.1007 36.1222 30.7033 35.4335 30.2865 34.7676L30.0679 34.4185L30.2265 34.0385C30.6468 33.031 31.0654 31.9446 31.3979 30.9474L31.8535 29.5813L32.7683 30.6935C33.0215 31.0012 33.271 31.3086 33.5187 31.6137C35.117 33.5827 36.6422 35.4616 38.6102 36.7883C38.6902 36.7346 38.7711 36.6808 38.8494 36.6288L38.8633 36.6196C38.4904 36.1413 38.0763 35.6658 37.639 35.1793C37.4754 34.9973 37.3076 34.8127 37.1378 34.626C36.6628 34.1035 36.1722 33.5641 35.7158 33.0166C34.801 31.9193 33.9467 30.7042 33.4828 29.2943L33.3484 29.953L32.3228 29.087C32.0431 28.8509 31.7803 28.5965 31.5418 28.3656C31.5229 28.3473 31.5041 28.3291 31.4854 28.311C31.2239 28.0581 30.9903 27.8354 30.7513 27.6437C30.285 27.2696 29.861 27.0645 29.3444 27.0645H29.2979L29.2517 27.0591C24.8295 26.5403 20.1213 25.0517 17.2829 21.1238L16.0807 19.46L18.0904 19.8777C20.2821 20.3333 22.1749 21.4217 23.8745 22.4392L23.8808 22.443L23.8871 22.4469C26.7312 24.222 30.084 24.4218 33.5597 24.629C33.8965 24.649 34.2345 24.6692 34.5733 24.6908C34.0869 24.2122 33.6071 23.7143 33.1645 23.1902C31.8381 21.6196 30.799 19.7578 30.8479 17.3252L30.8741 16.0238L30.9689 16.0747C30.9496 16.0569 30.9302 16.0391 30.9109 16.0213C30.4552 15.6023 29.9903 15.1749 29.5251 14.7256C27.8475 13.1052 26.2436 11.2551 25.5914 8.69556L25.1617 7.00906L26.7188 7.78651C28.3528 8.60238 29.4922 9.96551 30.5106 11.184C30.6128 11.3062 30.7137 11.427 30.8138 11.5456C31.6243 12.506 32.3989 13.3563 33.3551 13.9535C33.26 13.3377 33.1652 12.7219 33.0705 12.106L33.0685 12.0931C32.9797 11.4448 32.6018 10.9487 31.9812 10.4261C31.7073 10.1955 31.4108 9.97955 31.0879 9.74432C31.0403 9.7097 30.9922 9.67465 30.9435 9.63909C30.5854 9.37751 30.1992 9.08986 29.8485 8.76662C29.6519 8.61347 29.4587 8.45753 29.267 8.30272C28.6547 7.80835 28.0567 7.3255 27.405 6.98197C26.6366 6.57692 25.9451 6.45198 25.2446 6.75962ZM32.5686 18.7528C32.8365 20.0259 33.5003 21.1195 34.3813 22.1627C34.979 22.8705 35.6647 23.5408 36.3844 24.2248C36.4995 24.3342 36.6157 24.4442 36.7326 24.5548C37.3363 25.126 37.9566 25.7129 38.5257 26.3181L37.6121 27.5867C36.565 27.1038 35.5923 26.6978 34.6112 26.2892C34.2356 26.2649 33.8541 26.2428 33.4679 26.2205C33.4408 26.2189 33.4136 26.2173 33.3864 26.2157L33.6194 26.3712C33.8849 26.5484 34.2788 26.8385 34.5058 27.0655L34.7096 27.2693L34.7358 27.5564C34.8834 29.1792 35.7537 30.575 36.9391 31.9967C37.3718 32.5159 37.8279 33.0175 38.2955 33.5318C38.4701 33.7238 38.6462 33.9175 38.8234 34.1146C39.4641 34.8274 40.1057 35.5712 40.6482 36.3598L41.0818 36.9902L40.4693 37.4486C40.2797 37.5905 40.0074 37.7715 39.7622 37.9344L39.7508 37.9419C39.4871 38.1172 39.253 38.273 39.1039 38.3842L38.672 38.7064L38.2123 38.4252C35.8562 36.984 34.0789 34.836 32.4296 32.801C32.2446 33.2954 32.0496 33.7915 31.8528 34.2727C32.2071 34.853 32.5472 35.4427 32.8815 36.0223L32.886 36.0301C33.2749 36.7043 33.656 37.3649 34.0542 38.005C34.0791 38.0279 34.107 38.0529 34.1397 38.082C34.1951 38.1314 34.2642 38.193 34.3556 38.2778C34.5016 38.413 34.7158 38.6186 34.8594 38.833L35.6898 40.0725H34.1979C34.0775 40.0725 33.8815 40.0869 33.6751 40.1085C33.8557 41.0866 34.0654 42.0727 34.2839 43.1004C34.344 43.383 34.4048 43.6688 34.4658 43.9585L34.7061 45.0989L33.5563 44.9082C33.126 44.8368 32.2693 44.8342 31.814 44.8342C30.4811 44.8342 29.2289 44.917 27.9478 45.0024L27.1669 45.0544L27.1014 44.2745C27.0647 43.8381 27.0573 43.4109 27.0505 43.0175C27.0488 42.922 27.0472 42.8285 27.0452 42.7374C27.0347 42.2572 27.014 41.8152 26.9381 41.364L26.9351 41.346L26.9329 41.3279C26.6226 38.7695 25.265 36.757 23.4328 34.9181C22.5153 33.9973 21.4929 33.1339 20.4392 32.2716C20.2163 32.0891 19.9914 31.9063 19.7658 31.723C18.9392 31.051 18.104 30.372 17.324 29.6785C14.2547 27.1373 11.5567 23.4942 10.9218 19.3319L10.9089 19.2474L10.9143 19.162C11.01 17.6331 11.5829 16.2805 12.244 15.0598C12.5511 14.4928 12.8859 13.9393 13.2069 13.4085C13.2312 13.3683 13.2555 13.3282 13.2796 13.2882C13.6266 12.7141 13.9547 12.166 14.2393 11.618L14.3923 11.3236L14.709 11.2248C16.0755 10.7988 17.4172 10.3801 18.7558 9.87893L19.137 9.73624L19.5 9.49988C19.5 9.49988 19.9326 9.47351 20 9.49988C20.0789 9.53075 20.3887 9.46607 20.5 9.49988C20.7225 9.56745 22.5663 9.10466 22.7388 9.14785L22.7152 10.5636L22.9629 12.6478C22.9124 12.8494 21.0588 11.5536 21.0833 11.6152C21.1763 11.6631 21.3239 11.7356 21.459 11.8428C21.7308 12.0172 21.8553 12.0962 22.2423 12.3357C22.3543 12.3845 22.476 12.4783 22.6009 12.5349L22.9728 12.7036C22.874 11.8998 22.803 11.3024 22.7108 10.4651C22.6429 8.77224 22.9297 7.00573 24.1375 5.5993L24.2379 5.48232L24.3748 5.41129C25.757 4.69398 27.0704 5.0053 28.1476 5.57311C28.9515 5.99682 29.7223 6.62053 30.3544 7.13198C30.5323 7.27588 30.6992 7.4109 30.8527 7.53007L30.881 7.55206L30.9073 7.5765C31.1883 7.83832 31.5155 8.08464 31.8829 8.35305C31.9285 8.38633 31.9748 8.42006 32.0217 8.45421C32.3406 8.6863 32.6867 8.93825 33.0069 9.20786C33.748 9.83181 34.4763 10.6515 34.6455 11.87C34.8151 12.973 34.9851 14.0754 35.1562 15.1787L35.3545 16.458L34.1233 16.058C33.4936 15.8535 32.9334 15.5756 32.4265 15.2498C33.529 16.2711 34.6445 17.354 35.5269 18.5749L37.3023 21.0314L34.5488 19.7648C33.8692 19.4522 33.2148 19.1049 32.5686 18.7528ZM23.0683 13.208V13.7638L23.0036 13.9143C22.7246 14.5639 22.358 15.2019 21.9969 15.7425L21.8383 15.9799C22.4006 16.0806 22.9613 16.1947 23.5198 16.3236V15.2241C23.5113 15.1882 23.5027 15.1519 23.4942 15.1157C23.3537 14.521 23.2014 13.8768 23.0683 13.208ZM32.5728 26.1675C32.1537 26.1416 31.7305 26.1132 31.3049 26.0792C31.4609 26.1806 31.6082 26.2894 31.748 26.4016C31.9689 26.5788 32.1786 26.7706 32.3756 26.9578C32.3862 26.9151 32.396 26.8759 32.4048 26.8407L32.5728 26.1675ZM21.2668 22.7816C21.8354 23.0837 22.3975 23.412 22.9617 23.749C22.3698 23.4659 21.8027 23.145 21.2668 22.7816Z" fill="white"/>
<path d="M2.84913 6.28857C5.31921 5.6084 7.44895 7.64892 8.38625 9.68944C9.32356 11.7305 9.91953 13.8557 11.1972 15.6411C11.8788 14.6206 12.4748 13.5154 13.0713 12.4106C13.3264 11.9004 13.8377 10.9651 14.1785 10.4553C15.2862 10.4553 16.3935 10.4553 17.5007 10.54L19.0345 10.6252C17.6716 11.1355 16.3083 11.5605 14.9454 11.9856C13.753 14.2812 11.8788 16.4917 11.7084 19.2124C12.3049 23.123 14.8607 26.6096 17.842 29.0746C21.7602 32.5602 27.0417 35.6208 27.7223 41.2321C27.4677 41.0621 26.8702 40.7218 26.6161 40.5519C26.0187 42.1674 25.3385 43.7828 24.6568 45.3983C26.1881 44.7442 32.3442 39.1514 34.0073 44.9567C38.7766 44.6154 54.1298 49.9194 40.2457 49.9896C32.9703 49.9255 26.3034 49.6262 19.2891 50.1595C12.4798 50.6026 7.54819 51.5845 6.68206 49.9896C5.35479 47.5461 10.0894 46.6735 12.2192 46.2484C15.2005 45.9938 18.1819 45.4835 20.8229 44.1227C20.7377 40.1268 18.9487 36.5561 16.7338 33.3251C15.9674 33.1552 15.2857 33.07 14.5188 32.9853C13.1565 35.0253 12.6452 37.5761 11.1115 39.5319C10.5155 41.3173 10.0894 43.1879 9.32306 44.9733C9.06743 42.0827 8.89701 39.2768 8.64138 36.3866L7.61937 36.4713C7.44895 36.5566 7.19332 36.5566 7.0229 36.5566C6.59685 37.2372 5.57483 38.5124 5.14879 39.1073C4.80795 33.8364 5.91567 28.1398 3.5303 23.2087C2.42308 20.8279 1.7414 18.3623 1.06022 15.8115C1.06022 12.6653 -0.217422 8.49901 2.84913 6.28857Z" fill="white"/>
<path fill-rule="evenodd" clip-rule="evenodd" d="M3.19776 7.02192C2.03986 7.91836 1.65809 9.18604 1.60047 10.7288C1.5705 11.5313 1.63017 12.373 1.7021 13.2413C1.7101 13.3379 1.71827 13.435 1.72647 13.5324C1.78745 14.2568 1.85019 15.0021 1.85608 15.7053C2.52866 18.2212 3.1911 20.5894 4.24988 22.8676C5.51364 25.4831 5.83754 28.2722 5.90233 31.0117C5.92918 32.1469 5.91147 33.2909 5.89409 34.4133C5.89051 34.6445 5.88694 34.8748 5.88378 35.1039C5.87582 35.6813 5.87039 36.2526 5.87328 36.8179C6.06706 36.5535 6.23398 36.3161 6.34793 36.1341L6.58191 35.7602H7.02291C7.11256 35.7602 7.18074 35.7597 7.24191 35.7535C7.26272 35.7515 7.27733 35.7492 7.28659 35.7474L7.40059 35.6904L9.36482 35.5276L9.4346 36.3165C9.56291 37.7672 9.66978 39.196 9.77619 40.6187L9.77631 40.6204C9.78696 40.7628 9.79761 40.9051 9.80827 41.0474C9.97877 40.4706 10.1546 39.8834 10.3561 39.2797L10.3998 39.149L10.4849 39.0405C11.1808 38.1531 11.6572 37.1147 12.1481 35.9751C12.1918 35.8736 12.2357 35.7712 12.2799 35.6679C12.7197 34.6414 13.1925 33.5375 13.8566 32.543L14.1254 32.1406L14.6063 32.1938C15.379 32.2791 16.0959 32.368 16.9062 32.5477L17.2129 32.6157L17.3906 32.8748C19.6386 36.154 21.5289 39.8806 21.619 44.1057L21.6296 44.6028L21.1876 44.8305C18.4211 46.2561 15.3325 46.7791 12.3314 47.038C12.3001 47.0442 12.2684 47.0505 12.2364 47.0569C11.1469 47.2738 9.61546 47.5787 8.48053 48.0885C7.87973 48.3583 7.51289 48.634 7.34863 48.8783C7.27655 48.9855 7.24986 49.0768 7.24761 49.165C7.24526 49.257 7.26837 49.4007 7.38181 49.6095C7.41996 49.6798 7.57717 49.8544 8.20194 49.9678C8.79965 50.0763 9.63537 50.0936 10.7201 50.0434C11.7954 49.9936 13.0588 49.881 14.4968 49.7511L14.6236 49.7397C16.0214 49.6134 17.5712 49.4734 19.233 49.3652C24.6992 48.9498 29.9659 49.0365 35.4258 49.1264C37.0133 49.1525 38.6172 49.1789 40.247 49.1933C41.961 49.1844 43.1897 49.0946 44.0276 48.9539C44.4436 48.884 44.7412 48.8052 44.9447 48.728C44.712 48.5362 44.3246 48.2989 43.7777 48.0371C42.496 47.4235 40.6219 46.8063 38.7623 46.3639C36.8864 45.9177 35.1302 45.6747 34.0642 45.751L33.4197 45.7971L33.2418 45.176C32.8722 43.8858 32.3151 43.4111 31.8054 43.2391C31.2361 43.0469 30.4801 43.1437 29.5714 43.4973C28.6805 43.844 27.7711 44.3863 26.9602 44.907C26.7592 45.0361 26.5667 45.1622 26.3826 45.283L26.3509 45.3038C26.1794 45.4163 26.0138 45.5249 25.8601 45.6236C25.5494 45.823 25.2317 46.0186 24.9696 46.1306L23.1567 46.905L23.9232 45.0887C24.6058 43.4708 25.279 41.8716 25.8693 40.2757L26.2195 39.3287L26.52 39.5297C25.9234 37.7878 24.8125 36.3037 23.4321 34.9182C22.5148 33.9974 21.4924 33.1341 20.4388 32.2719C20.2152 32.0889 19.9896 31.9056 19.7634 31.7217C18.9375 31.0503 18.1029 30.3719 17.3235 29.6791C14.2541 27.1379 11.5561 23.4947 10.9212 19.3324L10.9084 19.2479L10.9137 19.1626C10.9709 18.249 11.1985 17.3983 11.5135 16.6011L11.2197 17.0409L10.5496 16.1045C9.85964 15.1403 9.36423 14.0991 8.9304 13.0706C8.76041 12.6676 8.60386 12.2773 8.44964 11.8928C8.19734 11.2638 7.95125 10.6502 7.66265 10.0218M14.6162 11.2541L14.6236 11.2518L14.6176 11.2518L14.6162 11.2541ZM17.5531 9.74539L19.0786 9.83015L19.3137 11.371C18.0326 11.8506 16.7538 12.2552 15.4948 12.6483C15.2242 13.1461 14.9302 13.6357 14.642 14.1125C14.6191 14.1505 14.5961 14.1885 14.5732 14.2263C14.2481 14.764 13.9321 15.2866 13.6439 15.8188C13.0417 16.9306 12.5991 18.0179 12.5091 19.1781C13.0907 22.7983 15.4834 26.0912 18.3495 28.4609L18.3606 28.4701L18.3713 28.4797C19.1246 29.1498 19.9266 29.8018 20.752 30.4728C20.9822 30.6599 21.2141 30.8485 21.4474 31.0393C22.5073 31.9067 23.5825 32.8127 24.5604 33.7942C26.5188 35.7599 28.1425 38.0832 28.5129 41.1362L28.6371 42.1601C28.7555 42.1087 28.8745 42.0596 28.9939 42.0131C30.0235 41.6125 31.2141 41.3586 32.3147 41.7301C33.3256 42.0714 34.0904 42.8769 34.576 44.1452C35.8464 44.1582 37.5035 44.4274 39.1308 44.8145C41.0574 45.2729 43.0481 45.9221 44.4654 46.6006C45.1592 46.9328 45.7909 47.3067 46.1963 47.7157C46.3976 47.9188 46.6118 48.1982 46.6894 48.5517C46.7788 48.9586 46.6622 49.348 46.3986 49.6496C46.1662 49.9155 45.8434 50.0896 45.5186 50.2137C45.1822 50.3422 44.7713 50.4439 44.2914 50.5245C43.331 50.6858 42.0039 50.777 40.2497 50.7859L40.2387 50.7859C38.5786 50.7713 36.9548 50.7446 35.3549 50.7183C29.9077 50.6288 24.7367 50.5439 19.3495 50.9535L19.3408 50.9541C17.6978 51.061 16.164 51.1996 14.7619 51.3262L14.64 51.3373C13.2111 51.4663 11.9108 51.5825 10.7937 51.6343C9.68612 51.6855 8.70095 51.677 7.91759 51.5348C7.16129 51.3976 6.37721 51.0968 5.9823 50.3696C5.76394 49.9676 5.64468 49.5495 5.65553 49.1244C5.66648 48.6955 5.80857 48.3145 6.02699 47.9896C6.44374 47.3698 7.14481 46.9425 7.82798 46.6357C9.13506 46.0486 10.8282 45.7126 11.8839 45.5032C11.946 45.4908 12.0059 45.479 12.0633 45.4675L12.107 45.4588L12.1514 45.455C14.9232 45.2183 17.615 44.7626 20.0065 43.6373C19.8009 40.1713 18.2544 37.0035 16.2559 34.0384C15.809 33.95 15.3818 33.8886 14.9255 33.8335C14.4746 34.5924 14.1183 35.4228 13.7368 36.3118C13.6952 36.4089 13.6532 36.5067 13.6108 36.6052C13.1391 37.7002 12.6141 38.87 11.8249 39.9107C11.6511 40.4403 11.4849 41.0012 11.3142 41.5772C10.9528 42.7968 10.5712 44.0843 10.0548 45.2873L8.52987 45.0434C8.40161 43.593 8.29478 42.1647 8.18841 40.7427L8.18815 40.7391C8.1011 39.5753 8.01435 38.4156 7.91614 37.2458L7.80273 37.2552C7.67865 37.2971 7.56019 37.3187 7.46419 37.331C7.2457 37.6462 6.97664 38.0066 6.72076 38.3447C6.60774 38.494 6.49705 38.6392 6.39196 38.7771C6.15069 39.0938 5.93894 39.3716 5.79622 39.5709L4.49804 41.3838L4.35416 39.1587C4.26677 37.8074 4.27266 36.4361 4.29134 35.0819C4.29458 34.847 4.29819 34.6127 4.3018 34.3791C4.31913 33.2573 4.33622 32.1505 4.31018 31.0494C4.24733 28.3921 3.93282 25.8694 2.81348 23.5554L2.80819 23.5445C1.66787 21.0925 0.970972 18.5636 0.290892 16.0169L0.263932 15.916V15.8115C0.263932 15.0753 0.204103 14.4364 0.139339 13.6648C0.131245 13.5684 0.123074 13.4711 0.114933 13.3728C0.0431293 12.5059 -0.0249518 11.578 0.00898386 10.6694C0.0772815 8.84068 0.566358 6.95242 2.3835 5.64258L2.49967 5.55884L2.63773 5.52082C4.15591 5.10277 5.54943 5.53585 6.65337 6.31935C7.74499 7.09411 8.59376 8.23345 9.10987 9.35703C9.41076 10.0122 9.6872 10.7003 9.95257 11.3608C10.1037 11.737 10.2513 12.1043 10.3978 12.4516C10.6473 13.0431 10.9051 13.6072 11.1975 14.1406C11.5959 13.4669 11.9758 12.7634 12.3647 12.0431C12.6281 11.5177 13.1515 10.5586 13.5166 10.0127L13.753 9.659H14.193C15.2885 9.659 16.4183 9.659 17.5531 9.74539ZM28.0729 42.4233L27.2803 41.8944C27.2186 41.8532 27.1284 41.7973 27.0207 41.732C26.8043 42.291 26.5803 42.8493 26.352 43.4063C26.8731 43.0775 27.459 42.7283 28.0729 42.4233ZM3.19776 7.02192C4.09953 6.81872 4.95798 7.06903 5.73161 7.61809C6.55668 8.20367 7.24146 9.10489 7.66265 10.0218" fill="white"/>
<path d="M26.3604 8.49908C29.5979 10.1146 30.7046 14.1104 34.3671 15.3008C34.1972 14.1951 34.0268 13.0904 33.8549 11.9852C38.7113 16.3208 43.3117 20.9968 48.7621 24.4834C48.4227 24.9085 47.6558 25.6734 47.3145 26.0984C50.0397 29.3293 53.7032 31.6245 57.1106 34.0054C58.1321 34.5156 58.3036 36.3005 57.0259 36.4709C54.0446 35.706 51.4888 33.9202 48.9335 32.3052C47.3145 32.645 45.7807 32.1353 44.5031 30.9448C43.9923 30.9448 42.9708 30.7749 42.4601 30.6897C41.8646 30.2647 41.2681 29.7544 40.6696 29.2441C38.796 29.0737 36.9229 28.6487 35.0478 28.3093L33.9396 27.6292C33.7697 27.4592 33.4278 27.2041 33.1742 27.0342C33.0875 27.3735 32.9181 28.0542 32.8334 28.4793C31.7251 27.544 30.8735 26.2688 29.3413 26.2688C24.9951 25.7586 20.5657 24.313 17.9252 20.6575C19.9697 21.0826 21.7586 22.1026 23.4623 23.1226C26.8692 25.2483 30.9582 25.2483 34.7912 25.5034C35.8117 25.9285 36.8352 26.3535 37.9414 26.8638C35.3014 24.0584 31.5527 21.6775 31.6404 17.3413C32.7487 17.9368 33.7702 18.5318 34.8779 19.0415C32.2374 15.386 27.5524 13.1751 26.3604 8.49908Z" fill="white"/>
<path fill-rule="evenodd" clip-rule="evenodd" d="M25.159 7.00964L26.716 7.78656C28.3517 8.60276 29.4919 9.96663 30.511 11.1856C30.6127 11.3073 30.7132 11.4276 30.813 11.5457C31.6237 12.5063 32.3982 13.3567 33.3541 13.9539C33.2591 13.3384 33.1638 12.723 33.0681 12.1076L32.7262 9.91006L34.3852 11.3911C35.5036 12.3896 36.6017 13.3993 37.6943 14.4038C41.3975 17.8088 45.0376 21.1556 49.1912 23.8126L49.9361 24.2892L49.3844 24.9802C49.1943 25.2183 48.899 25.5357 48.6343 25.8202L48.622 25.8334C48.5356 25.9263 48.4522 26.016 48.3738 26.101C50.568 28.5307 53.3083 30.4166 56.084 32.327C56.564 32.6573 57.0449 32.9883 57.5244 33.323C58.3048 33.7432 58.7112 34.5917 58.7266 35.3493C58.7348 35.7516 58.6356 36.1899 58.3617 36.5596C58.0768 36.9441 57.6486 37.1912 57.1312 37.2602L56.9779 37.2807L56.8281 37.2422C54.0612 36.5324 51.6451 34.985 49.3948 33.5437C49.1847 33.4092 48.9761 33.2755 48.7687 33.1436C47.0805 33.3971 45.4976 32.8553 44.1846 31.7281C43.5892 31.6855 42.774 31.5494 42.3616 31.4806L42.1474 31.4448L41.9975 31.3378C41.4358 30.9369 40.878 30.4677 40.3437 30.0126C38.9835 29.873 37.6149 29.6094 36.2869 29.3536C35.8209 29.2638 35.3599 29.175 34.906 29.0929L34.7588 29.0663L33.6651 28.395C33.646 28.4812 33.6288 28.5623 33.6143 28.6349L33.3507 29.9578L32.3198 29.0878C32.0397 28.8514 31.7765 28.5966 31.5378 28.3656C31.5191 28.3475 31.5005 28.3295 31.4821 28.3117C31.2205 28.0587 30.9869 27.8361 30.748 27.6444C30.2818 27.2702 29.8578 27.0651 29.3413 27.0651H29.2947L29.2485 27.0597C24.826 26.5405 20.1171 25.0518 17.2797 21.1238L16.078 19.4602L18.0873 19.8779C20.2785 20.3334 22.1717 21.4218 23.8714 22.4394L23.8777 22.4431L23.8839 22.447C26.7289 24.2222 30.0811 24.422 33.5558 24.6291C33.8922 24.6492 34.2299 24.6693 34.5683 24.6909C34.0819 24.2123 33.6021 23.7144 33.1596 23.1903C31.8335 21.6195 30.7951 19.7578 30.8443 17.3252L30.8707 16.0237L30.9673 16.0757C30.9472 16.0572 30.9272 16.0388 30.9071 16.0203C30.4518 15.6017 29.9874 15.1746 29.5227 14.7257C27.8453 13.1053 26.2413 11.2553 25.5888 8.69577L25.159 7.00964ZM32.5647 18.7528C32.8323 20.026 33.4958 21.1197 34.3765 22.1629C34.9741 22.8707 35.6596 23.5409 36.3794 24.2249C36.4956 24.3353 36.6129 24.4463 36.7308 24.5579C37.3336 25.1281 37.9529 25.714 38.5214 26.3181L37.6079 27.5869C36.5609 27.1039 35.5881 26.6979 34.6071 26.2894C34.2316 26.265 33.8501 26.2429 33.4641 26.2206C33.4372 26.219 33.4104 26.2175 33.3836 26.2159L33.6175 26.3726C33.8531 26.5305 34.1959 26.7807 34.4281 26.9946L35.3372 27.5526C35.7807 27.6338 36.2179 27.718 36.6507 27.8013C38.0404 28.0689 39.3845 28.3277 40.7418 28.4511L40.9938 28.474L41.2079 28.6565C41.7525 29.1209 42.2679 29.5604 42.7757 29.9349C43.3284 30.0258 44.1206 30.1485 44.5031 30.1485H44.8166L45.046 30.3622C46.1632 31.4032 47.441 31.8048 48.7699 31.5259L49.086 31.4595L49.359 31.632C49.661 31.8229 49.9606 32.0144 50.2587 32.205C52.4774 33.623 54.6123 34.9875 57.0356 35.6497C57.0648 35.6347 57.0763 35.6192 57.082 35.6115C57.1034 35.5827 57.137 35.5108 57.1343 35.3818C57.1285 35.0954 56.9582 34.8193 56.7548 34.7177L56.7025 34.6916L56.6546 34.6581C56.1797 34.3263 55.6964 33.994 55.2084 33.6586C52.2478 31.6235 49.1189 29.4727 46.7058 26.6118L46.2833 26.1108L46.6937 25.5998C46.8813 25.3662 47.1708 25.0551 47.4324 24.774L47.4561 24.7485C47.489 24.7131 47.5215 24.6782 47.5534 24.6439C43.5887 21.9901 40.0448 18.7307 36.5509 15.5174C36.0283 15.0367 35.5067 14.5571 34.9851 14.0806C35.0415 14.447 35.0979 14.8134 35.1542 15.1799L35.3506 16.4578L34.121 16.0581C33.4901 15.853 32.9288 15.5742 32.4211 15.2473C33.5243 16.2694 34.6407 17.3532 35.5234 18.5753L37.2978 21.0317L34.545 19.7649C33.8655 19.4522 33.2111 19.105 32.5647 18.7528ZM32.5737 26.1679C32.153 26.1419 31.7281 26.1134 31.3008 26.0793C31.4571 26.1808 31.6047 26.2899 31.7447 26.4022C31.9655 26.5794 32.1751 26.7711 32.372 26.9581C32.3831 26.9141 32.3934 26.8735 32.4027 26.837L32.5737 26.1679ZM21.2615 22.7807C21.8318 23.0835 22.3955 23.4128 22.9613 23.7508C22.3676 23.467 21.7988 23.1451 21.2615 22.7807Z" fill="white"/>
<path d="M21.3341 15.3008C21.675 14.7905 22.0158 14.195 22.2714 13.6006C23.0378 14.6206 23.7195 15.7263 24.316 16.8315V17.3413C21.4198 16.5764 18.4385 16.2361 15.4567 16.1509C17.0746 14.5359 19.2896 14.7058 21.3341 15.3008Z" fill="white"/>
<path fill-rule="evenodd" clip-rule="evenodd" d="M22.0827 12.0238L22.9081 13.1223C23.7034 14.1808 24.4059 15.3216 25.0167 16.4534L25.1123 16.6304V18.3753L24.1126 18.1112C21.2898 17.3657 18.3716 17.0308 15.4339 16.9469L13.585 16.8941L14.8941 15.5873C16.6656 13.8191 18.9895 13.8926 20.9746 14.3798C21.1851 14.0274 21.3818 13.6539 21.5399 13.2861L22.0827 12.0238ZM22.3784 15.135C22.2531 15.3474 22.1244 15.5514 21.9963 15.7431L21.8376 15.9807C22.245 16.0536 22.6515 16.1336 23.057 16.2211C22.84 15.8541 22.6138 15.4909 22.3784 15.135Z" fill="white"/>
<path d="M32.1527 31.1993C34.111 33.5802 35.9862 36.131 38.6282 37.746C38.9675 37.4913 39.6482 37.0658 39.9915 36.8112L40.3319 36.556C42.4616 38.0868 44.9307 39.2767 46.4629 41.4877C44.3332 42.7628 42.1188 44.1231 39.5635 44.2931C37.348 43.0179 35.9862 40.9769 34.1963 39.2767C34.0263 39.0216 33.6008 38.6818 33.4309 38.5118C32.5788 37.151 31.8139 35.7059 30.9618 34.3456C31.3858 33.3251 31.8114 32.2199 32.1527 31.1993Z" fill="white"/>
<path fill-rule="evenodd" clip-rule="evenodd" d="M31.8539 29.5825L32.7678 30.6935C33.0211 31.0014 33.2707 31.309 33.5186 31.6143C35.1166 33.583 36.6415 35.4616 38.6096 36.7877C38.6955 36.7299 38.7826 36.672 38.8664 36.6162L38.869 36.6145C39.1307 36.4403 39.3646 36.2846 39.5157 36.1727C39.5162 36.1723 39.5167 36.1719 39.5173 36.1715L40.322 35.5682L40.7967 35.9094C41.312 36.2798 41.8506 36.6315 42.4075 36.9942L42.4541 37.0245C42.9914 37.3744 43.5454 37.7352 44.0833 38.118C45.1912 38.9066 46.2759 39.8196 47.1175 41.0341L47.6023 41.7336L46.8721 42.1709C46.8022 42.2127 46.7321 42.2547 46.6616 42.297C44.6226 43.5196 42.3056 44.9088 39.6164 45.0876L39.3755 45.1036L39.1663 44.9832C37.9612 44.2896 37.0051 43.3969 36.144 42.4938C35.819 42.1529 35.5162 41.8208 35.2199 41.4958C34.7039 40.93 34.2076 40.3857 33.6479 39.8541L33.5831 39.7925L33.5336 39.7181C33.5071 39.6783 33.424 39.5871 33.2721 39.4461C33.2152 39.3934 33.1588 39.3427 33.1015 39.2912C33.0897 39.2806 33.0778 39.27 33.0659 39.2593C33.0024 39.2022 32.9279 39.1349 32.8679 39.0749L32.804 39.011L32.756 38.9344C32.3227 38.2423 31.9128 37.5311 31.5113 36.8346L31.5065 36.8261C31.101 36.1225 30.704 35.434 30.287 34.7683L30.0687 34.4198L30.2265 34.04C30.6455 33.0316 31.0638 31.9446 31.3976 30.9467L31.8539 29.5825ZM32.4287 32.8007C32.2439 33.2951 32.0491 33.7912 31.853 34.2726C32.2083 34.8544 32.5491 35.4457 32.884 36.0268L32.8863 36.0309C33.2749 36.7051 33.6556 37.3656 34.0537 38.0056C34.0784 38.0283 34.1061 38.053 34.1384 38.0819C34.1939 38.1314 34.2631 38.1931 34.3552 38.2785C34.482 38.3962 34.6611 38.5676 34.7999 38.752C35.3753 39.3034 35.9277 39.9083 36.4562 40.4871C36.7435 40.8016 37.0237 41.1084 37.2967 41.3948C38.0605 42.1959 38.8343 42.9141 39.7518 43.4785C41.7051 43.285 43.4659 42.3404 45.2809 41.2658C44.6767 40.5741 43.9549 39.9815 43.1598 39.4155C42.6492 39.0521 42.1193 38.7071 41.5738 38.3518L41.5384 38.3287C41.1445 38.0722 40.7426 37.8102 40.3454 37.5379C40.1765 37.6574 39.9709 37.7942 39.7796 37.9215L39.7496 37.9415C39.4868 38.1164 39.2537 38.2722 39.1062 38.3829L38.674 38.7072L38.2129 38.4254C35.8557 36.9844 34.0781 34.8358 32.4287 32.8007Z" fill="white"/>
<path d="M7.61985 36.4708L8.64186 36.3861C8.89749 39.2762 9.06791 42.0821 9.32354 44.9727V45.5682L7.61985 45.3136C7.36372 42.4225 7.53464 39.4466 7.61985 36.4708Z" fill="white"/>
<path fill-rule="evenodd" clip-rule="evenodd" d="M9.36534 35.5271L9.43511 36.3159C9.56343 37.7667 9.6703 39.1956 9.77671 40.6183L9.77683 40.6198C9.8834 42.0447 9.98953 43.4635 10.1168 44.9026L10.1199 44.9376V46.4923L6.88203 46.0084L6.8267 45.3838C6.60892 42.9257 6.69356 40.4041 6.7766 37.9301C6.79325 37.4338 6.80984 36.9395 6.82392 36.448L6.8443 35.7361L9.36534 35.5271ZM8.2809 41.9657C8.28223 42.8584 8.3052 43.7428 8.36449 44.6197L8.49517 44.6392C8.41791 43.7414 8.34816 42.8515 8.2809 41.9657Z" fill="white"/>
<path d="M26.6157 40.5518C26.8703 40.7217 27.4673 41.0626 27.7219 41.232C27.8933 42.252 27.8086 43.1878 27.8933 44.2078C27.554 44.293 26.955 44.5477 26.7019 44.6329C26.1896 44.888 25.1681 45.2278 24.6573 45.3977C25.338 43.7828 26.0187 42.1673 26.6157 40.5518Z" fill="#FAFDFF"/>
<path fill-rule="evenodd" clip-rule="evenodd" d="M26.2184 39.3294L27.0576 39.8894C27.1648 39.961 27.3571 40.0766 27.5782 40.2091L27.5977 40.2208C27.7975 40.3406 28.0207 40.4743 28.163 40.569L28.45 40.76L28.5071 41.1C28.6027 41.6686 28.6251 42.2043 28.6362 42.7022C28.6386 42.8106 28.6405 42.9162 28.6423 43.0198C28.6491 43.4056 28.6555 43.7649 28.6868 44.1419L28.7428 44.8155L28.0872 44.9801C27.9694 45.0097 27.7767 45.0779 27.5478 45.1648C27.4909 45.1864 27.4299 45.2099 27.3684 45.2336C27.2396 45.2832 27.1087 45.3337 27.0086 45.3692C26.4351 45.6456 25.4243 45.9818 24.9393 46.1431L23.2408 46.7082L23.9235 45.0885C24.6054 43.4706 25.279 41.8716 25.8687 40.2758L26.2184 39.3294ZM26.9943 41.7992C26.7043 42.5465 26.4006 43.2925 26.0921 44.0356C26.1877 43.9952 26.2739 43.9564 26.3468 43.9201L26.3959 43.8956L26.4478 43.8782C26.5179 43.8545 26.6181 43.8159 26.7482 43.7657C26.8178 43.7389 26.8959 43.7088 26.9826 43.6759C27.009 43.6658 27.0362 43.6556 27.064 43.6451C27.0565 43.4312 27.0529 43.2227 27.0494 43.0228C27.0477 42.9256 27.046 42.8303 27.044 42.7375C27.0368 42.4123 27.0248 42.1044 26.9943 41.7992Z" fill="#FAFDFF"/>
<path fill-rule="evenodd" clip-rule="evenodd" d="M32.5158 44.84L34.6956 49.9247L28.4068 49.9153L24.8617 45.1957L32.5158 44.84ZM27.9435 46.6468L29.2032 48.3239L32.2785 48.3285L31.487 46.4821L27.9435 46.6468ZM21.1723 45.0833L25.6169 49.9453L18.27 50.0453L14.6373 45.6257L21.1723 45.0833ZM17.7968 46.9615L19.014 48.4425L22.0476 48.4012L20.5246 46.7351L17.7968 46.9615ZM37.1734 45.4614L38.5162 45.5109C39.7097 45.5549 40.9485 45.8002 42.0027 46.1324C43.0307 46.4563 43.9864 46.895 44.5428 47.3846C44.7885 47.6007 45.1707 48.0127 45.129 48.5791C45.0815 49.2242 44.549 49.5453 44.1777 49.6908C43.768 49.8515 43.2198 49.9428 42.5536 49.9849C41.8746 50.0278 41.0196 50.0221 39.9665 49.9591L39.5366 49.9333L39.3228 49.5595C38.6339 48.3547 38.3759 47.8644 37.7747 46.663L37.1734 45.4614ZM39.8633 47.2516C40.0506 47.6059 40.2393 47.9482 40.4909 48.3923C41.2998 48.43 41.9468 48.4274 42.4533 48.3955C42.7245 48.3783 42.9455 48.3533 43.1232 48.3245C42.7533 48.1075 42.2055 47.8661 41.5241 47.6514C41.0056 47.488 40.4395 47.3494 39.8633 47.2516ZM43.5828 48.6764C43.5824 48.6764 43.5793 48.6725 43.575 48.6648C43.5811 48.6726 43.5833 48.6764 43.5828 48.6764ZM43.6741 48.1731C43.6811 48.1679 43.6854 48.1654 43.6859 48.1656C43.6863 48.1657 43.6828 48.1683 43.6741 48.1731ZM11.8212 46.0692L12.1177 46.4308C12.479 46.8714 12.7893 47.3128 13.0755 47.7198C13.111 47.7704 13.1462 47.8205 13.1811 47.8699C13.5026 48.326 13.8014 48.738 14.1501 49.1243L15.1848 50.2706L13.6509 50.4489C11.6699 50.6792 10.115 50.6972 8.99082 50.5608C8.43096 50.4929 7.94573 50.383 7.55778 50.2228C7.19426 50.0727 6.78507 49.8243 6.5804 49.3948C6.33873 48.8876 6.49468 48.3929 6.75231 48.0473C6.99123 47.7268 7.35369 47.4679 7.7509 47.2548C8.55959 46.8209 9.78029 46.4365 11.3609 46.152L11.8212 46.0692ZM12.0308 49.0012C11.9797 48.9296 11.9293 48.8583 11.8795 48.7876C11.8437 48.7369 11.8082 48.6864 11.7729 48.6363C11.5739 48.3534 11.3814 48.0797 11.176 47.8088C9.92333 48.0638 9.03952 48.3707 8.5039 48.6581C8.41355 48.7066 8.33857 48.7517 8.27675 48.7924C8.48422 48.8633 8.78118 48.9311 9.18262 48.9798C9.88039 49.0645 10.8262 49.0837 12.0308 49.0012Z" fill="white"/>
<path d="M12.2407 46.7932C13.1881 46.5466 14.0918 46.3146 15.5945 46.3827L18.035 49.4538C17.6089 49.4538 14.5284 49.5982 14.5284 49.5982L12.2407 46.7932ZM32.7718 45.677L37.7279 46.2043L39.4101 49.2663L34.0875 49.3019L32.7718 45.677ZM21.6038 46.0048L25.4096 45.8138L28.1484 49.0583C27.7223 49.0583 24.548 49.0934 24.548 49.0934L21.6038 46.0048Z" fill="white"/>
<path fill-rule="evenodd" clip-rule="evenodd" d="M31.5882 44.7503L38.2256 45.4565L40.7511 50.0537L33.5307 50.102L31.5882 44.7503ZM33.9552 46.6037L34.6442 48.5019L38.0689 48.479L37.2302 46.9522L33.9552 46.6037ZM25.7636 44.9988L29.8625 49.8546H28.1483C27.9406 49.8546 27.0466 49.8633 26.1966 49.8721C25.7733 49.8765 25.3634 49.8809 25.0592 49.8842L24.5573 49.8897L24.2105 49.8935L19.8284 45.2966L25.7636 44.9988ZM24.8854 48.2934L25.042 48.2917C25.3463 48.2884 25.7565 48.284 26.1801 48.2796C26.2685 48.2787 26.3576 48.2778 26.4466 48.2769L25.0555 46.6289L23.3789 46.713L24.8854 48.2934ZM13.6678 47.2832L14.892 48.7842L14.9798 48.7801C15.2756 48.7666 15.6746 48.7485 16.087 48.7304C16.2006 48.7255 16.316 48.7205 16.4311 48.7155L15.2011 47.1677C14.6025 47.1602 14.1144 47.2067 13.6678 47.2832ZM14.5655 50.3936L14.1648 50.4124L10.8395 46.3352L12.04 46.0226C13.0107 45.77 14.0069 45.5136 15.6305 45.5873L15.9924 45.6037L19.6848 50.2501H18.0349C17.8445 50.2501 16.9933 50.2849 16.1567 50.3215C15.7457 50.3395 15.3479 50.3576 15.0527 50.3711L14.5655 50.3936Z" fill="white"/>
</svg>
