<svg width="196" height="36" viewBox="0 0 196 36" fill="none" xmlns="http://www.w3.org/2000/svg">
<path d="M58.9731 31.9357C60.8163 31.9357 62.4036 31.5354 63.7349 30.7349C65.0746 29.9344 66.103 28.8145 66.8198 27.3753C67.5451 25.9361 67.9078 24.2627 67.9078 22.3551C67.9078 20.4474 67.5451 18.774 66.8198 17.3348C66.103 15.8956 65.0746 14.7757 63.7349 13.9752C62.4036 13.1747 60.8163 12.7744 58.9731 12.7744C57.1298 12.7744 55.5383 13.1747 54.1985 13.9752C52.8672 14.7757 51.8389 15.8956 51.1136 17.3348C50.3967 18.774 50.0383 20.4474 50.0383 22.3551C50.0383 24.2627 50.3967 25.9361 51.1136 27.3753C51.8389 28.8145 52.8672 29.9344 54.1985 30.7349C55.5383 31.5354 57.1298 31.9357 58.9731 31.9357ZM58.9731 28.6655C57.2237 28.64 55.9095 28.0609 55.0305 26.9282C54.1601 25.7956 53.7249 24.2712 53.7249 22.3551C53.7249 20.4389 54.1601 18.9018 55.0305 17.7436C55.9095 16.5854 57.2237 16.0191 58.9731 16.0446C60.731 16.0702 62.0452 16.6493 62.9156 17.7819C63.7861 18.9145 64.2213 20.4389 64.2213 22.3551C64.2213 24.2712 63.7861 25.8083 62.9156 26.9665C62.0452 28.1247 60.731 28.6911 58.9731 28.6655Z" fill="white"/>
<path d="M70.4631 31.5525H73.9961V19.2893L82.0092 31.5525H85.5421V13.1576H82.0092V25.4209L73.9961 13.1576H70.4631V31.5525Z" fill="white"/>
<path d="M169.693 31.9357C171.178 31.9357 172.483 31.6376 173.61 31.0415C174.736 30.4369 175.615 29.5895 176.247 28.4994C176.878 27.4094 177.194 26.1277 177.194 24.6544V13.1576H173.661V24.6289C173.661 25.4209 173.486 26.1192 173.136 26.7238C172.786 27.3285 172.313 27.8054 171.715 28.1545C171.118 28.4952 170.444 28.6655 169.693 28.6655C168.959 28.6655 168.289 28.4994 167.683 28.1673C167.086 27.8267 166.608 27.354 166.249 26.7494C165.9 26.1447 165.725 25.4379 165.725 24.6289V13.1576L162.192 13.1832V24.6544C162.192 26.1277 162.507 27.4094 163.139 28.4994C163.77 29.5895 164.649 30.4369 165.776 31.0415C166.902 31.6376 168.208 31.9357 169.693 31.9357Z" fill="white"/>
<path d="M180.767 31.5525H184.249V23.1726L191.597 31.5525H196L187.808 22.2273L195.514 13.1576H191.264L184.249 21.6397V13.1576H180.767V31.5525Z" fill="white"/>
<path d="M97.1897 32.1339C98.9647 32.1339 100.505 31.7507 101.811 30.9843C103.116 30.2093 104.128 29.1405 104.844 27.7779C105.561 26.4154 105.92 24.8527 105.92 23.0898C105.92 23.0472 105.915 22.8854 105.907 22.6044C105.898 22.3234 105.885 22.1275 105.868 22.0168H99.2378V24.6994H102.156C101.875 26.1556 101.311 27.2201 100.467 27.8929C99.6303 28.5657 98.6148 28.8893 97.4201 28.8638C95.6707 28.8382 94.3565 28.2591 93.4775 27.1265C92.6071 25.9938 92.1719 24.4694 92.1719 22.5533C92.1719 20.6372 92.6071 19.1 93.4775 17.9418C94.3565 16.7836 95.6707 16.2173 97.4201 16.2428C98.5977 16.2514 99.5621 16.5792 100.313 17.2265C101.073 17.8652 101.619 18.721 101.951 19.7941L105.51 19.2831C105.049 17.2733 104.14 15.7191 102.784 14.6205C101.427 13.5219 99.562 12.9727 97.1897 12.9727C95.5854 12.9727 94.1218 13.3474 92.7991 14.0968C91.4849 14.8462 90.4353 15.9363 89.6502 17.367C88.8736 18.7892 88.4854 20.5179 88.4854 22.5533C88.4854 24.1118 88.7158 25.4871 89.1766 26.6794C89.6459 27.8716 90.2817 28.8723 91.0839 29.6813C91.8946 30.4903 92.8247 31.1035 93.8744 31.5208C94.924 31.9296 96.0291 32.1339 97.1897 32.1339Z" fill="#D0142C"/>
<path d="M106.705 31.7507H110.289L111.454 27.9185H118.392L119.582 31.7507H123.167L117.534 13.3559H112.337L106.705 31.7507ZM112.44 24.6738L114.897 16.6133L117.393 24.6738H112.44Z" fill="#D0142C"/>
<path d="M125.461 31.7507H128.712V20.7649L134.063 31.7507H135.292L140.642 20.7649V31.7507H143.894V13.3559H140.77L134.677 25.568L128.584 13.3559H125.461V31.7507Z" fill="#D0142C"/>
<path d="M147.487 31.7507H159.519V28.5061H150.968V23.7796H157.983V20.535H150.968V16.6005H159.519V13.3559H147.487V31.7507Z" fill="#D0142C"/>
<path d="M9.17636 14.581C9.799 12.6455 15.9216 7.61325 19.2008 4.64551C22.0649 7.35519 28.6025 12.2584 29.2252 14.581C29.5585 15.8242 29.5988 16.7745 29.1007 17.8068C28.5723 18.9017 27.6863 20.0234 26.7346 20.5165C25.4894 21.1616 22.7498 20.7745 20.8819 20.6455C20.5686 20.6239 21.6635 24.9188 22.2461 27.2041L22.2517 27.2262L23.2737 24.3874L36.0742 18.8391L33.7468 32.5165H4.60928L2.32739 18.9681H3.44813L15.1279 24.3874L16.3989 27.2262C16.7725 25.1186 18.0536 20.6116 17.6442 20.6455C14.531 20.9036 14.1574 20.9036 12.5386 20.5165C11.0625 20.1635 10.0105 18.7948 9.54995 17.9358C8.92731 16.7745 8.93683 15.3256 9.17636 14.581Z" fill="white"/>
<path d="M33.7468 33.6777H4.65479V36.0003H33.7468V33.6777Z" fill="#D0142C"/>
<ellipse cx="2.32736" cy="18.5804" rx="2.32736" ry="2.32258" fill="white"/>
<ellipse cx="36.0742" cy="18.5804" rx="2.32736" ry="2.32258" fill="white"/>
<ellipse cx="19.2007" cy="2.90323" rx="2.9092" ry="2.90323" fill="white"/>
</svg>
