<svg width="145" height="64" viewBox="0 0 145 64" fill="none" xmlns="http://www.w3.org/2000/svg">
<path d="M36.4047 25.3889C34.1366 25.3889 32.3832 24.6967 31.1447 23.3122C29.9061 21.9278 29.2869 19.964 29.2869 17.4208C29.2869 14.968 29.8987 13.0418 31.1223 11.6423C32.3608 10.2278 34.0619 9.52051 36.2257 9.52051C38.4938 9.52051 40.2621 10.2052 41.5305 11.5746C42.7989 12.944 43.433 14.8551 43.433 17.308C43.433 19.8511 42.8138 21.8375 41.5752 23.2671C40.3516 24.6816 38.6281 25.3889 36.4047 25.3889ZM36.3823 12.6806C34.4425 12.6806 33.4725 14.2758 33.4725 17.466C33.4725 18.9859 33.6591 20.1145 34.0321 20.8518C34.4947 21.7698 35.2706 22.2288 36.36 22.2288C38.2849 22.2288 39.2474 20.6788 39.2474 17.5789C39.2474 15.8633 39.0161 14.6219 38.5535 13.8544C38.1058 13.0719 37.3821 12.6806 36.3823 12.6806Z" fill="#BF0A30"/>
<path d="M54.7899 11.3489L58.7293 21.0099V14.3284C58.7293 13.3202 58.5354 12.8161 58.1474 12.8161C58.0429 12.8161 57.8862 12.8462 57.6773 12.9064C57.4833 12.9515 57.3341 12.9741 57.2297 12.9741C56.9163 12.9741 56.6477 12.8311 56.4239 12.5452C56.215 12.2593 56.1105 11.9057 56.1105 11.4843C56.1105 10.9877 56.2523 10.5889 56.5358 10.288C56.8193 9.98701 57.1924 9.83652 57.6549 9.83652C57.8937 9.83652 58.3041 9.87414 58.886 9.94938C59.468 10.0246 59.9828 10.0622 60.4305 10.0622C60.8334 10.0622 61.3034 10.0321 61.8406 9.97196C62.6464 9.88167 63.1463 9.83652 63.3403 9.83652C63.8178 9.83652 64.2058 9.98701 64.5042 10.288C64.8026 10.5889 64.9519 10.9877 64.9519 11.4843C64.9519 11.9057 64.8325 12.2593 64.5937 12.5452C64.355 12.8311 64.064 12.9741 63.7208 12.9741C63.5865 12.9741 63.4074 12.9515 63.1836 12.9064C62.9598 12.8462 62.7882 12.8161 62.6688 12.8161C62.3703 12.8161 62.1764 13.0042 62.0868 13.3804C62.057 13.5309 62.0421 13.8469 62.0421 14.3284V23.5154C62.0421 24.5086 61.6392 25.0052 60.8334 25.0052C60.6841 25.0052 60.4528 24.9976 60.1395 24.9826C59.841 24.9525 59.6172 24.9375 59.468 24.9375C59.4531 24.9375 59.0875 24.9525 58.3712 24.9826C58.3712 24.9826 58.2071 24.9826 57.8788 24.9826C57.446 24.9826 57.1252 24.8773 56.9163 24.6666C56.7969 24.5462 56.6253 24.2227 56.4015 23.696L52.0815 13.7641V20.581C52.0815 21.6043 52.2755 22.1159 52.6635 22.1159C52.7679 22.1159 52.9246 22.0933 53.1335 22.0482C53.3574 21.988 53.5215 21.9579 53.626 21.9579C53.9393 21.9579 54.2005 22.1009 54.4094 22.3868C54.6332 22.6727 54.7451 23.0263 54.7451 23.4477C54.7451 24.5462 54.2229 25.0955 53.1783 25.0955C52.8799 25.0955 52.3874 25.0503 51.701 24.96C51.2384 24.8998 50.7758 24.8697 50.3133 24.8697C49.9253 24.8697 49.403 24.9074 48.7464 24.9826C48.0899 25.0578 47.672 25.0955 47.493 25.0955C46.4037 25.0955 45.859 24.5462 45.859 23.4477C45.859 23.0263 45.9709 22.6727 46.1947 22.3868C46.4335 22.1009 46.7245 21.9579 47.0677 21.9579C47.202 21.9579 47.3811 21.988 47.6049 22.0482C47.8436 22.0933 48.0227 22.1159 48.1421 22.1159C48.545 22.1159 48.7464 21.6043 48.7464 20.581V14.3284C48.7464 13.3202 48.545 12.8161 48.1421 12.8161C48.0227 12.8161 47.8436 12.8462 47.6049 12.9064C47.3811 12.9515 47.202 12.9741 47.0677 12.9741C46.7245 12.9741 46.4335 12.8311 46.1947 12.5452C45.9709 12.2593 45.859 11.9057 45.859 11.4843C45.859 10.9877 46.0082 10.5889 46.3067 10.288C46.6051 9.98701 46.9931 9.83652 47.4706 9.83652C47.784 9.83652 48.2391 9.87414 48.836 9.94938C49.4329 10.0246 49.9029 10.0622 50.2461 10.0622C50.5296 10.0622 51.0146 10.0321 51.701 9.97196C52.0144 9.95691 52.3725 9.92681 52.7754 9.88167C52.9545 9.85157 53.1485 9.83652 53.3574 9.83652C53.7603 9.83652 54.0736 9.99453 54.2975 10.3105C54.387 10.4309 54.5511 10.777 54.7899 11.3489Z" fill="#BF0A30"/>
<path d="M73.9113 9.52051C75.5 9.52051 76.8239 10.0547 77.8831 11.1231C78.0192 10.2353 78.4731 9.79138 79.2448 9.79138C80.1829 9.79138 80.6519 10.2428 80.6519 11.1457C80.6519 11.2962 80.6217 11.5972 80.5611 12.0486C80.4704 12.7258 80.425 13.1848 80.425 13.4255C80.425 13.6964 80.4401 13.8996 80.4704 14.035C80.5006 14.5165 80.5157 14.7874 80.5157 14.8476C80.5157 15.2388 80.3417 15.5699 79.9937 15.8408C79.6457 16.0966 79.1994 16.2245 78.6547 16.2245C77.7771 16.2245 77.2476 15.7956 77.066 14.9379C76.8844 14.0801 76.6197 13.4932 76.2717 13.1772C75.9388 12.8462 75.4017 12.6806 74.6603 12.6806C73.6768 12.6806 72.9127 13.1396 72.368 14.0576C71.8385 14.9605 71.5737 16.2471 71.5737 17.9174C71.5737 19.332 71.8309 20.438 72.3453 21.2356C72.8749 22.0181 73.6011 22.4093 74.5241 22.4093C75.1142 22.4093 75.5984 22.2438 75.9766 21.9127C76.37 21.5666 76.5667 21.1378 76.5667 20.6261C76.5667 19.9941 76.3019 19.6781 75.7724 19.6781C75.7421 19.6781 75.6967 19.6781 75.6362 19.6781C75.5757 19.6931 75.5227 19.7007 75.4773 19.7007C75.2352 19.7308 75.0991 19.7458 75.0688 19.7458C74.7662 19.7458 74.509 19.6179 74.2971 19.3621C74.0853 19.0912 73.9794 18.7601 73.9794 18.3689C73.9794 17.9174 74.1307 17.5563 74.4333 17.2854C74.7359 17.0145 75.1293 16.8791 75.6135 16.8791C75.9312 16.8791 76.4078 16.9243 77.0433 17.0145C77.6939 17.0898 78.1857 17.1274 78.5185 17.1274C79.0178 17.1274 79.5701 17.0898 80.1753 17.0145C80.6595 16.9543 80.9924 16.9243 81.1739 16.9243C81.6581 16.9243 82.0439 17.0747 82.3314 17.3757C82.634 17.6616 82.7853 18.0529 82.7853 18.5495C82.7853 18.9859 82.6794 19.3545 82.4676 19.6555C82.2557 19.9414 81.991 20.0844 81.6732 20.0844L81.1285 20.0392C80.72 20.0392 80.5157 20.3778 80.5157 21.055C80.5157 21.3409 80.5233 21.6419 80.5384 21.9579L80.5838 22.9285C80.599 23.2596 80.6065 23.5756 80.6065 23.8765C80.6065 24.8848 80.0467 25.3889 78.9271 25.3889C77.8679 25.3889 77.3384 25.0202 77.3384 24.2829V24.1474C76.2944 24.9751 75.1066 25.3889 73.7751 25.3889C72.6101 25.3889 71.5132 25.0879 70.4843 24.486C69.4554 23.869 68.7065 23.0715 68.2374 22.0933C67.6322 20.8443 67.3296 19.3922 67.3296 17.7369C67.3296 15.2088 67.9197 13.2073 69.0998 11.7326C70.28 10.2579 71.8838 9.52051 73.9113 9.52051Z" fill="white"/>
<path d="M94.6612 20.3101H91.6426C90.7802 20.3101 90.349 20.8218 90.349 21.845C90.349 22.0858 90.4776 22.2062 90.7348 22.2062C90.8105 22.2062 90.9239 22.1987 91.0752 22.1836C91.2265 22.1535 91.34 22.1385 91.4157 22.1385C91.9755 22.1385 92.2554 22.5824 92.2554 23.4702C92.2554 23.9518 92.1268 24.343 91.8696 24.644C91.6124 24.945 91.2719 25.0955 90.8483 25.0955C90.6365 25.0955 90.1674 25.0428 89.4412 24.9375C89.1234 24.8923 88.6771 24.8697 88.1021 24.8697C87.4818 24.8697 86.9976 24.8923 86.6496 24.9375C85.8477 25.0428 85.3711 25.0955 85.2198 25.0955C84.7507 25.0955 84.3649 24.9525 84.0623 24.6666C83.7748 24.3807 83.6311 24.0045 83.6311 23.538C83.6311 22.4846 84.032 21.9579 84.8339 21.9579C84.9247 21.9579 85.0685 21.9729 85.2652 22.003C85.4619 22.0181 85.6056 22.0256 85.6964 22.0256C85.9839 22.0256 86.2184 21.8676 86.3999 21.5516C86.4453 21.4613 86.5513 21.1829 86.7177 20.7164L89.8497 11.8455C90.2128 10.8372 90.6213 10.2052 91.0752 9.94938C91.4081 9.78385 92.1419 9.70109 93.2767 9.70109C94.5477 9.70109 95.3496 9.78385 95.6825 9.94938C96.0153 10.0999 96.2877 10.5363 96.4995 11.2586L99.4045 20.8744C99.6315 21.6419 99.8963 22.0256 100.199 22.0256C100.29 22.0256 100.449 22.003 100.675 21.9579H100.925C101.772 21.9579 102.196 22.4545 102.196 23.4477C102.196 23.9443 102.045 24.343 101.742 24.644C101.44 24.945 101.046 25.0955 100.562 25.0955C100.35 25.0955 100.07 25.0729 99.7223 25.0277C99.2986 24.9525 99.0187 24.9149 98.8825 24.9149C98.5497 24.8848 98.1185 24.8697 97.5889 24.8697C97.0139 24.8697 96.6281 24.8848 96.4314 24.9149C95.6598 25.0353 95.1756 25.0955 94.9789 25.0955C94.5704 25.0955 94.2299 24.945 93.9576 24.644C93.7004 24.328 93.5718 23.9367 93.5718 23.4702C93.5718 22.5824 93.8592 22.1385 94.4342 22.1385C94.5099 22.1385 94.6233 22.1535 94.7746 22.1836C94.9259 22.1987 95.0394 22.2062 95.1151 22.2062C95.4025 22.2062 95.5463 22.0482 95.5463 21.7322C95.5463 21.3259 95.4631 20.9873 95.2966 20.7164C95.1302 20.4455 94.9184 20.3101 94.6612 20.3101ZM94.3207 16.8565L93.2313 12.2292L91.8242 17.0371C91.8091 17.0823 91.8015 17.1349 91.8015 17.1951C91.8015 17.3757 91.9906 17.466 92.3689 17.466H93.776C94.1694 17.466 94.3661 17.3607 94.3661 17.15C94.3661 17.165 94.351 17.0672 94.3207 16.8565Z" fill="white"/>
<path d="M113.721 11.236L115.604 19.4749L117.579 11.5746C117.745 10.9125 117.927 10.461 118.123 10.2203C118.335 9.96443 118.63 9.83652 119.009 9.83652C119.341 9.83652 119.848 9.87414 120.529 9.94938C121.21 10.0246 121.725 10.0622 122.073 10.0622C122.436 10.0622 123.336 10.0021 124.773 9.88167C125.182 9.85157 125.484 9.83652 125.681 9.83652C126.18 9.83652 126.581 9.98701 126.884 10.288C127.187 10.5739 127.338 10.9727 127.338 11.4843C127.338 11.9057 127.217 12.2593 126.975 12.5452C126.748 12.8311 126.46 12.9741 126.112 12.9741C125.976 12.9741 125.787 12.9515 125.545 12.9064C125.303 12.8462 125.129 12.8161 125.023 12.8161C124.614 12.8161 124.41 13.3202 124.41 14.3284V20.581C124.41 21.6043 124.607 22.1159 125 22.1159C125.121 22.1159 125.303 22.0933 125.545 22.0482C125.787 21.988 125.969 21.9579 126.09 21.9579C126.438 21.9579 126.733 22.1009 126.975 22.3868C127.217 22.6727 127.338 23.0263 127.338 23.4477C127.338 23.9593 127.187 24.3656 126.884 24.6666C126.581 24.9525 126.18 25.0955 125.681 25.0955C125.394 25.0955 124.909 25.0503 124.229 24.96C123.775 24.8998 123.321 24.8697 122.867 24.8697C122.579 24.8697 122.156 24.9074 121.596 24.9826C121.036 25.0578 120.612 25.0955 120.325 25.0955C119.871 25.0955 119.5 24.945 119.213 24.644C118.941 24.343 118.804 23.9443 118.804 23.4477C118.804 22.5147 119.115 22.0482 119.735 22.0482C119.826 22.0482 119.894 22.0557 119.939 22.0708C119.985 22.0708 120.037 22.0708 120.098 22.0708C120.159 22.0858 120.196 22.0933 120.211 22.0933C120.454 22.0933 120.597 21.9278 120.643 21.5967C120.658 21.4463 120.665 21.1904 120.665 20.8293V12.3195L117.511 23.4251C117.238 24.3882 116.792 24.8697 116.172 24.8697H114.719C114.114 24.8697 113.698 24.4409 113.471 23.5831L110.452 12.3195V20.8293C110.452 21.5365 110.52 21.9353 110.657 22.0256C110.702 22.0708 110.785 22.0933 110.906 22.0933C110.937 22.0933 110.982 22.0858 111.042 22.0708C111.088 22.0708 111.133 22.0708 111.179 22.0708C111.224 22.0557 111.292 22.0482 111.383 22.0482C111.988 22.0482 112.291 22.5072 112.291 23.4251C112.291 23.9367 112.155 24.343 111.882 24.644C111.61 24.945 111.247 25.0955 110.793 25.0955C110.581 25.0955 110.309 25.0729 109.976 25.0277C109.552 24.9675 109.287 24.9299 109.181 24.9149C108.864 24.8848 108.501 24.8697 108.092 24.8697C107.578 24.8697 107.146 24.8923 106.798 24.9375C105.86 25.0578 105.391 25.118 105.391 25.118C104.922 25.118 104.536 24.96 104.234 24.644C103.931 24.328 103.78 23.9292 103.78 23.4477C103.78 23.0113 103.893 22.6576 104.12 22.3868C104.362 22.1009 104.665 21.9579 105.028 21.9579C105.149 21.9579 105.323 21.988 105.55 22.0482C105.792 22.0933 105.974 22.1159 106.095 22.1159C106.397 22.1159 106.587 21.9203 106.662 21.529C106.692 21.3785 106.708 21.0625 106.708 20.581V14.3284C106.708 13.8469 106.692 13.5384 106.662 13.403C106.587 13.0117 106.397 12.8161 106.095 12.8161C105.974 12.8161 105.792 12.8462 105.55 12.9064C105.323 12.9515 105.142 12.9741 105.005 12.9741C104.657 12.9741 104.362 12.8311 104.12 12.5452C103.893 12.2593 103.78 11.9057 103.78 11.4843C103.78 10.3858 104.34 9.83652 105.459 9.83652C105.822 9.83652 106.428 9.87414 107.275 9.94938C108.122 10.0246 108.758 10.0622 109.181 10.0622C109.862 10.0622 110.573 10.0171 111.315 9.92681C111.814 9.86662 112.207 9.83652 112.495 9.83652C112.873 9.83652 113.138 9.92681 113.289 10.1074C113.441 10.288 113.584 10.6642 113.721 11.236Z" fill="white"/>
<path d="M137.783 12.6806C137.284 12.6806 136.951 12.7258 136.784 12.8161C136.557 12.9515 136.444 13.2525 136.444 13.719V14.983C136.444 15.2388 136.474 15.4345 136.535 15.5699C136.61 15.6903 136.792 15.7505 137.079 15.7505C137.745 15.7505 138.078 15.5097 138.078 15.0282V14.7347C138.063 14.6444 138.055 14.5316 138.055 14.3961C138.055 13.7641 138.426 13.4481 139.167 13.4481C139.939 13.4481 140.325 13.8318 140.325 14.5993C140.325 14.81 140.31 15.0432 140.279 15.299C140.219 15.7956 140.189 16.2546 140.189 16.676C140.189 17.0672 140.219 17.5638 140.279 18.1657C140.34 18.7677 140.37 19.189 140.37 19.4298C140.37 20.3176 139.969 20.7616 139.167 20.7616C138.411 20.7616 138.032 20.3778 138.032 19.6104C138.032 19.5351 138.032 19.4975 138.032 19.4975C138.032 19.4223 138.048 19.2417 138.078 18.9558C138.078 18.5946 137.753 18.414 137.102 18.414C136.663 18.414 136.444 18.6548 136.444 19.1363V20.8293C136.444 21.356 136.535 21.7171 136.716 21.9127C136.913 22.0933 137.268 22.1836 137.783 22.1836H139.099C140.068 22.1836 140.741 22.1009 141.119 21.9353C141.512 21.7698 141.709 21.4763 141.709 21.055C141.709 20.8443 141.686 20.596 141.641 20.3101C141.596 20.0091 141.573 19.7608 141.573 19.5652C141.573 19.0084 141.732 18.572 142.05 18.256C142.367 17.94 142.799 17.782 143.343 17.782C144.448 17.782 145 18.3839 145 19.5878C145 19.979 144.977 20.3929 144.932 20.8293C144.856 21.5516 144.818 22.003 144.818 22.1836C144.818 22.3491 144.856 22.6727 144.932 23.1542C144.977 23.4401 145 23.7336 145 24.0346C145 24.7418 144.554 25.0955 143.661 25.0955C143.374 25.0955 142.897 25.0729 142.231 25.0277C141.127 24.9525 139.364 24.8998 136.943 24.8697C136.943 24.8697 136.27 24.8697 134.923 24.8697C134.167 24.8697 133.539 24.8923 133.039 24.9375L131.315 25.0955C131.299 25.0955 131.269 25.103 131.224 25.118C131.178 25.118 131.141 25.118 131.11 25.118C130.641 25.118 130.255 24.96 129.953 24.644C129.665 24.328 129.522 23.9292 129.522 23.4477C129.522 23.0263 129.635 22.6727 129.862 22.3868C130.104 22.1009 130.407 21.9579 130.77 21.9579C130.891 21.9579 131.072 21.988 131.315 22.0482C131.557 22.0933 131.731 22.1159 131.837 22.1159C132.245 22.1159 132.449 21.6043 132.449 20.581V14.3284C132.449 13.3202 132.245 12.8161 131.837 12.8161C131.746 12.8161 131.564 12.8462 131.292 12.9064C131.095 12.9515 130.921 12.9741 130.77 12.9741C130.422 12.9741 130.127 12.8311 129.885 12.5452C129.643 12.2593 129.522 11.9057 129.522 11.4843C129.522 10.3858 130.074 9.83652 131.178 9.83652C131.436 9.83652 131.958 9.86662 132.744 9.92681C133.925 10.0171 135.067 10.0622 136.171 10.0622C136.277 10.0622 137.185 10.0397 138.895 9.99453C140.136 9.96443 140.953 9.93434 141.346 9.90424C141.997 9.85909 142.678 9.83652 143.389 9.83652C144.236 9.83652 144.66 10.2052 144.66 10.9426C144.66 11.1833 144.629 11.537 144.569 12.0035C144.523 12.47 144.501 12.8236 144.501 13.0644C144.501 13.3051 144.531 13.6513 144.592 14.1027C144.667 14.5391 144.705 14.8702 144.705 15.0959C144.705 15.5323 144.539 15.901 144.206 16.2019C143.888 16.5029 143.487 16.6534 143.003 16.6534C141.868 16.6534 141.301 16.074 141.301 14.9153C141.301 14.7197 141.331 14.4488 141.391 14.1027C141.467 13.7566 141.505 13.5008 141.505 13.3352C141.505 13.0042 141.331 12.801 140.983 12.7258C140.862 12.6957 140.544 12.6806 140.03 12.6806H137.783Z" fill="white"/>
<path d="M145 30.9434H29.2869V59.5065L36.4549 53.6474H120.424L126.568 47.7883H86.6141L88.3808 45.2249L128.616 45.5911L135.784 39.5123H92.3004L93.6731 37.5348H137.832L145 30.9434Z" fill="#BF0A30"/>
<path d="M49.177 34.8476L54.1072 46.6502V38.4877C54.1072 37.2559 53.8645 36.6401 53.3789 36.6401C53.2482 36.6401 53.0521 36.6768 52.7907 36.7504C52.5479 36.8055 52.3611 36.8331 52.2304 36.8331C51.8382 36.8331 51.5021 36.6584 51.2219 36.3091C50.9605 35.9598 50.8298 35.5278 50.8298 35.0131C50.8298 34.4064 51.0072 33.9192 51.362 33.5515C51.7168 33.1838 52.1837 33 52.7626 33C53.0614 33 53.575 33.046 54.3033 33.1379C55.0317 33.2298 55.676 33.2758 56.2362 33.2758C56.7404 33.2758 57.3287 33.239 58.001 33.1655C59.0095 33.0552 59.6351 33 59.8778 33C60.4754 33 60.961 33.1838 61.3345 33.5515C61.708 33.9192 61.8947 34.4064 61.8947 35.0131C61.8947 35.5278 61.7453 35.9598 61.4465 36.3091C61.1477 36.6584 60.7836 36.8331 60.3541 36.8331C60.186 36.8331 59.9619 36.8055 59.6818 36.7504C59.4016 36.6768 59.1869 36.6401 59.0375 36.6401C58.664 36.6401 58.4212 36.8699 58.3091 37.3295C58.2718 37.5133 58.2531 37.8994 58.2531 38.4877V49.7112C58.2531 50.9245 57.7489 51.5312 56.7404 51.5312C56.5537 51.5312 56.2642 51.522 55.872 51.5036C55.4985 51.4669 55.2184 51.4485 55.0317 51.4485C55.013 51.4485 54.5554 51.4669 53.659 51.5036C53.659 51.5036 53.4536 51.5036 53.0428 51.5036C52.5012 51.5036 52.0997 51.3749 51.8382 51.1176C51.6888 50.9705 51.4741 50.5752 51.1939 49.9318L45.7875 37.7983V46.1263C45.7875 47.3764 46.0303 48.0015 46.5158 48.0015C46.6466 48.0015 46.8426 47.9739 47.1041 47.9187C47.3842 47.8452 47.5896 47.8084 47.7204 47.8084C48.1125 47.8084 48.4394 47.9831 48.7008 48.3324C48.9809 48.6817 49.121 49.1137 49.121 49.6284C49.121 50.9705 48.4674 51.6415 47.1601 51.6415C46.7866 51.6415 46.1703 51.5864 45.3113 51.4761C44.7324 51.4025 44.1534 51.3657 43.5745 51.3657C43.089 51.3657 42.4353 51.4117 41.6136 51.5036C40.7919 51.5956 40.269 51.6415 40.0449 51.6415C38.6816 51.6415 38 50.9705 38 49.6284C38 49.1137 38.1401 48.6817 38.4202 48.3324C38.719 47.9831 39.0832 47.8084 39.5127 47.8084C39.6808 47.8084 39.9049 47.8452 40.185 47.9187C40.4838 47.9739 40.7079 48.0015 40.8573 48.0015C41.3615 48.0015 41.6136 47.3764 41.6136 46.1263V38.4877C41.6136 37.2559 41.3615 36.6401 40.8573 36.6401C40.7079 36.6401 40.4838 36.6768 40.185 36.7504C39.9049 36.8055 39.6808 36.8331 39.5127 36.8331C39.0832 36.8331 38.719 36.6584 38.4202 36.3091C38.1401 35.9598 38 35.5278 38 35.0131C38 34.4064 38.1868 33.9192 38.5603 33.5515C38.9338 33.1838 39.4193 33 40.0169 33C40.4091 33 40.9787 33.046 41.7257 33.1379C42.4727 33.2298 43.0609 33.2758 43.4905 33.2758C43.8453 33.2758 44.4522 33.239 45.3113 33.1655C45.7035 33.1471 46.1517 33.1103 46.6559 33.0552C46.88 33.0184 47.1228 33 47.3842 33C47.8884 33 48.2806 33.193 48.5608 33.5791C48.6728 33.7262 48.8782 34.149 49.177 34.8476Z" fill="white"/>
<path d="M68.4504 47.0087C67.7781 47.0087 67.2645 46.6594 66.9097 45.9608C66.7042 46.2366 66.6015 46.5031 66.6015 46.7605C66.6015 47.2569 66.8256 47.6705 67.2738 48.0015C67.7407 48.314 68.329 48.4702 69.0386 48.4702C70.3085 48.4702 71.2516 48.0198 71.8679 47.119C72.2601 46.5491 72.4562 45.6575 72.4562 44.4441V38.074C72.4562 37.5593 72.4001 37.21 72.2881 37.0261C72.1387 36.7687 71.8399 36.6401 71.3917 36.6401C71.1863 36.6401 70.8781 36.6768 70.4673 36.7504C70.0751 36.8055 69.7763 36.8331 69.5709 36.8331C69.16 36.8331 68.8145 36.6676 68.5344 36.3367C68.2729 36.0058 68.1422 35.5738 68.1422 35.0406C68.1422 34.4156 68.329 33.9192 68.7025 33.5515C69.0946 33.1838 69.5989 33 70.2151 33C70.626 33 71.1582 33.0368 71.8119 33.1103C72.783 33.2206 73.7821 33.2758 74.8092 33.2758C75.4255 33.2758 76.1725 33.2298 77.0502 33.1379C77.9466 33.046 78.5256 33 78.787 33C79.4406 33 79.9729 33.1838 80.3837 33.5515C80.7946 33.9192 81 34.3972 81 34.9855C81 35.5002 80.8413 35.9415 80.5238 36.3091C80.2063 36.6584 79.8048 36.8331 79.3192 36.8331C79.0765 36.8331 78.843 36.7963 78.6189 36.7228C78.2267 36.6676 78.04 36.6401 78.0587 36.6401C77.5918 36.6401 77.3584 37.118 77.3584 38.074V45.3266C77.3584 46.5215 77.1996 47.4775 76.8821 48.1945C76.5833 48.9115 76.0511 49.5733 75.2854 50.18C73.7541 51.3933 71.8866 52 69.6829 52C67.5913 52 65.8545 51.4761 64.4726 50.4282C63.0906 49.3619 62.3996 48.0198 62.3996 46.402C62.3996 45.0968 62.8572 43.9845 63.7722 43.0653C64.6873 42.1277 65.7798 41.6589 67.0497 41.6589C68.0582 41.6589 68.9172 41.9531 69.6269 42.5414C70.3365 43.1113 70.6914 43.8099 70.6914 44.6372C70.6914 45.299 70.4673 45.8597 70.0191 46.3193C69.5895 46.7789 69.0666 47.0087 68.4504 47.0087Z" fill="white"/>
<path d="M15.4906 7.72139C15.0434 7.71317 14.4866 7.70495 14.0394 7.69673C14.0394 7.33491 14.0394 6.96925 14.0394 6.60307C15.0932 6.60307 16.1219 6.60307 17 6.60307C13.8889 3.64746 12.9104 2.55146 10.1418 0C8.64953 1.44487 7.62225 2.40812 6.0815 3.85299C4.46244 5.3713 4.37649 5.33075 3 6.55373C4.60467 6.56195 4.3106 6.53728 5.91526 6.55373C5.91526 6.96925 5.91526 7.34725 5.91526 7.75429C5.45052 7.77073 5.10855 7.80362 4.64381 7.82007C4.64381 10.0649 4.60573 11.7409 4.60573 13.9858C8.46395 14.0351 11.6324 13.9364 15.4906 13.9858C15.4906 11.6705 15.4906 10.0405 15.4906 7.72139ZM6.38 7.75429C6.38 7.34725 6.38 6.94563 6.38 6.55373C7.07273 6.56195 7.77422 6.56195 8.46694 6.57017C8.46694 6.94563 8.46694 7.3 8.46694 7.69673C7.76545 7.70495 7.08149 7.73784 6.38 7.75429ZM8.92115 7.69673C8.92115 7.31847 8.92115 6.94563 8.92115 6.57017C9.61387 6.5784 10.3347 6.5784 11.0274 6.58662C11.0274 6.94563 11.0274 7.32362 11.0274 7.68028C10.3347 7.68028 9.62264 7.6885 8.92115 7.69673ZM11.5305 7.68028C11.5305 7.31847 11.5305 6.94563 11.5305 6.58662C12.2232 6.59484 12.8951 6.59484 13.5878 6.60307C13.5878 7.0165 13.5878 7.34725 13.5878 7.69673C12.8863 7.68028 12.232 7.68028 11.5305 7.68028Z" fill="#BF0A30"/>
<path d="M7.97377 55.7492C5.2531 55.5594 2.95488 55.0809 0.407072 54C0.256759 57.3333 0.150313 60.6667 0 64C6.86181 63.7607 14.0319 63.8049 21 64C20.8873 61.2937 20.5 57 20 54C18.5872 55.0976 15.3619 55.6667 14.7982 55.7492C11.4763 56.2607 11.3107 55.9884 7.97377 55.7492Z" fill="white"/>
<path d="M12.1412 54.9138C13.7545 54.88 14.5569 54.8444 16.1558 54.5404C16.5609 54.4644 18.8054 53.8404 20.022 53.3037C19.776 48.5321 19.3401 43.7632 19.0001 39C18.5378 39.21 16.3748 40.4467 14.8419 40.75C11.3976 41.4316 9.26657 41.4463 6.69106 41.1001C4.54963 40.8045 3.34915 40.33 1.5 39C1 45 0.745742 49.1736 0.526764 53.3037C1.77834 53.8949 3.29901 54.2533 4.62293 54.5404C7.58187 55.1907 9.13883 54.9813 12.1412 54.9138Z" fill="white"/>
<path d="M14.5625 40.0815C16.4124 39.5091 16.7754 39.5839 18.9999 38.2916C18.6687 33.1312 18.3638 29.1509 17.9462 24C16.9597 24.3618 15.5706 24.5448 14.5625 24.7829C9.5 25.5 6.17613 25.152 1.99989 24C1.83428 28.4654 1.66561 33.5346 1.5 38C2.50806 38.8188 4.36233 39.6816 5.5 40.0815C7.5 40.7845 12.7127 40.654 14.5625 40.0815Z" fill="white"/>
<path d="M17.9999 22.9158C17.6877 19.9584 17.4862 17.3199 17.1926 14C12.2752 14 7.37773 14 2.5 14C2.35876 17.0573 2.21009 20.1222 2.06886 23.1795C3.14671 23.4176 4.17053 23.602 5.26325 23.7249C9.55238 24.2088 13.8446 24.1219 17.9999 22.9158Z" fill="white"/>
<path d="M13.5 48.5C15.4564 52.4128 16.4448 58.8464 17 64C12.7863 64 8.12496 63.8722 4.01998 64C3.8938 60.7375 4.38503 57.5303 4.94021 54.3189C5.40286 51.6186 6.52188 48.7266 8.5239 46.9719C9.23891 46.3415 10.1642 45.8645 11.0811 46.0348C12.2588 46.2563 13 47.5 13.5 48.5Z" fill="#BF0A30"/>
</svg>
