<svg width="162" height="83" viewBox="0 0 162 83" fill="none" xmlns="http://www.w3.org/2000/svg">
<path d="M41.8212 32.5972C39.3111 32.5972 37.3707 31.8311 36.0001 30.299C34.6294 28.7669 33.9441 26.5936 33.9441 23.7792C33.9441 21.0647 34.6212 18.933 35.9753 17.3843C37.3459 15.8188 39.2285 15.0361 41.623 15.0361C44.1331 15.0361 46.09 15.7939 47.4937 17.3093C48.8974 18.8248 49.5992 20.9398 49.5992 23.6543C49.5992 26.4687 48.9139 28.6669 47.5432 30.249C46.1891 31.8144 44.2817 32.5972 41.8212 32.5972ZM41.7964 18.5333C39.6496 18.5333 38.5762 20.2986 38.5762 23.8291C38.5762 25.5111 38.7826 26.7601 39.1955 27.5761C39.7074 28.592 40.5661 29.0999 41.7716 29.0999C43.9019 29.0999 44.9671 27.3846 44.9671 23.954C44.9671 22.0555 44.7111 20.6816 44.1992 19.8323C43.7038 18.9663 42.9028 18.5333 41.7964 18.5333Z" fill="#BF0A30"/>
<path d="M62.1674 17.0595L66.5271 27.751V20.3569C66.5271 19.2411 66.3124 18.6832 65.8831 18.6832C65.7675 18.6832 65.5941 18.7165 65.3629 18.7831C65.1482 18.8331 64.9831 18.8581 64.8675 18.8581C64.5207 18.8581 64.2234 18.6999 63.9757 18.3835C63.7445 18.0671 63.6289 17.6757 63.6289 17.2094C63.6289 16.6598 63.7858 16.2185 64.0996 15.8855C64.4133 15.5524 64.8262 15.3859 65.3381 15.3859C65.6023 15.3859 66.0565 15.4275 66.7005 15.5108C67.3445 15.594 67.9143 15.6357 68.4097 15.6357C68.8556 15.6357 69.3757 15.6023 69.9702 15.5357C70.862 15.4358 71.4152 15.3859 71.6299 15.3859C72.1583 15.3859 72.5877 15.5524 72.9179 15.8855C73.2482 16.2185 73.4134 16.6598 73.4134 17.2094C73.4134 17.6757 73.2813 18.0671 73.017 18.3835C72.7528 18.6999 72.4308 18.8581 72.051 18.8581C71.9023 18.8581 71.7042 18.8331 71.4565 18.7831C71.2088 18.7165 71.0189 18.6832 70.8867 18.6832C70.5565 18.6832 70.3418 18.8914 70.2427 19.3077C70.2097 19.4743 70.1932 19.824 70.1932 20.3569V30.5238C70.1932 31.6229 69.7473 32.1725 68.8555 32.1725C68.6904 32.1725 68.4344 32.1642 68.0877 32.1475C67.7574 32.1142 67.5097 32.0975 67.3445 32.0975C67.328 32.0975 66.9234 32.1142 66.1308 32.1475C66.1308 32.1475 65.9491 32.1475 65.5858 32.1475C65.1069 32.1475 64.7519 32.0309 64.5207 31.7978C64.3886 31.6646 64.1986 31.3065 63.9509 30.7236L59.1702 19.7324V27.2764C59.1702 28.4088 59.3849 28.975 59.8142 28.975C59.9298 28.975 60.1032 28.9501 60.3344 28.9001C60.5821 28.8335 60.7638 28.8002 60.8794 28.8002C61.2262 28.8002 61.5152 28.9584 61.7463 29.2748C61.9941 29.5912 62.1179 29.9826 62.1179 30.4489C62.1179 31.6646 61.5399 32.2724 60.384 32.2724C60.0537 32.2724 59.5087 32.2224 58.7491 32.1225C58.2372 32.0559 57.7252 32.0226 57.2133 32.0226C56.7839 32.0226 56.206 32.0642 55.4793 32.1475C54.7527 32.2308 54.2904 32.2724 54.0922 32.2724C52.8867 32.2724 52.2839 31.6646 52.2839 30.4489C52.2839 29.9826 52.4078 29.5912 52.6555 29.2748C52.9197 28.9584 53.2417 28.8002 53.6215 28.8002C53.7702 28.8002 53.9683 28.8335 54.216 28.9001C54.4803 28.9501 54.6784 28.975 54.8105 28.975C55.2564 28.975 55.4793 28.4088 55.4793 27.2764V20.3569C55.4793 19.2411 55.2564 18.6832 54.8105 18.6832C54.6784 18.6832 54.4803 18.7165 54.216 18.7831C53.9683 18.8331 53.7702 18.8581 53.6215 18.8581C53.2417 18.8581 52.9197 18.6999 52.6555 18.3835C52.4078 18.0671 52.2839 17.6757 52.2839 17.2094C52.2839 16.6598 52.4491 16.2185 52.7793 15.8855C53.1096 15.5524 53.539 15.3859 54.0674 15.3859C54.4142 15.3859 54.9179 15.4275 55.5784 15.5108C56.239 15.594 56.7592 15.6357 57.139 15.6357C57.4528 15.6357 57.9894 15.6023 58.7491 15.5357C59.0959 15.5191 59.4922 15.4858 59.9381 15.4358C60.1362 15.4025 60.3509 15.3859 60.5821 15.3859C61.028 15.3859 61.3748 15.5607 61.6225 15.9104C61.7216 16.0437 61.9032 16.4267 62.1674 17.0595Z" fill="#BF0A30"/>
<path d="M83.3285 15.0361C85.0866 15.0361 86.5517 15.6273 87.7238 16.8097C87.8745 15.8272 88.3769 15.3359 89.2308 15.3359C90.269 15.3359 90.7881 15.8355 90.7881 16.8347C90.7881 17.0012 90.7546 17.3343 90.6876 17.8339C90.5871 18.5833 90.5369 19.0912 90.5369 19.3577C90.5369 19.6575 90.5536 19.8823 90.5871 20.0322C90.6206 20.5651 90.6374 20.8648 90.6374 20.9314C90.6374 21.3644 90.4448 21.7308 90.0597 22.0306C89.6746 22.3137 89.1806 22.4552 88.5778 22.4552C87.6066 22.4552 87.0206 21.9806 86.8197 21.0314C86.6187 20.0821 86.3257 19.4326 85.9406 19.0829C85.5722 18.7165 84.9778 18.5333 84.1573 18.5333C83.0689 18.5333 82.2233 19.0413 81.6205 20.0571C81.0345 21.0563 80.7415 22.4802 80.7415 24.3287C80.7415 25.8942 81.0261 27.1182 81.5954 28.0008C82.1815 28.8668 82.9852 29.2998 84.0066 29.2998C84.6596 29.2998 85.1955 29.1166 85.6141 28.7502C86.0494 28.3672 86.2671 27.8926 86.2671 27.3263C86.2671 26.6269 85.9741 26.2772 85.388 26.2772C85.3545 26.2772 85.3043 26.2772 85.2373 26.2772C85.1703 26.2938 85.1117 26.3022 85.0615 26.3022C84.7936 26.3355 84.6429 26.3521 84.6094 26.3521C84.2745 26.3521 83.9899 26.2106 83.7554 25.9275C83.521 25.6277 83.4038 25.2613 83.4038 24.8283C83.4038 24.3287 83.5713 23.9291 83.9061 23.6293C84.241 23.3295 84.6764 23.1796 85.2122 23.1796C85.5638 23.1796 86.0913 23.2296 86.7945 23.3295C87.5145 23.4128 88.0587 23.4544 88.4271 23.4544C88.9797 23.4544 89.5908 23.4128 90.2606 23.3295C90.7964 23.2629 91.1648 23.2296 91.3657 23.2296C91.9016 23.2296 92.3285 23.3961 92.6467 23.7292C92.9816 24.0456 93.149 24.4786 93.149 25.0282C93.149 25.5111 93.0318 25.9191 92.7974 26.2522C92.563 26.5686 92.2699 26.7268 91.9183 26.7268L91.3155 26.6769C90.8634 26.6769 90.6374 27.0516 90.6374 27.801C90.6374 28.1174 90.6457 28.4505 90.6625 28.8002L90.7127 29.8743C90.7295 30.2407 90.7378 30.5904 90.7378 30.9235C90.7378 32.0393 90.1183 32.5972 88.8792 32.5972C87.7071 32.5972 87.1211 32.1891 87.1211 31.3731V31.2232C85.9657 32.1392 84.6513 32.5972 83.1778 32.5972C81.8884 32.5972 80.6745 32.2641 79.5359 31.5979C78.3973 30.9152 77.5684 30.0325 77.0493 28.9501C76.3796 27.5678 76.0447 25.9608 76.0447 24.1289C76.0447 21.3311 76.6977 19.1162 78.0038 17.4842C79.3098 15.8522 81.0847 15.0361 83.3285 15.0361Z" fill="white"/>
<path d="M106.292 26.9766H102.951C101.997 26.9766 101.519 27.5428 101.519 28.6753C101.519 28.9417 101.662 29.075 101.946 29.075C102.03 29.075 102.156 29.0666 102.323 29.05C102.491 29.0167 102.616 29 102.7 29C103.319 29 103.629 29.4913 103.629 30.4738C103.629 31.0067 103.487 31.4397 103.202 31.7728C102.918 32.1059 102.541 32.2724 102.072 32.2724C101.838 32.2724 101.319 32.2141 100.515 32.0975C100.163 32.0476 99.6692 32.0226 99.0329 32.0226C98.3464 32.0226 97.8106 32.0476 97.4255 32.0975C96.538 32.2141 96.0106 32.2724 95.8431 32.2724C95.3241 32.2724 94.8971 32.1142 94.5622 31.7978C94.2441 31.4814 94.085 31.065 94.085 30.5488C94.085 29.383 94.5287 28.8002 95.4162 28.8002C95.5166 28.8002 95.6757 28.8168 95.8934 28.8501C96.1111 28.8668 96.2701 28.8751 96.3706 28.8751C96.6887 28.8751 96.9483 28.7003 97.1492 28.3505C97.1994 28.2506 97.3167 27.9425 97.5008 27.4263L100.967 17.6091C101.369 16.4933 101.821 15.7939 102.323 15.5108C102.692 15.3276 103.504 15.236 104.76 15.236C106.166 15.236 107.053 15.3276 107.422 15.5108C107.79 15.6773 108.092 16.1602 108.326 16.9596L111.541 27.6011C111.792 28.4505 112.085 28.8751 112.42 28.8751C112.521 28.8751 112.696 28.8501 112.947 28.8002H113.224C114.161 28.8002 114.63 29.3497 114.63 30.4489C114.63 30.9984 114.463 31.4397 114.128 31.7728C113.793 32.1059 113.358 32.2724 112.822 32.2724C112.587 32.2724 112.278 32.2474 111.893 32.1975C111.424 32.1142 111.114 32.0726 110.963 32.0726C110.595 32.0393 110.118 32.0226 109.532 32.0226C108.895 32.0226 108.468 32.0393 108.251 32.0726C107.397 32.2058 106.861 32.2724 106.643 32.2724C106.191 32.2724 105.814 32.1059 105.513 31.7728C105.228 31.4231 105.086 30.9901 105.086 30.4738C105.086 29.4913 105.404 29 106.04 29C106.124 29 106.25 29.0167 106.417 29.05C106.585 29.0666 106.71 29.075 106.794 29.075C107.112 29.075 107.271 28.9001 107.271 28.5504C107.271 28.1007 107.179 27.726 106.995 27.4263C106.811 27.1265 106.576 26.9766 106.292 26.9766ZM105.915 23.1547L104.709 18.0337L103.152 23.3545C103.135 23.4045 103.127 23.4628 103.127 23.5294C103.127 23.7292 103.336 23.8291 103.755 23.8291H105.312C105.747 23.8291 105.965 23.7126 105.965 23.4794C105.965 23.4961 105.948 23.3878 105.915 23.1547Z" fill="white"/>
<path d="M127.384 16.9346L129.469 26.0524L131.654 17.3093C131.838 16.5766 132.039 16.077 132.257 15.8105C132.491 15.5274 132.818 15.3859 133.236 15.3859C133.604 15.3859 134.165 15.4275 134.919 15.5108C135.672 15.594 136.242 15.6357 136.627 15.6357C137.029 15.6357 138.025 15.569 139.616 15.4358C140.068 15.4025 140.403 15.3859 140.62 15.3859C141.173 15.3859 141.617 15.5524 141.952 15.8855C142.286 16.2019 142.454 16.6432 142.454 17.2094C142.454 17.6757 142.32 18.0671 142.052 18.3835C141.801 18.6999 141.483 18.8581 141.098 18.8581C140.947 18.8581 140.738 18.8331 140.47 18.7831C140.202 18.7165 140.009 18.6832 139.892 18.6832C139.44 18.6832 139.214 19.2411 139.214 20.3569V27.2764C139.214 28.4088 139.432 28.975 139.867 28.975C140.001 28.975 140.202 28.9501 140.47 28.9001C140.738 28.8335 140.938 28.8002 141.072 28.8002C141.458 28.8002 141.784 28.9584 142.052 29.2748C142.32 29.5912 142.454 29.9826 142.454 30.4489C142.454 31.0151 142.286 31.4647 141.952 31.7978C141.617 32.1142 141.173 32.2724 140.62 32.2724C140.302 32.2724 139.766 32.2224 139.013 32.1225C138.511 32.0559 138.008 32.0226 137.506 32.0226C137.188 32.0226 136.719 32.0642 136.099 32.1475C135.48 32.2308 135.011 32.2724 134.693 32.2724C134.191 32.2724 133.78 32.1059 133.462 31.7728C133.161 31.4397 133.01 30.9984 133.01 30.4489C133.01 29.4163 133.353 28.9001 134.04 28.9001C134.14 28.9001 134.216 28.9084 134.266 28.9251C134.316 28.9251 134.375 28.9251 134.442 28.9251C134.509 28.9417 134.551 28.9501 134.567 28.9501C134.835 28.9501 134.994 28.7669 135.044 28.4005C135.061 28.234 135.07 27.9508 135.07 27.5512V18.1337L131.578 30.4239C131.277 31.4897 130.783 32.0226 130.097 32.0226H128.489C127.819 32.0226 127.359 31.548 127.108 30.5987L123.767 18.1337V27.5512C123.767 28.3339 123.843 28.7752 123.993 28.8751C124.043 28.9251 124.136 28.9501 124.27 28.9501C124.303 28.9501 124.353 28.9417 124.42 28.9251C124.47 28.9251 124.521 28.9251 124.571 28.9251C124.621 28.9084 124.697 28.9001 124.797 28.9001C125.467 28.9001 125.802 29.408 125.802 30.4239C125.802 30.9901 125.651 31.4397 125.35 31.7728C125.048 32.1059 124.646 32.2724 124.144 32.2724C123.91 32.2724 123.608 32.2474 123.24 32.1975C122.771 32.1309 122.478 32.0892 122.361 32.0726C122.009 32.0393 121.607 32.0226 121.155 32.0226C120.586 32.0226 120.109 32.0476 119.723 32.0975C118.685 32.2308 118.166 32.2974 118.166 32.2974C117.647 32.2974 117.22 32.1225 116.885 31.7728C116.55 31.4231 116.383 30.9818 116.383 30.4489C116.383 29.9659 116.509 29.5746 116.76 29.2748C117.028 28.9584 117.362 28.8002 117.764 28.8002C117.898 28.8002 118.091 28.8335 118.342 28.9001C118.61 28.9501 118.811 28.975 118.945 28.975C119.28 28.975 119.489 28.7585 119.573 28.3256C119.606 28.159 119.623 27.8093 119.623 27.2764V20.3569C119.623 19.824 119.606 19.4826 119.573 19.3327C119.489 18.8997 119.28 18.6832 118.945 18.6832C118.811 18.6832 118.61 18.7165 118.342 18.7831C118.091 18.8331 117.89 18.8581 117.739 18.8581C117.354 18.8581 117.028 18.6999 116.76 18.3835C116.509 18.0671 116.383 17.6757 116.383 17.2094C116.383 15.9937 117.002 15.3859 118.242 15.3859C118.643 15.3859 119.313 15.4275 120.251 15.5108C121.189 15.594 121.892 15.6357 122.361 15.6357C123.114 15.6357 123.901 15.5857 124.722 15.4858C125.274 15.4192 125.71 15.3859 126.028 15.3859C126.446 15.3859 126.739 15.4858 126.907 15.6856C127.074 15.8855 127.233 16.3018 127.384 16.9346Z" fill="white"/>
<path d="M154.013 18.5333C153.46 18.5333 153.092 18.5833 152.908 18.6832C152.657 18.8331 152.531 19.1662 152.531 19.6824V21.0813C152.531 21.3644 152.565 21.5809 152.632 21.7308C152.715 21.864 152.916 21.9306 153.234 21.9306C153.971 21.9306 154.339 21.6642 154.339 21.1313V20.8065C154.323 20.7066 154.314 20.5817 154.314 20.4318C154.314 19.7324 154.725 19.3827 155.545 19.3827C156.399 19.3827 156.826 19.8073 156.826 20.6567C156.826 20.8898 156.809 21.1479 156.776 21.431C156.709 21.9806 156.675 22.4885 156.675 22.9548C156.675 23.3878 156.709 23.9374 156.776 24.6035C156.843 25.2697 156.876 25.7359 156.876 26.0024C156.876 26.985 156.433 27.4762 155.545 27.4762C154.708 27.4762 154.289 27.0516 154.289 26.2022C154.289 26.119 154.289 26.0773 154.289 26.0773C154.289 25.9941 154.306 25.7942 154.339 25.4778C154.339 25.0781 153.979 24.8783 153.259 24.8783C152.774 24.8783 152.531 25.1448 152.531 25.6777V27.5512C152.531 28.134 152.632 28.5337 152.832 28.7502C153.05 28.9501 153.444 29.05 154.013 29.05H155.47C156.541 29.05 157.286 28.9584 157.705 28.7752C158.14 28.592 158.358 28.2673 158.358 27.801C158.358 27.5678 158.333 27.293 158.283 26.9766C158.233 26.6436 158.207 26.3688 158.207 26.1523C158.207 25.5361 158.383 25.0532 158.735 24.7034C159.086 24.3537 159.564 24.1789 160.166 24.1789C161.389 24.1789 162 24.845 162 26.1773C162 26.6103 161.975 27.0682 161.925 27.5512C161.841 28.3505 161.799 28.8501 161.799 29.05C161.799 29.2332 161.841 29.5912 161.925 30.1241C161.975 30.4405 162 30.7653 162 31.0983C162 31.8811 161.506 32.2724 160.518 32.2724C160.2 32.2724 159.673 32.2474 158.936 32.1975C157.713 32.1142 155.763 32.0559 153.084 32.0226C153.084 32.0226 152.339 32.0226 150.848 32.0226C150.011 32.0226 149.316 32.0476 148.764 32.0975L146.855 32.2724C146.838 32.2724 146.805 32.2807 146.754 32.2974C146.704 32.2974 146.662 32.2974 146.629 32.2974C146.11 32.2974 145.683 32.1225 145.348 31.7728C145.03 31.4231 144.871 30.9818 144.871 30.4489C144.871 29.9826 144.996 29.5912 145.247 29.2748C145.515 28.9584 145.85 28.8002 146.252 28.8002C146.386 28.8002 146.587 28.8335 146.855 28.9001C147.123 28.9501 147.315 28.975 147.432 28.975C147.885 28.975 148.111 28.4088 148.111 27.2764V20.3569C148.111 19.2411 147.885 18.6832 147.432 18.6832C147.332 18.6832 147.131 18.7165 146.83 18.7831C146.612 18.8331 146.419 18.8581 146.252 18.8581C145.867 18.8581 145.54 18.6999 145.272 18.3835C145.004 18.0671 144.871 17.6757 144.871 17.2094C144.871 15.9937 145.482 15.3859 146.704 15.3859C146.989 15.3859 147.566 15.4192 148.437 15.4858C149.743 15.5857 151.007 15.6357 152.23 15.6357C152.347 15.6357 153.352 15.6107 155.244 15.5607C156.617 15.5274 157.521 15.4941 157.956 15.4608C158.676 15.4108 159.43 15.3859 160.217 15.3859C161.154 15.3859 161.623 15.7939 161.623 16.6099C161.623 16.8763 161.59 17.2677 161.523 17.7839C161.473 18.3002 161.447 18.6916 161.447 18.958C161.447 19.2245 161.481 19.6075 161.548 20.1071C161.632 20.59 161.673 20.9564 161.673 21.2062C161.673 21.6892 161.489 22.0972 161.121 22.4302C160.769 22.7633 160.326 22.9298 159.79 22.9298C158.534 22.9298 157.906 22.2887 157.906 21.0064C157.906 20.7899 157.939 20.4901 158.006 20.1071C158.09 19.7241 158.132 19.441 158.132 19.2578C158.132 18.8914 157.939 18.6666 157.554 18.5833C157.42 18.55 157.069 18.5333 156.499 18.5333H154.013Z" fill="white"/>
<path d="M162 38.7437H33.9441V70.3535L41.8768 63.8694H134.802L141.602 57.3854H97.3862L99.3414 54.5486L143.868 54.9538L151.801 48.2266H103.679L105.198 46.0382H154.067L162 38.7437Z" fill="#BF0A30"/>
<path d="M55.8367 43.4822L61.0579 56.145V47.3876C61.0579 46.0661 60.8007 45.4053 60.2865 45.4053C60.1481 45.4053 59.9404 45.4448 59.6636 45.5237C59.4065 45.5828 59.2087 45.6124 59.0702 45.6124C58.6549 45.6124 58.2989 45.425 58.0023 45.0503C57.7254 44.6755 57.5869 44.212 57.5869 43.6598C57.5869 43.0089 57.7748 42.4862 58.1506 42.0917C58.5264 41.6972 59.0208 41.5 59.6339 41.5C59.9503 41.5 60.4942 41.5493 61.2655 41.6479C62.0368 41.7465 62.7191 41.7959 63.3125 41.7959C63.8464 41.7959 64.4694 41.7564 65.1814 41.6775C66.2494 41.5592 66.9119 41.5 67.169 41.5C67.8019 41.5 68.3161 41.6972 68.7116 42.0917C69.1072 42.4862 69.305 43.0089 69.305 43.6598C69.305 44.212 69.1467 44.6755 68.8303 45.0503C68.5139 45.425 68.1282 45.6124 67.6733 45.6124C67.4953 45.6124 67.258 45.5828 66.9614 45.5237C66.6647 45.4448 66.4373 45.4053 66.279 45.4053C65.8835 45.4053 65.6264 45.6519 65.5077 46.145C65.4682 46.3422 65.4484 46.7564 65.4484 47.3876V59.429C65.4484 60.7308 64.9144 61.3817 63.8464 61.3817C63.6487 61.3817 63.3421 61.3718 62.9268 61.3521C62.5313 61.3126 62.2346 61.2929 62.0368 61.2929C62.017 61.2929 61.5325 61.3126 60.5832 61.3521C60.5832 61.3521 60.3656 61.3521 59.9305 61.3521C59.357 61.3521 58.9318 61.214 58.6549 60.9379C58.4967 60.7801 58.2693 60.356 57.9726 59.6657L52.2471 46.6479V55.5828C52.2471 56.9241 52.5042 57.5947 53.0184 57.5947C53.1569 57.5947 53.3645 57.5651 53.6414 57.5059C53.9381 57.427 54.1556 57.3876 54.294 57.3876C54.7094 57.3876 55.0555 57.575 55.3323 57.9497C55.629 58.3245 55.7773 58.788 55.7773 59.3402C55.7773 60.7801 55.0851 61.5 53.7007 61.5C53.3052 61.5 52.6525 61.4408 51.7428 61.3225C51.1297 61.2436 50.5166 61.2041 49.9035 61.2041C49.3893 61.2041 48.6971 61.2535 47.8269 61.3521C46.9567 61.4507 46.4029 61.5 46.1656 61.5C44.7219 61.5 44 60.7801 44 59.3402C44 58.788 44.1483 58.3245 44.445 57.9497C44.7614 57.575 45.1471 57.3876 45.602 57.3876C45.7799 57.3876 46.0173 57.427 46.3139 57.5059C46.6304 57.5651 46.8677 57.5947 47.0259 57.5947C47.5599 57.5947 47.8269 56.9241 47.8269 55.5828V47.3876C47.8269 46.0661 47.5599 45.4053 47.0259 45.4053C46.8677 45.4053 46.6304 45.4448 46.3139 45.5237C46.0173 45.5828 45.7799 45.6124 45.602 45.6124C45.1471 45.6124 44.7614 45.425 44.445 45.0503C44.1483 44.6755 44 44.212 44 43.6598C44 43.0089 44.1978 42.4862 44.5933 42.0917C44.9889 41.6972 45.5031 41.5 46.1359 41.5C46.5513 41.5 47.1545 41.5493 47.9456 41.6479C48.7366 41.7465 49.3596 41.7959 49.8145 41.7959C50.1903 41.7959 50.833 41.7564 51.7428 41.6775C52.1581 41.6578 52.6328 41.6183 53.1667 41.5592C53.4041 41.5197 53.6612 41.5 53.9381 41.5C54.472 41.5 54.8874 41.7071 55.184 42.1213C55.3027 42.2791 55.5202 42.7327 55.8367 43.4822Z" fill="white"/>
<path d="M78.8877 46.855L80.4897 50.0503L82.2696 46.855C82.6058 46.2436 82.7739 45.8491 82.7739 45.6716C82.7739 45.4546 82.5762 45.2377 82.1806 45.0207C81.6664 44.7446 81.4093 44.2712 81.4093 43.6006C81.4093 42.2002 82.1213 41.5 83.5452 41.5C84.0001 41.5 84.4352 41.5296 84.8505 41.5888C85.8196 41.7268 86.4723 41.7959 86.8085 41.7959C87.1645 41.7959 87.6787 41.7465 88.3511 41.6479C89.0433 41.5493 89.5575 41.5 89.8937 41.5C90.5266 41.5 91.0309 41.6972 91.4067 42.0917C91.8022 42.4862 92 43.0187 92 43.6893C92 44.2416 91.8517 44.7051 91.555 45.0799C91.2781 45.4349 90.9221 45.6124 90.487 45.6124C90.309 45.6124 90.0421 45.573 89.6861 45.4941C89.429 45.4349 89.2312 45.4053 89.0927 45.4053C88.8159 45.4053 88.6082 45.4744 88.4698 45.6124C88.3313 45.7505 88.0446 46.1647 87.6095 46.855L83.6936 53.0976C83.2585 53.8077 83.0211 54.5769 82.9816 55.4053L82.9519 56.2337C82.9124 57.141 83.2288 57.5947 83.9012 57.5947C84.1188 57.5947 84.4253 57.5651 84.8209 57.5059C85.2164 57.427 85.5131 57.3876 85.7108 57.3876C86.1855 57.3876 86.5712 57.575 86.8678 57.9497C87.1842 58.3245 87.3425 58.8077 87.3425 59.3994C87.3425 60.0503 87.1447 60.5631 86.7491 60.9379C86.3536 61.3126 85.8196 61.5 85.1472 61.5C84.6528 61.5 83.9012 61.4507 82.8926 61.3521C81.884 61.2535 81.1225 61.2041 80.6083 61.2041C80.0546 61.2041 79.2338 61.2535 78.1461 61.3521C77.0583 61.4507 76.2376 61.5 75.6838 61.5C75.0311 61.5 74.5071 61.3028 74.1115 60.9083C73.716 60.5138 73.5182 60.001 73.5182 59.3698C73.5182 58.0483 74.0818 57.3876 75.2091 57.3876C75.4069 57.3876 75.7036 57.427 76.0991 57.5059C76.5144 57.5651 76.821 57.5947 77.0188 57.5947C77.5923 57.5947 77.8791 57.141 77.8791 56.2337V55.4053C77.8791 54.7939 77.622 54.074 77.1078 53.2456L72.7172 46.0562C72.4601 45.6223 72.1239 45.4053 71.7086 45.4053C71.5899 45.4053 71.402 45.4349 71.1449 45.4941C70.8087 45.573 70.5417 45.6124 70.3439 45.6124C69.3946 45.6124 68.92 45.0108 68.92 43.8077C68.92 42.2692 69.6122 41.5 70.9966 41.5C71.3526 41.5 71.9162 41.5493 72.6875 41.6479C73.4589 41.7465 74.0522 41.7959 74.4675 41.7959C75.0213 41.7959 75.7135 41.7367 76.5441 41.6183C77.0979 41.5394 77.5429 41.5 77.8791 41.5C79.2239 41.5 79.8963 42.2396 79.8963 43.7189C79.8963 44.3304 79.6689 44.7544 79.214 44.9911C78.9371 45.1489 78.7394 45.2574 78.6207 45.3166C78.5021 45.3757 78.4427 45.4744 78.4427 45.6124V45.7012C78.4427 45.8787 78.4823 46.0365 78.5614 46.1746C78.5812 46.2535 78.6899 46.4803 78.8877 46.855Z" fill="white"/>
<path d="M8.09204 49.2081L16.1841 33.6021H16.7621L15.6061 36.4921L14.4501 40.5381L10.9821 50.3642L9.24805 57.3002L6.93604 61.3462L8.09204 49.2081Z" fill="white"/>
<path d="M5.78003 46.3179L12.7161 34.7578L13.2941 37.0698L8.67005 47.4739L7.51404 48.6299L6.35803 48.0519L5.78003 46.3179Z" fill="white"/>
<path d="M15.6061 49.786L18.4961 44.584L19.0741 46.896L20.2301 50.364V63.0801L17.9181 63.6581L16.7621 64.2361L14.4501 66.5481L13.8721 64.8141L14.4501 59.6121L15.6061 49.786Z" fill="white"/>
<path d="M12.7162 71.1724V70.5944L16.1842 68.8604V71.1724H15.6062L13.8722 74.6404L13.2942 75.2184H12.7162V72.3284L12.1382 71.7504L12.7162 71.1724Z" fill="white"/>
<path d="M15.6062 74.6403L17.3402 65.3922L19.0742 63.6582L18.4962 73.4843L17.3402 75.7963V78.1083H16.7622L16.1842 77.5303L15.6062 75.7963V75.2183V74.6403Z" fill="white"/>
<path d="M28.9763 40.1128C28.9335 39.9672 28.8288 39.8466 28.6926 39.7795L24.2545 37.6546C23.9969 37.5298 23.6895 37.627 23.548 37.8761L22.2996 40.0672C22.0236 39.3882 21.3047 39.486 21.3047 39.486C21.3047 39.486 20.2659 37.9274 20.187 37.5298C20.1066 37.1307 19.547 34.3328 19.547 34.3328C19.4274 33.6934 19.2688 33.4924 18.8715 33.2535C18.5471 33.0604 17.104 32.2174 16.5596 31.8987C16.476 31.4739 16.2427 30.298 16.1132 29.7782C16.5111 29.4585 16.9264 29.1179 16.7672 28.7796C16.6058 28.439 16.0715 27.2817 15.9518 26.6429C16.35 26.4638 16.6016 26.1235 16.3329 25.8038C16.1674 25.6082 15.9923 25.4445 16.0623 25.2828C16.1373 25.1106 16.1921 24.9378 16.2386 24.7665L20.5979 24.4525L16.3386 23.7267C16.3278 23.5694 16.3051 23.4099 16.2696 23.2582L20.2067 21.6037L15.7764 22.2023C15.6973 22.0928 15.6109 21.9867 15.5159 21.8873L18.1606 18.4599L14.573 21.1871C14.2419 21.0137 13.8785 20.894 13.4869 20.8247L12.9172 16.7139L12.3509 20.7845C11.9233 20.8272 11.5181 20.9368 11.1433 21.0909L7.71842 18.407L10.164 21.6737C9.9886 21.8193 9.83445 21.9794 9.69423 22.1523L6.98184 21.968C6.95968 21.8326 6.93024 21.6904 6.89289 21.5394C6.7552 20.9735 5.9034 16.9234 5.6353 15.7554C5.36403 14.5852 5.42607 13.1468 5.42607 13.1468C5.42607 13.1468 5.84326 11.8285 5.9034 11.4103C5.96449 10.9928 5.96449 10.3021 5.9034 10.1227C5.84295 9.94129 5.5147 9.10279 5.5147 9.10279L4.84839 8.41813C5.08928 8.27917 5.23931 8.10128 5.24944 7.90091C5.25356 7.79614 5.21431 7.69516 5.14973 7.59577C6.12878 7.45903 6.80553 7.13331 6.82294 6.72372C6.82895 6.56482 6.73526 6.4113 6.56591 6.26727V5.47689L6.53854 5.07091C6.51468 4.71708 6.30521 4.40235 5.98802 4.24375L5.50003 3.99976L5.47761 3.93959C5.46638 3.90945 5.43761 3.88946 5.40545 3.88946V3.88946H5.33491H4.6762L4.50003 3.99976L4.11995 4.25075L4.01775 3.82384L3.69811 4.1136L3.77344 3.99976H3.54007L3.50003 3.82384L3.19086 4.25075C3.19086 4.25075 3.00003 3.74371 3.00003 4.1136L2.76209 4.05814L2.76109 4.05421C2.72506 3.91232 2.61403 3.80167 2.47202 3.76611V3.76611L2.00003 3.99976L1.51202 4.2572C1.40832 4.3119 1.31505 4.38442 1.23647 4.47143L1.1117 4.60958L1.02335 4.742C0.92513 4.88921 0.872715 5.0622 0.872716 5.23917V5.23917V6.0036C0.676464 6.13148 0.563145 6.2812 0.555548 6.44358C0.539722 6.8 1.0294 7.13774 1.78845 7.3685C1.67228 7.47739 1.59916 7.60179 1.59283 7.73695C1.5808 8.00473 1.82105 8.25448 2.2009 8.43427C2.05339 8.5574 1.84733 8.73878 1.72894 8.88154C1.58397 9.05658 1.51433 9.46871 2.0401 9.70294C1.5922 10.0635 1.53079 10.3914 2.12873 10.7795C1.74002 11.1707 1.64095 11.3315 1.91063 11.7797C2.12746 12.1418 2.21704 12.2985 2.79028 12.9392C2.79028 12.9392 2.79377 12.9826 2.80453 13.044C2.45697 13.1712 2.22052 13.4058 2.22052 13.6786C2.22052 13.9698 2.49243 14.2221 2.88018 14.3395C2.88018 14.3623 2.88018 14.3848 2.87765 14.4076C2.77003 15.7165 2.79028 19.0512 2.79028 19.8906C2.79028 20.7304 3.12613 21.756 3.23786 22.1681C3.41892 22.8284 3.13974 23.276 3.23786 23.7258C3.33757 24.1749 3.47843 24.4152 3.47843 24.4152C3.47843 24.4152 2.22052 26.3033 1.74002 27.4716C1.08353 29.0727 1.23072 31.3378 3.14924 31.6075L2.40949 33.0148L4.16658 34.9317L3.38885 35.7715L3.98615 36.7914L3.26889 37.7479L4.82465 41.4663C4.82465 41.4663 3.86714 43.6804 3.5085 44.4613C3.14892 45.2384 3.14892 46.4976 3.56738 47.2168C3.98615 47.9353 5.0649 49.5541 5.0649 49.5541C5.0649 49.5541 4.32706 51.0728 4.04819 51.6717C3.76838 52.2715 3.76838 52.8698 4.00704 53.6294C4.24729 54.3882 4.96615 56.3463 4.96615 56.3463L4.88606 60.7793L3.98647 63.757L4.52711 64.8936L3.50914 68.6696L4.16689 72.9251L3.14955 74.1846L3.68893 75.7416L2.84979 76.9406L2.92861 78.0378L1.74034 79.634H2.93874C4.56604 77.2442 5.92588 77.6389 5.68658 79.3561C7.8042 79.3561 8.06407 72.3879 9.71005 72.3879V77.4788C11.5073 76.6393 10.3112 71.9077 11.9888 71.3981C11.9888 71.3981 11.8979 73.3768 11.8979 74.7236C11.8979 78.7082 6.23418 79.6366 6.23418 79.6366H19.4283C19.4283 79.6366 18.392 77.9605 18.4698 77.4788C18.5512 76.9998 19.3109 66.5336 19.3109 66.5336V78.1593L19.9101 78.9576L19.9889 71.1284L20.5564 79.6334H21.9128L21.2671 72.2053C22.1872 71.6466 22.7073 70.9287 22.7073 70.9287L22.1872 64.1352C23.303 63.1381 23.7436 62.1388 23.7436 62.1388C23.7436 62.1388 22.9289 55.6682 22.6649 52.9866C23.6227 52.6254 24.2915 51.4431 24.4223 48.3262V47.3364C25.3231 47.2462 26.073 47.0889 26.3148 46.7885C26.5519 46.4887 28.5002 44.0321 28.6509 43.8536C28.7993 43.6722 28.8386 43.2724 28.7186 43.1227C28.6651 43.054 28.2831 42.5868 27.9539 42.168L28.9237 40.5502C28.9994 40.4179 29.0225 40.2596 28.9763 40.1128ZM7.52311 24.7732L7.5994 24.5446L9.18745 24.7865C9.27862 25.0682 9.40808 25.3559 9.59135 25.6433L9.01937 27.3301L8.00171 26.4818L8.09098 25.5246L7.52311 24.7732ZM15.2529 23.6017C15.206 23.9176 15.1475 23.9473 14.8794 23.7365C14.5727 23.4978 13.7949 23.1345 12.7567 23.1345C11.5377 23.1345 10.759 23.8321 10.4786 24.0724C10.1994 24.3132 10.2099 23.8201 10.2589 23.4317C10.7866 22.8572 11.9267 22.4324 12.796 22.4324C13.9538 22.4324 14.8933 22.9085 15.1934 23.2386C15.1934 23.2386 15.3115 23.2028 15.2529 23.6017ZM13.3565 27.8417C13.1761 27.8417 12.8153 27.8011 12.8153 27.5827C12.8153 27.3415 13.1144 27.2817 13.2755 27.0823C13.435 26.8813 13.3945 26.6224 13.0356 26.8012C12.6757 26.9823 12.5155 26.9427 12.5155 26.7214C12.5155 26.5011 12.5364 25.5436 12.5155 25.1843C12.4981 24.8238 11.9362 24.9235 11.7375 24.9235C11.5374 24.9235 11.118 24.9235 11.2981 24.7646C11.7172 24.393 12.3753 24.2452 12.7333 23.746C13.0213 24.3458 14.5628 24.3547 14.8335 25.0137C14.9604 25.3236 14.7879 25.5689 14.4647 25.3629C14.0554 25.1033 13.2287 24.9837 13.1698 25.3736C13.1175 25.7092 13.5677 26.3612 13.9845 26.2846C14.3144 26.2216 14.7534 25.9282 14.9829 26.0697C15.219 26.2106 15.2722 26.302 15.1934 26.9209C14.9497 28.7786 14.817 28.8258 13.4547 28.9786C12.9039 29.0407 12.3367 28.8998 12.3367 28.2392C12.3367 27.954 12.7754 28.2392 13.0555 28.2392C13.3353 28.2402 13.5341 27.8417 13.3565 27.8417ZM15.5216 31.8154C15.5216 31.8154 13.8753 31.9604 12.4661 31.1526C14.1947 29.7551 14.5932 28.9397 14.5932 28.9397L14.6831 30.7082L15.5216 31.8154ZM9.16941 23.1228C9.09946 23.3491 9.05356 23.5874 9.04533 23.8343L7.48829 24.0103L6.98184 23.3953C6.98184 23.3953 7.09516 23.0547 7.03597 22.3865L9.16941 23.1228ZM3.19086 4.1136L3.8008 4.1136L3.83119 4.05814L3.69811 4.25075V4.1136L3.33035 4.05814L3.19086 4.1136ZM3.50003 4.1136H3.63464L3.83119 3.76611L3.65676 3.99976L3.50003 4.1136ZM1.5884 5.85768V5.52405C1.92488 5.10021 2.77984 4.82229 3.77344 4.86787C4.7642 4.91187 5.5875 5.26417 5.89169 5.71492V6.09951C5.36403 5.85451 4.58092 5.6763 3.69811 5.63674C2.8767 5.59812 2.12778 5.68548 1.5884 5.85768ZM3.94405 14.9812C3.68639 14.9812 3.47938 14.6668 3.47938 14.2797C3.47938 14.2003 3.48951 14.1249 3.5028 14.055C3.31162 13.9901 3.185 13.8837 3.185 13.7619C3.185 13.565 3.52401 13.4023 3.94405 13.4023C4.36125 13.4023 4.70405 13.565 4.70405 13.7619C4.70405 13.8837 4.57554 13.9901 4.38245 14.055C4.39638 14.1249 4.40714 14.2003 4.40714 14.2797C4.40714 14.6668 4.20013 14.9812 3.94405 14.9812ZM4.79648 15.7858C4.79648 15.7858 5.96798 20.9754 6.11643 21.51C6.14714 21.6341 6.17468 21.7702 6.19683 21.9136C6.21076 21.9775 6.21899 22.0418 6.22722 22.1064C6.31522 22.7825 6.3073 23.5738 6.28325 24.1474C6.28261 24.2154 6.27755 24.2813 6.27755 24.3408C6.25666 24.6934 6.23323 24.9248 6.23323 24.9248L5.12663 26.1824C5.12663 26.1824 4.8848 24.5358 4.85631 24.2642C4.8237 23.9967 5.60586 23.5754 5.60586 23.5754L4.58662 22.6783L4.34637 16.235L4.79648 15.7858ZM4.58662 30.1691L6.67986 25.4667L7.19107 26.2444L7.10054 27.3846L4.58662 30.1691ZM6.29401 37.8375L8.7212 29.8687L5.9933 32.5359C5.9933 32.5359 7.40378 29.3917 7.73108 27.4431C8.30147 27.9825 9.6784 28.6707 9.65086 30.7965C10.0975 31.5461 11.5377 33.5538 11.5377 33.5538L11.3573 31.6942C11.3573 31.6942 12.7057 32.5359 13.6658 32.8363C13.6658 32.8363 10.9069 35.0216 9.55843 36.7005L10.88 36.6385L8.90036 38.7371L9.4698 31.5461L6.29401 37.8375ZM12.594 38.2471L9.71891 40.2859L12.557 35.372L12.594 38.2471ZM9.2802 42.0436L11.4776 40.3657L7.08408 47.557L9.2802 42.0436ZM8.80983 49.3436C9.89174 46.1697 14.9832 35.3524 16.5114 33.7336C17.2575 34.588 18.2492 36.4609 18.7889 37.8973C20.0896 41.3697 20.4982 45.0631 20.7365 46.7385C19.8072 45.6901 18.5502 41.4663 18.19 40.7759C18.008 40.3562 17.7108 40.3255 16.9619 40.7759C16.5469 41.0263 16.7808 41.3757 17.2009 42.094C17.6206 42.8125 18.19 43.531 18.19 43.531L16.0623 45.8987L16.2547 36.0703L13.605 54.1698L11.056 56.8961L15.6144 36.3106L11.0281 49.3749L10.9382 45.8091L7.5497 60.013L8.80983 49.3436ZM14.8734 78.6803C14.7534 78.441 14.6727 78.0014 14.1165 77.9615C14.435 79.2387 13.9548 78.1207 12.9966 78.7189C12.1252 79.2643 11.3981 77.8396 12.1971 76.9223C12.0388 77.4427 12.3522 78.2036 12.9169 77.8808C13.4768 77.5604 14.6338 77.5193 14.6338 77.5193L13.0356 76.922C13.0356 76.922 13.0356 76.7222 14.5125 76.922C14.1555 76.5621 13.3967 76.3225 12.5953 76.2417C13.1144 75.8033 13.995 75.6444 13.995 75.6444L15.7916 71.0496C15.7916 71.0496 14.7151 75.8831 14.6724 76.2018C14.6334 76.5222 15.3327 77.0521 15.4916 77.5699C15.6511 78.089 16.2323 78.1982 16.2323 78.9196C15.7125 78.5597 14.9924 78.9199 14.8734 78.6803ZM12.9552 75.244V71.0499L13.555 72.7668L15.8717 69.5331L12.9552 75.244ZM17.0223 77.4797L16.4646 75.5232L17.0223 69.1713V77.4797ZM17.802 73.6471V65.4666L18.8836 64.1479L17.802 73.6471ZM20.3599 62.0914L19.8347 56.2671L19.4163 62.6368L18.008 63.4579L17.8298 52.6124L16.7523 64.1764C16.0303 64.5971 15.5527 64.975 15.5527 64.975C15.2713 65.2013 15.0908 65.3564 15.0908 65.654C15.0908 65.9043 15.6492 66.3114 15.8853 66.4845C16.4959 66.934 16.5909 67.3639 16.5662 67.6475C16.5292 68.0403 16.2474 68.3689 15.7312 68.618C15.0342 68.9554 9.07888 71.3671 9.07888 71.3671L11.3744 59.9519L10.8929 68.5493L13.6949 58.0641L12.0056 69.1165C13.2603 68.5781 15.0598 68.0387 15.3744 67.8862C15.6631 67.7453 15.7486 67.6238 15.7527 67.5715C15.7584 67.5161 15.6913 67.3563 15.4004 67.1429C14.8129 66.708 14.2868 66.2709 14.2764 65.6679C14.2742 65.5606 14.2928 65.4536 14.3226 65.3485C14.817 62.0059 15.7461 56.0022 16.2117 49.4971L18.3682 46.3216L19.8946 55.2479L20.6476 47.9954L21.9676 61.1608L20.3599 62.0914ZM25.9144 45.5698C25.9071 45.5607 25.8964 45.5584 25.8875 45.5461C25.7217 45.3511 25.3624 45.0054 25.1411 44.7231C25.0218 44.5727 24.9275 44.4474 24.9015 44.4012C24.8265 44.2657 24.7822 43.9954 25.0645 44.0122C25.2348 44.0198 25.32 44.0903 25.4368 44.2306C25.5156 44.3252 26.0116 44.8206 26.1582 45.0067C26.1787 45.0343 26.1889 45.0615 26.2044 45.0884C26.3838 45.4198 26.1433 45.7882 25.9144 45.5698ZM27.995 42.9793C28.1739 43.2196 27.9251 43.5494 27.6446 43.2503C27.599 43.1984 27.5705 43.1591 27.4363 43.0138C27.185 42.7372 26.8463 42.3706 26.6687 42.1889C26.632 42.1525 26.601 42.1218 26.5801 42.1035C26.4491 41.9841 26.2471 41.7423 26.1841 41.5489C26.0306 41.7686 26.0366 42.1209 26.3595 42.4447C26.3835 42.4659 26.4155 42.5001 26.4541 42.5406C26.6507 42.7454 27.0169 43.1293 27.2303 43.355C27.3303 43.4592 27.3987 43.531 27.3987 43.531C27.6994 43.8127 27.3977 44.1698 27.1587 43.9501C27.1318 43.9283 27.0932 43.8887 27.0498 43.8422C26.8368 43.6206 26.4908 43.2708 26.3205 43.1138C26.2882 43.0797 26.13 42.9708 26.0201 42.9337C25.8267 42.866 25.4846 42.8128 25.181 42.8821C24.9794 42.929 24.961 43.2031 24.961 43.2031C25.2817 43.2227 25.5444 43.262 25.7125 43.3319C25.752 43.3493 25.8483 43.3987 25.929 43.4649C26.1892 43.6792 26.5712 44.0831 26.7092 44.2211C26.9688 44.4806 26.6972 44.9102 26.481 44.681C26.4709 44.6706 26.4611 44.6604 26.4503 44.6503C26.136 44.3186 25.8749 44.0584 25.6634 43.8561C25.6634 43.8561 25.6628 43.8545 25.6628 43.8514C25.4624 43.6732 25.1114 43.6307 24.974 43.6206C24.8309 43.6127 24.6923 43.6206 24.572 43.8311C24.4245 44.0919 24.3944 44.1711 24.3723 44.2815C24.3587 44.3575 24.358 44.5344 24.4967 44.7155C24.5885 44.8314 24.7426 45.0643 24.861 45.1919L22.3005 49.4461L21.6235 43.45L24.2441 38.8536L27.681 40.5012L27.0641 41.5308L26.9147 41.78C27.1625 42.0522 27.4487 42.3659 27.6772 42.6169C27.9061 42.8733 27.995 42.9793 27.995 42.9793Z" fill="white"/>
<path d="M24.9946 80.3057H0V82.7325H24.9946V80.3057Z" fill="#BF0A30"/>
<path d="M6 3C6 4.65685 5.65685 4.5 4 4.5C2.34315 4.5 1.5 4.65685 1.5 3C1.5 1.34315 2.5 0 3.5 0C4.5 0 6 0.5 6 3Z" fill="#BF0A30"/>
</svg>
