<svg width="234" height="50" viewBox="0 0 234 50" fill="none" xmlns="http://www.w3.org/2000/svg">
<path d="M125.405 15.8684C123.137 15.8684 121.383 15.1762 120.145 13.7917C118.906 12.4073 118.287 10.4435 118.287 7.90034C118.287 5.44747 118.899 3.52129 120.122 2.12181C121.361 0.707269 123.062 0 125.226 0C127.494 0 129.262 0.684696 130.53 2.05409C131.799 3.42348 132.433 5.33461 132.433 7.78747C132.433 10.3306 131.814 12.317 130.575 13.7466C129.352 15.1611 127.628 15.8684 125.405 15.8684ZM125.382 3.16014C123.442 3.16014 122.473 4.75525 122.473 7.94548C122.473 9.46536 122.659 10.594 123.032 11.3313C123.495 12.2493 124.271 12.7083 125.36 12.7083C127.285 12.7083 128.247 11.1583 128.247 8.05834C128.247 6.34284 128.016 5.10136 127.554 4.3339C127.106 3.55139 126.382 3.16014 125.382 3.16014Z" fill="#BF0A30"/>
<path d="M143.79 1.82836L147.729 11.4893V4.80792C147.729 3.79969 147.535 3.29557 147.147 3.29557C147.043 3.29557 146.886 3.32567 146.677 3.38586C146.483 3.431 146.334 3.45358 146.23 3.45358C145.916 3.45358 145.648 3.31062 145.424 3.0247C145.215 2.73878 145.111 2.38515 145.111 1.9638C145.111 1.46721 145.252 1.06843 145.536 0.767462C145.819 0.466497 146.192 0.316015 146.655 0.316015C146.894 0.316015 147.304 0.353635 147.886 0.428877C148.468 0.504118 148.983 0.541738 149.43 0.541738C149.833 0.541738 150.303 0.511642 150.841 0.451449C151.646 0.361159 152.146 0.316015 152.34 0.316015C152.818 0.316015 153.206 0.466497 153.504 0.767462C153.803 1.06843 153.952 1.46721 153.952 1.9638C153.952 2.38515 153.832 2.73878 153.594 3.0247C153.355 3.31062 153.064 3.45358 152.721 3.45358C152.586 3.45358 152.407 3.431 152.184 3.38586C151.96 3.32567 151.788 3.29557 151.669 3.29557C151.37 3.29557 151.176 3.48367 151.087 3.85988C151.057 4.01036 151.042 4.32638 151.042 4.80792V13.9949C151.042 14.9881 150.639 15.4847 149.833 15.4847C149.684 15.4847 149.453 15.4771 149.139 15.4621C148.841 15.432 148.617 15.4169 148.468 15.4169C148.453 15.4169 148.087 15.432 147.371 15.4621C147.371 15.4621 147.207 15.4621 146.879 15.4621C146.446 15.4621 146.125 15.3567 145.916 15.1461C145.797 15.0257 145.625 14.7022 145.401 14.1755L141.082 4.24361V11.0605C141.082 12.0838 141.276 12.5954 141.663 12.5954C141.768 12.5954 141.925 12.5728 142.134 12.5277C142.357 12.4675 142.522 12.4374 142.626 12.4374C142.939 12.4374 143.2 12.5803 143.409 12.8663C143.633 13.1522 143.745 13.5058 143.745 13.9272C143.745 15.0257 143.223 15.5749 142.178 15.5749C141.88 15.5749 141.387 15.5298 140.701 15.4395C140.238 15.3793 139.776 15.3492 139.313 15.3492C138.925 15.3492 138.403 15.3868 137.746 15.4621C137.09 15.5373 136.672 15.5749 136.493 15.5749C135.404 15.5749 134.859 15.0257 134.859 13.9272C134.859 13.5058 134.971 13.1522 135.195 12.8663C135.434 12.5803 135.724 12.4374 136.068 12.4374C136.202 12.4374 136.381 12.4675 136.605 12.5277C136.844 12.5728 137.023 12.5954 137.142 12.5954C137.545 12.5954 137.746 12.0838 137.746 11.0605V4.80792C137.746 3.79969 137.545 3.29557 137.142 3.29557C137.023 3.29557 136.844 3.32567 136.605 3.38586C136.381 3.431 136.202 3.45358 136.068 3.45358C135.724 3.45358 135.434 3.31062 135.195 3.0247C134.971 2.73878 134.859 2.38515 134.859 1.9638C134.859 1.46721 135.008 1.06843 135.307 0.767462C135.605 0.466497 135.993 0.316015 136.471 0.316015C136.784 0.316015 137.239 0.353635 137.836 0.428877C138.433 0.504118 138.903 0.541738 139.246 0.541738C139.53 0.541738 140.015 0.511642 140.701 0.451449C141.014 0.436401 141.373 0.406304 141.775 0.361159C141.954 0.331063 142.148 0.316015 142.357 0.316015C142.76 0.316015 143.074 0.474021 143.297 0.790034C143.387 0.91042 143.551 1.25653 143.79 1.82836Z" fill="#BF0A30"/>
<path d="M162.911 0C164.5 0 165.824 0.534214 166.883 1.60264C167.019 0.714793 167.473 0.270869 168.245 0.270869C169.183 0.270869 169.652 0.722317 169.652 1.62521C169.652 1.7757 169.622 2.07666 169.561 2.52811C169.47 3.20528 169.425 3.66425 169.425 3.90502C169.425 4.17589 169.44 4.37904 169.47 4.51448C169.501 4.99602 169.516 5.26689 169.516 5.32708C169.516 5.71834 169.342 6.0494 168.994 6.32027C168.646 6.57609 168.199 6.704 167.655 6.704C166.777 6.704 166.248 6.27512 166.066 5.41737C165.884 4.55962 165.62 3.97274 165.272 3.65673C164.939 3.32567 164.402 3.16014 163.66 3.16014C162.677 3.16014 161.913 3.61911 161.368 4.53705C160.838 5.43995 160.574 6.72657 160.574 8.39693C160.574 9.81147 160.831 10.9175 161.345 11.7151C161.875 12.4976 162.601 12.8888 163.524 12.8888C164.114 12.8888 164.598 12.7233 164.977 12.3922C165.37 12.0461 165.567 11.6173 165.567 11.1056C165.567 10.4736 165.302 10.1576 164.772 10.1576C164.742 10.1576 164.697 10.1576 164.636 10.1576C164.576 10.1726 164.523 10.1801 164.477 10.1801C164.235 10.2102 164.099 10.2253 164.069 10.2253C163.766 10.2253 163.509 10.0974 163.297 9.84156C163.085 9.57069 162.979 9.23963 162.979 8.84838C162.979 8.39693 163.131 8.03577 163.433 7.7649C163.736 7.49403 164.129 7.3586 164.613 7.3586C164.931 7.3586 165.408 7.40374 166.043 7.49403C166.694 7.56927 167.186 7.60689 167.519 7.60689C168.018 7.60689 168.57 7.56927 169.175 7.49403C169.659 7.43384 169.992 7.40374 170.174 7.40374C170.658 7.40374 171.044 7.55423 171.331 7.85519C171.634 8.14111 171.785 8.53236 171.785 9.02896C171.785 9.46536 171.679 9.83404 171.468 10.135C171.256 10.4209 170.991 10.5639 170.673 10.5639L170.129 10.5187C169.72 10.5187 169.516 10.8573 169.516 11.5345C169.516 11.8204 169.523 12.1214 169.538 12.4374L169.584 13.408C169.599 13.7391 169.607 14.0551 169.607 14.356C169.607 15.3643 169.047 15.8684 167.927 15.8684C166.868 15.8684 166.338 15.4997 166.338 14.7623V14.6269C165.294 15.4546 164.107 15.8684 162.775 15.8684C161.61 15.8684 160.513 15.5674 159.484 14.9655C158.455 14.3485 157.706 13.551 157.237 12.5728C156.632 11.3238 156.33 9.87166 156.33 8.21635C156.33 5.68824 156.92 3.68682 158.1 2.2121C159.28 0.737365 160.884 0 162.911 0Z" fill="white"/>
<path d="M183.661 10.7896H180.643C179.78 10.7896 179.349 11.3012 179.349 12.3245C179.349 12.5653 179.478 12.6857 179.735 12.6857C179.81 12.6857 179.924 12.6782 180.075 12.6631C180.227 12.633 180.34 12.618 180.416 12.618C180.976 12.618 181.255 13.0619 181.255 13.9497C181.255 14.4313 181.127 14.8225 180.87 15.1235C180.612 15.4245 180.272 15.5749 179.848 15.5749C179.636 15.5749 179.167 15.5223 178.441 15.4169C178.123 15.3718 177.677 15.3492 177.102 15.3492C176.482 15.3492 175.998 15.3718 175.65 15.4169C174.848 15.5223 174.371 15.5749 174.22 15.5749C173.751 15.5749 173.365 15.432 173.062 15.1461C172.775 14.8602 172.631 14.484 172.631 14.0175C172.631 12.9641 173.032 12.4374 173.834 12.4374C173.925 12.4374 174.068 12.4524 174.265 12.4825C174.462 12.4976 174.606 12.5051 174.696 12.5051C174.984 12.5051 175.218 12.3471 175.4 12.0311C175.445 11.9408 175.551 11.6624 175.718 11.1959L178.85 2.32496C179.213 1.31672 179.621 0.684696 180.075 0.428877C180.408 0.263345 181.142 0.180579 182.277 0.180579C183.548 0.180579 184.35 0.263345 184.682 0.428877C185.015 0.579359 185.288 1.01576 185.5 1.73807L188.405 11.3539C188.631 12.1214 188.896 12.5051 189.199 12.5051C189.29 12.5051 189.449 12.4825 189.675 12.4374H189.925C190.772 12.4374 191.196 12.934 191.196 13.9272C191.196 14.4238 191.045 14.8225 190.742 15.1235C190.44 15.4245 190.046 15.5749 189.562 15.5749C189.35 15.5749 189.07 15.5524 188.722 15.5072C188.299 15.432 188.019 15.3944 187.883 15.3944C187.55 15.3643 187.118 15.3492 186.589 15.3492C186.014 15.3492 185.628 15.3643 185.431 15.3944C184.66 15.5148 184.176 15.5749 183.979 15.5749C183.57 15.5749 183.23 15.4245 182.958 15.1235C182.7 14.8075 182.572 14.4162 182.572 13.9497C182.572 13.0619 182.859 12.618 183.434 12.618C183.51 12.618 183.623 12.633 183.775 12.6631C183.926 12.6782 184.039 12.6857 184.115 12.6857C184.403 12.6857 184.546 12.5277 184.546 12.2117C184.546 11.8054 184.463 11.4668 184.297 11.1959C184.13 10.925 183.918 10.7896 183.661 10.7896ZM183.321 7.33603L182.231 2.70869L180.824 7.51661C180.809 7.56175 180.802 7.61442 180.802 7.67461C180.802 7.85519 180.991 7.94548 181.369 7.94548H182.776C183.169 7.94548 183.366 7.84014 183.366 7.62947C183.366 7.64452 183.351 7.5467 183.321 7.33603Z" fill="white"/>
<path d="M202.721 1.7155L204.604 9.95442L206.579 2.05409C206.745 1.39196 206.927 0.940517 207.123 0.699744C207.335 0.443925 207.63 0.316015 208.009 0.316015C208.341 0.316015 208.848 0.353635 209.529 0.428877C210.21 0.504118 210.725 0.541738 211.073 0.541738C211.436 0.541738 212.336 0.481545 213.773 0.361159C214.182 0.331063 214.484 0.316015 214.681 0.316015C215.18 0.316015 215.581 0.466497 215.884 0.767462C216.187 1.05338 216.338 1.45216 216.338 1.9638C216.338 2.38515 216.217 2.73878 215.975 3.0247C215.748 3.31062 215.46 3.45358 215.112 3.45358C214.976 3.45358 214.787 3.431 214.545 3.38586C214.303 3.32567 214.129 3.29557 214.023 3.29557C213.614 3.29557 213.41 3.79969 213.41 4.80792V11.0605C213.41 12.0838 213.607 12.5954 214 12.5954C214.121 12.5954 214.303 12.5728 214.545 12.5277C214.787 12.4675 214.969 12.4374 215.09 12.4374C215.438 12.4374 215.733 12.5803 215.975 12.8663C216.217 13.1522 216.338 13.5058 216.338 13.9272C216.338 14.4388 216.187 14.8451 215.884 15.1461C215.581 15.432 215.18 15.5749 214.681 15.5749C214.394 15.5749 213.909 15.5298 213.229 15.4395C212.775 15.3793 212.321 15.3492 211.867 15.3492C211.579 15.3492 211.156 15.3868 210.596 15.4621C210.036 15.5373 209.612 15.5749 209.325 15.5749C208.871 15.5749 208.5 15.4245 208.213 15.1235C207.941 14.8225 207.804 14.4238 207.804 13.9272C207.804 12.9942 208.115 12.5277 208.735 12.5277C208.826 12.5277 208.894 12.5352 208.939 12.5502C208.985 12.5502 209.037 12.5502 209.098 12.5502C209.159 12.5653 209.196 12.5728 209.211 12.5728C209.454 12.5728 209.597 12.4073 209.643 12.0762C209.658 11.9257 209.665 11.6699 209.665 11.3088V2.79898L206.511 13.9046C206.238 14.8677 205.792 15.3492 205.172 15.3492H203.719C203.114 15.3492 202.698 14.9204 202.471 14.0626L199.452 2.79898V11.3088C199.452 12.016 199.52 12.4148 199.657 12.5051C199.702 12.5502 199.785 12.5728 199.906 12.5728C199.937 12.5728 199.982 12.5653 200.042 12.5502C200.088 12.5502 200.133 12.5502 200.179 12.5502C200.224 12.5352 200.292 12.5277 200.383 12.5277C200.988 12.5277 201.291 12.9866 201.291 13.9046C201.291 14.4162 201.155 14.8225 200.882 15.1235C200.61 15.4245 200.247 15.5749 199.793 15.5749C199.581 15.5749 199.309 15.5524 198.976 15.5072C198.552 15.447 198.287 15.4094 198.181 15.3944C197.864 15.3643 197.501 15.3492 197.092 15.3492C196.578 15.3492 196.146 15.3718 195.798 15.4169C194.86 15.5373 194.391 15.5975 194.391 15.5975C193.922 15.5975 193.536 15.4395 193.234 15.1235C192.931 14.8075 192.78 14.4087 192.78 13.9272C192.78 13.4908 192.893 13.1371 193.12 12.8663C193.362 12.5803 193.665 12.4374 194.028 12.4374C194.149 12.4374 194.323 12.4675 194.55 12.5277C194.792 12.5728 194.974 12.5954 195.095 12.5954C195.397 12.5954 195.587 12.3998 195.662 12.0085C195.692 11.858 195.708 11.542 195.708 11.0605V4.80792C195.708 4.32638 195.692 4.01789 195.662 3.88245C195.587 3.4912 195.397 3.29557 195.095 3.29557C194.974 3.29557 194.792 3.32567 194.55 3.38586C194.323 3.431 194.142 3.45358 194.005 3.45358C193.657 3.45358 193.362 3.31062 193.12 3.0247C192.893 2.73878 192.78 2.38515 192.78 1.9638C192.78 0.865276 193.34 0.316015 194.459 0.316015C194.822 0.316015 195.428 0.353635 196.275 0.428877C197.122 0.504118 197.758 0.541738 198.181 0.541738C198.862 0.541738 199.573 0.496593 200.315 0.406303C200.814 0.346111 201.207 0.316015 201.495 0.316015C201.873 0.316015 202.138 0.406304 202.289 0.586883C202.441 0.767462 202.584 1.14367 202.721 1.7155Z" fill="white"/>
<path d="M226.783 3.16014C226.284 3.16014 225.951 3.20528 225.784 3.29557C225.557 3.431 225.444 3.73197 225.444 4.19847V5.46252C225.444 5.71834 225.474 5.91397 225.535 6.0494C225.61 6.16979 225.792 6.22998 226.079 6.22998C226.745 6.22998 227.078 5.98921 227.078 5.50766V5.21422C227.063 5.12393 227.055 5.01107 227.055 4.87564C227.055 4.24361 227.426 3.9276 228.167 3.9276C228.939 3.9276 229.325 4.31133 229.325 5.07879C229.325 5.28946 229.31 5.52271 229.279 5.77853C229.219 6.27512 229.189 6.7341 229.189 7.15545C229.189 7.5467 229.219 8.04329 229.279 8.64522C229.34 9.24715 229.37 9.66851 229.37 9.90928C229.37 10.7971 228.969 11.241 228.167 11.241C227.411 11.241 227.032 10.8573 227.032 10.0899C227.032 10.0146 227.032 9.977 227.032 9.977C227.032 9.90176 227.048 9.72118 227.078 9.43526C227.078 9.0741 226.753 8.89352 226.102 8.89352C225.663 8.89352 225.444 9.13429 225.444 9.61584V11.3088C225.444 11.8355 225.535 12.1966 225.716 12.3922C225.913 12.5728 226.268 12.6631 226.783 12.6631H228.099C229.068 12.6631 229.741 12.5803 230.119 12.4148C230.512 12.2493 230.709 11.9558 230.709 11.5345C230.709 11.3238 230.686 11.0755 230.641 10.7896C230.596 10.4886 230.573 10.2403 230.573 10.0447C230.573 9.48793 230.732 9.05153 231.05 8.73552C231.367 8.4195 231.799 8.26149 232.343 8.26149C233.448 8.26149 234 8.86342 234 10.0673C234 10.4585 233.977 10.8724 233.932 11.3088C233.856 12.0311 233.818 12.4825 233.818 12.6631C233.818 12.8286 233.856 13.1522 233.932 13.6337C233.977 13.9196 234 14.2131 234 14.514C234 15.2213 233.554 15.5749 232.661 15.5749C232.374 15.5749 231.897 15.5524 231.231 15.5072C230.127 15.432 228.364 15.3793 225.943 15.3492C225.943 15.3492 225.27 15.3492 223.923 15.3492C223.167 15.3492 222.539 15.3718 222.039 15.4169L220.315 15.5749C220.299 15.5749 220.269 15.5825 220.224 15.5975C220.178 15.5975 220.141 15.5975 220.11 15.5975C219.641 15.5975 219.255 15.4395 218.953 15.1235C218.665 14.8075 218.522 14.4087 218.522 13.9272C218.522 13.5058 218.635 13.1522 218.862 12.8663C219.104 12.5803 219.407 12.4374 219.77 12.4374C219.891 12.4374 220.072 12.4675 220.315 12.5277C220.557 12.5728 220.731 12.5954 220.837 12.5954C221.245 12.5954 221.449 12.0838 221.449 11.0605V4.80792C221.449 3.79969 221.245 3.29557 220.837 3.29557C220.746 3.29557 220.564 3.32567 220.292 3.38586C220.095 3.431 219.921 3.45358 219.77 3.45358C219.422 3.45358 219.127 3.31062 218.885 3.0247C218.643 2.73878 218.522 2.38515 218.522 1.9638C218.522 0.865276 219.074 0.316015 220.178 0.316015C220.436 0.316015 220.958 0.346111 221.744 0.406303C222.925 0.496593 224.067 0.541738 225.171 0.541738C225.277 0.541738 226.185 0.519166 227.895 0.474021C229.136 0.443925 229.953 0.413828 230.346 0.383731C230.997 0.338587 231.678 0.316015 232.389 0.316015C233.236 0.316015 233.66 0.684697 233.66 1.42206C233.66 1.66283 233.629 2.01647 233.569 2.48296C233.523 2.94946 233.501 3.30309 233.501 3.54387C233.501 3.78464 233.531 4.13075 233.592 4.5822C233.667 5.0186 233.705 5.34966 233.705 5.57538C233.705 6.01178 233.539 6.38046 233.206 6.68143C232.888 6.98239 232.487 7.13288 232.003 7.13288C230.868 7.13288 230.301 6.55352 230.301 5.3948C230.301 5.19917 230.331 4.92831 230.391 4.5822C230.467 4.23609 230.505 3.98027 230.505 3.81473C230.505 3.48367 230.331 3.28052 229.983 3.20528C229.862 3.17518 229.544 3.16014 229.03 3.16014H226.783Z" fill="white"/>
<path d="M234 21.4224H118.287V49.9855L125.455 44.1264H209.424L215.568 38.2673H175.614L177.381 35.7039L217.616 36.0701L224.784 29.9913H181.3L182.673 28.0138H226.832L234 21.4224Z" fill="#BF0A30"/>
<path d="M131.825 37.9744C132.194 37.9744 132.425 37.746 132.518 37.2892C132.555 37.1135 132.573 36.7445 132.573 36.1823V28.8821C132.573 28.3199 132.555 27.9597 132.518 27.8016C132.425 27.3448 132.194 27.1164 131.825 27.1164C131.677 27.1164 131.456 27.1515 131.16 27.2218C130.883 27.2745 130.662 27.3009 130.496 27.3009C130.071 27.3009 129.711 27.134 129.415 26.8001C129.138 26.4663 129 26.0534 129 25.5615C129 24.9641 129.175 24.4985 129.526 24.1647C129.896 23.8133 130.385 23.6376 130.994 23.6376C131.271 23.6376 131.917 23.6903 132.933 23.7957C133.616 23.866 134.281 23.9012 134.927 23.9012C135.444 23.9012 136.183 23.8572 137.143 23.7694C138.122 23.6815 138.768 23.6376 139.082 23.6376C140.43 23.6376 141.104 24.2789 141.104 25.5615C141.104 26.0534 140.956 26.4663 140.661 26.8001C140.384 27.134 140.033 27.3009 139.608 27.3009C139.46 27.3009 139.239 27.2745 138.943 27.2218C138.648 27.1515 138.426 27.1164 138.279 27.1164C137.78 27.1164 137.531 27.705 137.531 28.8821V36.1823C137.531 37.377 137.78 37.9744 138.279 37.9744C138.426 37.9744 138.648 37.948 138.943 37.8953C139.239 37.825 139.46 37.7899 139.608 37.7899C140.033 37.7899 140.384 37.9568 140.661 38.2906C140.956 38.6244 141.104 39.0373 141.104 39.5293C141.104 40.0915 140.919 40.5571 140.55 40.9261C140.199 41.295 139.747 41.4795 139.193 41.4795C139.082 41.4795 138.999 41.4707 138.943 41.4531L137.198 41.2423C136.755 41.1896 136.266 41.1632 135.73 41.1632C134.9 41.1632 134.032 41.2072 133.127 41.295C132.037 41.4004 131.327 41.4531 130.994 41.4531C130.403 41.4531 129.923 41.2774 129.554 40.9261C129.185 40.5747 129 40.1091 129 39.5293C129 39.0198 129.138 38.6069 129.415 38.2906C129.711 37.9568 130.08 37.7899 130.523 37.7899C130.671 37.7899 130.883 37.825 131.16 37.8953C131.456 37.948 131.677 37.9744 131.825 37.9744Z" fill="white"/>
<path d="M154.804 35.866H151.121C150.068 35.866 149.542 36.4634 149.542 37.6581C149.542 37.9392 149.699 38.0798 150.013 38.0798C150.105 38.0798 150.244 38.071 150.428 38.0534C150.613 38.0183 150.751 38.0007 150.844 38.0007C151.527 38.0007 151.869 38.519 151.869 39.5556C151.869 40.1179 151.712 40.5747 151.398 40.9261C151.084 41.2774 150.668 41.4531 150.151 41.4531C149.893 41.4531 149.32 41.3916 148.434 41.2687C148.046 41.2159 147.502 41.1896 146.8 41.1896C146.043 41.1896 145.452 41.2159 145.027 41.2687C144.049 41.3916 143.467 41.4531 143.282 41.4531C142.71 41.4531 142.239 41.2862 141.87 40.9524C141.519 40.6186 141.344 40.1793 141.344 39.6347C141.344 38.4048 141.833 37.7899 142.811 37.7899C142.922 37.7899 143.098 37.8075 143.338 37.8426C143.578 37.8602 143.753 37.869 143.864 37.869C144.215 37.869 144.501 37.6845 144.723 37.3155C144.778 37.2101 144.907 36.8851 145.11 36.3404L148.933 25.9832C149.376 24.806 149.874 24.0681 150.428 23.7694C150.835 23.5761 151.73 23.4795 153.115 23.4795C154.666 23.4795 155.645 23.5761 156.051 23.7694C156.457 23.9451 156.789 24.4546 157.048 25.2979L160.593 36.5249C160.87 37.4209 161.193 37.869 161.563 37.869C161.673 37.869 161.867 37.8426 162.144 37.7899H162.449C163.483 37.7899 164 38.3697 164 39.5293C164 40.1091 163.815 40.5747 163.446 40.9261C163.077 41.2774 162.597 41.4531 162.006 41.4531C161.747 41.4531 161.406 41.4268 160.981 41.3741C160.464 41.2862 160.122 41.2423 159.956 41.2423C159.55 41.2072 159.024 41.1896 158.377 41.1896C157.676 41.1896 157.205 41.2072 156.965 41.2423C156.023 41.3829 155.432 41.4531 155.192 41.4531C154.694 41.4531 154.278 41.2774 153.946 40.9261C153.632 40.5571 153.475 40.1003 153.475 39.5556C153.475 38.519 153.826 38.0007 154.527 38.0007C154.62 38.0007 154.758 38.0183 154.943 38.0534C155.128 38.071 155.266 38.0798 155.358 38.0798C155.709 38.0798 155.885 37.8953 155.885 37.5263C155.885 37.052 155.783 36.6567 155.58 36.3404C155.377 36.0241 155.118 35.866 154.804 35.866ZM154.389 31.8338L153.06 26.4312L151.342 32.0446C151.324 32.0974 151.315 32.1588 151.315 32.2291C151.315 32.44 151.545 32.5454 152.007 32.5454H153.724C154.204 32.5454 154.444 32.4224 154.444 32.1764C154.444 32.194 154.426 32.0798 154.389 31.8338Z" fill="white"/>
<path d="M64.9992 42.8798C64.823 42.8798 64.7875 42.5927 64.5558 42.6871C64.4924 42.7908 64.4924 42.9202 64.5558 43.0233C64.3063 43.1368 64.0351 43.198 63.76 43.2012C63.5633 43.2258 63.3639 43.1881 63.191 43.0926C61.9725 42.5141 61.2168 41.4651 59.8015 41.381C59.4692 41.0694 59.0963 41.381 58.739 41.1436C57.9483 41.3019 57.2282 40.9455 56.4725 40.9307C55.9735 40.8281 55.4689 40.7539 54.9616 40.708C54.8355 40.4461 54.5788 40.6535 54.4326 40.5154C54.1909 40.3424 53.7575 40.4706 53.5713 40.2136C49.9 38.9375 46.7672 35.6622 45.9765 31.8039C45.6292 31.9546 45.3519 32.2286 45.2008 32.5708C45.108 33.0183 44.9696 33.4561 44.7879 33.8769C44.4706 34.0302 44.425 33.5106 44.2439 33.3824C44.1333 32.3929 43.7405 31.4628 43.9166 30.3598C43.5893 30.1966 43.6293 30.6567 43.4132 30.8002C43.2115 31.0971 43.4888 31.6959 43.0253 31.8492C42.3252 30.7708 42.7486 29.8707 42.5219 28.7426C42.139 28.7426 42.4513 29.3806 41.9479 29.272C41.4445 28.4457 41.6356 27.3181 41.7062 26.5114C42.0157 26 42.2613 25.4536 42.4363 24.8838C42.139 24.6911 41.9679 25.0666 41.7362 25.1611C41.2327 25.285 40.6332 25.6556 40.1547 25.458C40.2053 24.9635 40.7843 24.6617 40.9205 24.2016C40.7393 24.0034 40.5376 24.2611 40.3365 24.3255C39.7291 24.5923 39.0673 24.7179 38.4027 24.6917C38.196 24.5187 37.9543 24.4095 38.126 24.1181C38.4666 23.9352 38.7228 23.6307 38.8411 23.2672C38.141 23.5444 37.2697 23.9598 36.4134 23.7273C36.2123 23.7775 36 23.7005 35.8794 23.5346C35.8139 23.1886 36.1667 23.0941 36.3023 22.8027C36.0306 22.58 35.7989 22.961 35.5116 22.9364H33.9252C33.4217 22.7732 33.8246 22.4419 33.9252 22.1548C34.0757 22.0713 34.1891 21.9354 34.2424 21.7739C33.7451 21.8186 33.2656 21.978 32.8422 22.2389C32.4649 22.2787 32.092 22.353 31.7292 22.4616C31.5175 22.1254 30.9384 22.5358 30.8679 22.1101L31.2407 21.6947C30.7623 21.4524 30.3344 21.9174 29.866 21.9272C29.2514 21.972 28.5163 22.1352 27.8917 21.8579C27.8617 21.7144 27.9423 21.4819 27.7356 21.4622C26.6526 21.7444 25.5751 22.2836 24.316 22.2536C24.1715 22.1974 24.0398 22.1128 23.9281 22.0064C23.8376 21.8082 24.0993 21.7739 24.0943 21.6008C23.5909 21.6008 23.1624 21.9671 22.664 22.0953C22.08 22.3677 21.2843 22.2143 20.7047 22.5107C20.4074 22.318 19.6973 22.7088 19.6973 22.1052C19.2489 21.823 18.9116 22.4119 18.4382 22.3923C17.4713 22.61 16.2827 23.2137 15.4164 22.6297C15.502 22.5407 15.4164 22.4266 15.3209 22.3677C13.9378 22.896 12.4686 23.1738 10.9844 23.1891C10.7227 23.1345 10.7727 22.818 10.6216 22.6946C9.97701 22.8824 9.42801 23.1891 8.78344 23.313C7.78935 23.6383 6.72357 23.6912 5.70115 23.4664C5.57501 23.1253 6.01343 23.0014 6.00843 22.6799C4.66372 23.0314 3.299 23.808 1.80314 23.7535C1.12301 23.6247 0.599568 23.897 0.0655717 23.5903C0.0766851 23.4997 0.0533441 23.408 0 23.3332C0.209487 23.0925 0.477877 22.908 0.780715 22.7989C1.87871 21.9136 2.75 21.3989 3.90356 20.5082C6.04344 19.1224 8.06496 17.5669 9.94756 15.858C10.481 15.5185 10.9483 15.0879 11.3273 14.5868C11.2367 14.4187 10.7633 14.3445 10.995 14.0181C12.1374 13.4418 13.2232 12.7628 14.2384 11.9899C14.5907 11.866 14.8174 11.5446 15.1703 11.4954C16.2933 10.5059 17.9553 9.96668 19.1994 9.21512C20.8314 8.63111 22.3723 7.7311 24.0698 7.4391C24.1804 7.18203 24.3921 7.51824 24.5733 7.34031C25.9736 6.73175 27.4744 6.87529 28.7886 6.53417C29.5843 6.74212 30.5717 6.20779 31.463 6.5047L31.6391 6.41573C34.0163 6.41573 36.2223 6.41573 38.7256 6.60894C39.0229 6.83654 39.4607 6.73775 39.788 6.8218C40.4926 6.97572 41.1844 7.18039 41.8579 7.43528C43.1976 8.09842 44.25 9.20147 44.0489 10.7051C43.7821 11.9517 43.641 13.5051 44.779 14.3756C44.9352 14.6873 45.1163 14.9743 45.2824 15.3651C45.358 16.0921 45.368 16.4933 45.4686 17.1215C45.5897 17.235 45.5642 17.4926 45.7959 17.3688C46.2543 16.7553 47.08 16.9381 47.6896 16.6068C48.5359 16.4485 49.296 16.2013 50.1829 16.3547C50.7319 16.1123 51.2403 16.4485 51.7943 16.3252C52.2844 16.4802 52.7917 16.5746 53.3052 16.6074C53.9853 16.8202 54.6299 16.6669 55.2545 16.9687C56.0152 16.865 56.6447 17.2803 57.2693 17.3595C58.0044 17.3147 58.8457 18.3042 59.3847 17.3939C60.5177 15.6178 60.3922 13.3375 59.722 11.4229C59.5987 10.0174 60.3127 8.66768 61.5552 7.95979C62.9504 7.14873 64.5769 7.23279 66.0172 6.54017C66.984 6.49051 67.6992 5.63961 68.586 5.73404C69.8096 5.36289 70.9632 5.48188 72.3484 5.57084C72.6218 5.68655 72.9097 5.76678 73.2047 5.80826C73.9149 6.115 74.65 6.07024 75.2746 6.48123L75.3352 6.42665C76.9266 6.79287 78.6842 7.61867 80.3362 7.98489C81.0763 8.3091 81.8387 8.58199 82.6177 8.8014C82.8294 9.08358 83.3229 8.95477 83.5946 9.21184C83.763 9.19765 83.9308 9.2435 84.068 9.34065C84.457 9.37503 84.8371 9.47546 85.191 9.63756C86.3696 9.75654 87.5282 10.3351 88.5906 10.4639C89.094 10.8547 90.147 10.34 90.2826 11.2307C93.3399 12.6012 95.9387 14.446 98.9149 16.0294C99.1266 16.0594 99.3183 16.1696 99.4489 16.3361C99.3228 16.4305 99.2983 16.6074 99.3939 16.7313C99.3956 16.7329 99.3967 16.7351 99.3983 16.7367C101.156 17.8496 102.863 19.2103 104.742 20.3728C106.624 21.9109 108.61 23.3223 110.685 24.5973C110.634 24.8844 111.188 24.815 110.932 25.0918C110.524 25.0918 109.96 24.9138 109.491 25.0918C109.093 25.083 108.696 25.023 108.313 24.9138C108.026 25.0918 107.718 24.6961 107.432 24.8494C107.22 24.5672 106.963 24.9733 106.782 24.6961C106.223 24.5623 105.709 24.1421 105.125 24.2016C105.372 24.7703 106.132 25.1267 106.394 25.6856L106.223 25.8586C105.311 25.8586 104.309 25.7893 103.544 25.7451C103.392 25.5224 103.01 25.6163 102.773 25.5027C102.331 25.3063 101.874 25.1409 101.408 25.0082C101.126 25.4733 102.546 25.8193 101.725 26.1806L101.635 26.0671C101.487 26.1877 101.281 26.2145 101.106 26.1364C100.511 25.9235 99.8368 25.8198 99.2472 25.6021C98.4381 25.3019 97.6619 24.9226 96.9306 24.469C96.3566 25.0328 95.9232 24.5825 95.2536 24.5034C94.5551 24.4674 93.8756 24.2654 93.2743 23.9145C92.952 23.9145 92.5892 23.5832 92.3275 23.7365C92.5742 24.1868 93.4505 24.1672 93.2893 24.8101C92.9365 24.8407 92.5814 24.8292 92.2319 24.7757C91.8163 24.6649 91.4101 24.5209 91.0183 24.3451C89.2457 23.9494 87.7243 22.9157 86.1429 22.0004C85.5178 21.8405 84.9315 21.5577 84.4203 21.1691C83.6196 20.8176 83.2823 20.1305 82.5972 19.7397L82.5116 19.8587C83.0139 20.4771 83.4168 21.168 83.7052 21.9065C83.7957 22.05 84.0575 22.0402 83.9769 22.2727C83.7202 22.5696 83.4735 22.342 83.1812 22.2727C82.5322 21.9398 81.8587 21.6554 81.1663 21.4218C81.0452 21.2706 80.8774 21.1631 80.6879 21.1151C80.4967 21.5752 81.1913 21.8525 81.3325 22.2482C81.3819 22.3857 81.4442 22.5183 81.5186 22.6439C81.0802 22.8567 80.6373 22.55 80.2845 22.5844C79.6988 22.3999 79.132 22.1614 78.5925 21.8721C78.4463 21.9316 78.3208 21.62 78.2096 21.8721C78.3102 22.3273 78.8692 22.461 79.0859 22.8616C78.9198 23.1831 78.5069 23.104 78.1796 23.1438C78.0285 22.9113 77.6762 23.1438 77.5601 22.8917C77.2078 22.926 76.8499 22.7383 76.4976 22.7432C75.8975 22.5342 75.3202 22.2656 74.775 21.942C74.675 21.99 74.6334 22.1084 74.6822 22.2067C74.6928 22.228 74.7073 22.2476 74.725 22.2634C75.3196 22.6788 75.5408 23.3419 76.1959 23.6388C76.1959 23.8419 76.1959 24.1584 75.9442 24.1634C74.6484 23.8921 73.4064 23.414 72.2673 22.7487C72.2073 22.7274 72.1406 22.7388 72.0912 22.7781C72.5446 23.4309 73.1792 24.1388 73.4009 24.8854C72.8219 25.2167 72.3079 24.5934 71.7739 24.4603C71.2399 24.183 70.822 23.9903 70.3186 23.7131C70.6081 24.4008 70.9571 25.0628 71.361 25.6916C71.5422 25.9437 71.0737 26.102 70.8976 25.9585C70.188 25.5016 69.4295 25.1218 68.636 24.8254C68.636 25.5426 69.225 26.1959 68.7972 26.8934C68.7166 27.21 69.0539 27.7492 68.5555 27.8185C68.2498 27.2329 67.8287 26.7133 67.3163 26.2898C67.2319 26.4857 67.2713 26.7117 67.4169 26.8683C67.548 27.526 67.6536 28.2781 67.7847 28.8768C67.7186 29.1787 67.5958 29.4652 67.4219 29.7228C66.8223 29.2725 66.4145 28.3327 65.7649 27.8873C65.9916 28.7431 66.5456 29.9995 65.9816 30.9099C66.0088 31.0589 65.9577 31.2112 65.8455 31.3155H65.6088C65.2159 30.7713 64.9892 29.9401 64.3096 29.6431C64.1635 29.7916 64.3096 30.0438 64.234 30.1922C64.194 30.9443 64.9392 31.4683 65.2415 32.1713C66.3345 33.6553 67.1652 35.3865 68.5755 36.6484C68.5755 37.0791 67.9965 36.9797 67.7342 37.1429C67.5275 37.2024 67.2307 37.0687 67.0896 37.2668C66.495 36.9895 65.941 37.0589 65.4026 36.6386C64.5363 37.2073 63.8917 36.3319 62.9649 36.7226C64.9242 37.633 64.6519 39.9379 66.6417 40.8483C67.1857 41.4421 67.6492 42.3323 67.543 43.1041C67.4247 43.6837 67.0574 44.1848 66.5356 44.4795L65.0247 42.9556L64.9992 42.8798Z" fill="black"/>
<path d="M72.967 6.11895C73.506 6.19154 74.0378 6.30561 74.5584 6.46007C76.7744 7.04898 78.9099 7.86495 81.1059 8.53791C82.405 9.07334 83.7414 9.51598 85.105 9.86365C85.2206 9.80416 85.3717 10.0268 85.5784 9.93788C86.732 10.3434 88.0311 10.5219 89.1041 10.8974C89.2903 11.2385 88.7819 10.9318 88.7263 11.1643C88.3001 11.3291 87.8628 11.4628 87.4166 11.5649C85.5734 12.0943 84.2187 11.8318 82.4456 11.525C82.2089 11.4017 81.961 11.3007 81.7054 11.2232C81.1764 11.1785 80.7286 10.9563 80.2296 10.8821C80.1996 10.6791 79.9373 10.8275 79.7862 10.803C79.635 10.7784 79.3683 10.4668 79.046 10.5901C78.9804 10.3871 78.6937 10.5901 78.5726 10.4564C77.7113 10.1469 76.82 9.92314 75.9132 9.78833C75.732 9.67971 75.4647 9.60058 75.2586 9.4865C74.5784 9.23926 73.8133 9.22943 73.1887 8.86812C72.7153 8.7344 71.7229 9.04113 71.6473 8.26447C71.355 8.26447 71.2744 8.61596 70.9472 8.48224C70.811 8.83373 70.4437 8.80863 70.1664 8.97673C69.6986 9.07388 69.2135 9.05369 68.7562 8.91724L68.021 8.8774C67.3259 9.32768 66.4296 10.1191 65.5383 9.59457C65.191 9.7725 64.7981 9.26327 64.4809 9.67371C64.7026 10.1387 64.7365 10.6692 64.5764 11.1577C64.2941 11.6822 63.7351 11.697 63.3578 11.8209C63.6968 12.5866 63.5579 13.4757 63 14.1061C62.8577 14.1421 62.7405 14.2409 62.6827 14.373C63.2823 14.8675 62.9444 15.6049 62.8439 16.2429C62.5116 17.084 60.8896 16.9453 61.2974 18.1477C61.0202 18.7017 60.235 19.0379 60.4867 19.8097C60.1944 21.1949 58.2201 20.8882 58.3107 22.4169C58.2913 22.8574 58.1596 23.2858 57.9279 23.6635C57.4244 23.9059 57.1472 24.2574 56.5581 24.2967C56.3364 25.0237 56.392 25.9739 55.4852 26.196C55.843 26.5322 55.0167 27.68 55.8374 27.5414C55.923 27.3979 55.8374 27.1108 56.0942 27.1359C56.3109 27.7095 57.066 28.5555 56.517 29.0303C55.6707 29.2727 55.4746 28.4463 55.0512 28.0807L54.9956 26.3985H54.7339C53.8865 27.25 53.3075 28.3235 53.0669 29.4904C52.6485 29.1848 52.3812 28.7192 52.3317 28.2089C52.2701 28.127 52.1673 28.0856 52.065 28.1003C51.5616 28.7138 51.5616 29.4954 51.5616 30.3015C50.8865 30.1432 50.6953 29.485 50.2974 28.9758C50.0257 28.5506 49.9852 28.12 49.6829 27.6893C49.2194 27.8722 49.2345 28.4513 49.0383 28.8568C48.9022 29.4408 49.1239 29.95 48.9277 30.504H48.7416C47.9864 29.7977 47.4208 28.919 47.0946 27.9464C46.7606 28.0479 46.5083 28.3181 46.435 28.6537C46.5306 28.9059 46.2689 29.0593 46.2438 29.2623C45.9971 29.9598 46.43 31.0138 45.5287 31.3549C45.1947 31.8297 44.9114 32.3368 44.6824 32.8689C44.6124 32.8722 44.5457 32.8427 44.5013 32.7898C44.3712 31.7539 44.3879 30.7048 44.5518 29.6733C44.6802 29.3142 44.8714 28.979 45.1158 28.6838C45.0503 28.3967 44.7636 28.6095 44.6474 28.6838C44.144 29.2427 43.5544 29.861 43.1366 30.415L43.046 30.3064C42.8698 28.9261 43.5494 27.4421 44.4257 26.2992L44.2746 26.1311C43.5044 26.7271 42.8359 27.4399 42.2953 28.2433H42.0886C41.988 26.5011 42.7359 24.8157 44.1034 23.7017C44.1168 23.6057 44.0812 23.5091 44.0078 23.4447C43.7761 23.6821 43.6806 23.341 43.4188 23.4447C42.6681 24.0336 41.908 24.7158 40.9561 24.998C41.1173 24.414 41.6107 23.9146 41.918 23.3606C42.462 22.8907 42.5676 22.1386 43.4288 22.3711C43.57 22.1681 44.129 22.1582 43.9323 21.7871C43.635 21.589 43.3783 22 43.081 22.0098H42.6126C42.9399 20.9362 43.8417 20.427 44.6724 19.5362C44.6724 18.8731 43.7506 18.9522 43.5294 18.354C43.3077 17.6068 42.7943 16.9835 42.6881 16.2069C42.1141 15.3265 40.5927 14.5247 41.449 13.3824C41.8569 13.1695 41.3784 12.8382 41.3734 12.5462C41.2995 12.0266 41.3267 11.4978 41.454 10.988C41.1823 10.6168 40.5977 10.8892 40.331 10.607C39.3236 10.3696 39.782 8.31141 38.3867 9.123C38.12 8.92488 37.7116 9.123 37.3793 8.99911C36.3719 9.16721 35.5861 7.74269 34.6699 8.65307C33.8036 9.22179 32.4183 9.14756 31.3003 9.19232C30.8257 8.94507 30.3284 8.74313 29.8144 8.58867C29.0898 9.16831 28.2202 9.54599 27.2962 9.6819C26.5054 9.84018 25.7853 9.51379 24.9696 9.415C23.4231 9.999 22.134 11.3493 20.5276 11.8885C19.6863 12.3088 18.9006 12.7891 17.9743 13.1548C16.9657 13.6815 15.8855 14.063 14.7659 14.2879C14.2102 14.3965 13.6362 14.3779 13.0888 14.2333C12.706 14.2333 12.0814 14.3124 11.9053 13.9413C13.804 12.5397 15.8094 11.2827 17.9037 10.1818C21.57 8.59904 25.0907 6.9169 29.0898 6.88197C32.3788 6.75316 35.4006 6.57523 38.7346 6.99058C38.9463 7.27767 39.238 6.81265 39.4097 7.17833C40.9711 7.43049 42.7187 7.76725 43.3983 9.3697C44.3401 10.7598 42.2903 12.4469 43.7911 13.7131C44.4607 14.7965 45.1659 16.0137 45.1058 17.3738C45.2203 17.7258 45.4442 18.0337 45.7454 18.2542C46.345 17.4278 47.6291 17.0026 48.5354 16.8935C48.9133 16.6266 49.4417 16.7008 49.9101 16.6064C51.0915 16.5802 52.2723 16.6697 53.4359 16.8733C53.7531 16.7494 54.116 17.0862 54.4433 16.9672C54.4783 17.1702 54.7656 16.9672 54.8867 17.1009C56.3976 17.4125 57.6011 17.561 58.8858 18.3671C59.3493 18.0948 59.626 17.4568 59.9988 16.9868C60.9229 15.2812 61.0174 13.2574 60.2556 11.4759C59.8227 10.4864 60.4467 9.49742 61.0463 8.72021C61.7008 7.67119 62.8244 7.9037 63.8113 7.47852C64.1452 7.54293 64.4914 7.47361 64.7731 7.28586C65.7844 7.10957 66.7602 6.77554 67.6643 6.29633C68.2233 6.42514 68.5911 5.80184 69.0646 6.00433C70.3187 5.63319 71.764 5.88535 72.9476 6.06382L72.967 6.11895Z" fill="white"/>
<path d="M30.7162 9.49336C30.6357 9.86941 30.1422 9.98785 29.9405 10.3492C29.2815 10.7667 28.4874 10.9272 27.7145 10.7994C27.4806 10.6275 27.26 10.4392 27.0549 10.2356C27.4022 9.96874 27.9612 10.1019 28.3696 9.89451C29.1654 9.93436 29.8805 8.44979 30.7118 9.49881L30.7162 9.49336Z" fill="white"/>
<path d="M37.5354 9.61108C37.9988 9.33873 38.4217 9.8485 38.8551 9.52212C38.9157 9.60617 39.1824 9.72024 39.0113 9.89326C38.3478 10.2371 37.6421 10.4953 36.9108 10.6601C36.0295 10.7638 36.2413 9.7448 35.7678 9.44298L35.8784 9.06201C36.3518 9.30926 37.0014 9.3289 37.5354 9.60617V9.61108Z" fill="white"/>
<path d="M35.4198 9.65088C35.6137 9.93088 35.7604 10.2398 35.8527 10.5662C36.0288 10.6797 36.3561 10.9619 36.0694 11.1349C35.6415 11.6294 34.8708 11.3379 34.2262 11.4367C34.0451 11.2981 33.6922 11.333 33.6572 11.0459C33.4005 10.0564 34.6646 10.1012 34.9719 9.34906L35.2286 9.14111C35.5509 9.21534 35.2286 9.48224 35.4148 9.6356L35.4198 9.65088Z" fill="white"/>
<path d="M78.0385 8.21143C77.8368 8.39427 77.5351 8.31022 77.3384 8.48869C77.419 8.22671 77.7768 8.33532 77.9174 8.21143L77.978 8.27092L78.0335 8.21143H78.0385Z" fill="black"/>
<path d="M34.3524 9.2998C34.0745 9.67204 33.7211 9.98314 33.3149 10.2151C32.8821 10.5027 32.3992 10.7091 31.8896 10.8237C31.5046 10.7833 31.1834 10.5169 31.0789 10.1507C31.0661 9.93184 31.1339 9.7157 31.2701 9.54214C32.1919 9.89854 33.3299 9.64093 34.1712 9.30472H34.3474L34.3524 9.2998Z" fill="white"/>
<path d="M26.5814 10.2445C26.078 11.0065 25.3423 11.4568 24.5665 12.05C22.39 13.6929 19.8261 14.7681 17.1128 15.1764C16.6383 15.3194 16.136 15.3499 15.647 15.2653C15.9343 14.9389 16.5988 14.4985 17.0017 14.0831C17.848 13.8654 18.397 13.42 19.2427 13.1978C21.1364 12.2345 22.9662 11.1555 24.7221 9.96729C25.3511 9.98857 25.9746 10.0814 26.5814 10.2445Z" fill="white"/>
<path d="M72.1862 9.46305C72.1862 10.0121 72.1256 10.7293 71.4861 11.0311C71.0893 11.1632 70.6692 11.2123 70.2519 11.1747C70.3025 10.744 70.6398 10.1557 70.1363 9.76487L69.9502 9.4827C70.5948 9.4827 71.1088 8.77043 71.7383 9.21034C71.9261 9.19179 72.1045 9.29385 72.1818 9.4625L72.1862 9.46305Z" fill="white"/>
<path d="M68.8873 9.53725C68.9267 9.83853 68.7978 10.1371 68.55 10.3188C68.0466 10.4427 67.2353 10.6108 66.8424 10.2692L66.7769 10.1011C67.477 9.9133 68.1316 8.88885 68.8823 9.53725H68.8873Z" fill="white"/>
<path d="M76.1904 11.0658C76.6938 11.5161 76.86 12.1198 77.3689 12.4805L77.3389 12.54C78.2708 13.5296 79.1571 14.8946 79.9428 15.8546C76.8855 15.7755 74.5889 13.0645 72.3074 10.9474C72.3074 10.3983 72.9069 10.0124 72.5947 9.46338C72.8264 9.46338 73.1587 9.56708 73.4509 9.58728C74.5189 10.0572 75.6619 9.94859 76.1909 11.0713L76.1904 11.0658Z" fill="white"/>
<path d="M69.9701 10.2594C69.8596 10.6649 69.9351 11.2489 69.4061 11.4514C69.0033 11.6937 68.3031 11.9459 67.8247 11.6342C67.7752 11.4159 67.7419 11.1943 67.7241 10.9711C68.0114 10.6196 68.3993 10.9711 68.7315 10.6889C69.1261 10.4264 69.3678 9.99411 69.3811 9.52637L69.9857 10.2637L69.9701 10.2594Z" fill="white"/>
<path d="M30.7668 10.5708C30.9691 10.8464 31.2375 11.0685 31.5475 11.2186C32.1971 11.3474 32.6305 10.991 33.154 10.8622C33.4562 11.2284 32.9022 11.4162 32.8772 11.7033C31.0291 13.0689 29.7444 14.8547 27.4028 15.3093C27.3172 15.5173 27.0505 15.3093 26.9644 15.5222L25.0557 15.621C26.7782 13.8253 28.8025 12.3708 30.5957 10.5156H30.8024L30.7418 10.5751L30.7668 10.5708Z" fill="white"/>
<path d="M38.8752 10.4126C38.6974 11.1303 38.7447 11.8835 39.0114 12.5745C38.6691 13.099 37.8734 12.9107 37.3444 12.9849C36.8109 12.7077 36.5514 12.0986 36.7248 11.5304C36.7248 10.6102 37.8628 11.1592 38.2912 10.6298C38.558 10.709 38.6691 10.3924 38.8752 10.417V10.4126Z" fill="white"/>
<path d="M40.21 11.0662L40.9501 11.368C40.8696 11.714 41.2069 12.4858 40.7134 12.6692C40.5778 12.6408 40.4367 12.6752 40.3306 12.7631C39.8933 12.6823 39.5071 12.4329 39.2576 12.0705C39.1526 11.5487 39.2015 11.0078 39.3987 10.5122C39.751 10.5619 39.9022 10.9576 40.2044 11.0662H40.21Z" fill="white"/>
<path d="M29.1953 11.2835C27.1255 13.3466 24.9295 15.1221 22.1189 15.5331C21.5205 15.6472 20.9087 15.6805 20.3008 15.6319C21.6255 14.5037 23.3225 13.5737 24.6372 12.4805C25.489 12.022 26.2937 11.4833 27.0394 10.8726C27.5428 11.4664 28.5502 11.1596 29.1948 11.2879V11.2835H29.1953Z" fill="white"/>
<path d="M66.3691 10.2795C66.438 10.6283 66.3502 10.9891 66.1273 11.2691C65.7751 11.3335 65.3416 11.6598 65.1199 11.2691C65.5228 10.9176 64.9888 10.5813 65.1199 10.1212C65.5884 10.0225 65.9156 10.3041 66.3591 10.2648L66.3691 10.2795Z" fill="white"/>
<path d="M80.0477 11.4267C80.2794 11.3623 80.3144 11.5353 80.375 11.6739C81.1807 12.2328 81.6192 13.3511 82.3893 13.9695C82.7622 14.7959 83.744 15.2658 84.1119 16.1216C83.614 16.1336 83.1172 16.0752 82.636 15.9486C82.0504 15.727 81.4925 15.4399 80.974 15.0928C80.6206 14.9181 80.2833 14.7123 79.9666 14.4793C78.5935 13.2403 77.3422 11.8769 76.2297 10.4082C76.6587 10.448 77.0832 10.5245 77.4989 10.6358C78.239 10.9971 79.297 10.9425 80.0472 11.4174V11.4267H80.0477Z" fill="white"/>
<path d="M67.4163 11.6994C67.4591 12.0891 67.353 12.4805 67.119 12.7976C66.6828 13.0847 66.1227 13.119 65.6532 12.8865C65.6776 12.5787 65.6093 12.2709 65.457 12.0013C66.0977 11.9385 66.6223 11.4735 66.7512 10.8534C66.789 10.7536 66.9023 10.7028 67.004 10.7405C67.0301 10.7503 67.054 10.765 67.0735 10.7841C67.4008 10.9522 67.3252 11.3829 67.4158 11.7043V11.6994H67.4163Z" fill="white"/>
<path d="M36.1956 11.6001C36.5029 12.2234 35.6922 12.5302 35.4299 12.8566C33.5212 14.2516 32.0053 16.1264 29.2703 15.9534L29.1492 15.8399C30.4861 14.3166 31.9592 12.9144 33.5512 11.6498C34.4119 11.9347 35.3471 11.9151 36.195 11.5952V11.6001H36.1956Z" fill="white"/>
<path d="M75.2078 14.5582L75.5351 14.7563L75.4745 14.8158C75.8018 15.098 76.3108 15.3747 76.4364 15.8594C73.8576 16.171 71.9638 14.2564 70.3374 12.5895L70.3724 11.6938C70.9364 11.8521 71.4854 11.4117 72.0394 11.2583L75.1973 14.5631L75.2078 14.5582Z" fill="white"/>
<path d="M65.2611 12.723C65.1794 13.2011 64.8738 13.6138 64.4354 13.8359L63.7603 13.7966C63.9214 13.188 64.1231 12.9261 63.9314 12.2384C64.2187 12.0255 64.4754 11.7089 64.8883 11.7439C65.0522 12.0577 65.1772 12.3901 65.2611 12.7334V12.723Z" fill="white"/>
<path d="M69.8945 11.7583C69.8189 12.4012 69.9245 13.1435 69.1694 13.4748C68.7565 13.4301 68.4087 13.6675 68.0814 13.4153H67.8797C67.758 13.3073 67.6185 13.2199 67.4668 13.1583C67.6318 12.8461 67.7524 12.5131 67.8246 12.1687C67.9658 11.9117 68.1469 12.2823 68.3536 12.2135C68.9732 12.2877 69.4061 11.9313 69.9301 11.778L69.8945 11.7583Z" fill="white"/>
<path d="M96.2049 14.9095C96.6989 15.2817 97.2385 15.5912 97.8114 15.8297L98.0531 16.077C95.4092 16.25 92.8354 15.3549 90.5994 14.0488C90.1765 13.5145 89.7331 13.4899 89.2547 13.0593C88.7062 12.7809 88.1794 12.4638 87.6782 12.1096C87.6782 11.793 88.1216 12.1096 88.1817 11.8372C88.9474 11.936 89.4258 10.917 90.1459 11.5354C92.1102 12.5893 94.2807 13.7814 96.1894 14.9193L96.2049 14.9095Z" fill="white"/>
<path d="M81.9114 11.9068C82.2337 11.9859 82.4754 12.2381 82.8283 12.1442C83.0094 12.3472 83.5634 12.189 83.8357 12.4411C85.241 12.4116 85.785 14.1282 86.7969 14.7116C87.3309 14.9889 87.6632 15.503 88.2572 15.7754C88.3761 15.8518 88.4705 15.9599 88.5289 16.087C87.8354 16.1814 87.1303 16.1596 86.444 16.0226V15.9582C84.5553 15.5129 83.0845 14.1276 81.8409 12.5994C81.483 12.4067 81.3874 11.981 81.1157 11.7834C81.2119 11.7141 81.3424 11.7141 81.438 11.7834C81.5591 11.9865 81.7303 11.7834 81.9114 11.9172V11.9068V11.9068Z" fill="white"/>
<path d="M37.1574 13.3315C37.4546 13.4401 37.8625 13.3315 38.1292 13.4849C37.5558 14.0339 36.949 14.5481 36.3111 15.0235C35.2181 15.7712 33.9045 16.1434 32.5742 16.0823C33.5211 15.0928 34.7702 14.3063 35.6865 13.2775C36.0388 13.2131 36.1094 12.6345 36.5278 12.8272C36.6884 13.045 36.9056 13.2158 37.1574 13.3217V13.3315Z" fill="white"/>
<path d="M41.111 13.0447C40.937 13.5218 40.8387 14.0223 40.8187 14.5288C40.4958 14.7553 40.083 14.8175 39.7057 14.6969C39.5179 14.5779 39.3189 14.4769 39.1111 14.395C38.925 14.0785 38.6527 13.5687 38.9955 13.2128C39.2423 12.3423 39.8768 13.3067 40.3153 13.1288C40.5764 13.0737 40.8437 13.0486 41.111 13.0546V13.0447V13.0447Z" fill="white"/>
<path d="M88.0812 12.9802C89.0886 13.5342 89.7282 14.2716 90.6501 14.6869C91.5819 15.7605 93.3145 15.6071 94.2513 16.666C91.9348 16.9132 89.3053 16.3047 87.5933 14.7317C86.6787 14.1308 85.8758 13.3792 85.2212 12.5103C85.6596 12.3569 86.2286 12.3717 86.8026 12.2134C87.246 12.3171 87.6389 12.7477 88.0818 12.9655L88.0812 12.9802Z" fill="white"/>
<path d="M70.9021 14.0738C71.6272 15.0087 72.6697 15.6768 73.4604 16.6958C73.2037 17.1412 72.5841 16.978 72.1712 16.9578C70.9621 16.6603 69.9019 15.9453 69.1845 14.9443C68.8222 14.708 68.5233 14.3887 68.3132 14.0143C68.9278 13.9401 69.8241 13.9848 70.0858 13.1929C70.4737 13.3855 70.5892 13.8456 70.9015 14.0683L70.9021 14.0738Z" fill="white"/>
<path d="M67.079 13.8416C67.139 14.1762 66.9829 14.5124 66.6862 14.6876C66.1433 14.7727 65.5932 14.8027 65.0442 14.7765C64.2079 14.1336 65.437 13.96 65.4826 13.3569C66.0516 13.7477 66.9934 12.8919 67.079 13.8514V13.8416V13.8416Z" fill="white"/>
<path d="M38.4267 14.0341C38.6078 14.3506 38.8851 14.8899 39.328 14.9936C39.0507 15.696 38.3511 15.9384 37.7716 16.3837C37.1003 16.9022 36.2074 17.0512 35.3994 16.7794C35.5906 16.0819 36.3813 15.9236 36.8097 15.3942L38.3206 13.9795H38.4967L38.4411 14.0341H38.4267V14.0341Z" fill="white"/>
<path d="M13.4864 14.8506C14.2216 14.8506 14.69 14.6525 15.3396 14.8506C15.3396 15.1917 14.9873 15.0285 14.8361 15.2365C12.6151 17.126 10.9781 18.9812 8.52041 20.678C7.91084 20.9848 7.42241 21.5388 6.71727 21.6375C5.82598 22.3449 4.59684 22.6615 3.48884 23.1216C2.69813 23.1216 1.7057 23.3885 0.935547 23.1761C1.50955 22.4142 2.64311 21.9541 3.3327 21.3063C6.50611 19.4123 9.45226 17.1735 12.1161 14.6328C12.5896 14.8255 13.053 14.5537 13.5014 14.8604L13.4864 14.8506Z" fill="white"/>
<path d="M20.6079 14.8455C19.9683 15.34 19.3587 15.5332 18.9003 16.1762L18.8397 16.1216C16.926 17.4823 15.1129 18.9958 13.2997 20.4454C13.0152 20.5589 12.7652 20.7434 12.5746 20.9797C11.2699 21.8159 9.96574 22.5926 8.32874 22.83C7.71918 23.1318 7.0946 22.9735 6.39502 23.0428C6.55616 22.5183 7.08516 22.365 7.42745 21.984C9.85016 20.0895 12.2473 18.0761 14.5794 15.9486C15.6624 15.894 16.6849 15.5578 17.7473 15.5627C17.8884 15.3548 18.2507 15.5627 18.4169 15.4044C19.147 15.1916 19.8472 14.9738 20.5773 14.7266V14.8455H20.6079Z" fill="white"/>
<path d="M70.5744 17.4524C69.6731 17.7592 68.7212 17.2893 67.9455 16.7893C67.3459 16.428 67.1548 15.6813 66.7064 15.3053C66.6713 14.9887 67.0536 15.0084 67.2098 14.8108C67.3959 14.5619 67.5199 14.2743 67.5726 13.9697C68.5801 15.0728 69.6225 16.2009 70.5594 17.4328L70.5744 17.4524Z" fill="white"/>
<path d="M64.5709 14.6723C64.5571 15.0636 64.4965 15.4522 64.3898 15.8299C64.0375 15.8894 63.8158 16.3244 63.3824 16.2551C63.2212 15.6765 63.6191 15.0331 63.2868 14.5533C63.2307 14.4048 63.3085 14.2395 63.4596 14.1849C63.4674 14.1822 63.4752 14.1794 63.4829 14.1772C63.8708 14.4245 64.4498 14.0386 64.5504 14.6717H64.5709V14.6723Z" fill="white"/>
<path d="M24.5267 15.335C24.5267 15.538 24.2394 15.6564 24.3355 15.919C24.7839 16.2803 25.4485 15.8349 25.9269 16.1662C24.8339 17.23 23.7665 18.1453 22.6735 19.0949C21.71 20.1773 20.5025 21.0238 19.1478 21.5685C18.9516 21.9495 18.7094 21.6427 18.4782 21.9593C18.2165 22.0286 18.0398 22.0581 17.7481 22.1225C17.2446 22.2513 16.5795 22.4636 16.1011 22.1569C18.3726 19.8612 21.2082 17.868 23.5704 15.7705C23.8371 15.5516 24.1588 15.4065 24.5022 15.3502L24.5267 15.335Z" fill="white"/>
<path d="M28.898 16.3344C29.1298 16.2406 29.1648 16.4731 29.2859 16.5271C27.5833 17.9221 26.0675 19.911 24.0932 21.0534C22.839 21.4491 21.8266 22.0822 20.4419 21.9981C20.4419 21.6816 20.8748 21.6123 20.8648 21.2711C22.1589 19.9405 23.6048 18.7976 25.0701 17.4866C25.6963 17.0216 26.2658 16.4873 26.7671 15.8934C27.4422 15.8934 28.2273 15.453 28.9325 15.3247C28.8219 15.5818 28.1012 16.21 28.8975 16.3142V16.3344H28.898Z" fill="white"/>
<path d="M41.0409 15.0234C41.4338 15.5627 41.9122 15.8989 42.1895 16.3841C42.1895 16.7602 41.7211 16.508 41.5499 16.7154C41.0832 16.7569 40.637 16.5162 40.4219 16.1068C40.2358 15.6762 40.6636 15.1768 41.0465 15.0234H41.0409Z" fill="white"/>
<path d="M40.1292 15.2012C39.9386 15.5729 39.9386 16.0117 40.1292 16.3834C40.3232 16.5662 40.4526 16.8058 40.4971 17.0662C39.6964 17.922 38.4072 18.1201 37.2537 17.9716C37.6287 17.3451 38.1461 16.8118 38.7645 16.4134C39.1974 16.0029 39.5097 15.6465 39.9431 15.2061H40.1498L40.1292 15.2012Z" fill="white"/>
<path d="M22.658 16.0131C20.3086 18.0784 17.8398 20.0095 15.2643 21.7964C14.0657 22.1326 12.8416 22.7068 11.5774 22.5927C11.5769 22.549 11.5541 22.5081 11.5168 22.4841C12.8371 21.2353 14.2435 20.0782 15.7271 19.021C16.9107 17.9873 18.331 17.042 19.5146 16.1469C20.5659 16.1294 21.6144 16.0388 22.6524 15.8745V16.0131H22.658Z" fill="white"/>
<path d="M66.0565 15.2756C66.56 16.5025 67.4012 17.6056 68.0458 18.8025C66.58 18.8915 65.7843 17.6449 64.7418 16.883C63.5533 16.1904 65.3964 16.0075 65.0591 15.1763C65.3914 15.239 65.7281 15.2723 66.0665 15.2751H66.0565V15.2756Z" fill="white"/>
<path d="M32.2824 16.5077C32.5241 16.7304 32.1162 17.0022 31.9751 17.1757C29.9908 19.1548 27.8754 21.8456 24.7275 21.6278V21.4842C26.4195 19.6586 28.2532 18.2984 29.8497 16.5623L29.8197 16.3892C30.4848 16.3538 31.1383 16.2009 31.7484 15.939C31.7412 16.2162 31.929 16.4618 32.2018 16.5328C32.2318 16.5623 32.2624 16.5328 32.2874 16.5033L32.2824 16.5077Z" fill="white"/>
<path d="M35.3042 16.1362C35.2237 16.5718 34.6347 16.527 34.7352 17.0117C34.9653 17.1099 35.1848 17.2311 35.3898 17.373C34.5035 18.5159 33.0327 19.614 31.9652 20.6183C30.9578 21.1128 29.9054 21.7263 28.6362 21.5532C29.0763 20.8388 29.6153 20.1877 30.2377 19.6189C31.0939 18.5061 32.3731 17.6945 33.0782 16.5025C33.8134 16.5025 34.5891 16.181 35.3042 16.1362Z" fill="white"/>
<path d="M82.1234 16.2251C82.5463 16.7196 83.0047 17.3877 83.4831 17.8974V18.041C83.876 18.6397 84.445 19.144 84.8428 19.7477L84.7823 19.8023C85.2051 20.2574 85.6886 20.8513 86.0814 21.331C85.1696 21.2071 84.2383 20.4801 83.5231 19.9212L83.5787 19.8617C82.4229 18.9361 81.4421 17.8177 80.6825 16.557C80.8287 16.4975 81.0604 16.3146 80.8787 16.1465C80.637 15.8398 80.103 15.5876 80.118 15.187C80.7387 15.6236 81.416 15.9762 82.1328 16.236L82.1234 16.2251Z" fill="white"/>
<path d="M77.449 15.6372C78.2608 15.963 79.1048 16.2048 79.9672 16.3593C81.1208 18.0065 82.2788 19.8518 83.3162 21.588C82.8128 21.588 82.3394 21.207 81.8054 21.1573C80.7207 20.5319 79.7572 19.723 78.9598 18.7678C78.3252 18.0605 77.6001 17.1256 76.9955 16.3636C76.9605 16.1311 77.4034 16.0967 77.2472 15.8096L76.7083 15.3151C77.0305 15.2808 77.1867 15.5924 77.4484 15.617V15.6372H77.449Z" fill="white"/>
<path d="M74.7749 16.1508V16.2103C75.2784 16.1705 75.7518 16.4477 76.3664 16.3489C77.5872 17.6403 78.6913 19.0343 79.6654 20.5145C80.0899 20.9451 80.4311 21.4478 80.6728 21.9985C78.6079 21.7856 77.0215 20.4353 75.6362 18.7335C75.1828 18.1397 74.5532 17.6354 74.1554 17.0072C74.4071 16.4232 73.6114 16.3888 73.4858 15.9833L72.9468 15.4888C73.6014 15.7906 74.1053 16.1568 74.7849 16.1666L74.7749 16.1508Z" fill="white"/>
<path d="M87.099 16.5076C87.3919 16.6053 87.7031 16.6391 88.0109 16.6064C90.7103 18.9069 93.0475 21.3112 95.933 23.8982C94.6389 23.8688 93.2736 23.3197 92.1156 22.8296C89.25 20.8112 86.8073 18.1297 84.4302 15.5874C85.2353 16.0279 86.2122 16.5273 87.099 16.5076Z" fill="white"/>
<path d="M42.6176 17.3635C43.0105 17.858 42.9699 18.5708 43.5089 19.0156C43.2522 19.426 42.8338 19.1144 42.5015 19.1788C42.2598 18.8966 41.7563 18.6843 41.7713 18.1598C42.003 17.8978 42.1086 16.0476 42.6076 17.3586L42.6176 17.3635Z" fill="white"/>
<path d="M41.4639 17.1304C41.1566 17.7144 42.0985 19.0745 40.7993 19.015C40.2603 19.2655 39.648 19.3196 39.0718 19.1684C39.5752 18.3469 40.4215 17.8721 40.9355 17.1451H41.4389L41.4639 17.1304Z" fill="white"/>
<path d="M63.8812 16.6162C64.5764 17.4426 65.1909 18.6346 65.8605 19.629C65.8605 19.8321 66.1022 19.9112 66.0772 20.1235C64.4302 20.0689 63.2166 18.4567 62.1892 17.2941C62.6276 17.1702 62.9649 16.4432 63.4383 16.6954C63.5239 16.4874 63.7306 16.6359 63.8768 16.5966L63.8812 16.6162Z" fill="white"/>
<path d="M37.1174 17.2247C36.9462 17.4572 36.8051 17.6603 36.6139 17.9272C36.7751 18.2404 37.1218 18.4178 37.4752 18.3676C37.5658 18.5112 37.747 18.6793 37.5408 18.7682C36.5889 19.6535 35.5259 20.2522 34.4485 21.143C34.1084 21.346 33.7473 21.5119 33.3705 21.6375C32.8671 21.7019 32.2325 22.0632 31.7285 21.7313C32.8715 20.381 34.1462 19.4559 35.2942 18.1646C35.7527 17.6401 36.2711 17.1106 36.9762 17.2345H37.1224L37.1174 17.2247Z" fill="white"/>
<path d="M84.1377 16.7301C85.0089 16.3049 85.4474 17.5908 86.0164 17.9521C87.335 19.1599 88.5808 20.4415 89.7482 21.7907C90.5189 22.3545 91.3096 23.3735 92.0298 23.9919C91.5264 23.9471 91.0829 23.695 90.5539 23.6557C89.362 23.2501 88.2529 22.6388 87.2805 21.8502C85.9508 20.3263 84.0621 18.4368 83.0146 16.4976C83.4025 16.7497 83.7804 16.4528 84.1377 16.735V16.7301Z" fill="white"/>
<path d="M90.4231 16.6511C90.6509 16.8323 90.931 16.9377 91.2238 16.953C91.8784 17.5588 92.5897 18.1024 93.3493 18.5756C94.9657 19.8915 96.915 21.7565 98.6176 23.0277C98.7081 23.0822 98.7387 23.2258 98.8843 23.1614L98.8287 23.2209C99.2816 23.7798 99.8067 24.2786 100.39 24.7049L100.36 24.7644C100.36 24.8239 100.451 24.8239 100.511 24.819L100.456 24.8785C100.646 24.9691 100.811 25.105 100.934 25.2742C100.652 25.6502 100.315 25.022 99.8767 25.1503C99.5794 24.9276 99.111 24.9969 98.8693 24.7147C98.2591 24.5084 97.6718 24.2415 97.1167 23.9184C94.0144 21.8209 91.5111 19.2235 88.6956 16.6315C88.905 16.5185 89.1312 16.4366 89.3651 16.3892C89.748 16.4978 90.0503 16.8345 90.4276 16.6861L90.4231 16.6511Z" fill="white"/>
<path d="M95.5804 16.3935C95.7616 16.5616 96.1094 16.4677 96.3206 16.6358C96.9351 16.4481 97.7003 16.6953 98.3348 16.5911C101.699 18.3917 104.671 21.1523 107.828 23.1308C108.332 23.6946 108.961 23.8283 109.39 24.397C106.64 24.2999 104.005 23.2902 101.916 21.5327C100.541 20.4941 99.045 19.3708 97.6147 18.4261C96.8023 17.6881 95.9227 17.0255 94.9858 16.447C95.167 16.3591 95.3731 16.3346 95.5698 16.3777L95.5804 16.3935Z" fill="white"/>
<path d="M71.9844 17.3635C72.5734 17.5092 73.1958 17.4465 73.742 17.1856C75.1017 18.8874 76.7337 20.7818 78.2395 22.4787V22.5628C77.7361 22.5628 77.2321 22.2413 76.7687 22.3106V22.2511C74.0493 21.5039 73.1174 19.2831 71.3093 17.3832L70.8608 17.0764C71.1781 16.9231 71.4248 17.3537 71.7171 17.2298L71.9844 17.3635Z" fill="white"/>
<path d="M69.0838 17.8927C69.7939 18.135 70.4335 17.8332 71.1437 17.8927C72.0555 19.0132 72.8968 20.1877 73.6619 21.4098C74.2359 22.1471 74.7449 22.6269 75.2939 23.3637C72.6095 22.9331 70.6758 20.7564 69.0488 18.773C68.6943 18.4597 68.3887 18.0962 68.1425 17.6945L67.9258 17.2988C68.2531 17.5215 68.7265 17.6252 69.0843 17.8774V17.8927H69.0838Z" fill="white"/>
<path d="M62.8789 19.1738C63.4884 20.2278 64.4703 20.7566 64.9387 21.8106C64.6464 21.9345 64.3191 21.6817 64.0574 21.8106C63.7601 21.5879 63.1661 21.4591 62.8689 21.1425C62.0681 20.8407 61.4636 20.0198 60.854 19.3665C60.9596 18.8469 61.5491 18.872 61.6853 18.3126C61.6997 18.0839 61.7542 17.8595 61.8464 17.6494C62.0681 18.223 62.6927 18.5794 62.8789 19.1782V19.1738Z" fill="white"/>
<path d="M95.4393 17.3235C97.3019 18.8817 99.2578 20.3292 101.297 21.6571C101.921 22.1516 102.556 22.7852 103.18 23.235C103.945 23.7884 104.666 24.3992 105.336 25.0607C104.782 25.2435 104.187 24.9963 103.573 25.0607C102.395 24.9417 101.408 24.2147 100.37 23.7742C99.2667 23.1411 98.3554 22.1467 97.1413 21.3651C95.8116 19.8811 93.6962 18.4713 92.1953 17.1505C92.8099 17.0266 93.2577 17.3633 93.8723 17.2296C94.4613 17.2743 95.0103 16.8339 95.4337 17.3431L95.4393 17.3235Z" fill="white"/>
<path d="M39.1118 18.3324C39.0613 18.7679 38.5073 19.0053 38.4923 19.4403C38.7657 19.597 39.054 19.7258 39.3535 19.8262C37.8827 21.0384 36.4224 22.8537 34.272 22.4728L34.4681 22.0673C35.7573 20.6274 37.2081 19.6483 38.6184 18.4066C38.7601 18.2942 38.9529 18.2658 39.1218 18.3324H39.1118Z" fill="white"/>
<path d="M42.6676 19.7032C43.106 19.6044 43.5438 19.4805 43.9823 19.3817C44.0595 19.4205 44.1067 19.4996 44.1034 19.5848C43.2332 20.3473 42.1208 20.7899 40.9555 20.8363L40.7488 20.6977L40.6883 20.7572C40.5671 20.6136 40.391 20.594 40.4716 20.386L41.6501 19.1787C42.0024 19.1787 42.3653 19.5695 42.6576 19.7081L42.6676 19.7032Z" fill="white"/>
<path d="M68.8523 19.2529C70.182 20.9252 71.6879 22.592 72.7303 24.3582C72.0441 24.0848 71.409 23.7 70.8516 23.2202C69.4013 22.7258 68.9629 21.5037 67.8849 20.5737C67.661 20.2593 67.387 19.982 67.0742 19.7523C66.9481 19.3566 66.4196 19.3664 66.4696 18.9014C67.1948 19.3063 68.0477 19.4319 68.8618 19.2529H68.8523Z" fill="white"/>
<path d="M40.5521 19.5996C40.5521 20.1192 39.6202 20.0941 40.0486 20.7622C40.1442 21.1382 40.6432 20.9548 40.7082 21.2965C39.4996 22.286 38.2305 23.508 36.5835 23.4338L36.4023 23.2657C37.1386 22.387 37.9849 21.6021 38.9206 20.9308C39.4241 20.4903 40.0436 20.0155 40.5676 19.6002L40.5521 19.5996Z" fill="white"/>
<path d="M64.1023 19.8711C65.5226 21.479 67.0484 22.7453 68.0859 24.5709C68.4532 25.2679 68.5937 26.0588 68.4887 26.8365C68.0759 26.7328 68.0959 26.2727 67.733 26.02C66.61 24.5862 65.3186 23.2878 63.885 22.1514C64.3884 22.2257 64.8619 22.4183 65.3959 22.1809L65.6526 21.8594L64.0206 19.8804H64.1062L64.1023 19.8711Z" fill="white"/>
<path d="M70.5042 24.7735C70.4792 24.9814 70.7159 25.0557 70.6303 25.268C69.8991 24.9247 69.2206 24.482 68.6155 23.9521C67.3919 23.0318 66.5051 21.6122 65.4526 20.5337C65.8349 20.6484 66.2434 20.6484 66.6262 20.5337C66.674 20.4246 66.6918 20.3051 66.6768 20.1877L66.4956 20.0245L66.6112 19.9355C68.0265 21.484 69.4973 22.9036 70.5142 24.7735H70.5042V24.7735Z" fill="white"/>
<path d="M61.3829 20.5641C62.0424 21.123 62.3903 21.8107 63.1504 22.1126C63.211 22.3156 63.6539 22.3549 63.6539 22.6764C63.4649 22.7555 63.2693 22.8183 63.0699 22.8641C63.0093 22.6911 62.8381 22.7801 62.7176 22.7555C62.068 22.4782 61.2673 22.2954 60.7838 21.766C60.4943 21.5984 60.2398 21.3785 60.0337 21.1181C60.321 20.8212 60.8144 20.5543 60.8044 20.0942C61.0967 20.0347 61.1973 20.4899 61.404 20.5887L61.3829 20.5641Z" fill="white"/>
<path d="M42.5521 20.9994C42.7032 21.2614 42.2953 21.4399 42.3003 21.697C42.0181 22.3104 41.8925 23.1466 41.1673 23.4779C40.4405 23.9233 39.6015 24.1596 38.7446 24.1607C39.4298 23.3098 40.1799 22.573 40.9206 21.6871C41.0995 21.3662 41.4502 21.1741 41.8219 21.1927C42.0836 21.1927 42.2298 20.9258 42.5521 21.0049V20.9994Z" fill="white"/>
<path d="M59.7557 21.3755C60.2592 22.5135 62.274 22.5626 62.0823 24.1804C62.0823 24.3485 62.1479 24.7245 61.8306 24.7938C61.2188 24.9254 60.5815 24.7382 60.1436 24.2993C60.5014 23.3398 59.8313 22.2564 59.5796 21.3706H59.7557V21.3755Z" fill="white"/>
<path d="M59.8214 23.2206C60.0076 23.6163 59.7509 23.9973 59.7309 24.3733C59.1641 24.459 58.5845 24.3619 58.0789 24.0961C58.5662 23.4831 58.819 22.7218 58.794 21.944C58.8496 21.8005 59.0507 21.598 59.2019 21.7361C59.5458 22.165 59.7603 22.6792 59.8214 23.2206Z" fill="white"/>
<path d="M67.0841 26.9555C67.0841 27.5341 67.5575 28.3555 67.3358 28.9346C67.0057 28.6388 66.7118 28.3069 66.4595 27.9451C65.1653 26.6739 64.3946 25.0758 62.6165 24.393C62.4604 23.9924 62.4804 23.5323 62.3242 23.1612C62.9132 23.1612 63.6839 23.5372 64.1124 23.0078C65.3109 23.928 66.6606 25.3722 67.0841 26.9654V26.9555V26.9555Z" fill="white"/>
<path d="M59.7258 25.2094C59.8998 25.8332 59.7858 26.5007 59.4136 27.035C58.9429 27.0858 58.4695 26.9646 58.0838 26.6939C57.4543 26.1994 58.1138 25.4228 57.8066 24.824C57.7766 24.7105 57.6554 24.5719 57.7716 24.4829C58.3711 24.9774 59.328 24.4829 59.7258 25.2148V25.2094V25.2094Z" fill="white"/>
<path d="M57.4592 25.085C57.4592 25.5451 57.5148 26.2672 57.0513 26.6187C56.5829 26.7175 56.4873 26.4899 56.1045 26.4157C56.4168 25.8863 56.9608 25.3869 56.7996 24.7587C57.2075 24.4323 57.3886 24.8624 57.4542 25.09L57.4592 25.085Z" fill="white"/>
<path d="M62.3648 25.0956L62.5665 24.8926C62.6927 25.1448 62.8282 24.7987 62.9494 24.9668C64.3652 26.1911 65.3915 27.7897 65.9055 29.5723C65.82 29.8342 65.9055 30.3194 65.6638 30.5863C64.2891 28.2809 62.1737 26.8858 60.1638 25.1448V24.8877C60.7934 25.4766 61.6397 25.1993 62.3698 25.0956H62.3648Z" fill="white"/>
<path d="M63.785 29.2753C63.7345 29.6164 63.9112 29.6464 63.8606 29.9875C63.2966 29.7452 62.8132 29.087 62.3042 28.7262C61.4729 28.2317 60.8939 27.3459 60.1488 26.8956C60.1204 26.5397 60.1827 26.1828 60.3299 25.8569C61.4129 26.9305 63.166 27.7274 63.785 29.2753Z" fill="white"/>
<path d="M57.9833 27.465C57.9027 27.811 58.1745 28.2122 57.8572 28.5036L57.4793 28.6815C57.5349 28.3945 57.2126 28.6073 57.0915 28.4638C56.9464 27.9589 56.7275 27.4775 56.4419 27.0343C57.0365 27.1926 57.8972 26.3172 57.9778 27.465H57.9833V27.465Z" fill="white"/>
<path d="M58.5673 27.391C59.0536 27.4866 59.5564 27.4664 60.0332 27.3315C61.0501 28.183 61.6891 29.3892 61.8163 30.6953C61.6485 30.6069 61.4968 30.4917 61.3679 30.3542C60.2299 29.4585 59.4442 28.41 58.3462 27.6235V27.391H58.5529H58.5673Z" fill="white"/>
<path d="M63.4833 40.535C63.9656 40.2959 64.4118 39.9908 64.808 39.6295C64.5563 38.9718 64.3346 38.2541 63.7706 37.9228L63.8311 37.8933H63.7156C63.1366 37.013 62.013 36.7504 61.1973 36.132C60.9 36.0824 60.6938 35.6375 60.4821 35.6375C60.3904 35.9781 60.1126 36.2401 59.762 36.3154C58.684 35.3608 57.2993 35.1032 56.3924 34.1142C55.9562 33.8452 55.5539 33.5264 55.1938 33.1645L55.2494 33.1051C54.6498 32.6499 54.242 31.621 53.8797 30.7996L53.3357 30.3794C53.2429 30.2478 53.1084 30.1507 52.9528 30.1021L53.0084 30.0426C52.4444 29.7703 52.5805 29.3647 52.0465 29.1126C51.9888 29.6305 51.9888 30.1529 52.0465 30.6708C52.0765 30.8389 52.2683 31.2695 51.8854 31.2494C51.1119 30.6812 50.4584 29.9706 49.9617 29.1568L49.9867 29.1273C49.78 28.9887 49.8005 28.6328 49.5688 28.6328C49.2565 29.1868 49.3371 30.1168 49.3471 30.6512C49.3571 31.1855 49.715 31.4229 49.6944 31.883H49.5233C48.3903 31.2499 47.6595 30.023 47.005 28.7714C46.8177 29.0875 46.7155 29.445 46.7077 29.8101C46.2748 31.5168 46.8488 33.4953 47.7151 34.8904C48.8031 36.3744 50.1628 38.0663 51.981 38.9418C52.8823 39.9313 54.3781 39.8123 55.4511 40.3663C57.3954 40.4111 58.9768 40.8957 60.815 40.9154C61.0617 41.0638 61.5957 40.8755 61.918 40.9798C62.4742 40.9383 63.0176 40.7942 63.5194 40.5546L63.4833 40.535Z" fill="white"/>
<path d="M63.7801 40.683C63.2517 40.9259 62.6899 41.0929 62.1131 41.1775C61.9975 41.3319 61.7936 41.3942 61.6097 41.3308C61.4941 41.3603 61.408 41.5039 61.5241 41.5879C62.2631 41.9301 62.9783 42.3198 63.6645 42.7554C63.8762 42.894 64.0168 42.691 64.168 42.5676C63.9263 42.2609 63.4278 42.1817 63.035 41.875C62.8538 41.6769 63.1155 41.4395 63.2867 41.3554C63.7118 41.5257 64.113 41.7484 64.4803 42.0185C65.4271 42.3449 65.9911 43.0572 66.4951 43.8786C66.873 43.7252 66.9535 43.2946 67.1197 42.9437C67.1702 41.494 66.0167 40.6732 64.9843 39.8223C64.6347 40.1983 64.2024 40.4909 63.7201 40.6781L63.7801 40.683Z" fill="#BF0A30"/>
<path d="M54.2362 30.6905C54.3674 30.839 54.3468 31.1457 54.478 31.2942C55.022 32.0856 55.5154 33.0304 56.4067 33.4708C55.4615 31.8416 54.8714 30.0378 54.6741 28.1728L54.483 27.5446C54.1607 27.4949 54.2562 27.8661 54.0245 27.985C53.6972 28.6629 53.4 29.3403 53.6667 30.1371L54.2407 30.6862L54.2362 30.6905Z" fill="white"/>
<path d="M60.6579 31.3481C59.3499 31.1173 58.2419 30.268 57.6968 29.0776C58.1402 29.0776 58.2758 28.6322 58.4169 28.3457C59.4466 29.1093 60.2262 30.1534 60.6579 31.3481Z" fill="white"/>
<path d="M55.2889 28.9937C55.6229 29.755 56.0541 30.4717 56.5731 31.1255C56.6081 31.5016 57.0215 31.62 57.2076 31.8329L57.1471 31.8924C57.8772 32.9114 59.5798 32.847 59.7003 34.4303C59.9671 34.623 59.9221 34.9745 60.0982 35.1972C60.0443 35.3254 59.9554 35.4368 59.8415 35.5186C58.2501 35.2365 57.3232 33.6984 56.4819 32.5506C55.9913 31.6386 55.6145 30.672 55.3589 29.6715C55.2272 29.4761 55.17 29.2414 55.1978 29.0084H55.2883V28.9937H55.2889Z" fill="white"/>
<path d="M59.3578 32.3622L59.3022 32.6242C57.7914 32.3371 56.7084 30.8978 56.0288 29.5273C56.3761 29.374 56.9151 29.6512 57.1668 29.2402C57.892 30.1457 58.5365 31.4267 59.3528 32.3616H59.3578V32.3622Z" fill="white"/>
<path d="M62.1081 29.1372C64.4702 31.0469 65.9205 34.0395 67.5925 36.5131C67.2552 36.643 66.8835 36.6604 66.5351 36.5628C64.5202 35.8603 63.9462 33.7383 63.0094 32.1107C62.1681 31.2352 62.3748 30.1322 62.002 29.1427H62.1231L62.1081 29.1372Z" fill="white"/>
<path d="M62.657 32.7238C63.5383 33.9753 64.0573 34.9151 64.853 36.2507C64.4452 36.4635 63.8456 36.2163 63.4077 36.0231C62.3553 35.009 61.7657 33.5495 61.0006 32.2385C61.0812 31.9815 61.4035 31.803 61.1917 31.457C61.0656 31.0858 60.7639 30.7196 60.8139 30.3687C61.4485 31.1901 62.4303 31.5705 62.662 32.7183L62.657 32.7238Z" fill="white"/>
<path d="M60.4062 31.9966C60.6951 32.8262 61.1096 33.6083 61.6353 34.3167C61.8954 34.9051 62.2432 35.452 62.6677 35.9394V36.0529C62.2293 36.2358 61.897 35.8401 61.4892 35.8204C60.4817 35.2069 60.0939 34.0051 59.5754 33.0107C59.7466 32.7187 60.0033 32.4267 59.8777 32.1101C59.4571 31.9753 59.1448 31.6265 59.062 31.1997C59.4249 31.5708 60.2106 31.4077 60.4017 32.0108L60.4062 31.9966Z" fill="white"/>
<path d="M61.544 38.2298C61.8491 38.3111 62.1202 38.4841 62.3197 38.7242C62.2441 38.9933 62.023 39.1991 61.7457 39.2586C60.8894 39.1347 60.7383 38.304 59.872 38.2691C59.7509 38.1555 59.7764 38.0169 59.9276 37.9771C60.4504 38.1479 60.9983 38.2347 61.5495 38.2341L61.544 38.2298Z" fill="black"/>
</svg>
