<svg width="28" height="28" viewBox="0 0 28 28" fill="none" xmlns="http://www.w3.org/2000/svg">
<path d="M14 1.43897C20.9372 1.43897 26.5611 7.06293 26.5611 14.0001C26.5611 20.9372 20.9372 26.5612 14 26.5612C7.06284 26.5612 1.43889 20.9372 1.43889 14.0001C1.43889 7.06293 7.06284 1.43897 14 1.43897ZM14 0.85C6.72382 0.85 0.85 6.72382 0.85 14C0.85 21.2762 6.72382 27.15 14 27.15C21.2762 27.15 27.15 21.2762 27.15 14C27.15 6.72382 21.2762 0.85 14 0.85Z" fill="black" stroke="black" stroke-width="0.3"/>
<path d="M12.9315 6.77808C9.11813 7.06697 6.14258 10.2736 6.14258 14.1445C6.14258 16.216 6.98267 18.0775 8.35097 19.4171" stroke="black" stroke-width="0.9" stroke-miterlimit="10"/>
<path d="M16.2823 7.06664L12.9023 9.03099V4.37988L16.889 6.69102L16.2823 7.06664" stroke="black" stroke-width="0.9" stroke-miterlimit="10"/>
<path d="M15.0977 21.3666C18.911 21.0488 21.8865 17.8711 21.8865 14C21.8865 11.9631 21.0609 10.1294 19.7245 8.79517" stroke="black" stroke-width="0.9" stroke-miterlimit="10"/>
<path d="M11.7756 20.9334L15.1556 18.969V23.6201L11.1689 21.309L11.7755 20.9334" stroke="black" stroke-width="0.9" stroke-miterlimit="10"/>
</svg>
