<svg width="176" height="32" viewBox="0 0 176 32" fill="none" xmlns="http://www.w3.org/2000/svg">
<path d="M52.9552 28.3867C54.6103 28.3867 56.0356 28.0309 57.231 27.3193C58.4341 26.6078 59.3575 25.6123 60.0012 24.333C60.6525 23.0537 60.9782 21.5662 60.9782 19.8706C60.9782 18.1749 60.6525 16.6875 60.0012 15.4082C59.3575 14.1288 58.4341 13.1334 57.231 12.4218C56.0356 11.7103 54.6103 11.3545 52.9552 11.3545C51.3 11.3545 49.8709 11.7103 48.6678 12.4218C47.4724 13.1334 46.549 14.1288 45.8977 15.4082C45.254 16.6875 44.9321 18.1749 44.9321 19.8706C44.9321 21.5662 45.254 23.0537 45.8977 24.333C46.549 25.6123 47.4724 26.6078 48.6678 27.3193C49.8709 28.0309 51.3 28.3867 52.9552 28.3867ZM52.9552 25.4799C51.3843 25.4571 50.2042 24.9424 49.4149 23.9356C48.6333 22.9288 48.2425 21.5738 48.2425 19.8706C48.2425 18.1674 48.6333 16.801 49.4149 15.7715C50.2042 14.742 51.3843 14.2386 52.9552 14.2613C54.5337 14.284 55.7138 14.7988 56.4954 15.8056C57.277 16.8124 57.6678 18.1674 57.6678 19.8706C57.6678 21.5738 57.277 22.9402 56.4954 23.9697C55.7138 24.9992 54.5337 25.5026 52.9552 25.4799Z" fill="#01247E"/>
<path d="M63.2727 28.046H66.4452V17.1454L73.6406 28.046H76.813V11.6951H73.6406V22.5957L66.4452 11.6951H63.2727V28.046Z" fill="#01247E"/>
<path d="M152.377 28.3867C153.71 28.3867 154.883 28.1217 155.894 27.5918C156.906 27.0544 157.695 26.3012 158.262 25.3322C158.829 24.3633 159.113 23.224 159.113 21.9144V11.6951H155.94V21.8917C155.94 22.5957 155.783 23.2165 155.469 23.7539C155.155 24.2914 154.729 24.7153 154.193 25.0257C153.657 25.3285 153.051 25.4799 152.377 25.4799C151.718 25.4799 151.116 25.3322 150.572 25.037C150.036 24.7342 149.607 24.3141 149.285 23.7766C148.971 23.2392 148.814 22.6109 148.814 21.8917V11.6951L145.641 11.7178V21.9144C145.641 23.224 145.925 24.3633 146.492 25.3322C147.059 26.3012 147.848 27.0544 148.86 27.5918C149.871 28.1217 151.043 28.3867 152.377 28.3867Z" fill="#01247E"/>
<path d="M162.321 28.046H165.448V20.5973L172.046 28.046H176L168.643 19.757L175.563 11.6951H171.747L165.448 19.2347V11.6951H162.321V28.046Z" fill="#01247E"/>
<path d="M87.2722 28.5605C88.8661 28.5605 90.2492 28.2199 91.4216 27.5386C92.5941 26.8497 93.5021 25.8997 94.1458 24.6885C94.7895 23.4773 95.1113 22.0883 95.1113 20.5213C95.1113 20.4835 95.1075 20.3396 95.0998 20.0898C95.0922 19.84 95.0807 19.6659 95.0653 19.5675H89.1113V21.952H91.732C91.4791 23.2465 90.9734 24.1927 90.2147 24.7907C89.4638 25.3887 88.5519 25.6764 87.4791 25.6537C85.9082 25.631 84.7281 25.1162 83.9388 24.1094C83.1572 23.1026 82.7664 21.7476 82.7664 20.0444C82.7664 18.3412 83.1572 16.9748 83.9388 15.9453C84.7281 14.9158 85.9082 14.4124 87.4791 14.4351C88.5366 14.4427 89.4025 14.7342 90.0768 15.3095C90.7588 15.8772 91.2492 16.638 91.5481 17.5918L94.7435 17.1376C94.3297 15.3511 93.5136 13.9696 92.2952 12.9931C91.0768 12.0166 89.4025 11.5283 87.2722 11.5283C85.8316 11.5283 84.5174 11.8614 83.3296 12.5275C82.1496 13.1937 81.207 14.1626 80.502 15.4344C79.8047 16.6985 79.4561 18.2352 79.4561 20.0444C79.4561 21.4297 79.663 22.6522 80.0767 23.712C80.4982 24.7718 81.0691 25.6613 81.7894 26.3804C82.5174 27.0995 83.3526 27.6446 84.2952 28.0155C85.2377 28.3788 86.23 28.5605 87.2722 28.5605Z" fill="#D0142C"/>
<path d="M95.8166 28.2199H99.035L100.081 24.8134H106.311L107.38 28.2199H110.598L105.541 11.869H100.874L95.8166 28.2199ZM100.966 21.9293L103.173 14.7644L105.414 21.9293H100.966Z" fill="#D0142C"/>
<path d="M112.658 28.2199H115.578V18.4547L120.383 28.2199H121.486L126.291 18.4547V28.2199H129.21V11.869H126.406L120.934 22.7241L115.463 11.869H112.658V28.2199Z" fill="#D0142C"/>
<path d="M132.437 28.2199H143.241V25.3357H135.563V21.1345H141.862V18.2504H135.563V14.7531H143.241V11.869H132.437V28.2199Z" fill="#D0142C"/>
<path d="M8.23994 12.9604C8.79904 11.24 14.2968 6.76689 17.2414 4.12891C19.8133 6.5375 25.6838 10.8959 26.2429 12.9604C26.5422 14.0655 26.5784 14.9102 26.1311 15.8278C25.6567 16.801 24.8611 17.7981 24.0065 18.2364C22.8883 18.8099 20.4283 18.4658 18.751 18.3511C18.4697 18.3318 19.4528 22.1495 19.976 24.1809L19.981 24.2005L20.8987 21.6772L32.393 16.7453L30.3032 28.903H4.13888L2.08984 16.86H3.09622L13.5842 21.6772L14.7255 24.2005C15.061 22.3272 16.2114 18.3209 15.8437 18.3511C13.0482 18.5805 12.7127 18.5805 11.2591 18.2364C9.93356 17.9226 8.98897 16.7061 8.5754 15.9425C8.0163 14.9102 8.02485 13.6223 8.23994 12.9604Z" fill="#01247E"/>
<path d="M30.3036 29.9355H4.18018V32.0001H30.3036V29.9355Z" fill="#D0142C"/>
<ellipse cx="2.08988" cy="16.5157" rx="2.08988" ry="2.06451" fill="#01247E"/>
<ellipse cx="32.3926" cy="16.5157" rx="2.08988" ry="2.06451" fill="#01247E"/>
<ellipse cx="17.2413" cy="2.58064" rx="2.61234" ry="2.58064" fill="#01247E"/>
</svg>
