<svg width="32" height="28" viewBox="0 0 32 28" fill="none" xmlns="http://www.w3.org/2000/svg">
<path d="M0.891534 2.23765H31.11V0.90602H0.891534V2.23765ZM16.5346 8.99901V10.4201C18.0569 10.5878 19.2482 11.4646 19.3131 13.1244L18.1688 13.2139C18.0618 12.198 17.5135 11.6393 16.5346 11.4988V14.4159C17.9908 14.7763 19.5767 15.2707 19.5767 17.1137C19.5767 18.8244 18.056 19.7555 16.5346 19.8421V21.2386H15.4658V19.8073C13.7702 19.612 12.4745 18.6006 12.424 16.7557L13.5425 16.6534C13.6782 17.8456 14.3285 18.4804 15.4658 18.7064V15.403C14.1735 15.0662 12.763 14.5548 12.763 12.9151C12.763 11.3471 14.0789 10.5405 15.4658 10.4091V8.9987L16.5346 8.99901ZM16.5346 15.6741V18.7631C17.4012 18.6921 18.4327 18.2491 18.4327 17.2163C18.4327 16.151 17.3513 15.8906 16.5346 15.6741ZM15.4658 14.1543V11.4877C14.7181 11.5698 13.9073 11.9569 13.9073 12.8363C13.9073 13.7411 14.7596 13.961 15.4658 14.1543ZM0.89116 5.49366H5.92937V3.14375H0.89116V5.49366ZM26.0706 5.49366H31.1088V3.14375H26.0706V5.49366ZM5.92937 6.39983H0V0H32V6.39983H26.0706V28H5.92937V6.39983ZM25.1795 27.0943V3.14382H6.81978V27.0943H25.1795Z" fill="#002868"/>
</svg>
