<svg width="26" height="26" viewBox="0 0 26 26" fill="none" xmlns="http://www.w3.org/2000/svg">
<path d="M25.2975 7.02709C23.6202 7.02709 22.0117 6.3607 20.8254 5.17475C19.6395 3.98854 18.9731 2.38002 18.9731 0.702664C18.9731 0.516395 18.8991 0.337485 18.7672 0.20587C18.6356 0.0740111 18.4567 0 18.2704 0H7.72973C7.34151 0 7.02708 0.314446 7.02708 0.702652C7.02708 2.38 6.36069 3.98853 5.17474 5.17474C3.98853 6.36069 2.38001 7.02708 0.702652 7.02708C0.314434 7.02708 0 7.34152 0 7.72973V8.99461C0.0124995 12.8287 1.26708 16.5551 3.57606 19.6163C5.88504 22.6771 9.12386 24.9072 12.8067 25.9721C12.9327 26.0093 13.067 26.0093 13.193 25.9721C16.8761 24.9069 20.1147 22.6768 22.4236 19.6163C24.7326 16.5554 25.9872 12.8288 25.9997 8.99461V7.72973C25.9997 7.54346 25.9257 7.36455 25.7938 7.23293C25.6622 7.10108 25.4833 7.02707 25.297 7.02707L25.2975 7.02709ZM24.5949 8.99463C24.5831 12.4893 23.4506 15.8881 21.3634 18.6915C19.2762 21.4948 16.3448 23.554 12.9998 24.567C9.65512 23.554 6.72373 21.4945 4.63629 18.6915C2.54886 15.8884 1.41661 12.4895 1.40481 8.99463V8.40078C3.20477 8.23657 4.89021 7.44691 6.16834 6.16879C7.44646 4.89066 8.23614 3.20522 8.40033 1.40526H17.599C17.7632 3.20522 18.5529 4.89066 19.831 6.16879C21.1091 7.44691 22.7946 8.23659 24.5945 8.40078L24.5949 8.99463Z" fill="#002868"/>
<path d="M15.4599 10.572V9.48629C15.4599 8.60765 14.9913 7.7957 14.2303 7.35625C13.4693 6.91706 12.5316 6.91706 11.7706 7.35625C11.0096 7.79569 10.541 8.60765 10.541 9.48629V10.572C10.0501 10.6549 9.60448 10.909 9.28293 11.2889C8.96138 11.6691 8.78467 12.1506 8.78418 12.6484V16.8649C8.78418 17.424 9.00623 17.9602 9.40155 18.3555C9.79687 18.7509 10.3331 18.9729 10.8922 18.9729H15.1087C15.6677 18.9729 16.2039 18.7509 16.5993 18.3555C16.9946 17.9602 17.2167 17.4239 17.2167 16.8649V12.6484C17.2162 12.1507 17.0395 11.6691 16.7179 11.2889C16.3964 10.9091 15.9508 10.6549 15.4599 10.572H15.4599ZM11.9463 9.48629C11.9463 9.10959 12.1473 8.76181 12.4735 8.57333C12.7995 8.3851 13.2015 8.3851 13.5274 8.57333C13.8536 8.7618 14.0546 9.10958 14.0546 9.48629V10.5404H11.9463L11.9463 9.48629ZM15.8114 16.8648C15.8114 17.0511 15.7374 17.2297 15.6055 17.3616C15.4737 17.4934 15.295 17.5675 15.1087 17.5675H10.8923C10.5043 17.5675 10.1896 17.2528 10.1896 16.8648V12.6483C10.1896 12.2604 10.5043 11.9457 10.8923 11.9457H15.1087C15.295 11.9457 15.4737 12.0197 15.6055 12.1515C15.7374 12.2834 15.8114 12.4621 15.8114 12.6483V16.8648Z" fill="#002868"/>
<path d="M13.0003 13.0459C12.6915 13.0491 12.3996 13.1876 12.2016 13.4248C12.0038 13.662 11.92 13.974 11.9722 14.2784C12.0244 14.5828 12.2077 14.849 12.4734 15.0065V15.9447C12.4734 16.2356 12.7092 16.4717 13.0004 16.4717C13.2915 16.4717 13.5273 16.2356 13.5273 15.9447V15.0065C13.793 14.8489 13.9763 14.5828 14.0285 14.2784C14.0807 13.974 13.9969 13.662 13.7991 13.4248C13.6011 13.1876 13.3092 13.0491 13.0004 13.0459H13.0003Z" fill="#002868"/>
</svg>
