<svg width="162" height="83" viewBox="0 0 162 83" fill="none" xmlns="http://www.w3.org/2000/svg">
<path d="M41.8212 32.5974C39.3111 32.5974 37.3707 31.8313 36.0001 30.2992C34.6294 28.7671 33.9441 26.5938 33.9441 23.7794C33.9441 21.0649 34.6212 18.9333 35.9753 17.3845C37.3459 15.8191 39.2285 15.0364 41.623 15.0364C44.1331 15.0364 46.09 15.7941 47.4937 17.3096C48.8974 18.825 49.5992 20.94 49.5992 23.6545C49.5992 26.4689 48.9139 28.6672 47.5432 30.2493C46.1891 31.8147 44.2817 32.5974 41.8212 32.5974ZM41.7964 18.5336C39.6496 18.5336 38.5762 20.2989 38.5762 23.8294C38.5762 25.5114 38.7826 26.7604 39.1955 27.5764C39.7074 28.5922 40.5661 29.1002 41.7716 29.1002C43.9019 29.1002 44.9671 27.3849 44.9671 23.9543C44.9671 22.0558 44.7111 20.6819 44.1992 19.8326C43.7038 18.9666 42.9028 18.5336 41.7964 18.5336Z" fill="#BF0A30"/>
<path d="M62.1674 17.0598L66.5271 27.7513V20.3571C66.5271 19.2414 66.3124 18.6835 65.8831 18.6835C65.7675 18.6835 65.5941 18.7168 65.3629 18.7834C65.1482 18.8334 64.9831 18.8583 64.8675 18.8583C64.5207 18.8583 64.2234 18.7001 63.9757 18.3837C63.7445 18.0673 63.6289 17.6759 63.6289 17.2096C63.6289 16.6601 63.7858 16.2188 64.0996 15.8857C64.4133 15.5526 64.8262 15.3861 65.3381 15.3861C65.6023 15.3861 66.0565 15.4277 66.7005 15.511C67.3445 15.5943 67.9143 15.6359 68.4097 15.6359C68.8556 15.6359 69.3757 15.6026 69.9702 15.536C70.862 15.4361 71.4152 15.3861 71.6299 15.3861C72.1583 15.3861 72.5877 15.5526 72.9179 15.8857C73.2482 16.2188 73.4134 16.6601 73.4134 17.2096C73.4134 17.6759 73.2813 18.0673 73.017 18.3837C72.7528 18.7001 72.4308 18.8583 72.051 18.8583C71.9023 18.8583 71.7042 18.8334 71.4565 18.7834C71.2088 18.7168 71.0189 18.6835 70.8867 18.6835C70.5565 18.6835 70.3418 18.8916 70.2427 19.308C70.2097 19.4745 70.1932 19.8242 70.1932 20.3571V30.524C70.1932 31.6232 69.7473 32.1727 68.8555 32.1727C68.6904 32.1727 68.4344 32.1644 68.0877 32.1478C67.7574 32.1144 67.5097 32.0978 67.3445 32.0978C67.328 32.0978 66.9234 32.1144 66.1308 32.1478C66.1308 32.1478 65.9491 32.1478 65.5858 32.1478C65.1069 32.1478 64.7519 32.0312 64.5207 31.798C64.3886 31.6648 64.1986 31.3068 63.9509 30.7239L59.1702 19.7326V27.2766C59.1702 28.4091 59.3849 28.9753 59.8142 28.9753C59.9298 28.9753 60.1032 28.9503 60.3344 28.9003C60.5821 28.8337 60.7638 28.8004 60.8794 28.8004C61.2262 28.8004 61.5152 28.9586 61.7463 29.275C61.9941 29.5915 62.1179 29.9828 62.1179 30.4491C62.1179 31.6648 61.5399 32.2727 60.384 32.2727C60.0537 32.2727 59.5087 32.2227 58.7491 32.1228C58.2372 32.0562 57.7252 32.0229 57.2133 32.0229C56.7839 32.0229 56.206 32.0645 55.4793 32.1478C54.7527 32.231 54.2904 32.2727 54.0922 32.2727C52.8867 32.2727 52.2839 31.6648 52.2839 30.4491C52.2839 29.9828 52.4078 29.5915 52.6555 29.275C52.9197 28.9586 53.2417 28.8004 53.6215 28.8004C53.7702 28.8004 53.9683 28.8337 54.216 28.9003C54.4803 28.9503 54.6784 28.9753 54.8105 28.9753C55.2564 28.9753 55.4793 28.4091 55.4793 27.2766V20.3571C55.4793 19.2414 55.2564 18.6835 54.8105 18.6835C54.6784 18.6835 54.4803 18.7168 54.216 18.7834C53.9683 18.8334 53.7702 18.8583 53.6215 18.8583C53.2417 18.8583 52.9197 18.7001 52.6555 18.3837C52.4078 18.0673 52.2839 17.6759 52.2839 17.2096C52.2839 16.6601 52.4491 16.2188 52.7793 15.8857C53.1096 15.5526 53.539 15.3861 54.0674 15.3861C54.4142 15.3861 54.9179 15.4277 55.5784 15.511C56.239 15.5943 56.7592 15.6359 57.139 15.6359C57.4528 15.6359 57.9894 15.6026 58.7491 15.536C59.0959 15.5193 59.4922 15.486 59.9381 15.4361C60.1362 15.4028 60.3509 15.3861 60.5821 15.3861C61.028 15.3861 61.3748 15.561 61.6225 15.9107C61.7216 16.0439 61.9032 16.4269 62.1674 17.0598Z" fill="#BF0A30"/>
<path d="M83.3285 15.0364C85.0866 15.0364 86.5517 15.6276 87.7238 16.81C87.8745 15.8274 88.3769 15.3361 89.2308 15.3361C90.269 15.3361 90.7881 15.8357 90.7881 16.8349C90.7881 17.0015 90.7546 17.3345 90.6876 17.8342C90.5871 18.5836 90.5369 19.0915 90.5369 19.3579C90.5369 19.6577 90.5536 19.8825 90.5871 20.0324C90.6206 20.5653 90.6374 20.8651 90.6374 20.9317C90.6374 21.3647 90.4448 21.731 90.0597 22.0308C89.6746 22.3139 89.1806 22.4555 88.5778 22.4555C87.6066 22.4555 87.0206 21.9808 86.8197 21.0316C86.6187 20.0824 86.3257 19.4329 85.9406 19.0832C85.5722 18.7168 84.9778 18.5336 84.1573 18.5336C83.0689 18.5336 82.2233 19.0415 81.6205 20.0574C81.0345 21.0566 80.7415 22.4804 80.7415 24.329C80.7415 25.8944 81.0261 27.1184 81.5954 28.0011C82.1815 28.867 82.9852 29.3 84.0066 29.3C84.6596 29.3 85.1955 29.1168 85.6141 28.7505C86.0494 28.3674 86.2671 27.8928 86.2671 27.3266C86.2671 26.6271 85.9741 26.2774 85.388 26.2774C85.3545 26.2774 85.3043 26.2774 85.2373 26.2774C85.1703 26.2941 85.1117 26.3024 85.0615 26.3024C84.7936 26.3357 84.6429 26.3524 84.6094 26.3524C84.2745 26.3524 83.9899 26.2108 83.7554 25.9277C83.521 25.6279 83.4038 25.2616 83.4038 24.8286C83.4038 24.329 83.5713 23.9293 83.9061 23.6295C84.241 23.3298 84.6764 23.1799 85.2122 23.1799C85.5638 23.1799 86.0913 23.2299 86.7945 23.3298C87.5145 23.413 88.0587 23.4547 88.4271 23.4547C88.9797 23.4547 89.5908 23.413 90.2606 23.3298C90.7964 23.2632 91.1648 23.2299 91.3657 23.2299C91.9016 23.2299 92.3285 23.3964 92.6467 23.7295C92.9816 24.0459 93.149 24.4789 93.149 25.0284C93.149 25.5114 93.0318 25.9194 92.7974 26.2524C92.563 26.5689 92.2699 26.7271 91.9183 26.7271L91.3155 26.6771C90.8634 26.6771 90.6374 27.0518 90.6374 27.8012C90.6374 28.1176 90.6457 28.4507 90.6625 28.8004L90.7127 29.8746C90.7295 30.2409 90.7378 30.5907 90.7378 30.9237C90.7378 32.0395 90.1183 32.5974 88.8792 32.5974C87.7071 32.5974 87.1211 32.1894 87.1211 31.3734V31.2235C85.9657 32.1394 84.6513 32.5974 83.1778 32.5974C81.8884 32.5974 80.6745 32.2643 79.5359 31.5982C78.3973 30.9154 77.5684 30.0328 77.0493 28.9503C76.3796 27.5681 76.0447 25.961 76.0447 24.1291C76.0447 21.3314 76.6977 19.1165 78.0038 17.4844C79.3098 15.8524 81.0847 15.0364 83.3285 15.0364Z" fill="#002868"/>
<path d="M106.292 26.9769H102.951C101.997 26.9769 101.519 27.5431 101.519 28.6755C101.519 28.942 101.662 29.0752 101.946 29.0752C102.03 29.0752 102.156 29.0669 102.323 29.0502C102.491 29.0169 102.616 29.0003 102.7 29.0003C103.319 29.0003 103.629 29.4915 103.629 30.4741C103.629 31.007 103.487 31.44 103.202 31.7731C102.918 32.1061 102.541 32.2727 102.072 32.2727C101.838 32.2727 101.319 32.2144 100.515 32.0978C100.163 32.0478 99.6692 32.0229 99.0329 32.0229C98.3464 32.0229 97.8106 32.0478 97.4255 32.0978C96.538 32.2144 96.0106 32.2727 95.8431 32.2727C95.3241 32.2727 94.8971 32.1144 94.5622 31.798C94.2441 31.4816 94.085 31.0653 94.085 30.549C94.085 29.3833 94.5287 28.8004 95.4162 28.8004C95.5166 28.8004 95.6757 28.8171 95.8934 28.8504C96.1111 28.867 96.2701 28.8754 96.3706 28.8754C96.6887 28.8754 96.9483 28.7005 97.1492 28.3508C97.1994 28.2509 97.3167 27.9428 97.5008 27.4265L100.967 17.6093C101.369 16.4936 101.821 15.7941 102.323 15.511C102.692 15.3278 103.504 15.2362 104.76 15.2362C106.166 15.2362 107.053 15.3278 107.422 15.511C107.79 15.6775 108.092 16.1605 108.326 16.9598L111.541 27.6014C111.792 28.4507 112.085 28.8754 112.42 28.8754C112.521 28.8754 112.696 28.8504 112.947 28.8004H113.224C114.161 28.8004 114.63 29.35 114.63 30.4491C114.63 30.9987 114.463 31.44 114.128 31.7731C113.793 32.1061 113.358 32.2727 112.822 32.2727C112.587 32.2727 112.278 32.2477 111.893 32.1977C111.424 32.1144 111.114 32.0728 110.963 32.0728C110.595 32.0395 110.118 32.0229 109.532 32.0229C108.895 32.0229 108.468 32.0395 108.251 32.0728C107.397 32.206 106.861 32.2727 106.643 32.2727C106.191 32.2727 105.814 32.1061 105.513 31.7731C105.228 31.4233 105.086 30.9903 105.086 30.4741C105.086 29.4915 105.404 29.0003 106.04 29.0003C106.124 29.0003 106.25 29.0169 106.417 29.0502C106.585 29.0669 106.71 29.0752 106.794 29.0752C107.112 29.0752 107.271 28.9003 107.271 28.5506C107.271 28.101 107.179 27.7263 106.995 27.4265C106.811 27.1268 106.576 26.9769 106.292 26.9769ZM105.915 23.1549L104.709 18.034L103.152 23.3548C103.135 23.4047 103.127 23.463 103.127 23.5296C103.127 23.7295 103.336 23.8294 103.755 23.8294H105.312C105.747 23.8294 105.965 23.7128 105.965 23.4797C105.965 23.4963 105.948 23.3881 105.915 23.1549Z" fill="#002868"/>
<path d="M127.384 16.9349L129.469 26.0526L131.654 17.3096C131.838 16.5768 132.039 16.0772 132.257 15.8108C132.491 15.5277 132.818 15.3861 133.236 15.3861C133.604 15.3861 134.165 15.4277 134.919 15.511C135.672 15.5943 136.242 15.6359 136.627 15.6359C137.029 15.6359 138.025 15.5693 139.616 15.4361C140.068 15.4028 140.403 15.3861 140.62 15.3861C141.173 15.3861 141.617 15.5526 141.952 15.8857C142.286 16.2021 142.454 16.6434 142.454 17.2096C142.454 17.6759 142.32 18.0673 142.052 18.3837C141.801 18.7001 141.483 18.8583 141.098 18.8583C140.947 18.8583 140.738 18.8334 140.47 18.7834C140.202 18.7168 140.009 18.6835 139.892 18.6835C139.44 18.6835 139.214 19.2414 139.214 20.3571V27.2766C139.214 28.4091 139.432 28.9753 139.867 28.9753C140.001 28.9753 140.202 28.9503 140.47 28.9003C140.738 28.8337 140.938 28.8004 141.072 28.8004C141.458 28.8004 141.784 28.9586 142.052 29.275C142.32 29.5915 142.454 29.9828 142.454 30.4491C142.454 31.0153 142.286 31.465 141.952 31.798C141.617 32.1144 141.173 32.2727 140.62 32.2727C140.302 32.2727 139.766 32.2227 139.013 32.1228C138.511 32.0562 138.008 32.0229 137.506 32.0229C137.188 32.0229 136.719 32.0645 136.099 32.1478C135.48 32.231 135.011 32.2727 134.693 32.2727C134.191 32.2727 133.78 32.1061 133.462 31.7731C133.161 31.44 133.01 30.9987 133.01 30.4491C133.01 29.4166 133.353 28.9003 134.04 28.9003C134.14 28.9003 134.216 28.9087 134.266 28.9253C134.316 28.9253 134.375 28.9253 134.442 28.9253C134.509 28.942 134.551 28.9503 134.567 28.9503C134.835 28.9503 134.994 28.7671 135.044 28.4007C135.061 28.2342 135.07 27.9511 135.07 27.5514V18.1339L131.578 30.4241C131.277 31.4899 130.783 32.0229 130.097 32.0229H128.489C127.819 32.0229 127.359 31.5482 127.108 30.599L123.767 18.1339V27.5514C123.767 28.3341 123.843 28.7754 123.993 28.8754C124.043 28.9253 124.136 28.9503 124.27 28.9503C124.303 28.9503 124.353 28.942 124.42 28.9253C124.47 28.9253 124.521 28.9253 124.571 28.9253C124.621 28.9087 124.697 28.9003 124.797 28.9003C125.467 28.9003 125.802 29.4083 125.802 30.4241C125.802 30.9903 125.651 31.44 125.35 31.7731C125.048 32.1061 124.646 32.2727 124.144 32.2727C123.91 32.2727 123.608 32.2477 123.24 32.1977C122.771 32.1311 122.478 32.0895 122.361 32.0728C122.009 32.0395 121.607 32.0229 121.155 32.0229C120.586 32.0229 120.109 32.0478 119.723 32.0978C118.685 32.231 118.166 32.2976 118.166 32.2976C117.647 32.2976 117.22 32.1228 116.885 31.7731C116.55 31.4233 116.383 30.982 116.383 30.4491C116.383 29.9662 116.509 29.5748 116.76 29.275C117.028 28.9586 117.362 28.8004 117.764 28.8004C117.898 28.8004 118.091 28.8337 118.342 28.9003C118.61 28.9503 118.811 28.9753 118.945 28.9753C119.28 28.9753 119.489 28.7588 119.573 28.3258C119.606 28.1593 119.623 27.8095 119.623 27.2766V20.3571C119.623 19.8242 119.606 19.4828 119.573 19.333C119.489 18.9 119.28 18.6835 118.945 18.6835C118.811 18.6835 118.61 18.7168 118.342 18.7834C118.091 18.8334 117.89 18.8583 117.739 18.8583C117.354 18.8583 117.028 18.7001 116.76 18.3837C116.509 18.0673 116.383 17.6759 116.383 17.2096C116.383 15.9939 117.002 15.3861 118.242 15.3861C118.643 15.3861 119.313 15.4277 120.251 15.511C121.189 15.5943 121.892 15.6359 122.361 15.6359C123.114 15.6359 123.901 15.5859 124.722 15.486C125.274 15.4194 125.71 15.3861 126.028 15.3861C126.446 15.3861 126.739 15.486 126.907 15.6859C127.074 15.8857 127.233 16.302 127.384 16.9349Z" fill="#002868"/>
<path d="M154.013 18.5336C153.46 18.5336 153.092 18.5836 152.908 18.6835C152.657 18.8334 152.531 19.1664 152.531 19.6827V21.0816C152.531 21.3647 152.565 21.5812 152.632 21.731C152.715 21.8643 152.916 21.9309 153.234 21.9309C153.971 21.9309 154.339 21.6644 154.339 21.1315V20.8068C154.323 20.7069 154.314 20.582 154.314 20.4321C154.314 19.7326 154.725 19.3829 155.545 19.3829C156.399 19.3829 156.826 19.8076 156.826 20.6569C156.826 20.8901 156.809 21.1482 156.776 21.4313C156.709 21.9808 156.675 22.4888 156.675 22.9551C156.675 23.3881 156.709 23.9376 156.776 24.6038C156.843 25.2699 156.876 25.7362 156.876 26.0026C156.876 26.9852 156.433 27.4765 155.545 27.4765C154.708 27.4765 154.289 27.0518 154.289 26.2025C154.289 26.1192 154.289 26.0776 154.289 26.0776C154.289 25.9943 154.306 25.7945 154.339 25.4781C154.339 25.0784 153.979 24.8785 153.259 24.8785C152.774 24.8785 152.531 25.145 152.531 25.6779V27.5514C152.531 28.1343 152.632 28.534 152.832 28.7505C153.05 28.9503 153.444 29.0502 154.013 29.0502H155.47C156.541 29.0502 157.286 28.9586 157.705 28.7754C158.14 28.5922 158.358 28.2675 158.358 27.8012C158.358 27.5681 158.333 27.2933 158.283 26.9769C158.233 26.6438 158.207 26.369 158.207 26.1525C158.207 25.5364 158.383 25.0534 158.735 24.7037C159.086 24.354 159.564 24.1791 160.166 24.1791C161.389 24.1791 162 24.8452 162 26.1775C162 26.6105 161.975 27.0685 161.925 27.5514C161.841 28.3508 161.799 28.8504 161.799 29.0502C161.799 29.2334 161.841 29.5915 161.925 30.1244C161.975 30.4408 162 30.7655 162 31.0986C162 31.8813 161.506 32.2727 160.518 32.2727C160.2 32.2727 159.673 32.2477 158.936 32.1977C157.713 32.1144 155.763 32.0562 153.084 32.0229C153.084 32.0229 152.339 32.0229 150.848 32.0229C150.011 32.0229 149.316 32.0478 148.764 32.0978L146.855 32.2727C146.838 32.2727 146.805 32.281 146.754 32.2976C146.704 32.2976 146.662 32.2976 146.629 32.2976C146.11 32.2976 145.683 32.1228 145.348 31.7731C145.03 31.4233 144.871 30.982 144.871 30.4491C144.871 29.9828 144.996 29.5915 145.247 29.275C145.515 28.9586 145.85 28.8004 146.252 28.8004C146.386 28.8004 146.587 28.8337 146.855 28.9003C147.123 28.9503 147.315 28.9753 147.432 28.9753C147.885 28.9753 148.111 28.4091 148.111 27.2766V20.3571C148.111 19.2414 147.885 18.6835 147.432 18.6835C147.332 18.6835 147.131 18.7168 146.83 18.7834C146.612 18.8334 146.419 18.8583 146.252 18.8583C145.867 18.8583 145.54 18.7001 145.272 18.3837C145.004 18.0673 144.871 17.6759 144.871 17.2096C144.871 15.9939 145.482 15.3861 146.704 15.3861C146.989 15.3861 147.566 15.4194 148.437 15.486C149.743 15.5859 151.007 15.6359 152.23 15.6359C152.347 15.6359 153.352 15.6109 155.244 15.561C156.617 15.5277 157.521 15.4943 157.956 15.461C158.676 15.4111 159.43 15.3861 160.217 15.3861C161.154 15.3861 161.623 15.7941 161.623 16.6101C161.623 16.8766 161.59 17.2679 161.523 17.7842C161.473 18.3004 161.447 18.6918 161.447 18.9583C161.447 19.2247 161.481 19.6077 161.548 20.1073C161.632 20.5903 161.673 20.9567 161.673 21.2065C161.673 21.6894 161.489 22.0974 161.121 22.4305C160.769 22.7636 160.326 22.9301 159.79 22.9301C158.534 22.9301 157.906 22.2889 157.906 21.0066C157.906 20.7901 157.939 20.4904 158.006 20.1073C158.09 19.7243 158.132 19.4412 158.132 19.258C158.132 18.8916 157.939 18.6668 157.554 18.5836C157.42 18.5502 157.069 18.5336 156.499 18.5336H154.013Z" fill="#002868"/>
<path d="M162 38.7439H33.9441V70.3537L41.8768 63.8697H134.802L141.602 57.3856H97.3862L99.3414 54.5488L143.868 54.9541L151.801 48.2268H103.679L105.198 46.0385H154.067L162 38.7439Z" fill="#BF0A30"/>
<path d="M55.8367 43.4822L61.0579 56.145V47.3876C61.0579 46.0661 60.8007 45.4053 60.2865 45.4053C60.1481 45.4053 59.9404 45.4448 59.6636 45.5237C59.4065 45.5828 59.2087 45.6124 59.0702 45.6124C58.6549 45.6124 58.2989 45.425 58.0023 45.0503C57.7254 44.6755 57.5869 44.212 57.5869 43.6598C57.5869 43.0089 57.7748 42.4862 58.1506 42.0917C58.5264 41.6972 59.0208 41.5 59.6339 41.5C59.9503 41.5 60.4942 41.5493 61.2655 41.6479C62.0368 41.7465 62.7191 41.7959 63.3125 41.7959C63.8464 41.7959 64.4694 41.7564 65.1814 41.6775C66.2494 41.5592 66.9119 41.5 67.169 41.5C67.8019 41.5 68.3161 41.6972 68.7116 42.0917C69.1072 42.4862 69.305 43.0089 69.305 43.6598C69.305 44.212 69.1467 44.6755 68.8303 45.0503C68.5139 45.425 68.1282 45.6124 67.6733 45.6124C67.4953 45.6124 67.258 45.5828 66.9614 45.5237C66.6647 45.4448 66.4373 45.4053 66.279 45.4053C65.8835 45.4053 65.6264 45.6519 65.5077 46.145C65.4682 46.3422 65.4484 46.7564 65.4484 47.3876V59.429C65.4484 60.7308 64.9144 61.3817 63.8464 61.3817C63.6487 61.3817 63.3421 61.3718 62.9268 61.3521C62.5313 61.3126 62.2346 61.2929 62.0368 61.2929C62.017 61.2929 61.5325 61.3126 60.5832 61.3521C60.5832 61.3521 60.3656 61.3521 59.9305 61.3521C59.357 61.3521 58.9318 61.214 58.6549 60.9379C58.4967 60.7801 58.2693 60.356 57.9726 59.6657L52.2471 46.6479V55.5828C52.2471 56.9241 52.5042 57.5947 53.0184 57.5947C53.1569 57.5947 53.3645 57.5651 53.6414 57.5059C53.9381 57.427 54.1556 57.3876 54.294 57.3876C54.7094 57.3876 55.0555 57.575 55.3323 57.9497C55.629 58.3245 55.7773 58.788 55.7773 59.3402C55.7773 60.7801 55.0851 61.5 53.7007 61.5C53.3052 61.5 52.6525 61.4408 51.7428 61.3225C51.1297 61.2436 50.5166 61.2041 49.9035 61.2041C49.3893 61.2041 48.6971 61.2535 47.8269 61.3521C46.9567 61.4507 46.4029 61.5 46.1656 61.5C44.7219 61.5 44 60.7801 44 59.3402C44 58.788 44.1483 58.3245 44.445 57.9497C44.7614 57.575 45.1471 57.3876 45.602 57.3876C45.7799 57.3876 46.0173 57.427 46.3139 57.5059C46.6304 57.5651 46.8677 57.5947 47.0259 57.5947C47.5599 57.5947 47.8269 56.9241 47.8269 55.5828V47.3876C47.8269 46.0661 47.5599 45.4053 47.0259 45.4053C46.8677 45.4053 46.6304 45.4448 46.3139 45.5237C46.0173 45.5828 45.7799 45.6124 45.602 45.6124C45.1471 45.6124 44.7614 45.425 44.445 45.0503C44.1483 44.6755 44 44.212 44 43.6598C44 43.0089 44.1978 42.4862 44.5933 42.0917C44.9889 41.6972 45.5031 41.5 46.1359 41.5C46.5513 41.5 47.1545 41.5493 47.9456 41.6479C48.7366 41.7465 49.3596 41.7959 49.8145 41.7959C50.1903 41.7959 50.833 41.7564 51.7428 41.6775C52.1581 41.6578 52.6328 41.6183 53.1667 41.5592C53.4041 41.5197 53.6612 41.5 53.9381 41.5C54.472 41.5 54.8874 41.7071 55.184 42.1213C55.3027 42.2791 55.5202 42.7327 55.8367 43.4822Z" fill="white"/>
<path d="M78.8877 46.855L80.4897 50.0503L82.2696 46.855C82.6058 46.2436 82.7739 45.8491 82.7739 45.6716C82.7739 45.4546 82.5762 45.2377 82.1806 45.0207C81.6664 44.7446 81.4093 44.2712 81.4093 43.6006C81.4093 42.2002 82.1213 41.5 83.5452 41.5C84.0001 41.5 84.4352 41.5296 84.8505 41.5888C85.8196 41.7268 86.4723 41.7959 86.8085 41.7959C87.1645 41.7959 87.6787 41.7465 88.3511 41.6479C89.0433 41.5493 89.5575 41.5 89.8937 41.5C90.5266 41.5 91.0309 41.6972 91.4067 42.0917C91.8022 42.4862 92 43.0187 92 43.6893C92 44.2416 91.8517 44.7051 91.555 45.0799C91.2781 45.4349 90.9221 45.6124 90.487 45.6124C90.309 45.6124 90.0421 45.573 89.6861 45.4941C89.429 45.4349 89.2312 45.4053 89.0927 45.4053C88.8159 45.4053 88.6082 45.4744 88.4698 45.6124C88.3313 45.7505 88.0446 46.1647 87.6095 46.855L83.6936 53.0976C83.2585 53.8077 83.0211 54.5769 82.9816 55.4053L82.9519 56.2337C82.9124 57.141 83.2288 57.5947 83.9012 57.5947C84.1188 57.5947 84.4253 57.5651 84.8209 57.5059C85.2164 57.427 85.5131 57.3876 85.7108 57.3876C86.1855 57.3876 86.5712 57.575 86.8678 57.9497C87.1842 58.3245 87.3425 58.8077 87.3425 59.3994C87.3425 60.0503 87.1447 60.5631 86.7491 60.9379C86.3536 61.3126 85.8196 61.5 85.1472 61.5C84.6528 61.5 83.9012 61.4507 82.8926 61.3521C81.884 61.2535 81.1225 61.2041 80.6083 61.2041C80.0546 61.2041 79.2338 61.2535 78.1461 61.3521C77.0583 61.4507 76.2376 61.5 75.6838 61.5C75.0311 61.5 74.5071 61.3028 74.1115 60.9083C73.716 60.5138 73.5182 60.001 73.5182 59.3698C73.5182 58.0483 74.0818 57.3876 75.2091 57.3876C75.4069 57.3876 75.7036 57.427 76.0991 57.5059C76.5144 57.5651 76.821 57.5947 77.0188 57.5947C77.5923 57.5947 77.8791 57.141 77.8791 56.2337V55.4053C77.8791 54.7939 77.622 54.074 77.1078 53.2456L72.7172 46.0562C72.4601 45.6223 72.1239 45.4053 71.7086 45.4053C71.5899 45.4053 71.402 45.4349 71.1449 45.4941C70.8087 45.573 70.5417 45.6124 70.3439 45.6124C69.3946 45.6124 68.92 45.0108 68.92 43.8077C68.92 42.2692 69.6122 41.5 70.9966 41.5C71.3526 41.5 71.9162 41.5493 72.6875 41.6479C73.4589 41.7465 74.0522 41.7959 74.4675 41.7959C75.0213 41.7959 75.7135 41.7367 76.5441 41.6183C77.0979 41.5394 77.5429 41.5 77.8791 41.5C79.2239 41.5 79.8963 42.2396 79.8963 43.7189C79.8963 44.3304 79.6689 44.7544 79.214 44.9911C78.9371 45.1489 78.7394 45.2574 78.6207 45.3166C78.5021 45.3757 78.4427 45.4744 78.4427 45.6124V45.7012C78.4427 45.8787 78.4823 46.0365 78.5614 46.1746C78.5812 46.2535 78.6899 46.4803 78.8877 46.855Z" fill="white"/>
<path d="M8.09204 49.2084L16.1841 33.6023H16.7621L15.6061 36.4923L14.4501 40.5383L10.9821 50.3644L9.24805 57.3004L6.93604 61.3465L8.09204 49.2084Z" fill="#002868"/>
<path d="M5.78003 46.3184L12.7161 34.7583L13.2941 37.0703L8.67005 47.4744L7.51404 48.6304L6.35803 48.0524L5.78003 46.3184Z" fill="#002868"/>
<path d="M15.6061 49.7865L18.4961 44.5845L19.0741 46.8965L20.2301 50.3645V63.0806L17.9181 63.6586L16.7621 64.2366L14.4501 66.5486L13.8721 64.8146L14.4501 59.6126L15.6061 49.7865Z" fill="#002868"/>
<path d="M12.7162 71.1726V70.5946L16.1842 68.8606V71.1726H15.6062L13.8722 74.6406L13.2942 75.2186H12.7162V72.3286L12.1382 71.7506L12.7162 71.1726Z" fill="#002868"/>
<path d="M15.6062 74.6405L17.3402 65.3925L19.0742 63.6584L18.4962 73.4845L17.3402 75.7965V78.1085H16.7622L16.1842 77.5305L15.6062 75.7965V75.2185V74.6405Z" fill="#002868"/>
<path d="M28.9763 40.113C28.9335 39.9674 28.8288 39.8468 28.6926 39.7797L24.2545 37.6548C23.9969 37.5301 23.6895 37.6273 23.548 37.8764L22.2996 40.0674C22.0236 39.3885 21.3047 39.4863 21.3047 39.4863C21.3047 39.4863 20.2659 37.9277 20.187 37.5301C20.1066 37.1309 19.547 34.3331 19.547 34.3331C19.4274 33.6937 19.2688 33.4927 18.8715 33.2537C18.5471 33.0606 17.104 32.2177 16.5596 31.8989C16.476 31.4741 16.2427 30.2982 16.1132 29.7785C16.5111 29.4588 16.9264 29.1182 16.7672 28.7798C16.6058 28.4392 16.0715 27.282 15.9518 26.6432C16.35 26.464 16.6016 26.1237 16.3329 25.804C16.1674 25.6084 15.9923 25.4448 16.0623 25.283C16.1373 25.1108 16.1921 24.938 16.2386 24.7668L20.5979 24.4528L16.3386 23.7269C16.3278 23.5696 16.3051 23.4101 16.2696 23.2585L20.2067 21.6039L15.7764 22.2025C15.6973 22.093 15.6109 21.987 15.5159 21.8876L18.1606 18.4601L14.573 21.1874C14.2419 21.0139 13.8785 20.8943 13.4869 20.825L12.9172 16.7141L12.3509 20.7848C11.9233 20.8275 11.5181 20.937 11.1433 21.0912L7.71842 18.4073L10.164 21.6739C9.9886 21.8195 9.83445 21.9797 9.69423 22.1525L6.98184 21.9683C6.95968 21.8328 6.93024 21.6907 6.89289 21.5397C6.7552 20.9737 5.9034 16.9237 5.6353 15.7556C5.36403 14.5854 5.42607 13.1471 5.42607 13.1471C5.42607 13.1471 5.84326 11.8287 5.9034 11.4106C5.96449 10.9931 5.96449 10.3024 5.9034 10.1229C5.84295 9.94154 5.5147 9.10304 5.5147 9.10304L4.84839 8.41837C5.08928 8.27941 5.23931 8.10152 5.24944 7.90115C5.25356 7.79638 5.21431 7.69541 5.14973 7.59602C6.12878 7.45927 6.80553 7.13356 6.82294 6.72396C6.82895 6.56506 6.73526 6.41154 6.56591 6.26752V5.47713L6.53854 5.07115C6.51468 4.71732 6.30521 4.40259 5.98802 4.244L5.50003 4L5.47761 3.93983C5.46638 3.90969 5.43761 3.88971 5.40545 3.88971V3.88971H5.33491H4.6762L4.50003 4L4.11995 4.251L4.01775 3.82408L3.69811 4.11384L3.77344 4H3.54007L3.50003 3.82408L3.19086 4.25099C3.19086 4.25099 3.00003 3.74395 3.00003 4.11384L2.76209 4.05839L2.76109 4.05445C2.72506 3.91256 2.61403 3.80191 2.47202 3.76636V3.76636L2.00003 4L1.51202 4.25744C1.40832 4.31215 1.31505 4.38466 1.23647 4.47167L1.1117 4.60982L1.02335 4.74224C0.92513 4.88945 0.872715 5.06245 0.872716 5.23941V5.23941V6.00384C0.676464 6.13172 0.563145 6.28144 0.555548 6.44383C0.539722 6.80025 1.0294 7.13799 1.78845 7.36874C1.67228 7.47763 1.59916 7.60203 1.59283 7.73719C1.5808 8.00498 1.82105 8.25473 2.2009 8.43452C2.05339 8.55765 1.84733 8.73902 1.72894 8.88178C1.58397 9.05682 1.51433 9.46895 2.0401 9.70319C1.5922 10.0637 1.53079 10.3917 2.12873 10.7797C1.74002 11.171 1.64095 11.3318 1.91063 11.78C2.12746 12.1421 2.21704 12.2988 2.79028 12.9394C2.79028 12.9394 2.79377 12.9828 2.80453 13.0442C2.45697 13.1715 2.22052 13.406 2.22052 13.6789C2.22052 13.9701 2.49243 14.2224 2.88018 14.3398C2.88018 14.3626 2.88018 14.3851 2.87765 14.4078C2.77003 15.7167 2.79028 19.0514 2.79028 19.8909C2.79028 20.7306 3.12613 21.7562 3.23786 22.1683C3.41892 22.8286 3.13974 23.2762 3.23786 23.726C3.33757 24.1752 3.47843 24.4154 3.47843 24.4154C3.47843 24.4154 2.22052 26.3035 1.74002 27.4719C1.08353 29.0729 1.23072 31.338 3.14924 31.6077L2.40949 33.015L4.16658 34.932L3.38885 35.7717L3.98615 36.7916L3.26889 37.7482L4.82465 41.4665C4.82465 41.4665 3.86714 43.6807 3.5085 44.4616C3.14892 45.2387 3.14892 46.4978 3.56738 47.217C3.98615 47.9355 5.0649 49.5543 5.0649 49.5543C5.0649 49.5543 4.32706 51.073 4.04819 51.6719C3.76838 52.2718 3.76838 52.87 4.00704 53.6297C4.24729 54.3884 4.96615 56.3465 4.96615 56.3465L4.88606 60.7796L3.98647 63.7572L4.52711 64.8939L3.50914 68.6698L4.16689 72.9253L3.14955 74.1848L3.68893 75.7419L2.84979 76.9409L2.92861 78.038L1.74034 79.6343H2.93874C4.56604 77.2445 5.92588 77.6392 5.68658 79.3564C7.8042 79.3564 8.06407 72.3882 9.71005 72.3882V77.479C11.5073 76.6396 10.3112 71.908 11.9888 71.3984C11.9888 71.3984 11.8979 73.377 11.8979 74.7239C11.8979 78.7084 6.23418 79.6368 6.23418 79.6368H19.4283C19.4283 79.6368 18.392 77.9608 18.4698 77.479C18.5512 77.0001 19.3109 66.5339 19.3109 66.5339V78.1596L19.9101 78.9579L19.9889 71.1287L20.5564 79.6337H21.9128L21.2671 72.2055C22.1872 71.6468 22.7073 70.9289 22.7073 70.9289L22.1872 64.1355C23.303 63.1384 23.7436 62.1391 23.7436 62.1391C23.7436 62.1391 22.9289 55.6685 22.6649 52.9868C23.6227 52.6256 24.2915 51.4434 24.4223 48.3265V47.3367C25.3231 47.2464 26.073 47.0891 26.3148 46.7887C26.5519 46.489 28.5002 44.0324 28.6509 43.8538C28.7993 43.6725 28.8386 43.2727 28.7186 43.1229C28.6651 43.0543 28.2831 42.587 27.9539 42.1683L28.9237 40.5505C28.9994 40.4182 29.0225 40.2599 28.9763 40.113ZM7.52311 24.7734L7.5994 24.5449L9.18745 24.7867C9.27862 25.0684 9.40808 25.3562 9.59135 25.6436L9.01937 27.3304L8.00171 26.4821L8.09098 25.5249L7.52311 24.7734ZM15.2529 23.6019C15.206 23.9178 15.1475 23.9476 14.8794 23.7368C14.5727 23.4981 13.7949 23.1347 12.7567 23.1347C11.5377 23.1347 10.759 23.8324 10.4786 24.0726C10.1994 24.3135 10.2099 23.8203 10.2589 23.4319C10.7866 22.8574 11.9267 22.4326 12.796 22.4326C13.9538 22.4326 14.8933 22.9087 15.1934 23.2388C15.1934 23.2388 15.3115 23.2031 15.2529 23.6019ZM13.3565 27.8419C13.1761 27.8419 12.8153 27.8014 12.8153 27.583C12.8153 27.3418 13.1144 27.282 13.2755 27.0825C13.435 26.8815 13.3945 26.6226 13.0356 26.8015C12.6757 26.9825 12.5155 26.9429 12.5155 26.7217C12.5155 26.5014 12.5364 25.5439 12.5155 25.1846C12.4981 24.8241 11.9362 24.9238 11.7375 24.9238C11.5374 24.9238 11.118 24.9238 11.2981 24.7649C11.7172 24.3933 12.3753 24.2454 12.7333 23.7463C13.0213 24.3461 14.5628 24.355 14.8335 25.014C14.9604 25.3239 14.7879 25.5692 14.4647 25.3631C14.0554 25.1036 13.2287 24.9839 13.1698 25.3739C13.1175 25.7094 13.5677 26.3615 13.9845 26.2849C14.3144 26.2219 14.7534 25.9284 14.9829 26.0699C15.219 26.2108 15.2722 26.3023 15.1934 26.9211C14.9497 28.7788 14.817 28.826 13.4547 28.9789C12.9039 29.0409 12.3367 28.9001 12.3367 28.2395C12.3367 27.9543 12.7754 28.2395 13.0555 28.2395C13.3353 28.2404 13.5341 27.8419 13.3565 27.8419ZM15.5216 31.8157C15.5216 31.8157 13.8753 31.9607 12.4661 31.1529C14.1947 29.7554 14.5932 28.94 14.5932 28.94L14.6831 30.7084L15.5216 31.8157ZM9.16941 23.123C9.09946 23.3493 9.05356 23.5877 9.04533 23.8346L7.48829 24.0106L6.98184 23.3955C6.98184 23.3955 7.09516 23.0549 7.03597 22.3867L9.16941 23.123ZM3.19086 4.11384L3.8008 4.11384L3.83119 4.05839L3.69811 4.25099V4.11384L3.33035 4.05839L3.19086 4.11384ZM3.50003 4.11384H3.63464L3.83119 3.76636L3.65676 4L3.50003 4.11384ZM1.5884 5.85792V5.52429C1.92488 5.10045 2.77984 4.82254 3.77344 4.86812C4.7642 4.91212 5.5875 5.26442 5.89169 5.71516V6.09975C5.36403 5.85476 4.58092 5.67655 3.69811 5.63698C2.8767 5.59836 2.12778 5.68573 1.5884 5.85792ZM3.94405 14.9814C3.68639 14.9814 3.47938 14.6671 3.47938 14.28C3.47938 14.2005 3.48951 14.1252 3.5028 14.0552C3.31162 13.9903 3.185 13.884 3.185 13.7621C3.185 13.5652 3.52401 13.4025 3.94405 13.4025C4.36125 13.4025 4.70405 13.5652 4.70405 13.7621C4.70405 13.884 4.57554 13.9903 4.38245 14.0552C4.39638 14.1252 4.40714 14.2005 4.40714 14.28C4.40714 14.6671 4.20013 14.9814 3.94405 14.9814ZM4.79648 15.786C4.79648 15.786 5.96798 20.9756 6.11643 21.5103C6.14714 21.6343 6.17468 21.7704 6.19683 21.9138C6.21076 21.9778 6.21899 22.042 6.22722 22.1066C6.31522 22.7827 6.3073 23.5741 6.28325 24.1476C6.28261 24.2157 6.27755 24.2815 6.27755 24.341C6.25666 24.6936 6.23323 24.925 6.23323 24.925L5.12663 26.1826C5.12663 26.1826 4.8848 24.536 4.85631 24.2644C4.8237 23.997 5.60586 23.5756 5.60586 23.5756L4.58662 22.6786L4.34637 16.2352L4.79648 15.786ZM4.58662 30.1694L6.67986 25.4669L7.19107 26.2447L7.10054 27.3848L4.58662 30.1694ZM6.29401 37.8378L8.7212 29.869L5.9933 32.5361C5.9933 32.5361 7.40378 29.392 7.73108 27.4434C8.30147 27.9828 9.6784 28.6709 9.65086 30.7968C10.0975 31.5463 11.5377 33.5541 11.5377 33.5541L11.3573 31.6944C11.3573 31.6944 12.7057 32.5361 13.6658 32.8365C13.6658 32.8365 10.9069 35.0219 9.55843 36.7008L10.88 36.6387L8.90036 38.7374L9.4698 31.5463L6.29401 37.8378ZM12.594 38.2474L9.71891 40.2862L12.557 35.3723L12.594 38.2474ZM9.2802 42.0439L11.4776 40.3659L7.08408 47.5573L9.2802 42.0439ZM8.80983 49.3438C9.89174 46.1699 14.9832 35.3526 16.5114 33.7339C17.2575 34.5882 18.2492 36.4611 18.7889 37.8976C20.0896 41.37 20.4982 45.0633 20.7365 46.7387C19.8072 45.6904 18.5502 41.4665 18.19 40.7762C18.008 40.3564 17.7108 40.3257 16.9619 40.7762C16.5469 41.0265 16.7808 41.376 17.2009 42.0942C17.6206 42.8127 18.19 43.5313 18.19 43.5313L16.0623 45.899L16.2547 36.0705L13.605 54.17L11.056 56.8963L15.6144 36.3108L11.0281 49.3751L10.9382 45.8094L7.5497 60.0132L8.80983 49.3438ZM14.8734 78.6806C14.7534 78.4413 14.6727 78.0016 14.1165 77.9617C14.435 79.2389 13.9548 78.1209 12.9966 78.7192C12.1252 79.2646 11.3981 77.8398 12.1971 76.9225C12.0388 77.4429 12.3522 78.2039 12.9169 77.881C13.4768 77.5607 14.6338 77.5195 14.6338 77.5195L13.0356 76.9222C13.0356 76.9222 13.0356 76.7225 14.5125 76.9222C14.1555 76.5623 13.3967 76.3227 12.5953 76.242C13.1144 75.8036 13.995 75.6447 13.995 75.6447L15.7916 71.0499C15.7916 71.0499 14.7151 75.8833 14.6724 76.2021C14.6334 76.5224 15.3327 77.0523 15.4916 77.5702C15.6511 78.0893 16.2323 78.1985 16.2323 78.9199C15.7125 78.56 14.9924 78.9202 14.8734 78.6806ZM12.9552 75.2443V71.0502L13.555 72.7671L15.8717 69.5333L12.9552 75.2443ZM17.0223 77.4799L16.4646 75.5235L17.0223 69.1715V77.4799ZM17.802 73.6473V65.4668L18.8836 64.1482L17.802 73.6473ZM20.3599 62.0916L19.8347 56.2674L19.4163 62.637L18.008 63.4581L17.8298 52.6127L16.7523 64.1766C16.0303 64.5973 15.5527 64.9752 15.5527 64.9752C15.2713 65.2016 15.0908 65.3567 15.0908 65.6542C15.0908 65.9046 15.6492 66.3116 15.8853 66.4848C16.4959 66.9343 16.5909 67.3641 16.5662 67.6477C16.5292 68.0406 16.2474 68.3691 15.7312 68.6182C15.0342 68.9557 9.07888 71.3673 9.07888 71.3673L11.3744 59.9522L10.8929 68.5495L13.6949 58.0643L12.0056 69.1168C13.2603 68.5784 15.0598 68.039 15.3744 67.8864C15.6631 67.7456 15.7486 67.624 15.7527 67.5718C15.7584 67.5164 15.6913 67.3565 15.4004 67.1432C14.8129 66.7083 14.2868 66.2711 14.2764 65.6681C14.2742 65.5608 14.2928 65.4538 14.3226 65.3488C14.817 62.0061 15.7461 56.0024 16.2117 49.4973L18.3682 46.3218L19.8946 55.2481L20.6476 47.9957L21.9676 61.161L20.3599 62.0916ZM25.9144 45.5701C25.9071 45.5609 25.8964 45.5587 25.8875 45.5463C25.7217 45.3513 25.3624 45.0057 25.1411 44.7233C25.0218 44.573 24.9275 44.4476 24.9015 44.4014C24.8265 44.2659 24.7822 43.9956 25.0645 44.0124C25.2348 44.02 25.32 44.0906 25.4368 44.2308C25.5156 44.3255 26.0116 44.8208 26.1582 45.007C26.1787 45.0345 26.1889 45.0617 26.2044 45.0886C26.3838 45.42 26.1433 45.7885 25.9144 45.5701ZM27.995 42.9795C28.1739 43.2198 27.9251 43.5496 27.6446 43.2505C27.599 43.1986 27.5705 43.1593 27.4363 43.0141C27.185 42.7374 26.8463 42.3709 26.6687 42.1892C26.632 42.1528 26.601 42.1221 26.5801 42.1037C26.4491 41.9844 26.2471 41.7425 26.1841 41.5491C26.0306 41.7688 26.0366 42.1211 26.3595 42.4449C26.3835 42.4661 26.4155 42.5003 26.4541 42.5408C26.6507 42.7456 27.0169 43.1296 27.2303 43.3553C27.3303 43.4594 27.3987 43.5313 27.3987 43.5313C27.6994 43.813 27.3977 44.17 27.1587 43.9504C27.1318 43.9285 27.0932 43.889 27.0498 43.8424C26.8368 43.6209 26.4908 43.2711 26.3205 43.1141C26.2882 43.0799 26.13 42.971 26.0201 42.934C25.8267 42.8662 25.4846 42.8131 25.181 42.8824C24.9794 42.9292 24.961 43.2033 24.961 43.2033C25.2817 43.223 25.5444 43.2622 25.7125 43.3322C25.752 43.3496 25.8483 43.399 25.929 43.4651C26.1892 43.6794 26.5712 44.0833 26.7092 44.2213C26.9688 44.4809 26.6972 44.9104 26.481 44.6812C26.4709 44.6708 26.4611 44.6607 26.4503 44.6505C26.136 44.3188 25.8749 44.0586 25.6634 43.8564C25.6634 43.8564 25.6628 43.8548 25.6628 43.8516C25.4624 43.6734 25.1114 43.631 24.974 43.6209C24.8309 43.6129 24.6923 43.6209 24.572 43.8314C24.4245 44.0922 24.3944 44.1713 24.3723 44.2818C24.3587 44.3577 24.358 44.5347 24.4967 44.7157C24.5885 44.8316 24.7426 45.0646 24.861 45.1921L22.3005 49.4464L21.6235 43.4502L24.2441 38.8538L27.681 40.5014L27.0641 41.5311L26.9147 41.7802C27.1625 42.0524 27.4487 42.3661 27.6772 42.6171C27.9061 42.8735 27.995 42.9795 27.995 42.9795Z" fill="#002868"/>
<path d="M24.9946 80.3057H0V82.7325H24.9946V80.3057Z" fill="#BF0A30"/>
<path d="M6 3C6 4.65685 5.65685 4.5 4 4.5C2.34315 4.5 1.5 4.65685 1.5 3C1.5 1.34315 2.5 0 3.5 0C4.5 0 6 0.5 6 3Z" fill="#BF0A30"/>
</svg>
