<svg width="157" height="72" viewBox="0 0 157 72" fill="none" xmlns="http://www.w3.org/2000/svg">
<path d="M36.8212 28.0972C34.3111 28.0972 32.3708 27.3311 31.0001 25.799C29.6295 24.2669 28.9442 22.0936 28.9442 19.2792C28.9442 16.5647 29.6212 14.433 30.9754 12.8843C32.346 11.3188 34.2286 10.5361 36.6231 10.5361C39.1332 10.5361 41.0901 11.2939 42.4937 12.8093C43.8974 14.3248 44.5993 16.4398 44.5993 19.1543C44.5993 21.9687 43.9139 24.1669 42.5433 25.749C41.1892 27.3144 39.2818 28.0972 36.8212 28.0972ZM36.7965 14.0333C34.6497 14.0333 33.5763 15.7986 33.5763 19.3291C33.5763 21.0111 33.7827 22.2601 34.1955 23.0761C34.7075 24.092 35.5662 24.5999 36.7717 24.5999C38.902 24.5999 39.9671 22.8846 39.9671 19.454C39.9671 17.5555 39.7112 16.1816 39.1992 15.3323C38.7038 14.4663 37.9029 14.0333 36.7965 14.0333Z" fill="#BF0A30"/>
<path d="M57.1675 12.5595L61.5272 23.251V15.8569C61.5272 14.7411 61.3125 14.1832 60.8831 14.1832C60.7675 14.1832 60.5941 14.2165 60.3629 14.2831C60.1483 14.3331 59.9831 14.3581 59.8675 14.3581C59.5207 14.3581 59.2235 14.1999 58.9758 13.8835C58.7446 13.5671 58.629 13.1757 58.629 12.7094C58.629 12.1598 58.7859 11.7185 59.0996 11.3855C59.4134 11.0524 59.8262 10.8859 60.3382 10.8859C60.6024 10.8859 61.0565 10.9275 61.7006 11.0108C62.3446 11.094 62.9143 11.1357 63.4097 11.1357C63.8556 11.1357 64.3758 11.1023 64.9703 11.0357C65.862 10.9358 66.4152 10.8859 66.6299 10.8859C67.1584 10.8859 67.5877 11.0524 67.918 11.3855C68.2483 11.7185 68.4134 12.1598 68.4134 12.7094C68.4134 13.1757 68.2813 13.5671 68.0171 13.8835C67.7529 14.1999 67.4309 14.3581 67.051 14.3581C66.9024 14.3581 66.7042 14.3331 66.4565 14.2831C66.2088 14.2165 66.0189 14.1832 65.8868 14.1832C65.5565 14.1832 65.3419 14.3914 65.2428 14.8077C65.2097 14.9743 65.1932 15.324 65.1932 15.8569V26.0238C65.1932 27.1229 64.7474 27.6725 63.8556 27.6725C63.6905 27.6725 63.4345 27.6642 63.0877 27.6475C62.7574 27.6142 62.5097 27.5975 62.3446 27.5975C62.3281 27.5975 61.9235 27.6142 61.1308 27.6475C61.1308 27.6475 60.9492 27.6475 60.5859 27.6475C60.107 27.6475 59.7519 27.5309 59.5207 27.2978C59.3886 27.1646 59.1987 26.8065 58.951 26.2236L54.1702 15.2324V22.7764C54.1702 23.9088 54.3849 24.475 54.8143 24.475C54.9299 24.475 55.1033 24.4501 55.3345 24.4001C55.5822 24.3335 55.7638 24.3002 55.8794 24.3002C56.2262 24.3002 56.5152 24.4584 56.7464 24.7748C56.9941 25.0912 57.118 25.4826 57.118 25.9489C57.118 27.1646 56.54 27.7724 55.384 27.7724C55.0537 27.7724 54.5088 27.7224 53.7491 27.6225C53.2372 27.5559 52.7253 27.5226 52.2134 27.5226C51.784 27.5226 51.206 27.5642 50.4794 27.6475C49.7528 27.7308 49.2904 27.7724 49.0922 27.7724C47.8867 27.7724 47.284 27.1646 47.284 25.9489C47.284 25.4826 47.4078 25.0912 47.6555 24.7748C47.9198 24.4584 48.2418 24.3002 48.6216 24.3002C48.7702 24.3002 48.9684 24.3335 49.2161 24.4001C49.4803 24.4501 49.6785 24.475 49.8106 24.475C50.2565 24.475 50.4794 23.9088 50.4794 22.7764V15.8569C50.4794 14.7411 50.2565 14.1832 49.8106 14.1832C49.6785 14.1832 49.4803 14.2165 49.2161 14.2831C48.9684 14.3331 48.7702 14.3581 48.6216 14.3581C48.2418 14.3581 47.9198 14.1999 47.6555 13.8835C47.4078 13.5671 47.284 13.1757 47.284 12.7094C47.284 12.1598 47.4491 11.7185 47.7794 11.3855C48.1097 11.0524 48.539 10.8859 49.0675 10.8859C49.4143 10.8859 49.9179 10.9275 50.5785 11.0108C51.239 11.094 51.7592 11.1357 52.139 11.1357C52.4528 11.1357 52.9895 11.1023 53.7491 11.0357C54.0959 11.0191 54.4923 10.9858 54.9381 10.9358C55.1363 10.9025 55.351 10.8859 55.5822 10.8859C56.0281 10.8859 56.3748 11.0607 56.6226 11.4104C56.7216 11.5437 56.9033 11.9267 57.1675 12.5595Z" fill="#BF0A30"/>
<path d="M78.3285 10.5361C80.0866 10.5361 81.5517 11.1273 82.7238 12.3097C82.8745 11.3272 83.3769 10.8359 84.2308 10.8359C85.269 10.8359 85.7881 11.3355 85.7881 12.3347C85.7881 12.5012 85.7546 12.8343 85.6876 13.3339C85.5871 14.0833 85.5369 14.5912 85.5369 14.8577C85.5369 15.1575 85.5536 15.3823 85.5871 15.5322C85.6206 16.0651 85.6374 16.3648 85.6374 16.4314C85.6374 16.8644 85.4448 17.2308 85.0597 17.5306C84.6746 17.8137 84.1806 17.9552 83.5778 17.9552C82.6066 17.9552 82.0206 17.4806 81.8197 16.5314C81.6187 15.5821 81.3257 14.9326 80.9406 14.5829C80.5722 14.2165 79.9778 14.0333 79.1573 14.0333C78.0689 14.0333 77.2233 14.5413 76.6205 15.5571C76.0345 16.5563 75.7415 17.9802 75.7415 19.8287C75.7415 21.3942 76.0261 22.6182 76.5954 23.5008C77.1815 24.3668 77.9852 24.7998 79.0066 24.7998C79.6596 24.7998 80.1955 24.6166 80.6141 24.2502C81.0494 23.8672 81.2671 23.3926 81.2671 22.8263C81.2671 22.1269 80.9741 21.7772 80.388 21.7772C80.3545 21.7772 80.3043 21.7772 80.2373 21.7772C80.1703 21.7938 80.1117 21.8022 80.0615 21.8022C79.7936 21.8355 79.6429 21.8521 79.6094 21.8521C79.2745 21.8521 78.9899 21.7106 78.7554 21.4275C78.521 21.1277 78.4038 20.7613 78.4038 20.3283C78.4038 19.8287 78.5713 19.4291 78.9061 19.1293C79.241 18.8295 79.6764 18.6796 80.2122 18.6796C80.5638 18.6796 81.0913 18.7296 81.7945 18.8295C82.5145 18.9128 83.0587 18.9544 83.4271 18.9544C83.9797 18.9544 84.5908 18.9128 85.2606 18.8295C85.7964 18.7629 86.1648 18.7296 86.3657 18.7296C86.9016 18.7296 87.3285 18.8961 87.6467 19.2292C87.9816 19.5456 88.149 19.9786 88.149 20.5282C88.149 21.0111 88.0318 21.4191 87.7974 21.7522C87.563 22.0686 87.2699 22.2268 86.9183 22.2268L86.3155 22.1769C85.8634 22.1769 85.6374 22.5516 85.6374 23.301C85.6374 23.6174 85.6457 23.9505 85.6625 24.3002L85.7127 25.3743C85.7295 25.7407 85.7378 26.0904 85.7378 26.4235C85.7378 27.5393 85.1183 28.0972 83.8792 28.0972C82.7071 28.0972 82.1211 27.6891 82.1211 26.8731V26.7232C80.9657 27.6392 79.6513 28.0972 78.1778 28.0972C76.8884 28.0972 75.6745 27.7641 74.5359 27.0979C73.3973 26.4152 72.5684 25.5325 72.0493 24.4501C71.3796 23.0678 71.0447 21.4608 71.0447 19.6289C71.0447 16.8311 71.6977 14.6162 73.0038 12.9842C74.3098 11.3522 76.0847 10.5361 78.3285 10.5361Z" fill="#002868"/>
<path d="M101.292 22.4766H97.9511C96.9967 22.4766 96.5195 23.0428 96.5195 24.1753C96.5195 24.4417 96.6618 24.575 96.9465 24.575C97.0302 24.575 97.1558 24.5666 97.3232 24.55C97.4906 24.5167 97.6162 24.5 97.7 24.5C98.3195 24.5 98.6293 24.9913 98.6293 25.9738C98.6293 26.5067 98.4869 26.9397 98.2023 27.2728C97.9176 27.6059 97.5409 27.7724 97.072 27.7724C96.8376 27.7724 96.3185 27.7141 95.5148 27.5975C95.1632 27.5476 94.6692 27.5226 94.0329 27.5226C93.3464 27.5226 92.8106 27.5476 92.4255 27.5975C91.538 27.7141 91.0106 27.7724 90.8431 27.7724C90.3241 27.7724 89.8971 27.6142 89.5622 27.2978C89.2441 26.9814 89.085 26.565 89.085 26.0488C89.085 24.883 89.5287 24.3002 90.4162 24.3002C90.5166 24.3002 90.6757 24.3168 90.8934 24.3501C91.1111 24.3668 91.2701 24.3751 91.3706 24.3751C91.6887 24.3751 91.9483 24.2003 92.1492 23.8505C92.1994 23.7506 92.3167 23.4425 92.5008 22.9263L95.9669 13.1091C96.3688 11.9933 96.8209 11.2939 97.3232 11.0108C97.6916 10.8276 98.5037 10.736 99.7595 10.736C101.166 10.736 102.053 10.8276 102.422 11.0108C102.79 11.1773 103.092 11.6602 103.326 12.4596L106.541 23.1011C106.792 23.9505 107.085 24.3751 107.42 24.3751C107.521 24.3751 107.696 24.3501 107.947 24.3002H108.224C109.161 24.3002 109.63 24.8497 109.63 25.9489C109.63 26.4984 109.463 26.9397 109.128 27.2728C108.793 27.6059 108.358 27.7724 107.822 27.7724C107.587 27.7724 107.278 27.7474 106.893 27.6975C106.424 27.6142 106.114 27.5726 105.963 27.5726C105.595 27.5393 105.118 27.5226 104.532 27.5226C103.895 27.5226 103.468 27.5393 103.251 27.5726C102.397 27.7058 101.861 27.7724 101.643 27.7724C101.191 27.7724 100.814 27.6059 100.513 27.2728C100.228 26.9231 100.086 26.4901 100.086 25.9738C100.086 24.9913 100.404 24.5 101.04 24.5C101.124 24.5 101.25 24.5167 101.417 24.55C101.585 24.5666 101.71 24.575 101.794 24.575C102.112 24.575 102.271 24.4001 102.271 24.0504C102.271 23.6007 102.179 23.226 101.995 22.9263C101.811 22.6265 101.576 22.4766 101.292 22.4766ZM100.915 18.6547L99.7093 13.5337L98.1521 18.8545C98.1353 18.9045 98.1269 18.9628 98.1269 19.0294C98.1269 19.2292 98.3362 19.3291 98.7548 19.3291H100.312C100.747 19.3291 100.965 19.2126 100.965 18.9794C100.965 18.9961 100.948 18.8878 100.915 18.6547Z" fill="#002868"/>
<path d="M122.384 12.4346L124.469 21.5524L126.654 12.8093C126.838 12.0766 127.039 11.577 127.257 11.3105C127.491 11.0274 127.818 10.8859 128.236 10.8859C128.604 10.8859 129.165 10.9275 129.919 11.0108C130.672 11.094 131.242 11.1357 131.627 11.1357C132.029 11.1357 133.025 11.069 134.616 10.9358C135.068 10.9025 135.403 10.8859 135.62 10.8859C136.173 10.8859 136.617 11.0524 136.952 11.3855C137.286 11.7019 137.454 12.1432 137.454 12.7094C137.454 13.1757 137.32 13.5671 137.052 13.8835C136.801 14.1999 136.483 14.3581 136.098 14.3581C135.947 14.3581 135.738 14.3331 135.47 14.2831C135.202 14.2165 135.009 14.1832 134.892 14.1832C134.44 14.1832 134.214 14.7411 134.214 15.8569V22.7764C134.214 23.9088 134.432 24.475 134.867 24.475C135.001 24.475 135.202 24.4501 135.47 24.4001C135.738 24.3335 135.938 24.3002 136.072 24.3002C136.458 24.3002 136.784 24.4584 137.052 24.7748C137.32 25.0912 137.454 25.4826 137.454 25.9489C137.454 26.5151 137.286 26.9647 136.952 27.2978C136.617 27.6142 136.173 27.7724 135.62 27.7724C135.302 27.7724 134.766 27.7224 134.013 27.6225C133.511 27.5559 133.008 27.5226 132.506 27.5226C132.188 27.5226 131.719 27.5642 131.099 27.6475C130.48 27.7308 130.011 27.7724 129.693 27.7724C129.191 27.7724 128.78 27.6059 128.462 27.2728C128.161 26.9397 128.01 26.4984 128.01 25.9489C128.01 24.9163 128.353 24.4001 129.04 24.4001C129.14 24.4001 129.216 24.4084 129.266 24.4251C129.316 24.4251 129.375 24.4251 129.442 24.4251C129.509 24.4417 129.551 24.4501 129.567 24.4501C129.835 24.4501 129.994 24.2669 130.044 23.9005C130.061 23.734 130.07 23.4508 130.07 23.0512V13.6337L126.578 25.9239C126.277 26.9897 125.783 27.5226 125.097 27.5226H123.489C122.819 27.5226 122.359 27.048 122.108 26.0987L118.767 13.6337V23.0512C118.767 23.8339 118.843 24.2752 118.993 24.3751C119.043 24.4251 119.136 24.4501 119.27 24.4501C119.303 24.4501 119.353 24.4417 119.42 24.4251C119.47 24.4251 119.521 24.4251 119.571 24.4251C119.621 24.4084 119.697 24.4001 119.797 24.4001C120.467 24.4001 120.802 24.908 120.802 25.9239C120.802 26.4901 120.651 26.9397 120.35 27.2728C120.048 27.6059 119.646 27.7724 119.144 27.7724C118.91 27.7724 118.608 27.7474 118.24 27.6975C117.771 27.6309 117.478 27.5892 117.361 27.5726C117.009 27.5393 116.607 27.5226 116.155 27.5226C115.586 27.5226 115.109 27.5476 114.723 27.5975C113.685 27.7308 113.166 27.7974 113.166 27.7974C112.647 27.7974 112.22 27.6225 111.885 27.2728C111.55 26.9231 111.383 26.4818 111.383 25.9489C111.383 25.4659 111.509 25.0746 111.76 24.7748C112.028 24.4584 112.362 24.3002 112.764 24.3002C112.898 24.3002 113.091 24.3335 113.342 24.4001C113.61 24.4501 113.811 24.475 113.945 24.475C114.28 24.475 114.489 24.2585 114.573 23.8256C114.606 23.659 114.623 23.3093 114.623 22.7764V15.8569C114.623 15.324 114.606 14.9826 114.573 14.8327C114.489 14.3997 114.28 14.1832 113.945 14.1832C113.811 14.1832 113.61 14.2165 113.342 14.2831C113.091 14.3331 112.89 14.3581 112.739 14.3581C112.354 14.3581 112.028 14.1999 111.76 13.8835C111.509 13.5671 111.383 13.1757 111.383 12.7094C111.383 11.4937 112.002 10.8859 113.242 10.8859C113.643 10.8859 114.313 10.9275 115.251 11.0108C116.189 11.094 116.892 11.1357 117.361 11.1357C118.114 11.1357 118.901 11.0857 119.722 10.9858C120.274 10.9192 120.71 10.8859 121.028 10.8859C121.446 10.8859 121.739 10.9858 121.907 11.1856C122.074 11.3855 122.233 11.8018 122.384 12.4346Z" fill="#002868"/>
<path d="M149.013 14.0333C148.46 14.0333 148.092 14.0833 147.908 14.1832C147.657 14.3331 147.531 14.6662 147.531 15.1824V16.5813C147.531 16.8644 147.565 17.0809 147.632 17.2308C147.715 17.364 147.916 17.4306 148.234 17.4306C148.971 17.4306 149.339 17.1642 149.339 16.6313V16.3065C149.323 16.2066 149.314 16.0817 149.314 15.9318C149.314 15.2324 149.725 14.8827 150.545 14.8827C151.399 14.8827 151.826 15.3073 151.826 16.1567C151.826 16.3898 151.809 16.6479 151.776 16.931C151.709 17.4806 151.675 17.9885 151.675 18.4548C151.675 18.8878 151.709 19.4374 151.776 20.1035C151.843 20.7697 151.876 21.2359 151.876 21.5024C151.876 22.485 151.433 22.9762 150.545 22.9762C149.708 22.9762 149.289 22.5516 149.289 21.7022C149.289 21.619 149.289 21.5773 149.289 21.5773C149.289 21.4941 149.306 21.2942 149.339 20.9778C149.339 20.5781 148.979 20.3783 148.259 20.3783C147.774 20.3783 147.531 20.6448 147.531 21.1777V23.0512C147.531 23.634 147.632 24.0337 147.832 24.2502C148.05 24.4501 148.444 24.55 149.013 24.55H150.47C151.541 24.55 152.286 24.4584 152.705 24.2752C153.14 24.092 153.358 23.7673 153.358 23.301C153.358 23.0678 153.333 22.793 153.283 22.4766C153.233 22.1436 153.207 21.8688 153.207 21.6523C153.207 21.0361 153.383 20.5532 153.735 20.2034C154.086 19.8537 154.564 19.6789 155.166 19.6789C156.389 19.6789 157 20.345 157 21.6773C157 22.1103 156.975 22.5682 156.925 23.0512C156.841 23.8505 156.799 24.3501 156.799 24.55C156.799 24.7332 156.841 25.0912 156.925 25.6241C156.975 25.9405 157 26.2653 157 26.5983C157 27.3811 156.506 27.7724 155.518 27.7724C155.2 27.7724 154.673 27.7474 153.936 27.6975C152.713 27.6142 150.763 27.5559 148.084 27.5226C148.084 27.5226 147.339 27.5226 145.848 27.5226C145.011 27.5226 144.316 27.5476 143.764 27.5975L141.855 27.7724C141.838 27.7724 141.805 27.7807 141.754 27.7974C141.704 27.7974 141.662 27.7974 141.629 27.7974C141.11 27.7974 140.683 27.6225 140.348 27.2728C140.03 26.9231 139.871 26.4818 139.871 25.9489C139.871 25.4826 139.996 25.0912 140.247 24.7748C140.515 24.4584 140.85 24.3002 141.252 24.3002C141.386 24.3002 141.587 24.3335 141.855 24.4001C142.123 24.4501 142.315 24.475 142.432 24.475C142.885 24.475 143.111 23.9088 143.111 22.7764V15.8569C143.111 14.7411 142.885 14.1832 142.432 14.1832C142.332 14.1832 142.131 14.2165 141.83 14.2831C141.612 14.3331 141.419 14.3581 141.252 14.3581C140.867 14.3581 140.54 14.1999 140.272 13.8835C140.005 13.5671 139.871 13.1757 139.871 12.7094C139.871 11.4937 140.482 10.8859 141.704 10.8859C141.989 10.8859 142.566 10.9192 143.437 10.9858C144.743 11.0857 146.007 11.1357 147.23 11.1357C147.347 11.1357 148.352 11.1107 150.244 11.0607C151.617 11.0274 152.521 10.9941 152.956 10.9608C153.676 10.9108 154.43 10.8859 155.217 10.8859C156.154 10.8859 156.623 11.2939 156.623 12.1099C156.623 12.3763 156.59 12.7677 156.523 13.2839C156.473 13.8002 156.447 14.1916 156.447 14.458C156.447 14.7245 156.481 15.1075 156.548 15.6071C156.632 16.09 156.673 16.4564 156.673 16.7062C156.673 17.1892 156.489 17.5972 156.121 17.9302C155.769 18.2633 155.326 18.4298 154.79 18.4298C153.534 18.4298 152.906 17.7887 152.906 16.5064C152.906 16.2899 152.939 15.9901 153.006 15.6071C153.09 15.2241 153.132 14.941 153.132 14.7578C153.132 14.3914 152.939 14.1666 152.554 14.0833C152.42 14.05 152.069 14.0333 151.499 14.0333H149.013Z" fill="#002868"/>
<path d="M157 34.2441H28.9442V65.854L36.8768 59.3699H129.802L136.602 52.8858H87.3862L89.3414 50.0491L138.868 50.4543L146.801 43.7271H93.6791L95.1983 41.5387H149.067L157 34.2441Z" fill="#BF0A30"/>
<path d="M42.043 53.0709C42.4408 53.0709 42.6894 52.8149 42.7889 52.3028C42.8286 52.1059 42.8485 51.6923 42.8485 51.062V42.8789C42.8485 42.2486 42.8286 41.8449 42.7889 41.6677C42.6894 41.1556 42.4408 40.8996 42.043 40.8996C41.8839 40.8996 41.6452 40.9389 41.327 41.0177C41.0287 41.0768 40.79 41.1064 40.611 41.1064C40.1536 41.1064 39.7657 40.9193 39.4475 40.5451C39.1492 40.1709 39 39.708 39 39.1566C39 38.487 39.1889 37.965 39.5668 37.5908C39.9646 37.1969 40.4917 37 41.148 37C41.4463 37 42.1425 37.0591 43.2364 37.1773C43.9723 37.256 44.6883 37.2954 45.3844 37.2954C45.9413 37.2954 46.7368 37.2462 47.7711 37.1477C48.8252 37.0492 49.5213 37 49.8594 37C51.3113 37 52.0372 37.7189 52.0372 39.1566C52.0372 39.708 51.8781 40.1709 51.5599 40.5451C51.2616 40.9193 50.8837 41.1064 50.4262 41.1064C50.2671 41.1064 50.0285 41.0768 49.7102 41.0177C49.392 40.9389 49.1533 40.8996 48.9942 40.8996C48.4572 40.8996 48.1887 41.5593 48.1887 42.8789V51.062C48.1887 52.4013 48.4572 53.0709 48.9942 53.0709C49.1533 53.0709 49.392 53.0414 49.7102 52.9823C50.0285 52.9035 50.2671 52.8641 50.4262 52.8641C50.8837 52.8641 51.2616 53.0512 51.5599 53.4254C51.8781 53.7996 52.0372 54.2624 52.0372 54.8139C52.0372 55.4441 51.8384 55.966 51.4406 56.3796C51.0627 56.7932 50.5754 57 49.9787 57C49.8594 57 49.7699 56.9902 49.7102 56.9705L47.8307 56.7341C47.3534 56.675 46.8263 56.6455 46.2495 56.6455C45.3545 56.6455 44.4198 56.6947 43.4452 56.7932C42.2717 56.9114 41.506 56.9705 41.148 56.9705C40.5116 56.9705 39.9945 56.7735 39.5967 56.3796C39.1989 55.9857 39 55.4638 39 54.8139C39 54.2427 39.1492 53.7799 39.4475 53.4254C39.7657 53.0512 40.1635 52.8641 40.6408 52.8641C40.8 52.8641 41.0287 52.9035 41.327 52.9823C41.6452 53.0414 41.8839 53.0709 42.043 53.0709Z" fill="white"/>
<path d="M65.0046 38.9793L70.2553 51.6233V42.8789C70.2553 41.5593 69.9967 40.8996 69.4796 40.8996C69.3404 40.8996 69.1315 40.9389 68.8531 41.0177C68.5945 41.0768 68.3957 41.1064 68.2564 41.1064C67.8388 41.1064 67.4808 40.9193 67.1824 40.5451C66.904 40.1709 66.7648 39.708 66.7648 39.1566C66.7648 38.5066 66.9537 37.9847 67.3316 37.5908C67.7095 37.1969 68.2067 37 68.8233 37C69.1415 37 69.6884 37.0492 70.4641 37.1477C71.2398 37.2462 71.926 37.2954 72.5226 37.2954C73.0596 37.2954 73.6861 37.256 74.4021 37.1773C75.4761 37.0591 76.1424 37 76.401 37C77.0374 37 77.5545 37.1969 77.9523 37.5908C78.3501 37.9847 78.549 38.5066 78.549 39.1566C78.549 39.708 78.3899 40.1709 78.0717 40.5451C77.7534 40.9193 77.3656 41.1064 76.9082 41.1064C76.7292 41.1064 76.4905 41.0768 76.1922 41.0177C75.8938 40.9389 75.6651 40.8996 75.506 40.8996C75.1082 40.8996 74.8496 41.1457 74.7303 41.6381C74.6905 41.8351 74.6706 42.2486 74.6706 42.8789V54.9025C74.6706 56.2024 74.1336 56.8523 73.0596 56.8523C72.8607 56.8523 72.5525 56.8424 72.1348 56.8227C71.737 56.7834 71.4387 56.7637 71.2398 56.7637C71.2199 56.7637 70.7326 56.7834 69.7779 56.8227C69.7779 56.8227 69.5592 56.8227 69.1216 56.8227C68.5448 56.8227 68.1172 56.6849 67.8388 56.4092C67.6796 56.2516 67.4509 55.8282 67.1526 55.1388L61.3947 42.1403V51.062C61.3947 52.4013 61.6533 53.0709 62.1704 53.0709C62.3096 53.0709 62.5185 53.0414 62.7969 52.9823C63.0952 52.9035 63.314 52.8641 63.4532 52.8641C63.8709 52.8641 64.219 53.0512 64.4974 53.4254C64.7957 53.7996 64.9449 54.2624 64.9449 54.8139C64.9449 56.2516 64.2488 56.9705 62.8566 56.9705C62.4588 56.9705 61.8024 56.9114 60.8876 56.7932C60.271 56.7144 59.6544 56.675 59.0379 56.675C58.5208 56.675 57.8246 56.7243 56.9495 56.8227C56.0744 56.9212 55.5175 56.9705 55.2788 56.9705C53.827 56.9705 53.101 56.2516 53.101 54.8139C53.101 54.2624 53.2502 53.7996 53.5485 53.4254C53.8667 53.0512 54.2546 52.8641 54.712 52.8641C54.891 52.8641 55.1297 52.9035 55.428 52.9823C55.7462 53.0414 55.9849 53.0709 56.144 53.0709C56.681 53.0709 56.9495 52.4013 56.9495 51.062V42.8789C56.9495 41.5593 56.681 40.8996 56.144 40.8996C55.9849 40.8996 55.7462 40.9389 55.428 41.0177C55.1297 41.0768 54.891 41.1064 54.712 41.1064C54.2546 41.1064 53.8667 40.9193 53.5485 40.5451C53.2502 40.1709 53.101 39.708 53.101 39.1566C53.101 38.5066 53.2999 37.9847 53.6977 37.5908C54.0955 37.1969 54.6126 37 55.249 37C55.6667 37 56.2733 37.0492 57.0689 37.1477C57.8644 37.2462 58.4909 37.2954 58.9484 37.2954C59.3263 37.2954 59.9727 37.256 60.8876 37.1773C61.3052 37.1576 61.7826 37.1182 62.3196 37.0591C62.5582 37.0197 62.8168 37 63.0952 37C63.6322 37 64.0499 37.2068 64.3482 37.6204C64.4676 37.7779 64.6864 38.2309 65.0046 38.9793Z" fill="white"/>
<path fill-rule="evenodd" clip-rule="evenodd" d="M10.3132 72.0001C8.87887 68.162 8.19588 63.0149 7.82024 57.481L10.2107 55.9637L12.7719 57.6C12.3963 63.0744 11.7133 68.1918 10.3132 72.0001ZM11.3718 51.0843L10.3473 48.3174L9.32282 51.0843L9.11792 51.6496H8.43493H5.12243L7.82024 53.3455L8.36663 53.7025L8.16173 54.2678L7.13725 57.0347L9.83506 55.3389L10.3815 54.9819L10.9278 55.3389L13.6257 57.0347L12.6012 54.2678L12.3963 53.7025L12.9427 53.3455L15.6405 51.6496H12.328H11.645L11.3718 51.0843ZM7.5129 51.0546C7.308 44.6281 7.30799 38.1422 6.93235 33.0545V32.9653H13.694V33.0545C13.2842 38.1422 13.3183 44.5984 13.1134 51.0546H12.0548L10.8595 47.8116L10.2449 46.1157L9.63016 47.8116L8.43493 51.0546H7.5129ZM0 16.2148H20.6605V18.238H0V16.2148ZM5.12243 30.0198H15.6405V32.5488H5.12243V30.0198ZM6.86406 29.6033C6.76161 24.4859 5.42977 22.9686 2.15142 19.1008L10.3132 19.0115L18.4749 19.1008C15.1965 22.9686 13.8647 24.4859 13.7623 29.6033H6.86406Z" fill="#002868"/>
<path fill-rule="evenodd" clip-rule="evenodd" d="M15.6063 15.5604C17.3821 13.329 18.0992 11.3654 17.8602 9.52074C17.6211 7.67611 17.3479 6.90256 17.8943 5.47445C18.4407 4.04635 20.7287 3.06453 20.7287 3.06453C20.7287 3.06453 19.8067 4.55214 19.6359 5.77198C19.4652 6.99181 19.9433 9.37198 19.9433 9.37198L21.924 7.4381C21.924 7.4381 22.0264 10.8001 21.1044 12.5257C20.3872 13.8646 19.0895 15.0844 18.5432 15.5604H15.6063ZM1.98063 7.46785C3.17587 5.29595 2.69778 3.80833 2.69778 3.80833C2.69778 3.80833 4.13205 4.81991 4.1662 7.17033C4.20035 9.52075 3.58566 10.7108 4.09791 12.1984C4.5077 13.4183 6.07858 14.9654 6.65912 15.5307H2.15138C-0.170787 12.4959 0.204858 10.6216 1.98063 7.46785ZM7.51286 15.5604C5.32729 12.6447 4.54185 10.7108 5.42974 8.15215C6.31762 5.53396 7.41041 4.52239 7.64946 3.36205C7.8885 2.20172 7.88851 1.72569 7.88851 1.72569C7.88851 1.72569 8.29829 1.81494 8.77639 3.18354C9.25448 4.55214 9.25449 5.26619 9.25449 5.26619C9.25449 5.26619 11.5084 2.35048 13.4207 1.1604C15.3331 -0.0296865 18.6797 6.74774e-05 18.6797 6.74774e-05C18.6797 6.74774e-05 15.777 1.42817 15.3673 3.21329C14.9575 4.99842 16.4259 7.73562 16.1868 10.6811C16.0161 13.0017 15.1282 14.8464 14.7526 15.5307H7.51286V15.5604Z" fill="#BF0A30"/>
</svg>
