<svg width="416" height="320" viewBox="0 0 416 320" fill="none" xmlns="http://www.w3.org/2000/svg">
<path d="M226.051 36.374L226.016 36.5527L225.794 37.6963L225.145 41.198L192.637 215.753C192.053 215.371 191.476 215.024 190.892 214.641C190.045 214.085 189.18 213.564 188.332 213.008L220.804 38.7382L221.453 35.2364L221.523 34.879L221.71 33.9142L225.104 35.8191L226.051 36.374Z" fill="white"/>
<path d="M217.121 148.168L216.39 147.716L214.631 146.602C213.776 146.045 212.929 145.524 212.05 144.967L211.319 144.515L211.488 143.585L231.007 38.2627L232.098 32.4675L238.053 35.7972L237.61 38.0868L217.381 147.308L217.121 148.168ZM213.235 143.522C213.849 143.904 214.464 144.287 215.078 144.669L216.016 145.261L236.049 37.1842L236.103 36.8624L233.287 35.302L232.585 39.1294L213.235 143.522Z" fill="#004F74"/>
<path d="M238.372 37.5942C238.277 38.2018 238.078 38.7753 237.815 39.2784C237.264 40.285 236.444 40.8677 235.522 41.0241L220.724 145.61C220.152 145.226 219.589 144.878 219.018 144.494L233.709 40.7657L234.095 38.2639L234.363 36.4771L234.523 35.4406L235.27 35.8574L236.243 36.4134L236.468 36.5527L238.372 37.5942Z" fill="#004F74"/>
<path d="M256.92 37.9478C256.843 38.5674 256.648 39.1522 256.379 39.6652C255.815 40.6915 254.917 41.2855 253.901 41.4444C253.245 41.5258 252.513 41.4263 251.812 41.1444C251.058 40.8632 250.299 40.3638 249.59 39.6454C249.369 39.43 249.138 39.1783 248.935 38.9263C246.982 36.514 246.35 33.0654 247.548 30.8663C248.849 28.4476 251.887 28.444 254.337 30.8861C256.261 32.7894 257.223 35.6514 256.92 37.9478Z" fill="white"/>
<path d="M252.296 42.3748C252.124 42.3407 251.942 42.2703 251.761 42.2C250.852 41.8481 249.956 41.2413 249.146 40.4514C248.879 40.1639 248.611 39.8763 248.371 39.5884C246.075 36.7077 245.358 32.6419 246.738 30.113C247.475 28.7207 248.739 27.9763 250.236 27.993C251.759 28.0093 253.343 28.7525 254.725 30.1534C256.916 32.3441 258.14 35.6756 257.758 38.4823C257.656 39.2114 257.436 39.9056 257.133 40.4918C256.5 41.6645 255.452 42.406 254.193 42.5682C253.608 42.6123 252.94 42.5483 252.296 42.3748ZM251.699 30.3024C251.373 30.1976 251.065 30.1652 250.768 30.1691C249.714 30.183 248.85 30.7038 248.321 31.6568C247.357 33.4161 247.859 36.284 249.451 38.2642C249.618 38.4804 249.802 38.6599 249.986 38.8394C250.548 39.4142 251.169 39.8062 251.815 40.0888C252.397 40.3359 252.985 40.4009 253.533 40.3209C254.423 40.2 255.124 39.6814 255.585 38.8748C255.801 38.4717 255.972 37.9965 256.024 37.4864C256.29 35.5544 255.438 33.2005 253.919 31.6923C253.21 30.9739 252.461 30.5107 251.699 30.3024Z" fill="#004F74"/>
<path d="M254.339 37.6826C253.599 39.0147 251.874 39.0364 250.479 37.6577C249.63 36.8232 249.087 35.691 248.982 34.6268C249.189 35.0651 249.498 35.4654 249.841 35.7918C251.1 36.9885 252.641 37.0058 253.312 35.8215C253.752 35.0076 253.693 33.9061 253.236 32.883C254.565 34.2258 255.053 36.3508 254.339 37.6826Z" fill="#004F74"/>
<path d="M353.329 137.413C353.329 137.413 356.12 147.856 366.949 160.613L378.507 148.836L366.771 140.892L353.329 137.413Z" fill="#DA1A2D"/>
<path d="M361.479 154.011C361.791 147.389 365.12 145.758 365.192 141.653C365.192 141.653 362.714 137.959 360.435 133.765C358.19 129.606 357.316 146.18 357.316 146.18L361.479 154.011Z" fill="white"/>
<path d="M361.659 154.953L357.047 146.247L357.058 146.14C357.16 143.98 357.821 133.246 359.59 132.817C359.967 132.738 360.311 132.978 360.662 133.607C362.898 137.696 365.384 141.426 365.389 141.461L365.462 141.566L365.451 141.672C365.42 143.583 364.673 145.015 363.91 146.518C362.953 148.379 361.891 150.455 361.714 154.067L361.659 154.953ZM357.552 146.094L361.252 153.087C361.546 149.861 362.542 147.893 363.46 146.139C364.201 144.672 364.865 143.419 364.929 141.719C364.523 141.091 362.255 137.675 360.235 133.899C360.118 133.69 359.896 133.341 359.707 133.381C358.692 133.651 357.849 140.958 357.552 146.094Z" fill="white"/>
<path d="M366.982 162.12L366.318 161.334C355.423 148.511 352.574 138.072 352.465 137.639L352.003 135.941L367.11 139.858L380.169 148.717L366.982 162.12ZM354.873 138.899C356.097 142.252 359.475 150.029 366.981 159.07L376.899 148.963L366.506 141.94L354.873 138.899Z" fill="#004F74"/>
<path d="M400.608 155.708C397.472 155.645 392.177 160.164 388.454 163.228C384.721 166.255 377.622 169.113 373.337 167.05C371.747 166.304 370.798 165.401 370.251 164.456C367.57 159.58 376.098 152.665 370.431 148.239C367.149 145.683 363.239 146.586 359.186 148.628C352.869 151.805 346.183 157.665 341.057 157.155C332.667 156.291 326.416 145.893 318.177 144.917C308.662 143.776 298.071 166.79 289.831 161.815C288.047 160.741 287.186 159.213 286.995 157.529C286.771 155.331 287.719 152.859 289.361 150.707C289.361 150.707 289.361 150.707 289.39 150.706C289.411 150.669 289.411 150.669 289.432 150.632C293.705 144.405 295.616 139.277 290.244 135.726C289.727 135.404 289.159 135.119 288.55 134.908C287.269 126.857 285.376 117.458 283.962 110.839C282.907 105.866 282.114 102.503 282.114 102.503L283.422 65.1024C284.237 65.3102 285.196 65.2591 286.289 65.0225C288.365 64.5877 290.751 63.3412 292.893 61.4381C296.123 58.5281 299.398 56.0577 302.558 57.8443C305.717 59.6309 307.627 65.7284 307.627 65.7284C315.922 69.5653 317.341 63.968 325.895 68.278C330.648 70.7009 334.658 81.4623 337.777 88.5686C341.07 89.5462 347.677 88.9698 349.932 87.5419C351.344 93.9036 356.414 111.656 369.66 122.498C382.991 133.449 398.842 148.471 400.608 155.708Z" fill="#DA1A2D"/>
<path d="M290.752 75.8091C294.098 76.3389 296.899 73.0545 299.601 70.9603C301.467 69.5133 304.309 66.451 307.081 66.8062C308.353 66.9674 310.19 68.1204 312.327 71.7555L313.244 76.194C313.244 76.194 311.586 73.2551 309.008 72.7476C306.43 72.2402 303.35 75.0472 301.074 77.2075C298.798 79.3679 295.132 82.966 290.622 83.2012L290.752 75.8091Z" fill="white"/>
<path d="M290.374 83.5316L290.476 75.4783L290.768 75.5098C293.323 75.906 295.574 73.9705 297.712 72.1114C298.257 71.6185 298.834 71.1251 299.393 70.7062C299.726 70.4401 300.108 70.0989 300.522 69.757C302.391 68.1628 304.698 66.1891 307.081 66.5143C308.288 66.6766 310.223 67.6783 312.54 71.6039L312.578 71.6402L313.867 77.923L312.971 76.3448C312.964 76.3078 311.367 73.5186 308.957 73.0455C306.585 72.6087 303.732 75.0752 301.278 77.4599L301.115 77.6114C298.898 79.7318 295.159 83.2542 290.684 83.4886L290.374 83.5316ZM291.05 76.1722L290.98 82.8521C295.142 82.4753 298.492 79.2572 300.773 77.1357L300.935 76.9841C303.503 74.5231 306.462 71.9433 309.069 72.4497C310.684 72.7526 311.963 73.9895 312.704 74.9029L312.08 71.8724C309.809 68.0202 307.986 67.2761 307.102 67.1447C304.955 66.8891 302.722 68.75 300.942 70.3055C300.528 70.6473 300.145 70.9886 299.813 71.2547C299.254 71.6736 298.709 72.1664 298.132 72.6598C295.923 74.4832 293.672 76.4187 291.05 76.1722Z" fill="white"/>
<path d="M313.685 73.118C314.995 76.2449 319.052 80.1349 324.125 81.2612C329.197 82.3875 335.425 78.9304 342.573 86.4693L340.497 81.4288C340.497 81.4288 339.627 78.961 336.018 77.3245C332.799 75.903 327.93 75.3661 325.751 75.445C320.052 75.7399 314.057 75.2988 312.324 68.5088L313.685 73.118Z" fill="white"/>
<path d="M343.337 87.7125L342.311 86.6225C337.351 81.391 332.817 81.5521 328.82 81.7029C327.153 81.7719 325.549 81.8397 324.06 81.4984C318.94 80.376 314.742 76.3506 313.43 73.1946L313.423 73.1577L312.31 69.3689C312.231 69.1115 312.152 68.8541 312.066 68.5598L312.614 68.4383L312.852 69.2106C314.801 75.1288 320.491 75.3894 325.699 75.1043C328.022 74.9857 332.889 75.595 336.06 76.9768C339.721 78.608 340.664 81.1424 340.716 81.2523L343.337 87.7125ZM313.932 72.9999C315.186 76.0092 319.179 79.7796 324.109 80.9056C325.528 81.2112 327.107 81.1809 328.743 81.1125C332.582 80.9647 336.926 80.8073 341.673 85.229L340.132 81.5225C340.126 81.4856 339.216 79.1356 335.828 77.6101C332.752 76.2265 327.987 75.6522 325.727 75.7696C320.922 76.0099 316.261 75.6556 313.643 72.1177L313.932 72.9999Z" fill="white"/>
<path d="M287.759 108.808C293.421 107.089 303.143 94.7193 310.319 95.2006C315.215 95.5322 316.972 96.4753 323.657 101.898C329.301 106.481 334.693 110.013 340.381 107.119C345.766 104.387 348.552 110.241 348.552 110.241L344.971 102.877C344.971 102.877 342.559 100.655 339.942 100.473C337.021 100.258 333.357 104.481 324.781 97.9223C318.084 92.8126 315.15 89.5056 310.094 89.0207C302.335 88.238 294.084 100.304 288.207 101.558C287.418 106.114 287.759 108.808 287.759 108.808Z" fill="white"/>
<path d="M287.522 109.241L287.486 108.851C287.466 108.734 287.158 106.042 287.954 101.529L287.985 101.333L288.176 101.29C290.57 100.772 293.4 98.4077 296.433 95.8829C300.675 92.3169 305.501 88.309 310.152 88.7626C314.268 89.1879 317.042 91.4 321.323 94.833C322.405 95.7106 323.639 96.7024 325.013 97.7305C331.25 102.493 334.841 101.443 337.45 100.647C338.392 100.354 339.216 100.142 339.982 100.166C342.664 100.346 345.075 102.566 345.188 102.642L345.227 102.68L348.821 110.116L348.308 110.4L348.301 110.361C348.047 109.857 345.493 104.943 340.564 107.428C334.603 110.442 328.873 106.49 323.536 102.14C316.74 96.6461 315.143 95.8572 310.348 95.5238C306.161 95.2564 300.986 99.545 296.416 103.313C293.238 105.958 290.223 108.404 287.897 109.116L287.522 109.241ZM288.51 101.869C287.931 105.166 287.999 107.433 288.064 108.37C290.271 107.543 293.074 105.219 296.056 102.773C300.712 98.9249 305.978 94.5953 310.364 94.8587C315.258 95.1901 317.033 96.0537 323.876 101.625C329.053 105.822 334.604 109.699 340.29 106.807C343.33 105.26 345.582 106.388 347.003 107.689L344.768 103.08C344.416 102.775 342.278 100.98 339.967 100.831C339.26 100.767 338.509 101.017 337.593 101.27C334.852 102.068 331.142 103.199 324.673 98.2458C323.292 97.1787 322.058 96.1869 320.983 95.3483C316.669 91.9159 314.081 89.8173 310.137 89.4277C305.724 89.0084 300.983 92.9364 296.826 96.4224C293.786 98.9083 290.956 101.273 288.51 101.869Z" fill="white"/>
<path d="M312.184 80.8464C311.381 79.7835 310.592 78.7946 308.39 78.6139C305.901 78.4386 302.869 79.4636 300.108 82.3055C295.109 87.5329 293.478 89.2375 289.658 90.3149L289.866 95.9256C289.866 95.9256 293.467 96.0796 300.659 88.393C306.572 82.0697 312.298 83.7073 313.559 84.8358L312.184 80.8464Z" fill="white"/>
<path d="M289.622 96.2902L289.4 90.0876L289.616 90.0463C293.314 89.0089 294.887 87.3433 299.652 82.4201L299.947 82.1171C302.517 79.4661 305.518 78.1076 308.432 78.3489C310.792 78.5266 311.647 79.6995 312.435 80.6878L312.474 80.7242L314.22 85.8569L313.415 85.129C312.148 83.964 306.569 82.5846 300.904 88.6772C293.748 96.3596 290.074 96.3187 289.94 96.2841L289.622 96.2902ZM290.004 90.5963L290.198 95.6101C291.187 95.4424 294.637 94.447 300.49 88.1648C305.679 82.6016 310.904 83.0959 313.047 84.1697L311.95 80.9945C311.193 80.0055 310.482 79.09 308.415 78.9439C306.83 78.8257 303.638 79.1472 300.346 82.5554L300.052 82.8584C295.325 87.8181 293.663 89.5225 290.004 90.5963Z" fill="white"/>
<path d="M315.318 83.437C317.734 86.6372 322.672 89.2666 326.791 91.2772C335.163 95.3333 337.07 93.1694 339.858 93.5263C341.4 93.7206 343.459 93.9422 345.241 97.0054L343.525 91.7018C343.525 91.7018 341.697 89.0873 338.27 88.2203C334.74 87.3179 331.689 88.832 325.858 86.7423C320.989 85.0073 315.675 82.4225 314.196 80.1372L315.318 83.437Z" fill="white"/>
<path d="M345.223 97.3304C345.152 97.2944 345.082 97.2585 345.036 97.1848C343.36 94.3464 341.488 94.0841 340.012 93.8888L339.884 93.8913C339.13 93.7939 338.475 93.8811 337.691 93.9707C335.532 94.2359 332.877 94.5852 326.728 91.6091C322.614 89.6004 317.604 86.9006 315.151 83.667C315.112 83.6305 315.105 83.5933 315.098 83.5562L313.977 80.2597C313.918 80.1117 313.979 79.9241 314.1 79.8845C314.214 79.8078 314.387 79.879 314.471 79.9892C315.942 82.2351 321.378 84.8149 325.966 86.4416C329.426 87.6799 331.913 87.6321 334.081 87.5904C335.548 87.5622 336.887 87.5365 338.333 87.9188C341.827 88.8209 343.717 91.4316 343.77 91.5424C343.777 91.5795 343.815 91.6161 343.822 91.6532L345.537 96.9515C345.596 97.0995 345.535 97.2871 345.414 97.3267C345.319 97.3285 345.255 97.3298 345.223 97.3304ZM315.592 83.2857C317.954 86.372 322.893 89.0358 326.899 90.972C332.874 93.8769 335.466 93.5289 337.536 93.3027C338.319 93.213 339.071 93.124 339.856 93.2207L339.984 93.2183C341.23 93.3807 342.872 93.6101 344.406 95.3329L343.283 91.85C343.03 91.5193 341.279 89.3161 338.227 88.5546C336.851 88.2082 335.576 88.2328 334.109 88.261C331.877 88.3039 329.358 88.3523 325.796 87.0787C323.809 86.3712 317.752 84.0644 314.969 81.4709L315.592 83.2857Z" fill="white"/>
<path d="M286.711 116.561C286.835 117.403 286.911 118.457 286.928 119.477L282.481 114.621L281.472 87.3684L283.416 69.5476C284.142 69.7414 285.019 69.6852 286.03 69.4498C287.431 69.1347 290.117 67.1697 291.698 66.0759C291.511 82.7283 293.176 111.866 293.176 111.866C291.212 113.638 287.787 116.043 286.711 116.561Z" fill="#004F74"/>
<path d="M309.788 63.6572C310.517 64.4665 311.07 65.595 311.447 66.7993C311.826 68.0382 312.026 69.3182 312.222 70.5635C312.398 71.8443 312.548 73.0912 312.717 74.3027C312.89 75.5488 313.059 76.7603 313.232 78.0064C313.597 80.4632 313.966 82.9547 314.358 85.4453C314.554 86.6906 314.726 87.9368 314.876 89.1837C315.026 90.4306 315.133 91.7138 315.195 92.9986C314.776 91.8307 314.449 90.6595 314.142 89.4528C313.834 88.2462 313.573 87.0379 313.331 85.7942C312.851 83.3414 312.371 80.8887 311.999 78.3625C311.803 77.1172 311.626 75.8364 311.5 74.5887C311.346 73.3071 311.242 72.0586 311.116 70.8108C310.989 69.5631 310.823 68.3863 310.611 67.2111C310.403 66.0705 310.122 64.8977 309.788 63.6572Z" fill="white"/>
<path d="M390.783 138.982C387.372 140.437 383.902 142.39 382.067 143.98C380.512 145.298 377.761 147.243 375.126 148.574C374.185 149.044 372.667 149.597 371.987 149.835C372.021 151.135 371.015 151.491 370.608 152.528C370.355 153.182 370.269 156.166 369.91 156.667C370.07 157.392 370.475 156.546 370.312 157.198C372.916 157.244 376.355 155.98 377.452 155.432C380.702 153.941 384.153 151.529 386.133 149.823C388.276 147.962 392.835 145.728 396.196 144.503C394.446 142.611 392.648 140.758 390.783 138.982Z" fill="white"/>
<path d="M387.465 134.398C385.948 133.045 384.46 131.692 382.972 130.338C380.349 131.549 377.843 132.949 376.385 133.956C372.086 136.938 369.099 138.23 367.181 138.709C367.282 138.746 367.431 138.744 367.525 138.858C368.826 140.975 372.667 144.661 372.69 144.737C374.768 143.799 377.5 141.863 380.118 140.043C382.447 138.455 386.089 136.66 388.847 135.6C388.375 135.225 387.92 134.811 387.465 134.398Z" fill="white"/>
<path d="M376.534 124.794C375.494 124.042 374.442 123.253 373.451 122.462C371.748 123.284 370.381 124.026 369.803 124.3C369.538 124.417 369.285 124.573 368.972 124.73C367.37 125.589 365.184 126.798 363.027 127.511C362.132 127.827 361.388 127.95 360.842 128.033C362.367 129.887 363.669 131.896 365.05 133.866C365.156 134.018 365.221 134.132 365.327 134.283C367.633 133.569 370.029 132.357 372.384 131.107C372.667 130.951 372.92 130.795 373.155 130.678C375.605 129.35 378.006 128.253 379.907 127.39C378.833 126.524 377.698 125.659 376.534 124.794Z" fill="white"/>
<path d="M365.342 115.017C365.154 114.79 364.965 114.564 364.776 114.337C364.188 114.573 363.6 114.808 363.072 115.043C362.7 115.2 362.298 115.358 361.848 115.554C360.516 116.103 358.841 116.809 357.261 117.133C356.955 117.213 356.668 117.254 356.429 117.257C356.441 117.295 354.06 117.552 354.06 117.552C355.157 119.484 357.153 121.711 358.142 123.682C359.969 123.28 363.094 122.023 364.612 121.395C365.044 121.237 365.416 121.08 365.759 120.924C367.024 120.451 368.315 119.864 369.569 119.354C368.089 118.036 366.694 116.603 365.342 115.017Z" fill="white"/>
<path d="M359.778 104.177C359.017 104.413 358.227 104.65 357.365 104.85C357.003 104.93 356.593 105.049 356.182 105.167C354.53 105.604 351.452 106.437 349.45 106.308C350.028 107.136 349.934 108.2 350.364 109.029C351.043 110.387 352.105 111.437 352.985 112.868C354.469 112.661 357.502 112.17 358.715 111.853C359.095 111.734 359.487 111.654 359.82 111.574C361.228 111.216 362.566 110.821 363.732 110.352C362.325 108.358 361.013 106.287 359.778 104.177Z" fill="white"/>
<path d="M348.812 101.551C348.864 101.626 348.958 101.739 349.011 101.814C353.888 102.175 357.388 101.336 359.63 100.474C358.571 98.3595 357.627 96.1294 356.89 93.8969C354.933 94.7175 351.289 95.6718 345.687 94.7878C346.799 96.9779 347.814 99.2451 348.812 101.551Z" fill="white"/>
<path d="M291.134 163.436C290.63 163.297 290.109 163.085 289.621 162.762C287.08 161.223 286.329 159.034 286.193 157.459C285.956 155.079 286.852 152.388 288.709 149.902L288.771 149.791C290.747 146.938 293.272 142.792 292.574 139.831C292.29 138.625 291.453 137.574 290.018 136.606C289.597 136.319 289.106 136.106 288.556 135.894L287.879 135.648L287.748 134.843C286.486 126.866 284.577 117.396 283.182 110.851C282.144 105.952 281.352 102.59 281.343 102.553L281.3 102.371L281.316 102.187L282.668 63.7294L283.609 63.972C284.297 64.145 285.139 64.0956 286.122 63.8974C287.52 63.583 289.095 62.8991 290.543 61.9237L290.722 61.8109C291.302 61.3987 291.882 60.9865 292.386 60.5022C295.744 57.5174 299.3 54.7498 302.976 56.8583C305.932 58.5376 307.836 63.2402 308.437 64.9183C311.975 66.4421 314.106 66.1166 316.345 65.7528C318.928 65.3471 321.628 64.9397 326.244 67.2908C330.755 69.5702 334.265 77.8429 337.366 85.1316C337.749 86.0061 338.094 86.8444 338.43 87.6463C341.632 88.3683 347.482 87.84 349.485 86.5995L350.662 85.8482L350.95 87.5677C352.412 96.6415 356.014 110.048 370.197 121.644C375.007 125.569 399.13 145.745 401.51 155.465L401.812 156.744L400.747 156.724C398.082 156.654 393.105 160.763 389.804 163.49L389.091 164.088C385.519 167.039 377.961 170.307 373.148 167.996C371.425 167.178 370.236 166.132 369.524 164.859C368.036 162.168 369.153 159.29 370.237 156.523C371.758 152.612 372.199 150.735 370.063 149.044C367.566 147.064 364.374 147.259 359.709 149.566C357.762 150.549 355.738 151.827 353.756 153.03C349.211 155.85 344.933 158.555 341.185 158.134C336.686 157.652 332.832 154.666 329.084 151.752C325.517 148.981 322.132 146.355 318.316 145.899C314.168 145.411 309.523 150.176 305.048 154.791C300.158 159.889 295.571 164.653 291.134 163.436ZM290.202 151.494C288.632 153.571 287.829 155.784 288.016 157.578C288.168 158.97 288.887 160.023 290.229 160.846C293.969 163.1 298.897 158.038 303.684 153.124C308.421 148.248 313.329 143.223 318.206 143.81C322.538 144.331 326.315 147.245 329.958 150.088C333.63 152.93 337.092 155.629 341.075 156.045C344.337 156.4 348.594 153.732 352.721 151.139C354.695 149.899 356.778 148.62 358.774 147.6C362.329 145.823 366.885 144.177 370.928 147.343C374.866 150.438 373.271 154.533 371.985 157.817C371.07 160.178 370.208 162.392 371.077 163.956C371.493 164.72 372.36 165.404 373.63 166.045C377.614 167.965 384.468 165.074 387.898 162.272L388.619 161.711C392.071 158.872 396.264 155.434 399.393 154.727C396.592 147.837 382.606 134.331 369.367 123.49C358.423 114.523 352.055 103.616 349.431 89.241C346.426 90.3499 340.905 90.6532 337.836 89.7458L337.332 89.6067L337.086 89.0602C336.648 88.0766 336.231 87.0559 335.767 85.9626C332.993 79.4392 329.546 71.3122 325.805 69.4247C321.698 67.3593 319.362 67.6879 316.926 68.0914C314.452 68.4587 311.869 68.8644 307.574 66.8752L307.082 66.6625L306.886 66.0787C306.407 64.5455 304.628 60.2444 302.411 58.9574C299.694 57.4212 296.618 59.8516 293.672 62.4633C293.21 62.8738 292.718 63.2846 292.188 63.6594L291.829 63.8848C290.161 65.0469 288.406 65.8436 286.724 66.199C285.908 66.358 285.162 66.4426 284.441 66.3801L283.179 102.599C283.36 103.367 284.063 106.474 284.983 110.751C286.335 117.112 288.187 126.217 289.453 134.083C289.915 134.297 290.319 134.511 290.702 134.761C292.663 136.089 293.901 137.721 294.349 139.621C295.073 142.691 293.868 146.194 290.302 151.419L290.202 151.494Z" fill="#004F74"/>
<path d="M274.734 152.292C278.603 154.588 289.768 148.628 295.715 141.125C307.289 126.409 316.044 137.268 318.718 139.428C328.176 147.088 333.684 151.365 346.135 143.079C358.585 134.794 362.298 140.157 362.298 140.157L359.287 134.981C359.287 134.981 355.839 128.201 343.316 137.053C331.78 145.198 324.927 138.289 321.624 135.175C315.721 129.536 306.159 119.258 293.363 134.484C281.294 148.848 275.052 145.191 275.052 145.191L274.734 152.292Z" fill="white"/>
<path d="M275.515 152.928C275.201 152.855 274.914 152.74 274.654 152.585L274.467 152.468L274.822 144.62L275.229 144.852C275.303 144.891 281.474 148.138 293.164 134.22C298.632 127.712 304 125.186 309.555 126.556C314.234 127.704 318.023 131.323 321.091 134.233C321.331 134.469 321.572 134.706 321.806 134.902L322.006 135.099C325.234 138.167 332.01 144.618 343.109 136.743C350.021 131.853 354.225 131.764 356.495 132.52C358.658 133.238 359.448 134.75 359.495 134.829L362.499 139.953L362.026 140.324C361.986 140.285 358.281 135.377 346.262 143.352C333.516 151.783 327.897 147.238 318.523 139.676C318.249 139.44 317.935 139.165 317.541 138.812C314.133 135.667 306.174 128.356 295.93 141.319C290.329 148.434 280.068 154.119 275.515 152.928ZM275.067 152.053C279.007 153.98 289.708 148.125 295.483 140.846C306.112 127.393 314.359 135.019 317.92 138.281C318.281 138.635 318.629 138.909 318.869 139.146C328.016 146.552 333.515 150.979 345.934 142.796C354.614 137.063 359.126 137.812 361.143 138.855L358.982 135.162C358.975 135.122 358.252 133.81 356.336 133.167C354.14 132.449 350.149 132.614 343.443 137.34C331.945 145.423 324.968 138.775 321.62 135.589L321.419 135.392C321.179 135.156 320.945 134.96 320.704 134.724C314.716 128.98 305.661 120.325 293.578 134.694C283.087 147.179 276.926 146.184 275.357 145.614L275.067 152.053Z" fill="white"/>
<path d="M278.524 135.633C282.073 139.802 284.116 138.839 294.938 128.524C305.759 118.209 311.692 119.086 318.99 125.458C325.274 130.971 330.787 137.461 337.613 135.716C344.445 134.012 353.517 124.615 357.642 130.413L353.673 123.37C353.673 123.37 350.475 120.675 341.634 126.305C339.073 127.96 336.704 129.37 334.398 129.178C328.867 128.694 324.102 123.269 321.218 120.848C315.522 116.043 308.075 106.031 293.998 120.617C282.255 132.793 276.84 131.025 276.84 131.025L278.524 135.633Z" fill="white"/>
<path d="M281.417 138.147C280.371 137.89 279.397 137.071 278.348 135.815L278.308 135.776L276.316 130.545L276.882 130.733C276.916 130.733 282.346 132.217 293.733 120.396C306.487 107.189 313.99 113.982 319.444 118.941C320.078 119.526 320.705 120.073 321.292 120.579C321.8 121.008 322.394 121.555 323.028 122.141C325.918 124.796 329.843 128.429 334.286 128.816C336.457 129.01 338.677 127.725 341.356 125.992C350.242 120.294 353.572 122.981 353.719 123.058L353.759 123.097L357.773 130.202L357.302 130.572C354.715 126.951 350.061 129.644 345.095 132.464C342.569 133.915 339.95 135.407 337.574 135.976C331.646 137.458 326.74 132.967 321.56 128.243C320.645 127.383 319.697 126.524 318.716 125.666C311.808 119.619 305.979 118.343 295.081 128.716C287.544 136.062 284.149 138.889 281.417 138.147ZM278.82 135.446C282.16 139.37 283.988 138.533 294.767 128.243C305.977 117.544 311.993 118.936 319.168 125.177C320.149 126.035 321.097 126.894 322.011 127.754C327.078 132.401 331.864 136.774 337.499 135.339C339.775 134.772 342.361 133.28 344.894 131.869C349.069 129.505 353.364 127.059 356.365 128.794L353.447 123.622C353.034 123.351 349.753 121.543 341.797 126.622C339.025 128.397 336.712 129.723 334.374 129.533C329.725 129.11 325.687 125.4 322.756 122.706C322.122 122.12 321.568 121.612 321.028 121.184C320.44 120.677 319.813 120.131 319.172 119.505C316.442 117.006 313.325 114.196 309.341 113.56C304.705 112.818 299.738 115.238 294.227 120.945C284.461 131.094 279.009 131.647 277.377 131.482L278.82 135.446Z" fill="white"/>
<path d="M335.821 72.0591C336.771 73.1942 337.546 74.5795 338.222 76.0025C338.562 76.7314 338.876 77.461 339.164 78.1913C339.297 78.5742 339.457 78.9565 339.559 79.3052C339.692 79.6881 339.799 80.0717 339.933 80.4547C340.895 83.5209 341.925 86.5152 342.861 89.5821C343.77 92.6497 344.585 95.7899 345.437 98.8238C346.294 101.893 347.214 104.855 348.318 107.812C348.842 109.274 349.417 110.734 350.014 112.159C350.611 113.584 351.208 115.009 351.879 116.397C352.214 117.091 352.518 117.75 352.879 118.444L353.911 120.525L354.948 122.641L355.959 124.758C357.305 127.569 358.598 130.381 359.944 133.192C360.28 133.886 360.615 134.58 360.976 135.273C361.312 135.967 361.673 136.66 362.008 137.354C362.705 138.742 363.423 140.093 364.146 141.48C360.526 136.724 357.513 131.251 354.611 125.81L353.531 123.765L352.452 121.72L351.373 119.675C351.011 118.982 350.65 118.289 350.309 117.56C349.634 116.137 348.98 114.678 348.373 113.183C347.766 111.689 347.212 110.192 346.678 108.661C346.171 107.128 345.664 105.596 345.231 104.026C344.797 102.457 344.39 100.887 344.035 99.3153C343.299 96.1731 342.641 93.0291 341.837 89.9589C341.461 88.4231 340.98 86.89 340.551 85.3556C340.096 83.8218 339.694 82.2867 339.166 80.7899C338.904 80.0589 338.637 79.293 338.402 78.5615C338.167 77.8299 337.9 77.064 337.638 76.3331C337.094 74.9069 336.518 73.4464 335.821 72.0591Z" fill="white"/>
<path d="M349.54 113.82L349.467 113.782C349.354 113.705 347.018 111.936 342.968 112.374C341.172 112.569 339.737 113.31 338.335 114.049C336.595 114.954 335.1 115.735 333.254 115.26C329.842 114.382 325.859 110.592 323.714 108.582C323.441 108.35 323.201 108.118 323.001 107.925C318.086 103.364 314.932 101.098 310.42 100.401C304.374 99.4978 297.97 105.357 293.751 109.236C292.86 110.044 292.088 110.771 291.447 111.298C288.97 113.323 285.913 114.69 284.894 115.145L284.675 115.229L284.723 115.504C284.887 116.449 284.992 117.632 285.017 118.737C285.032 119.014 285.046 119.29 285.054 119.527C285.099 120.553 285.136 121.54 285.22 122.407L285.262 122.841L285.606 122.715C287.149 122.209 289.517 121.094 292.04 118.949C293.46 117.735 294.807 116.483 296.101 115.31C300.828 110.908 304.935 107.15 310.361 107.552C314.201 107.829 317.124 110.297 320.48 113.151C320.906 113.498 321.339 113.884 321.765 114.231C322.038 114.463 322.344 114.693 322.697 115.002C325.466 117.355 330.646 121.713 333.813 122.517C336.741 123.286 339.128 121.894 341.429 120.583C344.663 118.7 347.751 116.938 352.284 120.439L353.355 121.247L349.54 113.82Z" fill="white"/>
<path d="M369.744 147.539C365.4 142.323 362.311 136.302 357.651 127.184C356.395 124.748 354.979 121.964 353.392 118.937C348.432 109.439 346.977 103.697 345.57 98.0946C344.847 95.2587 344.104 92.2823 342.91 88.8235L344.472 88.0821C345.708 91.6456 346.484 94.6564 347.217 97.5625C348.634 103.235 350.005 108.592 354.815 117.812C356.402 120.839 357.818 123.623 359.074 126.059C363.659 135.038 366.706 140.953 370.889 145.997L369.744 147.539Z" fill="#004F74"/>
<path d="M357.336 94.5975C357.89 97.6021 358.602 100.427 359.517 103.212C360.407 105.998 361.443 108.709 362.552 111.384C363.662 114.059 364.844 116.697 366.074 119.298C367.304 121.9 368.586 124.5 369.8 127.172C368.055 125.005 366.469 122.658 365.019 120.167C363.57 117.677 362.257 115.042 361.111 112.298C359.966 109.554 359.01 106.665 358.304 103.699C357.62 100.698 357.212 97.6192 357.336 94.5975Z" fill="white"/>
<path d="M358.766 87.5086C358.789 89.223 358.938 90.9341 359.163 92.6431C359.389 94.3522 359.715 96.0585 360.092 97.7634C360.845 101.173 361.792 104.508 362.861 107.804C363.405 109.435 363.954 111.1 364.55 112.729C365.145 114.358 365.736 115.952 366.381 117.58C367.618 120.802 368.9 123.987 370.116 127.245C369.22 125.834 368.39 124.351 367.611 122.867C366.827 121.348 366.094 119.828 365.402 118.236C364.023 115.088 362.711 111.869 361.562 108.539C360.962 106.875 360.438 105.209 359.935 103.508C359.431 101.806 358.974 100.069 358.567 98.3295C358.351 97.4603 358.181 96.5548 358.016 95.6842C357.871 94.7781 357.706 93.9075 357.582 92.9658C357.343 91.1521 357.201 89.3009 357.21 87.4455L358.766 87.5086Z" fill="#004F74"/>
<path d="M369.736 147.54C365.391 142.324 362.301 136.303 357.64 127.185C356.384 124.749 354.968 121.965 353.38 118.938C347.97 108.605 346.6 103.072 344.99 96.664C344.385 94.2479 343.764 91.7265 342.864 88.789L344.442 88.1529C345.352 91.1606 345.973 93.682 346.611 96.1325C348.167 102.365 349.516 107.758 354.782 117.848C356.369 120.875 357.786 123.659 359.042 126.095C363.628 135.074 366.675 140.99 370.86 146.034L369.736 147.54Z" fill="#004F74"/>
<path d="M313.541 69.2266L315.783 95.2723L313.541 69.2266Z" fill="white"/>
<path d="M313.855 69.0397C313.975 70.1116 314.075 71.2189 314.195 72.2908C314.314 73.3626 314.414 74.4699 314.515 75.5773C314.712 77.7573 314.909 79.9373 315.107 82.1174L315.382 85.4056C315.482 86.5129 315.557 87.5865 315.658 88.6938C315.81 90.8756 315.944 93.0929 315.966 95.3145C315.527 93.1787 315.176 91.0394 314.868 88.8637C314.704 87.7936 314.581 86.6872 314.439 85.6162L314.011 82.3687C313.724 80.1922 313.463 78.0494 313.199 75.8719C313.079 74.8001 312.935 73.6945 312.815 72.6227C312.696 71.5508 312.573 70.4444 312.454 69.3725L313.855 69.0397Z" fill="#004F74"/>
<path d="M290.398 72.221C290.665 73.0482 290.816 73.4797 291.067 74.2349C291.681 74.0441 291.97 73.931 292.539 73.6687C292.129 74.3985 291.916 74.7273 291.478 75.4575C291.758 76.2123 291.865 76.5721 292.137 77.2908C291.599 77.0465 291.34 76.906 290.75 76.554C290.275 77.2487 290.005 77.5784 289.466 78.238C289.609 77.3318 289.685 76.8967 289.828 75.9904C289.23 75.6024 288.927 75.3904 288.285 74.9307C289.028 74.8102 289.389 74.7682 290.031 74.5771C290.223 73.6339 290.291 73.1628 290.398 72.221Z" fill="white"/>
<path d="M289.167 83.218C289.443 83.9392 289.573 84.2637 289.849 84.985C290.507 84.5754 290.832 84.3525 291.445 83.871C291.006 84.7488 290.758 85.1881 290.263 86.0668C290.53 86.7519 290.668 87.1125 290.936 87.7976C290.367 87.6979 290.092 87.6297 289.47 87.4219C288.937 88.2649 288.653 88.6685 288.047 89.4401C288.239 88.4937 288.335 88.0205 288.528 87.0741C287.889 86.794 287.562 86.6178 286.871 86.2298C287.7 86.0714 288.069 85.9204 288.809 85.6183C288.928 84.6005 289.024 84.1273 289.167 83.218Z" fill="white"/>
<path d="M287.694 94.0102C288.013 94.7712 288.191 95.1697 288.539 95.9302C289.343 95.4799 289.722 95.2187 290.473 94.6598C289.946 95.6893 289.675 96.1678 289.073 97.1256C289.421 97.8861 289.599 98.2846 289.956 99.0815C289.215 98.9107 288.841 98.8071 288.084 98.5636C287.437 99.4492 287.091 99.8558 286.361 100.633C286.604 99.6446 286.701 99.1689 286.907 98.1443C286.133 97.8281 285.751 97.6882 284.952 97.263C285.91 97.1021 286.372 96.949 287.222 96.5709C287.428 95.5464 287.546 95.0338 287.694 94.0102Z" fill="white"/>
<path d="M286.43 105.448C286.825 106.252 287.017 106.691 287.412 107.494C288.436 107.147 288.921 106.919 289.86 106.463C289.189 107.43 288.815 107.878 288.029 108.736C288.424 109.54 288.637 109.941 289.062 110.744C288.169 110.5 287.727 110.397 286.788 110.08C285.964 110.902 285.551 111.313 284.651 112.063C284.956 111.065 285.114 110.584 285.39 109.586C284.472 109.232 284.034 109.018 283.099 108.591C284.195 108.427 284.743 108.345 285.806 108.034C286.073 106.999 286.192 106.482 286.43 105.448Z" fill="white"/>
<path d="M274.199 151.51C274.177 151.546 271.315 156.081 271.409 158.209C270.358 151.984 268.578 143.396 266.937 135.834C269.896 135.522 272.489 135.572 274.444 136.24C275.045 136.44 275.572 136.713 276.021 137.023C280.909 140.502 278.746 145.484 274.199 151.51Z" fill="#DA1A2D"/>
<path d="M271.275 150.918C269.037 139.969 282.201 135.846 281.051 129.5C279.292 120.036 274.96 129.345 274.96 129.345C274.96 129.345 267.243 128.583 269.539 142.449C270.313 147.237 271.275 150.918 271.275 150.918Z" fill="white"/>
<path d="M271.028 151.005C271.022 150.969 270.079 147.25 269.284 142.531C268.406 137.314 268.836 133.53 270.528 131.251C272.079 129.153 274.222 129.037 274.803 129.06C275.211 128.232 277.125 124.524 278.996 125.019L279.025 125.018C280.084 125.316 280.818 126.761 281.335 129.492C281.883 132.4 279.685 134.762 277.173 137.485C273.947 140.937 270.311 144.859 271.562 150.922L271.028 151.005ZM278.919 125.59C277.503 125.228 275.74 128.292 275.168 129.515L275.105 129.659L274.956 129.626C274.927 129.627 272.557 129.428 270.91 131.635C269.309 133.77 268.941 137.41 269.784 142.413C270.118 144.4 270.474 146.173 270.777 147.627C271.075 143.063 274.084 139.865 276.767 136.96C279.182 134.345 281.283 132.093 280.795 129.539C280.366 127.162 279.702 125.787 278.919 125.59Z" fill="white"/>
<path d="M199.553 131.325L199.25 132.395C199.231 131.934 199.341 131.577 199.553 131.325Z" fill="white"/>
<path d="M199.133 133.445C198.698 133.346 198.379 132.886 198.32 132.384C198.247 131.631 198.46 130.98 198.883 130.505C199.183 130.175 199.682 130.129 200.059 130.409C200.443 130.725 200.597 131.26 200.471 131.73L200.155 132.814C200 133.284 199.598 133.544 199.133 133.445Z" fill="#004F74"/>
<path d="M282.338 145.967C281.205 149.69 276.704 154.272 276.427 154.565C276.451 154.528 276.451 154.528 276.474 154.492C281.209 148.361 283.482 143.321 278.279 139.869C277.777 139.556 277.221 139.28 276.618 139.076C274.56 138.399 271.866 138.346 268.729 138.66C260.164 139.479 248.587 143.018 239.548 143.523C226.255 144.258 217.727 138.358 216.705 134.426C217.25 130.751 211.104 128.719 209.611 130.402L234.62 46.7638C236.878 44.8502 240.797 46.6035 242.252 48.7658C243.707 50.928 251.89 50.9788 257.511 50.0394C263.132 49.0999 270.009 47.6681 274.212 52.218C278.386 56.7685 278.57 60.1779 278.886 68.3987C278.904 69.0091 278.942 69.7269 278.938 70.5533C279.154 80.5725 279.017 104.143 280.033 113.284C280.979 122.031 283.102 137.617 282.645 143.985C282.558 144.849 282.464 145.497 282.338 145.967Z" fill="#DA1A2D"/>
<path d="M284.553 104.762L276.825 102.757L263.007 101.929L236.414 105.11L227.723 96.8415L223.171 94.3731L237.693 46.5388C240.039 44.5942 244.124 46.3777 245.645 48.5762C247.166 50.7746 255.686 50.8288 261.537 49.8754C267.387 48.9221 274.544 47.4687 278.933 52.0951C283.291 56.7222 283.492 60.188 283.844 68.545C283.865 69.1655 283.905 69.8952 283.904 70.7352C284.13 78.4007 284.134 93.6672 284.553 104.762Z" fill="#004F74"/>
<path d="M281.49 51.6817C281.972 52.2916 282.437 52.9715 282.88 53.6522C283.302 54.3684 283.709 55.1548 284.004 55.9798C284.325 56.8386 284.535 57.7361 284.701 58.6698C284.845 59.6044 284.918 60.5413 284.992 61.4782C285.094 63.3536 285.08 65.233 285.109 67.0761C285.116 67.5977 285.09 68.0161 285.094 68.5031L285.053 69.8963L284.993 72.6819L284.464 94.8986C284.382 98.5896 284.304 102.315 284.291 106.004C284.274 107.849 284.279 109.692 284.374 111.499C284.472 113.339 284.57 115.18 284.691 117.02L285.035 122.575C285.133 124.416 285.234 126.291 285.309 128.133C285.388 130.009 285.439 131.851 285.425 133.731C285.431 135.575 285.37 137.456 285.141 139.273C285.182 138.332 285.205 137.426 285.177 136.488C285.149 135.549 285.125 134.646 285.074 133.708C284.976 131.867 284.832 130.028 284.688 128.189C284.543 126.35 284.376 124.511 284.209 122.673L283.703 117.123C283.535 115.285 283.387 113.411 283.266 111.571C283.141 109.697 283.109 107.819 283.1 105.94C283.086 102.218 283.141 98.4929 283.222 94.802C283.324 91.0755 283.428 87.3837 283.556 83.6912C283.708 79.9978 283.832 76.2706 284.03 72.5757L284.295 67.0691C284.336 65.2236 284.4 63.3774 284.371 61.5343C284.366 59.6904 284.225 57.8859 283.701 56.1989C283.201 54.5111 282.375 53.0432 281.49 51.6817Z" fill="white"/>
<path d="M283.371 101.652C281.141 99.2855 278.746 97.8173 276.082 96.9237C270.359 94.9799 263.633 96.5547 256.532 98.217C252.369 99.1802 248.033 100.105 244.121 100.413C228.822 101.597 226.355 94.7134 226.346 94.6729C224.495 90.1415 219.507 89.4483 218.165 91.8728L216.425 98.6206C217.48 98.0334 219.105 96.7447 220.812 97.328C223.484 98.2622 223.117 100.182 224.859 102.72C227.711 106.868 236.462 108.967 245.371 108.497C249.826 108.262 254.364 107.212 258.772 106.163C264.78 104.763 270.951 103.808 275.057 104.678C278.191 105.32 282.436 106.677 284.169 110.07L283.371 101.652Z" fill="white"/>
<path d="M281.667 127.298C280.06 125.678 278.037 124.386 276.192 123.732C269.264 121.393 260.995 123.088 252.234 124.911C247.278 125.952 242.087 126.676 237.39 127.271C222.722 129.107 217.05 120.487 216.526 119.612C214.646 116.351 213.342 114.485 211.048 113.438C210.168 113.01 207.3 112.453 206.272 114.115L204.742 121.643C205.726 121.227 207.619 120.073 209.371 120.889C210.645 121.47 211.652 122.458 212.321 123.973C213.206 126.005 215.473 129.1 217.457 130.514C224.073 135.226 229.131 135.789 238.711 135.277C243.904 134.995 249.241 133.908 254.383 132.824C262.335 131.174 269.882 129.61 275.219 131.413C278.614 132.564 282.422 134.39 283.172 137.99C283.137 137.549 281.667 127.298 281.667 127.298Z" fill="white"/>
<path d="M282.571 115.129C280.638 112.476 278.462 111.25 276.401 110.55C270.036 108.375 262.546 110.042 254.582 111.797C250.004 112.807 245.272 113.859 240.885 114.093C233.797 114.451 224.972 114.39 220.422 106.124C218.008 101.728 214.333 101.014 211.959 103.819L210.454 110.271C211.618 109.439 212.655 108.771 214.093 109.033C215.293 109.257 216.896 109.964 217.911 112.185C218.745 114.775 221.073 117.138 223.128 118.407C228.298 121.578 233.799 122.669 242.156 122.25C247.001 122.009 251.954 120.912 256.752 119.858C263.9 118.278 270.619 117.438 275.405 118.418C279.607 119.286 281.856 120.389 284.005 123.284L282.571 115.129Z" fill="white"/>
<path d="M214.947 131.276L213.388 130.163C216.158 122.273 221.963 97.2909 221.963 97.2909C222.276 97.7844 223.401 98.8694 223.401 98.8694C220.099 114.361 217.756 123.314 214.947 131.276Z" fill="#DA1A2D"/>
<path d="M228.176 143.542C221.072 141.673 216.637 137.846 215.807 134.665C215.775 134.486 215.75 134.343 215.778 134.162C215.922 133.118 215.128 132.343 214.416 131.854C212.792 130.773 210.752 130.706 210.275 131.219C209.975 131.548 209.476 131.594 209.098 131.315C208.714 130.999 208.56 130.463 208.686 129.993L233.671 46.3474C233.729 46.1665 233.816 45.9851 233.976 45.8741C236.7 43.5557 241.212 45.6207 242.939 48.137C243.827 49.4486 250.591 50.0671 257.259 48.9627L258.126 48.8016C263.606 47.9008 270.447 46.7571 274.766 51.4489C279.308 56.3878 279.436 60.1579 279.766 68.4513C279.771 68.9901 279.802 69.6722 279.824 70.6418C279.901 73.4429 279.916 77.2512 279.974 81.6336C280.037 88.9262 280.129 97.2243 280.348 104.047C280.491 108.068 280.684 111.19 280.902 113.27C281.073 114.919 281.319 116.818 281.554 118.826C282.598 127.787 283.909 138.935 283.53 144.225C283.53 144.225 283.53 144.225 283.536 144.261C283.456 145.161 283.345 145.881 283.202 146.423C281.97 150.436 277.267 155.238 277.061 155.422C276.708 155.788 276.13 155.728 275.787 155.304C275.414 154.88 275.36 154.234 275.677 153.833L275.7 153.796L275.723 153.76C277.913 150.949 280.744 146.868 280.232 143.968C280.023 142.786 279.246 141.76 277.856 140.818C277.448 140.539 276.965 140.333 276.421 140.128C274.649 139.553 272.208 139.422 268.893 139.741C265.048 140.105 260.674 141.02 256.008 141.976C250.423 143.131 244.666 144.324 239.672 144.604C235.327 144.836 231.462 144.41 228.176 143.542ZM217.666 134.376C218.162 135.839 220.213 137.99 223.8 139.714C226.86 141.161 232.046 142.818 239.406 142.418C244.28 142.14 249.985 140.984 255.51 139.83C260.205 138.874 264.639 137.958 268.537 137.556C272.084 137.197 274.769 137.359 276.762 138.001C277.46 138.239 278.112 138.549 278.651 138.898C280.142 139.91 281.154 141.075 281.691 142.429C281.789 136.894 280.563 126.571 279.687 118.899C279.452 116.892 279.236 114.992 279.035 113.343C278.798 111.156 278.611 108.07 278.45 103.941C278.194 97.0836 278.132 88.7849 278.063 81.4565C278.035 77.0735 277.996 73.3016 277.919 70.5005C277.904 69.5666 277.879 68.9204 277.844 68.3821C277.516 60.2684 277.402 57.2526 273.485 52.9838C269.87 49.0683 263.807 50.0526 258.475 50.9504L257.608 51.1115C254.099 51.6852 243.61 52.6149 241.423 49.3533C240.257 47.652 237.138 46.2058 235.301 47.4644L211.141 128.686C212.479 128.66 214.054 129.131 215.276 129.969C216.936 131.085 217.815 132.684 217.666 134.376Z" fill="#004F74"/>
<path d="M270.503 158.417C269.217 151.11 267.1 141.258 265.937 136.049L265.683 134.879L266.676 134.787C270.101 134.43 272.691 134.589 274.612 135.225C275.286 135.46 275.913 135.767 276.432 136.112C278.26 137.391 279.361 138.969 279.671 140.814C280.171 143.794 278.757 147.206 274.92 152.307L274.823 152.416C273.142 154.41 272.208 156.566 272.299 158.308L270.503 158.417ZM267.968 136.825C268.931 141.184 270.374 147.882 271.525 153.874C272.018 152.867 272.655 151.857 273.47 150.878L273.538 150.77C275.662 147.984 278.41 143.938 277.927 141.065C277.73 139.894 276.983 138.877 275.645 137.944C275.253 137.668 274.787 137.464 274.263 137.261C272.745 136.795 270.671 136.625 267.968 136.825Z" fill="#004F74"/>
<path d="M253.882 53.7794C254.105 54.8465 254.225 55.3614 254.484 56.3543C255.441 56.4532 255.9 56.4845 256.797 56.4734C256.059 57.0359 255.667 57.3358 254.862 57.8622C255.11 58.8184 255.22 59.2966 255.446 60.1792C254.698 59.635 254.333 59.3444 253.543 58.6532C252.672 59.1435 252.241 59.407 251.292 59.8245C251.711 58.934 251.92 58.4887 252.3 57.5618C251.499 56.8338 251.102 56.4329 250.242 55.595C251.364 55.8763 251.9 55.9803 252.896 56.1156C253.314 55.2251 253.513 54.7431 253.882 53.7794Z" fill="white"/>
<path d="M263.708 53.3608C263.999 54.2785 264.126 54.7191 264.452 55.5626C265.326 55.4781 265.752 55.3992 266.682 55.314C265.994 55.9489 265.631 56.2482 264.934 56.8464C265.25 57.6532 265.411 58.0197 265.744 58.7895C264.957 58.3938 264.569 58.2144 263.838 57.8181C263.112 58.4167 262.777 58.7156 262.023 59.3145C262.312 58.4634 262.437 58.0196 262.715 57.1318C262.001 56.6984 261.676 56.4445 260.997 55.937C261.853 55.8896 262.29 55.8473 263.125 55.7264C263.364 54.8022 263.479 54.3217 263.708 53.3608Z" fill="white"/>
<path d="M274.382 51.8425C274.779 52.8332 274.983 53.3468 275.37 54.3007C276.333 54.3257 276.83 54.3933 277.789 54.6027C277.076 55.054 276.702 55.3167 275.972 55.805C276.359 56.7589 276.552 57.2358 276.922 58.2268C276.094 57.4996 275.663 57.1731 274.822 56.5935C274.074 57.1189 273.7 57.3816 272.942 57.8703C273.185 57.0561 273.282 56.6125 273.504 55.7248C272.646 55.1824 272.218 54.9664 271.353 54.4978C272.357 54.3748 272.851 54.3318 273.848 54.2826C274.059 53.3582 274.174 52.8775 274.382 51.8425Z" fill="white"/>
<path d="M283.831 54.2622C284.13 55.5443 284.28 56.1854 284.588 57.3958C285.322 58.2782 285.698 58.8085 286.39 60.0489C285.881 59.592 285.622 59.453 285.053 59.283C285.361 60.4934 285.494 61.0632 285.819 62.2377C285.168 60.961 284.843 60.3226 284.167 59.1535C283.582 59.1266 283.264 59.1672 282.645 59.3196C282.838 58.5304 282.923 58.136 283.124 57.3824C282.44 56.2848 282.114 55.7537 281.413 54.7994C282.216 55.216 282.633 55.4956 283.393 56.1631C283.57 55.4099 283.654 55.0155 283.831 54.2622Z" fill="white"/>
<path d="M248.914 66.1276C249.191 67.0577 249.324 67.5041 249.56 68.3973C250.661 68.3095 251.175 68.1913 252.214 67.9923C251.33 68.7122 250.893 69.0907 249.981 69.811C250.246 70.7038 250.35 71.1506 250.616 72.0434C249.774 71.6428 249.363 71.4237 248.506 70.8739C247.513 71.5205 247.026 71.8249 245.943 72.3606C246.443 71.4212 246.674 70.9331 247.146 69.9942C246.238 69.3703 245.782 69.0024 244.83 68.2298C246.116 68.4758 246.714 68.5433 247.866 68.5295C248.269 67.554 248.5 67.0659 248.914 66.1276Z" fill="white"/>
<path d="M260.579 63.9928C260.905 64.6985 261.073 65.07 261.41 65.8129C262.479 65.6134 263.061 65.5318 264.221 65.4432C263.292 66.0145 262.862 66.3185 261.966 67.0014C262.314 67.7816 262.511 68.1527 262.91 69.0069C261.942 68.5703 261.465 68.4266 260.588 68.1009C259.703 68.8211 259.278 69.237 258.398 70.0692C258.761 69.0564 258.934 68.5688 259.262 67.6312C258.425 67.3424 258.034 67.1977 257.225 66.9086C258.243 66.635 258.746 66.4796 259.763 66.206C260.12 65.2681 260.276 64.8181 260.579 63.9928Z" fill="white"/>
<path d="M272.078 63.415C272.442 64.325 272.629 64.7982 272.996 65.8179C273.975 66.1713 274.465 66.348 275.419 66.8114C274.685 67.0403 274.305 67.1548 273.554 67.4205C273.931 68.4766 274.111 69.0231 274.491 70.1889C273.658 69.1752 273.225 68.7051 272.405 67.8375C271.654 68.1032 271.256 68.2546 270.508 68.6299C270.74 67.7856 270.875 67.3814 271.089 66.5738C270.273 65.816 269.852 65.4921 269.031 64.9172C269.994 65.0147 270.49 65.1181 271.466 65.3618C271.708 64.5538 271.826 64.1865 272.078 63.415Z" fill="white"/>
<path d="M281.728 66.8464C282.069 67.9614 282.27 68.5365 282.62 69.6875C283.487 70.2895 283.939 70.6084 284.78 71.2108C284.159 71.2555 283.853 71.2958 283.207 71.4492C283.584 72.5997 283.75 73.1392 284.126 74.2898C283.34 73.2893 282.948 72.7891 282.17 71.7162C281.498 71.8699 281.158 71.983 280.443 72.1734C280.64 71.3038 280.738 70.8691 280.945 70.0355C280.167 68.9627 279.791 68.4261 278.996 67.3896C279.897 67.919 280.365 68.2015 281.249 68.7672C281.439 67.97 281.556 67.6073 281.728 66.8464Z" fill="white"/>
<path d="M256.746 59.9993C257.013 60.8125 257.133 61.2192 257.389 61.9953C258.34 61.8354 258.802 61.7556 259.742 61.5587C258.989 62.1986 258.592 62.5003 257.793 63.1779C258.049 63.954 258.186 64.3234 258.46 65.0623C257.68 64.7377 257.295 64.594 256.533 64.2321C255.734 64.9097 255.32 65.2487 254.463 65.927C254.818 64.995 255 64.5475 255.354 63.6156C254.599 63.1794 254.221 62.9614 253.433 62.4143C254.445 62.3649 254.918 62.3221 255.88 62.1991C256.284 61.3408 256.438 60.8936 256.746 59.9993Z" fill="white"/>
<path d="M267.724 58.4283C268.164 59.2122 268.335 59.5859 268.735 60.3327C269.784 60.3203 270.28 60.3144 271.334 60.4147C270.565 60.8747 270.155 61.0674 269.369 61.5652C269.751 62.3498 269.962 62.7606 270.367 63.6201C269.488 63.0292 269.158 62.8077 268.166 62.3309C267.263 62.8301 266.817 63.0983 265.937 63.6724C266.254 62.8795 266.393 62.4646 266.652 61.6724C265.712 61.2702 265.277 61.0875 264.435 60.7217C265.44 60.5595 265.982 60.5155 267.067 60.4275C267.355 59.635 267.465 59.2204 267.724 58.4283Z" fill="white"/>
<path d="M278.223 58.8407C278.586 59.8895 278.749 60.3959 279.122 61.4809C280.026 61.9413 280.47 62.1897 281.359 62.7956C280.681 62.8772 280.362 62.9904 279.687 63.181C280.032 64.2663 280.205 64.809 280.588 65.9301C279.805 64.9232 279.401 64.42 278.611 63.4858C277.919 63.7129 277.546 63.8268 276.836 64.0905C277.051 63.2884 277.168 62.9236 277.383 62.1215C276.596 61.2963 276.194 60.902 275.382 60.1861C276.326 60.3916 276.794 60.5307 277.722 60.8818C277.911 60.08 278.018 59.679 278.223 58.8407Z" fill="white"/>
<path d="M243.626 78.2785C243.957 79.2863 244.102 79.7716 244.473 80.8164C245.756 80.7262 246.4 80.6437 247.638 80.4042C246.648 81.2777 246.122 81.6586 245.041 82.4209C245.412 83.4656 245.586 83.9506 245.968 85.0327C244.891 84.446 244.366 84.1525 243.295 83.4907C242.152 84.1413 241.534 84.4109 240.276 84.8754C240.838 83.932 241.098 83.4418 241.637 82.4238C240.555 81.7247 240.026 81.3188 238.928 80.47C240.38 80.7525 241.099 80.819 242.455 80.8778C242.896 79.8234 243.145 79.2959 243.626 78.2785Z" fill="white"/>
<path d="M257.074 75.3885C257.511 76.4164 257.716 76.9305 258.164 77.9952C259.335 77.7594 259.903 77.6786 261.116 77.5899C260.189 78.3762 259.744 78.7877 258.849 79.6843C259.279 80.7861 259.495 81.337 259.897 82.4392C258.914 81.8608 258.447 81.6083 257.456 81.1038C256.561 82.0005 256.11 82.4858 255.158 83.3832C255.481 82.1614 255.62 81.5692 255.915 80.3478C254.935 79.8801 254.44 79.6279 253.499 79.1966C254.648 78.8872 255.223 78.7326 256.383 78.46C256.629 77.1653 256.796 76.5728 257.074 75.3885Z" fill="white"/>
<path d="M269.306 75.3157C269.647 76.4443 269.826 76.9902 270.157 78.0823C271.16 78.435 271.685 78.6476 272.718 79.1094C271.894 79.3027 271.498 79.454 270.677 79.7568C270.997 80.8126 271.176 81.3585 271.487 82.3778C270.636 81.5847 270.214 81.1515 269.407 80.3213C268.59 80.7337 268.196 80.9946 267.418 81.5527C267.709 80.5257 267.841 80.0124 268.141 79.0218C267.335 78.1915 266.95 77.7944 266.181 77.0002C267.124 77.1344 267.618 77.2377 268.601 77.5175C268.878 76.6368 269.03 76.1963 269.306 75.3157Z" fill="white"/>
<path d="M279.758 79.1222C280.181 80.1112 280.373 80.5875 280.786 81.5399C281.816 82.0058 282.326 82.2204 283.334 82.613C282.578 82.8065 282.198 82.848 281.42 82.9682C281.822 83.8838 282.032 84.3231 282.424 85.202C281.523 84.403 281.062 83.9669 280.15 83.1312C279.345 83.2516 278.909 83.2939 278.058 83.4517C278.343 82.7853 278.471 82.4523 278.729 81.7863C277.834 80.9136 277.363 80.4407 276.486 79.531C277.554 80.0333 278.074 80.2846 279.132 80.7502C279.4 80.1209 279.5 79.7882 279.758 79.1222Z" fill="white"/>
<path d="M252.52 70.7741C252.785 71.5855 252.914 72.0283 253.19 72.8766C254.252 72.5304 254.764 72.339 255.866 72.0293C254.982 72.8917 254.585 73.378 253.723 74.3142C254.115 75.2721 254.284 75.7515 254.687 76.7463C253.749 76.3504 253.288 76.1339 252.378 75.7376C251.505 76.637 251.04 77.0869 250.089 77.9132C250.473 76.7976 250.651 76.24 250.979 75.1252C250.096 74.7286 249.664 74.5117 248.828 74.0775C249.934 73.8789 250.485 73.7241 251.53 73.4152C251.943 72.2993 252.131 71.7786 252.52 70.7741Z" fill="white"/>
<path d="M265.458 68.2608C265.923 69.1797 266.005 69.6594 266.401 70.7271C267.385 70.9 267.907 71.0415 268.917 71.399C268.139 71.7413 267.741 71.9311 266.967 72.3844C267.306 73.4527 267.506 74.042 267.827 75.1475C266.988 74.3072 266.87 73.9018 265.764 73.2127C264.723 73.8171 264.255 74.1557 263.296 74.944C263.584 73.794 263.734 73.2375 264.054 72.1981C262.97 71.5826 262.433 71.2933 261.487 70.8611C262.646 70.662 263.245 70.5807 264.553 70.6017C264.951 69.6353 265.122 69.1525 265.458 68.2608Z" fill="white"/>
<path d="M275.789 70.8905C276.159 72.0822 276.332 72.7326 276.722 73.9966C277.675 74.5641 278.152 74.8478 279.105 75.4153C278.399 75.6786 278.036 75.7197 277.282 75.8023C277.65 76.8852 277.838 77.3904 278.187 78.4011C277.341 77.4333 276.95 76.9671 276.122 75.9628C275.351 76.0819 274.961 76.1234 274.183 76.3151C274.461 75.5499 274.595 75.1492 274.82 74.3847C274.018 73.38 273.617 72.8777 272.796 71.8008C273.756 72.2957 274.233 72.5794 275.203 73.1104C275.469 72.2002 275.567 71.7638 275.789 70.8905Z" fill="white"/>
<path d="M238.354 91.1569C238.772 92.2472 238.972 92.8113 239.379 93.8639C240.972 93.9585 241.748 93.9872 243.247 93.9696C242.011 94.6639 241.368 94.9735 240.039 95.5556C240.457 96.6459 240.675 97.172 241.123 98.262C239.848 97.5594 239.205 97.1893 237.908 96.4115C236.497 96.919 235.79 97.1161 234.286 97.5114C234.954 96.5972 235.276 96.1025 235.903 95.151C234.612 94.2975 233.976 93.8518 232.721 92.9224C234.404 93.3181 235.244 93.4593 236.871 93.6668C237.515 92.6773 237.808 92.1829 238.354 91.1569Z" fill="white"/>
<path d="M253.574 89.6676C254 90.737 254.218 91.2902 254.634 92.3227C255.798 92.1233 256.361 92.0053 257.394 91.8445C256.583 92.6696 256.175 93.1192 255.279 93.9453C255.666 94.9782 255.863 95.4575 256.239 96.4534C255.345 96.0196 254.844 95.7663 253.843 95.2597C252.891 96.0865 252.375 96.4633 251.327 97.2542C251.722 96.1748 251.9 95.6168 252.246 94.4639C251.177 93.921 250.637 93.6311 249.53 93.0517C250.886 92.9241 251.544 92.842 252.765 92.6418C253.082 91.4893 253.25 90.8943 253.574 89.6676Z" fill="white"/>
<path d="M265.629 87.9362C265.946 88.9304 266.113 89.4089 266.476 90.3656C267.564 90.3153 268.127 90.3084 269.247 90.3686C268.326 90.8974 267.866 91.1618 267.005 91.8007C267.357 92.7206 267.513 93.1622 267.872 94.0081C266.944 93.5389 266.503 93.2855 265.632 92.8156C264.764 93.5286 264.364 93.9031 263.564 94.6522C263.856 93.6136 264.016 93.0942 264.337 92.0552C263.511 91.5478 263.137 91.3306 262.395 90.8221C263.3 90.6262 263.824 90.5828 264.835 90.4596C265.138 89.4578 265.298 88.9383 265.629 87.9362Z" fill="white"/>
<path d="M277.808 88.7702C278.233 89.6223 278.451 90.0669 278.887 90.9561C280.059 91.3148 280.67 91.531 281.8 92.0393C280.932 92.1242 280.484 92.1668 279.592 92.3639C280.04 93.2902 280.258 93.7348 280.727 94.7355C279.688 93.8535 279.194 93.4494 278.142 92.7167C277.204 92.9515 276.703 93.1066 275.752 93.4907C276.066 92.7043 276.243 92.3295 276.539 91.5805C275.526 90.8846 275.026 90.5551 274.035 89.9334C275.238 90.1054 275.845 90.2099 277.041 90.4565C277.348 89.7447 277.507 89.4073 277.808 88.7702Z" fill="white"/>
<path d="M248.368 83.8304C248.792 84.8695 248.975 85.3894 249.409 86.4656C250.704 86.2636 251.332 86.1442 252.569 85.943C251.599 86.8496 251.128 87.3027 250.078 88.1356C250.512 89.2118 250.735 89.7685 251.17 90.8447C250.085 90.2983 249.538 90.0066 248.442 89.4231C247.352 90.2192 246.802 90.5987 245.593 91.2844C246.077 90.1971 246.285 89.6353 246.73 88.5113C245.635 87.9278 245.076 87.5988 243.969 86.9782C245.377 86.9613 246.055 86.9159 247.39 86.7508C247.795 85.5899 248.003 85.0281 248.368 83.8304Z" fill="white"/>
<path d="M262 81.5264C262.373 82.6575 262.445 83.2062 262.725 84.3018C263.623 84.2538 264.101 84.2844 265.085 84.3452C264.286 84.9415 263.91 85.276 263.152 86.0184C263.432 87.114 263.576 87.6251 263.863 88.6473C263.093 88.0708 262.856 87.8174 262.021 87.2051C261.19 87.985 260.78 88.3932 259.943 89.2464C260.247 88.0702 260.386 87.4822 260.681 86.2694C259.801 85.6943 259.334 85.4071 258.399 84.8327C259.531 84.6352 260.089 84.5549 261.159 84.4315C261.491 83.2548 261.658 82.6665 262 81.5264Z" fill="white"/>
<path d="M273.197 82.6144C273.575 83.6118 273.773 84.0919 274.158 85.015C275.279 85.3354 275.874 85.5138 276.977 85.8715C276.093 86.0678 275.632 86.1476 274.752 86.4551C275.137 87.3782 275.324 87.8213 275.727 88.707C274.753 88.0137 274.286 87.6854 273.33 86.9548C272.404 87.3 271.957 87.528 271.046 88.0215C271.383 87.1267 271.537 86.6796 271.867 85.8591C270.939 85.1282 270.49 84.7625 269.619 84.0308C270.696 84.2033 271.241 84.3081 272.379 84.5912C272.738 83.7704 272.874 83.3605 273.197 82.6144Z" fill="white"/>
<path d="M217.163 130.618C217.894 127.305 218.659 124.026 219.48 120.746C220.272 117.467 221.127 114.222 221.976 110.941C223.651 104.416 225.698 98.0961 227.684 91.7416C229.669 85.3872 231.62 78.998 233.633 72.6429L236.653 63.1104L239.707 53.6125L237.115 63.3485L234.495 73.085C232.757 79.5759 230.958 86.0327 229.187 92.4888C227.388 98.9455 225.712 105.47 223.637 111.791C222.602 114.97 221.562 118.112 220.493 121.256C219.396 124.4 218.294 127.509 217.163 130.618Z" fill="white"/>
<path d="M29.079 209L33.7856 223.594H49.1242L36.7314 232.6L41.4718 247.16L29.079 238.153L16.6524 247.16L21.3928 232.6L9 223.594H24.3386L29.079 209Z" fill="#004F74"/>
<path d="M307.079 198L311.786 212.594H327.124L314.731 221.6L319.472 236.16L307.079 227.153L294.652 236.16L299.393 221.6L287 212.594H302.339L307.079 198Z" fill="#004F74"/>
<path fill-rule="evenodd" clip-rule="evenodd" d="M104.093 195.891C100.673 201.187 87.0809 222.141 63.4035 258.75C57.0311 268.583 43.3801 287.722 36.7446 296.618C30.8106 304.578 15.3472 295.213 8.56559 289.214C3.36242 284.62 -6.60545 299.778 6.43171 308.528C19.4689 317.278 31.5706 318.186 38.2354 308.177C49.9279 290.619 58.7265 277.83 70.1559 260.038C85.0347 236.86 99.9134 213.712 115.26 190.857L111.547 198.846C115.201 201.89 119.177 199.519 122.568 196.71C128.122 192.086 130.022 185.326 128.209 176.43C126.923 169.962 120.288 169.202 115.815 172.83C120.229 167.738 128.414 169.26 130.285 177.132C132.682 187.258 129.992 194.925 122.802 200.251L139.814 224.043C144.579 230.715 148.262 221.702 152.617 222.258C152.237 220.941 151.536 219.682 150.63 218.629C155.131 221.497 154.079 226.033 156.593 230.13C158.785 233.7 162.498 237.329 166.152 240.489C164.807 235.573 163.579 230.656 162.439 225.711C160.101 215.468 148.32 211.605 149.665 191.501C150.484 179.122 150.776 173.035 145.631 159.808C151.828 171.718 152.501 179.327 151.711 192.057C150.542 210.991 162.878 213.859 166.181 226.823C169.718 240.782 176.002 253.336 182.053 266.242C183.135 268.583 182.141 270.222 184.246 274.348C186.555 278.855 186.555 285.966 186.584 290.999C186.613 293.926 187.958 305.046 192.84 301.885C196.347 299.632 200.352 298.257 204.503 297.906C200.644 298.754 197.107 300.686 194.301 303.407C196.435 307.387 200.294 318.098 208.069 312.069C214.003 307.475 206.871 298.11 209.735 296.12C211.577 294.833 210.495 290.502 210.145 288.6C209.092 282.893 207.046 272.358 207.485 269.227C207.689 267.646 207.28 266.066 206.315 264.808C201.668 270.485 194.331 273.47 186.906 272.446C194.477 272.124 201.288 268.027 205.146 261.706C204.737 260.038 203.1 250.439 204.883 250.585C212.308 251.112 230.694 251.727 234.699 255.999C241.831 263.637 244.871 278.796 253.553 280.698C256.535 281.371 259.487 280.64 260.306 277.772C261.679 273.06 261.884 268.085 260.89 263.257C263.053 268.905 263.258 275.109 261.504 280.903C266.152 285.878 267.292 281.986 266.941 277.479C266.123 266.827 262.498 250.322 256.067 227.906C253.787 219.946 249.373 228.959 246.07 227.174C242.942 225.506 239.844 225.184 236.716 226.238C242.124 233.202 241.919 243.211 235.868 250C242.562 240.226 236.453 222.843 225.754 224.745C229.642 230.13 231.893 236.597 232.127 243.357C228.151 225.213 216.722 216.083 198.949 216.463C202.164 224.452 203.275 237.738 202.194 245.201C201.668 233.554 197.809 208.767 179.569 202.768C183.223 203.236 186.701 204.523 189.741 206.513C191.027 203.06 191.466 201.304 188.25 199.607C184.743 197.734 180.183 196.622 174.541 196.3C178.984 195.92 183.486 196.359 187.753 197.646C188.718 193.491 185.357 194.252 185.97 190.769C189.39 170.87 166.765 163.173 153.933 178.42C165.45 159.486 192.021 169.962 189.683 190.447C193.834 189.072 193.687 184.243 194.038 180.644C194.418 176.781 195.149 168.967 195.032 161.33C194.564 135.226 164.69 135.811 147.97 146.902C160.13 135.811 181.147 132.27 193.512 144.912C197.049 139.118 190.94 136.66 190.063 130.544C188.952 122.789 184.596 119.013 183.573 114.712C178.283 127.793 168.461 139.908 153.67 135.84C172.758 137.391 177.581 121.881 182.901 106.43C183.486 104.791 184.304 104.674 185.707 104.498C191.583 103.825 199.826 100.431 204.941 96.3922C210.086 92.3245 208.566 90.1882 210.378 84.5988C213.535 74.8245 206.228 68.5912 201.112 61.3045C182.287 34.4984 161.796 21.7393 129.203 28.2359C125.637 28.9382 126.66 29.2309 127.128 25.7485C128.443 15.5352 123.357 5.46836 114.237 0.493443C111.08 -1.20388 112.074 2.01518 109.326 2.10297C106.374 2.19077 104.035 2.39561 100.966 2.89311C97.5457 3.44913 99.0072 -1.32094 92.7517 5.02939C87.7824 10.0628 84.3039 16.4424 82.6962 23.378C81.9362 26.6556 84.2454 27.358 83.0177 29.5821C80.4746 34.2643 82.6962 40.322 84.8008 44.858C86.847 49.3061 108.975 42.9265 116.166 40.4683C120.492 38.9759 117.832 29.465 116.604 26.3045C118.212 29.2309 121.662 39.4734 117.335 41.5219C107.806 45.9993 97.3703 48.3404 86.8763 49.0135C79.7146 54.6322 76.7622 59.8412 71.0913 66.0453C53.4064 85.3889 67.9344 105.318 91.1733 107.513C83.5731 108.039 76.0314 106.166 69.6006 102.274C72.4944 107.688 79.6561 130.134 80.8254 137.099C84.7131 133.294 90.0625 131.246 95.6164 131.568C89.3901 132.241 80.153 137.713 81.9946 145C83.8947 152.521 90.5886 157.057 95.6456 162.676C103.129 157.437 114.5 159.749 119.674 167.299C114.5 161.271 105.76 160.071 99.2119 164.197C91.3194 169.172 93.5995 183.775 100.673 189.16C102.778 190.769 105.964 193.023 104.093 195.891ZM176.207 105.757C172.407 108.361 167.964 109.883 163.345 110.117C166.035 109.503 168.665 108.537 171.15 107.279C168.841 107.835 166.473 108.186 164.105 108.273C154.664 108.712 163.17 117.492 169.455 113.131C169.016 117.638 167.145 121.881 164.105 125.188C168.958 122.174 172.319 117.228 173.342 111.58C173.372 118.34 170.156 124.632 164.778 128.554C171.033 125.803 175.681 118.984 178.75 108.039C179.949 103.796 179.306 103.62 176.207 105.757ZM102.778 170.577C105.555 170.109 108.274 171.162 110.027 173.152C108.858 169.962 106.461 167.68 102.223 168.587C103.333 167.153 104.853 166.1 106.578 165.485C103.889 165.924 101.433 167.27 99.6211 169.348C100.79 167.124 102.749 165.485 105.029 164.695C95.4995 166.421 94.9149 177.454 101.287 185.034C99.738 180.819 101.317 176.137 105.058 173.708C101.901 177.747 102.164 183.044 107.397 184.624C106.11 185.004 104.737 184.77 103.655 183.98C105.058 185.56 107.397 185.882 109.18 184.741C107.835 186.028 105.906 186.38 104.269 185.794C106.812 187.697 110.554 185.911 111.255 182.283C112.132 177.835 109.735 171.016 102.778 170.577ZM90.5302 139.791C92.3425 137.391 94.8856 135.723 97.7211 134.992C94.4764 134.992 90.7055 136.367 87.4901 139.615C85.1516 141.986 84.5377 144.854 87.1101 146.112C86.1747 145.263 85.7947 143.976 86.1162 142.747C86.0578 143.654 86.4962 144.503 87.2855 144.971C86.7885 144.327 86.5839 143.478 86.7593 142.688C91.0563 144.093 93.8625 139.294 100.79 140.552C91.6409 141.196 88.3378 153.048 95.7918 158.374C99.0072 155.184 103.187 153.311 107.601 152.96C103.158 152.404 99.2703 153.223 95.938 155.447C99.1534 151.731 104.181 150.121 108.946 151.292C105.584 149.741 101.755 149.536 98.2765 150.707C113.915 139.381 99.3288 132.299 90.5302 139.791ZM215.64 229.398C218.037 230.247 220.288 231.447 222.334 232.968C218.563 231.212 214.412 230.334 210.262 230.422C214.471 231.008 218.505 232.412 222.1 234.607C212.132 231.125 205.818 233.466 205.701 229.661C205.614 226.589 204.883 222.843 203.685 220.472C205.643 223.194 206.812 226.413 207.046 229.778C207.251 227.203 206.988 224.569 206.257 222.082C207.192 223.926 207.835 225.945 208.098 227.993C209.472 226.238 212.571 224.54 214.822 224.423C218.329 224.248 218.037 228.374 215.64 229.398ZM189.273 227.057C187.227 226.94 185.444 225.33 185.269 223.106C184.655 225.067 185.59 227.174 187.432 228.052C183.34 227.759 181.79 220.794 185.824 216.873C183.34 214.327 180.504 212.161 177.435 210.464C181.03 211.605 184.421 213.361 187.461 215.615C183.72 211.254 178.633 208.269 172.992 207.099C194.535 206.543 198.394 237.475 196.435 253.395C196.201 248.186 195.266 227.437 189.273 227.057ZM163.433 177.074C159.954 178.595 157.119 181.141 155.248 184.273C155.57 183.102 155.979 182.049 156.505 181.141C160.042 174.762 168.227 173.035 174.541 175.23C186.847 179.503 171.472 179.298 164.865 188.077C168.753 187.023 172.875 187.287 176.587 188.838C168.315 187.258 160.305 192.437 158.288 200.602C160.042 196.564 163.404 193.462 167.555 192.028C170.653 190.974 173.956 190.916 177.026 191.794C167.292 190.623 158.318 199.168 159.984 209.615C151.302 200.953 154.196 184.712 163.433 177.074ZM177.289 143.273C179.481 145.644 180.592 148.863 180.27 152.141C179.89 155.828 177.727 159.105 174.453 160.891C176.879 158.754 178.283 155.652 178.283 152.404C178.283 152.345 178.283 152.287 178.283 152.228C175.213 159.632 160.247 162.822 155.307 168.997C165.947 162.061 179.861 164.022 188.221 173.152C184.918 167.885 179.627 164.08 173.43 162.734C178.721 162.939 183.778 165.017 187.695 168.616C185.883 165.544 183.135 163.085 179.89 161.622C185.093 160.247 191.407 154.365 186.877 148.921C184.567 146.171 181.381 144.298 177.289 143.273ZM181.556 85.9157C182.58 84.3354 183.836 82.9307 185.269 81.7309C184.1 82.404 182.989 83.1356 181.936 84.0135C175.33 89.3981 185.269 86.7643 187.666 99.2309C187.461 95.1631 186.058 91.2125 183.632 87.8764C186.292 90.6272 188.192 94.0218 189.127 97.7384C189.127 94.6071 188.397 91.5051 186.993 88.6958C191.787 91.3881 197.458 92.0319 202.749 90.4809C199.417 91.9733 195.734 92.4708 192.109 91.9441C199.183 94.6364 208.04 92.8805 203.538 86.4717C202.048 84.3354 199.475 82.3162 197.4 80.9407C200.498 81.2626 203.538 79.9458 205.409 77.4583C205.789 79.2434 205.877 81.0578 205.701 82.8722C206.695 80.8822 207.075 78.6289 206.812 76.434C207.631 79.2434 207.514 82.2576 206.461 84.9499C209.034 80.7944 209.122 77.0486 206.52 73.2735C202.457 67.4207 198.978 78.424 194.477 78.863C190.209 79.2434 185.269 82.3162 181.556 85.9157ZM140.428 83.5745C148.642 82.4917 155.891 77.6339 160.013 70.4056C159.107 74.7367 156.768 78.5118 153.524 81.2919C163.842 76.0536 162.585 62.9432 176.382 52.6422C175.944 58.5536 177.581 64.3479 180.913 69.0887C179.189 65.2844 178.341 61.1289 178.429 56.9148C179.101 61.6556 181.001 66.133 183.953 69.9081C182.287 66.2501 181.293 62.3287 181.03 58.3488C183.836 60.807 195.646 62.8847 188.777 55.4809C180.416 46.4968 166.152 46.7016 156.359 53.3153C160.51 48.8672 166.093 46.3504 171.852 45.97C163.988 44.975 155.599 48.3404 147.707 57.1782C148.379 50.4767 146.42 43.7752 142.211 38.5369C146.683 48.9842 145.193 61.0411 138.294 70.0837C143.234 61.3045 142.913 50.9157 138.206 42.6632C140.282 47.4625 140.779 52.9056 139.405 58.2317C136.219 70.4641 125.9 70.6397 126.339 81.1456C124 80.531 122.012 79.0678 120.697 77.0779C121.808 80.1506 124.351 82.4625 127.479 83.3111C123.211 82.8136 119.528 80.0043 117.949 75.9951C122.48 92.5879 139.785 79.536 143.497 93.3488C143.468 89.5151 141.246 85.9742 137.651 84.3354C140.896 85.184 143.614 87.4374 145.047 90.4809C144.403 87.7008 142.737 85.2426 140.428 83.5745ZM105.087 126.3C105.175 123.198 104.24 120.126 102.457 117.55C105.76 128.466 98.3642 125.832 92.0502 126.739C82.0823 128.202 91.7871 121.384 95.3826 115.385C90.6471 116.819 84.8301 115.59 81.3808 113.248C87.1686 114.331 93.1317 114.243 98.8903 112.985C93.2487 113.102 87.6363 112.341 82.2577 110.79C88.5424 111.493 94.8856 111.405 101.141 110.498C102.895 115.619 107.104 120.828 105.087 126.3ZM85.327 77.312C89.8286 79.8872 93.161 84.1891 94.4179 89.3688C91.8456 83.8379 86.9639 79.8287 81.2054 78.3362C74.1022 76.4926 74.453 71.108 77.5807 64.465C68.0221 76.1707 65.5082 85.4767 70.0098 92.4416C68.4313 87.9934 68.9867 82.9307 71.8514 78.863C69.0451 90.6272 76.4699 99.8747 88.2501 103.094C84.8885 99.8747 82.2869 95.924 80.6792 91.5344C84.9762 98.3237 98.9196 108.069 101.404 99.9917C102.72 95.7484 104.883 91.7978 107.777 88.4031C103.83 91.4173 100.673 95.368 98.5688 99.9332C99.7088 94.2559 102.632 89.0762 106.929 85.2133C103.012 87.2033 99.9134 90.5101 98.1595 94.5486C98.6565 85.5645 92.3717 79.0093 85.327 77.312ZM96.1133 10.4433C97.3995 13.2526 100.06 15.3011 103.246 15.7401C100.235 14.6866 98.0134 12.1113 97.3411 9.00932C98.3641 10.8822 99.8842 12.4332 101.755 13.4868C97.838 10.0336 100.176 5.40983 106.257 4.82455C114.734 4.03441 124 9.06785 122.188 20.7735C122.158 19.3103 121.866 17.8471 121.252 16.501C121.457 17.9056 121.428 19.3689 121.194 20.7735C121.106 19.6615 120.814 18.5495 120.258 17.5545C118.651 22.705 115.932 24.2267 111.197 25.7192C108.157 26.6849 105.058 27.4165 101.93 27.9725C99.8842 28.3237 97.838 27.475 99.3288 25.3388C96.4641 25.9826 93.4825 25.9533 90.6471 25.2217C92.7225 25.2217 94.7979 24.929 96.7857 24.373C94.2425 24.4901 91.6994 24.4316 89.1563 24.1974C100.352 23.8755 111.284 20.8321 121.048 15.3011C103.333 21.154 96.8441 15.2426 96.1133 10.4433ZM58.025 314.411H71.7344C72.2606 314.411 72.6991 314.85 72.6991 315.376V319.034C72.6991 319.561 72.2898 320 71.7344 320H58.025C57.4988 320 57.0603 319.59 57.0603 319.034V315.376C57.0896 314.85 57.528 314.411 58.025 314.411ZM121.369 47.1991C120.609 52.057 118.3 56.5344 114.792 59.9583C112.541 62.1531 109.472 63.0603 114.5 63.0018C119.44 62.9725 124.058 60.3095 126.572 56.0076C128.852 52.0862 124.935 57.0904 122.86 58.4951C117.423 62.1824 121.983 57.5879 123.386 54.5444C124.906 51.2376 125.666 47.8429 124.468 44.302C122.655 38.9466 121.691 45.0921 121.369 47.1991ZM120.112 29.8747C118.738 27.3287 122.685 26.2459 124.175 28.9968C126.075 32.4207 125.169 36.664 122.188 39.0344C120.054 40.7317 121.165 37.7175 121.954 36.6347C125.374 32.0402 121.369 32.2451 120.112 29.8747ZM107.104 48.6623C108.04 48.6916 107.338 49.8914 106.987 50.5645C104.824 54.9834 99.0365 55.3931 102.807 55.4516C103.83 55.4809 104.59 55.1297 105.204 55.1297C105.906 55.1004 106.227 55.3638 106.9 55.0419C107.63 54.6615 107.514 56.1247 106.052 56.8563C105 57.3538 103.363 57.8513 106.257 57.6757C114.412 57.266 117.978 43.6581 114.968 44.4483C110.641 45.5603 108.186 46.4382 107.017 46.7309C105.643 47.0528 106.607 47.5503 105.994 48.2526C105.438 48.8672 105.994 48.6331 107.104 48.6623ZM114.354 28.0896C110.174 29.3772 107.455 31.3672 105.204 35.5227C105.204 35.5227 105.263 34.2058 105.409 31.5135C105.409 31.5135 104.561 33.679 102.895 38.0394C102.895 38.0394 103.421 35.6105 104.503 30.7526L99.7965 42.429C106.403 39.7953 109.677 38.4784 109.677 38.4784L103.83 41.4633C107.455 40.5561 111.08 39.4734 114.646 38.3613C114.968 38.2735 115.26 38.0979 115.464 37.8346C116.488 36.6347 115.991 33.8254 115.669 32.45C115.348 30.9867 114.88 29.5528 114.354 28.0896ZM102.077 31.2209C101.667 31.2794 101.287 31.3379 100.878 31.3964L96.1426 43.1606C96.5518 43.0729 96.961 43.0143 97.3411 42.9265L102.077 31.2209ZM99.7088 31.572C97.341 31.8354 94.9733 31.9525 92.6056 31.8939C94.2425 32.2744 95.938 32.4499 97.6041 32.4207C93.8625 33.2986 92.4594 32.2744 90.5009 37.1908L87.9578 43.5118C90.7056 45.0043 93.4533 40.3806 94.301 38.3613C94.301 38.3613 94.0087 39.8538 93.3948 42.8095C93.3948 42.8095 94.6518 39.9123 97.2241 34.1473C97.2241 34.1473 96.4641 37.22 94.9733 43.3948L99.7088 31.572ZM90.4132 31.8061C90.0332 31.7769 89.6824 31.7476 89.3317 31.7183L85.707 40.761C85.9116 41.1707 86.1162 41.5511 86.3793 41.9315L90.4132 31.8061ZM84.8008 32.567C84.3039 34.118 84.3624 35.9617 84.6254 37.3956C84.7424 38.0394 84.9178 38.7125 85.1224 39.3563L88.2501 31.6013C86.7301 34.4399 85.9701 35.8446 85.9701 35.8446C86.847 33.3864 87.2855 32.1866 87.2855 32.1866C86.4378 33.5035 86.0285 34.1765 86.0285 34.1765C86.1455 33.4157 85.2977 31.0745 84.8008 32.567ZM114.997 26.7727C115.991 29.5235 119.323 38.0687 114.968 39.4148C102.193 43.3362 93.8333 45.1506 88.6301 44.7994C84.4501 44.5068 81.2346 34.0887 85.0347 30.0795C98.6272 32.4792 108.829 28.6163 114.997 26.7727ZM109.94 64.0846C127.303 71.9859 140.75 49.7451 127.069 40.4391C137.943 51.7643 124.672 68.6205 109.94 64.0846ZM95.0025 49.628C97.9841 57.822 102.457 60.6606 106.783 60.1924C112.395 59.5779 117.774 53.3446 119.206 46.0578C118.621 54.3396 113.067 61.0703 106.987 61.6849C102.223 62.1531 96.8734 58.817 95.0025 49.628ZM116.488 162.207C116.78 154.716 114.149 149.273 114.5 141.576C114.938 131.626 110.349 130.251 109.443 122.964C108.332 114.009 101.697 110.205 104.941 99.6698C103.45 110.878 110.291 113.512 111.752 122.701C112.98 130.28 116.809 132.329 115.961 142.396C115.377 149.741 117.803 155.389 116.488 162.207ZM155.804 131.86C138.353 156.238 135.137 162.617 129.115 169.992C144.17 146.727 152.91 133.236 155.336 129.461C157.908 125.481 156.242 115.911 152.734 121.384C138.031 144.444 128.063 160.949 126.163 163.29C137.68 143.303 149.256 123.696 151.916 119.072C154.868 114.039 162.498 122.467 155.804 131.86ZM111.869 169.348C117.218 179.327 114.5 194.427 104.561 189.16C115.64 192.057 114.032 175.786 111.869 169.348ZM173.05 80.1506C174.073 80.7652 175.184 81.3504 176.032 81.7309C181.176 78.8045 186.701 76.0829 193.044 76.1999C188.163 77.0193 183.72 79.536 180.153 81.7894C176.558 84.0427 173.226 87.5252 174.512 88.9884C179.978 91.7685 183.836 97.3287 183.486 102.83C181.089 82.9892 133.968 85.7401 149.197 119.16C137.066 102.274 151.507 83.7501 170.887 87.6715C171.793 84.0427 171.852 83.3697 171.15 79.7116C170.273 75.1172 170.712 70.3471 172.407 65.9575C171.355 70.669 171.589 75.5561 173.05 80.1506Z" fill="#004F74"/>
</svg>
