<svg width="23" height="15" viewBox="0 0 23 15" fill="none" xmlns="http://www.w3.org/2000/svg">
<path d="M23 7.1877C23 7.01276 22.8928 6.78028 22.7839 6.66734L16.6507 0.236083C16.3643 -0.0560301 15.9003 -0.0898067 15.5666 0.206528C15.2682 0.471728 15.2607 0.988657 15.5367 1.27657L20.46 6.43093H0.766611C0.343055 6.43093 0 6.76975 0 7.18746C0 7.60545 0.343336 7.94399 0.766611 7.94399H20.46L15.5367 13.0984C15.2607 13.3862 15.2802 13.8905 15.5666 14.1681C15.8688 14.4613 16.3688 14.4352 16.6507 14.1386L22.7839 7.70759C22.9642 7.53316 22.9971 7.36507 23 7.18748V7.1877Z" fill="#002868"/>
</svg>
