<svg width="50" height="50" viewBox="0 0 50 50" fill="none" xmlns="http://www.w3.org/2000/svg">
<circle cx="25" cy="25" r="25" fill="#F3F6F8"/>
<path d="M34.6901 34.6975L34.7597 34.7694C34.4945 35.0256 34.184 35.1814 33.8089 35.1905C33.7796 35.1913 33.7503 35.1921 33.721 35.1929C33.628 35.1954 33.5349 35.198 33.442 35.198C27.8146 35.1984 22.1866 35.1989 16.5586 35.1964L34.6901 34.6975ZM34.6901 34.6975C34.4395 34.9397 34.1519 35.0822 33.8065 35.0906L33.8064 35.0906C33.7765 35.0913 33.7468 35.0921 33.7173 35.0929C33.6246 35.0955 33.5334 35.098 33.442 35.098H33.4316C27.8077 35.0984 22.1832 35.0989 16.5587 35.0964H16.5586L16.5371 35.0964C16.3203 35.0964 16.1124 35.0965 15.9219 35.048C15.2914 34.8874 14.9071 34.3638 14.9062 33.6565C14.9042 31.8026 14.9045 29.9485 14.9048 28.0943C14.9049 27.4111 14.905 26.728 14.905 26.0448V14.9139H35.0886C35.0891 14.9225 35.0896 14.931 35.09 14.9394C35.0944 15.0182 35.0983 15.0881 35.0983 15.1595C35.0985 16.8137 35.0985 18.4679 35.0985 20.1221C35.0986 24.5888 35.0986 29.0555 35.102 33.5222C35.1025 33.986 35.0157 34.3825 34.6902 34.6975L34.6901 34.6975ZM13.9534 13.8531H13.8533L13.8534 13.9532L13.8536 14.3204C13.8536 14.3204 13.8536 14.3204 13.8536 14.3204C13.8536 16.1617 13.8536 18.0031 13.8535 19.8445C13.8534 24.4481 13.8534 29.0519 13.8539 33.6557C13.8541 35.0993 14.9065 36.1455 16.3558 36.1457C22.1071 36.1464 27.8589 36.1462 33.6105 36.1457C34.3555 36.1456 34.9907 35.8904 35.44 35.4434C35.8893 34.9964 36.146 34.3643 36.1461 33.6228C36.1465 28.7974 36.1464 23.9719 36.1464 19.1464C36.1463 17.5379 36.1463 15.9294 36.1463 14.321V13.9531V13.8531H36.0463H13.9534Z" fill="#01247E" stroke="#01247E" stroke-width="0.2"/>
<path d="M35.4651 14.5354H14.5349V32.5587H15.1163H34.5688H35.4651V14.5354Z" fill="#01247E"/>
<path d="M29.9746 22.4548L29.9745 22.4548C29.6521 22.8212 29.3151 23.1758 28.9795 23.5288C28.8397 23.6758 28.7001 23.8226 28.562 23.9699C27.1396 25.4869 25.7169 27.0036 24.2932 28.5196L24.2932 28.5196C24.1822 28.6378 24.0869 28.7322 23.9992 28.7972C23.9107 28.8628 23.8205 28.9056 23.7204 28.9067C23.6207 28.9077 23.5289 28.867 23.4378 28.8038C23.3472 28.7411 23.2476 28.6493 23.1308 28.534L23.1307 28.534C22.8309 28.2378 22.5312 27.9416 22.2315 27.6453C21.4952 26.9175 20.7589 26.1897 20.0205 25.4642C19.9012 25.3469 19.8445 25.1967 19.8333 25.0581C19.8224 24.9226 19.8542 24.7835 19.9316 24.6925L19.9336 24.6902L19.9336 24.6903C20.0014 24.6154 20.1302 24.547 20.2775 24.5323C20.4305 24.5169 20.607 24.559 20.7624 24.7111C21.6686 25.598 22.572 26.487 23.473 27.3788L29.9746 22.4548ZM29.9746 22.4548C30.0753 22.3401 30.1447 22.2033 30.1511 22.0608C30.1577 21.9137 30.0965 21.7738 29.9616 21.6635C29.8104 21.5397 29.6498 21.5165 29.5024 21.5565C29.3611 21.5949 29.2397 21.6889 29.149 21.7862C28.3074 22.6892 27.4622 23.5889 26.6169 24.4887C26.3886 24.7316 26.1603 24.9746 25.9321 25.2177M29.9746 22.4548L25.9321 25.2177M15.5501 17.1147C15.5627 16.9144 15.7389 16.7734 15.8497 16.7686L15.5501 17.1147ZM15.5501 17.1147C15.5359 17.3451 15.7161 17.4998 15.8497 17.5291H34.2279C34.4679 17.5291 34.6066 17.2729 34.6066 17.1396L15.5501 17.1147ZM25.9321 25.2177C25.3182 25.8713 24.704 26.5247 24.0568 27.2131M25.9321 25.2177L24.0568 27.2131M24.0568 27.2131C23.9293 27.3486 23.8006 27.4855 23.6704 27.624M24.0568 27.2131L23.6704 27.624M23.6704 27.624C23.6627 27.6136 23.6551 27.6033 23.6477 27.5931C23.6333 27.5736 23.6193 27.5544 23.605 27.5353C23.5636 27.4799 23.5219 27.4271 23.4731 27.3789L23.6704 27.624ZM34.2333 16.6687L34.2333 16.6686H34.2279H15.8497V16.6685L15.8453 16.6687C15.756 16.6726 15.6618 16.7266 15.5915 16.7985C15.5186 16.8731 15.4584 16.9801 15.4503 17.1085L15.4503 17.1086C15.4325 17.3973 15.6561 17.589 15.8283 17.6268L15.8389 17.6291H15.8497H34.2279C34.3867 17.6291 34.5077 17.5437 34.5853 17.4469C34.6609 17.3526 34.7066 17.2338 34.7066 17.1396C34.7066 17.054 34.6659 16.9431 34.5918 16.8522C34.5149 16.7581 34.3956 16.6776 34.2333 16.6687Z" fill="white" stroke="white" stroke-width="0.2"/>
</svg>
