<svg width="36" height="36" viewBox="0 0 36 36" fill="none" xmlns="http://www.w3.org/2000/svg">
<mask id="mask0_31_8511" style="mask-type:alpha" maskUnits="userSpaceOnUse" x="0" y="0" width="36" height="36">
<rect width="36" height="36" fill="#C4C4C4"/>
</mask>
<g mask="url(#mask0_31_8511)">
<path d="M32.7968 7H3.20391C1.98865 7 1 7.94474 1 9.10603V26.894C1 28.0553 1.98892 29 3.20391 29H32.7961C34.0113 29 35 28.0553 35 26.894V9.10603C35.0003 7.94448 34.0113 7 32.7964 7H32.7968ZM5.36827 12.6357H9.4718V15.2304H5.36827V12.6357ZM5.36827 17.8254H27.6891V19.2005H5.36827V17.8254ZM25.4385 25.8138C24.1977 25.8138 23.1875 24.8489 23.1875 23.663C23.1875 22.4773 24.1971 21.5122 25.4385 21.5122C25.8894 21.5122 26.3095 21.641 26.6622 21.8603C26.2142 22.3402 25.9393 22.971 25.9393 23.663C25.9393 24.3549 26.2141 24.9855 26.6622 25.4657C26.3094 25.685 25.8891 25.8138 25.4385 25.8138V25.8138ZM28.7795 25.8138C28.3286 25.8138 27.9085 25.685 27.5563 25.4656C27.4737 25.4141 27.3952 25.3582 27.3202 25.2974C27.2455 25.2357 27.1752 25.1693 27.1091 25.0994C26.7498 24.7181 26.529 24.2153 26.529 23.6629C26.529 23.1108 26.7498 22.6078 27.1091 22.2264C27.1752 22.1563 27.2455 22.0896 27.3205 22.0285C27.3947 21.9676 27.4737 21.9113 27.5563 21.8602C27.9085 21.6409 28.3286 21.5121 28.7795 21.5121C30.0203 21.5121 31.0305 22.4769 31.0305 23.6629C31.0305 24.8488 30.0203 25.8137 28.7795 25.8137V25.8138Z" fill="#01247E"/>
</g>
</svg>
