<svg width="40" height="40" viewBox="0 0 40 40" fill="none" xmlns="http://www.w3.org/2000/svg">
<mask id="mask0_31_8502" style="mask-type:alpha" maskUnits="userSpaceOnUse" x="0" y="0" width="40" height="40">
<rect width="40" height="40" fill="#C4C4C4"/>
</mask>
<g mask="url(#mask0_31_8502)">
<path d="M15.206 5.69295L12.5205 5.46574C12.2136 5.42796 11.9452 5.23853 11.8301 4.97329L10.7942 2.5493C10.4872 1.86768 9.52813 1.86768 9.22114 2.5493L8.18521 4.97329C8.07013 5.27632 7.80144 5.46574 7.4562 5.46574L4.7707 5.69295C4.04169 5.76878 3.73477 6.67763 4.27187 7.17007L6.30523 8.91245C6.53538 9.10188 6.65045 9.44269 6.57392 9.7457L5.96001 12.3211C5.88347 13.0027 6.65072 13.5709 7.30293 13.1921L9.60498 11.8286C9.87367 11.6772 10.2189 11.6772 10.4873 11.8286L12.7894 13.1921C13.4415 13.571 14.2088 13.0027 14.0554 12.283L13.4415 9.70769C13.3647 9.40466 13.4798 9.10163 13.7102 8.87444L15.7436 7.13206C16.2804 6.67764 15.9737 5.76884 15.2062 5.69302L15.206 5.69295Z" fill="#01247E"/>
<path d="M20.1168 8.87437C20.347 9.06379 20.4621 9.4046 20.3855 9.70761L19.7716 12.283C19.5797 13.0027 20.3855 13.5709 21.0377 13.192L23.3397 11.8285C23.6084 11.6772 23.9536 11.6772 24.2221 11.8285L26.5241 13.192C27.1763 13.5709 27.9436 13.0026 27.7902 12.283L27.1763 9.70761C27.0995 9.40458 27.2145 9.10155 27.4449 8.87437L29.4783 7.13199C30.0537 6.63953 29.747 5.73068 28.9795 5.65487L26.294 5.42766C25.987 5.38988 25.7186 5.20045 25.565 4.9352L24.529 2.51121C24.2221 1.8296 23.263 1.8296 22.956 2.51121L21.9201 4.9352C21.805 5.23824 21.5363 5.42766 21.1911 5.42766L18.5056 5.65487C17.7766 5.73069 17.4696 6.63954 18.0067 7.13199L20.1168 8.87437Z" fill="#01247E"/>
<path d="M15.206 18.9869L12.5205 18.7597C12.2136 18.7219 11.9452 18.5325 11.8301 18.2672L10.7942 15.8432C10.4872 15.1616 9.52813 15.1616 9.22114 15.8432L8.18521 18.2672C8.07013 18.5703 7.80145 18.7597 7.4562 18.7597L4.7707 18.9869C4.04169 19.0627 3.73477 19.9716 4.27187 20.464L6.30523 22.2064C6.53538 22.3958 6.65045 22.7366 6.57392 23.0396L5.96001 25.615C5.76813 26.3347 6.57392 26.9027 7.22606 26.5241L9.52811 25.1606C9.7968 25.0092 10.142 25.0092 10.4104 25.1606L12.7125 26.5241C13.3647 26.9029 14.1319 26.3346 13.9785 25.615L13.3646 23.0396C13.2878 22.7366 13.4029 22.4336 13.6333 22.2064L15.6667 20.464C16.2803 19.9718 15.9736 19.0627 15.2061 18.9869H15.206Z" fill="#01247E"/>
<path d="M35.8848 26.9028C35.8848 25.8801 35.0408 25.0849 34.0434 25.0849C33.3912 25.0849 32.8155 25.4257 32.4703 25.9559V25.9181C32.4703 24.8955 31.6263 24.1002 30.6289 24.1002C29.9767 24.1002 29.401 24.441 29.0558 24.9713V24.9335C29.0558 23.9108 28.2118 23.1156 27.2144 23.1156C26.5622 23.1156 25.9865 23.4564 25.6413 23.9866V17.7369C25.6413 17.2444 25.4494 16.79 25.1042 16.4492C24.759 16.1084 24.2984 15.9189 23.7999 15.9189C22.7639 15.9189 21.9584 16.7522 21.9584 17.7369V29.0615C21.9584 29.1751 21.8816 29.2509 21.8051 29.2887C21.69 29.3265 21.6132 29.3265 21.5364 29.2509L19.6564 27.395C19.0042 26.7889 18.0068 26.6753 17.2778 27.1677C16.8558 27.4708 16.5488 27.9252 16.472 28.4554C16.3952 28.9857 16.5488 29.5159 16.8941 29.8947L21.5746 35.5002C22.9175 37.0909 24.874 38 26.9456 38H29.8613C31.5109 38 33.0456 37.3561 34.1966 36.2198C35.3477 35.0835 35.9998 33.5687 35.9998 31.9399L35.8848 26.9028Z" fill="#01247E"/>
</g>
</svg>
