<svg width="86" height="86" viewBox="0 0 86 86" fill="none" xmlns="http://www.w3.org/2000/svg">
<circle cx="43" cy="43" r="43" fill="#F3F6F8"/>
<path d="M59.1512 36.2284C58.3783 36.6584 58.5996 36.6479 58.3783 36.6584C57.971 36.6767 56.4885 36.8303 56.7466 36.6584C57.0036 36.4858 57.1924 36.245 57.2402 36.0566C57.2569 35.9942 57.2832 35.8475 57.2402 35.7992C57.0299 35.5581 56.2842 35.7044 55.9742 35.6278C55.7294 35.5666 55.2763 35.3275 55.0278 35.2833C54.8163 35.246 54.3802 35.2448 54.1691 35.2833C53.5575 35.3948 52.1074 36.0562 52.3655 37.0017C52.6237 37.9471 52.8531 38.3188 53.2567 38.4623C53.4719 38.5389 53.9575 38.3755 54.1694 38.4623C54.394 38.5551 54.6744 38.9875 54.8564 39.1496C54.9593 39.2408 55.1559 39.4475 55.2864 39.4933C55.3666 39.5221 55.5697 39.4333 55.6297 39.4933C55.6909 39.5549 55.5697 39.7766 55.6297 39.8378C55.8124 40.0194 56.4025 39.8378 56.6607 39.8378H57.3489H58.037H59.0681H59.4956C59.7108 39.8378 60.2036 39.989 60.3556 39.8378C60.4772 39.7162 60.3556 39.3215 60.3556 39.1504V38.7212C60.3556 38.5113 60.1514 37.9305 60.3556 37.8823C60.4432 37.8617 60.5048 37.9403 60.7844 37.5613C61.3863 36.7455 61.4377 36.9944 61.3863 36.7455C61.3538 36.5846 61.8689 36.6004 61.9881 36.4873C62.1433 36.341 62.3314 35.8012 61.9881 35.6294C61.6436 35.4567 61.473 35.3712 61.2999 35.2849C60.8497 35.0604 59.4101 34.3402 59.4101 34.5979C59.4101 34.8549 59.325 35.2849 59.325 35.5426C59.3242 35.7988 59.9256 35.7984 59.1511 36.2284L59.1512 36.2284Z" fill="#01247E"/>
<path d="M43 68C56.7844 68 68 56.7855 68 43C68 29.2135 56.7844 18 43 18C29.2156 18 18 29.2145 18 43C18 56.7855 29.2156 68 43 68ZM66.9687 43C66.9687 43.5451 66.9436 44.0833 66.9075 44.6183C66.6044 44.6544 66.272 44.7829 66.1095 44.8153C65.6795 44.9016 66.1095 44.8153 65.8514 44.8153C65.5944 44.8153 65.474 45.0892 65.3362 45.1598C65.2009 45.2262 64.8799 45.1991 64.7356 45.1598C64.5731 45.1144 64.3044 44.9016 64.3044 44.6434C64.3044 44.3861 63.6174 44.2998 63.0156 43.7847C62.415 43.2691 62.6946 43.1394 62.7586 42.9255C62.7899 42.8209 62.7108 42.6008 62.6723 42.4987C62.5645 42.1992 62.3842 41.4247 62.0705 41.3793C61.9513 41.3615 61.805 41.6302 61.7272 41.7238C61.5614 41.922 61.1266 42.5826 61.039 42.4991C60.9527 42.414 60.9235 43.4852 61.039 43.7858C61.1882 44.1705 61.6984 44.8951 62.0701 45.0746C62.2492 45.161 62.0701 45.0746 62.5864 45.6753C63.1015 46.2771 62.9807 46.3732 63.1883 46.5341C63.4079 46.7059 64.1143 46.4149 64.304 46.6204C64.4795 46.8101 64.383 47.4062 64.304 47.6514C64.2148 47.9303 63.8752 48.2533 63.617 48.5961C63.3589 48.9406 63.217 48.9046 63.1007 49.0261C62.7664 49.384 62.6719 50.6586 62.5856 50.916C62.4981 51.1741 61.985 53.3221 61.8987 53.5795C61.8123 53.8368 61.6441 54.0338 61.5542 54.1805C61.1756 54.7941 60.6168 56.1295 60.2654 56.7577C59.8702 57.4645 58.7188 59.2494 58.5473 59.5067C58.3759 59.7641 58.1364 59.9695 57.9455 60.0222C57.5731 60.1252 56.7462 60.1916 56.399 60.0222C56.0557 59.8552 55.5986 59.174 55.4555 58.8193C55.1398 58.0396 55.2439 56.301 55.111 55.4689C55.0307 54.9704 54.7479 53.9973 54.6822 53.4972C54.6007 52.8771 54.5947 51.521 54.5104 51.0055C54.4241 50.49 54.454 50.6067 54.5104 50.49C54.6656 50.1609 53.7363 49.5444 53.4781 49.4589C53.2212 49.3734 53.2212 49.1144 52.8775 48.7716C52.5342 48.4271 52.2299 48.6463 52.0187 48.6852C51.7845 48.7294 51.3119 48.6107 51.074 48.5989C50.7084 48.5823 49.9425 48.755 49.613 48.5989C49.0338 48.3262 48.3433 47.1525 47.9813 46.6236C47.8188 46.3849 47.5513 45.8507 47.4649 45.5926C47.3798 45.3344 47.208 44.6264 47.1205 44.3038C47.0204 43.937 46.6568 43.2212 46.6917 42.8427C46.7322 42.3921 47.2068 41.8117 47.6364 41.2966C48.064 40.7811 48.2658 40.7608 48.4952 40.6093C48.8632 40.3677 48.8397 40.2656 49.784 39.4068C50.7287 38.5488 49.784 39.4068 49.784 38.9776C49.784 38.5476 49.508 38.3729 49.6121 38.2039C49.7025 38.0564 49.6121 38.2039 49.2676 37.6029C48.9244 37.0023 48.9746 37.2377 48.8389 37.1737C48.4376 36.9848 49.4395 35.7994 49.5258 35.5413C49.6134 35.2839 49.9546 35.5413 50.4705 35.2839C50.9869 35.0266 50.8576 35.2685 50.9869 35.2839C51.2499 35.3163 51.2126 34.5171 51.2438 34.2529C51.2547 34.1674 51.2702 33.9907 51.2438 33.9084C51.1875 33.7321 50.9796 33.3917 50.815 33.3074C50.642 33.2186 50.2999 33.3074 50.0422 33.221C49.784 33.1359 49.4403 33.0492 49.1821 32.8774C48.924 32.7055 48.7355 32.2889 48.8389 32.1037C49.0358 31.7519 50.0418 31.5882 50.2999 31.4167C50.5569 31.2453 50.2999 30.9012 50.2999 30.6439C50.2999 30.3857 51.2685 30.3107 51.5875 30.3857C51.8217 30.4408 52.3206 30.6106 52.4475 30.8145C52.5492 30.9794 52.4033 31.3997 52.4475 31.5882C52.4916 31.7754 52.6193 32.1876 52.7895 32.2755C52.905 32.3355 53.1754 32.2014 53.3059 32.1892C53.3975 32.1819 53.3059 32.1892 53.564 31.9318C53.8222 31.6745 53.7995 31.4654 53.9089 31.3308C53.9981 31.2181 54.2838 31.1063 54.424 31.0726C54.6749 31.0135 55.1969 31.0605 55.4551 31.0726C55.693 31.0836 56.1619 31.1715 56.3986 31.159C56.5825 31.1492 56.8286 31.0726 57.0867 30.9016C57.3449 30.7302 58.2037 30.3006 58.4614 30.0424C58.7184 29.7843 58.7184 29.0977 58.6333 28.8395C58.5469 28.5822 58.643 28.5814 58.6333 28.4958C58.6093 28.2948 58.1457 28.0983 57.9451 28.0667C57.7696 28.0391 57.4089 28.1433 57.2581 28.2385C57 28.401 56.6587 28.9319 56.4853 29.1828C56.3864 29.3255 56.281 29.6825 56.1408 29.7838C56.052 29.8479 55.8222 29.8592 55.712 29.8702C55.37 29.905 54.679 29.8945 54.3361 29.8702C54.0341 29.8487 53.3338 29.9289 53.1344 29.6995C53.0939 29.6513 53.1344 29.5658 53.1344 29.4462V29.3559V29.2647C53.1344 29.1447 53.1081 29.0697 53.1344 29.0122C53.2763 28.7082 53.9827 28.4342 54.1654 28.153C54.3348 27.8912 54.3158 27.1969 54.5099 26.9505C54.9813 26.3434 56.5692 25.8813 57.1726 25.404C57.4235 25.2058 57.9382 24.8621 58.2393 24.5148C63.5683 28.9145 66.9686 35.5675 66.9686 43.0002L66.9687 43ZM48.5933 19.6963C48.5945 19.7442 48.5933 19.7879 48.5835 19.8199C48.4721 20.2005 47.9829 20.7647 47.5525 21.0224C47.1225 21.2806 47.5298 21.7325 47.5525 21.968C47.591 22.3809 47.1881 23.1741 46.9519 23.5141C46.6459 23.9501 45.5759 24.717 45.4053 24.9751C45.2347 25.2324 44.8416 25.5725 44.6325 25.748C44.3391 25.994 43.6861 26.5216 43.4296 26.6927C43.1714 26.8645 42.6555 27.2937 42.0225 28.497C41.3894 29.6995 41.1945 29.4831 40.938 29.2707C40.57 28.9659 39.2439 28.6077 39.3915 28.1533C39.4579 27.9446 39.3915 28.1533 38.7045 27.609C38.0176 27.0651 37.9701 26.1541 38.1027 25.6616C38.1529 25.4755 38.3811 25.1554 38.4472 24.9746C38.6012 24.5588 38.5286 23.5282 38.8772 23.2555C39.0741 23.1002 38.8772 23.2555 38.5327 22.3107C38.1882 21.366 37.3537 21.698 37.0716 21.366C36.9865 21.2671 37.1041 20.9697 37.1592 20.8509C37.2273 20.6981 37.4712 20.4558 37.588 20.3346C37.8007 20.1157 38.2583 19.7279 38.4682 19.4649C39.9361 19.1828 41.4511 19.03 43.0001 19.03C44.9264 19.0316 46.7983 19.2651 48.5934 19.6963L48.5933 19.6963ZM28.1594 24.1978H28.9099C30.1987 24.1978 29.684 24.1978 30.3697 24.1115C31.0567 24.0248 31.0818 23.9238 31.3161 23.8533C31.6054 23.7658 31.3161 23.8533 32.519 23.767C33.7219 23.6807 32.519 23.767 32.998 23.6807C33.477 23.5952 33.5496 23.5088 33.8077 23.6807C34.0647 23.8525 34.5899 23.6089 34.8388 23.6807C35.2043 23.7873 35.6976 24.5395 35.8698 24.7977C36.0425 25.0558 36.7274 25.8287 36.9868 26.3438C37.245 26.8593 36.9868 26.3438 36.385 26.773C35.7843 27.203 36.0405 27.1174 35.7831 27.1174C35.5262 27.1174 35.0524 27.1381 34.8396 27.0311C34.6532 26.9383 34.4433 26.5363 34.2641 26.4301C33.9772 26.2587 33.6825 25.9194 32.9993 26.0009C32.8538 26.0175 32.6362 26.253 32.5202 26.3446C32.3411 26.486 32.0076 26.8009 31.8321 26.9456C31.623 27.1174 31.1536 27.4068 30.9733 27.6086C30.7869 27.8178 30.5433 28.3207 30.2863 28.4917C30.0282 28.6632 30.3727 29.3793 30.5433 29.6092C30.6697 29.7786 30.9457 30.1368 31.1451 30.2098C31.4499 30.3224 32.175 30.1243 32.4327 30.0379C32.6909 29.9516 32.7772 29.9516 33.2927 29.6935C33.809 29.4361 33.2927 29.6935 33.6372 29.4361C33.9805 29.1788 34.0818 29.058 34.2642 29.0069C34.6103 28.9117 35.3669 28.8703 35.6988 29.0069C35.9234 29.0993 36.2302 29.5082 36.3858 29.6939C36.7291 30.1012 36.9876 30.5539 37.8456 31.2404C38.7044 31.9273 38.7919 32.5292 38.9637 32.8732C39.1355 33.2169 38.8774 33.9043 38.7055 34.1608C38.5337 34.419 38.1669 34.7363 37.9327 34.849C37.0869 35.2526 35.7835 35.45 34.2645 35.6218C32.7468 35.7937 34.2382 36.2229 34.2645 36.3955C34.2921 36.5669 32.8635 37.5992 32.0902 38.199C31.3173 38.8 32.0902 38.199 31.832 38.2857C31.5739 38.3721 31.3169 38.8008 31.0592 39.0586C30.801 39.3168 30.801 40.2615 30.5428 40.4333C30.2859 40.6052 29.34 40.8625 29.0818 40.8625H28.3961H27.7079C27.4498 40.8625 27.2455 40.8046 27.1061 40.8625C26.9103 40.9444 26.5861 41.2682 26.5042 41.4635C26.4637 41.5624 26.4588 41.7963 26.5042 41.8927C26.6234 42.1404 27.1624 42.3937 27.3642 42.5797C27.8579 43.0328 28.9971 44.2988 29.169 44.5558C29.3408 44.814 29.8142 45.7413 30.2 45.9305C30.5859 46.1194 31.4876 45.9305 31.9181 45.9305C32.1876 45.9305 32.7302 45.8981 32.9994 45.9305C33.5043 45.9905 34.4102 46.2738 35.0059 46.2738C35.6009 46.2738 35.8659 46.5595 36.0414 46.7902C36.2647 47.0848 36.3859 47.3057 37.2454 47.6489C38.103 47.9934 38.208 48.2127 38.5152 48.4226C38.9476 48.7181 40.1646 49.11 40.4228 49.2814C40.681 49.4528 41.0247 50.8275 41.4539 51.5157C41.8827 52.203 42.2267 52.8045 41.8839 53.5773C41.5394 54.3502 42.1408 54.6084 41.8839 54.8661C41.6257 55.1231 41.6257 55.3817 40.9392 56.4122C40.251 57.4433 40.0791 58.2166 39.8222 58.3021C39.564 58.3876 37.7451 59.5994 38.0174 60.1923C38.1702 60.5243 38.0174 60.1923 36.9017 61.137C35.7847 62.0818 35.9553 61.9958 35.4406 62.254C34.9243 62.5114 34.9806 63.465 35.0106 63.8869C35.0382 64.2881 34.9466 65.0233 35.0046 65.5915C34.6751 65.4748 34.3488 65.3492 34.0246 65.2178C34.0319 64.7627 33.948 64.2099 33.8933 63.8869C33.8082 63.3706 32.8622 59.5051 32.8622 59.0754C32.8622 58.6454 32.2316 58.3338 32.0894 58.0436C31.9102 57.6772 32.0894 56.8196 32.0894 56.4119C32.0894 56.1967 32.1822 55.746 32.0894 55.5527C32.0294 55.4287 31.7587 55.3039 31.6594 55.2082C31.2424 54.8131 30.4411 53.9753 30.1339 53.4902C30.0087 53.2932 29.9118 52.8162 29.7696 52.631C29.6216 52.4373 29.0936 52.2553 28.9967 52.03C28.8601 51.713 29.0818 51.1712 29.0818 50.6557C29.0818 50.1402 29.34 50.0546 29.881 49.3669C30.4225 48.6799 29.9422 48.9377 29.8559 48.6799C29.7684 48.4218 29.9422 48.2499 29.8559 47.9926C29.7684 47.7344 29.2302 47.1395 28.9971 46.8756C28.8455 46.705 28.5708 46.3337 28.3965 46.1882C27.9738 45.8373 26.9606 45.3781 26.5043 45.0721C26.1233 44.8147 25.3991 44.2493 25.0445 43.9551C24.5318 43.5259 23.519 42.6456 23.0692 42.1503C22.9249 41.9915 22.7048 41.6158 22.554 41.4634C22.3056 41.2125 21.6203 40.9057 21.4359 40.6042C21.1113 40.0627 21.061 38.7424 21.0071 38.1133C20.9557 37.5139 21.0635 36.3066 21.0071 35.7072C20.9666 35.2687 21.0647 34.2713 20.9155 33.6817C22.499 29.9405 25.0137 26.6857 28.1595 24.1977L28.1594 24.1978Z" fill="#01247E"/>
</svg>
