<svg width="86" height="86" viewBox="0 0 86 86" fill="none" xmlns="http://www.w3.org/2000/svg">
<circle cx="43" cy="43" r="43" fill="#F3F6F8"/>
<path d="M52.5834 31.457H33.4176C33.4176 31.457 20 42.9955 20 56.461C20 64.1518 25.77 67.9996 29.5829 67.9996H56.4171C60.246 67.9996 66 64.1514 66 56.461C66 42.9955 52.5824 31.457 52.5824 31.457H52.5834ZM44.9149 58.1878V61.2675H41.0859L41.0856 58.1982C38.2635 57.6716 36.4908 55.9242 36.365 53.3869H39.6854C39.8478 54.7187 41.1855 55.5768 43.121 55.5768C44.9043 55.5768 46.1684 54.7084 46.1684 53.4714C46.1684 52.4187 45.3503 51.8183 43.3362 51.366L41.2013 50.9081C38.2113 50.2817 36.7426 48.7182 36.7426 46.2073C36.7426 43.6965 38.4107 41.8855 41.0648 41.2907V38.1898H44.8937V41.2954C47.4849 41.8745 49.2108 43.6484 49.2945 46.0329L46.0897 46.0332C45.9273 44.733 44.7206 43.8646 43.0632 43.8646C41.4058 43.8646 40.2097 44.6647 40.2097 45.9176C40.2097 46.9337 40.9912 47.4969 42.9162 47.9284L44.8937 48.3495C48.1929 49.0442 49.6143 50.4549 49.6143 53.0293C49.6146 55.7821 47.8523 57.6247 44.9149 58.188L44.9149 58.1878Z" fill="#01247E"/>
<path d="M52.5831 19.9134H47.2855C46.1911 18.6954 44.6339 18 42.9999 18C41.3659 18 39.8087 18.6955 38.7143 19.9134H33.4167C32.783 19.9159 32.1918 20.2325 31.8361 20.7586C31.4805 21.2848 31.4066 21.9535 31.6385 22.5454L33.4167 27.6041H52.5825L54.3606 22.5454C54.5926 21.9535 54.5187 21.2849 54.1631 20.7586C53.8074 20.2324 53.2162 19.9159 52.5824 19.9134H52.5831Z" fill="#01247E"/>
</svg>
