<svg width="110" height="60" viewBox="0 0 110 60" fill="none" xmlns="http://www.w3.org/2000/svg">
<mask id="mask0_344_16635" style="mask-type:alpha" maskUnits="userSpaceOnUse" x="0" y="0" width="110" height="60">
<rect width="110" height="60" fill="#C4C4C4"/>
</mask>
<g mask="url(#mask0_344_16635)">
<circle cx="55" cy="30" r="20" fill="white"/>
<path d="M49.5625 34.2422V36H41.7812V34.5L45.4609 30.5547C45.8307 30.1432 46.1224 29.7812 46.3359 29.4688C46.5495 29.151 46.7031 28.8672 46.7969 28.6172C46.8958 28.362 46.9453 28.1198 46.9453 27.8906C46.9453 27.5469 46.888 27.2526 46.7734 27.0078C46.6589 26.7578 46.4896 26.5651 46.2656 26.4297C46.0469 26.2943 45.776 26.2266 45.4531 26.2266C45.1094 26.2266 44.8125 26.3099 44.5625 26.4766C44.3177 26.6432 44.1302 26.875 44 27.1719C43.875 27.4688 43.8125 27.8047 43.8125 28.1797H41.5547C41.5547 27.5026 41.7161 26.8828 42.0391 26.3203C42.362 25.7526 42.8177 25.3021 43.4062 24.9688C43.9948 24.6302 44.6927 24.4609 45.5 24.4609C46.2969 24.4609 46.9688 24.5911 47.5156 24.8516C48.0677 25.1068 48.4844 25.4766 48.7656 25.9609C49.0521 26.4401 49.1953 27.013 49.1953 27.6797C49.1953 28.0547 49.1354 28.4219 49.0156 28.7812C48.8958 29.1354 48.724 29.4896 48.5 29.8438C48.2812 30.1927 48.0156 30.5469 47.7031 30.9062C47.3906 31.2656 47.0443 31.638 46.6641 32.0234L44.6875 34.2422H49.5625ZM56.4531 24.6016V36H54.2031V27.1953L51.5 28.0547V26.2812L56.2109 24.6016H56.4531ZM67.6094 29.6641V31.625H59.8125V29.6641H67.6094ZM64.7812 26.5781V34.8594H62.6484V26.5781H64.7812Z" fill="black"/>
</g>
</svg>
