<svg width="16" height="16" viewBox="0 0 16 16" fill="none" xmlns="http://www.w3.org/2000/svg">
<path d="M14.9836 1.01629C15.0522 1.08485 15.1066 1.16625 15.1438 1.25585L14.959 1.33241L15.1438 1.25585C15.1809 1.34545 15.2 1.44148 15.2 1.53846C15.2 1.63544 15.1809 1.73147 15.1438 1.82107C15.1066 1.91066 15.0522 1.99206 14.9836 2.06062L9.04429 7.99997L14.9837 13.9393L14.9839 13.9396C15.122 14.0782 15.1994 14.2659 15.1992 14.4615C15.199 14.657 15.1213 14.8446 14.9829 14.9829C14.8446 15.1212 14.6571 15.199 14.4615 15.1992C14.2659 15.1993 14.0783 15.1219 13.9397 14.9839L13.9394 14.9836L8.00003 9.04422L2.0607 14.9836C2.06068 14.9836 2.06067 14.9836 2.06065 14.9836C1.9921 15.0522 1.91072 15.1066 1.82114 15.1437C1.73154 15.1809 1.63551 15.2 1.53852 15.2C1.44153 15.2 1.34549 15.1809 1.25588 15.1438C1.16627 15.1067 1.08485 15.0523 1.01627 14.9837C0.947691 14.9151 0.893293 14.8337 0.856185 14.7441C0.819077 14.6545 0.799985 14.5585 0.8 14.4615C0.800015 14.3645 0.819138 14.2685 0.856274 14.1789C0.893412 14.0893 0.947836 14.0079 1.01644 13.9393L6.95578 7.99997L1.01639 2.06059L1.01601 2.06021L1.01601 2.06021C0.87815 1.9216 0.800877 1.73398 0.801139 1.53849C0.8014 1.34299 0.879176 1.15558 1.01741 1.01735C1.15565 0.879113 1.34306 0.801337 1.53855 0.801075C1.73405 0.800814 1.92167 0.878087 2.06027 1.01595L2.06065 1.01633L2.06065 1.01633L8.00003 6.95571L13.9394 1.01637L14.0808 1.15775L13.9394 1.01633C14.008 0.947753 14.0894 0.893351 14.1789 0.856233C14.2685 0.819108 14.3646 0.8 14.4615 0.8C14.5585 0.8 14.6546 0.819108 14.7442 0.856233C14.8337 0.893345 14.9151 0.947733 14.9836 1.01629ZM14.9836 1.01629C14.9837 1.01632 14.9837 1.01634 14.9837 1.01637L14.8422 1.15775L14.9836 1.01629Z" fill="#002868" stroke="#002868" stroke-width="0.4"/>
</svg>
