<svg width="20" height="20" viewBox="0 0 20 20" fill="none" xmlns="http://www.w3.org/2000/svg">
<path d="M9.99955 8.31389L2.53493 0.849269L2.53493 0.849268L2.53398 0.848324C2.31019 0.625727 2.00726 0.50096 1.69161 0.501383C1.37596 0.501805 1.07337 0.627383 0.850171 0.850578C0.626976 1.07377 0.501398 1.37637 0.500976 1.69202C0.500553 2.00766 0.62532 2.3106 0.847917 2.53439L0.847916 2.53439L0.848862 2.53534L8.31349 9.99996L0.848974 17.4645C0.848937 17.4645 0.848899 17.4645 0.848862 17.4646C0.73815 17.5753 0.650315 17.7066 0.590373 17.8513C0.530411 17.9959 0.499536 18.151 0.499512 18.3076C0.499487 18.4642 0.530313 18.6192 0.590229 18.7639C0.650144 18.9086 0.737976 19.0401 0.848708 19.1508C0.95944 19.2615 1.0909 19.3494 1.23558 19.4093C1.38027 19.4692 1.53533 19.5 1.69193 19.5C1.84853 19.5 2.00359 19.4691 2.14825 19.4091C2.29287 19.3492 2.42426 19.2614 2.53493 19.1507C2.53497 19.1506 2.53501 19.1506 2.53504 19.1505L9.99955 11.686L17.4642 19.1506L17.4648 19.1513C17.6886 19.3742 17.9916 19.4992 18.3074 19.4989C18.6232 19.4986 18.926 19.373 19.1493 19.1497C19.3726 18.9264 19.4982 18.6236 19.4985 18.3078C19.4988 17.992 19.3738 17.689 19.1509 17.4653L19.1502 17.4646L11.6856 9.99996L19.1502 2.53543C19.2609 2.42473 19.3488 2.29329 19.4087 2.14862C19.4687 2.00396 19.4995 1.8489 19.4995 1.6923C19.4995 1.53571 19.4687 1.38065 19.4087 1.23598C19.3488 1.09131 19.2609 0.959877 19.1502 0.849179C19.0395 0.738507 18.9081 0.65071 18.7635 0.590798C18.6189 0.530853 18.4638 0.5 18.3072 0.5C18.1506 0.5 17.9956 0.530853 17.8509 0.590798C17.7063 0.650726 17.5749 0.738555 17.4642 0.849269C17.4641 0.849299 17.4641 0.84933 17.4641 0.84936L9.99955 8.31389Z" fill="#002868" stroke="#002868"/>
</svg>
