<svg width="110" height="60" viewBox="0 0 110 60" fill="none" xmlns="http://www.w3.org/2000/svg">
<mask id="mask0_928_126" style="mask-type:alpha" maskUnits="userSpaceOnUse" x="0" y="0" width="110" height="60">
<rect width="110" height="60" fill="#C4C4C4"/>
</mask>
<g mask="url(#mask0_928_126)">
<path d="M44.0193 26.894C44.0364 26.9331 44.0447 26.9753 44.0437 27.0178C44.0426 27.0603 44.0323 27.1021 44.0133 27.1404C43.9943 27.1787 43.9671 27.2127 43.9335 27.24C43.8999 27.2674 43.8606 27.2875 43.8184 27.2991L42.0392 27.8096C41.8215 27.8704 41.7085 27.8096 41.6206 27.599C41.5184 27.1811 41.2631 26.8133 40.9021 26.5637C40.541 26.3141 40.0987 26.1997 39.6572 26.2416C37.9827 26.2416 37.4091 27.2019 37.4091 28.4944V31.4684C37.4091 32.7609 37.9743 33.7211 39.6572 33.7211C41.0429 33.7211 41.7504 33.0972 41.7504 31.7398V31.3347H39.9419C39.9072 31.3375 39.8724 31.3327 39.8399 31.3206C39.8075 31.3085 39.7783 31.2895 39.7545 31.2649C39.7307 31.2404 39.713 31.2109 39.7027 31.1788C39.6924 31.1466 39.6897 31.1127 39.6949 31.0794V29.4668C39.6905 29.4337 39.6937 29.4 39.7043 29.3682C39.715 29.3364 39.7327 29.3073 39.7563 29.2829C39.7799 29.2585 39.8088 29.2395 39.8408 29.2272C39.8729 29.2148 39.9074 29.2095 39.9419 29.2115H43.9691C44.0035 29.2065 44.0386 29.2091 44.0718 29.2191C44.105 29.2291 44.1354 29.2462 44.1608 29.2693C44.1862 29.2923 44.2058 29.3205 44.2183 29.3519C44.2308 29.3833 44.2358 29.4171 44.2328 29.4506V31.91C44.2328 34.26 42.4495 36.0306 39.6781 36.0306C36.3919 36.0306 34.8555 34.1466 34.8555 31.5737V28.4296C34.8555 25.8405 36.3919 23.9727 39.6781 23.9727C42.3364 23.9727 43.5379 25.4394 44.0193 26.9102V26.894ZM53.0618 29.8355V35.6011C53.0636 35.633 53.0585 35.6648 53.0467 35.6946C53.0349 35.7244 53.0168 35.7515 52.9935 35.7741C52.9702 35.7966 52.9422 35.8142 52.9114 35.8256C52.8807 35.837 52.8477 35.8419 52.8148 35.8402H50.998C50.9639 35.8437 50.9294 35.8401 50.8969 35.8295C50.8643 35.819 50.8346 35.8018 50.8095 35.7791C50.7845 35.7564 50.7648 35.7288 50.7518 35.6981C50.7388 35.6674 50.7328 35.6343 50.7342 35.6011V34.6571C50.4762 35.0774 50.108 35.4243 49.6669 35.6626C49.2258 35.901 48.7275 36.0223 48.2224 36.0144C46.506 36.0144 45.3966 34.9447 45.3966 33.2997C45.3966 31.6547 46.439 30.7431 48.9801 30.5689C49.5291 30.5284 50.0805 30.5284 50.6296 30.5689V29.9125C50.6296 29.0495 50.1691 28.697 49.3737 28.697C49.0981 28.6594 48.8178 28.7213 48.5863 28.8707C48.3547 29.0201 48.188 29.2467 48.1178 29.5073C48.034 29.6978 47.9712 29.7302 47.787 29.6815L45.9702 29.2359C45.7902 29.1872 45.7734 29.09 45.8069 28.9644C46.0539 27.7002 47.2931 26.7724 49.4699 26.7724C51.7641 26.7724 53.0534 27.8299 53.0534 29.8112L53.0618 29.8355ZM50.6254 32.8297V32.0234C50.1406 32.0065 49.6551 32.0227 49.1727 32.0721C48.2517 32.1815 47.7535 32.4529 47.7535 33.1417C47.7535 33.7616 48.1722 34.0979 48.8922 34.0979C49.2827 34.1057 49.6648 33.9878 49.9785 33.7627C50.2922 33.5375 50.5197 33.2179 50.6254 32.8541V32.8297ZM59.6176 26.7967C60.1263 26.7877 60.6239 26.9418 61.0327 27.2349C61.4416 27.528 61.7389 27.9438 61.8782 28.4174C62.5564 27.4571 63.3811 26.7967 64.5365 26.7967C66.1357 26.7967 67.0483 28.0122 67.0483 29.8639V35.6011C67.0457 35.636 67.0359 35.6699 67.0194 35.701C67.0029 35.7321 66.9801 35.7596 66.9523 35.7819C66.9246 35.8043 66.8924 35.8209 66.8579 35.8309C66.8233 35.8409 66.787 35.8441 66.7511 35.8402H64.8547C64.8188 35.8441 64.7825 35.8409 64.7479 35.8309C64.7134 35.8209 64.6812 35.8043 64.6535 35.7819C64.6257 35.7596 64.6029 35.7321 64.5864 35.701C64.5699 35.6699 64.5601 35.636 64.5575 35.6011V30.2812C64.5575 29.4709 64.1933 29.0009 63.5486 29.0009C62.9039 29.0009 62.3764 29.5478 62.1294 30.3784V35.6011C62.1317 35.6317 62.1275 35.6625 62.1169 35.6914C62.1064 35.7203 62.0898 35.7468 62.0682 35.7693C62.0466 35.7917 62.0204 35.8096 61.9913 35.8218C61.9622 35.834 61.9308 35.8403 61.8992 35.8402H59.8479C59.7013 35.8402 59.6343 35.7429 59.6343 35.6011V30.2812C59.6343 29.4709 59.2701 29.0009 58.6254 29.0009C57.9807 29.0009 57.4365 29.5762 57.2063 30.3947V35.6011C57.2095 35.6333 57.2054 35.6658 57.1941 35.6962C57.1828 35.7266 57.1648 35.7543 57.1411 35.7771C57.1175 35.8 57.089 35.8175 57.0575 35.8284C57.0261 35.8393 56.9925 35.8433 56.9593 35.8402H54.9457C54.9124 35.8433 54.8789 35.8393 54.8474 35.8284C54.816 35.8175 54.7874 35.8 54.7638 35.7771C54.7402 35.7543 54.7221 35.7266 54.7108 35.6962C54.6996 35.6658 54.6954 35.6333 54.6987 35.6011V27.214C54.6986 27.1834 54.705 27.153 54.7176 27.1248C54.7303 27.0967 54.7487 27.0714 54.7719 27.0504C54.7951 27.0295 54.8225 27.0135 54.8524 27.0033C54.8823 26.9931 54.914 26.989 54.9457 26.9912H56.8756C56.9073 26.9883 56.9393 26.992 56.9695 27.002C56.9997 27.0119 57.0274 27.028 57.0507 27.049C57.074 27.0701 57.0925 27.0956 57.1049 27.1241C57.1173 27.1525 57.1233 27.1832 57.1226 27.214V28.2189C57.671 27.4855 58.4622 26.7967 59.6343 26.7967H59.6176ZM77.4304 26.9912C77.4807 27.1978 77.4304 27.3559 77.2169 27.3964L75.467 27.8907C75.4276 27.909 75.3843 27.918 75.3406 27.9169C75.297 27.9159 75.2542 27.9048 75.2158 27.8846C75.1774 27.8645 75.1444 27.8358 75.1197 27.8009C75.095 27.766 75.0792 27.726 75.0735 27.684C74.8223 26.8737 74.3953 26.2457 73.1729 26.2457C71.67 26.2457 71.1928 27.2059 71.1928 28.4984V31.4724C71.1928 32.7649 71.737 33.7252 73.1729 33.7252C74.4623 33.7252 74.9563 33.0202 75.1531 32.1409C75.1575 32.098 75.1728 32.0568 75.1976 32.0209C75.2223 31.9851 75.2558 31.9556 75.2951 31.9352C75.3344 31.9148 75.3783 31.9041 75.4228 31.9039C75.4674 31.9037 75.5113 31.9142 75.5508 31.9343L77.3048 32.4853C77.3471 32.4972 77.3865 32.5174 77.4204 32.5445C77.4543 32.5717 77.4822 32.6053 77.5022 32.6432C77.5222 32.6812 77.5339 32.7227 77.5367 32.7653C77.5395 32.8078 77.5332 32.8504 77.5183 32.8905C77.0997 34.6166 75.8187 36.0185 73.1436 36.0185C70.142 36.0185 68.6224 34.1344 68.6224 31.5616V28.4296C68.6224 25.8405 70.1713 23.9727 73.1436 23.9727C75.7517 23.9727 76.9741 25.3138 77.4346 27.0074L77.4304 26.9912ZM86.2175 29.8355V35.6011C86.2193 35.633 86.2142 35.6648 86.2024 35.6946C86.1907 35.7244 86.1725 35.7515 86.1492 35.7741C86.1259 35.7966 86.098 35.8142 86.0672 35.8256C86.0364 35.837 86.0035 35.8419 85.9705 35.8402H84.1537C84.1196 35.8437 84.0851 35.8401 84.0526 35.8295C84.0201 35.819 83.9903 35.8018 83.9652 35.7791C83.9402 35.7564 83.9205 35.7288 83.9075 35.6981C83.8945 35.6674 83.8885 35.6343 83.8899 35.6011V34.6571C83.6319 35.0774 83.2637 35.4243 82.8226 35.6626C82.3815 35.901 81.8832 36.0223 81.3781 36.0144C79.6617 36.0144 78.5566 34.9447 78.5566 33.2997C78.5566 31.6547 79.5948 30.7431 82.1359 30.5689C82.6863 30.5283 83.2391 30.5283 83.7895 30.5689V29.9125C83.7895 29.0495 83.3248 28.697 82.5336 28.697C82.2582 28.6612 81.9789 28.7238 81.7477 28.8729C81.5166 29.0221 81.3495 29.2476 81.2777 29.5073C81.1981 29.6978 81.1311 29.7302 80.9469 29.6815L79.1343 29.2359C78.9501 29.1872 78.9333 29.09 78.9668 28.9644C79.2138 27.7002 80.453 26.7724 82.634 26.7724C84.9281 26.7724 86.2133 27.8299 86.2133 29.8112L86.2175 29.8355ZM83.7895 32.8297V32.0234C83.3047 32.0063 82.8192 32.0226 82.3368 32.0721C81.4116 32.1815 80.9176 32.4529 80.9176 33.1417C80.9176 33.7616 81.3363 34.0979 82.0563 34.0979C82.4466 34.1051 82.8283 33.9869 83.1419 33.7618C83.4554 33.5368 83.6832 33.2176 83.7895 32.8541V32.8297ZM93.2882 27.1492V28.859C93.2882 29.0657 93.2045 29.1467 92.991 29.1467H92.7231C91.4044 29.1467 90.6299 29.7221 90.3662 30.6823V35.6011C90.3685 35.6307 90.3646 35.6605 90.3548 35.6886C90.3451 35.7167 90.3296 35.7427 90.3093 35.765C90.289 35.7872 90.2644 35.8054 90.2367 35.8183C90.2091 35.8312 90.1791 35.8386 90.1485 35.8402H88.0553C88.0247 35.8386 87.9947 35.8312 87.9671 35.8183C87.9395 35.8054 87.9148 35.7872 87.8945 35.765C87.8742 35.7427 87.8588 35.7167 87.849 35.6886C87.8392 35.6605 87.8354 35.6307 87.8376 35.6011V27.214C87.8362 27.183 87.8418 27.152 87.8539 27.1233C87.8661 27.0945 87.8845 27.0686 87.908 27.0475C87.9315 27.0263 87.9594 27.0103 87.9899 27.0006C88.0204 26.9908 88.0527 26.9876 88.0846 26.9912H89.9685C90.1652 26.9912 90.2155 27.1168 90.2155 27.2465V28.4296C90.4573 27.9464 90.8387 27.5415 91.3135 27.2639C91.7883 26.9863 92.3361 26.8479 92.8905 26.8656C93.2213 26.8656 93.3092 26.9142 93.3092 27.1371L93.2882 27.1492ZM96.5285 32.1328V32.4691C96.5285 33.397 97.0266 34.0493 98.203 34.0493C99.3794 34.0493 99.6556 33.6441 99.9529 33.1093C100.099 32.8703 100.166 32.8378 100.43 32.9472L101.732 33.5874C102 33.7171 102.017 33.8427 101.9 34.0817C101.339 35.2972 99.9361 36.0144 98.1862 36.0144C95.5447 36.0144 94.159 34.4991 94.159 32.4205V30.3947C94.159 28.3688 95.4609 26.7967 98.1695 26.7967C100.744 26.7967 102 28.3809 102 30.346V31.752C102 31.991 101.916 32.1572 101.581 32.1572L96.5285 32.1328ZM96.5285 30.265V30.5689H99.7143V30.265C99.7342 30.0589 99.707 29.851 99.6346 29.6562C99.5622 29.4614 99.4463 29.2845 99.2953 29.1379C99.1442 28.9913 98.9617 28.8787 98.7606 28.8081C98.5595 28.7375 98.3448 28.7106 98.1318 28.7294C97.9178 28.7104 97.7021 28.7369 97.4998 28.8071C97.2975 28.8774 97.1135 28.9896 96.9607 29.1359C96.8079 29.2822 96.6901 29.4591 96.6154 29.6541C96.5408 29.8492 96.5111 30.0577 96.5285 30.265Z" fill="white"/>
<path d="M19.4161 17H8.33909C8.29476 16.9995 8.25076 17.0075 8.20964 17.0235C8.16853 17.0396 8.13111 17.0634 8.09957 17.0935C8.06802 17.1237 8.04298 17.1596 8.02589 17.1992C8.0088 17.2388 8 17.2813 8 17.3242V32.9152C8.00111 35.587 9.09851 38.149 11.0509 40.0379C13.0033 41.9267 15.6508 42.9878 18.4114 42.9878H19.4161C22.1763 42.9878 24.8234 41.9266 26.7751 40.0376C28.7269 38.1487 29.8233 35.5867 29.8233 32.9152V27.0726C29.8233 24.4012 28.7269 21.8392 26.7751 19.9502C24.8234 18.0612 22.1763 17 19.4161 17ZM26.4785 33.0854C26.4785 36.8778 23.6024 39.7424 19.1231 39.7424C13.819 39.7424 11.3407 36.6955 11.3407 32.5384V27.4616C11.3407 23.2802 13.819 20.2374 19.1147 20.2374C23.4057 20.2374 25.3523 22.6117 26.1268 24.986C26.1567 25.049 26.1723 25.1175 26.1723 25.1869C26.1724 25.2563 26.157 25.3248 26.1272 25.3879C26.0974 25.451 26.0539 25.5071 25.9996 25.5524C25.9454 25.5977 25.8817 25.6312 25.8128 25.6505L22.9326 26.4608C22.5894 26.5621 22.401 26.4608 22.2963 26.1245C21.84 24.7064 20.8813 23.9325 19.1231 23.9325C16.402 23.9325 15.4977 25.4803 15.4977 27.5791V32.3885C15.4977 34.4792 16.402 36.0351 19.1231 36.0351C21.3628 36.0351 22.5349 35.0262 22.5349 32.8342V32.2062H19.5333C19.4766 32.2135 19.4188 32.2081 19.3646 32.1903C19.3103 32.1726 19.261 32.1429 19.2205 32.1037C19.1801 32.0645 19.1494 32.0168 19.1311 31.9643C19.1127 31.9118 19.1071 31.8559 19.1147 31.801V29.139C19.1103 29.0847 19.1181 29.0301 19.1376 28.9791C19.1571 28.928 19.1877 28.8816 19.2275 28.8431C19.2673 28.8045 19.3153 28.7748 19.3681 28.756C19.4208 28.7371 19.4772 28.7296 19.5333 28.7338H26.0514C26.1063 28.7271 26.162 28.7322 26.2145 28.7489C26.2671 28.7655 26.3151 28.7933 26.3552 28.8301C26.3953 28.867 26.4264 28.912 26.4462 28.9619C26.4661 29.0118 26.4743 29.0654 26.4701 29.1188L26.4785 33.0854Z" fill="white"/>
<path d="M37.3131 39.2888C37.3179 39.2968 37.3207 39.3059 37.3214 39.3151C37.3221 39.3244 37.3205 39.3337 37.3169 39.3423C37.3132 39.3509 37.3076 39.3586 37.3004 39.3648C37.2932 39.371 37.2846 39.3755 37.2754 39.3779L36.9823 39.4671C36.9363 39.4671 36.9112 39.4671 36.8902 39.4306C36.8483 39.273 36.75 39.1348 36.6129 39.0406C36.4757 38.9464 36.3085 38.9023 36.1409 38.916C36.0274 38.9014 35.9119 38.9122 35.8034 38.9477C35.6949 38.9833 35.5963 39.0425 35.5153 39.1209C35.4343 39.1993 35.3731 39.2947 35.3364 39.3997C35.2997 39.5047 35.2885 39.6165 35.3036 39.7264V40.8001C35.2885 40.91 35.2997 41.0218 35.3364 41.1268C35.3731 41.2318 35.4343 41.3272 35.5153 41.4055C35.5963 41.4839 35.6949 41.5432 35.8034 41.5787C35.9119 41.6143 36.0274 41.6251 36.1409 41.6104C36.6139 41.6104 36.9237 41.3997 36.9237 40.9257V40.5205H36.2372C36.1995 40.5205 36.1786 40.5205 36.1786 40.4597V40.2369C36.1786 40.1964 36.1786 40.1761 36.2372 40.1761H37.3005C37.3092 40.1749 37.3181 40.1756 37.3266 40.1781C37.335 40.1807 37.3427 40.185 37.3492 40.1909C37.3556 40.1967 37.3606 40.2039 37.3638 40.2118C37.3669 40.2198 37.3682 40.2284 37.3675 40.2369V40.9824C37.3689 41.1338 37.3373 41.2838 37.2746 41.4226C37.212 41.5613 37.1197 41.6857 37.0038 41.7875C36.888 41.8892 36.7512 41.9662 36.6025 42.0132C36.4538 42.0602 36.2965 42.0762 36.1409 42.0602C35.9698 42.0796 35.7964 42.0618 35.6333 42.008C35.4703 41.9543 35.3217 41.8659 35.1985 41.7494C35.0753 41.6328 34.9805 41.4911 34.9212 41.3346C34.8619 41.178 34.8395 41.0107 34.8557 40.8447V39.7061C34.8395 39.5401 34.8619 39.3727 34.9212 39.2162C34.9805 39.0597 35.0753 38.918 35.1985 38.8014C35.3217 38.6849 35.4703 38.5965 35.6333 38.5427C35.7964 38.489 35.9698 38.4711 36.1409 38.4906C36.4 38.4706 36.6583 38.5379 36.8719 38.6812C37.0855 38.8244 37.2414 39.0348 37.3131 39.2766V39.2888ZM39.5737 41.2134V40.8082C39.3757 40.7961 39.1772 40.7961 38.9792 40.8082C38.6108 40.8487 38.3889 40.9743 38.3889 41.2701C38.384 41.332 38.3939 41.3942 38.4177 41.4519C38.4416 41.5096 38.4788 41.5611 38.5266 41.6027C38.5743 41.6442 38.6313 41.6745 38.6931 41.6913C38.7549 41.7081 38.8198 41.7109 38.8829 41.6996C39.0355 41.6983 39.1838 41.6512 39.3076 41.5649C39.4313 41.4785 39.5243 41.3571 39.5737 41.2174V41.2134ZM39.9923 40.1802V41.9508C39.9923 41.9872 39.9923 42.0035 39.9295 42.0035H39.6365C39.5946 42.0035 39.5737 42.0035 39.5737 41.9508V41.6145C39.4932 41.7462 39.3787 41.8554 39.2415 41.9314C39.1042 42.0074 38.9489 42.0476 38.7908 42.048C38.6828 42.0585 38.5738 42.0465 38.471 42.0128C38.3682 41.9792 38.274 41.9246 38.1947 41.8529C38.1154 41.7812 38.0529 41.6939 38.0113 41.5969C37.9697 41.4998 37.95 41.3953 37.9536 41.2904C37.9536 40.8163 38.2843 40.557 38.929 40.5084C39.1394 40.4943 39.3507 40.4943 39.5611 40.5084V40.2085C39.5611 39.8682 39.356 39.7264 39.0253 39.7264C38.9076 39.7075 38.7869 39.732 38.6869 39.795C38.587 39.858 38.515 39.9549 38.4852 40.0667C38.4852 40.1113 38.4517 40.1153 38.4015 40.1072L38.1168 40.0303C38.0708 40.0303 38.0582 39.9978 38.0708 39.9614C38.1587 39.6048 38.4894 39.3739 39.0378 39.3739C39.5862 39.3739 39.9923 39.6332 39.9923 40.1842V40.1802ZM41.918 39.3658C42.0633 39.3628 42.2053 39.4072 42.3215 39.4916C42.4376 39.5761 42.5211 39.6959 42.5585 39.8317C42.636 39.6959 42.7484 39.5816 42.8848 39.5C43.0212 39.4184 43.177 39.3722 43.3372 39.3658C43.7558 39.3658 44.0447 39.6737 44.0447 40.1559V41.9427C44.0447 41.9832 44.0196 41.9994 43.9777 41.9994H43.6888C43.6428 41.9994 43.6219 41.9994 43.6219 41.9427V40.2369C43.6219 39.9209 43.4753 39.7507 43.2032 39.7507C43.067 39.7658 42.9386 39.8202 42.8348 39.9069C42.731 39.9937 42.6566 40.1087 42.6213 40.2369V41.9508C42.6213 41.9913 42.6213 42.0075 42.5627 42.0075H42.2404C42.1943 42.0075 42.1818 42.0075 42.1818 41.9508V40.2369C42.1818 39.9209 42.0394 39.7507 41.7631 39.7507C41.6282 39.7693 41.5017 39.825 41.3985 39.9112C41.2954 39.9974 41.2199 40.1104 41.1812 40.2369V41.9305C41.1812 41.971 41.1812 41.9872 41.1226 41.9872H40.8045C40.7584 41.9872 40.7458 41.9872 40.7458 41.9305V39.4671C40.7458 39.4347 40.7458 39.4144 40.8045 39.4144H41.1142C41.1603 39.4144 41.1729 39.4347 41.1729 39.4671V39.8074C41.2484 39.6789 41.3563 39.5709 41.4867 39.4937C41.617 39.4165 41.7654 39.3725 41.918 39.3658ZM45.242 40.4152V41.0148C45.2359 41.1013 45.2489 41.1881 45.2801 41.2693C45.3113 41.3506 45.3599 41.4245 45.4229 41.4862C45.4858 41.5479 45.5616 41.5959 45.6451 41.6271C45.7287 41.6583 45.8182 41.672 45.9076 41.6672C46.2927 41.6672 46.523 41.4484 46.523 41.0148V40.4111C46.523 39.9816 46.2927 39.7507 45.9076 39.7507C45.8184 39.7488 45.7298 39.7649 45.6474 39.7981C45.5651 39.8312 45.4908 39.8806 45.4293 39.9432C45.3678 40.0058 45.3205 40.0801 45.2904 40.1613C45.2603 40.2426 45.2481 40.3291 45.2545 40.4152H45.242ZM45.2545 38.4784V39.771C45.3365 39.6416 45.4527 39.5359 45.591 39.4647C45.7294 39.3934 45.885 39.3593 46.0415 39.3658C46.1714 39.3638 46.3003 39.3887 46.4194 39.4387C46.5386 39.4888 46.6453 39.5629 46.7325 39.6561C46.8197 39.7493 46.8853 39.8595 46.925 39.9792C46.9646 40.0989 46.9775 40.2255 46.9625 40.3503V41.0675C46.977 41.1935 46.9633 41.321 46.9224 41.4414C46.8815 41.5618 46.8142 41.6722 46.7253 41.7652C46.6363 41.8583 46.5277 41.9317 46.4068 41.9805C46.286 42.0292 46.1557 42.0523 46.0248 42.048C45.8696 42.0531 45.7158 42.0182 45.579 41.9471C45.4423 41.8759 45.3274 41.7709 45.2461 41.6429V41.9427C45.2461 41.9791 45.2168 41.9913 45.1875 41.9913H44.8777C44.8401 41.9913 44.8191 41.9913 44.8191 41.9427V38.4784C44.8185 38.4714 44.8195 38.4643 44.822 38.4576C44.8245 38.4509 44.8285 38.4449 44.8337 38.4398C44.8389 38.4348 44.8451 38.431 44.852 38.4285C44.8589 38.4261 44.8663 38.4252 44.8736 38.4258H45.2043C45.242 38.4258 45.2545 38.4258 45.2545 38.4784ZM48.0845 38.4784V41.9427C48.0845 41.9832 48.0845 41.9994 48.0259 41.9994H47.7077C47.6575 41.9994 47.6449 41.9994 47.6449 41.9427V38.4784C47.6449 38.442 47.6449 38.4217 47.7077 38.4217H48.0259C48.0339 38.4203 48.0422 38.4207 48.05 38.4231C48.0578 38.4254 48.0648 38.4296 48.0706 38.4351C48.0764 38.4407 48.0807 38.4476 48.0831 38.4551C48.0855 38.4627 48.086 38.4707 48.0845 38.4784ZM49.2566 39.4711V41.9467C49.2566 41.9832 49.2567 41.9994 49.2022 41.9994H48.8841C48.8338 41.9994 48.8213 41.9994 48.8213 41.9467V39.4711C48.8213 39.4347 48.8213 39.4185 48.8841 39.4185H49.2022C49.2441 39.4185 49.2566 39.4185 49.2566 39.4711ZM49.2566 38.4947V38.9485C49.2566 38.993 49.2566 39.0173 49.1855 39.0173H48.8924C48.8828 39.0187 48.8729 39.0178 48.8636 39.0149C48.8544 39.0119 48.8459 39.0068 48.839 39.0002C48.8321 38.9935 48.8269 38.9853 48.8238 38.9763C48.8207 38.9674 48.8199 38.9578 48.8213 38.9485V38.4947C48.8199 38.4853 48.8207 38.4757 48.8238 38.4668C48.8269 38.4578 48.8321 38.4496 48.839 38.4429C48.8459 38.4363 48.8544 38.4312 48.8636 38.4282C48.8729 38.4253 48.8828 38.4244 48.8924 38.4258H49.1855C49.2399 38.4258 49.2566 38.4501 49.2566 38.4947ZM50.4498 40.2572V41.9467C50.4498 41.9832 50.4498 41.9994 50.3953 41.9994H50.0939C50.0437 41.9994 50.0311 41.9994 50.0311 41.9467V39.4671C50.0311 39.4347 50.0311 39.4144 50.0897 39.4144H50.3995C50.4456 39.4144 50.4581 39.4347 50.4581 39.4671V39.8074C50.5498 39.6732 50.674 39.5628 50.82 39.4858C50.9659 39.4088 51.1292 39.3676 51.2954 39.3658C51.4074 39.3629 51.5188 39.3838 51.6217 39.4268C51.7245 39.4699 51.8164 39.5342 51.891 39.6152C51.9655 39.6963 52.0209 39.7921 52.0532 39.8959C52.0856 39.9998 52.0941 40.1093 52.0782 40.2166V41.9467C52.0782 41.9832 52.0782 41.9994 52.0154 41.9994H51.6973C51.6554 41.9994 51.6345 41.9994 51.6345 41.9467V40.2855C51.6345 39.9533 51.4796 39.7588 51.1447 39.7588C50.994 39.7679 50.8494 39.8201 50.7294 39.9088C50.6094 39.9975 50.5194 40.1188 50.4707 40.2572H50.4498ZM53.1081 40.2977C53.1013 40.3745 53.1123 40.4519 53.1402 40.5241C53.1682 40.5963 53.2125 40.6616 53.2699 40.7152C53.3272 40.7687 53.3962 40.8093 53.4718 40.8338C53.5473 40.8583 53.6276 40.8661 53.7067 40.8568C53.7837 40.8666 53.8619 40.8592 53.9355 40.8353C54.0091 40.8113 54.0761 40.7715 54.1314 40.7188C54.1867 40.666 54.2288 40.6018 54.2546 40.5309C54.2804 40.4601 54.2892 40.3845 54.2802 40.3098C54.2802 40.1594 54.2185 40.0151 54.1086 39.9087C53.9987 39.8024 53.8496 39.7426 53.6942 39.7426C53.5387 39.7426 53.3896 39.8024 53.2797 39.9087C53.1698 40.0151 53.1081 40.1594 53.1081 40.3098V40.2977ZM54.5105 42.2547C54.5105 42.0683 54.4016 41.8941 54.0081 41.8941H53.5183C53.1499 41.8941 53.0369 42.0764 53.0369 42.2628C53.0369 42.5221 53.2462 42.6922 53.7611 42.6922C54.2761 42.6922 54.5105 42.514 54.5105 42.2547ZM54.9291 42.2263C54.9291 42.6315 54.6026 43.0002 53.736 43.0002C52.9364 43.0002 52.6225 42.7085 52.6225 42.3033C52.6242 42.1797 52.6653 42.0596 52.7403 41.9595C52.8152 41.8595 52.9203 41.7842 53.0411 41.7441C52.9861 41.7068 52.9405 41.6579 52.9079 41.601C52.8752 41.5442 52.8564 41.4809 52.8527 41.416C52.8558 41.336 52.8832 41.2586 52.9317 41.1937C52.9801 41.1288 53.0473 41.0793 53.1248 41.0513C52.992 40.9773 52.8827 40.8693 52.8089 40.7393C52.735 40.6093 52.6995 40.4621 52.7062 40.3139C52.6995 40.1889 52.7213 40.064 52.7702 39.9482C52.819 39.8323 52.8937 39.7283 52.9888 39.6435C53.084 39.5588 53.1973 39.4954 53.3207 39.4579C53.444 39.4204 53.5744 39.4097 53.7025 39.4266H54.8705C54.904 39.4266 54.9208 39.4468 54.9208 39.4833V39.7142C54.9208 39.7588 54.8956 39.775 54.8621 39.775H54.3975C54.4876 39.8469 54.5592 39.9382 54.6065 40.0416C54.6537 40.145 54.6753 40.2577 54.6696 40.3706C54.6696 40.8487 54.3389 41.181 53.7025 41.181H53.4848C53.3006 41.181 53.2211 41.262 53.2211 41.3592C53.2211 41.4565 53.3048 41.5375 53.4848 41.5375H54.0584C54.6863 41.5375 54.9333 41.8414 54.9333 42.2182L54.9291 42.2263ZM58.9271 39.2199C58.9313 39.2278 58.9334 39.2366 58.9332 39.2454C58.933 39.2543 58.9305 39.263 58.9259 39.2707C58.9213 39.2783 58.9148 39.2848 58.9069 39.2894C58.8991 39.2939 58.8902 39.2965 58.881 39.2969L58.6089 39.3982C58.6004 39.4014 58.5913 39.4028 58.5822 39.4025C58.5731 39.4022 58.5642 39.4001 58.5559 39.3963C58.5477 39.3925 58.5404 39.3871 58.5343 39.3805C58.5283 39.3738 58.5238 39.3661 58.521 39.3577C58.4746 39.2183 58.3815 39.0979 58.2563 39.0157C58.1312 38.9335 57.9812 38.8941 57.8302 38.9039C57.4116 38.9039 57.173 39.0943 57.173 39.4063C57.173 39.7183 57.3488 39.8115 58.0103 40.0708C58.6717 40.3301 58.9564 40.6056 58.9564 41.0878C58.9527 41.2264 58.9192 41.3628 58.858 41.4882C58.7967 41.6136 58.7092 41.7252 58.6008 41.816C58.4924 41.9068 58.3657 41.9746 58.2287 42.0153C58.0917 42.0559 57.9474 42.0685 57.8051 42.0521C57.545 42.0778 57.284 42.0127 57.069 41.8686C56.8541 41.7245 56.6995 41.5108 56.633 41.266C56.633 41.2174 56.633 41.1972 56.6748 41.181L56.9595 41.0918C57.0139 41.0918 57.0348 41.0918 57.0474 41.1404C57.088 41.3001 57.1874 41.44 57.3268 41.534C57.4663 41.6279 57.6363 41.6695 57.8051 41.651C58.2238 41.651 58.4959 41.4484 58.4959 41.1202C58.4959 40.792 58.3368 40.6745 57.7298 40.4476C57.0014 40.168 56.7251 39.8925 56.7251 39.4144C56.7304 39.2821 56.764 39.1523 56.8239 39.0332C56.8838 38.9142 56.9685 38.8084 57.0728 38.7227C57.1771 38.637 57.2987 38.5732 57.4298 38.5353C57.5609 38.4975 57.6987 38.4864 57.8344 38.5028C58.0742 38.4867 58.3127 38.5485 58.5122 38.6784C58.7116 38.8083 58.8605 38.9988 58.9354 39.2199H58.9271ZM59.6011 41.2012V39.4711C59.6011 39.4347 59.622 39.4144 59.6639 39.4144H59.982C60.0239 39.4144 60.0448 39.4347 60.0448 39.4711V41.1283C60.0448 41.4646 60.1997 41.6591 60.5304 41.6591C60.682 41.6508 60.8274 41.5984 60.9477 41.5087C61.068 41.4191 61.1574 41.2964 61.2044 41.1566V39.4711C61.2044 39.4347 61.2044 39.4144 61.2672 39.4144H61.5812C61.6314 39.4144 61.644 39.4347 61.644 39.4711V41.9427C61.644 41.9791 61.644 41.9994 61.5854 41.9994H61.2756C61.2676 42.0009 61.2593 42.0004 61.2515 41.9981C61.2437 41.9957 61.2366 41.9916 61.2308 41.986C61.2251 41.9804 61.2208 41.9735 61.2184 41.966C61.216 41.9584 61.2155 41.9504 61.217 41.9427V41.6064C61.1264 41.7419 61.0024 41.8535 60.8563 41.9312C60.7102 42.009 60.5465 42.0505 60.3797 42.0521C60.2679 42.0542 60.1569 42.0329 60.0544 41.9896C59.9518 41.9463 59.8602 41.882 59.7858 41.8011C59.7114 41.7203 59.656 41.6248 59.6234 41.5212C59.5908 41.4177 59.5817 41.3085 59.5969 41.2012H59.6011ZM64.1014 41.0108V40.3949C64.1148 40.3114 64.1086 40.2259 64.0832 40.145C64.0578 40.0641 64.014 39.9897 63.9549 39.9274C63.8958 39.8652 63.8229 39.8166 63.7417 39.7853C63.6606 39.754 63.5731 39.7408 63.486 39.7466C63.3979 39.7442 63.3103 39.7596 63.2288 39.7918C63.1472 39.8241 63.0735 39.8725 63.0124 39.9339C62.9513 39.9953 62.9042 40.0684 62.874 40.1485C62.8438 40.2286 62.8312 40.3139 62.8371 40.399V41.0067C62.8306 41.0927 62.8428 41.1789 62.873 41.26C62.9031 41.3411 62.9505 41.4151 63.012 41.4774C63.0736 41.5396 63.1479 41.5887 63.2303 41.6214C63.3127 41.6541 63.4012 41.6697 63.4902 41.6672C63.8753 41.6672 64.1056 41.4403 64.1056 41.0108H64.1014ZM62.4561 42.9435C62.4488 42.9441 62.4415 42.9431 62.4346 42.9407C62.4277 42.9383 62.4214 42.9344 62.4162 42.9294C62.4111 42.9244 62.4071 42.9183 62.4046 42.9117C62.4021 42.905 62.4011 42.8979 62.4017 42.8908V39.4671C62.4017 39.4306 62.4226 39.4144 62.4603 39.4144H62.7701C62.7777 39.4131 62.7856 39.4136 62.793 39.4157C62.8004 39.4178 62.8072 39.4216 62.8129 39.4267C62.8186 39.4318 62.823 39.4381 62.8257 39.4451C62.8285 39.4521 62.8295 39.4596 62.8287 39.4671V39.7588C62.9115 39.6321 63.0267 39.5283 63.1631 39.4573C63.2995 39.3863 63.4525 39.3506 63.6074 39.3536C63.7379 39.3494 63.8678 39.3724 63.9883 39.4209C64.1089 39.4695 64.2172 39.5425 64.3061 39.6351C64.395 39.7276 64.4623 39.8376 64.5036 39.9575C64.5448 40.0774 64.559 40.2044 64.5451 40.3301V41.0554C64.5593 41.1801 64.546 41.3064 64.5061 41.4258C64.4662 41.5452 64.4005 41.6551 64.3135 41.7482C64.2264 41.8412 64.12 41.9154 64.0012 41.9656C63.8823 42.0159 63.7538 42.0413 63.6241 42.0399C63.4679 42.0474 63.3126 42.0137 63.1747 41.9423C63.0368 41.8709 62.9216 41.7646 62.8413 41.6347V42.8746C62.8419 42.8817 62.841 42.8888 62.8384 42.8954C62.8359 42.9021 62.8319 42.9082 62.8268 42.9132C62.8216 42.9182 62.8153 42.9221 62.8084 42.9245C62.8015 42.9269 62.7942 42.9279 62.7869 42.9273L62.4561 42.9435ZM66.9397 41.0108V40.3949C66.9531 40.3114 66.9469 40.2259 66.9215 40.145C66.8962 40.0641 66.8523 39.9897 66.7932 39.9274C66.7341 39.8652 66.6612 39.8166 66.5801 39.7853C66.4989 39.754 66.4115 39.7408 66.3243 39.7466C66.2363 39.7442 66.1486 39.7596 66.0671 39.7918C65.9855 39.8241 65.9119 39.8725 65.8508 39.9339C65.7897 39.9953 65.7425 40.0684 65.7123 40.1485C65.6821 40.2286 65.6696 40.3139 65.6754 40.399V41.0067C65.669 41.0923 65.6811 41.1782 65.711 41.259C65.7409 41.3398 65.7879 41.4137 65.8489 41.4758C65.91 41.538 65.9839 41.5872 66.0657 41.6201C66.1476 41.6531 66.2357 41.6691 66.3243 41.6672C66.7095 41.6672 66.9397 41.4403 66.9397 41.0108ZM65.2903 42.9435C65.283 42.9441 65.2756 42.9431 65.2687 42.9407C65.2618 42.9383 65.2556 42.9344 65.2504 42.9294C65.2452 42.9244 65.2412 42.9183 65.2387 42.9117C65.2362 42.905 65.2352 42.8979 65.2359 42.8908V39.4671C65.2359 39.4306 65.2568 39.4144 65.2945 39.4144H65.6043C65.6119 39.4131 65.6197 39.4136 65.6271 39.4157C65.6346 39.4178 65.6414 39.4216 65.6471 39.4267C65.6527 39.4318 65.6571 39.4381 65.6599 39.4451C65.6626 39.4521 65.6636 39.4596 65.6629 39.4671V39.7588C65.7457 39.6321 65.8609 39.5283 65.9973 39.4573C66.1337 39.3863 66.2867 39.3506 66.4415 39.3536C66.5724 39.3488 66.7027 39.3714 66.8238 39.4196C66.9448 39.4679 67.0537 39.5409 67.1431 39.6335C67.2324 39.7261 67.3001 39.8363 67.3416 39.9565C67.3831 40.0767 67.3974 40.2041 67.3834 40.3301V41.0554C67.3977 41.1805 67.3843 41.3071 67.3441 41.4268C67.304 41.5465 67.2379 41.6566 67.1504 41.7497C67.0629 41.8428 66.956 41.9169 66.8366 41.9669C66.7173 42.0169 66.5883 42.0418 66.4583 42.0399C66.3022 42.0465 66.1472 42.0124 66.0095 41.9411C65.8718 41.8699 65.7564 41.764 65.6754 41.6347V42.8746C65.6761 42.8817 65.6751 42.8888 65.6726 42.8954C65.6701 42.9021 65.6661 42.9082 65.6609 42.9132C65.6557 42.9182 65.6495 42.9221 65.6426 42.9245C65.6357 42.9269 65.6283 42.9279 65.621 42.9273L65.2903 42.9435ZM68.4468 40.3909V41.0472C68.4468 41.2117 68.5143 41.3693 68.6344 41.4856C68.7545 41.6019 68.9174 41.6672 69.0873 41.6672C69.2572 41.6672 69.4201 41.6019 69.5402 41.4856C69.6603 41.3693 69.7278 41.2117 69.7278 41.0472V40.3909C69.7278 40.2265 69.6603 40.0688 69.5402 39.9525C69.4201 39.8363 69.2572 39.771 69.0873 39.771C68.9174 39.771 68.7545 39.8363 68.6344 39.9525C68.5143 40.0688 68.4468 40.2265 68.4468 40.3909ZM70.1674 40.3706V41.0472C70.1674 41.3245 70.0536 41.5904 69.851 41.7864C69.6485 41.9825 69.3737 42.0926 69.0873 42.0926C68.8008 42.0926 68.5261 41.9825 68.3236 41.7864C68.121 41.5904 68.0072 41.3245 68.0072 41.0472V40.3828C68.0072 40.1055 68.121 39.8396 68.3236 39.6436C68.5261 39.4476 68.8008 39.3374 69.0873 39.3374C69.3737 39.3374 69.6485 39.4476 69.851 39.6436C70.0536 39.8396 70.1674 40.1055 70.1674 40.3828V40.3706ZM72.1726 39.4266V39.7142C72.1726 39.7588 72.1726 39.775 72.1056 39.775H72.0512C71.8838 39.7695 71.719 39.8167 71.5817 39.9094C71.4443 40.0022 71.3417 40.1356 71.2893 40.2896V41.9346C71.2893 41.971 71.2642 41.9832 71.2349 41.9832H70.9042C70.8974 41.9838 70.8906 41.983 70.8842 41.9808C70.8778 41.9786 70.872 41.975 70.8672 41.9703C70.8624 41.9657 70.8587 41.9601 70.8564 41.9539C70.8541 41.9477 70.8533 41.9411 70.8539 41.9346V39.4671C70.8539 39.4266 70.8539 39.4144 70.9125 39.4144H71.2139C71.2558 39.4144 71.2767 39.4347 71.2767 39.4711V39.8763C71.3534 39.7263 71.4732 39.601 71.6217 39.5154C71.7703 39.4299 71.9413 39.3878 72.114 39.3941C72.1768 39.3941 72.1935 39.3941 72.1935 39.4549L72.1726 39.4266ZM73.4494 38.8066V39.4266H74.0188C74.0606 39.4266 74.0774 39.4468 74.0774 39.4914V39.7223C74.0774 39.7669 74.0774 39.7831 74.0188 39.7831H73.4494V41.2782C73.4494 41.5091 73.5792 41.6145 73.822 41.6145H74.0146C74.0565 41.6145 74.0774 41.6145 74.0774 41.6712V41.9346C74.0774 41.9791 74.0774 41.9954 74.0146 41.9954H73.7592C73.6641 42.0087 73.5671 42.0014 73.4752 41.9741C73.3834 41.9467 73.2989 41.8999 73.228 41.8371C73.1571 41.7743 73.1015 41.697 73.0652 41.6109C73.029 41.5247 73.0129 41.4319 73.0182 41.339V39.7872H72.654C72.6205 39.7872 72.5996 39.7872 72.5996 39.7264V39.4954C72.5996 39.4509 72.6205 39.4306 72.654 39.4306H73.0224V38.8066C73.0224 38.7742 73.0224 38.754 73.0852 38.754H73.3866C73.4369 38.754 73.4494 38.754 73.4494 38.8066ZM78.247 39.2483C78.247 39.2969 78.247 39.3334 78.1758 39.3536L77.7069 39.5197C77.6953 39.5256 77.6825 39.529 77.6694 39.5294C77.6562 39.5299 77.6432 39.5275 77.6311 39.5225C77.6191 39.5174 77.6084 39.5098 77.5997 39.5002C77.5911 39.4907 77.5848 39.4793 77.5813 39.4671C77.542 39.3642 77.4684 39.2769 77.3721 39.2189C77.2759 39.161 77.1624 39.1357 77.0497 39.147C76.7608 39.147 76.5724 39.2807 76.5724 39.4833C76.5724 39.6859 76.719 39.771 77.3678 39.9897C78.0167 40.2085 78.2805 40.5084 78.2805 41.0067C78.2805 41.6023 77.753 42.0561 76.9911 42.0561C76.7096 42.0891 76.4252 42.0229 76.19 41.8696C75.9548 41.7164 75.7844 41.4863 75.7101 41.2215C75.7062 41.2111 75.7045 41.2001 75.7051 41.1891C75.7058 41.1781 75.7087 41.1673 75.7138 41.1575C75.7189 41.1476 75.726 41.1388 75.7347 41.1317C75.7435 41.1246 75.7536 41.1193 75.7645 41.1161L76.271 40.9541C76.338 40.9338 76.3715 40.9541 76.3882 41.0189C76.451 41.2822 76.6436 41.4241 76.9869 41.4241C77.3302 41.4241 77.5102 41.2822 77.5102 41.0716C77.5102 40.8609 77.3804 40.7879 76.8529 40.6097C76.0952 40.3463 75.8063 40.0546 75.8063 39.5116C75.8173 39.3675 75.858 39.227 75.926 39.0984C75.9941 38.9698 76.088 38.8557 76.2023 38.7628C76.3167 38.6699 76.4491 38.6001 76.5917 38.5575C76.7344 38.5149 76.8844 38.5005 77.0329 38.5149C77.2929 38.4899 77.5539 38.5502 77.7741 38.6861C77.9943 38.8221 78.1609 39.0258 78.247 39.2645V39.2483ZM79.7541 38.8431V39.4266H80.2564C80.2672 39.4252 80.2781 39.4263 80.2884 39.4297C80.2987 39.4331 80.308 39.4388 80.3157 39.4462C80.3233 39.4536 80.3292 39.4626 80.3327 39.4726C80.3362 39.4825 80.3373 39.4931 80.336 39.5035V39.929C80.3366 39.9391 80.335 39.9492 80.3312 39.9586C80.3274 39.9681 80.3215 39.9766 80.3139 39.9835C80.3063 39.9905 80.2972 39.9957 80.2873 39.9989C80.2773 40.0021 80.2668 40.0031 80.2564 40.0019H79.7541V41.1566C79.7541 41.3066 79.8378 41.3916 80.0387 41.3916H80.2564C80.3066 41.3916 80.336 41.416 80.336 41.4605V41.9427C80.336 41.9913 80.3066 42.0116 80.2564 42.0116H79.9215C79.3187 42.0116 79.034 41.7036 79.034 41.2498V39.9897H78.7242C78.7138 39.991 78.7033 39.9899 78.6934 39.9868C78.6834 39.9836 78.6743 39.9783 78.6667 39.9714C78.6591 39.9644 78.6532 39.9559 78.6494 39.9465C78.6456 39.937 78.644 39.9269 78.6447 39.9168V39.4914C78.6433 39.481 78.6444 39.4704 78.6479 39.4604C78.6515 39.4505 78.6573 39.4415 78.665 39.434C78.6726 39.4266 78.682 39.421 78.6922 39.4176C78.7025 39.4142 78.7134 39.4131 78.7242 39.4144H79.0466V38.8431C79.0453 38.8336 79.0462 38.8239 79.0493 38.8148C79.0524 38.8057 79.0575 38.7973 79.0643 38.7903C79.0711 38.7834 79.0794 38.7779 79.0887 38.7744C79.0979 38.771 79.1078 38.7695 79.1177 38.7702H79.6871C79.7331 38.7702 79.7541 38.7985 79.7541 38.8431ZM82.2742 41.1202V40.8771C82.1348 40.8691 81.995 40.8691 81.8556 40.8771C81.5835 40.9095 81.437 40.9905 81.437 41.1931C81.437 41.3957 81.5625 41.4767 81.7719 41.4767C81.8871 41.4783 81.9995 41.4429 82.0919 41.3763C82.1842 41.3096 82.2513 41.2153 82.2826 41.108L82.2742 41.1202ZM82.9985 40.2166V41.9184C82.9985 41.9278 82.9965 41.9371 82.9927 41.9457C82.9888 41.9543 82.9832 41.9621 82.9762 41.9686C82.9691 41.975 82.9607 41.98 82.9516 41.9832C82.9425 41.9864 82.9328 41.9878 82.9231 41.9872H82.3872C82.3776 41.9878 82.3679 41.9864 82.3587 41.9832C82.3496 41.98 82.3413 41.975 82.3342 41.9686C82.3271 41.9621 82.3215 41.9543 82.3177 41.9457C82.3139 41.9371 82.3119 41.9278 82.3119 41.9184V41.6388C82.2371 41.7643 82.1289 41.868 81.9986 41.9393C81.8682 42.0106 81.7206 42.0467 81.5709 42.044C81.4587 42.0525 81.3459 42.0374 81.2404 41.9997C81.1348 41.962 81.0389 41.9026 80.9593 41.8256C80.8797 41.7485 80.8184 41.6557 80.7794 41.5535C80.7404 41.4514 80.7248 41.3422 80.7337 41.2336C80.7337 40.7596 81.0434 40.48 81.7928 40.4233C81.9543 40.4091 82.1169 40.4091 82.2784 40.4233V40.2369C82.2855 40.1886 82.2809 40.1394 82.2648 40.0932C82.2488 40.047 82.2218 40.0051 82.1859 39.9709C82.1501 39.9366 82.1065 39.9109 82.0586 39.8959C82.0107 39.8809 81.9598 39.8769 81.91 39.8844C81.8285 39.8737 81.7458 39.8921 81.6773 39.9361C81.6087 39.9801 81.559 40.0467 81.5374 40.1235C81.5123 40.1802 81.4956 40.1923 81.4411 40.1761L80.9053 40.0465C80.8509 40.0465 80.8467 40.0019 80.8592 39.9654C80.9304 39.5927 81.2779 39.3212 81.9351 39.3212C82.5924 39.3212 82.9943 39.6291 82.9943 40.2126L82.9985 40.2166ZM85.1795 39.4266V39.933C85.1795 39.9938 85.1544 40.0141 85.0916 40.0141H85.0121C84.8591 39.9954 84.7043 40.0311 84.5765 40.1145C84.4487 40.198 84.3565 40.3236 84.3171 40.4678V41.9184C84.3183 41.927 84.3176 41.9358 84.315 41.9441C84.3124 41.9525 84.308 41.9602 84.302 41.9667C84.296 41.9732 84.2887 41.9784 84.2805 41.982C84.2723 41.9855 84.2634 41.9873 84.2544 41.9872H83.6431C83.6341 41.9873 83.6252 41.9855 83.617 41.982C83.6088 41.9784 83.6015 41.9732 83.5955 41.9667C83.5895 41.9602 83.5851 41.9525 83.5825 41.9441C83.5799 41.9358 83.5792 41.927 83.5804 41.9184V39.4468C83.5796 39.4378 83.581 39.4287 83.5844 39.4202C83.5878 39.4118 83.5931 39.4042 83.5999 39.3979C83.6068 39.3917 83.6149 39.3871 83.6239 39.3843C83.6328 39.3815 83.6422 39.3807 83.6515 39.382H84.2083C84.2182 39.3813 84.2281 39.3828 84.2374 39.3862C84.2466 39.3897 84.2549 39.3952 84.2617 39.4021C84.2685 39.4091 84.2737 39.4175 84.2767 39.4266C84.2798 39.4357 84.2807 39.4454 84.2795 39.4549V39.8317C84.35 39.6902 84.4616 39.5715 84.6006 39.4902C84.7396 39.4089 84.9 39.3685 85.0623 39.3739C85.1586 39.3739 85.1795 39.3739 85.1795 39.4549V39.4266ZM86.6113 38.8431V39.4266H87.1136C87.1241 39.4259 87.1345 39.4275 87.1443 39.4311C87.154 39.4348 87.1628 39.4406 87.17 39.4479C87.1772 39.4553 87.1826 39.4641 87.1859 39.4737C87.1892 39.4833 87.1902 39.4935 87.189 39.5035V39.929C87.1903 39.9389 87.1894 39.9489 87.1861 39.9584C87.1828 39.9678 87.1772 39.9764 87.17 39.9835C87.1627 39.9906 87.1538 39.9959 87.144 39.9991C87.1342 40.0023 87.1238 40.0032 87.1136 40.0019H86.6113V41.1566C86.6113 41.3066 86.695 41.3916 86.8917 41.3916H87.1136C87.1234 41.3904 87.1334 41.3913 87.1429 41.3943C87.1523 41.3973 87.1609 41.4022 87.1681 41.4088C87.1754 41.4154 87.181 41.4235 87.1846 41.4324C87.1882 41.4413 87.1897 41.451 87.189 41.4605V41.9427C87.189 41.9913 87.1597 42.0116 87.1136 42.0116H86.7745C86.1717 42.0116 85.8912 41.7036 85.8912 41.2498V39.9897H85.5772C85.567 39.9911 85.5566 39.9901 85.5468 39.9869C85.5371 39.9837 85.5282 39.9784 85.5209 39.9713C85.5136 39.9643 85.5081 39.9557 85.5048 39.9462C85.5015 39.9368 85.5005 39.9267 85.5019 39.9168V39.4914C85.5006 39.4813 85.5017 39.4711 85.505 39.4615C85.5082 39.4519 85.5137 39.4431 85.5209 39.4358C85.5281 39.4284 85.5368 39.4227 85.5466 39.419C85.5563 39.4153 85.5668 39.4137 85.5772 39.4144H85.8996V38.8431C85.8982 38.8332 85.8992 38.8231 85.9025 38.8137C85.9058 38.8042 85.9113 38.7956 85.9186 38.7886C85.9259 38.7815 85.9348 38.7762 85.9445 38.773C85.9543 38.7698 85.9647 38.7688 85.9749 38.7702H86.5443C86.5538 38.7701 86.5633 38.772 86.572 38.7758C86.5807 38.7795 86.5885 38.785 86.5949 38.7919C86.6012 38.7988 86.6059 38.807 86.6088 38.8158C86.6116 38.8246 86.6124 38.8339 86.6113 38.8431ZM89.7929 39.9735C89.7929 40.0141 89.7929 40.0505 89.7343 40.0667L89.2863 40.2207C89.2361 40.2207 89.211 40.2207 89.19 40.168C89.1562 40.0786 89.0926 40.0026 89.0092 39.952C88.9258 39.9014 88.8275 39.879 88.7295 39.8885C88.4993 39.8885 88.3653 39.9735 88.3653 40.1032C88.3653 40.2328 88.4616 40.2815 88.9765 40.4152C89.5752 40.5691 89.8138 40.8203 89.8138 41.2255C89.8138 41.7279 89.3952 42.0359 88.7253 42.0359C88.0555 42.0359 87.7039 41.8049 87.5657 41.4079C87.5657 41.3511 87.5657 41.3228 87.6369 41.2944L88.0304 41.108C88.089 41.0797 88.1225 41.108 88.1518 41.1647C88.1952 41.2674 88.2715 41.3539 88.3695 41.4115C88.4674 41.4691 88.5819 41.4948 88.696 41.4848C88.9682 41.4848 89.1147 41.3997 89.1147 41.2579C89.1147 41.1161 88.964 41.0472 88.4825 40.9176C87.8923 40.7677 87.6453 40.5124 87.6453 40.1072C87.6453 39.6129 88.0639 39.2969 88.6919 39.2969C88.92 39.2746 89.1494 39.3246 89.3457 39.4393C89.542 39.554 89.6945 39.7273 89.7803 39.933L89.7929 39.9735ZM94.3015 38.6162V41.9224C94.3015 41.9629 94.3015 41.9913 94.2262 41.9913H93.6317C93.622 41.9919 93.6123 41.9905 93.6032 41.9873C93.5941 41.9841 93.5857 41.9791 93.5787 41.9726C93.5716 41.9662 93.566 41.9584 93.5622 41.9498C93.5583 41.9411 93.5564 41.9318 93.5564 41.9224V40.6178H92.3298V41.9305C92.3305 41.9401 92.329 41.9497 92.3254 41.9586C92.3218 41.9676 92.3162 41.9756 92.309 41.9822C92.3017 41.9888 92.2931 41.9938 92.2837 41.9968C92.2743 41.9997 92.2643 42.0006 92.2544 41.9994H91.6432C91.6335 42 91.6238 41.9986 91.6147 41.9954C91.6056 41.9922 91.5972 41.9872 91.5902 41.9807C91.5831 41.9743 91.5775 41.9665 91.5737 41.9579C91.5698 41.9492 91.5679 41.9399 91.5679 41.9305V38.6162C91.5678 38.6064 91.5699 38.5968 91.574 38.5878C91.5781 38.5789 91.5841 38.5709 91.5916 38.5644C91.5991 38.5579 91.608 38.553 91.6176 38.5501C91.6272 38.5471 91.6374 38.5462 91.6474 38.5473H92.2544C92.2643 38.5461 92.2743 38.547 92.2837 38.55C92.2931 38.5529 92.3017 38.5579 92.309 38.5645C92.3162 38.5711 92.3218 38.5791 92.3254 38.5881C92.329 38.597 92.3305 38.6066 92.3298 38.6162V39.929H93.5564V38.6162C93.5564 38.6068 93.5583 38.5975 93.5622 38.5889C93.566 38.5802 93.5716 38.5725 93.5787 38.566C93.5857 38.5596 93.5941 38.5546 93.6032 38.5514C93.6123 38.5481 93.622 38.5468 93.6317 38.5473H94.2387C94.2932 38.5473 94.3141 38.5757 94.3141 38.6162H94.3015ZM95.5951 40.3625V40.4516H96.5328V40.3625C96.5409 40.3014 96.5345 40.2393 96.5141 40.181C96.4937 40.1226 96.4598 40.0696 96.4149 40.0258C96.3701 39.9821 96.3156 39.9488 96.2555 39.9285C96.1954 39.9082 96.1314 39.9014 96.0682 39.9087C96.0043 39.9001 95.9393 39.9058 95.8781 39.9255C95.8169 39.9452 95.7613 39.9783 95.7155 40.0222C95.6697 40.0661 95.635 40.1197 95.6142 40.1787C95.5933 40.2377 95.5868 40.3006 95.5951 40.3625ZM95.5951 40.9135V41.0108C95.5838 41.0751 95.5888 41.1412 95.6096 41.2033C95.6303 41.2654 95.6663 41.3217 95.7144 41.3674C95.7625 41.4132 95.8213 41.447 95.8858 41.4661C95.9503 41.4851 96.0186 41.4887 96.0849 41.4767C96.1901 41.4924 96.2978 41.4738 96.3909 41.424C96.4841 41.3741 96.5576 41.2958 96.5998 41.2012C96.6459 41.1283 96.6668 41.1202 96.7422 41.1526L97.1273 41.343C97.2069 41.3795 97.211 41.416 97.1775 41.4889C97.0716 41.6765 96.9114 41.8302 96.7166 41.9309C96.5218 42.0317 96.3008 42.0752 96.0807 42.0561C95.9278 42.0758 95.7723 42.0628 95.6252 42.0181C95.478 41.9733 95.3428 41.8978 95.229 41.797C95.1153 41.6962 95.0258 41.5724 94.9668 41.4345C94.9078 41.2966 94.8808 41.1478 94.8876 40.9986V40.3949C94.8803 40.2467 94.9066 40.0988 94.9646 39.9615C95.0226 39.8242 95.111 39.7009 95.2235 39.6001C95.3359 39.4993 95.4698 39.4236 95.6158 39.3782C95.7617 39.3329 95.9161 39.3189 96.0682 39.3374C96.2159 39.3232 96.3651 39.3401 96.5055 39.3869C96.646 39.4337 96.7742 39.5093 96.8816 39.6086C96.989 39.7079 97.0729 39.8285 97.1276 39.9621C97.1823 40.0958 97.2065 40.2392 97.1985 40.3828V40.7879C97.1985 40.8568 97.1734 40.9054 97.0687 40.9054L95.5951 40.9135ZM99.3209 39.4266V39.933C99.3209 39.9938 99.3 40.0141 99.233 40.0141H99.1577C99.0047 39.9954 98.8499 40.0311 98.7221 40.1145C98.5943 40.198 98.5021 40.3236 98.4627 40.4678V41.9184C98.4633 41.9269 98.4621 41.9354 98.4593 41.9435C98.4564 41.9516 98.452 41.959 98.4461 41.9654C98.4403 41.9718 98.4332 41.9771 98.4253 41.9808C98.4174 41.9845 98.4088 41.9867 98.4 41.9872H97.7846C97.7756 41.9873 97.7667 41.9855 97.7584 41.982C97.7502 41.9784 97.7429 41.9732 97.7369 41.9667C97.731 41.9602 97.7265 41.9525 97.7239 41.9441C97.7213 41.9358 97.7206 41.927 97.7218 41.9184V39.4468C97.7211 39.4378 97.7224 39.4287 97.7258 39.4202C97.7292 39.4118 97.7345 39.4042 97.7413 39.3979C97.7482 39.3917 97.7563 39.3871 97.7653 39.3843C97.7742 39.3815 97.7837 39.3807 97.7929 39.382H98.3497C98.4083 39.382 98.4209 39.4185 98.4209 39.4549V39.8317C98.4914 39.6902 98.603 39.5715 98.742 39.4902C98.881 39.4089 99.0414 39.3685 99.2037 39.3739C99.3042 39.3739 99.3209 39.3739 99.3209 39.4549V39.4266ZM100.384 40.3625V40.4516H101.322V40.3625C101.33 40.3014 101.324 40.2393 101.303 40.181C101.283 40.1226 101.249 40.0696 101.204 40.0258C101.159 39.9821 101.105 39.9488 101.045 39.9285C100.985 39.9082 100.921 39.9014 100.857 39.9087C100.793 39.9001 100.728 39.9058 100.667 39.9255C100.606 39.9452 100.55 39.9783 100.505 40.0222C100.459 40.0661 100.424 40.1197 100.403 40.1787C100.382 40.2377 100.376 40.3006 100.384 40.3625ZM100.384 40.9135V41.0108C100.373 41.0751 100.378 41.1412 100.399 41.2033C100.42 41.2654 100.455 41.3217 100.504 41.3674C100.552 41.4132 100.61 41.447 100.675 41.4661C100.739 41.4851 100.808 41.4887 100.874 41.4767C100.98 41.4926 101.088 41.4742 101.182 41.4244C101.276 41.3746 101.35 41.2961 101.393 41.2012C101.435 41.1283 101.456 41.1202 101.531 41.1526L101.916 41.343C101.996 41.3795 102 41.416 101.967 41.4889C101.861 41.6765 101.701 41.8302 101.506 41.9309C101.311 42.0317 101.09 42.0752 100.87 42.0561C100.718 42.0745 100.563 42.0606 100.417 42.0152C100.271 41.9699 100.137 41.8942 100.024 41.7935C99.9111 41.6929 99.8224 41.5696 99.7639 41.4323C99.7054 41.295 99.6785 41.147 99.6852 40.9986V40.3949C99.6779 40.2467 99.7041 40.0988 99.7621 39.9615C99.8202 39.8242 99.9085 39.7009 100.021 39.6001C100.133 39.4993 100.267 39.4236 100.413 39.3782C100.559 39.3329 100.714 39.3189 100.866 39.3374C101.013 39.3232 101.163 39.3401 101.303 39.3869C101.443 39.4337 101.572 39.5093 101.679 39.6086C101.786 39.7079 101.87 39.8285 101.925 39.9621C101.98 40.0958 102.004 40.2392 101.996 40.3828V40.7879C101.996 40.8568 101.971 40.9054 101.866 40.9054L100.384 40.9135Z" fill="white"/>
</g>
</svg>
