<svg width="110" height="60" viewBox="0 0 110 60" fill="none" xmlns="http://www.w3.org/2000/svg">
<mask id="mask0_928_143" style="mask-type:alpha" maskUnits="userSpaceOnUse" x="0" y="0" width="110" height="60">
<rect width="110" height="60" fill="#C4C4C4"/>
</mask>
<g mask="url(#mask0_928_143)">
<path d="M19.7391 37.3263C23.5702 37.3263 26.6759 34.2662 26.6759 30.4913C26.6759 26.7164 23.5702 23.6562 19.7391 23.6562C15.908 23.6562 12.8022 26.7164 12.8022 30.4913C12.8022 34.2662 15.908 37.3263 19.7391 37.3263Z" fill="white"/>
<path d="M19.7396 21.835L22.8942 18.7267V15H16.585V18.7267L19.7396 21.835Z" fill="white"/>
<path d="M15.3467 23.0055L16.5 18.744L14.6004 15.502L9.13916 18.627L11.0387 21.8524L15.3467 23.0055Z" fill="white"/>
<path d="M12.1241 26.1633L10.9708 21.9186L7.68052 20.0469L4.52588 25.428L7.83316 27.2997L12.1241 26.1633Z" fill="white"/>
<path d="M10.9538 30.4912L7.79914 27.3828H4V33.5995H7.79914L10.9538 30.4912Z" fill="white"/>
<path d="M12.1241 34.82L7.83316 33.6836L4.52588 35.5553L7.68052 40.9364L10.9708 39.0647L12.1241 34.82Z" fill="white"/>
<path d="M15.3297 37.9951L11.0387 39.1315L9.13916 42.3736L14.6004 45.4652L16.5 42.2232L15.3297 37.9951Z" fill="white"/>
<path d="M19.7396 39.1484L16.585 42.2568V46.0002H22.8942V42.2568L19.7396 39.1484Z" fill="white"/>
<path d="M24.1318 37.9951L22.9785 42.2232L24.8781 45.4652L30.3393 42.3736L28.4398 39.1315L24.1318 37.9951Z" fill="white"/>
<path d="M27.3374 34.82L28.4907 39.0647L31.781 40.9364L34.9526 35.5553L31.6623 33.6836L27.3374 34.82Z" fill="white"/>
<path d="M28.5249 30.4912L31.6795 33.5995H35.4617V27.3828H31.6795L28.5249 30.4912Z" fill="white"/>
<path d="M27.3374 26.1633L31.6623 27.2997L34.9526 25.428L31.781 20.0469L28.5077 21.9186L27.3374 26.1633Z" fill="white"/>
<path d="M24.1318 23.0055L28.4398 21.8691L30.3393 18.627L24.8781 15.502L22.9785 18.744L24.1318 23.0055Z" fill="white"/>
<path d="M46.3842 18.6934C49.1487 18.6934 50.5225 20.0303 50.5225 20.0303L49.1826 22.4535C49.1826 22.4535 48.2159 21.5009 46.6216 21.5009C44.6203 21.5009 43.8231 22.7041 43.8231 24.0578C43.8231 25.6621 44.8916 26.7985 46.5198 26.7985C47.5205 26.7985 48.3007 26.2804 48.3855 26.1467V25.6788H47.0287V23.4227H51.0313V29.3386H48.4703V28.8874C48.4703 28.7203 48.4873 28.5866 48.5042 28.5532H48.4364C48.3007 28.737 47.4527 29.5225 45.7397 29.5225C42.8564 29.5225 40.4819 27.4001 40.4819 24.1246C40.5328 21.0497 42.8394 18.6934 46.3842 18.6934Z" fill="white"/>
<path d="M64.2093 19.0781H68.7378C71.0274 19.0781 72.5878 20.2981 72.5878 22.4539C72.5878 23.6404 71.9772 24.7434 70.9935 25.3283V25.3617C71.0274 25.4118 71.231 25.6792 71.4514 26.0636L73.2832 29.3558H69.8572L68.229 26.1304H67.347V29.3558H64.1924V19.0781H64.2093ZM68.2968 23.7407C69.0091 23.7407 69.3992 23.3229 69.3992 22.6544C69.3992 22.0027 69.1279 21.5849 68.1781 21.5849H67.347V23.7239L68.2968 23.7407Z" fill="white"/>
<path d="M74.063 19.0781H78.3031C81.5256 19.0781 83.5778 20.9498 83.5778 24.1919C83.5778 27.4339 81.5256 29.3558 78.3031 29.3558H74.063V19.0781ZM78.0996 26.8156C79.5073 26.8156 80.3383 25.9299 80.3383 24.1919C80.3383 22.4706 79.4564 21.6016 78.0996 21.6016H77.2176V26.8156H78.0996Z" fill="white"/>
<path d="M96.7054 19.0781H99.7074L102.285 23.2894C102.709 23.9913 103.032 24.8603 103.032 24.8603H103.083C103.083 24.8603 102.964 23.9412 102.964 23.2894V19.0781H106V29.3558H102.947L100.352 24.9439C99.9788 24.3256 99.6057 23.3897 99.6057 23.3897H99.5548C99.5548 23.3897 99.6735 24.2921 99.6735 24.9439V29.3558H96.6885V19.0781H96.7054Z" fill="white"/>
<path d="M41.3302 31.7109H44.7732L46.0791 35.8554C46.2827 36.5072 46.5031 37.5099 46.5031 37.5099H46.554C46.554 37.5099 46.7745 36.5239 46.978 35.8554L48.284 31.7109H51.71L52.4732 41.9886H49.5391L49.2507 37.7104C49.1999 36.9417 49.2507 36.056 49.2507 36.056H49.1998C49.1998 36.056 48.9454 37.0586 48.725 37.7104L47.7752 40.6349H45.265L44.2983 37.7104C44.0948 37.0586 43.8234 36.056 43.8234 36.056H43.7725C43.7725 36.056 43.8064 36.925 43.7556 37.7104L43.4842 41.9886H40.5161L41.3302 31.7109Z" fill="white"/>
<path d="M58.8499 31.4609C62.2759 31.4609 64.5656 33.7671 64.5656 36.8086C64.5656 39.9337 62.2759 42.2901 58.8499 42.2901C55.4239 42.2901 53.1343 39.9337 53.1343 36.8086C53.1343 33.7671 55.4239 31.4609 58.8499 31.4609ZM58.8499 39.4992C60.2407 39.4992 61.2583 38.413 61.2583 36.8254C61.2583 35.3046 60.2577 34.2685 58.8499 34.2685C57.4422 34.2685 56.4416 35.3046 56.4416 36.8254C56.4416 38.413 57.4592 39.4992 58.8499 39.4992Z" fill="white"/>
<path d="M57.5951 18.877C61.0211 18.877 63.3107 21.1832 63.3107 24.2247C63.3107 27.3497 61.0211 29.7061 57.5951 29.7061C54.169 29.7061 51.8794 27.3497 51.8794 24.2247C51.8964 21.1832 54.169 18.877 57.5951 18.877ZM57.5951 26.9152C58.9858 26.9152 60.0034 25.829 60.0034 24.2414C60.0034 22.7206 59.0028 21.6845 57.5951 21.6845C56.1873 21.6845 55.1867 22.7206 55.1867 24.2414C55.1867 25.829 56.2043 26.9152 57.5951 26.9152Z" fill="white"/>
<path d="M90.0399 18.877C93.4659 18.877 95.7555 21.1832 95.7555 24.2247C95.7555 27.3497 93.4659 29.7061 90.0399 29.7061C86.6139 29.7061 84.3242 27.3497 84.3242 24.2247C84.3242 21.1832 86.6139 18.877 90.0399 18.877ZM90.0399 26.9152C91.4306 26.9152 92.4483 25.829 92.4483 24.2414C92.4483 22.7206 91.4476 21.6845 90.0399 21.6845C88.6491 21.6845 87.6315 22.7206 87.6315 24.2414C87.6315 25.829 88.6322 26.9152 90.0399 26.9152Z" fill="white"/>
<path d="M70.8919 31.4609C74.3179 31.4609 76.6076 33.7671 76.6076 36.8086C76.6076 39.9337 74.3179 42.2901 70.8919 42.2901C67.4659 42.2901 65.1763 39.9337 65.1763 36.8086C65.1763 33.7671 67.4829 31.4609 70.8919 31.4609ZM70.8919 39.4992C72.2827 39.4992 73.3003 38.413 73.3003 36.8254C73.3003 35.3046 72.2997 34.2685 70.8919 34.2685C69.4842 34.2685 68.4836 35.3046 68.4836 36.8254C68.4836 38.413 69.5012 39.4992 70.8919 39.4992Z" fill="white"/>
<path d="M77.6592 31.7109H81.8993C85.1218 31.7109 87.174 33.5826 87.174 36.8247C87.174 40.0667 85.1218 41.9886 81.8993 41.9886H77.6592V31.7109ZM81.6958 39.4651C83.1035 39.4651 83.9345 38.5794 83.9345 36.8414C83.9345 35.1201 83.0526 34.2511 81.6958 34.2511H80.8138V39.4651H81.6958Z" fill="white"/>
<path d="M89.9552 37.9285L86.5122 31.7285H89.8873L90.888 33.8509C91.1763 34.5026 91.4816 35.4051 91.4816 35.4051H91.5325C91.5325 35.4051 91.8378 34.5026 92.1431 33.8509L93.1268 31.7285H96.5189L93.1268 37.9285V41.9894H89.9721L89.9552 37.9285Z" fill="white"/>
</g>
</svg>
