<svg width="1682" height="70" viewBox="0 0 1682 70" fill="none" xmlns="http://www.w3.org/2000/svg">
<mask id="path-1-outside-1_25_3" maskUnits="userSpaceOnUse" x="896" y="0" width="786" height="70" fill="black">
<rect fill="white" x="896" width="786" height="70"/>
<path d="M928.345 69C923.881 69 919.74 68.7135 915.923 68.1405C912.106 67.6311 908.774 66.7397 905.928 65.4663C903.146 64.1929 900.946 62.4101 899.329 60.118C897.776 57.8258 897 54.9607 897 51.5225C897 50.6311 897.032 49.676 897.097 48.6573C897.226 47.5749 897.421 46.5562 897.679 45.6011H917.961C917.702 46.1105 917.541 46.6199 917.476 47.1292C917.411 47.5749 917.379 48.0206 917.379 48.4663C917.379 49.9307 917.799 51.0768 918.64 51.9045C919.481 52.6685 920.646 53.2097 922.134 53.5281C923.622 53.7828 925.304 53.9101 927.18 53.9101C928.151 53.9101 929.218 53.8783 930.383 53.8146C931.547 53.6873 932.647 53.4644 933.682 53.1461C934.782 52.8277 935.655 52.3502 936.302 51.7135C937.014 51.0131 937.37 50.0899 937.37 48.9438C937.37 47.9251 936.917 47.0974 936.011 46.4607C935.105 45.7603 933.876 45.1873 932.323 44.7416C930.771 44.2322 929.024 43.7865 927.083 43.4045C925.142 42.9588 923.137 42.4813 921.066 41.9719C918.802 41.3989 916.538 40.7303 914.274 39.9663C912.074 39.1386 910.068 38.088 908.257 36.8146C906.51 35.5412 905.087 33.9494 903.987 32.0393C902.952 30.0655 902.434 27.6779 902.434 24.8764C902.434 20.4831 903.372 16.7903 905.249 13.7978C907.125 10.7416 909.615 8.29027 912.721 6.44382C915.826 4.53371 919.287 3.16479 923.104 2.33708C926.921 1.44569 930.771 1 934.652 1C938.663 1 942.383 1.35019 945.812 2.05057C949.241 2.68727 952.217 3.706 954.74 5.10675C957.263 6.50749 959.236 8.29026 960.66 10.4551C962.083 12.5562 962.795 15.0712 962.795 18C962.795 18.5094 962.762 19.0824 962.698 19.7191C962.633 20.3558 962.503 21.2472 962.309 22.3933H942.222C942.286 21.9476 942.319 21.6292 942.319 21.4382C942.319 21.1835 942.319 20.9288 942.319 20.6742C942.319 19.2097 941.736 17.9682 940.572 16.9494C939.472 15.867 937.564 15.3258 934.846 15.3258C932.712 15.3258 930.9 15.5805 929.412 16.0899C927.989 16.5356 926.921 17.1404 926.21 17.9045C925.498 18.6049 925.142 19.3689 925.142 20.1966C925.142 21.0243 925.401 21.7247 925.919 22.2978C926.436 22.8708 927.18 23.412 928.151 23.9214C929.121 24.367 930.253 24.7809 931.547 25.1629C932.906 25.4813 934.394 25.7996 936.011 26.118C938.534 26.6273 941.187 27.264 943.968 28.0281C946.815 28.7285 949.467 29.7154 951.926 30.9888C954.384 32.2622 956.357 33.9494 957.845 36.0506C959.398 38.088 960.174 40.6985 960.174 43.882C960.174 48.0206 959.301 51.6816 957.554 54.8652C955.872 57.985 953.543 60.5955 950.567 62.6966C947.591 64.7978 944.195 66.3895 940.378 67.4719C936.561 68.4906 932.55 69 928.345 69Z"/>
<path d="M967.422 67.8539L979.261 2.14607H1037L1034.19 17.9045H997.893L996.243 26.9775H1027.3L1024.58 42.0674H993.526L991.682 52.0955H1028.66L1025.84 67.8539H967.422Z"/>
<path d="M1037.55 67.8539L1049.29 2.14607H1090.15C1094.68 2.14607 1098.43 2.91011 1101.41 4.4382C1104.38 5.96629 1106.58 8.00374 1108 10.5506C1109.49 13.0337 1110.24 15.8352 1110.24 18.9551C1110.24 23.03 1109.59 26.5637 1108.3 29.5562C1107.07 32.5487 1105.32 35.0955 1103.06 37.1966C1100.86 39.2341 1098.27 40.9213 1095.29 42.2584L1103.83 67.8539H1080.06L1073.85 45.7921H1062.98L1059 67.8539H1037.55ZM1065.6 31.1798H1079.67C1080.96 31.1798 1082.26 30.8296 1083.55 30.1292C1084.84 29.3652 1085.91 28.3464 1086.75 27.073C1087.59 25.7996 1088.01 24.3352 1088.01 22.6798C1088.01 21.0243 1087.56 19.6873 1086.66 18.6685C1085.75 17.6498 1084.55 17.1405 1083.06 17.1405H1068.02L1065.6 31.1798Z"/>
<path d="M1112.98 67.8539L1124.82 2.14607H1146.27L1134.43 67.8539H1112.98Z"/>
<path d="M1182.77 69C1176.04 69 1170.29 68.0131 1165.5 66.0393C1160.78 64.0655 1157.18 61.1367 1154.73 57.2528C1152.27 53.3052 1151.04 48.4345 1151.04 42.6405C1151.04 41.3034 1151.1 39.9345 1151.23 38.5337C1151.43 37.0693 1151.65 35.573 1151.91 34.0449C1153.21 26.7865 1155.54 20.706 1158.9 15.8034C1162.26 10.9008 1166.76 7.20787 1172.39 4.72472C1178.02 2.24157 1184.87 1 1192.96 1C1199.75 1 1205.51 1.98689 1210.23 3.96068C1215.02 5.93446 1218.65 8.89513 1221.1 12.8427C1223.56 16.7903 1224.79 21.7247 1224.79 27.6461C1224.79 28.9195 1224.73 30.2566 1224.6 31.6573C1224.47 33.0581 1224.27 34.4906 1224.01 35.9551C1222.72 43.2135 1220.33 49.294 1216.83 54.1966C1213.4 59.0992 1208.84 62.7921 1203.15 65.2753C1197.52 67.7584 1190.73 69 1182.77 69ZM1184.62 53.2416C1186.94 53.2416 1189.05 52.8914 1190.92 52.191C1192.86 51.427 1194.55 50.3764 1195.97 49.0393C1197.39 47.7022 1198.56 46.1105 1199.46 44.264C1200.43 42.3539 1201.11 40.2846 1201.5 38.0562C1201.82 36.2097 1202.08 34.7135 1202.28 33.5674C1202.47 32.3577 1202.6 31.4026 1202.67 30.7022C1202.79 30.0019 1202.86 29.4607 1202.86 29.0787C1202.92 28.6966 1202.96 28.3464 1202.96 28.0281C1202.96 25.736 1202.5 23.7622 1201.6 22.1067C1200.76 20.3876 1199.46 19.0824 1197.72 18.191C1195.97 17.236 1193.77 16.7584 1191.12 16.7584C1188.79 16.7584 1186.65 17.1404 1184.71 17.9045C1182.84 18.6049 1181.19 19.6236 1179.76 20.9607C1178.4 22.2978 1177.24 23.9213 1176.27 25.8315C1175.36 27.6779 1174.72 29.7154 1174.33 31.9438C1174.01 33.8539 1173.75 35.4139 1173.55 36.6236C1173.36 37.7697 1173.2 38.6929 1173.07 39.3933C1173 40.0936 1172.94 40.6348 1172.87 41.0169C1172.87 41.3989 1172.87 41.7491 1172.87 42.0674C1172.87 44.2959 1173.29 46.2697 1174.14 47.9888C1174.98 49.6442 1176.27 50.9494 1178.02 51.9045C1179.76 52.7959 1181.96 53.2416 1184.62 53.2416Z"/>
<path d="M1263.71 69C1254.45 69 1247.18 67.1854 1241.87 63.5562C1236.57 59.8633 1233.91 54.3558 1233.91 47.0337C1233.91 46.0787 1233.95 45.0918 1234.01 44.073C1234.14 43.0543 1234.3 42.0037 1234.5 40.9213L1241.48 2.14607H1262.93L1255.94 41.1124C1255.88 41.6217 1255.81 42.1311 1255.75 42.6405C1255.68 43.1498 1255.65 43.6592 1255.65 44.1685C1255.65 46.9064 1256.43 49.103 1257.98 50.7584C1259.6 52.4139 1262.09 53.2416 1265.45 53.2416C1269.4 53.2416 1272.57 52.0955 1274.96 49.8034C1277.36 47.5112 1278.88 44.6142 1279.52 41.1124L1286.51 2.14607H1307.96L1300.78 42.3539C1299.74 48.2753 1297.61 53.2097 1294.37 57.1573C1291.14 61.1049 1286.93 64.0655 1281.76 66.0393C1276.64 68.0131 1270.63 69 1263.71 69Z"/>
<path d="M1341.44 69C1336.97 69 1332.83 68.7135 1329.02 68.1405C1325.2 67.6311 1321.87 66.7397 1319.02 65.4663C1316.24 64.1929 1314.04 62.4101 1312.42 60.118C1310.87 57.8258 1310.09 54.9607 1310.09 51.5225C1310.09 50.6311 1310.12 49.676 1310.19 48.6573C1310.32 47.5749 1310.51 46.5562 1310.77 45.6011H1331.05C1330.79 46.1105 1330.63 46.6199 1330.57 47.1292C1330.5 47.5749 1330.47 48.0206 1330.47 48.4663C1330.47 49.9307 1330.89 51.0768 1331.73 51.9045C1332.57 52.6685 1333.74 53.2097 1335.23 53.5281C1336.71 53.7828 1338.4 53.9101 1340.27 53.9101C1341.24 53.9101 1342.31 53.8783 1343.48 53.8146C1344.64 53.6873 1345.74 53.4644 1346.77 53.1461C1347.87 52.8277 1348.75 52.3502 1349.39 51.7135C1350.11 51.0131 1350.46 50.0899 1350.46 48.9438C1350.46 47.9251 1350.01 47.0974 1349.1 46.4607C1348.2 45.7603 1346.97 45.1873 1345.42 44.7416C1343.86 44.2322 1342.12 43.7865 1340.18 43.4045C1338.23 42.9588 1336.23 42.4813 1334.16 41.9719C1331.89 41.3989 1329.63 40.7303 1327.37 39.9663C1325.17 39.1386 1323.16 38.088 1321.35 36.8146C1319.6 35.5412 1318.18 33.9494 1317.08 32.0393C1316.04 30.0655 1315.53 27.6779 1315.53 24.8764C1315.53 20.4831 1316.47 16.7903 1318.34 13.7978C1320.22 10.7416 1322.71 8.29027 1325.81 6.44382C1328.92 4.53371 1332.38 3.16479 1336.2 2.33708C1340.01 1.44569 1343.86 1 1347.74 1C1351.76 1 1355.48 1.35019 1358.9 2.05057C1362.33 2.68727 1365.31 3.706 1367.83 5.10675C1370.36 6.50749 1372.33 8.29026 1373.75 10.4551C1375.18 12.5562 1375.89 15.0712 1375.89 18C1375.89 18.5094 1375.85 19.0824 1375.79 19.7191C1375.73 20.3558 1375.6 21.2472 1375.4 22.3933H1355.31C1355.38 21.9476 1355.41 21.6292 1355.41 21.4382C1355.41 21.1835 1355.41 20.9288 1355.41 20.6742C1355.41 19.2097 1354.83 17.9682 1353.66 16.9494C1352.56 15.867 1350.66 15.3258 1347.94 15.3258C1345.8 15.3258 1343.99 15.5805 1342.5 16.0899C1341.08 16.5356 1340.01 17.1404 1339.3 17.9045C1338.59 18.6049 1338.23 19.3689 1338.23 20.1966C1338.23 21.0243 1338.49 21.7247 1339.01 22.2978C1339.53 22.8708 1340.27 23.412 1341.24 23.9214C1342.21 24.367 1343.35 24.7809 1344.64 25.1629C1346 25.4813 1347.49 25.7996 1349.1 26.118C1351.63 26.6273 1354.28 27.264 1357.06 28.0281C1359.91 28.7285 1362.56 29.7154 1365.02 30.9888C1367.48 32.2622 1369.45 33.9494 1370.94 36.0506C1372.49 38.088 1373.27 40.6985 1373.27 43.882C1373.27 48.0206 1372.39 51.6816 1370.65 54.8652C1368.96 57.985 1366.64 60.5955 1363.66 62.6966C1360.68 64.7978 1357.29 66.3895 1353.47 67.4719C1349.65 68.4906 1345.64 69 1341.44 69Z"/>
<path d="M1397.95 67.8539L1409.79 2.14607H1448.41C1452.17 2.14607 1455.4 2.94195 1458.12 4.53371C1460.9 6.0618 1463.07 8.22659 1464.62 11.0281C1466.17 13.8296 1466.95 17.0449 1466.95 20.6742C1466.95 24.3034 1466.33 27.7097 1465.1 30.8933C1463.94 34.0131 1462.23 36.7509 1459.96 39.1067C1457.76 41.4625 1455.11 43.309 1452 44.6461C1448.96 45.9831 1445.53 46.6517 1441.72 46.6517H1423.18L1419.4 67.8539H1397.95ZM1426 31.2753H1437.16C1438.97 31.2753 1440.42 30.8933 1441.52 30.1292C1442.69 29.3652 1443.53 28.3464 1444.05 27.073C1444.63 25.7996 1444.92 24.3989 1444.92 22.8708C1444.92 21.2154 1444.4 19.9419 1443.37 19.0506C1442.4 18.1592 1440.91 17.7135 1438.9 17.7135H1428.42L1426 31.2753Z"/>
<path d="M1467.98 67.8539L1479.82 2.14607H1501.27L1492.44 51.0449H1525.72L1522.72 67.8539H1467.98Z"/>
<path d="M1526.5 67.8539L1562.79 2.14607H1587.73L1600.16 67.8539H1578.13L1576.96 58.5899H1553.48L1549.01 67.8539H1526.5ZM1560.56 43.882H1575.12L1573.86 33.3764C1573.73 32.294 1573.6 31.2116 1573.47 30.1292C1573.34 29.0468 1573.18 27.9963 1572.98 26.9775C1572.85 25.8951 1572.72 24.8127 1572.6 23.7303C1572.47 22.6479 1572.34 21.5655 1572.21 20.4831H1571.82C1571.17 21.8839 1570.49 23.3165 1569.78 24.7809C1569.07 26.1816 1568.36 27.6142 1567.65 29.0787C1567 30.4794 1566.32 31.912 1565.61 33.3764L1560.56 43.882Z"/>
<path d="M1619.61 67.8539L1624.17 42.3539L1604.96 2.14607H1628.44L1637.76 24.2079H1638.15L1654.74 2.14607H1679L1645.62 42.3539L1641.06 67.8539H1619.61Z"/>
</mask>
<path d="M928.345 69C923.881 69 919.74 68.7135 915.923 68.1405C912.106 67.6311 908.774 66.7397 905.928 65.4663C903.146 64.1929 900.946 62.4101 899.329 60.118C897.776 57.8258 897 54.9607 897 51.5225C897 50.6311 897.032 49.676 897.097 48.6573C897.226 47.5749 897.421 46.5562 897.679 45.6011H917.961C917.702 46.1105 917.541 46.6199 917.476 47.1292C917.411 47.5749 917.379 48.0206 917.379 48.4663C917.379 49.9307 917.799 51.0768 918.64 51.9045C919.481 52.6685 920.646 53.2097 922.134 53.5281C923.622 53.7828 925.304 53.9101 927.18 53.9101C928.151 53.9101 929.218 53.8783 930.383 53.8146C931.547 53.6873 932.647 53.4644 933.682 53.1461C934.782 52.8277 935.655 52.3502 936.302 51.7135C937.014 51.0131 937.37 50.0899 937.37 48.9438C937.37 47.9251 936.917 47.0974 936.011 46.4607C935.105 45.7603 933.876 45.1873 932.323 44.7416C930.771 44.2322 929.024 43.7865 927.083 43.4045C925.142 42.9588 923.137 42.4813 921.066 41.9719C918.802 41.3989 916.538 40.7303 914.274 39.9663C912.074 39.1386 910.068 38.088 908.257 36.8146C906.51 35.5412 905.087 33.9494 903.987 32.0393C902.952 30.0655 902.434 27.6779 902.434 24.8764C902.434 20.4831 903.372 16.7903 905.249 13.7978C907.125 10.7416 909.615 8.29027 912.721 6.44382C915.826 4.53371 919.287 3.16479 923.104 2.33708C926.921 1.44569 930.771 1 934.652 1C938.663 1 942.383 1.35019 945.812 2.05057C949.241 2.68727 952.217 3.706 954.74 5.10675C957.263 6.50749 959.236 8.29026 960.66 10.4551C962.083 12.5562 962.795 15.0712 962.795 18C962.795 18.5094 962.762 19.0824 962.698 19.7191C962.633 20.3558 962.503 21.2472 962.309 22.3933H942.222C942.286 21.9476 942.319 21.6292 942.319 21.4382C942.319 21.1835 942.319 20.9288 942.319 20.6742C942.319 19.2097 941.736 17.9682 940.572 16.9494C939.472 15.867 937.564 15.3258 934.846 15.3258C932.712 15.3258 930.9 15.5805 929.412 16.0899C927.989 16.5356 926.921 17.1404 926.21 17.9045C925.498 18.6049 925.142 19.3689 925.142 20.1966C925.142 21.0243 925.401 21.7247 925.919 22.2978C926.436 22.8708 927.18 23.412 928.151 23.9214C929.121 24.367 930.253 24.7809 931.547 25.1629C932.906 25.4813 934.394 25.7996 936.011 26.118C938.534 26.6273 941.187 27.264 943.968 28.0281C946.815 28.7285 949.467 29.7154 951.926 30.9888C954.384 32.2622 956.357 33.9494 957.845 36.0506C959.398 38.088 960.174 40.6985 960.174 43.882C960.174 48.0206 959.301 51.6816 957.554 54.8652C955.872 57.985 953.543 60.5955 950.567 62.6966C947.591 64.7978 944.195 66.3895 940.378 67.4719C936.561 68.4906 932.55 69 928.345 69Z" stroke="url(#paint0_linear_25_3)" stroke-opacity="0.2" stroke-width="2" mask="url(#path-1-outside-1_25_3)"/>
<path d="M967.422 67.8539L979.261 2.14607H1037L1034.19 17.9045H997.893L996.243 26.9775H1027.3L1024.58 42.0674H993.526L991.682 52.0955H1028.66L1025.84 67.8539H967.422Z" stroke="url(#paint1_linear_25_3)" stroke-opacity="0.2" stroke-width="2" mask="url(#path-1-outside-1_25_3)"/>
<path d="M1037.55 67.8539L1049.29 2.14607H1090.15C1094.68 2.14607 1098.43 2.91011 1101.41 4.4382C1104.38 5.96629 1106.58 8.00374 1108 10.5506C1109.49 13.0337 1110.24 15.8352 1110.24 18.9551C1110.24 23.03 1109.59 26.5637 1108.3 29.5562C1107.07 32.5487 1105.32 35.0955 1103.06 37.1966C1100.86 39.2341 1098.27 40.9213 1095.29 42.2584L1103.83 67.8539H1080.06L1073.85 45.7921H1062.98L1059 67.8539H1037.55ZM1065.6 31.1798H1079.67C1080.96 31.1798 1082.26 30.8296 1083.55 30.1292C1084.84 29.3652 1085.91 28.3464 1086.75 27.073C1087.59 25.7996 1088.01 24.3352 1088.01 22.6798C1088.01 21.0243 1087.56 19.6873 1086.66 18.6685C1085.75 17.6498 1084.55 17.1405 1083.06 17.1405H1068.02L1065.6 31.1798Z" stroke="url(#paint2_linear_25_3)" stroke-opacity="0.2" stroke-width="2" mask="url(#path-1-outside-1_25_3)"/>
<path d="M1112.98 67.8539L1124.82 2.14607H1146.27L1134.43 67.8539H1112.98Z" stroke="url(#paint3_linear_25_3)" stroke-opacity="0.2" stroke-width="2" mask="url(#path-1-outside-1_25_3)"/>
<path d="M1182.77 69C1176.04 69 1170.29 68.0131 1165.5 66.0393C1160.78 64.0655 1157.18 61.1367 1154.73 57.2528C1152.27 53.3052 1151.04 48.4345 1151.04 42.6405C1151.04 41.3034 1151.1 39.9345 1151.23 38.5337C1151.43 37.0693 1151.65 35.573 1151.91 34.0449C1153.21 26.7865 1155.54 20.706 1158.9 15.8034C1162.26 10.9008 1166.76 7.20787 1172.39 4.72472C1178.02 2.24157 1184.87 1 1192.96 1C1199.75 1 1205.51 1.98689 1210.23 3.96068C1215.02 5.93446 1218.65 8.89513 1221.1 12.8427C1223.56 16.7903 1224.79 21.7247 1224.79 27.6461C1224.79 28.9195 1224.73 30.2566 1224.6 31.6573C1224.47 33.0581 1224.27 34.4906 1224.01 35.9551C1222.72 43.2135 1220.33 49.294 1216.83 54.1966C1213.4 59.0992 1208.84 62.7921 1203.15 65.2753C1197.52 67.7584 1190.73 69 1182.77 69ZM1184.62 53.2416C1186.94 53.2416 1189.05 52.8914 1190.92 52.191C1192.86 51.427 1194.55 50.3764 1195.97 49.0393C1197.39 47.7022 1198.56 46.1105 1199.46 44.264C1200.43 42.3539 1201.11 40.2846 1201.5 38.0562C1201.82 36.2097 1202.08 34.7135 1202.28 33.5674C1202.47 32.3577 1202.6 31.4026 1202.67 30.7022C1202.79 30.0019 1202.86 29.4607 1202.86 29.0787C1202.92 28.6966 1202.96 28.3464 1202.96 28.0281C1202.96 25.736 1202.5 23.7622 1201.6 22.1067C1200.76 20.3876 1199.46 19.0824 1197.72 18.191C1195.97 17.236 1193.77 16.7584 1191.12 16.7584C1188.79 16.7584 1186.65 17.1404 1184.71 17.9045C1182.84 18.6049 1181.19 19.6236 1179.76 20.9607C1178.4 22.2978 1177.24 23.9213 1176.27 25.8315C1175.36 27.6779 1174.72 29.7154 1174.33 31.9438C1174.01 33.8539 1173.75 35.4139 1173.55 36.6236C1173.36 37.7697 1173.2 38.6929 1173.07 39.3933C1173 40.0936 1172.94 40.6348 1172.87 41.0169C1172.87 41.3989 1172.87 41.7491 1172.87 42.0674C1172.87 44.2959 1173.29 46.2697 1174.14 47.9888C1174.98 49.6442 1176.27 50.9494 1178.02 51.9045C1179.76 52.7959 1181.96 53.2416 1184.62 53.2416Z" stroke="url(#paint4_linear_25_3)" stroke-opacity="0.2" stroke-width="2" mask="url(#path-1-outside-1_25_3)"/>
<path d="M1263.71 69C1254.45 69 1247.18 67.1854 1241.87 63.5562C1236.57 59.8633 1233.91 54.3558 1233.91 47.0337C1233.91 46.0787 1233.95 45.0918 1234.01 44.073C1234.14 43.0543 1234.3 42.0037 1234.5 40.9213L1241.48 2.14607H1262.93L1255.94 41.1124C1255.88 41.6217 1255.81 42.1311 1255.75 42.6405C1255.68 43.1498 1255.65 43.6592 1255.65 44.1685C1255.65 46.9064 1256.43 49.103 1257.98 50.7584C1259.6 52.4139 1262.09 53.2416 1265.45 53.2416C1269.4 53.2416 1272.57 52.0955 1274.96 49.8034C1277.36 47.5112 1278.88 44.6142 1279.52 41.1124L1286.51 2.14607H1307.96L1300.78 42.3539C1299.74 48.2753 1297.61 53.2097 1294.37 57.1573C1291.14 61.1049 1286.93 64.0655 1281.76 66.0393C1276.64 68.0131 1270.63 69 1263.71 69Z" stroke="url(#paint5_linear_25_3)" stroke-opacity="0.2" stroke-width="2" mask="url(#path-1-outside-1_25_3)"/>
<path d="M1341.44 69C1336.97 69 1332.83 68.7135 1329.02 68.1405C1325.2 67.6311 1321.87 66.7397 1319.02 65.4663C1316.24 64.1929 1314.04 62.4101 1312.42 60.118C1310.87 57.8258 1310.09 54.9607 1310.09 51.5225C1310.09 50.6311 1310.12 49.676 1310.19 48.6573C1310.32 47.5749 1310.51 46.5562 1310.77 45.6011H1331.05C1330.79 46.1105 1330.63 46.6199 1330.57 47.1292C1330.5 47.5749 1330.47 48.0206 1330.47 48.4663C1330.47 49.9307 1330.89 51.0768 1331.73 51.9045C1332.57 52.6685 1333.74 53.2097 1335.23 53.5281C1336.71 53.7828 1338.4 53.9101 1340.27 53.9101C1341.24 53.9101 1342.31 53.8783 1343.48 53.8146C1344.64 53.6873 1345.74 53.4644 1346.77 53.1461C1347.87 52.8277 1348.75 52.3502 1349.39 51.7135C1350.11 51.0131 1350.46 50.0899 1350.46 48.9438C1350.46 47.9251 1350.01 47.0974 1349.1 46.4607C1348.2 45.7603 1346.97 45.1873 1345.42 44.7416C1343.86 44.2322 1342.12 43.7865 1340.18 43.4045C1338.23 42.9588 1336.23 42.4813 1334.16 41.9719C1331.89 41.3989 1329.63 40.7303 1327.37 39.9663C1325.17 39.1386 1323.16 38.088 1321.35 36.8146C1319.6 35.5412 1318.18 33.9494 1317.08 32.0393C1316.04 30.0655 1315.53 27.6779 1315.53 24.8764C1315.53 20.4831 1316.47 16.7903 1318.34 13.7978C1320.22 10.7416 1322.71 8.29027 1325.81 6.44382C1328.92 4.53371 1332.38 3.16479 1336.2 2.33708C1340.01 1.44569 1343.86 1 1347.74 1C1351.76 1 1355.48 1.35019 1358.9 2.05057C1362.33 2.68727 1365.31 3.706 1367.83 5.10675C1370.36 6.50749 1372.33 8.29026 1373.75 10.4551C1375.18 12.5562 1375.89 15.0712 1375.89 18C1375.89 18.5094 1375.85 19.0824 1375.79 19.7191C1375.73 20.3558 1375.6 21.2472 1375.4 22.3933H1355.31C1355.38 21.9476 1355.41 21.6292 1355.41 21.4382C1355.41 21.1835 1355.41 20.9288 1355.41 20.6742C1355.41 19.2097 1354.83 17.9682 1353.66 16.9494C1352.56 15.867 1350.66 15.3258 1347.94 15.3258C1345.8 15.3258 1343.99 15.5805 1342.5 16.0899C1341.08 16.5356 1340.01 17.1404 1339.3 17.9045C1338.59 18.6049 1338.23 19.3689 1338.23 20.1966C1338.23 21.0243 1338.49 21.7247 1339.01 22.2978C1339.53 22.8708 1340.27 23.412 1341.24 23.9214C1342.21 24.367 1343.35 24.7809 1344.64 25.1629C1346 25.4813 1347.49 25.7996 1349.1 26.118C1351.63 26.6273 1354.28 27.264 1357.06 28.0281C1359.91 28.7285 1362.56 29.7154 1365.02 30.9888C1367.48 32.2622 1369.45 33.9494 1370.94 36.0506C1372.49 38.088 1373.27 40.6985 1373.27 43.882C1373.27 48.0206 1372.39 51.6816 1370.65 54.8652C1368.96 57.985 1366.64 60.5955 1363.66 62.6966C1360.68 64.7978 1357.29 66.3895 1353.47 67.4719C1349.65 68.4906 1345.64 69 1341.44 69Z" stroke="url(#paint6_linear_25_3)" stroke-opacity="0.2" stroke-width="2" mask="url(#path-1-outside-1_25_3)"/>
<path d="M1397.95 67.8539L1409.79 2.14607H1448.41C1452.17 2.14607 1455.4 2.94195 1458.12 4.53371C1460.9 6.0618 1463.07 8.22659 1464.62 11.0281C1466.17 13.8296 1466.95 17.0449 1466.95 20.6742C1466.95 24.3034 1466.33 27.7097 1465.1 30.8933C1463.94 34.0131 1462.23 36.7509 1459.96 39.1067C1457.76 41.4625 1455.11 43.309 1452 44.6461C1448.96 45.9831 1445.53 46.6517 1441.72 46.6517H1423.18L1419.4 67.8539H1397.95ZM1426 31.2753H1437.16C1438.97 31.2753 1440.42 30.8933 1441.52 30.1292C1442.69 29.3652 1443.53 28.3464 1444.05 27.073C1444.63 25.7996 1444.92 24.3989 1444.92 22.8708C1444.92 21.2154 1444.4 19.9419 1443.37 19.0506C1442.4 18.1592 1440.91 17.7135 1438.9 17.7135H1428.42L1426 31.2753Z" stroke="url(#paint7_linear_25_3)" stroke-opacity="0.2" stroke-width="2" mask="url(#path-1-outside-1_25_3)"/>
<path d="M1467.98 67.8539L1479.82 2.14607H1501.27L1492.44 51.0449H1525.72L1522.72 67.8539H1467.98Z" stroke="url(#paint8_linear_25_3)" stroke-opacity="0.2" stroke-width="2" mask="url(#path-1-outside-1_25_3)"/>
<path d="M1526.5 67.8539L1562.79 2.14607H1587.73L1600.16 67.8539H1578.13L1576.96 58.5899H1553.48L1549.01 67.8539H1526.5ZM1560.56 43.882H1575.12L1573.86 33.3764C1573.73 32.294 1573.6 31.2116 1573.47 30.1292C1573.34 29.0468 1573.18 27.9963 1572.98 26.9775C1572.85 25.8951 1572.72 24.8127 1572.6 23.7303C1572.47 22.6479 1572.34 21.5655 1572.21 20.4831H1571.82C1571.17 21.8839 1570.49 23.3165 1569.78 24.7809C1569.07 26.1816 1568.36 27.6142 1567.65 29.0787C1567 30.4794 1566.32 31.912 1565.61 33.3764L1560.56 43.882Z" stroke="url(#paint9_linear_25_3)" stroke-opacity="0.2" stroke-width="2" mask="url(#path-1-outside-1_25_3)"/>
<path d="M1619.61 67.8539L1624.17 42.3539L1604.96 2.14607H1628.44L1637.76 24.2079H1638.15L1654.74 2.14607H1679L1645.62 42.3539L1641.06 67.8539H1619.61Z" stroke="url(#paint10_linear_25_3)" stroke-opacity="0.2" stroke-width="2" mask="url(#path-1-outside-1_25_3)"/>
<mask id="path-2-outside-2_25_3" maskUnits="userSpaceOnUse" x="49" y="0" width="786" height="70" fill="black">
<rect fill="white" x="49" width="786" height="70"/>
<path d="M81.3446 69C76.8807 69 72.7402 68.7135 68.9232 68.1405C65.1062 67.6311 61.7745 66.7397 58.9279 65.4663C56.146 64.1929 53.9464 62.4101 52.329 60.118C50.7763 57.8258 50 54.9607 50 51.5225C50 50.6311 50.0323 49.676 50.097 48.6573C50.2264 47.5749 50.4205 46.5562 50.6793 45.6011H70.9611C70.7023 46.1105 70.5406 46.6199 70.4759 47.1292C70.4112 47.5749 70.3789 48.0206 70.3789 48.4663C70.3789 49.9307 70.7994 51.0768 71.6404 51.9045C72.4814 52.6685 73.6459 53.2097 75.1339 53.5281C76.6219 53.7828 78.304 53.9101 80.1801 53.9101C81.1505 53.9101 82.218 53.8783 83.3825 53.8146C84.547 53.6873 85.6468 53.4644 86.6819 53.1461C87.7818 52.8277 88.6551 52.3502 89.3021 51.7135C90.0137 51.0131 90.3695 50.0899 90.3695 48.9438C90.3695 47.9251 89.9167 47.0974 89.011 46.4607C88.1052 45.7603 86.876 45.1873 85.3234 44.7416C83.7707 44.2322 82.0239 43.7865 80.0831 43.4045C78.1422 42.9588 76.1367 42.4813 74.0665 41.9719C71.8021 41.3989 69.5378 40.7303 67.2735 39.9663C65.0739 39.1386 63.0683 38.088 61.2569 36.8146C59.5101 35.5412 58.0868 33.9494 56.987 32.0393C55.9519 30.0655 55.4344 27.6779 55.4344 24.8764C55.4344 20.4831 56.3724 16.7903 58.2486 13.7978C60.1247 10.7416 62.6155 8.29027 65.7208 6.44382C68.8262 4.53371 72.2874 3.16479 76.1044 2.33708C79.9213 1.44569 83.7707 1 87.6524 1C91.6634 1 95.3834 1.35019 98.8122 2.05057C102.241 2.68727 105.217 3.706 107.74 5.10675C110.263 6.50749 112.236 8.29026 113.66 10.4551C115.083 12.5562 115.795 15.0712 115.795 18C115.795 18.5094 115.762 19.0824 115.698 19.7191C115.633 20.3558 115.503 21.2472 115.309 22.3933H95.2217C95.2864 21.9476 95.3187 21.6292 95.3187 21.4382C95.3187 21.1835 95.3187 20.9288 95.3187 20.6742C95.3187 19.2097 94.7364 17.9682 93.5719 16.9494C92.4721 15.867 90.5636 15.3258 87.8465 15.3258C85.7115 15.3258 83.9001 15.5805 82.4121 16.0899C80.9888 16.5356 79.9213 17.1404 79.2097 17.9045C78.4981 18.6049 78.1422 19.3689 78.1422 20.1966C78.1422 21.0243 78.401 21.7247 78.9186 22.2978C79.4361 22.8708 80.1801 23.412 81.1505 23.9214C82.121 24.367 83.2531 24.7809 84.547 25.1629C85.9056 25.4813 87.3936 25.7996 89.011 26.118C91.5341 26.6273 94.1865 27.264 96.9684 28.0281C99.815 28.7285 102.467 29.7154 104.926 30.9888C107.384 32.2622 109.357 33.9494 110.845 36.0506C112.398 38.088 113.174 40.6985 113.174 43.882C113.174 48.0206 112.301 51.6816 110.554 54.8652C108.872 57.985 106.543 60.5955 103.567 62.6966C100.591 64.7978 97.1948 66.3895 93.3779 67.4719C89.5609 68.4906 85.5498 69 81.3446 69Z"/>
<path d="M120.422 67.8539L132.261 2.14607H190.001L187.187 17.9045H150.893L149.243 26.9775H180.297L177.579 42.0674H146.526L144.682 52.0955H181.655L178.841 67.8539H120.422Z"/>
<path d="M190.552 67.8539L202.294 2.14607H243.149C247.677 2.14607 251.43 2.91011 254.406 4.4382C257.382 5.96629 259.581 8.00374 261.005 10.5506C262.493 13.0337 263.237 15.8352 263.237 18.9551C263.237 23.03 262.59 26.5637 261.296 29.5562C260.066 32.5487 258.32 35.0955 256.055 37.1966C253.856 39.2341 251.268 40.9213 248.292 42.2584L256.832 67.8539H233.056L226.846 45.7921H215.977L211.998 67.8539H190.552ZM218.597 31.1798H232.668C233.962 31.1798 235.256 30.8296 236.55 30.1292C237.844 29.3652 238.911 28.3464 239.752 27.073C240.593 25.7996 241.014 24.3352 241.014 22.6798C241.014 21.0243 240.561 19.6873 239.655 18.6685C238.75 17.6498 237.553 17.1405 236.065 17.1405H221.023L218.597 31.1798Z"/>
<path d="M265.985 67.8539L277.824 2.14607H299.27L287.431 67.8539H265.985Z"/>
<path d="M335.772 69C329.044 69 323.286 68.0131 318.498 66.0393C313.776 64.0655 310.185 61.1367 307.727 57.2528C305.268 53.3052 304.039 48.4345 304.039 42.6405C304.039 41.3034 304.104 39.9345 304.233 38.5337C304.427 37.0693 304.654 35.573 304.912 34.0449C306.206 26.7865 308.535 20.706 311.899 15.8034C315.264 10.9008 319.76 7.20787 325.388 4.72472C331.017 2.24157 337.874 1 345.961 1C352.754 1 358.512 1.98689 363.235 3.96068C368.022 5.93446 371.645 8.89513 374.103 12.8427C376.562 16.7903 377.791 21.7247 377.791 27.6461C377.791 28.9195 377.726 30.2566 377.597 31.6573C377.468 33.0581 377.273 34.4906 377.015 35.9551C375.721 43.2135 373.327 49.294 369.834 54.1966C366.405 59.0992 361.844 62.7921 356.151 65.2753C350.522 67.7584 343.729 69 335.772 69ZM337.616 53.2416C339.945 53.2416 342.047 52.8914 343.923 52.191C345.864 51.427 347.546 50.3764 348.97 49.0393C350.393 47.7022 351.557 46.1105 352.463 44.264C353.433 42.3539 354.113 40.2846 354.501 38.0562C354.824 36.2097 355.083 34.7135 355.277 33.5674C355.471 32.3577 355.601 31.4026 355.665 30.7022C355.795 30.0019 355.86 29.4607 355.86 29.0787C355.924 28.6966 355.957 28.3464 355.957 28.0281C355.957 25.736 355.504 23.7622 354.598 22.1067C353.757 20.3876 352.463 19.0824 350.716 18.191C348.97 17.236 346.77 16.7584 344.117 16.7584C341.788 16.7584 339.653 17.1404 337.713 17.9045C335.836 18.6049 334.187 19.6236 332.763 20.9607C331.405 22.2978 330.24 23.9213 329.27 25.8315C328.364 27.6779 327.717 29.7154 327.329 31.9438C327.006 33.8539 326.747 35.4139 326.553 36.6236C326.359 37.7697 326.197 38.6929 326.068 39.3933C326.003 40.0936 325.938 40.6348 325.873 41.0169C325.873 41.3989 325.873 41.7491 325.873 42.0674C325.873 44.2959 326.294 46.2697 327.135 47.9888C327.976 49.6442 329.27 50.9494 331.017 51.9045C332.763 52.7959 334.963 53.2416 337.616 53.2416Z"/>
<path d="M416.706 69C407.454 69 400.176 67.1854 394.871 63.5562C389.566 59.8633 386.914 54.3558 386.914 47.0337C386.914 46.0787 386.946 45.0918 387.011 44.073C387.14 43.0543 387.302 42.0037 387.496 40.9213L394.483 2.14607H415.929L408.942 41.1124C408.878 41.6217 408.813 42.1311 408.748 42.6405C408.684 43.1498 408.651 43.6592 408.651 44.1685C408.651 46.9064 409.428 49.103 410.98 50.7584C412.598 52.4139 415.088 53.2416 418.452 53.2416C422.399 53.2416 425.569 52.0955 427.963 49.8034C430.356 47.5112 431.877 44.6142 432.524 41.1124L439.511 2.14607H460.957L453.776 42.3539C452.741 48.2753 450.606 53.2097 447.371 57.1573C444.136 61.1049 439.931 64.0655 434.756 66.0393C429.645 68.0131 423.628 69 416.706 69Z"/>
<path d="M494.437 69C489.973 69 485.833 68.7135 482.016 68.1405C478.199 67.6311 474.867 66.7397 472.02 65.4663C469.239 64.1929 467.039 62.4101 465.422 60.118C463.869 57.8258 463.093 54.9607 463.093 51.5225C463.093 50.6311 463.125 49.676 463.19 48.6573C463.319 47.5749 463.513 46.5562 463.772 45.6011H484.054C483.795 46.1105 483.633 46.6199 483.569 47.1292C483.504 47.5749 483.472 48.0206 483.472 48.4663C483.472 49.9307 483.892 51.0768 484.733 51.9045C485.574 52.6685 486.739 53.2097 488.227 53.5281C489.715 53.7828 491.397 53.9101 493.273 53.9101C494.243 53.9101 495.311 53.8783 496.475 53.8146C497.64 53.6873 498.739 53.4644 499.775 53.1461C500.874 52.8277 501.748 52.3502 502.395 51.7135C503.106 51.0131 503.462 50.0899 503.462 48.9438C503.462 47.9251 503.009 47.0974 502.104 46.4607C501.198 45.7603 499.969 45.1873 498.416 44.7416C496.863 44.2322 495.117 43.7865 493.176 43.4045C491.235 42.9588 489.229 42.4813 487.159 41.9719C484.895 41.3989 482.63 40.7303 480.366 39.9663C478.167 39.1386 476.161 38.088 474.35 36.8146C472.603 35.5412 471.179 33.9494 470.08 32.0393C469.045 30.0655 468.527 27.6779 468.527 24.8764C468.527 20.4831 469.465 16.7903 471.341 13.7978C473.217 10.7416 475.708 8.29027 478.813 6.44382C481.919 4.53371 485.38 3.16479 489.197 2.33708C493.014 1.44569 496.863 1 500.745 1C504.756 1 508.476 1.35019 511.905 2.05057C515.334 2.68727 518.31 3.706 520.833 5.10675C523.356 6.50749 525.329 8.29026 526.752 10.4551C528.176 12.5562 528.887 15.0712 528.887 18C528.887 18.5094 528.855 19.0824 528.79 19.7191C528.725 20.3558 528.596 21.2472 528.402 22.3933H508.314C508.379 21.9476 508.411 21.6292 508.411 21.4382C508.411 21.1835 508.411 20.9288 508.411 20.6742C508.411 19.2097 507.829 17.9682 506.665 16.9494C505.565 15.867 503.656 15.3258 500.939 15.3258C498.804 15.3258 496.993 15.5805 495.505 16.0899C494.081 16.5356 493.014 17.1404 492.302 17.9045C491.591 18.6049 491.235 19.3689 491.235 20.1966C491.235 21.0243 491.494 21.7247 492.011 22.2978C492.529 22.8708 493.273 23.412 494.243 23.9214C495.214 24.367 496.346 24.7809 497.64 25.1629C498.998 25.4813 500.486 25.7996 502.104 26.118C504.627 26.6273 507.279 27.264 510.061 28.0281C512.908 28.7285 515.56 29.7154 518.018 30.9888C520.477 32.2622 522.45 33.9494 523.938 36.0506C525.491 38.088 526.267 40.6985 526.267 43.882C526.267 48.0206 525.394 51.6816 523.647 54.8652C521.965 57.985 519.636 60.5955 516.66 62.6966C513.684 64.7978 510.287 66.3895 506.471 67.4719C502.654 68.4906 498.642 69 494.437 69Z"/>
<path d="M550.951 67.8539L562.791 2.14607H601.413C605.166 2.14607 608.4 2.94195 611.118 4.53371C613.899 6.0618 616.067 8.22659 617.619 11.0281C619.172 13.8296 619.948 17.0449 619.948 20.6742C619.948 24.3034 619.334 27.7097 618.105 30.8933C616.94 34.0131 615.226 36.7509 612.961 39.1067C610.762 41.4625 608.109 43.309 605.004 44.6461C601.963 45.9831 598.534 46.6517 594.717 46.6517H576.182L572.398 67.8539H550.951ZM578.997 31.2753H590.156C591.968 31.2753 593.424 30.8933 594.523 30.1292C595.688 29.3652 596.529 28.3464 597.046 27.073C597.629 25.7996 597.92 24.3989 597.92 22.8708C597.92 21.2154 597.402 19.9419 596.367 19.0506C595.397 18.1592 593.909 17.7135 591.903 17.7135H581.423L578.997 31.2753Z"/>
<path d="M620.985 67.8539L632.824 2.14607H654.27L645.439 51.0449H678.725L675.717 67.8539H620.985Z"/>
<path d="M679.5 67.8539L715.794 2.14607H740.734L753.156 67.8539H731.127L729.962 58.5899H706.478L702.014 67.8539H679.5ZM713.562 43.882H728.119L726.857 33.3764C726.728 32.294 726.598 31.2116 726.469 30.1292C726.34 29.0468 726.178 27.9963 725.984 26.9775C725.854 25.8951 725.725 24.8127 725.596 23.7303C725.466 22.6479 725.337 21.5655 725.207 20.4831H724.819C724.172 21.8839 723.493 23.3165 722.781 24.7809C722.07 26.1816 721.358 27.6142 720.646 29.0787C719.999 30.4794 719.32 31.912 718.608 33.3764L713.562 43.882Z"/>
<path d="M772.61 67.8539L777.171 42.3539L757.957 2.14607H781.441L790.757 24.2079H791.145L807.739 2.14607H832L798.617 42.3539L794.056 67.8539H772.61Z"/>
</mask>
<path d="M81.3446 69C76.8807 69 72.7402 68.7135 68.9232 68.1405C65.1062 67.6311 61.7745 66.7397 58.9279 65.4663C56.146 64.1929 53.9464 62.4101 52.329 60.118C50.7763 57.8258 50 54.9607 50 51.5225C50 50.6311 50.0323 49.676 50.097 48.6573C50.2264 47.5749 50.4205 46.5562 50.6793 45.6011H70.9611C70.7023 46.1105 70.5406 46.6199 70.4759 47.1292C70.4112 47.5749 70.3789 48.0206 70.3789 48.4663C70.3789 49.9307 70.7994 51.0768 71.6404 51.9045C72.4814 52.6685 73.6459 53.2097 75.1339 53.5281C76.6219 53.7828 78.304 53.9101 80.1801 53.9101C81.1505 53.9101 82.218 53.8783 83.3825 53.8146C84.547 53.6873 85.6468 53.4644 86.6819 53.1461C87.7818 52.8277 88.6551 52.3502 89.3021 51.7135C90.0137 51.0131 90.3695 50.0899 90.3695 48.9438C90.3695 47.9251 89.9167 47.0974 89.011 46.4607C88.1052 45.7603 86.876 45.1873 85.3234 44.7416C83.7707 44.2322 82.0239 43.7865 80.0831 43.4045C78.1422 42.9588 76.1367 42.4813 74.0665 41.9719C71.8021 41.3989 69.5378 40.7303 67.2735 39.9663C65.0739 39.1386 63.0683 38.088 61.2569 36.8146C59.5101 35.5412 58.0868 33.9494 56.987 32.0393C55.9519 30.0655 55.4344 27.6779 55.4344 24.8764C55.4344 20.4831 56.3724 16.7903 58.2486 13.7978C60.1247 10.7416 62.6155 8.29027 65.7208 6.44382C68.8262 4.53371 72.2874 3.16479 76.1044 2.33708C79.9213 1.44569 83.7707 1 87.6524 1C91.6634 1 95.3834 1.35019 98.8122 2.05057C102.241 2.68727 105.217 3.706 107.74 5.10675C110.263 6.50749 112.236 8.29026 113.66 10.4551C115.083 12.5562 115.795 15.0712 115.795 18C115.795 18.5094 115.762 19.0824 115.698 19.7191C115.633 20.3558 115.503 21.2472 115.309 22.3933H95.2217C95.2864 21.9476 95.3187 21.6292 95.3187 21.4382C95.3187 21.1835 95.3187 20.9288 95.3187 20.6742C95.3187 19.2097 94.7364 17.9682 93.5719 16.9494C92.4721 15.867 90.5636 15.3258 87.8465 15.3258C85.7115 15.3258 83.9001 15.5805 82.4121 16.0899C80.9888 16.5356 79.9213 17.1404 79.2097 17.9045C78.4981 18.6049 78.1422 19.3689 78.1422 20.1966C78.1422 21.0243 78.401 21.7247 78.9186 22.2978C79.4361 22.8708 80.1801 23.412 81.1505 23.9214C82.121 24.367 83.2531 24.7809 84.547 25.1629C85.9056 25.4813 87.3936 25.7996 89.011 26.118C91.5341 26.6273 94.1865 27.264 96.9684 28.0281C99.815 28.7285 102.467 29.7154 104.926 30.9888C107.384 32.2622 109.357 33.9494 110.845 36.0506C112.398 38.088 113.174 40.6985 113.174 43.882C113.174 48.0206 112.301 51.6816 110.554 54.8652C108.872 57.985 106.543 60.5955 103.567 62.6966C100.591 64.7978 97.1948 66.3895 93.3779 67.4719C89.5609 68.4906 85.5498 69 81.3446 69Z" stroke="url(#paint11_linear_25_3)" stroke-opacity="0.2" stroke-width="2" mask="url(#path-2-outside-2_25_3)"/>
<path d="M120.422 67.8539L132.261 2.14607H190.001L187.187 17.9045H150.893L149.243 26.9775H180.297L177.579 42.0674H146.526L144.682 52.0955H181.655L178.841 67.8539H120.422Z" stroke="url(#paint12_linear_25_3)" stroke-opacity="0.2" stroke-width="2" mask="url(#path-2-outside-2_25_3)"/>
<path d="M190.552 67.8539L202.294 2.14607H243.149C247.677 2.14607 251.43 2.91011 254.406 4.4382C257.382 5.96629 259.581 8.00374 261.005 10.5506C262.493 13.0337 263.237 15.8352 263.237 18.9551C263.237 23.03 262.59 26.5637 261.296 29.5562C260.066 32.5487 258.32 35.0955 256.055 37.1966C253.856 39.2341 251.268 40.9213 248.292 42.2584L256.832 67.8539H233.056L226.846 45.7921H215.977L211.998 67.8539H190.552ZM218.597 31.1798H232.668C233.962 31.1798 235.256 30.8296 236.55 30.1292C237.844 29.3652 238.911 28.3464 239.752 27.073C240.593 25.7996 241.014 24.3352 241.014 22.6798C241.014 21.0243 240.561 19.6873 239.655 18.6685C238.75 17.6498 237.553 17.1405 236.065 17.1405H221.023L218.597 31.1798Z" stroke="url(#paint13_linear_25_3)" stroke-opacity="0.2" stroke-width="2" mask="url(#path-2-outside-2_25_3)"/>
<path d="M265.985 67.8539L277.824 2.14607H299.27L287.431 67.8539H265.985Z" stroke="url(#paint14_linear_25_3)" stroke-opacity="0.2" stroke-width="2" mask="url(#path-2-outside-2_25_3)"/>
<path d="M335.772 69C329.044 69 323.286 68.0131 318.498 66.0393C313.776 64.0655 310.185 61.1367 307.727 57.2528C305.268 53.3052 304.039 48.4345 304.039 42.6405C304.039 41.3034 304.104 39.9345 304.233 38.5337C304.427 37.0693 304.654 35.573 304.912 34.0449C306.206 26.7865 308.535 20.706 311.899 15.8034C315.264 10.9008 319.76 7.20787 325.388 4.72472C331.017 2.24157 337.874 1 345.961 1C352.754 1 358.512 1.98689 363.235 3.96068C368.022 5.93446 371.645 8.89513 374.103 12.8427C376.562 16.7903 377.791 21.7247 377.791 27.6461C377.791 28.9195 377.726 30.2566 377.597 31.6573C377.468 33.0581 377.273 34.4906 377.015 35.9551C375.721 43.2135 373.327 49.294 369.834 54.1966C366.405 59.0992 361.844 62.7921 356.151 65.2753C350.522 67.7584 343.729 69 335.772 69ZM337.616 53.2416C339.945 53.2416 342.047 52.8914 343.923 52.191C345.864 51.427 347.546 50.3764 348.97 49.0393C350.393 47.7022 351.557 46.1105 352.463 44.264C353.433 42.3539 354.113 40.2846 354.501 38.0562C354.824 36.2097 355.083 34.7135 355.277 33.5674C355.471 32.3577 355.601 31.4026 355.665 30.7022C355.795 30.0019 355.86 29.4607 355.86 29.0787C355.924 28.6966 355.957 28.3464 355.957 28.0281C355.957 25.736 355.504 23.7622 354.598 22.1067C353.757 20.3876 352.463 19.0824 350.716 18.191C348.97 17.236 346.77 16.7584 344.117 16.7584C341.788 16.7584 339.653 17.1404 337.713 17.9045C335.836 18.6049 334.187 19.6236 332.763 20.9607C331.405 22.2978 330.24 23.9213 329.27 25.8315C328.364 27.6779 327.717 29.7154 327.329 31.9438C327.006 33.8539 326.747 35.4139 326.553 36.6236C326.359 37.7697 326.197 38.6929 326.068 39.3933C326.003 40.0936 325.938 40.6348 325.873 41.0169C325.873 41.3989 325.873 41.7491 325.873 42.0674C325.873 44.2959 326.294 46.2697 327.135 47.9888C327.976 49.6442 329.27 50.9494 331.017 51.9045C332.763 52.7959 334.963 53.2416 337.616 53.2416Z" stroke="url(#paint15_linear_25_3)" stroke-opacity="0.2" stroke-width="2" mask="url(#path-2-outside-2_25_3)"/>
<path d="M416.706 69C407.454 69 400.176 67.1854 394.871 63.5562C389.566 59.8633 386.914 54.3558 386.914 47.0337C386.914 46.0787 386.946 45.0918 387.011 44.073C387.14 43.0543 387.302 42.0037 387.496 40.9213L394.483 2.14607H415.929L408.942 41.1124C408.878 41.6217 408.813 42.1311 408.748 42.6405C408.684 43.1498 408.651 43.6592 408.651 44.1685C408.651 46.9064 409.428 49.103 410.98 50.7584C412.598 52.4139 415.088 53.2416 418.452 53.2416C422.399 53.2416 425.569 52.0955 427.963 49.8034C430.356 47.5112 431.877 44.6142 432.524 41.1124L439.511 2.14607H460.957L453.776 42.3539C452.741 48.2753 450.606 53.2097 447.371 57.1573C444.136 61.1049 439.931 64.0655 434.756 66.0393C429.645 68.0131 423.628 69 416.706 69Z" stroke="url(#paint16_linear_25_3)" stroke-opacity="0.2" stroke-width="2" mask="url(#path-2-outside-2_25_3)"/>
<path d="M494.437 69C489.973 69 485.833 68.7135 482.016 68.1405C478.199 67.6311 474.867 66.7397 472.02 65.4663C469.239 64.1929 467.039 62.4101 465.422 60.118C463.869 57.8258 463.093 54.9607 463.093 51.5225C463.093 50.6311 463.125 49.676 463.19 48.6573C463.319 47.5749 463.513 46.5562 463.772 45.6011H484.054C483.795 46.1105 483.633 46.6199 483.569 47.1292C483.504 47.5749 483.472 48.0206 483.472 48.4663C483.472 49.9307 483.892 51.0768 484.733 51.9045C485.574 52.6685 486.739 53.2097 488.227 53.5281C489.715 53.7828 491.397 53.9101 493.273 53.9101C494.243 53.9101 495.311 53.8783 496.475 53.8146C497.64 53.6873 498.739 53.4644 499.775 53.1461C500.874 52.8277 501.748 52.3502 502.395 51.7135C503.106 51.0131 503.462 50.0899 503.462 48.9438C503.462 47.9251 503.009 47.0974 502.104 46.4607C501.198 45.7603 499.969 45.1873 498.416 44.7416C496.863 44.2322 495.117 43.7865 493.176 43.4045C491.235 42.9588 489.229 42.4813 487.159 41.9719C484.895 41.3989 482.63 40.7303 480.366 39.9663C478.167 39.1386 476.161 38.088 474.35 36.8146C472.603 35.5412 471.179 33.9494 470.08 32.0393C469.045 30.0655 468.527 27.6779 468.527 24.8764C468.527 20.4831 469.465 16.7903 471.341 13.7978C473.217 10.7416 475.708 8.29027 478.813 6.44382C481.919 4.53371 485.38 3.16479 489.197 2.33708C493.014 1.44569 496.863 1 500.745 1C504.756 1 508.476 1.35019 511.905 2.05057C515.334 2.68727 518.31 3.706 520.833 5.10675C523.356 6.50749 525.329 8.29026 526.752 10.4551C528.176 12.5562 528.887 15.0712 528.887 18C528.887 18.5094 528.855 19.0824 528.79 19.7191C528.725 20.3558 528.596 21.2472 528.402 22.3933H508.314C508.379 21.9476 508.411 21.6292 508.411 21.4382C508.411 21.1835 508.411 20.9288 508.411 20.6742C508.411 19.2097 507.829 17.9682 506.665 16.9494C505.565 15.867 503.656 15.3258 500.939 15.3258C498.804 15.3258 496.993 15.5805 495.505 16.0899C494.081 16.5356 493.014 17.1404 492.302 17.9045C491.591 18.6049 491.235 19.3689 491.235 20.1966C491.235 21.0243 491.494 21.7247 492.011 22.2978C492.529 22.8708 493.273 23.412 494.243 23.9214C495.214 24.367 496.346 24.7809 497.64 25.1629C498.998 25.4813 500.486 25.7996 502.104 26.118C504.627 26.6273 507.279 27.264 510.061 28.0281C512.908 28.7285 515.56 29.7154 518.018 30.9888C520.477 32.2622 522.45 33.9494 523.938 36.0506C525.491 38.088 526.267 40.6985 526.267 43.882C526.267 48.0206 525.394 51.6816 523.647 54.8652C521.965 57.985 519.636 60.5955 516.66 62.6966C513.684 64.7978 510.287 66.3895 506.471 67.4719C502.654 68.4906 498.642 69 494.437 69Z" stroke="url(#paint17_linear_25_3)" stroke-opacity="0.2" stroke-width="2" mask="url(#path-2-outside-2_25_3)"/>
<path d="M550.951 67.8539L562.791 2.14607H601.413C605.166 2.14607 608.4 2.94195 611.118 4.53371C613.899 6.0618 616.067 8.22659 617.619 11.0281C619.172 13.8296 619.948 17.0449 619.948 20.6742C619.948 24.3034 619.334 27.7097 618.105 30.8933C616.94 34.0131 615.226 36.7509 612.961 39.1067C610.762 41.4625 608.109 43.309 605.004 44.6461C601.963 45.9831 598.534 46.6517 594.717 46.6517H576.182L572.398 67.8539H550.951ZM578.997 31.2753H590.156C591.968 31.2753 593.424 30.8933 594.523 30.1292C595.688 29.3652 596.529 28.3464 597.046 27.073C597.629 25.7996 597.92 24.3989 597.92 22.8708C597.92 21.2154 597.402 19.9419 596.367 19.0506C595.397 18.1592 593.909 17.7135 591.903 17.7135H581.423L578.997 31.2753Z" stroke="url(#paint18_linear_25_3)" stroke-opacity="0.2" stroke-width="2" mask="url(#path-2-outside-2_25_3)"/>
<path d="M620.985 67.8539L632.824 2.14607H654.27L645.439 51.0449H678.725L675.717 67.8539H620.985Z" stroke="url(#paint19_linear_25_3)" stroke-opacity="0.2" stroke-width="2" mask="url(#path-2-outside-2_25_3)"/>
<path d="M679.5 67.8539L715.794 2.14607H740.734L753.156 67.8539H731.127L729.962 58.5899H706.478L702.014 67.8539H679.5ZM713.562 43.882H728.119L726.857 33.3764C726.728 32.294 726.598 31.2116 726.469 30.1292C726.34 29.0468 726.178 27.9963 725.984 26.9775C725.854 25.8951 725.725 24.8127 725.596 23.7303C725.466 22.6479 725.337 21.5655 725.207 20.4831H724.819C724.172 21.8839 723.493 23.3165 722.781 24.7809C722.07 26.1816 721.358 27.6142 720.646 29.0787C719.999 30.4794 719.32 31.912 718.608 33.3764L713.562 43.882Z" stroke="url(#paint20_linear_25_3)" stroke-opacity="0.2" stroke-width="2" mask="url(#path-2-outside-2_25_3)"/>
<path d="M772.61 67.8539L777.171 42.3539L757.957 2.14607H781.441L790.757 24.2079H791.145L807.739 2.14607H832L798.617 42.3539L794.056 67.8539H772.61Z" stroke="url(#paint21_linear_25_3)" stroke-opacity="0.2" stroke-width="2" mask="url(#path-2-outside-2_25_3)"/>
<circle cx="862" cy="35" r="14.5" stroke="black" stroke-opacity="0.2"/>
<circle cx="15" cy="36" r="14.5" stroke="#FF0000" stroke-opacity="0.2"/>
<defs>
<linearGradient id="paint0_linear_25_3" x1="1697.98" y1="45.9998" x2="880.742" y2="20.6513" gradientUnits="userSpaceOnUse">
<stop stop-color="#FF0000"/>
<stop offset="1"/>
</linearGradient>
<linearGradient id="paint1_linear_25_3" x1="1697.98" y1="45.9998" x2="880.742" y2="20.6513" gradientUnits="userSpaceOnUse">
<stop stop-color="#FF0000"/>
<stop offset="1"/>
</linearGradient>
<linearGradient id="paint2_linear_25_3" x1="1697.98" y1="45.9998" x2="880.742" y2="20.6513" gradientUnits="userSpaceOnUse">
<stop stop-color="#FF0000"/>
<stop offset="1"/>
</linearGradient>
<linearGradient id="paint3_linear_25_3" x1="1697.98" y1="45.9998" x2="880.742" y2="20.6513" gradientUnits="userSpaceOnUse">
<stop stop-color="#FF0000"/>
<stop offset="1"/>
</linearGradient>
<linearGradient id="paint4_linear_25_3" x1="1697.98" y1="45.9998" x2="880.742" y2="20.6513" gradientUnits="userSpaceOnUse">
<stop stop-color="#FF0000"/>
<stop offset="1"/>
</linearGradient>
<linearGradient id="paint5_linear_25_3" x1="1697.98" y1="45.9998" x2="880.742" y2="20.6513" gradientUnits="userSpaceOnUse">
<stop stop-color="#FF0000"/>
<stop offset="1"/>
</linearGradient>
<linearGradient id="paint6_linear_25_3" x1="1697.98" y1="45.9998" x2="880.742" y2="20.6513" gradientUnits="userSpaceOnUse">
<stop stop-color="#FF0000"/>
<stop offset="1"/>
</linearGradient>
<linearGradient id="paint7_linear_25_3" x1="1697.98" y1="45.9998" x2="880.742" y2="20.6513" gradientUnits="userSpaceOnUse">
<stop stop-color="#FF0000"/>
<stop offset="1"/>
</linearGradient>
<linearGradient id="paint8_linear_25_3" x1="1697.98" y1="45.9998" x2="880.742" y2="20.6513" gradientUnits="userSpaceOnUse">
<stop stop-color="#FF0000"/>
<stop offset="1"/>
</linearGradient>
<linearGradient id="paint9_linear_25_3" x1="1697.98" y1="45.9998" x2="880.742" y2="20.6513" gradientUnits="userSpaceOnUse">
<stop stop-color="#FF0000"/>
<stop offset="1"/>
</linearGradient>
<linearGradient id="paint10_linear_25_3" x1="1697.98" y1="45.9998" x2="880.742" y2="20.6513" gradientUnits="userSpaceOnUse">
<stop stop-color="#FF0000"/>
<stop offset="1"/>
</linearGradient>
<linearGradient id="paint11_linear_25_3" x1="50" y1="46" x2="775.316" y2="20.655" gradientUnits="userSpaceOnUse">
<stop stop-color="#FF0000"/>
<stop offset="1"/>
</linearGradient>
<linearGradient id="paint12_linear_25_3" x1="50" y1="46" x2="775.316" y2="20.655" gradientUnits="userSpaceOnUse">
<stop stop-color="#FF0000"/>
<stop offset="1"/>
</linearGradient>
<linearGradient id="paint13_linear_25_3" x1="50" y1="46" x2="775.316" y2="20.655" gradientUnits="userSpaceOnUse">
<stop stop-color="#FF0000"/>
<stop offset="1"/>
</linearGradient>
<linearGradient id="paint14_linear_25_3" x1="50" y1="46" x2="775.316" y2="20.655" gradientUnits="userSpaceOnUse">
<stop stop-color="#FF0000"/>
<stop offset="1"/>
</linearGradient>
<linearGradient id="paint15_linear_25_3" x1="50" y1="46" x2="775.316" y2="20.655" gradientUnits="userSpaceOnUse">
<stop stop-color="#FF0000"/>
<stop offset="1"/>
</linearGradient>
<linearGradient id="paint16_linear_25_3" x1="50" y1="46" x2="775.316" y2="20.655" gradientUnits="userSpaceOnUse">
<stop stop-color="#FF0000"/>
<stop offset="1"/>
</linearGradient>
<linearGradient id="paint17_linear_25_3" x1="50" y1="46" x2="775.316" y2="20.655" gradientUnits="userSpaceOnUse">
<stop stop-color="#FF0000"/>
<stop offset="1"/>
</linearGradient>
<linearGradient id="paint18_linear_25_3" x1="50" y1="46" x2="775.316" y2="20.655" gradientUnits="userSpaceOnUse">
<stop stop-color="#FF0000"/>
<stop offset="1"/>
</linearGradient>
<linearGradient id="paint19_linear_25_3" x1="50" y1="46" x2="775.316" y2="20.655" gradientUnits="userSpaceOnUse">
<stop stop-color="#FF0000"/>
<stop offset="1"/>
</linearGradient>
<linearGradient id="paint20_linear_25_3" x1="50" y1="46" x2="775.316" y2="20.655" gradientUnits="userSpaceOnUse">
<stop stop-color="#FF0000"/>
<stop offset="1"/>
</linearGradient>
<linearGradient id="paint21_linear_25_3" x1="50" y1="46" x2="775.316" y2="20.655" gradientUnits="userSpaceOnUse">
<stop stop-color="#FF0000"/>
<stop offset="1"/>
</linearGradient>
</defs>
</svg>
