<svg width="1920" height="70" viewBox="0 0 1920 70" fill="none" xmlns="http://www.w3.org/2000/svg">
<mask id="path-1-outside-1_116_2" maskUnits="userSpaceOnUse" x="-69" y="0" width="786" height="70" fill="black">
<rect fill="white" x="-69" width="786" height="70"/>
<path d="M-36.6554 69C-41.1193 69 -45.2598 68.7135 -49.0768 68.1404C-52.8938 67.6311 -56.2255 66.7397 -59.0721 65.4663C-61.854 64.1929 -64.0536 62.4101 -65.671 60.118C-67.2237 57.8258 -68 54.9607 -68 51.5225C-68 50.6311 -67.9677 49.676 -67.903 48.6573C-67.7736 47.5749 -67.5795 46.5562 -67.3207 45.6011H-47.0389C-47.2977 46.1105 -47.4594 46.6199 -47.5241 47.1292C-47.5888 47.5749 -47.6211 48.0206 -47.6211 48.4663C-47.6211 49.9307 -47.2006 51.0768 -46.3596 51.9045C-45.5186 52.6685 -44.3541 53.2097 -42.8661 53.5281C-41.3781 53.7828 -39.696 53.9101 -37.8199 53.9101C-36.8495 53.9101 -35.782 53.8783 -34.6175 53.8146C-33.453 53.6873 -32.3532 53.4644 -31.3181 53.1461C-30.2182 52.8277 -29.3449 52.3502 -28.6979 51.7135C-27.9863 51.0131 -27.6305 50.0899 -27.6305 48.9438C-27.6305 47.9251 -28.0833 47.0974 -28.989 46.4607C-29.8948 45.7603 -31.124 45.1873 -32.6766 44.7416C-34.2293 44.2322 -35.9761 43.7865 -37.9169 43.4045C-39.8578 42.9588 -41.8633 42.4813 -43.9335 41.9719C-46.1979 41.3989 -48.4622 40.7303 -50.7265 39.9663C-52.9261 39.1386 -54.9317 38.088 -56.7431 36.8146C-58.4899 35.5412 -59.9132 33.9494 -61.013 32.0393C-62.0481 30.0655 -62.5656 27.6779 -62.5656 24.8764C-62.5656 20.4831 -61.6276 16.7903 -59.7514 13.7978C-57.8753 10.7416 -55.3845 8.29027 -52.2792 6.44382C-49.1738 4.53371 -45.7126 3.16479 -41.8956 2.33708C-38.0787 1.44569 -34.2293 1 -30.3476 1C-26.3366 1 -22.6166 1.35019 -19.1878 2.05057C-15.759 2.68727 -12.783 3.706 -10.2599 5.10675C-7.73681 6.50749 -5.76361 8.29026 -4.34033 10.4551C-2.91705 12.5562 -2.2054 15.0712 -2.2054 18C-2.2054 18.5094 -2.23775 19.0824 -2.30244 19.7191C-2.36713 20.3558 -2.49653 21.2472 -2.69061 22.3933H-22.7783C-22.7136 21.9476 -22.6813 21.6292 -22.6813 21.4382C-22.6813 21.1835 -22.6813 20.9288 -22.6813 20.6742C-22.6813 19.2097 -23.2636 17.9682 -24.4281 16.9494C-25.5279 15.867 -27.4364 15.3258 -30.1535 15.3258C-32.2885 15.3258 -34.0999 15.5805 -35.5879 16.0899C-37.0112 16.5356 -38.0787 17.1404 -38.7903 17.9045C-39.5019 18.6049 -39.8578 19.3689 -39.8578 20.1966C-39.8578 21.0243 -39.599 21.7247 -39.0814 22.2978C-38.5639 22.8708 -37.8199 23.412 -36.8495 23.9214C-35.879 24.367 -34.7469 24.7809 -33.453 25.1629C-32.0944 25.4813 -30.6064 25.7996 -28.989 26.118C-26.466 26.6273 -23.8135 27.264 -21.0316 28.0281C-18.185 28.7285 -15.5325 29.7154 -13.0741 30.9888C-10.6157 32.2622 -8.64253 33.9494 -7.15455 36.0506C-5.60188 38.088 -4.82554 40.6985 -4.82554 43.882C-4.82554 48.0206 -5.69892 51.6816 -7.44568 54.8652C-9.12774 57.985 -11.4568 60.5955 -14.4327 62.6966C-17.4087 64.7977 -20.8052 66.3895 -24.6221 67.4719C-28.4391 68.4906 -32.4502 69 -36.6554 69Z"/>
<path d="M2.42153 67.8539L14.2607 2.14607H72.0008L69.1866 17.9045H32.8928L31.2431 26.9775H62.2966L59.5794 42.0674H28.5259L26.6821 52.0955H63.6552L60.8409 67.8539H2.42153Z"/>
<path d="M72.552 67.8539L84.2941 2.14607H125.149C129.677 2.14607 133.43 2.91011 136.406 4.4382C139.382 5.96629 141.581 8.00375 143.005 10.5506C144.493 13.0337 145.237 15.8352 145.237 18.9551C145.237 23.03 144.59 26.5637 143.296 29.5562C142.066 32.5487 140.32 35.0955 138.055 37.1966C135.856 39.2341 133.268 40.9213 130.292 42.2584L138.832 67.8539H115.056L108.846 45.7921H97.977L93.9983 67.8539H72.552ZM100.597 31.1798H114.668C115.962 31.1798 117.256 30.8296 118.55 30.1292C119.844 29.3652 120.911 28.3464 121.752 27.073C122.593 25.7996 123.014 24.3352 123.014 22.6798C123.014 21.0243 122.561 19.6873 121.655 18.6685C120.75 17.6498 119.553 17.1405 118.065 17.1405H103.023L100.597 31.1798Z"/>
<path d="M147.985 67.8539L159.824 2.14607H181.27L169.431 67.8539H147.985Z"/>
<path d="M217.772 69C211.044 69 205.286 68.0131 200.498 66.0393C195.776 64.0655 192.185 61.1367 189.727 57.2528C187.268 53.3052 186.039 48.4345 186.039 42.6405C186.039 41.3034 186.104 39.9345 186.233 38.5337C186.427 37.0693 186.654 35.573 186.912 34.0449C188.206 26.7865 190.535 20.706 193.899 15.8034C197.264 10.9008 201.76 7.20787 207.388 4.72472C213.017 2.24157 219.874 1 227.961 1C234.754 1 240.512 1.98689 245.235 3.96068C250.022 5.93446 253.645 8.89513 256.103 12.8427C258.562 16.7903 259.791 21.7247 259.791 27.6461C259.791 28.9195 259.726 30.2566 259.597 31.6573C259.468 33.0581 259.273 34.4906 259.015 35.9551C257.721 43.2135 255.327 49.294 251.834 54.1966C248.405 59.0993 243.844 62.7921 238.151 65.2753C232.522 67.7584 225.729 69 217.772 69ZM219.616 53.2416C221.945 53.2416 224.047 52.8914 225.923 52.191C227.864 51.427 229.546 50.3764 230.97 49.0393C232.393 47.7023 233.557 46.1105 234.463 44.264C235.433 42.3539 236.113 40.2846 236.501 38.0562C236.824 36.2097 237.083 34.7135 237.277 33.5674C237.471 32.3577 237.601 31.4026 237.665 30.7022C237.795 30.0019 237.86 29.4607 237.86 29.0787C237.924 28.6966 237.957 28.3464 237.957 28.0281C237.957 25.736 237.504 23.7622 236.598 22.1067C235.757 20.3876 234.463 19.0824 232.716 18.191C230.97 17.236 228.77 16.7584 226.117 16.7584C223.788 16.7584 221.653 17.1404 219.713 17.9045C217.836 18.6049 216.187 19.6236 214.763 20.9607C213.405 22.2978 212.24 23.9213 211.27 25.8315C210.364 27.6779 209.717 29.7154 209.329 31.9438C209.006 33.8539 208.747 35.4139 208.553 36.6236C208.359 37.7697 208.197 38.6929 208.068 39.3933C208.003 40.0936 207.938 40.6348 207.873 41.0169C207.873 41.3989 207.873 41.7491 207.873 42.0674C207.873 44.2959 208.294 46.2697 209.135 47.9888C209.976 49.6442 211.27 50.9494 213.017 51.9045C214.763 52.7959 216.963 53.2416 219.616 53.2416Z"/>
<path d="M298.706 69C289.454 69 282.176 67.1854 276.871 63.5562C271.566 59.8633 268.914 54.3558 268.914 47.0337C268.914 46.0787 268.946 45.0918 269.011 44.073C269.14 43.0543 269.302 42.0037 269.496 40.9213L276.483 2.14607H297.929L290.942 41.1124C290.878 41.6217 290.813 42.1311 290.748 42.6405C290.684 43.1498 290.651 43.6592 290.651 44.1685C290.651 46.9064 291.428 49.103 292.98 50.7584C294.598 52.4139 297.088 53.2416 300.452 53.2416C304.399 53.2416 307.569 52.0955 309.963 49.8034C312.356 47.5112 313.877 44.6142 314.524 41.1124L321.511 2.14607H342.957L335.776 42.3539C334.741 48.2753 332.606 53.2097 329.371 57.1573C326.136 61.1049 321.931 64.0655 316.756 66.0393C311.645 68.0131 305.628 69 298.706 69Z"/>
<path d="M376.437 69C371.973 69 367.833 68.7135 364.016 68.1404C360.199 67.6311 356.867 66.7397 354.021 65.4663C351.239 64.1929 349.039 62.4101 347.422 60.118C345.869 57.8258 345.093 54.9607 345.093 51.5225C345.093 50.6311 345.125 49.676 345.19 48.6573C345.319 47.5749 345.513 46.5562 345.772 45.6011H366.054C365.795 46.1105 365.633 46.6199 365.569 47.1292C365.504 47.5749 365.471 48.0206 365.471 48.4663C365.471 49.9307 365.892 51.0768 366.733 51.9045C367.574 52.6685 368.739 53.2097 370.227 53.5281C371.715 53.7828 373.397 53.9101 375.273 53.9101C376.243 53.9101 377.311 53.8783 378.475 53.8146C379.64 53.6873 380.739 53.4644 381.775 53.1461C382.874 52.8277 383.748 52.3502 384.395 51.7135C385.106 51.0131 385.462 50.0899 385.462 48.9438C385.462 47.9251 385.009 47.0974 384.104 46.4607C383.198 45.7603 381.969 45.1873 380.416 44.7416C378.863 44.2322 377.117 43.7865 375.176 43.4045C373.235 42.9588 371.229 42.4813 369.159 41.9719C366.895 41.3989 364.63 40.7303 362.366 39.9663C360.167 39.1386 358.161 38.088 356.35 36.8146C354.603 35.5412 353.18 33.9494 352.08 32.0393C351.045 30.0655 350.527 27.6779 350.527 24.8764C350.527 20.4831 351.465 16.7903 353.341 13.7978C355.217 10.7416 357.708 8.29027 360.813 6.44382C363.919 4.53371 367.38 3.16479 371.197 2.33708C375.014 1.44569 378.863 1 382.745 1C386.756 1 390.476 1.35019 393.905 2.05057C397.334 2.68727 400.31 3.706 402.833 5.10675C405.356 6.50749 407.329 8.29026 408.752 10.4551C410.176 12.5562 410.887 15.0712 410.887 18C410.887 18.5094 410.855 19.0824 410.79 19.7191C410.725 20.3558 410.596 21.2472 410.402 22.3933H390.314C390.379 21.9476 390.411 21.6292 390.411 21.4382C390.411 21.1835 390.411 20.9288 390.411 20.6742C390.411 19.2097 389.829 17.9682 388.665 16.9494C387.565 15.867 385.656 15.3258 382.939 15.3258C380.804 15.3258 378.993 15.5805 377.505 16.0899C376.081 16.5356 375.014 17.1404 374.302 17.9045C373.591 18.6049 373.235 19.3689 373.235 20.1966C373.235 21.0243 373.494 21.7247 374.011 22.2978C374.529 22.8708 375.273 23.412 376.243 23.9214C377.214 24.367 378.346 24.7809 379.64 25.1629C380.998 25.4813 382.486 25.7996 384.104 26.118C386.627 26.6273 389.279 27.264 392.061 28.0281C394.908 28.7285 397.56 29.7154 400.018 30.9888C402.477 32.2622 404.45 33.9494 405.938 36.0506C407.491 38.088 408.267 40.6985 408.267 43.882C408.267 48.0206 407.394 51.6816 405.647 54.8652C403.965 57.985 401.636 60.5955 398.66 62.6966C395.684 64.7977 392.288 66.3895 388.47 67.4719C384.654 68.4906 380.642 69 376.437 69Z"/>
<path d="M432.951 67.8539L444.791 2.14607H483.413C487.166 2.14607 490.4 2.94195 493.118 4.53371C495.899 6.0618 498.067 8.22659 499.619 11.0281C501.172 13.8296 501.948 17.0449 501.948 20.6742C501.948 24.3034 501.334 27.7097 500.105 30.8933C498.94 34.0131 497.226 36.7509 494.961 39.1067C492.762 41.4625 490.109 43.309 487.004 44.6461C483.963 45.9831 480.534 46.6517 476.717 46.6517H458.182L454.398 67.8539H432.951ZM460.997 31.2753H472.156C473.968 31.2753 475.424 30.8933 476.523 30.1292C477.688 29.3652 478.529 28.3464 479.046 27.073C479.629 25.7996 479.92 24.3989 479.92 22.8708C479.92 21.2154 479.402 19.9419 478.367 19.0506C477.397 18.1592 475.909 17.7135 473.903 17.7135H463.423L460.997 31.2753Z"/>
<path d="M502.985 67.8539L514.824 2.14607H536.27L527.439 51.0449H560.725L557.717 67.8539H502.985Z"/>
<path d="M561.5 67.8539L597.794 2.14607H622.734L635.156 67.8539H613.127L611.962 58.5899H588.478L584.014 67.8539H561.5ZM595.562 43.882H610.119L608.857 33.3764C608.728 32.294 608.598 31.2116 608.469 30.1292C608.34 29.0468 608.178 27.9963 607.984 26.9775C607.854 25.8951 607.725 24.8127 607.596 23.7303C607.466 22.6479 607.337 21.5655 607.207 20.4831H606.819C606.172 21.8839 605.493 23.3165 604.781 24.7809C604.07 26.1816 603.358 27.6142 602.646 29.0787C601.999 30.4794 601.32 31.912 600.608 33.3764L595.562 43.882Z"/>
<path d="M654.61 67.8539L659.171 42.3539L639.957 2.14607H663.441L672.757 24.2079H673.145L689.739 2.14607H714L680.617 42.3539L676.056 67.8539H654.61Z"/>
</mask>
<path d="M-36.6554 69C-41.1193 69 -45.2598 68.7135 -49.0768 68.1404C-52.8938 67.6311 -56.2255 66.7397 -59.0721 65.4663C-61.854 64.1929 -64.0536 62.4101 -65.671 60.118C-67.2237 57.8258 -68 54.9607 -68 51.5225C-68 50.6311 -67.9677 49.676 -67.903 48.6573C-67.7736 47.5749 -67.5795 46.5562 -67.3207 45.6011H-47.0389C-47.2977 46.1105 -47.4594 46.6199 -47.5241 47.1292C-47.5888 47.5749 -47.6211 48.0206 -47.6211 48.4663C-47.6211 49.9307 -47.2006 51.0768 -46.3596 51.9045C-45.5186 52.6685 -44.3541 53.2097 -42.8661 53.5281C-41.3781 53.7828 -39.696 53.9101 -37.8199 53.9101C-36.8495 53.9101 -35.782 53.8783 -34.6175 53.8146C-33.453 53.6873 -32.3532 53.4644 -31.3181 53.1461C-30.2182 52.8277 -29.3449 52.3502 -28.6979 51.7135C-27.9863 51.0131 -27.6305 50.0899 -27.6305 48.9438C-27.6305 47.9251 -28.0833 47.0974 -28.989 46.4607C-29.8948 45.7603 -31.124 45.1873 -32.6766 44.7416C-34.2293 44.2322 -35.9761 43.7865 -37.9169 43.4045C-39.8578 42.9588 -41.8633 42.4813 -43.9335 41.9719C-46.1979 41.3989 -48.4622 40.7303 -50.7265 39.9663C-52.9261 39.1386 -54.9317 38.088 -56.7431 36.8146C-58.4899 35.5412 -59.9132 33.9494 -61.013 32.0393C-62.0481 30.0655 -62.5656 27.6779 -62.5656 24.8764C-62.5656 20.4831 -61.6276 16.7903 -59.7514 13.7978C-57.8753 10.7416 -55.3845 8.29027 -52.2792 6.44382C-49.1738 4.53371 -45.7126 3.16479 -41.8956 2.33708C-38.0787 1.44569 -34.2293 1 -30.3476 1C-26.3366 1 -22.6166 1.35019 -19.1878 2.05057C-15.759 2.68727 -12.783 3.706 -10.2599 5.10675C-7.73681 6.50749 -5.76361 8.29026 -4.34033 10.4551C-2.91705 12.5562 -2.2054 15.0712 -2.2054 18C-2.2054 18.5094 -2.23775 19.0824 -2.30244 19.7191C-2.36713 20.3558 -2.49653 21.2472 -2.69061 22.3933H-22.7783C-22.7136 21.9476 -22.6813 21.6292 -22.6813 21.4382C-22.6813 21.1835 -22.6813 20.9288 -22.6813 20.6742C-22.6813 19.2097 -23.2636 17.9682 -24.4281 16.9494C-25.5279 15.867 -27.4364 15.3258 -30.1535 15.3258C-32.2885 15.3258 -34.0999 15.5805 -35.5879 16.0899C-37.0112 16.5356 -38.0787 17.1404 -38.7903 17.9045C-39.5019 18.6049 -39.8578 19.3689 -39.8578 20.1966C-39.8578 21.0243 -39.599 21.7247 -39.0814 22.2978C-38.5639 22.8708 -37.8199 23.412 -36.8495 23.9214C-35.879 24.367 -34.7469 24.7809 -33.453 25.1629C-32.0944 25.4813 -30.6064 25.7996 -28.989 26.118C-26.466 26.6273 -23.8135 27.264 -21.0316 28.0281C-18.185 28.7285 -15.5325 29.7154 -13.0741 30.9888C-10.6157 32.2622 -8.64253 33.9494 -7.15455 36.0506C-5.60188 38.088 -4.82554 40.6985 -4.82554 43.882C-4.82554 48.0206 -5.69892 51.6816 -7.44568 54.8652C-9.12774 57.985 -11.4568 60.5955 -14.4327 62.6966C-17.4087 64.7977 -20.8052 66.3895 -24.6221 67.4719C-28.4391 68.4906 -32.4502 69 -36.6554 69Z" stroke="url(#paint0_linear_116_2)" stroke-opacity="0.2" stroke-width="2" mask="url(#path-1-outside-1_116_2)"/>
<path d="M2.42153 67.8539L14.2607 2.14607H72.0008L69.1866 17.9045H32.8928L31.2431 26.9775H62.2966L59.5794 42.0674H28.5259L26.6821 52.0955H63.6552L60.8409 67.8539H2.42153Z" stroke="url(#paint1_linear_116_2)" stroke-opacity="0.2" stroke-width="2" mask="url(#path-1-outside-1_116_2)"/>
<path d="M72.552 67.8539L84.2941 2.14607H125.149C129.677 2.14607 133.43 2.91011 136.406 4.4382C139.382 5.96629 141.581 8.00375 143.005 10.5506C144.493 13.0337 145.237 15.8352 145.237 18.9551C145.237 23.03 144.59 26.5637 143.296 29.5562C142.066 32.5487 140.32 35.0955 138.055 37.1966C135.856 39.2341 133.268 40.9213 130.292 42.2584L138.832 67.8539H115.056L108.846 45.7921H97.977L93.9983 67.8539H72.552ZM100.597 31.1798H114.668C115.962 31.1798 117.256 30.8296 118.55 30.1292C119.844 29.3652 120.911 28.3464 121.752 27.073C122.593 25.7996 123.014 24.3352 123.014 22.6798C123.014 21.0243 122.561 19.6873 121.655 18.6685C120.75 17.6498 119.553 17.1405 118.065 17.1405H103.023L100.597 31.1798Z" stroke="url(#paint2_linear_116_2)" stroke-opacity="0.2" stroke-width="2" mask="url(#path-1-outside-1_116_2)"/>
<path d="M147.985 67.8539L159.824 2.14607H181.27L169.431 67.8539H147.985Z" stroke="url(#paint3_linear_116_2)" stroke-opacity="0.2" stroke-width="2" mask="url(#path-1-outside-1_116_2)"/>
<path d="M217.772 69C211.044 69 205.286 68.0131 200.498 66.0393C195.776 64.0655 192.185 61.1367 189.727 57.2528C187.268 53.3052 186.039 48.4345 186.039 42.6405C186.039 41.3034 186.104 39.9345 186.233 38.5337C186.427 37.0693 186.654 35.573 186.912 34.0449C188.206 26.7865 190.535 20.706 193.899 15.8034C197.264 10.9008 201.76 7.20787 207.388 4.72472C213.017 2.24157 219.874 1 227.961 1C234.754 1 240.512 1.98689 245.235 3.96068C250.022 5.93446 253.645 8.89513 256.103 12.8427C258.562 16.7903 259.791 21.7247 259.791 27.6461C259.791 28.9195 259.726 30.2566 259.597 31.6573C259.468 33.0581 259.273 34.4906 259.015 35.9551C257.721 43.2135 255.327 49.294 251.834 54.1966C248.405 59.0993 243.844 62.7921 238.151 65.2753C232.522 67.7584 225.729 69 217.772 69ZM219.616 53.2416C221.945 53.2416 224.047 52.8914 225.923 52.191C227.864 51.427 229.546 50.3764 230.97 49.0393C232.393 47.7023 233.557 46.1105 234.463 44.264C235.433 42.3539 236.113 40.2846 236.501 38.0562C236.824 36.2097 237.083 34.7135 237.277 33.5674C237.471 32.3577 237.601 31.4026 237.665 30.7022C237.795 30.0019 237.86 29.4607 237.86 29.0787C237.924 28.6966 237.957 28.3464 237.957 28.0281C237.957 25.736 237.504 23.7622 236.598 22.1067C235.757 20.3876 234.463 19.0824 232.716 18.191C230.97 17.236 228.77 16.7584 226.117 16.7584C223.788 16.7584 221.653 17.1404 219.713 17.9045C217.836 18.6049 216.187 19.6236 214.763 20.9607C213.405 22.2978 212.24 23.9213 211.27 25.8315C210.364 27.6779 209.717 29.7154 209.329 31.9438C209.006 33.8539 208.747 35.4139 208.553 36.6236C208.359 37.7697 208.197 38.6929 208.068 39.3933C208.003 40.0936 207.938 40.6348 207.873 41.0169C207.873 41.3989 207.873 41.7491 207.873 42.0674C207.873 44.2959 208.294 46.2697 209.135 47.9888C209.976 49.6442 211.27 50.9494 213.017 51.9045C214.763 52.7959 216.963 53.2416 219.616 53.2416Z" stroke="url(#paint4_linear_116_2)" stroke-opacity="0.2" stroke-width="2" mask="url(#path-1-outside-1_116_2)"/>
<path d="M298.706 69C289.454 69 282.176 67.1854 276.871 63.5562C271.566 59.8633 268.914 54.3558 268.914 47.0337C268.914 46.0787 268.946 45.0918 269.011 44.073C269.14 43.0543 269.302 42.0037 269.496 40.9213L276.483 2.14607H297.929L290.942 41.1124C290.878 41.6217 290.813 42.1311 290.748 42.6405C290.684 43.1498 290.651 43.6592 290.651 44.1685C290.651 46.9064 291.428 49.103 292.98 50.7584C294.598 52.4139 297.088 53.2416 300.452 53.2416C304.399 53.2416 307.569 52.0955 309.963 49.8034C312.356 47.5112 313.877 44.6142 314.524 41.1124L321.511 2.14607H342.957L335.776 42.3539C334.741 48.2753 332.606 53.2097 329.371 57.1573C326.136 61.1049 321.931 64.0655 316.756 66.0393C311.645 68.0131 305.628 69 298.706 69Z" stroke="url(#paint5_linear_116_2)" stroke-opacity="0.2" stroke-width="2" mask="url(#path-1-outside-1_116_2)"/>
<path d="M376.437 69C371.973 69 367.833 68.7135 364.016 68.1404C360.199 67.6311 356.867 66.7397 354.021 65.4663C351.239 64.1929 349.039 62.4101 347.422 60.118C345.869 57.8258 345.093 54.9607 345.093 51.5225C345.093 50.6311 345.125 49.676 345.19 48.6573C345.319 47.5749 345.513 46.5562 345.772 45.6011H366.054C365.795 46.1105 365.633 46.6199 365.569 47.1292C365.504 47.5749 365.471 48.0206 365.471 48.4663C365.471 49.9307 365.892 51.0768 366.733 51.9045C367.574 52.6685 368.739 53.2097 370.227 53.5281C371.715 53.7828 373.397 53.9101 375.273 53.9101C376.243 53.9101 377.311 53.8783 378.475 53.8146C379.64 53.6873 380.739 53.4644 381.775 53.1461C382.874 52.8277 383.748 52.3502 384.395 51.7135C385.106 51.0131 385.462 50.0899 385.462 48.9438C385.462 47.9251 385.009 47.0974 384.104 46.4607C383.198 45.7603 381.969 45.1873 380.416 44.7416C378.863 44.2322 377.117 43.7865 375.176 43.4045C373.235 42.9588 371.229 42.4813 369.159 41.9719C366.895 41.3989 364.63 40.7303 362.366 39.9663C360.167 39.1386 358.161 38.088 356.35 36.8146C354.603 35.5412 353.18 33.9494 352.08 32.0393C351.045 30.0655 350.527 27.6779 350.527 24.8764C350.527 20.4831 351.465 16.7903 353.341 13.7978C355.217 10.7416 357.708 8.29027 360.813 6.44382C363.919 4.53371 367.38 3.16479 371.197 2.33708C375.014 1.44569 378.863 1 382.745 1C386.756 1 390.476 1.35019 393.905 2.05057C397.334 2.68727 400.31 3.706 402.833 5.10675C405.356 6.50749 407.329 8.29026 408.752 10.4551C410.176 12.5562 410.887 15.0712 410.887 18C410.887 18.5094 410.855 19.0824 410.79 19.7191C410.725 20.3558 410.596 21.2472 410.402 22.3933H390.314C390.379 21.9476 390.411 21.6292 390.411 21.4382C390.411 21.1835 390.411 20.9288 390.411 20.6742C390.411 19.2097 389.829 17.9682 388.665 16.9494C387.565 15.867 385.656 15.3258 382.939 15.3258C380.804 15.3258 378.993 15.5805 377.505 16.0899C376.081 16.5356 375.014 17.1404 374.302 17.9045C373.591 18.6049 373.235 19.3689 373.235 20.1966C373.235 21.0243 373.494 21.7247 374.011 22.2978C374.529 22.8708 375.273 23.412 376.243 23.9214C377.214 24.367 378.346 24.7809 379.64 25.1629C380.998 25.4813 382.486 25.7996 384.104 26.118C386.627 26.6273 389.279 27.264 392.061 28.0281C394.908 28.7285 397.56 29.7154 400.018 30.9888C402.477 32.2622 404.45 33.9494 405.938 36.0506C407.491 38.088 408.267 40.6985 408.267 43.882C408.267 48.0206 407.394 51.6816 405.647 54.8652C403.965 57.985 401.636 60.5955 398.66 62.6966C395.684 64.7977 392.288 66.3895 388.47 67.4719C384.654 68.4906 380.642 69 376.437 69Z" stroke="url(#paint6_linear_116_2)" stroke-opacity="0.2" stroke-width="2" mask="url(#path-1-outside-1_116_2)"/>
<path d="M432.951 67.8539L444.791 2.14607H483.413C487.166 2.14607 490.4 2.94195 493.118 4.53371C495.899 6.0618 498.067 8.22659 499.619 11.0281C501.172 13.8296 501.948 17.0449 501.948 20.6742C501.948 24.3034 501.334 27.7097 500.105 30.8933C498.94 34.0131 497.226 36.7509 494.961 39.1067C492.762 41.4625 490.109 43.309 487.004 44.6461C483.963 45.9831 480.534 46.6517 476.717 46.6517H458.182L454.398 67.8539H432.951ZM460.997 31.2753H472.156C473.968 31.2753 475.424 30.8933 476.523 30.1292C477.688 29.3652 478.529 28.3464 479.046 27.073C479.629 25.7996 479.92 24.3989 479.92 22.8708C479.92 21.2154 479.402 19.9419 478.367 19.0506C477.397 18.1592 475.909 17.7135 473.903 17.7135H463.423L460.997 31.2753Z" stroke="url(#paint7_linear_116_2)" stroke-opacity="0.2" stroke-width="2" mask="url(#path-1-outside-1_116_2)"/>
<path d="M502.985 67.8539L514.824 2.14607H536.27L527.439 51.0449H560.725L557.717 67.8539H502.985Z" stroke="url(#paint8_linear_116_2)" stroke-opacity="0.2" stroke-width="2" mask="url(#path-1-outside-1_116_2)"/>
<path d="M561.5 67.8539L597.794 2.14607H622.734L635.156 67.8539H613.127L611.962 58.5899H588.478L584.014 67.8539H561.5ZM595.562 43.882H610.119L608.857 33.3764C608.728 32.294 608.598 31.2116 608.469 30.1292C608.34 29.0468 608.178 27.9963 607.984 26.9775C607.854 25.8951 607.725 24.8127 607.596 23.7303C607.466 22.6479 607.337 21.5655 607.207 20.4831H606.819C606.172 21.8839 605.493 23.3165 604.781 24.7809C604.07 26.1816 603.358 27.6142 602.646 29.0787C601.999 30.4794 601.32 31.912 600.608 33.3764L595.562 43.882Z" stroke="url(#paint9_linear_116_2)" stroke-opacity="0.2" stroke-width="2" mask="url(#path-1-outside-1_116_2)"/>
<path d="M654.61 67.8539L659.171 42.3539L639.957 2.14607H663.441L672.757 24.2079H673.145L689.739 2.14607H714L680.617 42.3539L676.056 67.8539H654.61Z" stroke="url(#paint10_linear_116_2)" stroke-opacity="0.2" stroke-width="2" mask="url(#path-1-outside-1_116_2)"/>
<mask id="path-2-outside-2_116_2" maskUnits="userSpaceOnUse" x="1625" y="0" width="786" height="70" fill="black">
<rect fill="white" x="1625" width="786" height="70"/>
<path d="M1657.34 69C1652.88 69 1648.74 68.7135 1644.92 68.1404C1641.11 67.6311 1637.77 66.7397 1634.93 65.4663C1632.15 64.1929 1629.95 62.4101 1628.33 60.118C1626.78 57.8258 1626 54.9607 1626 51.5225C1626 50.6311 1626.03 49.676 1626.1 48.6573C1626.23 47.5749 1626.42 46.5562 1626.68 45.6011H1646.96C1646.7 46.1105 1646.54 46.6199 1646.48 47.1292C1646.41 47.5749 1646.38 48.0206 1646.38 48.4663C1646.38 49.9307 1646.8 51.0768 1647.64 51.9045C1648.48 52.6685 1649.65 53.2097 1651.13 53.5281C1652.62 53.7828 1654.3 53.9101 1656.18 53.9101C1657.15 53.9101 1658.22 53.8783 1659.38 53.8146C1660.55 53.6873 1661.65 53.4644 1662.68 53.1461C1663.78 52.8277 1664.66 52.3502 1665.3 51.7135C1666.01 51.0131 1666.37 50.0899 1666.37 48.9438C1666.37 47.9251 1665.92 47.0974 1665.01 46.4607C1664.11 45.7603 1662.88 45.1873 1661.32 44.7416C1659.77 44.2322 1658.02 43.7865 1656.08 43.4045C1654.14 42.9588 1652.14 42.4813 1650.07 41.9719C1647.8 41.3989 1645.54 40.7303 1643.27 39.9663C1641.07 39.1386 1639.07 38.088 1637.26 36.8146C1635.51 35.5412 1634.09 33.9494 1632.99 32.0393C1631.95 30.0655 1631.43 27.6779 1631.43 24.8764C1631.43 20.4831 1632.37 16.7903 1634.25 13.7978C1636.12 10.7416 1638.62 8.29027 1641.72 6.44382C1644.83 4.53371 1648.29 3.16479 1652.1 2.33708C1655.92 1.44569 1659.77 1 1663.65 1C1667.66 1 1671.38 1.35019 1674.81 2.05057C1678.24 2.68727 1681.22 3.706 1683.74 5.10675C1686.26 6.50749 1688.24 8.29026 1689.66 10.4551C1691.08 12.5562 1691.79 15.0712 1691.79 18C1691.79 18.5094 1691.76 19.0824 1691.7 19.7191C1691.63 20.3558 1691.5 21.2472 1691.31 22.3933H1671.22C1671.29 21.9476 1671.32 21.6292 1671.32 21.4382C1671.32 21.1835 1671.32 20.9288 1671.32 20.6742C1671.32 19.2097 1670.74 17.9682 1669.57 16.9494C1668.47 15.867 1666.56 15.3258 1663.85 15.3258C1661.71 15.3258 1659.9 15.5805 1658.41 16.0899C1656.99 16.5356 1655.92 17.1404 1655.21 17.9045C1654.5 18.6049 1654.14 19.3689 1654.14 20.1966C1654.14 21.0243 1654.4 21.7247 1654.92 22.2978C1655.44 22.8708 1656.18 23.412 1657.15 23.9214C1658.12 24.367 1659.25 24.7809 1660.55 25.1629C1661.91 25.4813 1663.39 25.7996 1665.01 26.118C1667.53 26.6273 1670.19 27.264 1672.97 28.0281C1675.81 28.7285 1678.47 29.7154 1680.93 30.9888C1683.38 32.2622 1685.36 33.9494 1686.85 36.0506C1688.4 38.088 1689.17 40.6985 1689.17 43.882C1689.17 48.0206 1688.3 51.6816 1686.55 54.8652C1684.87 57.985 1682.54 60.5955 1679.57 62.6966C1676.59 64.7977 1673.19 66.3895 1669.38 67.4719C1665.56 68.4906 1661.55 69 1657.34 69Z"/>
<path d="M1696.42 67.8539L1708.26 2.14607H1766L1763.19 17.9045H1726.89L1725.24 26.9775H1756.3L1753.58 42.0674H1722.53L1720.68 52.0955H1757.66L1754.84 67.8539H1696.42Z"/>
<path d="M1766.55 67.8539L1778.29 2.14607H1819.15C1823.68 2.14607 1827.43 2.91011 1830.41 4.4382C1833.38 5.96629 1835.58 8.00375 1837 10.5506C1838.49 13.0337 1839.24 15.8352 1839.24 18.9551C1839.24 23.03 1838.59 26.5637 1837.3 29.5562C1836.07 32.5487 1834.32 35.0955 1832.06 37.1966C1829.86 39.2341 1827.27 40.9213 1824.29 42.2584L1832.83 67.8539H1809.06L1802.85 45.7921H1791.98L1788 67.8539H1766.55ZM1794.6 31.1798H1808.67C1809.96 31.1798 1811.26 30.8296 1812.55 30.1292C1813.84 29.3652 1814.91 28.3464 1815.75 27.073C1816.59 25.7996 1817.01 24.3352 1817.01 22.6798C1817.01 21.0243 1816.56 19.6873 1815.66 18.6685C1814.75 17.6498 1813.55 17.1405 1812.06 17.1405H1797.02L1794.6 31.1798Z"/>
<path d="M1841.98 67.8539L1853.82 2.14607H1875.27L1863.43 67.8539H1841.98Z"/>
<path d="M1911.77 69C1905.04 69 1899.29 68.0131 1894.5 66.0393C1889.78 64.0655 1886.18 61.1367 1883.73 57.2528C1881.27 53.3052 1880.04 48.4345 1880.04 42.6405C1880.04 41.3034 1880.1 39.9345 1880.23 38.5337C1880.43 37.0693 1880.65 35.573 1880.91 34.0449C1882.21 26.7865 1884.54 20.706 1887.9 15.8034C1891.26 10.9008 1895.76 7.20787 1901.39 4.72472C1907.02 2.24157 1913.87 1 1921.96 1C1928.75 1 1934.51 1.98689 1939.23 3.96068C1944.02 5.93446 1947.65 8.89513 1950.1 12.8427C1952.56 16.7903 1953.79 21.7247 1953.79 27.6461C1953.79 28.9195 1953.73 30.2566 1953.6 31.6573C1953.47 33.0581 1953.27 34.4906 1953.01 35.9551C1951.72 43.2135 1949.33 49.294 1945.83 54.1966C1942.4 59.0993 1937.84 62.7921 1932.15 65.2753C1926.52 67.7584 1919.73 69 1911.77 69ZM1913.62 53.2416C1915.94 53.2416 1918.05 52.8914 1919.92 52.191C1921.86 51.427 1923.55 50.3764 1924.97 49.0393C1926.39 47.7023 1927.56 46.1105 1928.46 44.264C1929.43 42.3539 1930.11 40.2846 1930.5 38.0562C1930.82 36.2097 1931.08 34.7135 1931.28 33.5674C1931.47 32.3577 1931.6 31.4026 1931.67 30.7022C1931.79 30.0019 1931.86 29.4607 1931.86 29.0787C1931.92 28.6966 1931.96 28.3464 1931.96 28.0281C1931.96 25.736 1931.5 23.7622 1930.6 22.1067C1929.76 20.3876 1928.46 19.0824 1926.72 18.191C1924.97 17.236 1922.77 16.7584 1920.12 16.7584C1917.79 16.7584 1915.65 17.1404 1913.71 17.9045C1911.84 18.6049 1910.19 19.6236 1908.76 20.9607C1907.4 22.2978 1906.24 23.9213 1905.27 25.8315C1904.36 27.6779 1903.72 29.7154 1903.33 31.9438C1903.01 33.8539 1902.75 35.4139 1902.55 36.6236C1902.36 37.7697 1902.2 38.6929 1902.07 39.3933C1902 40.0936 1901.94 40.6348 1901.87 41.0169C1901.87 41.3989 1901.87 41.7491 1901.87 42.0674C1901.87 44.2959 1902.29 46.2697 1903.14 47.9888C1903.98 49.6442 1905.27 50.9494 1907.02 51.9045C1908.76 52.7959 1910.96 53.2416 1913.62 53.2416Z"/>
<path d="M1992.71 69C1983.45 69 1976.18 67.1854 1970.87 63.5562C1965.57 59.8633 1962.91 54.3558 1962.91 47.0337C1962.91 46.0787 1962.95 45.0918 1963.01 44.073C1963.14 43.0543 1963.3 42.0037 1963.5 40.9213L1970.48 2.14607H1991.93L1984.94 41.1124C1984.88 41.6217 1984.81 42.1311 1984.75 42.6405C1984.68 43.1498 1984.65 43.6592 1984.65 44.1685C1984.65 46.9064 1985.43 49.103 1986.98 50.7584C1988.6 52.4139 1991.09 53.2416 1994.45 53.2416C1998.4 53.2416 2001.57 52.0955 2003.96 49.8034C2006.36 47.5112 2007.88 44.6142 2008.52 41.1124L2015.51 2.14607H2036.96L2029.78 42.3539C2028.74 48.2753 2026.61 53.2097 2023.37 57.1573C2020.14 61.1049 2015.93 64.0655 2010.76 66.0393C2005.64 68.0131 1999.63 69 1992.71 69Z"/>
<path d="M2070.44 69C2065.97 69 2061.83 68.7135 2058.02 68.1404C2054.2 67.6311 2050.87 66.7397 2048.02 65.4663C2045.24 64.1929 2043.04 62.4101 2041.42 60.118C2039.87 57.8258 2039.09 54.9607 2039.09 51.5225C2039.09 50.6311 2039.12 49.676 2039.19 48.6573C2039.32 47.5749 2039.51 46.5562 2039.77 45.6011H2060.05C2059.79 46.1105 2059.63 46.6199 2059.57 47.1292C2059.5 47.5749 2059.47 48.0206 2059.47 48.4663C2059.47 49.9307 2059.89 51.0768 2060.73 51.9045C2061.57 52.6685 2062.74 53.2097 2064.23 53.5281C2065.71 53.7828 2067.4 53.9101 2069.27 53.9101C2070.24 53.9101 2071.31 53.8783 2072.48 53.8146C2073.64 53.6873 2074.74 53.4644 2075.77 53.1461C2076.87 52.8277 2077.75 52.3502 2078.39 51.7135C2079.11 51.0131 2079.46 50.0899 2079.46 48.9438C2079.46 47.9251 2079.01 47.0974 2078.1 46.4607C2077.2 45.7603 2075.97 45.1873 2074.42 44.7416C2072.86 44.2322 2071.12 43.7865 2069.18 43.4045C2067.23 42.9588 2065.23 42.4813 2063.16 41.9719C2060.89 41.3989 2058.63 40.7303 2056.37 39.9663C2054.17 39.1386 2052.16 38.088 2050.35 36.8146C2048.6 35.5412 2047.18 33.9494 2046.08 32.0393C2045.04 30.0655 2044.53 27.6779 2044.53 24.8764C2044.53 20.4831 2045.47 16.7903 2047.34 13.7978C2049.22 10.7416 2051.71 8.29027 2054.81 6.44382C2057.92 4.53371 2061.38 3.16479 2065.2 2.33708C2069.01 1.44569 2072.86 1 2076.74 1C2080.76 1 2084.48 1.35019 2087.9 2.05057C2091.33 2.68727 2094.31 3.706 2096.83 5.10675C2099.36 6.50749 2101.33 8.29026 2102.75 10.4551C2104.18 12.5562 2104.89 15.0712 2104.89 18C2104.89 18.5094 2104.85 19.0824 2104.79 19.7191C2104.73 20.3558 2104.6 21.2472 2104.4 22.3933H2084.31C2084.38 21.9476 2084.41 21.6292 2084.41 21.4382C2084.41 21.1835 2084.41 20.9288 2084.41 20.6742C2084.41 19.2097 2083.83 17.9682 2082.66 16.9494C2081.56 15.867 2079.66 15.3258 2076.94 15.3258C2074.8 15.3258 2072.99 15.5805 2071.5 16.0899C2070.08 16.5356 2069.01 17.1404 2068.3 17.9045C2067.59 18.6049 2067.23 19.3689 2067.23 20.1966C2067.23 21.0243 2067.49 21.7247 2068.01 22.2978C2068.53 22.8708 2069.27 23.412 2070.24 23.9214C2071.21 24.367 2072.35 24.7809 2073.64 25.1629C2075 25.4813 2076.49 25.7996 2078.1 26.118C2080.63 26.6273 2083.28 27.264 2086.06 28.0281C2088.91 28.7285 2091.56 29.7154 2094.02 30.9888C2096.48 32.2622 2098.45 33.9494 2099.94 36.0506C2101.49 38.088 2102.27 40.6985 2102.27 43.882C2102.27 48.0206 2101.39 51.6816 2099.65 54.8652C2097.96 57.985 2095.64 60.5955 2092.66 62.6966C2089.68 64.7977 2086.29 66.3895 2082.47 67.4719C2078.65 68.4906 2074.64 69 2070.44 69Z"/>
<path d="M2126.95 67.8539L2138.79 2.14607H2177.41C2181.17 2.14607 2184.4 2.94195 2187.12 4.53371C2189.9 6.0618 2192.07 8.22659 2193.62 11.0281C2195.17 13.8296 2195.95 17.0449 2195.95 20.6742C2195.95 24.3034 2195.33 27.7097 2194.1 30.8933C2192.94 34.0131 2191.23 36.7509 2188.96 39.1067C2186.76 41.4625 2184.11 43.309 2181 44.6461C2177.96 45.9831 2174.53 46.6517 2170.72 46.6517H2152.18L2148.4 67.8539H2126.95ZM2155 31.2753H2166.16C2167.97 31.2753 2169.42 30.8933 2170.52 30.1292C2171.69 29.3652 2172.53 28.3464 2173.05 27.073C2173.63 25.7996 2173.92 24.3989 2173.92 22.8708C2173.92 21.2154 2173.4 19.9419 2172.37 19.0506C2171.4 18.1592 2169.91 17.7135 2167.9 17.7135H2157.42L2155 31.2753Z"/>
<path d="M2196.98 67.8539L2208.82 2.14607H2230.27L2221.44 51.0449H2254.72L2251.72 67.8539H2196.98Z"/>
<path d="M2255.5 67.8539L2291.79 2.14607H2316.73L2329.16 67.8539H2307.13L2305.96 58.5899H2282.48L2278.01 67.8539H2255.5ZM2289.56 43.882H2304.12L2302.86 33.3764C2302.73 32.294 2302.6 31.2116 2302.47 30.1292C2302.34 29.0468 2302.18 27.9963 2301.98 26.9775C2301.85 25.8951 2301.72 24.8127 2301.6 23.7303C2301.47 22.6479 2301.34 21.5655 2301.21 20.4831H2300.82C2300.17 21.8839 2299.49 23.3165 2298.78 24.7809C2298.07 26.1816 2297.36 27.6142 2296.65 29.0787C2296 30.4794 2295.32 31.912 2294.61 33.3764L2289.56 43.882Z"/>
<path d="M2348.61 67.8539L2353.17 42.3539L2333.96 2.14607H2357.44L2366.76 24.2079H2367.15L2383.74 2.14607H2408L2374.62 42.3539L2370.06 67.8539H2348.61Z"/>
</mask>
<path d="M1657.34 69C1652.88 69 1648.74 68.7135 1644.92 68.1404C1641.11 67.6311 1637.77 66.7397 1634.93 65.4663C1632.15 64.1929 1629.95 62.4101 1628.33 60.118C1626.78 57.8258 1626 54.9607 1626 51.5225C1626 50.6311 1626.03 49.676 1626.1 48.6573C1626.23 47.5749 1626.42 46.5562 1626.68 45.6011H1646.96C1646.7 46.1105 1646.54 46.6199 1646.48 47.1292C1646.41 47.5749 1646.38 48.0206 1646.38 48.4663C1646.38 49.9307 1646.8 51.0768 1647.64 51.9045C1648.48 52.6685 1649.65 53.2097 1651.13 53.5281C1652.62 53.7828 1654.3 53.9101 1656.18 53.9101C1657.15 53.9101 1658.22 53.8783 1659.38 53.8146C1660.55 53.6873 1661.65 53.4644 1662.68 53.1461C1663.78 52.8277 1664.66 52.3502 1665.3 51.7135C1666.01 51.0131 1666.37 50.0899 1666.37 48.9438C1666.37 47.9251 1665.92 47.0974 1665.01 46.4607C1664.11 45.7603 1662.88 45.1873 1661.32 44.7416C1659.77 44.2322 1658.02 43.7865 1656.08 43.4045C1654.14 42.9588 1652.14 42.4813 1650.07 41.9719C1647.8 41.3989 1645.54 40.7303 1643.27 39.9663C1641.07 39.1386 1639.07 38.088 1637.26 36.8146C1635.51 35.5412 1634.09 33.9494 1632.99 32.0393C1631.95 30.0655 1631.43 27.6779 1631.43 24.8764C1631.43 20.4831 1632.37 16.7903 1634.25 13.7978C1636.12 10.7416 1638.62 8.29027 1641.72 6.44382C1644.83 4.53371 1648.29 3.16479 1652.1 2.33708C1655.92 1.44569 1659.77 1 1663.65 1C1667.66 1 1671.38 1.35019 1674.81 2.05057C1678.24 2.68727 1681.22 3.706 1683.74 5.10675C1686.26 6.50749 1688.24 8.29026 1689.66 10.4551C1691.08 12.5562 1691.79 15.0712 1691.79 18C1691.79 18.5094 1691.76 19.0824 1691.7 19.7191C1691.63 20.3558 1691.5 21.2472 1691.31 22.3933H1671.22C1671.29 21.9476 1671.32 21.6292 1671.32 21.4382C1671.32 21.1835 1671.32 20.9288 1671.32 20.6742C1671.32 19.2097 1670.74 17.9682 1669.57 16.9494C1668.47 15.867 1666.56 15.3258 1663.85 15.3258C1661.71 15.3258 1659.9 15.5805 1658.41 16.0899C1656.99 16.5356 1655.92 17.1404 1655.21 17.9045C1654.5 18.6049 1654.14 19.3689 1654.14 20.1966C1654.14 21.0243 1654.4 21.7247 1654.92 22.2978C1655.44 22.8708 1656.18 23.412 1657.15 23.9214C1658.12 24.367 1659.25 24.7809 1660.55 25.1629C1661.91 25.4813 1663.39 25.7996 1665.01 26.118C1667.53 26.6273 1670.19 27.264 1672.97 28.0281C1675.81 28.7285 1678.47 29.7154 1680.93 30.9888C1683.38 32.2622 1685.36 33.9494 1686.85 36.0506C1688.4 38.088 1689.17 40.6985 1689.17 43.882C1689.17 48.0206 1688.3 51.6816 1686.55 54.8652C1684.87 57.985 1682.54 60.5955 1679.57 62.6966C1676.59 64.7977 1673.19 66.3895 1669.38 67.4719C1665.56 68.4906 1661.55 69 1657.34 69Z" stroke="url(#paint11_linear_116_2)" stroke-opacity="0.2" stroke-width="2" mask="url(#path-2-outside-2_116_2)"/>
<path d="M1696.42 67.8539L1708.26 2.14607H1766L1763.19 17.9045H1726.89L1725.24 26.9775H1756.3L1753.58 42.0674H1722.53L1720.68 52.0955H1757.66L1754.84 67.8539H1696.42Z" stroke="url(#paint12_linear_116_2)" stroke-opacity="0.2" stroke-width="2" mask="url(#path-2-outside-2_116_2)"/>
<path d="M1766.55 67.8539L1778.29 2.14607H1819.15C1823.68 2.14607 1827.43 2.91011 1830.41 4.4382C1833.38 5.96629 1835.58 8.00375 1837 10.5506C1838.49 13.0337 1839.24 15.8352 1839.24 18.9551C1839.24 23.03 1838.59 26.5637 1837.3 29.5562C1836.07 32.5487 1834.32 35.0955 1832.06 37.1966C1829.86 39.2341 1827.27 40.9213 1824.29 42.2584L1832.83 67.8539H1809.06L1802.85 45.7921H1791.98L1788 67.8539H1766.55ZM1794.6 31.1798H1808.67C1809.96 31.1798 1811.26 30.8296 1812.55 30.1292C1813.84 29.3652 1814.91 28.3464 1815.75 27.073C1816.59 25.7996 1817.01 24.3352 1817.01 22.6798C1817.01 21.0243 1816.56 19.6873 1815.66 18.6685C1814.75 17.6498 1813.55 17.1405 1812.06 17.1405H1797.02L1794.6 31.1798Z" stroke="url(#paint13_linear_116_2)" stroke-opacity="0.2" stroke-width="2" mask="url(#path-2-outside-2_116_2)"/>
<path d="M1841.98 67.8539L1853.82 2.14607H1875.27L1863.43 67.8539H1841.98Z" stroke="url(#paint14_linear_116_2)" stroke-opacity="0.2" stroke-width="2" mask="url(#path-2-outside-2_116_2)"/>
<path d="M1911.77 69C1905.04 69 1899.29 68.0131 1894.5 66.0393C1889.78 64.0655 1886.18 61.1367 1883.73 57.2528C1881.27 53.3052 1880.04 48.4345 1880.04 42.6405C1880.04 41.3034 1880.1 39.9345 1880.23 38.5337C1880.43 37.0693 1880.65 35.573 1880.91 34.0449C1882.21 26.7865 1884.54 20.706 1887.9 15.8034C1891.26 10.9008 1895.76 7.20787 1901.39 4.72472C1907.02 2.24157 1913.87 1 1921.96 1C1928.75 1 1934.51 1.98689 1939.23 3.96068C1944.02 5.93446 1947.65 8.89513 1950.1 12.8427C1952.56 16.7903 1953.79 21.7247 1953.79 27.6461C1953.79 28.9195 1953.73 30.2566 1953.6 31.6573C1953.47 33.0581 1953.27 34.4906 1953.01 35.9551C1951.72 43.2135 1949.33 49.294 1945.83 54.1966C1942.4 59.0993 1937.84 62.7921 1932.15 65.2753C1926.52 67.7584 1919.73 69 1911.77 69ZM1913.62 53.2416C1915.94 53.2416 1918.05 52.8914 1919.92 52.191C1921.86 51.427 1923.55 50.3764 1924.97 49.0393C1926.39 47.7023 1927.56 46.1105 1928.46 44.264C1929.43 42.3539 1930.11 40.2846 1930.5 38.0562C1930.82 36.2097 1931.08 34.7135 1931.28 33.5674C1931.47 32.3577 1931.6 31.4026 1931.67 30.7022C1931.79 30.0019 1931.86 29.4607 1931.86 29.0787C1931.92 28.6966 1931.96 28.3464 1931.96 28.0281C1931.96 25.736 1931.5 23.7622 1930.6 22.1067C1929.76 20.3876 1928.46 19.0824 1926.72 18.191C1924.97 17.236 1922.77 16.7584 1920.12 16.7584C1917.79 16.7584 1915.65 17.1404 1913.71 17.9045C1911.84 18.6049 1910.19 19.6236 1908.76 20.9607C1907.4 22.2978 1906.24 23.9213 1905.27 25.8315C1904.36 27.6779 1903.72 29.7154 1903.33 31.9438C1903.01 33.8539 1902.75 35.4139 1902.55 36.6236C1902.36 37.7697 1902.2 38.6929 1902.07 39.3933C1902 40.0936 1901.94 40.6348 1901.87 41.0169C1901.87 41.3989 1901.87 41.7491 1901.87 42.0674C1901.87 44.2959 1902.29 46.2697 1903.14 47.9888C1903.98 49.6442 1905.27 50.9494 1907.02 51.9045C1908.76 52.7959 1910.96 53.2416 1913.62 53.2416Z" stroke="url(#paint15_linear_116_2)" stroke-opacity="0.2" stroke-width="2" mask="url(#path-2-outside-2_116_2)"/>
<path d="M1992.71 69C1983.45 69 1976.18 67.1854 1970.87 63.5562C1965.57 59.8633 1962.91 54.3558 1962.91 47.0337C1962.91 46.0787 1962.95 45.0918 1963.01 44.073C1963.14 43.0543 1963.3 42.0037 1963.5 40.9213L1970.48 2.14607H1991.93L1984.94 41.1124C1984.88 41.6217 1984.81 42.1311 1984.75 42.6405C1984.68 43.1498 1984.65 43.6592 1984.65 44.1685C1984.65 46.9064 1985.43 49.103 1986.98 50.7584C1988.6 52.4139 1991.09 53.2416 1994.45 53.2416C1998.4 53.2416 2001.57 52.0955 2003.96 49.8034C2006.36 47.5112 2007.88 44.6142 2008.52 41.1124L2015.51 2.14607H2036.96L2029.78 42.3539C2028.74 48.2753 2026.61 53.2097 2023.37 57.1573C2020.14 61.1049 2015.93 64.0655 2010.76 66.0393C2005.64 68.0131 1999.63 69 1992.71 69Z" stroke="url(#paint16_linear_116_2)" stroke-opacity="0.2" stroke-width="2" mask="url(#path-2-outside-2_116_2)"/>
<path d="M2070.44 69C2065.97 69 2061.83 68.7135 2058.02 68.1404C2054.2 67.6311 2050.87 66.7397 2048.02 65.4663C2045.24 64.1929 2043.04 62.4101 2041.42 60.118C2039.87 57.8258 2039.09 54.9607 2039.09 51.5225C2039.09 50.6311 2039.12 49.676 2039.19 48.6573C2039.32 47.5749 2039.51 46.5562 2039.77 45.6011H2060.05C2059.79 46.1105 2059.63 46.6199 2059.57 47.1292C2059.5 47.5749 2059.47 48.0206 2059.47 48.4663C2059.47 49.9307 2059.89 51.0768 2060.73 51.9045C2061.57 52.6685 2062.74 53.2097 2064.23 53.5281C2065.71 53.7828 2067.4 53.9101 2069.27 53.9101C2070.24 53.9101 2071.31 53.8783 2072.48 53.8146C2073.64 53.6873 2074.74 53.4644 2075.77 53.1461C2076.87 52.8277 2077.75 52.3502 2078.39 51.7135C2079.11 51.0131 2079.46 50.0899 2079.46 48.9438C2079.46 47.9251 2079.01 47.0974 2078.1 46.4607C2077.2 45.7603 2075.97 45.1873 2074.42 44.7416C2072.86 44.2322 2071.12 43.7865 2069.18 43.4045C2067.23 42.9588 2065.23 42.4813 2063.16 41.9719C2060.89 41.3989 2058.63 40.7303 2056.37 39.9663C2054.17 39.1386 2052.16 38.088 2050.35 36.8146C2048.6 35.5412 2047.18 33.9494 2046.08 32.0393C2045.04 30.0655 2044.53 27.6779 2044.53 24.8764C2044.53 20.4831 2045.47 16.7903 2047.34 13.7978C2049.22 10.7416 2051.71 8.29027 2054.81 6.44382C2057.92 4.53371 2061.38 3.16479 2065.2 2.33708C2069.01 1.44569 2072.86 1 2076.74 1C2080.76 1 2084.48 1.35019 2087.9 2.05057C2091.33 2.68727 2094.31 3.706 2096.83 5.10675C2099.36 6.50749 2101.33 8.29026 2102.75 10.4551C2104.18 12.5562 2104.89 15.0712 2104.89 18C2104.89 18.5094 2104.85 19.0824 2104.79 19.7191C2104.73 20.3558 2104.6 21.2472 2104.4 22.3933H2084.31C2084.38 21.9476 2084.41 21.6292 2084.41 21.4382C2084.41 21.1835 2084.41 20.9288 2084.41 20.6742C2084.41 19.2097 2083.83 17.9682 2082.66 16.9494C2081.56 15.867 2079.66 15.3258 2076.94 15.3258C2074.8 15.3258 2072.99 15.5805 2071.5 16.0899C2070.08 16.5356 2069.01 17.1404 2068.3 17.9045C2067.59 18.6049 2067.23 19.3689 2067.23 20.1966C2067.23 21.0243 2067.49 21.7247 2068.01 22.2978C2068.53 22.8708 2069.27 23.412 2070.24 23.9214C2071.21 24.367 2072.35 24.7809 2073.64 25.1629C2075 25.4813 2076.49 25.7996 2078.1 26.118C2080.63 26.6273 2083.28 27.264 2086.06 28.0281C2088.91 28.7285 2091.56 29.7154 2094.02 30.9888C2096.48 32.2622 2098.45 33.9494 2099.94 36.0506C2101.49 38.088 2102.27 40.6985 2102.27 43.882C2102.27 48.0206 2101.39 51.6816 2099.65 54.8652C2097.96 57.985 2095.64 60.5955 2092.66 62.6966C2089.68 64.7977 2086.29 66.3895 2082.47 67.4719C2078.65 68.4906 2074.64 69 2070.44 69Z" stroke="url(#paint17_linear_116_2)" stroke-opacity="0.2" stroke-width="2" mask="url(#path-2-outside-2_116_2)"/>
<path d="M2126.95 67.8539L2138.79 2.14607H2177.41C2181.17 2.14607 2184.4 2.94195 2187.12 4.53371C2189.9 6.0618 2192.07 8.22659 2193.62 11.0281C2195.17 13.8296 2195.95 17.0449 2195.95 20.6742C2195.95 24.3034 2195.33 27.7097 2194.1 30.8933C2192.94 34.0131 2191.23 36.7509 2188.96 39.1067C2186.76 41.4625 2184.11 43.309 2181 44.6461C2177.96 45.9831 2174.53 46.6517 2170.72 46.6517H2152.18L2148.4 67.8539H2126.95ZM2155 31.2753H2166.16C2167.97 31.2753 2169.42 30.8933 2170.52 30.1292C2171.69 29.3652 2172.53 28.3464 2173.05 27.073C2173.63 25.7996 2173.92 24.3989 2173.92 22.8708C2173.92 21.2154 2173.4 19.9419 2172.37 19.0506C2171.4 18.1592 2169.91 17.7135 2167.9 17.7135H2157.42L2155 31.2753Z" stroke="url(#paint18_linear_116_2)" stroke-opacity="0.2" stroke-width="2" mask="url(#path-2-outside-2_116_2)"/>
<path d="M2196.98 67.8539L2208.82 2.14607H2230.27L2221.44 51.0449H2254.72L2251.72 67.8539H2196.98Z" stroke="url(#paint19_linear_116_2)" stroke-opacity="0.2" stroke-width="2" mask="url(#path-2-outside-2_116_2)"/>
<path d="M2255.5 67.8539L2291.79 2.14607H2316.73L2329.16 67.8539H2307.13L2305.96 58.5899H2282.48L2278.01 67.8539H2255.5ZM2289.56 43.882H2304.12L2302.86 33.3764C2302.73 32.294 2302.6 31.2116 2302.47 30.1292C2302.34 29.0468 2302.18 27.9963 2301.98 26.9775C2301.85 25.8951 2301.72 24.8127 2301.6 23.7303C2301.47 22.6479 2301.34 21.5655 2301.21 20.4831H2300.82C2300.17 21.8839 2299.49 23.3165 2298.78 24.7809C2298.07 26.1816 2297.36 27.6142 2296.65 29.0787C2296 30.4794 2295.32 31.912 2294.61 33.3764L2289.56 43.882Z" stroke="url(#paint20_linear_116_2)" stroke-opacity="0.2" stroke-width="2" mask="url(#path-2-outside-2_116_2)"/>
<path d="M2348.61 67.8539L2353.17 42.3539L2333.96 2.14607H2357.44L2366.76 24.2079H2367.15L2383.74 2.14607H2408L2374.62 42.3539L2370.06 67.8539H2348.61Z" stroke="url(#paint21_linear_116_2)" stroke-opacity="0.2" stroke-width="2" mask="url(#path-2-outside-2_116_2)"/>
<mask id="path-3-outside-3_116_2" maskUnits="userSpaceOnUse" x="778" y="0" width="786" height="70" fill="black">
<rect fill="white" x="778" width="786" height="70"/>
<path d="M810.345 69C805.881 69 801.74 68.7135 797.923 68.1404C794.106 67.6311 790.774 66.7397 787.928 65.4663C785.146 64.1929 782.946 62.4101 781.329 60.118C779.776 57.8258 779 54.9607 779 51.5225C779 50.6311 779.032 49.676 779.097 48.6573C779.226 47.5749 779.421 46.5562 779.679 45.6011H799.961C799.702 46.1105 799.541 46.6199 799.476 47.1292C799.411 47.5749 799.379 48.0206 799.379 48.4663C799.379 49.9307 799.799 51.0768 800.64 51.9045C801.481 52.6685 802.646 53.2097 804.134 53.5281C805.622 53.7828 807.304 53.9101 809.18 53.9101C810.151 53.9101 811.218 53.8783 812.383 53.8146C813.547 53.6873 814.647 53.4644 815.682 53.1461C816.782 52.8277 817.655 52.3502 818.302 51.7135C819.014 51.0131 819.37 50.0899 819.37 48.9438C819.37 47.9251 818.917 47.0974 818.011 46.4607C817.105 45.7603 815.876 45.1873 814.323 44.7416C812.771 44.2322 811.024 43.7865 809.083 43.4045C807.142 42.9588 805.137 42.4813 803.066 41.9719C800.802 41.3989 798.538 40.7303 796.274 39.9663C794.074 39.1386 792.068 38.088 790.257 36.8146C788.51 35.5412 787.087 33.9494 785.987 32.0393C784.952 30.0655 784.434 27.6779 784.434 24.8764C784.434 20.4831 785.372 16.7903 787.249 13.7978C789.125 10.7416 791.615 8.29027 794.721 6.44382C797.826 4.53371 801.287 3.16479 805.104 2.33708C808.921 1.44569 812.771 1 816.652 1C820.663 1 824.383 1.35019 827.812 2.05057C831.241 2.68727 834.217 3.706 836.74 5.10675C839.263 6.50749 841.236 8.29026 842.66 10.4551C844.083 12.5562 844.795 15.0712 844.795 18C844.795 18.5094 844.762 19.0824 844.698 19.7191C844.633 20.3558 844.503 21.2472 844.309 22.3933H824.222C824.286 21.9476 824.319 21.6292 824.319 21.4382C824.319 21.1835 824.319 20.9288 824.319 20.6742C824.319 19.2097 823.736 17.9682 822.572 16.9494C821.472 15.867 819.564 15.3258 816.846 15.3258C814.712 15.3258 812.9 15.5805 811.412 16.0899C809.989 16.5356 808.921 17.1404 808.21 17.9045C807.498 18.6049 807.142 19.3689 807.142 20.1966C807.142 21.0243 807.401 21.7247 807.919 22.2978C808.436 22.8708 809.18 23.412 810.151 23.9214C811.121 24.367 812.253 24.7809 813.547 25.1629C814.906 25.4813 816.394 25.7996 818.011 26.118C820.534 26.6273 823.187 27.264 825.968 28.0281C828.815 28.7285 831.467 29.7154 833.926 30.9888C836.384 32.2622 838.357 33.9494 839.845 36.0506C841.398 38.088 842.174 40.6985 842.174 43.882C842.174 48.0206 841.301 51.6816 839.554 54.8652C837.872 57.985 835.543 60.5955 832.567 62.6966C829.591 64.7977 826.195 66.3895 822.378 67.4719C818.561 68.4906 814.55 69 810.345 69Z"/>
<path d="M849.422 67.8539L861.261 2.14607H919.001L916.187 17.9045H879.893L878.243 26.9775H909.297L906.579 42.0674H875.526L873.682 52.0955H910.655L907.841 67.8539H849.422Z"/>
<path d="M919.552 67.8539L931.294 2.14607H972.149C976.677 2.14607 980.43 2.91011 983.406 4.4382C986.382 5.96629 988.581 8.00375 990.005 10.5506C991.493 13.0337 992.237 15.8352 992.237 18.9551C992.237 23.03 991.59 26.5637 990.296 29.5562C989.066 32.5487 987.32 35.0955 985.055 37.1966C982.856 39.2341 980.268 40.9213 977.292 42.2584L985.832 67.8539H962.056L955.846 45.7921H944.977L940.998 67.8539H919.552ZM947.597 31.1798H961.668C962.962 31.1798 964.256 30.8296 965.55 30.1292C966.844 29.3652 967.911 28.3464 968.752 27.073C969.593 25.7996 970.014 24.3352 970.014 22.6798C970.014 21.0243 969.561 19.6873 968.655 18.6685C967.75 17.6498 966.553 17.1405 965.065 17.1405H950.023L947.597 31.1798Z"/>
<path d="M994.985 67.8539L1006.82 2.14607H1028.27L1016.43 67.8539H994.985Z"/>
<path d="M1064.77 69C1058.04 69 1052.29 68.0131 1047.5 66.0393C1042.78 64.0655 1039.18 61.1367 1036.73 57.2528C1034.27 53.3052 1033.04 48.4345 1033.04 42.6405C1033.04 41.3034 1033.1 39.9345 1033.23 38.5337C1033.43 37.0693 1033.65 35.573 1033.91 34.0449C1035.21 26.7865 1037.54 20.706 1040.9 15.8034C1044.26 10.9008 1048.76 7.20787 1054.39 4.72472C1060.02 2.24157 1066.87 1 1074.96 1C1081.75 1 1087.51 1.98689 1092.23 3.96068C1097.02 5.93446 1100.65 8.89513 1103.1 12.8427C1105.56 16.7903 1106.79 21.7247 1106.79 27.6461C1106.79 28.9195 1106.73 30.2566 1106.6 31.6573C1106.47 33.0581 1106.27 34.4906 1106.01 35.9551C1104.72 43.2135 1102.33 49.294 1098.83 54.1966C1095.4 59.0993 1090.84 62.7921 1085.15 65.2753C1079.52 67.7584 1072.73 69 1064.77 69ZM1066.62 53.2416C1068.94 53.2416 1071.05 52.8914 1072.92 52.191C1074.86 51.427 1076.55 50.3764 1077.97 49.0393C1079.39 47.7023 1080.56 46.1105 1081.46 44.264C1082.43 42.3539 1083.11 40.2846 1083.5 38.0562C1083.82 36.2097 1084.08 34.7135 1084.28 33.5674C1084.47 32.3577 1084.6 31.4026 1084.67 30.7022C1084.79 30.0019 1084.86 29.4607 1084.86 29.0787C1084.92 28.6966 1084.96 28.3464 1084.96 28.0281C1084.96 25.736 1084.5 23.7622 1083.6 22.1067C1082.76 20.3876 1081.46 19.0824 1079.72 18.191C1077.97 17.236 1075.77 16.7584 1073.12 16.7584C1070.79 16.7584 1068.65 17.1404 1066.71 17.9045C1064.84 18.6049 1063.19 19.6236 1061.76 20.9607C1060.4 22.2978 1059.24 23.9213 1058.27 25.8315C1057.36 27.6779 1056.72 29.7154 1056.33 31.9438C1056.01 33.8539 1055.75 35.4139 1055.55 36.6236C1055.36 37.7697 1055.2 38.6929 1055.07 39.3933C1055 40.0936 1054.94 40.6348 1054.87 41.0169C1054.87 41.3989 1054.87 41.7491 1054.87 42.0674C1054.87 44.2959 1055.29 46.2697 1056.14 47.9888C1056.98 49.6442 1058.27 50.9494 1060.02 51.9045C1061.76 52.7959 1063.96 53.2416 1066.62 53.2416Z"/>
<path d="M1145.71 69C1136.45 69 1129.18 67.1854 1123.87 63.5562C1118.57 59.8633 1115.91 54.3558 1115.91 47.0337C1115.91 46.0787 1115.95 45.0918 1116.01 44.073C1116.14 43.0543 1116.3 42.0037 1116.5 40.9213L1123.48 2.14607H1144.93L1137.94 41.1124C1137.88 41.6217 1137.81 42.1311 1137.75 42.6405C1137.68 43.1498 1137.65 43.6592 1137.65 44.1685C1137.65 46.9064 1138.43 49.103 1139.98 50.7584C1141.6 52.4139 1144.09 53.2416 1147.45 53.2416C1151.4 53.2416 1154.57 52.0955 1156.96 49.8034C1159.36 47.5112 1160.88 44.6142 1161.52 41.1124L1168.51 2.14607H1189.96L1182.78 42.3539C1181.74 48.2753 1179.61 53.2097 1176.37 57.1573C1173.14 61.1049 1168.93 64.0655 1163.76 66.0393C1158.64 68.0131 1152.63 69 1145.71 69Z"/>
<path d="M1223.44 69C1218.97 69 1214.83 68.7135 1211.02 68.1404C1207.2 67.6311 1203.87 66.7397 1201.02 65.4663C1198.24 64.1929 1196.04 62.4101 1194.42 60.118C1192.87 57.8258 1192.09 54.9607 1192.09 51.5225C1192.09 50.6311 1192.12 49.676 1192.19 48.6573C1192.32 47.5749 1192.51 46.5562 1192.77 45.6011H1213.05C1212.79 46.1105 1212.63 46.6199 1212.57 47.1292C1212.5 47.5749 1212.47 48.0206 1212.47 48.4663C1212.47 49.9307 1212.89 51.0768 1213.73 51.9045C1214.57 52.6685 1215.74 53.2097 1217.23 53.5281C1218.71 53.7828 1220.4 53.9101 1222.27 53.9101C1223.24 53.9101 1224.31 53.8783 1225.48 53.8146C1226.64 53.6873 1227.74 53.4644 1228.77 53.1461C1229.87 52.8277 1230.75 52.3502 1231.39 51.7135C1232.11 51.0131 1232.46 50.0899 1232.46 48.9438C1232.46 47.9251 1232.01 47.0974 1231.1 46.4607C1230.2 45.7603 1228.97 45.1873 1227.42 44.7416C1225.86 44.2322 1224.12 43.7865 1222.18 43.4045C1220.23 42.9588 1218.23 42.4813 1216.16 41.9719C1213.89 41.3989 1211.63 40.7303 1209.37 39.9663C1207.17 39.1386 1205.16 38.088 1203.35 36.8146C1201.6 35.5412 1200.18 33.9494 1199.08 32.0393C1198.04 30.0655 1197.53 27.6779 1197.53 24.8764C1197.53 20.4831 1198.47 16.7903 1200.34 13.7978C1202.22 10.7416 1204.71 8.29027 1207.81 6.44382C1210.92 4.53371 1214.38 3.16479 1218.2 2.33708C1222.01 1.44569 1225.86 1 1229.74 1C1233.76 1 1237.48 1.35019 1240.9 2.05057C1244.33 2.68727 1247.31 3.706 1249.83 5.10675C1252.36 6.50749 1254.33 8.29026 1255.75 10.4551C1257.18 12.5562 1257.89 15.0712 1257.89 18C1257.89 18.5094 1257.85 19.0824 1257.79 19.7191C1257.73 20.3558 1257.6 21.2472 1257.4 22.3933H1237.31C1237.38 21.9476 1237.41 21.6292 1237.41 21.4382C1237.41 21.1835 1237.41 20.9288 1237.41 20.6742C1237.41 19.2097 1236.83 17.9682 1235.66 16.9494C1234.56 15.867 1232.66 15.3258 1229.94 15.3258C1227.8 15.3258 1225.99 15.5805 1224.5 16.0899C1223.08 16.5356 1222.01 17.1404 1221.3 17.9045C1220.59 18.6049 1220.23 19.3689 1220.23 20.1966C1220.23 21.0243 1220.49 21.7247 1221.01 22.2978C1221.53 22.8708 1222.27 23.412 1223.24 23.9214C1224.21 24.367 1225.35 24.7809 1226.64 25.1629C1228 25.4813 1229.49 25.7996 1231.1 26.118C1233.63 26.6273 1236.28 27.264 1239.06 28.0281C1241.91 28.7285 1244.56 29.7154 1247.02 30.9888C1249.48 32.2622 1251.45 33.9494 1252.94 36.0506C1254.49 38.088 1255.27 40.6985 1255.27 43.882C1255.27 48.0206 1254.39 51.6816 1252.65 54.8652C1250.96 57.985 1248.64 60.5955 1245.66 62.6966C1242.68 64.7977 1239.29 66.3895 1235.47 67.4719C1231.65 68.4906 1227.64 69 1223.44 69Z"/>
<path d="M1279.95 67.8539L1291.79 2.14607H1330.41C1334.17 2.14607 1337.4 2.94195 1340.12 4.53371C1342.9 6.0618 1345.07 8.22659 1346.62 11.0281C1348.17 13.8296 1348.95 17.0449 1348.95 20.6742C1348.95 24.3034 1348.33 27.7097 1347.1 30.8933C1345.94 34.0131 1344.23 36.7509 1341.96 39.1067C1339.76 41.4625 1337.11 43.309 1334 44.6461C1330.96 45.9831 1327.53 46.6517 1323.72 46.6517H1305.18L1301.4 67.8539H1279.95ZM1308 31.2753H1319.16C1320.97 31.2753 1322.42 30.8933 1323.52 30.1292C1324.69 29.3652 1325.53 28.3464 1326.05 27.073C1326.63 25.7996 1326.92 24.3989 1326.92 22.8708C1326.92 21.2154 1326.4 19.9419 1325.37 19.0506C1324.4 18.1592 1322.91 17.7135 1320.9 17.7135H1310.42L1308 31.2753Z"/>
<path d="M1349.98 67.8539L1361.82 2.14607H1383.27L1374.44 51.0449H1407.72L1404.72 67.8539H1349.98Z"/>
<path d="M1408.5 67.8539L1444.79 2.14607H1469.73L1482.16 67.8539H1460.13L1458.96 58.5899H1435.48L1431.01 67.8539H1408.5ZM1442.56 43.882H1457.12L1455.86 33.3764C1455.73 32.294 1455.6 31.2116 1455.47 30.1292C1455.34 29.0468 1455.18 27.9963 1454.98 26.9775C1454.85 25.8951 1454.72 24.8127 1454.6 23.7303C1454.47 22.6479 1454.34 21.5655 1454.21 20.4831H1453.82C1453.17 21.8839 1452.49 23.3165 1451.78 24.7809C1451.07 26.1816 1450.36 27.6142 1449.65 29.0787C1449 30.4794 1448.32 31.912 1447.61 33.3764L1442.56 43.882Z"/>
<path d="M1501.61 67.8539L1506.17 42.3539L1486.96 2.14607H1510.44L1519.76 24.2079H1520.15L1536.74 2.14607H1561L1527.62 42.3539L1523.06 67.8539H1501.61Z"/>
</mask>
<path d="M810.345 69C805.881 69 801.74 68.7135 797.923 68.1404C794.106 67.6311 790.774 66.7397 787.928 65.4663C785.146 64.1929 782.946 62.4101 781.329 60.118C779.776 57.8258 779 54.9607 779 51.5225C779 50.6311 779.032 49.676 779.097 48.6573C779.226 47.5749 779.421 46.5562 779.679 45.6011H799.961C799.702 46.1105 799.541 46.6199 799.476 47.1292C799.411 47.5749 799.379 48.0206 799.379 48.4663C799.379 49.9307 799.799 51.0768 800.64 51.9045C801.481 52.6685 802.646 53.2097 804.134 53.5281C805.622 53.7828 807.304 53.9101 809.18 53.9101C810.151 53.9101 811.218 53.8783 812.383 53.8146C813.547 53.6873 814.647 53.4644 815.682 53.1461C816.782 52.8277 817.655 52.3502 818.302 51.7135C819.014 51.0131 819.37 50.0899 819.37 48.9438C819.37 47.9251 818.917 47.0974 818.011 46.4607C817.105 45.7603 815.876 45.1873 814.323 44.7416C812.771 44.2322 811.024 43.7865 809.083 43.4045C807.142 42.9588 805.137 42.4813 803.066 41.9719C800.802 41.3989 798.538 40.7303 796.274 39.9663C794.074 39.1386 792.068 38.088 790.257 36.8146C788.51 35.5412 787.087 33.9494 785.987 32.0393C784.952 30.0655 784.434 27.6779 784.434 24.8764C784.434 20.4831 785.372 16.7903 787.249 13.7978C789.125 10.7416 791.615 8.29027 794.721 6.44382C797.826 4.53371 801.287 3.16479 805.104 2.33708C808.921 1.44569 812.771 1 816.652 1C820.663 1 824.383 1.35019 827.812 2.05057C831.241 2.68727 834.217 3.706 836.74 5.10675C839.263 6.50749 841.236 8.29026 842.66 10.4551C844.083 12.5562 844.795 15.0712 844.795 18C844.795 18.5094 844.762 19.0824 844.698 19.7191C844.633 20.3558 844.503 21.2472 844.309 22.3933H824.222C824.286 21.9476 824.319 21.6292 824.319 21.4382C824.319 21.1835 824.319 20.9288 824.319 20.6742C824.319 19.2097 823.736 17.9682 822.572 16.9494C821.472 15.867 819.564 15.3258 816.846 15.3258C814.712 15.3258 812.9 15.5805 811.412 16.0899C809.989 16.5356 808.921 17.1404 808.21 17.9045C807.498 18.6049 807.142 19.3689 807.142 20.1966C807.142 21.0243 807.401 21.7247 807.919 22.2978C808.436 22.8708 809.18 23.412 810.151 23.9214C811.121 24.367 812.253 24.7809 813.547 25.1629C814.906 25.4813 816.394 25.7996 818.011 26.118C820.534 26.6273 823.187 27.264 825.968 28.0281C828.815 28.7285 831.467 29.7154 833.926 30.9888C836.384 32.2622 838.357 33.9494 839.845 36.0506C841.398 38.088 842.174 40.6985 842.174 43.882C842.174 48.0206 841.301 51.6816 839.554 54.8652C837.872 57.985 835.543 60.5955 832.567 62.6966C829.591 64.7977 826.195 66.3895 822.378 67.4719C818.561 68.4906 814.55 69 810.345 69Z" stroke="url(#paint22_linear_116_2)" stroke-opacity="0.2" stroke-width="2" mask="url(#path-3-outside-3_116_2)"/>
<path d="M849.422 67.8539L861.261 2.14607H919.001L916.187 17.9045H879.893L878.243 26.9775H909.297L906.579 42.0674H875.526L873.682 52.0955H910.655L907.841 67.8539H849.422Z" stroke="url(#paint23_linear_116_2)" stroke-opacity="0.2" stroke-width="2" mask="url(#path-3-outside-3_116_2)"/>
<path d="M919.552 67.8539L931.294 2.14607H972.149C976.677 2.14607 980.43 2.91011 983.406 4.4382C986.382 5.96629 988.581 8.00375 990.005 10.5506C991.493 13.0337 992.237 15.8352 992.237 18.9551C992.237 23.03 991.59 26.5637 990.296 29.5562C989.066 32.5487 987.32 35.0955 985.055 37.1966C982.856 39.2341 980.268 40.9213 977.292 42.2584L985.832 67.8539H962.056L955.846 45.7921H944.977L940.998 67.8539H919.552ZM947.597 31.1798H961.668C962.962 31.1798 964.256 30.8296 965.55 30.1292C966.844 29.3652 967.911 28.3464 968.752 27.073C969.593 25.7996 970.014 24.3352 970.014 22.6798C970.014 21.0243 969.561 19.6873 968.655 18.6685C967.75 17.6498 966.553 17.1405 965.065 17.1405H950.023L947.597 31.1798Z" stroke="url(#paint24_linear_116_2)" stroke-opacity="0.2" stroke-width="2" mask="url(#path-3-outside-3_116_2)"/>
<path d="M994.985 67.8539L1006.82 2.14607H1028.27L1016.43 67.8539H994.985Z" stroke="url(#paint25_linear_116_2)" stroke-opacity="0.2" stroke-width="2" mask="url(#path-3-outside-3_116_2)"/>
<path d="M1064.77 69C1058.04 69 1052.29 68.0131 1047.5 66.0393C1042.78 64.0655 1039.18 61.1367 1036.73 57.2528C1034.27 53.3052 1033.04 48.4345 1033.04 42.6405C1033.04 41.3034 1033.1 39.9345 1033.23 38.5337C1033.43 37.0693 1033.65 35.573 1033.91 34.0449C1035.21 26.7865 1037.54 20.706 1040.9 15.8034C1044.26 10.9008 1048.76 7.20787 1054.39 4.72472C1060.02 2.24157 1066.87 1 1074.96 1C1081.75 1 1087.51 1.98689 1092.23 3.96068C1097.02 5.93446 1100.65 8.89513 1103.1 12.8427C1105.56 16.7903 1106.79 21.7247 1106.79 27.6461C1106.79 28.9195 1106.73 30.2566 1106.6 31.6573C1106.47 33.0581 1106.27 34.4906 1106.01 35.9551C1104.72 43.2135 1102.33 49.294 1098.83 54.1966C1095.4 59.0993 1090.84 62.7921 1085.15 65.2753C1079.52 67.7584 1072.73 69 1064.77 69ZM1066.62 53.2416C1068.94 53.2416 1071.05 52.8914 1072.92 52.191C1074.86 51.427 1076.55 50.3764 1077.97 49.0393C1079.39 47.7023 1080.56 46.1105 1081.46 44.264C1082.43 42.3539 1083.11 40.2846 1083.5 38.0562C1083.82 36.2097 1084.08 34.7135 1084.28 33.5674C1084.47 32.3577 1084.6 31.4026 1084.67 30.7022C1084.79 30.0019 1084.86 29.4607 1084.86 29.0787C1084.92 28.6966 1084.96 28.3464 1084.96 28.0281C1084.96 25.736 1084.5 23.7622 1083.6 22.1067C1082.76 20.3876 1081.46 19.0824 1079.72 18.191C1077.97 17.236 1075.77 16.7584 1073.12 16.7584C1070.79 16.7584 1068.65 17.1404 1066.71 17.9045C1064.84 18.6049 1063.19 19.6236 1061.76 20.9607C1060.4 22.2978 1059.24 23.9213 1058.27 25.8315C1057.36 27.6779 1056.72 29.7154 1056.33 31.9438C1056.01 33.8539 1055.75 35.4139 1055.55 36.6236C1055.36 37.7697 1055.2 38.6929 1055.07 39.3933C1055 40.0936 1054.94 40.6348 1054.87 41.0169C1054.87 41.3989 1054.87 41.7491 1054.87 42.0674C1054.87 44.2959 1055.29 46.2697 1056.14 47.9888C1056.98 49.6442 1058.27 50.9494 1060.02 51.9045C1061.76 52.7959 1063.96 53.2416 1066.62 53.2416Z" stroke="url(#paint26_linear_116_2)" stroke-opacity="0.2" stroke-width="2" mask="url(#path-3-outside-3_116_2)"/>
<path d="M1145.71 69C1136.45 69 1129.18 67.1854 1123.87 63.5562C1118.57 59.8633 1115.91 54.3558 1115.91 47.0337C1115.91 46.0787 1115.95 45.0918 1116.01 44.073C1116.14 43.0543 1116.3 42.0037 1116.5 40.9213L1123.48 2.14607H1144.93L1137.94 41.1124C1137.88 41.6217 1137.81 42.1311 1137.75 42.6405C1137.68 43.1498 1137.65 43.6592 1137.65 44.1685C1137.65 46.9064 1138.43 49.103 1139.98 50.7584C1141.6 52.4139 1144.09 53.2416 1147.45 53.2416C1151.4 53.2416 1154.57 52.0955 1156.96 49.8034C1159.36 47.5112 1160.88 44.6142 1161.52 41.1124L1168.51 2.14607H1189.96L1182.78 42.3539C1181.74 48.2753 1179.61 53.2097 1176.37 57.1573C1173.14 61.1049 1168.93 64.0655 1163.76 66.0393C1158.64 68.0131 1152.63 69 1145.71 69Z" stroke="url(#paint27_linear_116_2)" stroke-opacity="0.2" stroke-width="2" mask="url(#path-3-outside-3_116_2)"/>
<path d="M1223.44 69C1218.97 69 1214.83 68.7135 1211.02 68.1404C1207.2 67.6311 1203.87 66.7397 1201.02 65.4663C1198.24 64.1929 1196.04 62.4101 1194.42 60.118C1192.87 57.8258 1192.09 54.9607 1192.09 51.5225C1192.09 50.6311 1192.12 49.676 1192.19 48.6573C1192.32 47.5749 1192.51 46.5562 1192.77 45.6011H1213.05C1212.79 46.1105 1212.63 46.6199 1212.57 47.1292C1212.5 47.5749 1212.47 48.0206 1212.47 48.4663C1212.47 49.9307 1212.89 51.0768 1213.73 51.9045C1214.57 52.6685 1215.74 53.2097 1217.23 53.5281C1218.71 53.7828 1220.4 53.9101 1222.27 53.9101C1223.24 53.9101 1224.31 53.8783 1225.48 53.8146C1226.64 53.6873 1227.74 53.4644 1228.77 53.1461C1229.87 52.8277 1230.75 52.3502 1231.39 51.7135C1232.11 51.0131 1232.46 50.0899 1232.46 48.9438C1232.46 47.9251 1232.01 47.0974 1231.1 46.4607C1230.2 45.7603 1228.97 45.1873 1227.42 44.7416C1225.86 44.2322 1224.12 43.7865 1222.18 43.4045C1220.23 42.9588 1218.23 42.4813 1216.16 41.9719C1213.89 41.3989 1211.63 40.7303 1209.37 39.9663C1207.17 39.1386 1205.16 38.088 1203.35 36.8146C1201.6 35.5412 1200.18 33.9494 1199.08 32.0393C1198.04 30.0655 1197.53 27.6779 1197.53 24.8764C1197.53 20.4831 1198.47 16.7903 1200.34 13.7978C1202.22 10.7416 1204.71 8.29027 1207.81 6.44382C1210.92 4.53371 1214.38 3.16479 1218.2 2.33708C1222.01 1.44569 1225.86 1 1229.74 1C1233.76 1 1237.48 1.35019 1240.9 2.05057C1244.33 2.68727 1247.31 3.706 1249.83 5.10675C1252.36 6.50749 1254.33 8.29026 1255.75 10.4551C1257.18 12.5562 1257.89 15.0712 1257.89 18C1257.89 18.5094 1257.85 19.0824 1257.79 19.7191C1257.73 20.3558 1257.6 21.2472 1257.4 22.3933H1237.31C1237.38 21.9476 1237.41 21.6292 1237.41 21.4382C1237.41 21.1835 1237.41 20.9288 1237.41 20.6742C1237.41 19.2097 1236.83 17.9682 1235.66 16.9494C1234.56 15.867 1232.66 15.3258 1229.94 15.3258C1227.8 15.3258 1225.99 15.5805 1224.5 16.0899C1223.08 16.5356 1222.01 17.1404 1221.3 17.9045C1220.59 18.6049 1220.23 19.3689 1220.23 20.1966C1220.23 21.0243 1220.49 21.7247 1221.01 22.2978C1221.53 22.8708 1222.27 23.412 1223.24 23.9214C1224.21 24.367 1225.35 24.7809 1226.64 25.1629C1228 25.4813 1229.49 25.7996 1231.1 26.118C1233.63 26.6273 1236.28 27.264 1239.06 28.0281C1241.91 28.7285 1244.56 29.7154 1247.02 30.9888C1249.48 32.2622 1251.45 33.9494 1252.94 36.0506C1254.49 38.088 1255.27 40.6985 1255.27 43.882C1255.27 48.0206 1254.39 51.6816 1252.65 54.8652C1250.96 57.985 1248.64 60.5955 1245.66 62.6966C1242.68 64.7977 1239.29 66.3895 1235.47 67.4719C1231.65 68.4906 1227.64 69 1223.44 69Z" stroke="url(#paint28_linear_116_2)" stroke-opacity="0.2" stroke-width="2" mask="url(#path-3-outside-3_116_2)"/>
<path d="M1279.95 67.8539L1291.79 2.14607H1330.41C1334.17 2.14607 1337.4 2.94195 1340.12 4.53371C1342.9 6.0618 1345.07 8.22659 1346.62 11.0281C1348.17 13.8296 1348.95 17.0449 1348.95 20.6742C1348.95 24.3034 1348.33 27.7097 1347.1 30.8933C1345.94 34.0131 1344.23 36.7509 1341.96 39.1067C1339.76 41.4625 1337.11 43.309 1334 44.6461C1330.96 45.9831 1327.53 46.6517 1323.72 46.6517H1305.18L1301.4 67.8539H1279.95ZM1308 31.2753H1319.16C1320.97 31.2753 1322.42 30.8933 1323.52 30.1292C1324.69 29.3652 1325.53 28.3464 1326.05 27.073C1326.63 25.7996 1326.92 24.3989 1326.92 22.8708C1326.92 21.2154 1326.4 19.9419 1325.37 19.0506C1324.4 18.1592 1322.91 17.7135 1320.9 17.7135H1310.42L1308 31.2753Z" stroke="url(#paint29_linear_116_2)" stroke-opacity="0.2" stroke-width="2" mask="url(#path-3-outside-3_116_2)"/>
<path d="M1349.98 67.8539L1361.82 2.14607H1383.27L1374.44 51.0449H1407.72L1404.72 67.8539H1349.98Z" stroke="url(#paint30_linear_116_2)" stroke-opacity="0.2" stroke-width="2" mask="url(#path-3-outside-3_116_2)"/>
<path d="M1408.5 67.8539L1444.79 2.14607H1469.73L1482.16 67.8539H1460.13L1458.96 58.5899H1435.48L1431.01 67.8539H1408.5ZM1442.56 43.882H1457.12L1455.86 33.3764C1455.73 32.294 1455.6 31.2116 1455.47 30.1292C1455.34 29.0468 1455.18 27.9963 1454.98 26.9775C1454.85 25.8951 1454.72 24.8127 1454.6 23.7303C1454.47 22.6479 1454.34 21.5655 1454.21 20.4831H1453.82C1453.17 21.8839 1452.49 23.3165 1451.78 24.7809C1451.07 26.1816 1450.36 27.6142 1449.65 29.0787C1449 30.4794 1448.32 31.912 1447.61 33.3764L1442.56 43.882Z" stroke="url(#paint31_linear_116_2)" stroke-opacity="0.2" stroke-width="2" mask="url(#path-3-outside-3_116_2)"/>
<path d="M1501.61 67.8539L1506.17 42.3539L1486.96 2.14607H1510.44L1519.76 24.2079H1520.15L1536.74 2.14607H1561L1527.62 42.3539L1523.06 67.8539H1501.61Z" stroke="url(#paint32_linear_116_2)" stroke-opacity="0.2" stroke-width="2" mask="url(#path-3-outside-3_116_2)"/>
<defs>
<linearGradient id="paint0_linear_116_2" x1="732.981" y1="45.9998" x2="-84.2578" y2="20.6513" gradientUnits="userSpaceOnUse">
<stop stop-color="#FF0000"/>
<stop offset="1"/>
</linearGradient>
<linearGradient id="paint1_linear_116_2" x1="732.981" y1="45.9998" x2="-84.2578" y2="20.6513" gradientUnits="userSpaceOnUse">
<stop stop-color="#FF0000"/>
<stop offset="1"/>
</linearGradient>
<linearGradient id="paint2_linear_116_2" x1="732.981" y1="45.9998" x2="-84.2578" y2="20.6513" gradientUnits="userSpaceOnUse">
<stop stop-color="#FF0000"/>
<stop offset="1"/>
</linearGradient>
<linearGradient id="paint3_linear_116_2" x1="732.981" y1="45.9998" x2="-84.2578" y2="20.6513" gradientUnits="userSpaceOnUse">
<stop stop-color="#FF0000"/>
<stop offset="1"/>
</linearGradient>
<linearGradient id="paint4_linear_116_2" x1="732.981" y1="45.9998" x2="-84.2578" y2="20.6513" gradientUnits="userSpaceOnUse">
<stop stop-color="#FF0000"/>
<stop offset="1"/>
</linearGradient>
<linearGradient id="paint5_linear_116_2" x1="732.981" y1="45.9998" x2="-84.2578" y2="20.6513" gradientUnits="userSpaceOnUse">
<stop stop-color="#FF0000"/>
<stop offset="1"/>
</linearGradient>
<linearGradient id="paint6_linear_116_2" x1="732.981" y1="45.9998" x2="-84.2578" y2="20.6513" gradientUnits="userSpaceOnUse">
<stop stop-color="#FF0000"/>
<stop offset="1"/>
</linearGradient>
<linearGradient id="paint7_linear_116_2" x1="732.981" y1="45.9998" x2="-84.2578" y2="20.6513" gradientUnits="userSpaceOnUse">
<stop stop-color="#FF0000"/>
<stop offset="1"/>
</linearGradient>
<linearGradient id="paint8_linear_116_2" x1="732.981" y1="45.9998" x2="-84.2578" y2="20.6513" gradientUnits="userSpaceOnUse">
<stop stop-color="#FF0000"/>
<stop offset="1"/>
</linearGradient>
<linearGradient id="paint9_linear_116_2" x1="732.981" y1="45.9998" x2="-84.2578" y2="20.6513" gradientUnits="userSpaceOnUse">
<stop stop-color="#FF0000"/>
<stop offset="1"/>
</linearGradient>
<linearGradient id="paint10_linear_116_2" x1="732.981" y1="45.9998" x2="-84.2578" y2="20.6513" gradientUnits="userSpaceOnUse">
<stop stop-color="#FF0000"/>
<stop offset="1"/>
</linearGradient>
<linearGradient id="paint11_linear_116_2" x1="2426.98" y1="45.9998" x2="1609.74" y2="20.6513" gradientUnits="userSpaceOnUse">
<stop stop-color="#FF0000"/>
<stop offset="1"/>
</linearGradient>
<linearGradient id="paint12_linear_116_2" x1="2426.98" y1="45.9998" x2="1609.74" y2="20.6513" gradientUnits="userSpaceOnUse">
<stop stop-color="#FF0000"/>
<stop offset="1"/>
</linearGradient>
<linearGradient id="paint13_linear_116_2" x1="2426.98" y1="45.9998" x2="1609.74" y2="20.6513" gradientUnits="userSpaceOnUse">
<stop stop-color="#FF0000"/>
<stop offset="1"/>
</linearGradient>
<linearGradient id="paint14_linear_116_2" x1="2426.98" y1="45.9998" x2="1609.74" y2="20.6513" gradientUnits="userSpaceOnUse">
<stop stop-color="#FF0000"/>
<stop offset="1"/>
</linearGradient>
<linearGradient id="paint15_linear_116_2" x1="2426.98" y1="45.9998" x2="1609.74" y2="20.6513" gradientUnits="userSpaceOnUse">
<stop stop-color="#FF0000"/>
<stop offset="1"/>
</linearGradient>
<linearGradient id="paint16_linear_116_2" x1="2426.98" y1="45.9998" x2="1609.74" y2="20.6513" gradientUnits="userSpaceOnUse">
<stop stop-color="#FF0000"/>
<stop offset="1"/>
</linearGradient>
<linearGradient id="paint17_linear_116_2" x1="2426.98" y1="45.9998" x2="1609.74" y2="20.6513" gradientUnits="userSpaceOnUse">
<stop stop-color="#FF0000"/>
<stop offset="1"/>
</linearGradient>
<linearGradient id="paint18_linear_116_2" x1="2426.98" y1="45.9998" x2="1609.74" y2="20.6513" gradientUnits="userSpaceOnUse">
<stop stop-color="#FF0000"/>
<stop offset="1"/>
</linearGradient>
<linearGradient id="paint19_linear_116_2" x1="2426.98" y1="45.9998" x2="1609.74" y2="20.6513" gradientUnits="userSpaceOnUse">
<stop stop-color="#FF0000"/>
<stop offset="1"/>
</linearGradient>
<linearGradient id="paint20_linear_116_2" x1="2426.98" y1="45.9998" x2="1609.74" y2="20.6513" gradientUnits="userSpaceOnUse">
<stop stop-color="#FF0000"/>
<stop offset="1"/>
</linearGradient>
<linearGradient id="paint21_linear_116_2" x1="2426.98" y1="45.9998" x2="1609.74" y2="20.6513" gradientUnits="userSpaceOnUse">
<stop stop-color="#FF0000"/>
<stop offset="1"/>
</linearGradient>
<linearGradient id="paint22_linear_116_2" x1="779" y1="46" x2="1504.32" y2="20.655" gradientUnits="userSpaceOnUse">
<stop stop-color="#FF0000"/>
<stop offset="1"/>
</linearGradient>
<linearGradient id="paint23_linear_116_2" x1="779" y1="46" x2="1504.32" y2="20.655" gradientUnits="userSpaceOnUse">
<stop stop-color="#FF0000"/>
<stop offset="1"/>
</linearGradient>
<linearGradient id="paint24_linear_116_2" x1="779" y1="46" x2="1504.32" y2="20.655" gradientUnits="userSpaceOnUse">
<stop stop-color="#FF0000"/>
<stop offset="1"/>
</linearGradient>
<linearGradient id="paint25_linear_116_2" x1="779" y1="46" x2="1504.32" y2="20.655" gradientUnits="userSpaceOnUse">
<stop stop-color="#FF0000"/>
<stop offset="1"/>
</linearGradient>
<linearGradient id="paint26_linear_116_2" x1="779" y1="46" x2="1504.32" y2="20.655" gradientUnits="userSpaceOnUse">
<stop stop-color="#FF0000"/>
<stop offset="1"/>
</linearGradient>
<linearGradient id="paint27_linear_116_2" x1="779" y1="46" x2="1504.32" y2="20.655" gradientUnits="userSpaceOnUse">
<stop stop-color="#FF0000"/>
<stop offset="1"/>
</linearGradient>
<linearGradient id="paint28_linear_116_2" x1="779" y1="46" x2="1504.32" y2="20.655" gradientUnits="userSpaceOnUse">
<stop stop-color="#FF0000"/>
<stop offset="1"/>
</linearGradient>
<linearGradient id="paint29_linear_116_2" x1="779" y1="46" x2="1504.32" y2="20.655" gradientUnits="userSpaceOnUse">
<stop stop-color="#FF0000"/>
<stop offset="1"/>
</linearGradient>
<linearGradient id="paint30_linear_116_2" x1="779" y1="46" x2="1504.32" y2="20.655" gradientUnits="userSpaceOnUse">
<stop stop-color="#FF0000"/>
<stop offset="1"/>
</linearGradient>
<linearGradient id="paint31_linear_116_2" x1="779" y1="46" x2="1504.32" y2="20.655" gradientUnits="userSpaceOnUse">
<stop stop-color="#FF0000"/>
<stop offset="1"/>
</linearGradient>
<linearGradient id="paint32_linear_116_2" x1="779" y1="46" x2="1504.32" y2="20.655" gradientUnits="userSpaceOnUse">
<stop stop-color="#FF0000"/>
<stop offset="1"/>
</linearGradient>
</defs>
</svg>
