<svg width="45" height="44" viewBox="0 0 45 44" fill="none" xmlns="http://www.w3.org/2000/svg">
<path d="M42.8244 19.333C43.8087 18.1869 43.2156 16.4052 41.7408 16.0776L31.3083 13.76C30.7457 13.635 30.2644 13.2735 29.9877 12.7679L24.7537 3.20631C23.9947 1.81979 22.0031 1.82016 21.2446 3.20696L16.0097 12.7786C15.7328 13.2849 15.2507 13.6469 14.6872 13.7716L4.25969 16.0795C2.78399 16.4061 2.1899 18.1886 3.17458 19.3353L10.419 27.7712C10.7758 28.1867 10.9466 28.7304 10.8916 29.2753L9.75891 40.4864C9.60266 42.0329 11.1931 43.1588 12.5998 42.4974L22.1475 38.0082C22.6866 37.7548 23.3105 37.7547 23.8495 38.0082L33.3973 42.4974C34.804 43.1588 36.3944 42.0329 36.2382 40.4864L35.1055 29.2753C35.0504 28.7304 35.2212 28.1867 35.5781 27.7712L42.8244 19.333Z" fill="#5DBC46"/>
</svg>
