<svg width="111" height="18" viewBox="0 0 111 18" fill="none" xmlns="http://www.w3.org/2000/svg">
<path d="M18 6.87326L12.0373 5.54865L9 0L5.96268 5.55356L0 6.87326L4.08243 11.6271L3.43857 18L9 15.3851L14.5614 18L13.9176 11.6271L18 6.87326Z" fill="#FD9904"/>
<path d="M41 6.87326L35.0373 5.54865L32 0L28.9627 5.55356L23 6.87326L27.0824 11.6271L26.4386 18L32 15.3851L37.5614 18L36.9176 11.6271L41 6.87326Z" fill="#FD9904"/>
<path d="M64 6.87326L58.0373 5.54865L55 0L51.9627 5.55356L46 6.87326L50.0824 11.6271L49.4386 18L55 15.3851L60.5614 18L59.9176 11.6271L64 6.87326Z" fill="#FD9904"/>
<path d="M111 6.87326L105.037 5.54865L102 0L98.9627 5.55356L93 6.87326L97.0824 11.6271L96.4386 18L102 15.3851L107.561 18L106.918 11.6271L111 6.87326Z" fill="#FD9904"/>
<path d="M87 6.87326L81.0373 5.54865L78 0L74.9627 5.55356L69 6.87326L73.0824 11.6271L72.4386 18L78 15.3851L83.5614 18L82.9176 11.6271L87 6.87326Z" fill="#FD9904"/>
</svg>
