<svg width="36" height="36" viewBox="0 0 36 36" fill="none" xmlns="http://www.w3.org/2000/svg">
<mask id="mask0_31_8496" style="mask-type:alpha" maskUnits="userSpaceOnUse" x="0" y="0" width="36" height="36">
<rect width="36" height="36" fill="#C4C4C4"/>
</mask>
<g mask="url(#mask0_31_8496)">
<path d="M5.63229 9.11106L5.28259 13.8888V19.6666L9.59555 27.4444L17.9883 33.2222L26.148 27.6666L30.2278 20.3333L31.1604 9.44439L27.8965 8.44439L21.0191 5.5555L17.8718 3.22217L14.0251 6.33328L5.63229 9.11106Z" fill="#01247E"/>
<path d="M31.1979 8.22775C27.1072 7.67523 23.2666 6.02069 20.1284 3.45926L18.6071 2.21365H18.6069C18.4379 2.07594 18.2227 2 18.0002 2C17.7778 2 17.5626 2.07593 17.3936 2.21365L15.8723 3.45926H15.8721C12.7338 6.02076 8.89334 7.67525 4.80261 8.22775C4.57846 8.25794 4.37337 8.365 4.22567 8.52866C4.07798 8.69232 3.99782 8.90149 4.00005 9.1175V16.3595C3.99955 19.1945 4.74745 21.9842 6.17468 24.472C7.60165 26.9594 9.66222 29.0648 12.1666 30.5941L17.4961 33.8592C17.6465 33.9512 17.8214 34 18 34C18.1786 34 18.3535 33.9512 18.5039 33.8592L23.8334 30.5941C26.3378 29.0645 28.3983 26.9591 29.8253 24.472C31.2525 21.9845 32.0005 19.1948 32 16.3595V9.1175C32.0022 8.90149 31.922 8.69232 31.7743 8.52866C31.6266 8.365 31.4215 8.25794 31.1974 8.22775H31.1979ZM30.1338 16.3596C30.1395 18.9014 29.4727 21.4038 28.1955 23.6353C26.9182 25.8667 25.0713 27.7553 22.826 29.1264L18.0005 32.08L13.175 29.1264C10.9297 27.7553 9.08284 25.8667 7.80552 23.6353C6.5282 21.404 5.86149 18.9017 5.86719 16.3596V9.87404C10.0066 9.16705 13.8732 7.41964 17.0672 4.81191L18.0006 4.06459L18.934 4.81191C22.1279 7.41958 25.9944 9.16705 30.1339 9.87404L30.1338 16.3596Z" fill="#01247E"/>
<path d="M14.5713 12.5555V15.2222H14.3656C13.739 15.2245 13.1385 15.4837 12.6952 15.9434C12.2522 16.4028 12.0023 17.0256 12 17.6757V22.5468C12.0023 23.1966 12.2522 23.8193 12.6952 24.2788C13.1385 24.7385 13.739 24.9976 14.3656 25H21.6344C22.261 24.9976 22.8615 24.7385 23.3048 24.2788C23.7478 23.8193 23.9977 23.1966 24 22.5468V17.6757C23.9977 17.0256 23.7478 16.4028 23.3048 15.9434C22.8615 15.4837 22.261 15.2245 21.6344 15.2222H21.4287V12.5555C21.4287 11.2853 20.7751 10.1114 19.7142 9.47622C18.6535 8.84126 17.3466 8.84126 16.2858 9.47622C15.225 10.1114 14.5713 11.2853 14.5713 12.5555H14.5713ZM22.2855 17.6754V22.5468C22.2855 22.9197 21.9938 23.2223 21.6341 23.2223H14.3654C14.0058 23.2223 13.714 22.9197 13.714 22.5468V17.6757C13.714 17.3024 14.0058 16.9999 14.3654 16.9999H21.6341C21.9938 16.9999 22.2855 17.3024 22.2855 17.6757V17.6754ZM19.714 12.5555V15.2222H16.2856V12.5555C16.2856 11.9205 16.6123 11.3336 17.1426 11.016C17.6731 10.6984 18.3265 10.6984 18.8571 11.016C19.3873 11.3336 19.714 11.9205 19.714 12.5555V12.5555Z" fill="white"/>
</g>
</svg>
