<svg width="86" height="86" viewBox="0 0 86 86" fill="none" xmlns="http://www.w3.org/2000/svg">
<circle cx="43" cy="43" r="43" fill="#F3F6F8"/>
<path d="M45.7776 43.0002C45.7776 44.5345 44.5342 45.7778 43 45.7778C41.4658 45.7778 40.2224 44.5344 40.2224 43.0002C40.2224 41.466 41.4658 40.2227 43 40.2227C44.5342 40.2227 45.7776 41.466 45.7776 43.0002Z" fill="#01247E"/>
<circle cx="42.9998" cy="43" r="23.125" fill="white"/>
<path d="M43 18C29.1929 18 18 29.1929 18 43C18 56.8071 29.1929 68 43 68C56.8071 68 68 56.8071 68 43C68 29.1929 56.8071 18 43 18ZM59.3482 32.4964L54.5334 35.274C53.524 33.7722 52.2297 32.4776 50.7279 31.4664L53.5055 26.6534C55.8482 28.1612 57.8408 30.1537 59.3482 32.4963V32.4964ZM43.9259 23.6021C46.7924 23.7374 49.4962 24.4817 51.9076 25.7279L49.1223 30.5521C47.5333 29.7666 45.7814 29.2815 43.926 29.1577L43.9259 23.6021ZM42.0739 23.6021V29.1577C40.2202 29.2798 38.4683 29.767 36.8793 30.5504L34.0944 25.7262C36.5054 24.4817 39.2074 23.7392 42.0739 23.6021V23.6021ZM32.4927 26.6555L35.2703 31.4686C33.7705 32.4779 32.4759 33.7722 31.4669 35.274L26.6521 32.4943C28.1595 30.1537 30.152 28.1612 32.4926 26.6554L32.4927 26.6555ZM25.7262 34.0963L30.5504 36.8833C29.7667 38.4705 29.2815 40.2224 29.1577 42.0758H23.6021C23.737 39.2093 24.4817 36.5073 25.7261 34.0963H25.7262ZM23.6021 43.9275H29.1578C29.2798 45.7813 29.7688 47.5331 30.5521 49.12L25.7279 51.9053C24.4818 49.496 23.7393 46.794 23.6021 43.9274V43.9275ZM26.6556 53.507L31.4687 50.7294C32.4797 52.2312 33.774 53.5258 35.2762 54.5348L32.4965 59.3479C30.1538 57.8401 28.1612 55.8476 26.6556 53.507V53.507ZM42.0744 62.3975C39.2096 62.2622 36.5076 61.5179 34.0965 60.2752L36.8836 55.451C38.467 56.2343 40.2206 56.7195 42.0744 56.8437V62.3975ZM42.0744 51.3323V47.5342C40.2597 47.1676 38.8319 45.738 38.4653 43.9251H34.6671V42.0731H38.4653C38.8318 40.2602 40.2614 38.8306 42.0744 38.464V34.6659H43.9263V38.464C45.7393 38.8306 47.1688 40.2602 47.5354 42.0731H51.3336V43.9251H47.5354C47.1689 45.738 45.7393 47.1676 43.9263 47.5342V51.3323H42.0744ZM43.9263 62.3975V56.8419C45.7801 56.7198 47.532 56.2326 49.1188 55.4492L51.9041 60.2734C49.4948 61.5179 46.7929 62.2604 43.9262 62.3974L43.9263 62.3975ZM53.5076 59.3457L50.7279 54.5309C52.2296 53.5215 53.5222 52.229 54.5333 50.7271L59.3463 53.5047C57.8389 55.8474 55.8464 57.84 53.5075 59.3456L53.5076 59.3457ZM60.2741 51.905L55.4499 49.1197C56.2333 47.5329 56.7184 45.7809 56.8426 43.9272H62.3982C62.2611 46.7938 61.5186 49.4957 60.2742 51.9051L60.2741 51.905ZM56.8425 42.0755C56.7204 40.2218 56.2332 38.4699 55.4498 36.883L60.274 34.096C61.5185 36.5071 62.263 39.209 62.3963 42.0755H56.8425Z" fill="#01247E"/>
<path d="M68.0004 22.6296C68.0004 24.1639 66.7566 25.4076 65.2228 25.4076C63.6885 25.4076 62.4448 24.1638 62.4448 22.6296C62.4448 21.0954 63.6886 19.8521 65.2228 19.8521C66.7567 19.8521 68.0004 21.0954 68.0004 22.6296" fill="#01247E"/>
</svg>
