<svg width="50" height="50" viewBox="0 0 50 50" fill="none" xmlns="http://www.w3.org/2000/svg">
<circle cx="25" cy="25" r="25" fill="#F3F6F8"/>
<path d="M18 30.5C18 34.6353 21.3647 38 25.5 38C29.6353 38 33 34.6353 33 30.5C33 26.3647 29.6353 23 25.5 23C21.3647 23 18 26.3647 18 30.5ZM31.8462 30.5C31.8462 33.9991 28.9991 36.8462 25.5 36.8462C22.0009 36.8462 19.1538 33.9991 19.1538 30.5C19.1538 27.0009 22.0009 24.1538 25.5 24.1538C28.9991 24.1538 31.8462 27.0009 31.8462 30.5Z" fill="#01247E"/>
<path d="M16 30.5C16 35.738 20.262 40 25.5 40C30.738 40 35 35.738 35 30.5C35 25.262 30.738 21 25.5 21C20.262 21 16 25.262 16 30.5ZM33.8125 30.5C33.8125 35.0838 30.0838 38.8125 25.5 38.8125C20.9162 38.8125 17.1875 35.0838 17.1875 30.5C17.1875 25.9162 20.9162 22.1875 25.5 22.1875C30.0838 22.1875 33.8125 25.9162 33.8125 30.5Z" fill="#01247E"/>
<path d="M21.4247 14.1667L22.5696 15.0298C22.6229 15.0701 22.6453 15.1409 22.6246 15.2061L22.1874 16.6027C22.0476 17.0498 22.194 17.5167 22.5601 17.7928C22.7432 17.931 22.9532 18 23.1628 18C23.3725 18 23.5821 17.9312 23.7656 17.7928L24.9102 16.9296C24.964 16.8893 25.0359 16.8893 25.0892 16.9296L26.2341 17.7928C26.6002 18.0684 27.0733 18.0692 27.4397 17.7928C27.8057 17.5167 27.9522 17.0492 27.8124 16.6027L27.3751 15.2065C27.3547 15.1411 27.3769 15.0705 27.4301 15.0302L28.5751 14.1671C28.9411 13.891 29.0876 13.4235 28.9478 12.977C28.8079 12.53 28.4249 12.2412 27.9723 12.2412H26.5575C26.4915 12.2412 26.4334 12.1973 26.413 12.1319L25.9757 10.7352C25.8357 10.2888 25.4527 10 25.0001 10C24.5475 10 24.1645 10.2888 24.0246 10.7359L23.5874 12.1325C23.5669 12.1979 23.5088 12.2414 23.4429 12.2414H22.0281C21.575 12.2414 21.1924 12.5302 21.0526 12.9773C20.9122 13.4237 21.0585 13.891 21.4247 14.1667L21.4247 14.1667ZM21.8833 13.2573C21.8991 13.2075 21.9366 13.148 22.0278 13.148H23.4427C23.8887 13.148 24.2805 12.8526 24.4181 12.4122L24.8554 11.0155C24.8834 10.9257 24.9497 10.9066 25.0001 10.9066C25.0504 10.9066 25.1167 10.9257 25.1446 11.0159L25.5818 12.4122C25.7195 12.8524 26.1112 13.148 26.5572 13.148H27.9721C28.0633 13.148 28.101 13.2073 28.1166 13.2573C28.1324 13.3067 28.1353 13.3779 28.0616 13.4336L26.9166 14.2968C26.5562 14.5688 26.4065 15.047 26.544 15.4868L26.9812 16.8834C27.0097 16.9737 26.9668 17.0289 26.9262 17.0597C26.8856 17.0905 26.8213 17.1156 26.7476 17.0597L25.6026 16.1965C25.2422 15.9245 24.7578 15.9245 24.3971 16.1965L23.2521 17.0597C23.1782 17.1156 23.114 17.0901 23.0735 17.0597C23.0323 17.0289 22.99 16.9735 23.0185 16.8834L23.4557 15.4868C23.5934 15.047 23.4434 14.5692 23.083 14.2968L21.9381 13.4336C21.8644 13.3773 21.8675 13.3067 21.8833 13.2573L21.8833 13.2573Z" fill="#01247E"/>
<path d="M21.5 13.5L22 12.5H23.5L25 10.5L26.3333 12.931L28 12.5L28.5 13.5L27 15L27.4 17.34L26.5 17.5L25 16.5L23 17.5L22.5 17L23 15L21.5 13.5Z" fill="#01247E"/>
<path d="M36.0033 14.8864H34.8113L34.4427 13.711C34.3071 13.2795 33.9364 13 33.4988 13C33.0611 13 32.6904 13.2788 32.555 13.711L32.1868 14.8864H30.9942C30.556 14.8864 30.1858 15.1652 30.0504 15.5974C29.9155 16.0289 30.0568 16.4806 30.4111 16.7477L31.3759 17.474L31.0077 18.6494C30.8728 19.0816 31.0141 19.5326 31.3684 19.7997C31.7227 20.0668 32.1808 20.0668 32.5351 19.7997L33.4999 19.0729L34.4648 19.7997C34.6421 19.9329 34.8454 19.9997 35.0484 19.9997C35.2513 19.9997 35.4549 19.9329 35.6319 19.799C35.9862 19.5319 36.1278 19.0809 35.9922 18.6487L35.624 17.4733L36.5888 16.747C36.9431 16.4799 37.0847 16.0289 36.9495 15.5967C36.8115 15.1652 36.4413 14.8864 36.0033 14.8864L36.0033 14.8864ZM35.0384 16.642C34.6895 16.905 34.5446 17.3668 34.6777 17.7923L35.0464 18.9677L34.0815 18.2408C33.907 18.1097 33.7029 18.0443 33.4984 18.0443C33.2939 18.0443 33.0894 18.1095 32.9149 18.2413L31.9507 18.9681L32.3189 17.7928C32.4529 17.3679 32.308 16.9054 31.9587 16.642L30.9938 15.9157H32.1864C32.6182 15.9157 32.9973 15.6297 33.1302 15.2046L33.496 14.0231C33.496 14.0231 33.4969 14.0247 33.4984 14.0293L33.8671 15.2046C34.0007 15.6299 34.3797 15.9156 34.8109 15.9156H36.0035L35.0384 16.642Z" fill="#01247E"/>
<path d="M31 15.9048L32.1364 17.0952L31.9091 19L33.5 18.2857L35.0909 19L34.8636 17.0952L36 15.9048L34.4091 15.4286L33.5 14L32.5909 15.1905L31 15.9048Z" fill="#01247E"/>
<path d="M13.411 16.747L14.3759 17.4733L14.0077 18.6487C13.8721 19.0809 14.0137 19.5319 14.3679 19.799C14.5452 19.9326 14.7486 19.9997 14.9515 19.9997C15.1544 19.9997 15.358 19.9329 15.5351 19.7997L16.4999 19.0729L17.4648 19.7997C17.8191 20.0668 18.2772 20.0668 18.6315 19.7997C18.9858 19.5326 19.1273 19.0816 18.9922 18.6494L18.624 17.474L19.5888 16.7477C19.9431 16.4806 20.0847 16.0295 19.9495 15.5974C19.8139 15.1652 19.4433 14.8864 19.0057 14.8864H17.8131L17.4449 13.711C17.3093 13.2795 16.9386 13 16.501 13C16.0632 13 15.6926 13.2788 15.5572 13.711L15.189 14.8864H13.9946C13.5563 14.8864 13.1861 15.1652 13.0507 15.5974C12.9151 16.0289 13.0567 16.4802 13.411 16.747L13.411 16.747ZM15.1872 15.9147C15.6186 15.9147 15.9976 15.6288 16.131 15.2037L16.4972 14.0221C16.4972 14.0221 16.4981 14.0238 16.4997 14.0283L16.8679 15.2037C17.0015 15.629 17.3806 15.9147 17.8117 15.9147H19.0043L18.0399 16.6415C17.6905 16.9045 17.5456 17.3668 17.6792 17.7918L18.0479 18.9672L17.083 18.2404C16.9084 18.1092 16.7044 18.0438 16.4999 18.0438C16.2954 18.0438 16.0909 18.109 15.9163 18.2408L14.9521 18.9676L15.3204 17.7916C15.4533 17.3667 15.3088 16.9042 14.9597 16.6413L13.9948 15.9149L15.1872 15.9152L15.1872 15.9147Z" fill="#01247E"/>
<path d="M16.5 18.2857L15.1363 19.4471L14.5 19L15.1363 17.0952L13.5 16L15.5909 15.4286L16.5 13.5L17.4091 15.4286L19.5 16L17.8636 17.0952L18.5 19L17.8636 19.3922L16.5 18.2857Z" fill="#01247E"/>
<path d="M24.875 26.5625V26.6424C23.7999 26.8937 23 27.7674 23 28.8125C23 30.0533 24.1214 31.0625 25.5 31.0625C26.1895 31.0625 26.75 31.567 26.75 32.1875C26.75 32.808 26.1895 33.3125 25.5 33.3125C24.8106 33.3125 24.25 32.808 24.25 32.1875C24.25 31.8771 23.9699 31.625 23.625 31.625C23.2801 31.625 23 31.8771 23 32.1875C23 33.2327 23.7999 34.1063 24.875 34.3576V34.4375C24.875 34.7479 25.1551 35 25.5 35C25.8449 35 26.125 34.7479 26.125 34.4375V34.3576C27.2001 34.1063 28 33.2327 28 32.1875C28 30.9467 26.8786 29.9375 25.5 29.9375C24.8106 29.9375 24.25 29.433 24.25 28.8125C24.25 28.192 24.8106 27.6875 25.5 27.6875C26.1895 27.6875 26.75 28.192 26.75 28.8125C26.75 29.1229 27.0301 29.375 27.375 29.375C27.7199 29.375 28 29.1229 28 28.8125C28 27.7674 27.2001 26.8937 26.125 26.6424V26.5625C26.125 26.2521 25.8449 26 25.5 26C25.1551 26 24.875 26.2521 24.875 26.5625Z" fill="#01247E"/>
</svg>
