<svg width="50" height="50" viewBox="0 0 50 50" fill="none" xmlns="http://www.w3.org/2000/svg">
<circle cx="25" cy="25" r="25" fill="#F3F6F8"/>
<mask id="path-2-outside-1_102_607" maskUnits="userSpaceOnUse" x="9" y="13" width="32" height="24" fill="black">
<rect fill="white" x="9" y="13" width="32" height="24"/>
<path d="M26.833 23.5919C26.833 26.6061 24.3895 29.0578 21.386 29.0578C18.3828 29.0578 15.939 26.6058 15.939 23.5919C15.939 20.5782 18.3825 18.126 21.386 18.126C24.3895 18.126 26.833 20.5778 26.833 23.5919ZM23.7817 19.5185C23.5432 19.4938 23.3072 19.4738 23.156 19.5016C23.0169 19.5273 22.9578 19.5958 22.9427 19.6164C22.9284 19.6361 22.9226 19.6566 22.9055 19.7303C22.8989 19.7583 22.8922 19.7871 22.8841 19.8174C22.8451 19.9636 22.7918 20.0921 22.7244 20.2006C22.8252 20.1918 22.9015 20.187 22.9797 20.1839C23.1213 20.1789 23.2884 20.1799 23.4808 20.2607C23.6642 20.3379 23.8544 20.4841 23.9664 20.6335C24.1062 20.8208 24.1452 21.0395 24.0728 21.2333C24.0227 21.3671 23.9004 21.5373 23.6013 21.5913C23.5284 21.6042 23.4489 21.6102 23.3646 21.6168C23.2833 21.6226 23.1993 21.6289 23.1095 21.6418C22.9885 21.6592 22.8511 21.6895 22.7055 21.7213C22.6338 21.7372 22.5618 21.7526 22.4909 21.7675L22.4275 21.7804C22.2755 21.8107 22.1324 21.8395 22.0592 21.896C21.9933 21.9473 21.9186 22.0682 21.8733 22.1967C21.8527 22.255 21.8496 22.2835 21.8446 22.3262C21.8413 22.3567 21.8376 22.3852 21.832 22.4145C21.828 22.4347 21.8232 22.4554 21.8179 22.4769C21.8074 22.52 21.8069 22.5231 21.8106 22.5423C21.822 22.6018 21.8735 22.7328 21.9633 22.8924C22.0431 23.0345 22.0849 23.0711 22.0969 23.08C22.1342 23.0873 22.2335 23.0714 22.2879 23.0625L22.3206 23.0575C22.4645 23.035 22.706 22.9969 22.8969 23.1617C23.0592 23.3008 23.0879 23.5048 23.1055 23.6267L23.1072 23.6386C23.1176 23.7121 23.1221 23.7376 23.1384 23.7782C23.152 23.8118 23.1759 23.859 23.2031 23.9138C23.2318 23.9706 23.2642 24.0349 23.2972 24.1079C23.3792 24.2882 23.4687 24.529 23.4315 24.7958C23.4149 24.9158 23.3752 25.0233 23.3399 25.118C23.3115 25.1939 23.2851 25.2656 23.2806 25.3176C23.2725 25.4118 23.3269 25.5612 23.3792 25.7061L23.4109 25.7945C23.4315 25.8518 23.4587 25.9293 23.4833 25.9833C23.5032 25.9707 23.5271 25.952 23.5515 25.9243C23.6476 25.8152 23.7286 25.6029 23.8141 25.378L23.8919 25.1763C23.9792 24.9521 24.0692 24.7201 24.108 24.5396C24.1294 24.4389 24.1372 24.3427 24.1452 24.2412C24.1545 24.1253 24.1641 24.0057 24.1938 23.8752C24.2375 23.6843 24.32 23.4993 24.3862 23.3504C24.4061 23.3054 24.4252 23.2628 24.4418 23.2234C24.473 23.1481 24.4853 23.1045 24.4901 23.0823C24.4541 23.0017 24.3754 22.7988 24.5316 22.5726C24.5839 22.4968 24.6556 22.4312 24.7311 22.3613C24.7875 22.3095 24.8569 22.2454 24.8871 22.2028C24.9155 22.1626 24.9168 22.1212 24.9168 22.051C24.9168 21.9675 24.9168 21.7723 25.0949 21.6497C25.2144 21.5674 25.3573 21.557 25.5188 21.6194C25.5759 21.6411 25.6421 21.6746 25.7122 21.7168C25.316 20.7951 24.6353 20.0259 23.7817 19.5185ZM17.0742 21.6792C17.1419 21.8632 17.2096 22.0377 17.2697 22.146C17.3193 22.2353 17.3537 22.2646 17.4367 22.3113C17.4707 22.3305 17.5077 22.3494 17.5467 22.3696C17.6579 22.4272 17.7962 22.4989 17.9364 22.6016C18.1447 22.7546 18.3364 22.9598 18.4493 23.1507C18.5708 23.3557 18.6146 23.5609 18.5867 23.7972C18.5796 23.8555 18.5693 23.9098 18.5595 23.9623C18.5434 24.0479 18.5291 24.1221 18.5326 24.1983C18.5376 24.3134 18.5834 24.4694 18.6463 24.5861C18.6868 24.6613 18.7371 24.7246 18.7904 24.7913C18.8231 24.8322 18.8566 24.8744 18.8891 24.9203C19.0068 25.0884 19.0694 25.2578 19.1195 25.5451C19.1547 25.7478 19.1869 26.03 19.2156 26.2789C19.2249 26.3587 19.2337 26.4359 19.242 26.5069C19.2493 26.5692 19.2641 26.6922 19.2818 26.7972C19.3439 26.6369 19.406 26.3817 19.4496 26.2034L19.4719 26.111C19.5434 25.8215 19.6015 25.6213 19.7517 25.4789C19.8058 25.4277 19.8591 25.3966 19.8979 25.3737C19.9369 25.3507 19.9369 25.3507 19.9479 25.3307C19.9987 25.2383 20.0646 24.995 20.1046 24.7524C20.1243 24.6337 20.1215 24.6014 20.1195 24.5928C20.1195 24.5928 20.1157 24.5858 20.1034 24.5711C20.0629 24.5234 19.9794 24.454 19.8989 24.3866C19.7985 24.3023 19.6843 24.2071 19.5862 24.1018C19.4835 23.9915 19.4088 23.8815 19.3429 23.7843C19.2898 23.7063 19.2443 23.6396 19.1967 23.5904C19.1301 23.5217 19.0299 23.4581 18.9333 23.3968C18.8795 23.3627 18.8242 23.3276 18.7718 23.29C18.6098 23.1741 18.4866 23.0441 18.3726 22.8694C18.2755 22.721 18.1993 22.5645 18.1462 22.4044C18.0788 22.2012 18.0561 22.0149 18.0785 21.8506C18.1034 21.6678 18.1852 21.503 18.3276 21.3462C18.3658 21.304 18.4061 21.2654 18.4445 21.2281C18.5059 21.1685 18.564 21.1124 18.6227 21.038C18.6576 20.993 18.6966 20.9367 18.7379 20.8774C18.8199 20.758 18.9135 20.6229 19.0267 20.5058C19.1014 20.4291 19.1756 20.3685 19.2415 20.3152C19.2798 20.2842 19.3308 20.2428 19.3527 20.2193C19.3552 20.19 19.3502 20.1289 19.3469 20.0863C19.3439 20.0527 19.3414 20.0191 19.3396 19.985C19.3333 19.8676 19.3147 19.5102 19.5676 19.3047C19.7577 19.15 20.032 19.1371 20.3394 19.2681C20.3856 19.2881 20.4287 19.309 20.4704 19.3297C20.5461 19.3673 20.6324 19.4102 20.6717 19.4039C20.7295 19.3958 20.8626 19.313 20.9547 19.1987C20.8538 19.1707 20.6853 19.1419 20.4538 19.1315C20.1995 19.1202 19.9753 19.1373 19.7424 19.157C18.5512 19.6028 17.5874 20.519 17.0742 21.6792ZM26.1008 23.592C26.1008 23.496 26.097 23.4006 26.0913 23.3062C26.0475 23.2751 26.0032 23.233 25.9615 23.1767C25.9129 23.1113 25.8669 23.0275 25.8138 22.9303C25.7494 22.8124 25.6691 22.6663 25.5866 22.5635C25.5745 22.5484 25.562 22.534 25.5494 22.5203C25.5318 22.5552 25.5104 22.59 25.4857 22.6256C25.4103 22.7326 25.3127 22.8228 25.2264 22.9018C25.2208 22.9068 25.215 22.9124 25.2088 22.9179C25.2581 23.1217 25.1906 23.3282 25.1182 23.5033C25.0993 23.5483 25.0777 23.5975 25.0548 23.6488C24.9989 23.7747 24.9353 23.9171 24.9071 24.0388C24.889 24.1168 24.8825 24.2006 24.8747 24.298C24.8654 24.4129 24.855 24.5432 24.8239 24.6908C24.773 24.9296 24.6719 25.1902 24.574 25.4416L24.4978 25.6387C24.3927 25.9147 24.2837 26.2002 24.1001 26.4087C23.9124 26.6218 23.6691 26.7384 23.4394 26.7384C23.3464 26.7384 23.255 26.7192 23.1708 26.6793C22.9051 26.5538 22.8035 26.2691 22.7217 26.0401L22.6913 25.9553C22.6155 25.746 22.5298 25.5087 22.5514 25.254C22.5642 25.1018 22.614 24.9677 22.654 24.8604C22.6784 24.7956 22.7011 24.7337 22.7066 24.6931C22.7177 24.6141 22.6724 24.501 22.6317 24.4116C22.6032 24.3495 22.5753 24.2935 22.5496 24.2427C22.5164 24.1771 22.4852 24.115 22.4606 24.0544C22.4178 23.9499 22.401 23.8643 22.3891 23.7881C22.242 23.8118 22.0266 23.8428 21.8201 23.7585C21.5801 23.6606 21.4352 23.4473 21.325 23.2514C21.2548 23.1262 21.131 22.8858 21.0913 22.6803C21.0566 22.5019 21.088 22.3754 21.1064 22.2997C21.1086 22.2911 21.1109 22.283 21.1122 22.2749C21.1144 22.2643 21.1152 22.2535 21.1162 22.2424C21.1232 22.181 21.1336 22.0884 21.1816 21.951C21.2259 21.8251 21.3564 21.5108 21.6095 21.3144C21.8186 21.1518 22.0651 21.1023 22.283 21.0592L22.3433 21.047C22.411 21.0334 22.4794 21.0183 22.5476 21.0031C22.6893 20.9721 22.8354 20.94 22.974 20.9186C22.882 20.9226 22.7839 20.9312 22.6186 20.9481L22.5909 20.9511C22.2706 20.9839 22.0309 21.0024 21.8586 20.9408C21.7029 20.885 21.5959 20.7646 21.5645 20.6111C21.5391 20.4849 21.5564 20.2902 21.7826 20.0822C21.8392 20.0302 21.8978 19.9881 21.9497 19.9512C21.9997 19.9153 22.0473 19.8815 22.0737 19.8515C22.1117 19.8083 22.1494 19.7253 22.1753 19.6283C22.1811 19.6059 22.1864 19.5844 22.1912 19.5634C22.2158 19.4574 22.2463 19.3256 22.3502 19.183C22.3869 19.1328 22.444 19.0664 22.5258 19.001C22.2513 18.9323 21.967 18.8879 21.676 18.87C21.7004 18.9197 21.718 18.9727 21.7275 19.0288C21.7497 19.157 21.7394 19.3605 21.5653 19.6026C21.4121 19.8161 21.1127 20.0822 20.7728 20.1309C20.5087 20.1686 20.2976 20.0645 20.1439 19.9881C20.1185 19.9754 20.0931 19.9626 20.0684 19.9515C20.0699 19.9759 20.0717 20.0002 20.074 20.0247C20.0865 20.1741 20.1034 20.3791 19.9912 20.577C19.9157 20.7103 19.8058 20.7994 19.6989 20.8857C19.6443 20.9302 19.5924 20.9718 19.5487 21.0173C19.4777 21.0905 19.4063 21.1942 19.3371 21.2942C19.2916 21.3603 19.2448 21.4282 19.1957 21.4906C19.1059 21.605 19.0194 21.689 18.9499 21.7562C18.9167 21.7882 18.888 21.816 18.8657 21.8405C18.807 21.9049 18.8028 21.9364 18.801 21.95C18.7985 21.9685 18.7937 22.0384 18.8377 22.1717C18.8704 22.2704 18.9202 22.3719 18.9819 22.4663C19.046 22.5642 19.1074 22.6296 19.1947 22.692C19.2304 22.7175 19.275 22.746 19.322 22.7758C19.4423 22.8523 19.5924 22.9472 19.7195 23.0782C19.8111 23.1726 19.8792 23.2731 19.9454 23.3703C20.0017 23.4531 20.0546 23.5313 20.1195 23.6008C20.1856 23.6725 20.277 23.7484 20.365 23.8219C20.4737 23.9128 20.5763 23.9984 20.6568 24.093C20.8865 24.3619 20.8654 24.6259 20.8244 24.8731C20.7972 25.0359 20.72 25.4413 20.5866 25.6844C20.4785 25.8816 20.3396 25.9631 20.2654 26.0073C20.2636 26.0083 20.2614 26.0096 20.2596 26.0106C20.2332 26.0722 20.1937 26.2317 20.1799 26.288L20.1577 26.3781C20.0916 26.6503 20.009 26.9893 19.8968 27.2087C19.7512 27.4934 19.5306 27.6378 19.241 27.6378C18.9159 27.6378 18.7534 27.4599 18.6742 27.3107C18.5907 27.1534 18.5557 26.9547 18.5127 26.595C18.5041 26.5231 18.4951 26.4443 18.4858 26.3635C18.4586 26.1247 18.4276 25.8539 18.3959 25.6724C18.3585 25.457 18.3265 25.3985 18.288 25.3437C18.2689 25.3164 18.2445 25.2861 18.2166 25.251C18.1519 25.1698 18.0712 25.0685 17.999 24.935C17.8837 24.7202 17.8088 24.4576 17.7987 24.2322C17.7914 24.0696 17.8171 23.9341 17.8382 23.8253C17.8463 23.7836 17.8536 23.7445 17.8573 23.7122C17.8651 23.6465 17.8611 23.5998 17.8176 23.5269C17.7549 23.4216 17.6281 23.2883 17.5014 23.1952C17.4075 23.126 17.3064 23.074 17.2088 23.0235C17.1612 22.9988 17.1164 22.9755 17.0752 22.9523C16.9693 22.8925 16.8591 22.8173 16.7547 22.6908C16.6983 22.9829 16.6679 23.2843 16.6679 23.5925C16.6679 26.2015 18.7834 28.3243 21.3833 28.3243C23.9846 28.324 26.1008 26.201 26.1008 23.592ZM39.9994 21.8688C39.9748 23.7631 39.1949 25.5343 37.7439 26.9901L28.8731 35.8922C28.8047 35.9609 28.7116 35.9997 28.6145 35.9997C28.5174 35.9997 28.4246 35.9609 28.3559 35.8922L25.0002 32.5249L21.6443 35.8925C21.5729 35.9642 21.479 36 21.3857 36C21.2921 36 21.1983 35.9642 21.1271 35.8925L12.2557 26.9903C10.7928 25.5224 10.013 23.7359 10.0002 21.8241C9.98883 20.1158 10.5994 18.394 11.7194 16.9747C12.8414 15.553 14.3767 14.5591 16.0416 14.1769C17.8368 13.7647 19.6798 14.0762 21.3855 15.0769C23.0908 14.0762 24.9339 13.7652 26.7291 14.1777C27.4413 14.3413 28.1293 14.6172 28.7716 14.9898C30.4707 14.0396 32.2989 13.7685 34.0732 14.2072C35.722 14.6149 37.2347 15.6232 38.334 17.0452C39.4301 18.4634 40.0216 20.1764 39.9994 21.8688ZM29.9978 26.4708C32.9334 23.5251 32.3545 19.8086 30.4783 17.431C29.9641 16.7798 29.3309 16.2006 28.6099 15.7468C28.5849 15.7349 28.5616 15.7203 28.5397 15.7029C26.6282 14.5302 24.1165 14.2402 21.5778 15.817C21.4596 15.8904 21.3106 15.8904 21.1929 15.817C19.9637 15.0534 18.7406 14.7277 17.5889 14.7277C15.4289 14.7277 13.5205 15.8743 12.2929 17.4301C10.4164 19.8076 9.83702 23.5248 12.7731 26.4711L21.3856 35.1135L29.9978 26.4708ZM37.7557 17.495C36.0042 15.2286 32.812 13.7889 29.4729 15.4485C30.0563 15.8764 30.5894 16.3898 31.052 16.9758C32.1718 18.3945 32.7823 20.1167 32.771 21.8244C32.7582 23.7359 31.9783 25.5222 30.5152 26.9899L25.5173 32.0054L28.6144 35.1132L37.2268 26.4709C40.131 23.5564 39.5848 19.8629 37.7557 17.495Z"/>
</mask>
<path d="M26.833 23.5919C26.833 26.6061 24.3895 29.0578 21.386 29.0578C18.3828 29.0578 15.939 26.6058 15.939 23.5919C15.939 20.5782 18.3825 18.126 21.386 18.126C24.3895 18.126 26.833 20.5778 26.833 23.5919ZM23.7817 19.5185C23.5432 19.4938 23.3072 19.4738 23.156 19.5016C23.0169 19.5273 22.9578 19.5958 22.9427 19.6164C22.9284 19.6361 22.9226 19.6566 22.9055 19.7303C22.8989 19.7583 22.8922 19.7871 22.8841 19.8174C22.8451 19.9636 22.7918 20.0921 22.7244 20.2006C22.8252 20.1918 22.9015 20.187 22.9797 20.1839C23.1213 20.1789 23.2884 20.1799 23.4808 20.2607C23.6642 20.3379 23.8544 20.4841 23.9664 20.6335C24.1062 20.8208 24.1452 21.0395 24.0728 21.2333C24.0227 21.3671 23.9004 21.5373 23.6013 21.5913C23.5284 21.6042 23.4489 21.6102 23.3646 21.6168C23.2833 21.6226 23.1993 21.6289 23.1095 21.6418C22.9885 21.6592 22.8511 21.6895 22.7055 21.7213C22.6338 21.7372 22.5618 21.7526 22.4909 21.7675L22.4275 21.7804C22.2755 21.8107 22.1324 21.8395 22.0592 21.896C21.9933 21.9473 21.9186 22.0682 21.8733 22.1967C21.8527 22.255 21.8496 22.2835 21.8446 22.3262C21.8413 22.3567 21.8376 22.3852 21.832 22.4145C21.828 22.4347 21.8232 22.4554 21.8179 22.4769C21.8074 22.52 21.8069 22.5231 21.8106 22.5423C21.822 22.6018 21.8735 22.7328 21.9633 22.8924C22.0431 23.0345 22.0849 23.0711 22.0969 23.08C22.1342 23.0873 22.2335 23.0714 22.2879 23.0625L22.3206 23.0575C22.4645 23.035 22.706 22.9969 22.8969 23.1617C23.0592 23.3008 23.0879 23.5048 23.1055 23.6267L23.1072 23.6386C23.1176 23.7121 23.1221 23.7376 23.1384 23.7782C23.152 23.8118 23.1759 23.859 23.2031 23.9138C23.2318 23.9706 23.2642 24.0349 23.2972 24.1079C23.3792 24.2882 23.4687 24.529 23.4315 24.7958C23.4149 24.9158 23.3752 25.0233 23.3399 25.118C23.3115 25.1939 23.2851 25.2656 23.2806 25.3176C23.2725 25.4118 23.3269 25.5612 23.3792 25.7061L23.4109 25.7945C23.4315 25.8518 23.4587 25.9293 23.4833 25.9833C23.5032 25.9707 23.5271 25.952 23.5515 25.9243C23.6476 25.8152 23.7286 25.6029 23.8141 25.378L23.8919 25.1763C23.9792 24.9521 24.0692 24.7201 24.108 24.5396C24.1294 24.4389 24.1372 24.3427 24.1452 24.2412C24.1545 24.1253 24.1641 24.0057 24.1938 23.8752C24.2375 23.6843 24.32 23.4993 24.3862 23.3504C24.4061 23.3054 24.4252 23.2628 24.4418 23.2234C24.473 23.1481 24.4853 23.1045 24.4901 23.0823C24.4541 23.0017 24.3754 22.7988 24.5316 22.5726C24.5839 22.4968 24.6556 22.4312 24.7311 22.3613C24.7875 22.3095 24.8569 22.2454 24.8871 22.2028C24.9155 22.1626 24.9168 22.1212 24.9168 22.051C24.9168 21.9675 24.9168 21.7723 25.0949 21.6497C25.2144 21.5674 25.3573 21.557 25.5188 21.6194C25.5759 21.6411 25.6421 21.6746 25.7122 21.7168C25.316 20.7951 24.6353 20.0259 23.7817 19.5185ZM17.0742 21.6792C17.1419 21.8632 17.2096 22.0377 17.2697 22.146C17.3193 22.2353 17.3537 22.2646 17.4367 22.3113C17.4707 22.3305 17.5077 22.3494 17.5467 22.3696C17.6579 22.4272 17.7962 22.4989 17.9364 22.6016C18.1447 22.7546 18.3364 22.9598 18.4493 23.1507C18.5708 23.3557 18.6146 23.5609 18.5867 23.7972C18.5796 23.8555 18.5693 23.9098 18.5595 23.9623C18.5434 24.0479 18.5291 24.1221 18.5326 24.1983C18.5376 24.3134 18.5834 24.4694 18.6463 24.5861C18.6868 24.6613 18.7371 24.7246 18.7904 24.7913C18.8231 24.8322 18.8566 24.8744 18.8891 24.9203C19.0068 25.0884 19.0694 25.2578 19.1195 25.5451C19.1547 25.7478 19.1869 26.03 19.2156 26.2789C19.2249 26.3587 19.2337 26.4359 19.242 26.5069C19.2493 26.5692 19.2641 26.6922 19.2818 26.7972C19.3439 26.6369 19.406 26.3817 19.4496 26.2034L19.4719 26.111C19.5434 25.8215 19.6015 25.6213 19.7517 25.4789C19.8058 25.4277 19.8591 25.3966 19.8979 25.3737C19.9369 25.3507 19.9369 25.3507 19.9479 25.3307C19.9987 25.2383 20.0646 24.995 20.1046 24.7524C20.1243 24.6337 20.1215 24.6014 20.1195 24.5928C20.1195 24.5928 20.1157 24.5858 20.1034 24.5711C20.0629 24.5234 19.9794 24.454 19.8989 24.3866C19.7985 24.3023 19.6843 24.2071 19.5862 24.1018C19.4835 23.9915 19.4088 23.8815 19.3429 23.7843C19.2898 23.7063 19.2443 23.6396 19.1967 23.5904C19.1301 23.5217 19.0299 23.4581 18.9333 23.3968C18.8795 23.3627 18.8242 23.3276 18.7718 23.29C18.6098 23.1741 18.4866 23.0441 18.3726 22.8694C18.2755 22.721 18.1993 22.5645 18.1462 22.4044C18.0788 22.2012 18.0561 22.0149 18.0785 21.8506C18.1034 21.6678 18.1852 21.503 18.3276 21.3462C18.3658 21.304 18.4061 21.2654 18.4445 21.2281C18.5059 21.1685 18.564 21.1124 18.6227 21.038C18.6576 20.993 18.6966 20.9367 18.7379 20.8774C18.8199 20.758 18.9135 20.6229 19.0267 20.5058C19.1014 20.4291 19.1756 20.3685 19.2415 20.3152C19.2798 20.2842 19.3308 20.2428 19.3527 20.2193C19.3552 20.19 19.3502 20.1289 19.3469 20.0863C19.3439 20.0527 19.3414 20.0191 19.3396 19.985C19.3333 19.8676 19.3147 19.5102 19.5676 19.3047C19.7577 19.15 20.032 19.1371 20.3394 19.2681C20.3856 19.2881 20.4287 19.309 20.4704 19.3297C20.5461 19.3673 20.6324 19.4102 20.6717 19.4039C20.7295 19.3958 20.8626 19.313 20.9547 19.1987C20.8538 19.1707 20.6853 19.1419 20.4538 19.1315C20.1995 19.1202 19.9753 19.1373 19.7424 19.157C18.5512 19.6028 17.5874 20.519 17.0742 21.6792ZM26.1008 23.592C26.1008 23.496 26.097 23.4006 26.0913 23.3062C26.0475 23.2751 26.0032 23.233 25.9615 23.1767C25.9129 23.1113 25.8669 23.0275 25.8138 22.9303C25.7494 22.8124 25.6691 22.6663 25.5866 22.5635C25.5745 22.5484 25.562 22.534 25.5494 22.5203C25.5318 22.5552 25.5104 22.59 25.4857 22.6256C25.4103 22.7326 25.3127 22.8228 25.2264 22.9018C25.2208 22.9068 25.215 22.9124 25.2088 22.9179C25.2581 23.1217 25.1906 23.3282 25.1182 23.5033C25.0993 23.5483 25.0777 23.5975 25.0548 23.6488C24.9989 23.7747 24.9353 23.9171 24.9071 24.0388C24.889 24.1168 24.8825 24.2006 24.8747 24.298C24.8654 24.4129 24.855 24.5432 24.8239 24.6908C24.773 24.9296 24.6719 25.1902 24.574 25.4416L24.4978 25.6387C24.3927 25.9147 24.2837 26.2002 24.1001 26.4087C23.9124 26.6218 23.6691 26.7384 23.4394 26.7384C23.3464 26.7384 23.255 26.7192 23.1708 26.6793C22.9051 26.5538 22.8035 26.2691 22.7217 26.0401L22.6913 25.9553C22.6155 25.746 22.5298 25.5087 22.5514 25.254C22.5642 25.1018 22.614 24.9677 22.654 24.8604C22.6784 24.7956 22.7011 24.7337 22.7066 24.6931C22.7177 24.6141 22.6724 24.501 22.6317 24.4116C22.6032 24.3495 22.5753 24.2935 22.5496 24.2427C22.5164 24.1771 22.4852 24.115 22.4606 24.0544C22.4178 23.9499 22.401 23.8643 22.3891 23.7881C22.242 23.8118 22.0266 23.8428 21.8201 23.7585C21.5801 23.6606 21.4352 23.4473 21.325 23.2514C21.2548 23.1262 21.131 22.8858 21.0913 22.6803C21.0566 22.5019 21.088 22.3754 21.1064 22.2997C21.1086 22.2911 21.1109 22.283 21.1122 22.2749C21.1144 22.2643 21.1152 22.2535 21.1162 22.2424C21.1232 22.181 21.1336 22.0884 21.1816 21.951C21.2259 21.8251 21.3564 21.5108 21.6095 21.3144C21.8186 21.1518 22.0651 21.1023 22.283 21.0592L22.3433 21.047C22.411 21.0334 22.4794 21.0183 22.5476 21.0031C22.6893 20.9721 22.8354 20.94 22.974 20.9186C22.882 20.9226 22.7839 20.9312 22.6186 20.9481L22.5909 20.9511C22.2706 20.9839 22.0309 21.0024 21.8586 20.9408C21.7029 20.885 21.5959 20.7646 21.5645 20.6111C21.5391 20.4849 21.5564 20.2902 21.7826 20.0822C21.8392 20.0302 21.8978 19.9881 21.9497 19.9512C21.9997 19.9153 22.0473 19.8815 22.0737 19.8515C22.1117 19.8083 22.1494 19.7253 22.1753 19.6283C22.1811 19.6059 22.1864 19.5844 22.1912 19.5634C22.2158 19.4574 22.2463 19.3256 22.3502 19.183C22.3869 19.1328 22.444 19.0664 22.5258 19.001C22.2513 18.9323 21.967 18.8879 21.676 18.87C21.7004 18.9197 21.718 18.9727 21.7275 19.0288C21.7497 19.157 21.7394 19.3605 21.5653 19.6026C21.4121 19.8161 21.1127 20.0822 20.7728 20.1309C20.5087 20.1686 20.2976 20.0645 20.1439 19.9881C20.1185 19.9754 20.0931 19.9626 20.0684 19.9515C20.0699 19.9759 20.0717 20.0002 20.074 20.0247C20.0865 20.1741 20.1034 20.3791 19.9912 20.577C19.9157 20.7103 19.8058 20.7994 19.6989 20.8857C19.6443 20.9302 19.5924 20.9718 19.5487 21.0173C19.4777 21.0905 19.4063 21.1942 19.3371 21.2942C19.2916 21.3603 19.2448 21.4282 19.1957 21.4906C19.1059 21.605 19.0194 21.689 18.9499 21.7562C18.9167 21.7882 18.888 21.816 18.8657 21.8405C18.807 21.9049 18.8028 21.9364 18.801 21.95C18.7985 21.9685 18.7937 22.0384 18.8377 22.1717C18.8704 22.2704 18.9202 22.3719 18.9819 22.4663C19.046 22.5642 19.1074 22.6296 19.1947 22.692C19.2304 22.7175 19.275 22.746 19.322 22.7758C19.4423 22.8523 19.5924 22.9472 19.7195 23.0782C19.8111 23.1726 19.8792 23.2731 19.9454 23.3703C20.0017 23.4531 20.0546 23.5313 20.1195 23.6008C20.1856 23.6725 20.277 23.7484 20.365 23.8219C20.4737 23.9128 20.5763 23.9984 20.6568 24.093C20.8865 24.3619 20.8654 24.6259 20.8244 24.8731C20.7972 25.0359 20.72 25.4413 20.5866 25.6844C20.4785 25.8816 20.3396 25.9631 20.2654 26.0073C20.2636 26.0083 20.2614 26.0096 20.2596 26.0106C20.2332 26.0722 20.1937 26.2317 20.1799 26.288L20.1577 26.3781C20.0916 26.6503 20.009 26.9893 19.8968 27.2087C19.7512 27.4934 19.5306 27.6378 19.241 27.6378C18.9159 27.6378 18.7534 27.4599 18.6742 27.3107C18.5907 27.1534 18.5557 26.9547 18.5127 26.595C18.5041 26.5231 18.4951 26.4443 18.4858 26.3635C18.4586 26.1247 18.4276 25.8539 18.3959 25.6724C18.3585 25.457 18.3265 25.3985 18.288 25.3437C18.2689 25.3164 18.2445 25.2861 18.2166 25.251C18.1519 25.1698 18.0712 25.0685 17.999 24.935C17.8837 24.7202 17.8088 24.4576 17.7987 24.2322C17.7914 24.0696 17.8171 23.9341 17.8382 23.8253C17.8463 23.7836 17.8536 23.7445 17.8573 23.7122C17.8651 23.6465 17.8611 23.5998 17.8176 23.5269C17.7549 23.4216 17.6281 23.2883 17.5014 23.1952C17.4075 23.126 17.3064 23.074 17.2088 23.0235C17.1612 22.9988 17.1164 22.9755 17.0752 22.9523C16.9693 22.8925 16.8591 22.8173 16.7547 22.6908C16.6983 22.9829 16.6679 23.2843 16.6679 23.5925C16.6679 26.2015 18.7834 28.3243 21.3833 28.3243C23.9846 28.324 26.1008 26.201 26.1008 23.592ZM39.9994 21.8688C39.9748 23.7631 39.1949 25.5343 37.7439 26.9901L28.8731 35.8922C28.8047 35.9609 28.7116 35.9997 28.6145 35.9997C28.5174 35.9997 28.4246 35.9609 28.3559 35.8922L25.0002 32.5249L21.6443 35.8925C21.5729 35.9642 21.479 36 21.3857 36C21.2921 36 21.1983 35.9642 21.1271 35.8925L12.2557 26.9903C10.7928 25.5224 10.013 23.7359 10.0002 21.8241C9.98883 20.1158 10.5994 18.394 11.7194 16.9747C12.8414 15.553 14.3767 14.5591 16.0416 14.1769C17.8368 13.7647 19.6798 14.0762 21.3855 15.0769C23.0908 14.0762 24.9339 13.7652 26.7291 14.1777C27.4413 14.3413 28.1293 14.6172 28.7716 14.9898C30.4707 14.0396 32.2989 13.7685 34.0732 14.2072C35.722 14.6149 37.2347 15.6232 38.334 17.0452C39.4301 18.4634 40.0216 20.1764 39.9994 21.8688ZM29.9978 26.4708C32.9334 23.5251 32.3545 19.8086 30.4783 17.431C29.9641 16.7798 29.3309 16.2006 28.6099 15.7468C28.5849 15.7349 28.5616 15.7203 28.5397 15.7029C26.6282 14.5302 24.1165 14.2402 21.5778 15.817C21.4596 15.8904 21.3106 15.8904 21.1929 15.817C19.9637 15.0534 18.7406 14.7277 17.5889 14.7277C15.4289 14.7277 13.5205 15.8743 12.2929 17.4301C10.4164 19.8076 9.83702 23.5248 12.7731 26.4711L21.3856 35.1135L29.9978 26.4708ZM37.7557 17.495C36.0042 15.2286 32.812 13.7889 29.4729 15.4485C30.0563 15.8764 30.5894 16.3898 31.052 16.9758C32.1718 18.3945 32.7823 20.1167 32.771 21.8244C32.7582 23.7359 31.9783 25.5222 30.5152 26.9899L25.5173 32.0054L28.6144 35.1132L37.2268 26.4709C40.131 23.5564 39.5848 19.8629 37.7557 17.495Z" fill="#01247E"/>
<path d="M26.833 23.5919C26.833 26.6061 24.3895 29.0578 21.386 29.0578C18.3828 29.0578 15.939 26.6058 15.939 23.5919C15.939 20.5782 18.3825 18.126 21.386 18.126C24.3895 18.126 26.833 20.5778 26.833 23.5919ZM23.7817 19.5185C23.5432 19.4938 23.3072 19.4738 23.156 19.5016C23.0169 19.5273 22.9578 19.5958 22.9427 19.6164C22.9284 19.6361 22.9226 19.6566 22.9055 19.7303C22.8989 19.7583 22.8922 19.7871 22.8841 19.8174C22.8451 19.9636 22.7918 20.0921 22.7244 20.2006C22.8252 20.1918 22.9015 20.187 22.9797 20.1839C23.1213 20.1789 23.2884 20.1799 23.4808 20.2607C23.6642 20.3379 23.8544 20.4841 23.9664 20.6335C24.1062 20.8208 24.1452 21.0395 24.0728 21.2333C24.0227 21.3671 23.9004 21.5373 23.6013 21.5913C23.5284 21.6042 23.4489 21.6102 23.3646 21.6168C23.2833 21.6226 23.1993 21.6289 23.1095 21.6418C22.9885 21.6592 22.8511 21.6895 22.7055 21.7213C22.6338 21.7372 22.5618 21.7526 22.4909 21.7675L22.4275 21.7804C22.2755 21.8107 22.1324 21.8395 22.0592 21.896C21.9933 21.9473 21.9186 22.0682 21.8733 22.1967C21.8527 22.255 21.8496 22.2835 21.8446 22.3262C21.8413 22.3567 21.8376 22.3852 21.832 22.4145C21.828 22.4347 21.8232 22.4554 21.8179 22.4769C21.8074 22.52 21.8069 22.5231 21.8106 22.5423C21.822 22.6018 21.8735 22.7328 21.9633 22.8924C22.0431 23.0345 22.0849 23.0711 22.0969 23.08C22.1342 23.0873 22.2335 23.0714 22.2879 23.0625L22.3206 23.0575C22.4645 23.035 22.706 22.9969 22.8969 23.1617C23.0592 23.3008 23.0879 23.5048 23.1055 23.6267L23.1072 23.6386C23.1176 23.7121 23.1221 23.7376 23.1384 23.7782C23.152 23.8118 23.1759 23.859 23.2031 23.9138C23.2318 23.9706 23.2642 24.0349 23.2972 24.1079C23.3792 24.2882 23.4687 24.529 23.4315 24.7958C23.4149 24.9158 23.3752 25.0233 23.3399 25.118C23.3115 25.1939 23.2851 25.2656 23.2806 25.3176C23.2725 25.4118 23.3269 25.5612 23.3792 25.7061L23.4109 25.7945C23.4315 25.8518 23.4587 25.9293 23.4833 25.9833C23.5032 25.9707 23.5271 25.952 23.5515 25.9243C23.6476 25.8152 23.7286 25.6029 23.8141 25.378L23.8919 25.1763C23.9792 24.9521 24.0692 24.7201 24.108 24.5396C24.1294 24.4389 24.1372 24.3427 24.1452 24.2412C24.1545 24.1253 24.1641 24.0057 24.1938 23.8752C24.2375 23.6843 24.32 23.4993 24.3862 23.3504C24.4061 23.3054 24.4252 23.2628 24.4418 23.2234C24.473 23.1481 24.4853 23.1045 24.4901 23.0823C24.4541 23.0017 24.3754 22.7988 24.5316 22.5726C24.5839 22.4968 24.6556 22.4312 24.7311 22.3613C24.7875 22.3095 24.8569 22.2454 24.8871 22.2028C24.9155 22.1626 24.9168 22.1212 24.9168 22.051C24.9168 21.9675 24.9168 21.7723 25.0949 21.6497C25.2144 21.5674 25.3573 21.557 25.5188 21.6194C25.5759 21.6411 25.6421 21.6746 25.7122 21.7168C25.316 20.7951 24.6353 20.0259 23.7817 19.5185ZM17.0742 21.6792C17.1419 21.8632 17.2096 22.0377 17.2697 22.146C17.3193 22.2353 17.3537 22.2646 17.4367 22.3113C17.4707 22.3305 17.5077 22.3494 17.5467 22.3696C17.6579 22.4272 17.7962 22.4989 17.9364 22.6016C18.1447 22.7546 18.3364 22.9598 18.4493 23.1507C18.5708 23.3557 18.6146 23.5609 18.5867 23.7972C18.5796 23.8555 18.5693 23.9098 18.5595 23.9623C18.5434 24.0479 18.5291 24.1221 18.5326 24.1983C18.5376 24.3134 18.5834 24.4694 18.6463 24.5861C18.6868 24.6613 18.7371 24.7246 18.7904 24.7913C18.8231 24.8322 18.8566 24.8744 18.8891 24.9203C19.0068 25.0884 19.0694 25.2578 19.1195 25.5451C19.1547 25.7478 19.1869 26.03 19.2156 26.2789C19.2249 26.3587 19.2337 26.4359 19.242 26.5069C19.2493 26.5692 19.2641 26.6922 19.2818 26.7972C19.3439 26.6369 19.406 26.3817 19.4496 26.2034L19.4719 26.111C19.5434 25.8215 19.6015 25.6213 19.7517 25.4789C19.8058 25.4277 19.8591 25.3966 19.8979 25.3737C19.9369 25.3507 19.9369 25.3507 19.9479 25.3307C19.9987 25.2383 20.0646 24.995 20.1046 24.7524C20.1243 24.6337 20.1215 24.6014 20.1195 24.5928C20.1195 24.5928 20.1157 24.5858 20.1034 24.5711C20.0629 24.5234 19.9794 24.454 19.8989 24.3866C19.7985 24.3023 19.6843 24.2071 19.5862 24.1018C19.4835 23.9915 19.4088 23.8815 19.3429 23.7843C19.2898 23.7063 19.2443 23.6396 19.1967 23.5904C19.1301 23.5217 19.0299 23.4581 18.9333 23.3968C18.8795 23.3627 18.8242 23.3276 18.7718 23.29C18.6098 23.1741 18.4866 23.0441 18.3726 22.8694C18.2755 22.721 18.1993 22.5645 18.1462 22.4044C18.0788 22.2012 18.0561 22.0149 18.0785 21.8506C18.1034 21.6678 18.1852 21.503 18.3276 21.3462C18.3658 21.304 18.4061 21.2654 18.4445 21.2281C18.5059 21.1685 18.564 21.1124 18.6227 21.038C18.6576 20.993 18.6966 20.9367 18.7379 20.8774C18.8199 20.758 18.9135 20.6229 19.0267 20.5058C19.1014 20.4291 19.1756 20.3685 19.2415 20.3152C19.2798 20.2842 19.3308 20.2428 19.3527 20.2193C19.3552 20.19 19.3502 20.1289 19.3469 20.0863C19.3439 20.0527 19.3414 20.0191 19.3396 19.985C19.3333 19.8676 19.3147 19.5102 19.5676 19.3047C19.7577 19.15 20.032 19.1371 20.3394 19.2681C20.3856 19.2881 20.4287 19.309 20.4704 19.3297C20.5461 19.3673 20.6324 19.4102 20.6717 19.4039C20.7295 19.3958 20.8626 19.313 20.9547 19.1987C20.8538 19.1707 20.6853 19.1419 20.4538 19.1315C20.1995 19.1202 19.9753 19.1373 19.7424 19.157C18.5512 19.6028 17.5874 20.519 17.0742 21.6792ZM26.1008 23.592C26.1008 23.496 26.097 23.4006 26.0913 23.3062C26.0475 23.2751 26.0032 23.233 25.9615 23.1767C25.9129 23.1113 25.8669 23.0275 25.8138 22.9303C25.7494 22.8124 25.6691 22.6663 25.5866 22.5635C25.5745 22.5484 25.562 22.534 25.5494 22.5203C25.5318 22.5552 25.5104 22.59 25.4857 22.6256C25.4103 22.7326 25.3127 22.8228 25.2264 22.9018C25.2208 22.9068 25.215 22.9124 25.2088 22.9179C25.2581 23.1217 25.1906 23.3282 25.1182 23.5033C25.0993 23.5483 25.0777 23.5975 25.0548 23.6488C24.9989 23.7747 24.9353 23.9171 24.9071 24.0388C24.889 24.1168 24.8825 24.2006 24.8747 24.298C24.8654 24.4129 24.855 24.5432 24.8239 24.6908C24.773 24.9296 24.6719 25.1902 24.574 25.4416L24.4978 25.6387C24.3927 25.9147 24.2837 26.2002 24.1001 26.4087C23.9124 26.6218 23.6691 26.7384 23.4394 26.7384C23.3464 26.7384 23.255 26.7192 23.1708 26.6793C22.9051 26.5538 22.8035 26.2691 22.7217 26.0401L22.6913 25.9553C22.6155 25.746 22.5298 25.5087 22.5514 25.254C22.5642 25.1018 22.614 24.9677 22.654 24.8604C22.6784 24.7956 22.7011 24.7337 22.7066 24.6931C22.7177 24.6141 22.6724 24.501 22.6317 24.4116C22.6032 24.3495 22.5753 24.2935 22.5496 24.2427C22.5164 24.1771 22.4852 24.115 22.4606 24.0544C22.4178 23.9499 22.401 23.8643 22.3891 23.7881C22.242 23.8118 22.0266 23.8428 21.8201 23.7585C21.5801 23.6606 21.4352 23.4473 21.325 23.2514C21.2548 23.1262 21.131 22.8858 21.0913 22.6803C21.0566 22.5019 21.088 22.3754 21.1064 22.2997C21.1086 22.2911 21.1109 22.283 21.1122 22.2749C21.1144 22.2643 21.1152 22.2535 21.1162 22.2424C21.1232 22.181 21.1336 22.0884 21.1816 21.951C21.2259 21.8251 21.3564 21.5108 21.6095 21.3144C21.8186 21.1518 22.0651 21.1023 22.283 21.0592L22.3433 21.047C22.411 21.0334 22.4794 21.0183 22.5476 21.0031C22.6893 20.9721 22.8354 20.94 22.974 20.9186C22.882 20.9226 22.7839 20.9312 22.6186 20.9481L22.5909 20.9511C22.2706 20.9839 22.0309 21.0024 21.8586 20.9408C21.7029 20.885 21.5959 20.7646 21.5645 20.6111C21.5391 20.4849 21.5564 20.2902 21.7826 20.0822C21.8392 20.0302 21.8978 19.9881 21.9497 19.9512C21.9997 19.9153 22.0473 19.8815 22.0737 19.8515C22.1117 19.8083 22.1494 19.7253 22.1753 19.6283C22.1811 19.6059 22.1864 19.5844 22.1912 19.5634C22.2158 19.4574 22.2463 19.3256 22.3502 19.183C22.3869 19.1328 22.444 19.0664 22.5258 19.001C22.2513 18.9323 21.967 18.8879 21.676 18.87C21.7004 18.9197 21.718 18.9727 21.7275 19.0288C21.7497 19.157 21.7394 19.3605 21.5653 19.6026C21.4121 19.8161 21.1127 20.0822 20.7728 20.1309C20.5087 20.1686 20.2976 20.0645 20.1439 19.9881C20.1185 19.9754 20.0931 19.9626 20.0684 19.9515C20.0699 19.9759 20.0717 20.0002 20.074 20.0247C20.0865 20.1741 20.1034 20.3791 19.9912 20.577C19.9157 20.7103 19.8058 20.7994 19.6989 20.8857C19.6443 20.9302 19.5924 20.9718 19.5487 21.0173C19.4777 21.0905 19.4063 21.1942 19.3371 21.2942C19.2916 21.3603 19.2448 21.4282 19.1957 21.4906C19.1059 21.605 19.0194 21.689 18.9499 21.7562C18.9167 21.7882 18.888 21.816 18.8657 21.8405C18.807 21.9049 18.8028 21.9364 18.801 21.95C18.7985 21.9685 18.7937 22.0384 18.8377 22.1717C18.8704 22.2704 18.9202 22.3719 18.9819 22.4663C19.046 22.5642 19.1074 22.6296 19.1947 22.692C19.2304 22.7175 19.275 22.746 19.322 22.7758C19.4423 22.8523 19.5924 22.9472 19.7195 23.0782C19.8111 23.1726 19.8792 23.2731 19.9454 23.3703C20.0017 23.4531 20.0546 23.5313 20.1195 23.6008C20.1856 23.6725 20.277 23.7484 20.365 23.8219C20.4737 23.9128 20.5763 23.9984 20.6568 24.093C20.8865 24.3619 20.8654 24.6259 20.8244 24.8731C20.7972 25.0359 20.72 25.4413 20.5866 25.6844C20.4785 25.8816 20.3396 25.9631 20.2654 26.0073C20.2636 26.0083 20.2614 26.0096 20.2596 26.0106C20.2332 26.0722 20.1937 26.2317 20.1799 26.288L20.1577 26.3781C20.0916 26.6503 20.009 26.9893 19.8968 27.2087C19.7512 27.4934 19.5306 27.6378 19.241 27.6378C18.9159 27.6378 18.7534 27.4599 18.6742 27.3107C18.5907 27.1534 18.5557 26.9547 18.5127 26.595C18.5041 26.5231 18.4951 26.4443 18.4858 26.3635C18.4586 26.1247 18.4276 25.8539 18.3959 25.6724C18.3585 25.457 18.3265 25.3985 18.288 25.3437C18.2689 25.3164 18.2445 25.2861 18.2166 25.251C18.1519 25.1698 18.0712 25.0685 17.999 24.935C17.8837 24.7202 17.8088 24.4576 17.7987 24.2322C17.7914 24.0696 17.8171 23.9341 17.8382 23.8253C17.8463 23.7836 17.8536 23.7445 17.8573 23.7122C17.8651 23.6465 17.8611 23.5998 17.8176 23.5269C17.7549 23.4216 17.6281 23.2883 17.5014 23.1952C17.4075 23.126 17.3064 23.074 17.2088 23.0235C17.1612 22.9988 17.1164 22.9755 17.0752 22.9523C16.9693 22.8925 16.8591 22.8173 16.7547 22.6908C16.6983 22.9829 16.6679 23.2843 16.6679 23.5925C16.6679 26.2015 18.7834 28.3243 21.3833 28.3243C23.9846 28.324 26.1008 26.201 26.1008 23.592ZM39.9994 21.8688C39.9748 23.7631 39.1949 25.5343 37.7439 26.9901L28.8731 35.8922C28.8047 35.9609 28.7116 35.9997 28.6145 35.9997C28.5174 35.9997 28.4246 35.9609 28.3559 35.8922L25.0002 32.5249L21.6443 35.8925C21.5729 35.9642 21.479 36 21.3857 36C21.2921 36 21.1983 35.9642 21.1271 35.8925L12.2557 26.9903C10.7928 25.5224 10.013 23.7359 10.0002 21.8241C9.98883 20.1158 10.5994 18.394 11.7194 16.9747C12.8414 15.553 14.3767 14.5591 16.0416 14.1769C17.8368 13.7647 19.6798 14.0762 21.3855 15.0769C23.0908 14.0762 24.9339 13.7652 26.7291 14.1777C27.4413 14.3413 28.1293 14.6172 28.7716 14.9898C30.4707 14.0396 32.2989 13.7685 34.0732 14.2072C35.722 14.6149 37.2347 15.6232 38.334 17.0452C39.4301 18.4634 40.0216 20.1764 39.9994 21.8688ZM29.9978 26.4708C32.9334 23.5251 32.3545 19.8086 30.4783 17.431C29.9641 16.7798 29.3309 16.2006 28.6099 15.7468C28.5849 15.7349 28.5616 15.7203 28.5397 15.7029C26.6282 14.5302 24.1165 14.2402 21.5778 15.817C21.4596 15.8904 21.3106 15.8904 21.1929 15.817C19.9637 15.0534 18.7406 14.7277 17.5889 14.7277C15.4289 14.7277 13.5205 15.8743 12.2929 17.4301C10.4164 19.8076 9.83702 23.5248 12.7731 26.4711L21.3856 35.1135L29.9978 26.4708ZM37.7557 17.495C36.0042 15.2286 32.812 13.7889 29.4729 15.4485C30.0563 15.8764 30.5894 16.3898 31.052 16.9758C32.1718 18.3945 32.7823 20.1167 32.771 21.8244C32.7582 23.7359 31.9783 25.5222 30.5152 26.9899L25.5173 32.0054L28.6144 35.1132L37.2268 26.4709C40.131 23.5564 39.5848 19.8629 37.7557 17.495Z" stroke="#01247E" stroke-width="0.4" mask="url(#path-2-outside-1_102_607)"/>
<path d="M32.1739 14.3223L28.913 15.2929L29.8913 16.2634L31.5217 18.5281L32.5 22.087L30.8696 25.9693L25 32.1164L28.587 35.3517L38.0435 26.2929L39.6739 22.734L39.0217 18.8517L36.087 15.2929L32.1739 14.3223Z" fill="#01247E"/>
</svg>
