<svg width="36" height="36" viewBox="0 0 36 36" fill="none" xmlns="http://www.w3.org/2000/svg">
<mask id="mask0_31_8519" style="mask-type:alpha" maskUnits="userSpaceOnUse" x="0" y="0" width="36" height="36">
<rect width="36" height="36" fill="#C4C4C4"/>
</mask>
<g mask="url(#mask0_31_8519)">
<path d="M14.3773 5.02462C14.8345 6.53004 13.9785 8.11918 12.4651 8.57387C10.9517 9.02887 9.3542 8.17717 8.89709 6.67177C8.43968 5.16635 9.2959 3.57721 10.8093 3.12252C12.3227 2.66752 13.9202 3.51922 14.3773 5.02462Z" fill="#01247E"/>
<path d="M18.7215 27.0657C19.0247 27.0067 19.2923 26.831 19.4661 26.5768C19.6401 26.3225 19.7061 26.0105 19.6503 25.7081C19.2732 23.7327 18.1055 20.5971 17.5954 18.666C17.5108 18.3484 17.3294 18.0645 17.0758 17.8536C16.8223 17.6426 16.5091 17.5154 16.1799 17.4891L15.975 17.4736C15.0734 17.4021 14.1718 17.3659 13.269 17.3152L13.6291 13.6658C13.8131 13.754 13.993 13.8475 14.177 13.9345C14.9272 14.2965 15.6799 14.6549 16.451 14.9728L16.6337 15.0493L16.634 15.0491C16.7583 15.1003 16.8908 15.1292 17.0254 15.1347C18.3658 15.1831 19.7105 15.1695 21.0595 15.0932C21.3225 15.0785 21.5735 14.9776 21.7733 14.8067C21.9731 14.6356 22.1107 14.4037 22.1644 14.1472C22.2422 13.8458 22.1869 13.5256 22.0126 13.2673C21.838 13.009 21.561 12.8371 21.2511 12.7945C20.0325 12.6648 17.7544 12.5636 17.7544 12.5636L13.4412 9.89015L13.4137 9.87722C13.1872 9.76797 12.9387 9.71119 12.6872 9.71094C12.3493 9.71094 9.0261 9.8212 8.93359 9.84072H8.93334C8.47083 9.8359 8.02233 9.99991 7.67299 10.3016L4.35134 13.2399L3.9742 13.5735L3.86589 13.8551L2.11243 18.4014C1.97304 18.7086 1.96285 19.0586 2.08415 19.3737C2.20519 19.6885 2.44804 19.942 2.75816 20.0781C3.44698 20.2832 3.99378 19.6887 4.33425 19.0281L6.16084 15.7004L7.51649 14.321L7.44616 17.8809C7.44616 17.9004 7.45533 17.9171 7.45533 17.9366C7.45533 17.9561 7.44744 17.9911 7.44616 18.0144L8.47564 25.5419L4.58116 32.3944H4.5809C4.45884 32.7678 4.53656 33.1774 4.7868 33.4811C5.03729 33.785 5.4259 33.9409 5.81784 33.895C6.21002 33.8492 6.55174 33.6079 6.72448 33.2548L11.7672 26.5463C11.8044 26.4636 11.8304 26.3762 11.8442 26.2867L11.8768 26.0803L12.0282 20.9967C13.1046 21.0097 14.2709 21.015 15.3381 21.0084C16.0009 22.7838 16.7277 25.0084 17.4633 26.4514H17.4636C17.579 26.6748 17.7638 26.855 17.9903 26.9655C18.2169 27.076 18.4732 27.111 18.7214 27.0654L18.7215 27.0657Z" fill="#01247E"/>
<path d="M27.4474 17.5615V23.019H21.9613V28.475H16.4749V33.9999H33.0003V17.5616L27.4474 17.5615Z" fill="#01247E"/>
</g>
</svg>
