<svg width="36" height="36" viewBox="0 0 36 36" fill="none" xmlns="http://www.w3.org/2000/svg">
<mask id="mask0_31_8527" style="mask-type:alpha" maskUnits="userSpaceOnUse" x="0" y="0" width="36" height="36">
<rect width="36" height="36" fill="#C4C4C4"/>
</mask>
<g mask="url(#mask0_31_8527)">
<path d="M29.7 1H6.3C5.58239 1 5 1.58583 5 2.30769V33.6923C5 34.4142 5.58239 35 6.3 35H29.7C30.4176 35 31 34.4142 31 33.6923V2.30769C31 1.58583 30.4176 1 29.7 1ZM10.2 6.23077H19.3C20.0176 6.23077 20.6 6.8166 20.6 7.53846C20.6 8.26032 20.0176 8.84615 19.3 8.84615H10.2C9.48239 8.84615 8.9 8.26032 8.9 7.53846C8.9 6.8166 9.48239 6.23077 10.2 6.23077ZM10.2 10.1538H19.3C20.0176 10.1538 20.6 10.7397 20.6 11.4615C20.6 12.1834 20.0176 12.7692 19.3 12.7692H10.2C9.48239 12.7692 8.9 12.1834 8.9 11.4615C8.9 10.7397 9.48239 10.1538 10.2 10.1538ZM8.9 19.3077C8.9 18.5858 9.48239 18 10.2 18H19.3C20.0176 18 20.6 18.5858 20.6 19.3077C20.6 20.0296 20.0176 20.6154 19.3 20.6154H10.2C9.48239 20.6154 8.9 20.0296 8.9 19.3077ZM21.0316 25.2635L18.4316 29.1866C18.2151 29.5129 17.8655 29.724 17.4781 29.7625C17.4351 29.7672 17.3925 29.7692 17.3501 29.7692C17.0068 29.7692 16.676 29.6326 16.4311 29.386L15.1311 28.0783C14.6236 27.5677 14.6236 26.7399 15.1311 26.2291C15.638 25.7186 16.4625 25.7186 16.9694 26.2291L17.1481 26.4083L18.8686 23.8125C19.2664 23.2109 20.0737 23.0481 20.6712 23.4497C21.2684 23.8508 21.4294 24.6628 21.0316 25.2635ZM25.8001 20.6154H23.2001C22.4825 20.6154 21.9001 20.0296 21.9001 19.3077C21.9001 18.5858 22.4825 18 23.2001 18H25.8001C26.5177 18 27.1001 18.5858 27.1001 19.3077C27.1001 20.0296 26.5177 20.6154 25.8001 20.6154ZM25.8001 16.6923H10.2001C9.48246 16.6923 8.90007 16.1065 8.90007 15.3846C8.90007 14.6628 9.48246 14.0769 10.2001 14.0769H25.8001C26.5177 14.0769 27.1001 14.6628 27.1001 15.3846C27.1001 16.1065 26.5177 16.6923 25.8001 16.6923ZM25.8001 12.7692H23.2001C22.4825 12.7692 21.9001 12.1834 21.9001 11.4615C21.9001 10.7397 22.4825 10.1538 23.2001 10.1538H25.8001C26.5177 10.1538 27.1001 10.7397 27.1001 11.4615C27.1001 12.1834 26.5177 12.7692 25.8001 12.7692ZM25.8001 8.84615H23.2001C22.4825 8.84615 21.9001 8.26032 21.9001 7.53846C21.9001 6.8166 22.4825 6.23077 23.2001 6.23077H25.8001C26.5177 6.23077 27.1001 6.8166 27.1001 7.53846C27.1001 8.26032 26.5177 8.84615 25.8001 8.84615Z" fill="#01247E"/>
</g>
</svg>
