<svg width="86" height="86" viewBox="0 0 86 86" fill="none" xmlns="http://www.w3.org/2000/svg">
<circle cx="43" cy="43" r="43" fill="#F3F6F8"/>
<path d="M57.2311 64.925H66.1491C67.1585 64.925 68 64.0772 68 63.0595V45.1953H57.231L57.2311 64.925Z" fill="#01247E"/>
<path d="M35.0776 56.0497V63.0598C35.0776 64.0771 35.9188 64.9253 36.9286 64.9253L57.8657 64.9249V45.1387H42.8739L35.0776 56.0497Z" fill="#01247E"/>
<path d="M45.5091 33.8327L42.4805 31.628C41.6393 31.0061 40.5172 31.2321 39.9002 32.0239L37.1517 35.8115C36.7589 35.0201 36.1983 34.3418 35.469 33.8327C33.0573 32.0803 29.6918 32.6453 27.8968 35.1329C25.4851 38.4681 26.4945 41.5211 27.7845 44.4605C24.5872 44.1213 21.4463 44.1213 19.0347 47.4567C17.2961 49.8873 17.8008 53.3358 20.1564 55.0887C20.8857 55.5974 21.6709 55.9365 22.568 56.0497L19.8196 59.8373C19.2026 60.6852 19.4267 61.8162 20.2124 62.438L23.241 64.6428C24.0821 65.2647 25.2043 65.0387 25.8213 64.2469L45.7889 36.4896C46.519 35.5854 46.3503 34.3984 45.5091 33.833L45.5091 33.8327ZM25.4853 51.9795C25.0925 52.545 24.4759 52.8841 23.859 52.9969C23.186 53.1101 22.569 52.9405 22.008 52.601C20.8864 51.8096 20.7181 50.2267 21.5033 49.0961C22.5691 47.6264 23.8031 47.1741 25.5417 47.1741C26.4392 47.1741 27.4486 47.2873 28.6826 47.4569H28.7385L25.4853 51.9795ZM34.2911 39.7121L31.0379 44.2347C31.0379 44.2347 31.0379 44.1784 30.982 44.1784C29.4115 40.8431 28.6822 39.0338 30.309 36.7727C30.8138 36.0945 31.599 35.6985 32.3842 35.6985C32.8889 35.6985 33.3936 35.8681 33.7865 36.1508C34.2912 36.5468 34.6276 37.1118 34.7399 37.7901C34.8522 38.4683 34.684 39.1466 34.2912 39.7121L34.2911 39.7121Z" fill="#01247E"/>
<path d="M57.3437 39.8814C60.0358 39.7118 62.1673 37.3939 61.9432 34.5673C61.719 31.9666 59.4752 30.0446 56.8954 30.0446H54.7079C53.7544 30.0446 52.9129 29.4227 52.7446 28.4617C52.4641 27.1616 53.4739 26.0874 54.6515 26.0874H57.0631C58.0166 26.0874 58.8018 26.7656 58.9701 27.6138C59.026 27.8398 59.2506 28.0661 59.4748 28.0661H61.3257C61.6622 28.0661 61.8867 27.7834 61.8304 27.4443C61.5499 25.0699 59.5871 23.2608 57.2309 23.1479V21.5087C57.2309 21.226 57.0067 21 56.7262 21H54.8753C54.5948 21 54.3706 21.226 54.3706 21.5087V23.1479C51.6784 23.3175 49.5469 25.6354 49.7711 28.4621C49.9953 31.0627 52.2391 32.9847 54.8189 32.9847H57.0622C58.2962 32.9847 59.2497 34.1153 58.9692 35.3591C58.8009 36.2637 57.9034 36.942 57.0058 36.942H54.6501C53.6966 36.942 52.9115 36.2637 52.7432 35.4155C52.6872 35.1895 52.4627 34.9632 52.2385 34.9632H50.3875C50.0511 34.9632 49.8265 35.2459 49.8828 35.5851C50.1634 37.9594 52.1262 39.7685 54.4823 39.8814V41.4643C54.4823 41.7471 54.7065 41.973 54.987 41.973H56.838C57.1185 41.973 57.3427 41.7471 57.3427 41.4643L57.3437 39.8814Z" fill="#01247E"/>
</svg>
