<svg width="20" height="18" viewBox="0 0 20 18" fill="none" xmlns="http://www.w3.org/2000/svg">
<mask id="mask0_1410_373" style="mask-type:alpha" maskUnits="userSpaceOnUse" x="0" y="0" width="20" height="18">
<rect width="20" height="18" fill="#C4C4C4"/>
</mask>
<g mask="url(#mask0_1410_373)">
<path d="M13.7092 1H7.29083C6.94848 1 6.62015 1.14752 6.37807 1.41011C6.136 1.67269 6 2.02883 6 2.40018V16.5333C6 16.6288 6.02701 16.722 6.07739 16.8003C6.12777 16.8787 6.19909 16.9383 6.28173 16.9713C6.36436 17.0043 6.45434 17.009 6.5395 16.9847C6.62467 16.9605 6.70093 16.9085 6.75798 16.8357L10.5 12.0652L14.242 16.8357C14.2991 16.9085 14.3753 16.9605 14.4605 16.9847C14.5457 17.009 14.6356 17.0043 14.7183 16.9713C14.8009 16.9383 14.8722 16.8786 14.9226 16.8003C14.973 16.722 15 16.6288 15 16.5333V2.40018C15 2.02883 14.864 1.67269 14.6219 1.41011C14.3798 1.14752 14.0515 1 13.7092 1ZM13.6574 6.15119L12.2769 7.55719L12.6318 9.57481C12.6433 9.64006 12.6374 9.7075 12.6149 9.76927C12.5924 9.83103 12.5541 9.88456 12.5045 9.9236C12.455 9.96265 12.3962 9.98559 12.3351 9.98976C12.274 9.99393 12.213 9.97915 12.1594 9.94715L10.5 8.95753L8.84064 9.94715C8.78697 9.97915 8.72602 9.99393 8.6649 9.98976C8.60378 9.98559 8.54502 9.96265 8.49548 9.9236C8.44593 9.88456 8.40765 9.83103 8.38511 9.76927C8.36257 9.7075 8.35669 9.64006 8.36817 9.57481L8.7231 7.55719L7.34263 6.15119C7.29799 6.10572 7.26619 6.04741 7.25096 5.98307C7.23573 5.91873 7.23769 5.85102 7.25661 5.78785C7.27554 5.72467 7.31064 5.66864 7.35783 5.6263C7.40502 5.58396 7.46234 5.55705 7.5231 5.54873L9.40181 5.29139L10.208 3.43282C10.2341 3.37271 10.2754 3.32189 10.3271 3.2863C10.3788 3.2507 10.4388 3.2318 10.5 3.2318C10.5612 3.2318 10.6212 3.2507 10.6729 3.2863C10.7246 3.32189 10.7659 3.37271 10.792 3.43282L11.5982 5.29139L13.4769 5.54873C13.5377 5.55705 13.595 5.58396 13.6422 5.6263C13.6894 5.66864 13.7245 5.72467 13.7434 5.78785C13.7623 5.85102 13.7643 5.91873 13.749 5.98307C13.7338 6.04741 13.702 6.10572 13.6574 6.15119H13.6574Z" fill="white"/>
<path d="M1 4.41025V14.4414C1.00019 14.5265 1.02498 14.6096 1.07117 14.68C1.11737 14.7504 1.18285 14.8048 1.2592 14.8363C1.33555 14.8678 1.41926 14.875 1.49956 14.8568C1.57986 14.8386 1.65306 14.796 1.70975 14.7344L4 12.2436V3.1333H2.23346C2.07146 3.13323 1.91104 3.16622 1.76136 3.23036C1.61168 3.29451 1.47568 3.38857 1.36113 3.50716C1.24658 3.62575 1.15573 3.76654 1.09376 3.9215C1.0318 4.07646 0.999937 4.24254 1 4.41025Z" fill="white"/>
<path d="M17.7665 3.1333H16V12.2436L18.2903 14.7344C18.3469 14.796 18.4201 14.8386 18.5004 14.8568C18.5807 14.875 18.6644 14.8678 18.7408 14.8363C18.8171 14.8048 18.8826 14.7504 18.9288 14.68C18.975 14.6096 18.9998 14.5265 19 14.4414V4.41025C19.0001 4.24254 18.9682 4.07646 18.9062 3.9215C18.8443 3.76654 18.7534 3.62575 18.6389 3.50716C18.5243 3.38857 18.3883 3.29451 18.2386 3.23036C18.089 3.16622 17.9285 3.13323 17.7665 3.1333Z" fill="white"/>
</g>
</svg>
