<svg width="20" height="18" viewBox="0 0 20 18" fill="none" xmlns="http://www.w3.org/2000/svg">
<mask id="mask0_1410_367" style="mask-type:alpha" maskUnits="userSpaceOnUse" x="0" y="0" width="20" height="18">
<rect width="20" height="18" fill="#C4C4C4"/>
</mask>
<g mask="url(#mask0_1410_367)">
<path d="M10 0C8.21997 0 6.47991 0.527841 4.99987 1.51677C3.51983 2.50571 2.36628 3.91131 1.68509 5.55585C1.0039 7.20038 0.82567 9.00998 1.17294 10.7558C1.5202 12.5016 2.37737 14.1053 3.63604 15.364C4.89471 16.6226 6.49836 17.4798 8.24419 17.8271C9.99002 18.1743 11.7996 17.9961 13.4442 17.3149C15.0887 16.6337 16.4943 15.4802 17.4832 14.0001C18.4722 12.5201 19 10.78 19 9C19 7.8181 18.7672 6.64778 18.3149 5.55585C17.8626 4.46392 17.1997 3.47177 16.364 2.63604C15.5282 1.80031 14.5361 1.13738 13.4442 0.685084C12.3522 0.232792 11.1819 0 10 0ZM8.2 5.4C8.37801 5.4 8.55201 5.45278 8.70002 5.55168C8.84802 5.65057 8.96338 5.79113 9.0315 5.95558C9.09961 6.12004 9.11744 6.301 9.08271 6.47558C9.04798 6.65016 8.96227 6.81053 8.8364 6.93639C8.71053 7.06226 8.55017 7.14798 8.37558 7.18271C8.201 7.21743 8.02004 7.19961 7.85559 7.13149C7.69113 7.06337 7.55057 6.94802 7.45168 6.80001C7.35279 6.65201 7.3 6.478 7.3 6.3C7.3 6.0613 7.39482 5.83239 7.56361 5.6636C7.73239 5.49482 7.96131 5.4 8.2 5.4ZM11.8 12.6C11.5613 12.6 11.3324 12.5052 11.1636 12.3364C10.9948 12.1676 10.9 11.9387 10.9 11.7C10.9 11.4613 10.9948 11.2324 11.1636 11.0636C11.3324 10.8948 11.5613 10.8 11.8 10.8C12.0387 10.8 12.2676 10.8948 12.4364 11.0636C12.6052 11.2324 12.7 11.4613 12.7 11.7C12.7 11.9387 12.6052 12.1676 12.4364 12.3364C12.2676 12.5052 12.0387 12.6 11.8 12.6ZM13.33 6.939L7.93 12.339C7.75783 12.4864 7.53636 12.5635 7.30985 12.5547C7.08335 12.546 6.86848 12.4521 6.7082 12.2918C6.54791 12.1315 6.45401 11.9167 6.44526 11.6901C6.43651 11.4636 6.51356 11.2422 6.661 11.07L12.061 5.67C12.2332 5.52256 12.4546 5.44551 12.6812 5.45426C12.9077 5.46301 13.1225 5.55691 13.2828 5.71719C13.4431 5.87748 13.537 6.09234 13.5457 6.31885C13.5545 6.54536 13.4774 6.76683 13.33 6.939Z" fill="white"/>
</g>
</svg>
