<svg width="13" height="13" viewBox="0 0 13 13" fill="none" xmlns="http://www.w3.org/2000/svg">
<path d="M1.89903 0.94717L1.89903 0.947171L6.50002 5.54817L11.101 0.947216C11.101 0.947201 11.101 0.947186 11.101 0.947171C11.1635 0.884669 11.2377 0.835087 11.3193 0.801256C11.401 0.767417 11.4885 0.75 11.5769 0.75C11.6653 0.75 11.7529 0.767417 11.8345 0.801256C11.9161 0.835079 11.9903 0.884645 12.0528 0.947125C12.0528 0.947155 12.0528 0.947186 12.0529 0.947216L11.8761 1.12395C11.9153 1.16322 11.9465 1.20985 11.9678 1.26118C11.9891 1.3125 12 1.36752 12 1.42307C12 1.47863 11.9891 1.53364 11.9678 1.58497C11.9465 1.63629 11.9153 1.68293 11.8761 1.7222L1.89903 0.94717ZM1.89903 0.94717L1.89855 0.946698C1.77222 0.821039 1.60121 0.750606 1.42302 0.750845C1.24484 0.751084 1.07402 0.821974 0.94802 0.947971C0.822023 1.07397 0.751133 1.24479 0.750895 1.42297C0.750656 1.60116 0.821088 1.77217 0.946747 1.8985L0.946747 1.8985L0.94722 1.89898L5.54822 6.49997L0.947276 11.1009C0.884748 11.1634 0.835142 11.2376 0.801292 11.3193C0.767443 11.4009 0.750014 11.4885 0.75 11.5769C0.749986 11.6653 0.767388 11.7528 0.801211 11.8345C0.835034 11.9162 0.884616 11.9904 0.947126 12.0529C1.00964 12.1154 1.08385 12.165 1.16552 12.1988C1.2472 12.2326 1.33474 12.25 1.42314 12.25C1.51154 12.25 1.59907 12.2326 1.68074 12.1987C1.7624 12.1649 1.8366 12.1153 1.89908 12.0527L6.50002 7.45178L11.101 12.0528L11.1014 12.0531C11.2277 12.1789 11.3987 12.2495 11.577 12.2493C11.7553 12.2492 11.9262 12.1783 12.0523 12.0522C12.1783 11.9261 12.2492 11.7552 12.2494 11.5769C12.2496 11.3987 12.179 11.2276 12.0532 11.1013L12.0528 11.101L7.45183 6.49997L12.0528 1.89902M1.89903 0.94717L12.0528 1.89902M12.0528 1.89902C12.0528 1.89901 12.0528 1.89899 12.0528 1.89898L12.0528 1.89902Z" fill="#ED3030" stroke="#ED3030" stroke-width="0.5"/>
</svg>
