<svg width="12" height="10" viewBox="0 0 12 10" fill="none" xmlns="http://www.w3.org/2000/svg">
<path d="M11.0032 0.000827589C10.7538 0.00950986 10.5174 0.124393 10.344 0.32108C7.99557 2.90126 6.21741 5.04177 4.00751 7.50586L1.58077 5.25599C1.48486 5.16648 1.37382 5.09855 1.25398 5.05609C1.13413 5.01363 1.00783 4.99747 0.882281 5.00852C0.756736 5.01957 0.634406 5.05763 0.522277 5.12051C0.410147 5.18339 0.310414 5.26987 0.228772 5.37501C0.14713 5.48015 0.0851782 5.6019 0.0464543 5.73329C0.00773032 5.86468 -0.00700739 6.00313 0.00308246 6.14077C0.0131723 6.2784 0.0478921 6.41251 0.10526 6.53543C0.162627 6.65836 0.241518 6.76768 0.337429 6.85718L3.45326 9.74752C3.63704 9.91993 3.87348 10.0098 4.11518 9.99915C4.35687 9.98849 4.58595 9.87808 4.75651 9.69004C7.3329 6.85953 9.17044 4.59436 11.7072 1.80729C11.847 1.65932 11.9425 1.46829 11.981 1.2595C12.0195 1.05071 11.9992 0.834027 11.9229 0.638142C11.8465 0.442257 11.7177 0.276425 11.5535 0.162614C11.3892 0.0488026 11.1973 -0.00762268 11.0032 0.000827589Z" fill="#42A306"/>
</svg>
