<svg width="19" height="19" viewBox="0 0 19 19" fill="none" xmlns="http://www.w3.org/2000/svg">
<path d="M18.4869 5.13525C17.2611 5.13525 16.0856 4.64826 15.2188 3.78159C14.3521 2.91474 13.8651 1.73926 13.8651 0.513492C13.8651 0.37737 13.811 0.246627 13.7147 0.150446C13.6185 0.0540857 13.4878 0 13.3516 0H5.64872C5.36502 0 5.13524 0.22979 5.13524 0.513483C5.13524 1.73926 4.64825 2.91473 3.78158 3.78158C2.91473 4.64825 1.73926 5.13524 0.513483 5.13524C0.229781 5.13524 0 5.36503 0 5.64872V6.57307C0.00913438 9.37496 0.925956 12.0981 2.61331 14.3351C4.30066 16.572 6.66752 18.2016 9.35887 18.9798C9.45093 19.007 9.54908 19.007 9.64113 18.9798C12.3327 18.2014 14.6994 16.5717 16.3867 14.3351C18.074 12.0983 18.9909 9.37501 19 6.57307V5.64872C19 5.5126 18.9459 5.38185 18.8496 5.28567C18.7534 5.18931 18.6226 5.13523 18.4865 5.13523L18.4869 5.13525ZM17.9734 6.57308C17.9648 9.12692 17.1372 11.6107 15.6119 13.6593C14.0866 15.7079 11.9444 17.2127 9.50001 17.953C7.05575 17.2127 4.91356 15.7077 3.3881 13.6593C1.86265 11.6109 1.03523 9.12706 1.02661 6.57308V6.13911C2.34197 6.01911 3.57366 5.44204 4.50769 4.50802C5.44171 3.57399 6.01879 2.3423 6.13878 1.02694H12.861C12.981 2.3423 13.558 3.57399 14.492 4.50802C15.4261 5.44204 16.6578 6.01912 17.9731 6.13911L17.9734 6.57308Z" fill="#002868"/>
<path d="M11.2974 7.72649V6.93304C11.2974 6.29095 10.955 5.6976 10.3988 5.37646C9.84272 5.0555 9.15748 5.0555 8.60136 5.37646C8.04523 5.69759 7.70277 6.29095 7.70277 6.93304V7.72649C7.34403 7.78703 7.01841 7.97276 6.78342 8.25038C6.54844 8.52817 6.4193 8.8801 6.41895 9.24388V12.3252C6.41895 12.7337 6.58121 13.1256 6.87011 13.4145C7.159 13.7034 7.5509 13.8657 7.95943 13.8657H11.0407C11.4493 13.8657 11.8412 13.7034 12.1301 13.4145C12.419 13.1256 12.5812 12.7337 12.5812 12.3252V9.24388C12.5809 8.88011 12.4517 8.52819 12.2167 8.25038C11.9818 7.97277 11.6561 7.78706 11.2974 7.72649H11.2974ZM8.72979 6.93304C8.72979 6.65776 8.87665 6.40361 9.11504 6.26587C9.35324 6.12832 9.647 6.12832 9.88519 6.26587C10.1236 6.4036 10.2704 6.65775 10.2704 6.93304V7.70338H8.72977L8.72979 6.93304ZM11.5543 12.3251C11.5543 12.4612 11.5002 12.5918 11.4038 12.6881C11.3075 12.7845 11.1769 12.8386 11.0408 12.8386H7.95948C7.67596 12.8386 7.446 12.6086 7.446 12.3251V9.24379C7.446 8.96027 7.67597 8.73031 7.95948 8.73031H11.0408C11.1769 8.73031 11.3075 8.7844 11.4038 8.88076C11.5002 8.97712 11.5543 9.10768 11.5543 9.2438V12.3251Z" fill="#002868"/>
<path d="M9.50021 9.5332C9.27454 9.53553 9.06123 9.63672 8.91653 9.8101C8.772 9.98347 8.71074 10.2115 8.74889 10.4339C8.78704 10.6563 8.92101 10.8509 9.11516 10.966V11.6516C9.11516 11.8642 9.28746 12.0367 9.50023 12.0367C9.71301 12.0367 9.88531 11.8642 9.88531 11.6516V10.966C10.0795 10.8508 10.2134 10.6563 10.2516 10.4339C10.2897 10.2115 10.2285 9.98345 10.0839 9.8101C9.93922 9.63673 9.72591 9.53553 9.50026 9.5332H9.50021Z" fill="#002868"/>
</svg>
