<svg width="13" height="13" viewBox="0 0 13 13" fill="none" xmlns="http://www.w3.org/2000/svg">
<path d="M6.50002 5.54817L1.89903 0.947171L1.89903 0.94717L1.89855 0.946698C1.77222 0.821039 1.60121 0.750606 1.42302 0.750845C1.24484 0.751084 1.07402 0.821974 0.94802 0.947971C0.822023 1.07397 0.751133 1.24479 0.750895 1.42297C0.750656 1.60116 0.821088 1.77217 0.946747 1.8985L0.946747 1.8985L0.94722 1.89898L5.54822 6.49997L0.947275 11.1009C0.947257 11.1009 0.947238 11.101 0.94722 11.101C0.884719 11.1634 0.835132 11.2376 0.801292 11.3193C0.767443 11.4009 0.750014 11.4885 0.75 11.5769C0.749986 11.6653 0.767388 11.7528 0.801211 11.8345C0.835034 11.9162 0.884616 11.9904 0.947125 12.0529L0.947127 12.0529C1.00964 12.1154 1.08385 12.165 1.16552 12.1988L1.26117 11.9678L1.16552 12.1988C1.2472 12.2326 1.33474 12.25 1.42314 12.25C1.51154 12.25 1.59907 12.2326 1.68074 12.1987C1.76238 12.1649 1.83655 12.1153 1.89903 12.0528C1.89905 12.0528 1.89907 12.0527 1.89908 12.0527L6.50003 7.45178L11.101 12.0528L11.1014 12.0531C11.2277 12.1789 11.3987 12.2495 11.577 12.2493C11.7553 12.2492 11.9262 12.1783 12.0523 12.0522C12.1783 11.9261 12.2492 11.7552 12.2494 11.5769C12.2496 11.3987 12.179 11.2276 12.0532 11.1013L12.0528 11.101L7.45183 6.49997L12.0528 1.89902C12.0528 1.89901 12.0528 1.89899 12.0528 1.89898C12.1153 1.8365 12.1649 1.76231 12.1987 1.68067C12.2326 1.599 12.25 1.51147 12.25 1.42307C12.25 1.33468 12.2326 1.24714 12.1987 1.16548C12.1649 1.08381 12.1153 1.00962 12.0528 0.947124M12.0528 0.947124C12.0528 0.947155 12.0528 0.947186 12.0529 0.947217L11.8761 1.12395L12.0528 0.947124Z" fill="#ED3030" stroke="#ED3030" stroke-width="0.5"/>
</svg>
