<svg width="23" height="28" viewBox="0 0 23 28" fill="none" xmlns="http://www.w3.org/2000/svg">
<path d="M11.3579 16.0995C7.8899 16.0995 5.05908 13.2833 5.05908 9.83295C5.05908 6.3827 7.88977 3.56641 11.3579 3.56641C14.8261 3.56641 17.6568 6.38258 17.6568 9.83295C17.6568 13.2828 14.8256 16.0995 11.3579 16.0995ZM11.3579 4.97462C8.6684 4.97462 6.47442 7.15722 6.47442 9.83307C6.47442 12.5089 8.66828 14.6915 11.3579 14.6915C14.0476 14.6915 16.2414 12.5089 16.2414 9.83307C16.2414 7.15722 14.0476 4.97462 11.3579 4.97462Z" fill="#002868"/>
<path d="M22.8942 24.1263L18.1524 16.5924C18.6481 16.4515 19.1432 16.2403 19.4972 15.7477C19.9218 15.1141 19.9218 14.3396 19.8512 13.6352C19.8512 13.2128 19.7806 12.8607 19.8512 12.5793C19.9218 12.3681 20.2052 12.0159 20.4175 11.7345C20.842 11.1711 21.4083 10.6078 21.4083 9.76299C21.4083 8.91817 20.9126 8.3549 20.4175 7.79149C20.2052 7.51006 19.9218 7.22814 19.8512 6.94671C19.7806 6.66529 19.7806 6.31313 19.8512 5.89076C19.9218 5.18645 19.9218 4.41188 19.4972 3.77831C19.0016 3.14473 18.2942 2.93354 17.5862 2.79259C17.2323 2.72236 16.8077 2.5814 16.5954 2.44044C16.3832 2.29948 16.1709 1.94732 15.9586 1.59566C15.6046 1.03231 15.1801 0.328522 14.4016 0.116787C13.6936 -0.094407 12.9862 0.18702 12.3494 0.398215C11.9954 0.539175 11.5709 0.679643 11.288 0.679643C11.0051 0.679643 10.6512 0.538684 10.2266 0.398215C9.58975 0.116787 8.88178 -0.165132 8.17442 0.116787C7.39589 0.327981 6.97134 1.03227 6.61741 1.59566C6.40512 1.94781 6.19284 2.22924 5.98056 2.44044C5.76828 2.5814 5.34371 2.72187 4.98976 2.79259C4.28182 2.93355 3.57441 3.14474 3.07875 3.77831C2.65418 4.4119 2.65418 5.1864 2.72478 5.89076C2.72478 6.31314 2.79538 6.6653 2.72478 6.94671C2.65419 7.15791 2.37081 7.51006 2.15853 7.79149C1.73397 8.35484 1.16773 8.91817 1.16773 9.76299C1.16773 10.5375 1.66338 11.1711 2.15853 11.7345C2.37081 12.0159 2.65418 12.2978 2.72478 12.5793C2.79538 12.8607 2.79538 13.2128 2.72478 13.6352C2.65419 14.3395 2.65418 15.1141 3.07875 15.7477C3.50331 16.311 4.14015 16.5222 4.77744 16.6632L0.106264 24.1269C-0.0354215 24.338 -0.0354215 24.62 0.106264 24.8312C0.24795 25.0424 0.460232 25.1833 0.743111 25.1833L3.78611 24.9721L5.20146 27.6478C5.34314 27.859 5.55542 28 5.8383 28C6.12118 28 6.33396 27.859 6.47515 27.6478L11.5703 19.6204L16.5243 27.5767C16.666 27.7879 16.8783 27.9288 17.1612 27.9288C17.4441 27.9288 17.6568 27.7879 17.798 27.5767L19.2134 24.901L22.2564 25.1121C22.5393 25.1121 22.752 24.9712 22.8932 24.76C23.0354 24.6195 23.0354 24.3375 22.8942 24.1263ZM4.21006 13.7055C4.21006 13.2124 4.28066 12.6495 4.13947 12.1564C3.99778 11.6633 3.64381 11.241 3.29034 10.8893C3.00746 10.5372 2.65349 10.1148 2.65349 9.83335C2.65349 9.55193 3.00746 9.12904 3.29034 8.77739C3.6443 8.355 3.99827 8.00285 4.13947 7.51025C4.28115 7.01714 4.28115 6.45429 4.21006 5.96122C4.21006 5.4681 4.13946 4.97549 4.28066 4.7643C4.42234 4.55311 4.9175 4.41215 5.34205 4.34191C5.83771 4.20095 6.40345 4.06048 6.82855 3.77856C7.25311 3.49714 7.53649 3.00402 7.81935 2.58165C8.10223 2.15926 8.31501 1.73687 8.59789 1.66616H8.73957C9.02245 1.66616 9.37642 1.80712 9.73037 1.94759C10.226 2.15878 10.7212 2.36998 11.2874 2.36998C11.8536 2.36998 12.3488 2.15878 12.8444 1.94759C13.269 1.80663 13.6935 1.59543 13.9769 1.66616C14.2598 1.73639 14.4725 2.15927 14.7554 2.58165C15.0383 3.00404 15.3217 3.49714 15.7462 3.77856C16.1708 4.05999 16.737 4.20095 17.2327 4.34191C17.7284 4.48287 18.1529 4.55311 18.2941 4.7643C18.4358 4.97549 18.4358 5.46861 18.3647 5.96122C18.3647 6.45433 18.2941 7.01718 18.4353 7.51025C18.577 8.00336 18.931 8.42574 19.2844 8.77739C19.5673 9.12954 19.9213 9.55193 19.9213 9.83335C19.9213 10.1148 19.5673 10.5377 19.2844 10.8893C18.9305 11.3117 18.5765 11.6638 18.4353 12.1564C18.2936 12.6496 18.2936 13.2124 18.3647 13.7055C18.3647 14.1986 18.4353 14.6912 18.2941 14.9024C18.1524 15.1136 17.6573 15.2545 17.2327 15.3248C16.7371 15.4657 16.1713 15.6062 15.7462 15.8881C15.3217 16.1696 15.0383 16.6627 14.7554 17.085C14.4726 17.5074 14.2598 17.9298 13.9769 18.0005C13.7646 18.0708 13.269 17.8596 12.8444 17.7191C12.4904 17.5781 12.0659 17.4377 11.7119 17.367C11.5702 17.367 11.429 17.2967 11.2874 17.2967C10.7211 17.2967 10.226 17.5079 9.73034 17.7191C9.30577 17.8601 8.88121 18.0713 8.59785 18.0005C8.31497 17.9303 8.10219 17.5074 7.81931 17.085C7.53644 16.6627 7.25306 16.1696 6.82851 15.8881C6.40396 15.6067 5.83771 15.4657 5.34202 15.3248C4.84632 15.1838 4.42181 15.1136 4.28062 14.9024C4.13942 14.6912 4.21006 14.1986 4.21006 13.7055ZM5.97939 25.8162L4.918 23.9149C4.77631 23.7037 4.49343 23.5628 4.28115 23.5628L2.0873 23.6335L6.19216 17.1556C6.33384 17.2965 6.54613 17.5779 6.68781 17.8599C7.04178 18.4232 7.46635 19.127 8.24483 19.3387C8.45711 19.409 8.5988 19.409 8.81108 19.409C9.30673 19.409 9.87248 19.1978 10.2976 18.9866L5.97939 25.8162ZM18.8602 23.4926C18.5773 23.4926 18.2939 23.6336 18.2233 23.8448L17.1619 25.746L13.0571 19.268C13.4816 19.409 13.9773 19.4792 14.4724 19.3382C15.2509 19.1271 15.6755 18.4228 16.0294 17.8594C16.2417 17.5072 16.454 17.2258 16.6663 17.0146C16.7369 16.9444 16.8079 16.9444 16.8785 16.9444L21.1252 23.6334L18.8602 23.4926Z" fill="#002868"/>
</svg>
