<svg width="34" height="30" viewBox="0 0 34 30" fill="none" xmlns="http://www.w3.org/2000/svg">
<path d="M0.932565 14.145L3.10552 16.1295L3.10835 16.1579C3.13894 16.4655 3.16967 16.7744 3.20019 17.112L3.20001 17.1121L3.20092 17.1181C4.25985 24.088 10.2487 29.1 17.0657 29.1C17.7618 29.1 18.4893 29.0335 19.1826 28.9342L19.1836 28.934C26.0702 27.8765 31.1524 21.9474 31.1618 15.0467L33.0151 14.7632L33.2223 14.7315L33.0673 14.5904L30.9575 12.6694C29.7171 5.12007 22.5801 -0.0732204 15.0139 1.05359L15.0132 1.05371C8.68605 2.04543 3.73782 7.31574 3.14153 13.6541L0.985402 13.9723L0.77705 14.003L0.932565 14.145ZM3.87471 14.4003L3.94825 14.388L3.95744 14.3141L3.99021 14.0504L3.99036 14.0504L3.99074 14.045C4.41468 7.92891 9.11059 2.82615 15.1749 1.91041L15.1751 1.91038C21.9124 0.880464 28.2407 5.20269 29.9326 11.6682L27.5473 9.51482L27.4569 9.43325L27.3945 9.53772L25.7378 12.3079C24.43 8.06884 20.2447 5.34228 15.769 6.06299C12.0484 6.62987 9.05863 9.4621 8.29444 13.1608C8.29442 13.1609 8.2944 13.161 8.29438 13.1611L8.19597 13.6218L8.16602 13.762L8.30795 13.7417L9.25238 13.6063L6.59439 18.1327L2.69852 14.5971L3.87471 14.4003ZM23.6185 16.2132L25.2319 15.9689C24.8221 19.5895 21.9894 22.5539 18.3648 23.1008L18.3647 23.1008C16.2221 23.4266 14.0479 22.9055 12.2956 21.6034L12.236 21.6836L12.2956 21.6034C10.5425 20.3008 9.37425 18.3797 9.04951 16.2316C9.04121 16.1732 9.0331 16.12 9.02558 16.0707C9.00415 15.9301 8.9875 15.8209 8.98509 15.7126L10.778 12.6719L10.8841 12.4919L10.6774 12.5222L9.25266 12.7307C10.1374 9.67857 12.7027 7.40063 15.865 6.9199L15.8654 6.91984C20.235 6.23767 24.2484 9.0518 25.108 13.361L23.5174 16.0636L23.4108 16.2446L23.6185 16.2132ZM30.305 14.6875L30.3042 14.6874L30.3045 14.6998C30.4676 21.3063 25.6417 27.0632 19.1204 28.0773C11.9496 29.1561 5.20168 24.1882 4.08958 16.9962L6.68233 19.3522L6.77372 19.4352L6.83595 19.3286L8.27848 16.8564C8.72582 19.0163 9.96157 20.9452 11.7495 22.2584C13.6764 23.6912 16.0689 24.2913 18.4607 23.9247C22.7129 23.2915 25.9016 19.7263 26.1347 15.462L26.1674 15.068L26.1777 14.9429L26.0535 14.9608L25.1107 15.0959L27.6681 10.7997L31.3617 14.1342L30.4228 14.2688L30.3452 14.2799L30.3375 14.3579L30.305 14.6875Z" fill="#002868" stroke="#002868" stroke-width="0.2"/>
</svg>
