<svg width="176" height="32" viewBox="0 0 176 32" fill="none" xmlns="http://www.w3.org/2000/svg">
<path d="M52.9547 28.3869C54.6099 28.3869 56.0351 28.0311 57.2306 27.3196C58.4336 26.608 59.357 25.6126 60.0007 24.3333C60.652 23.054 60.9777 21.5665 60.9777 19.8708C60.9777 18.1752 60.652 16.6877 60.0007 15.4084C59.357 14.1291 58.4336 13.1337 57.2306 12.4221C56.0351 11.7105 54.6099 11.3547 52.9547 11.3547C51.2995 11.3547 49.8704 11.7105 48.6673 12.4221C47.4719 13.1337 46.5485 14.1291 45.8972 15.4084C45.2535 16.6877 44.9316 18.1752 44.9316 19.8708C44.9316 21.5665 45.2535 23.054 45.8972 24.3333C46.5485 25.6126 47.4719 26.608 48.6673 27.3196C49.8704 28.0311 51.2995 28.3869 52.9547 28.3869ZM52.9547 25.4801C51.3838 25.4574 50.2037 24.9426 49.4144 23.9358C48.6328 22.9291 48.242 21.5741 48.242 19.8708C48.242 18.1676 48.6328 16.8013 49.4144 15.7718C50.2037 14.7422 51.3838 14.2389 52.9547 14.2616C54.5332 14.2843 55.7133 14.799 56.4949 15.8058C57.2765 16.8126 57.6673 18.1676 57.6673 19.8708C57.6673 21.5741 57.2765 22.9404 56.4949 23.9699C55.7133 24.9994 54.5332 25.5028 52.9547 25.4801Z" fill="#01247E"/>
<path d="M63.2723 28.0463H66.4447V17.1457L73.6401 28.0463H76.8126V11.6954H73.6401V22.596L66.4447 11.6954H63.2723V28.0463Z" fill="#01247E"/>
<path d="M152.376 28.3869C153.71 28.3869 154.882 28.122 155.894 27.5921C156.905 27.0546 157.694 26.3014 158.261 25.3325C158.828 24.3635 159.112 23.2243 159.112 21.9147V11.6954H155.94V21.892C155.94 22.596 155.782 23.2167 155.468 23.7542C155.154 24.2916 154.729 24.7155 154.192 25.0259C153.656 25.3287 153.051 25.4801 152.376 25.4801C151.717 25.4801 151.116 25.3325 150.572 25.0373C150.035 24.7345 149.606 24.3143 149.284 23.7769C148.97 23.2394 148.813 22.6111 148.813 21.892V11.6954L145.641 11.7181V21.9147C145.641 23.2243 145.924 24.3635 146.491 25.3325C147.058 26.3014 147.848 27.0546 148.859 27.5921C149.871 28.122 151.043 28.3869 152.376 28.3869Z" fill="#01247E"/>
<path d="M162.321 28.0463H165.447V20.5975L172.045 28.0463H175.999L168.643 19.7573L175.562 11.6954H171.746L165.447 19.235V11.6954H162.321V28.0463Z" fill="#01247E"/>
<path d="M87.2712 28.561C88.8651 28.561 90.2482 28.2204 91.4207 27.5391C92.5931 26.8502 93.5011 25.9002 94.1448 24.689C94.7885 23.4778 95.1103 22.0888 95.1103 20.5218C95.1103 20.484 95.1065 20.3401 95.0988 20.0903C95.0912 19.8405 95.0797 19.6664 95.0644 19.568H89.1103V21.9525H91.731C91.4781 23.247 90.9724 24.1932 90.2138 24.7912C89.4628 25.3892 88.5509 25.6769 87.4781 25.6542C85.9072 25.6315 84.7271 25.1167 83.9379 24.1099C83.1562 23.1031 82.7654 21.7481 82.7654 20.0449C82.7654 18.3417 83.1562 16.9753 83.9379 15.9458C84.7271 14.9163 85.9072 14.4129 87.4781 14.4356C88.5356 14.4432 89.4015 14.7346 90.0758 15.31C90.7578 15.8777 91.2482 16.6385 91.5471 17.5923L94.7425 17.1381C94.3287 15.3516 93.5126 13.9701 92.2942 12.9936C91.0758 12.0171 89.4015 11.5288 87.2712 11.5288C85.8306 11.5288 84.5164 11.8619 83.3287 12.528C82.1486 13.1942 81.206 14.1631 80.5011 15.4349C79.8037 16.699 79.4551 18.2357 79.4551 20.0449C79.4551 21.4302 79.662 22.6527 80.0758 23.7125C80.4972 24.7723 81.0681 25.6617 81.7884 26.3809C82.5164 27.1 83.3517 27.645 84.2942 28.016C85.2367 28.3793 86.2291 28.561 87.2712 28.561Z" fill="#D0142C"/>
<path d="M95.8156 28.2204H99.034L100.08 24.8139H106.31L107.379 28.2204H110.597L105.54 11.8695H100.873L95.8156 28.2204ZM100.965 21.9298L103.172 14.7649L105.413 21.9298H100.965Z" fill="#D0142C"/>
<path d="M112.657 28.2204H115.577V18.4552L120.382 28.2204H121.485L126.29 18.4552V28.2204H129.209V11.8695H126.405L120.933 22.7246L115.462 11.8695H112.657V28.2204Z" fill="#D0142C"/>
<path d="M132.436 28.2204H143.24V25.3362H135.562V21.135H141.861V18.2508H135.562V14.7536H143.24V11.8695H132.436V28.2204Z" fill="#D0142C"/>
<path d="M8.23994 12.9607C8.79904 11.2402 14.2968 6.76713 17.2414 4.12915C19.8133 6.53774 25.6838 10.8962 26.2429 12.9607C26.5422 14.0658 26.5784 14.9105 26.1311 15.828C25.6567 16.8013 24.8611 17.7984 24.0065 18.2366C22.8883 18.8101 20.4283 18.466 18.751 18.3513C18.4697 18.3321 19.4528 22.1498 19.976 24.1811L19.981 24.2008L20.8987 21.6775L32.393 16.7456L30.3032 28.9033H4.13888L2.08984 16.8603H3.09622L13.5842 21.6775L14.7255 24.2008C15.061 22.3274 16.2114 18.3212 15.8437 18.3513C13.0482 18.5807 12.7127 18.5807 11.2591 18.2366C9.93356 17.9229 8.98897 16.7063 8.5754 15.9427C8.0163 14.9105 8.02485 13.6225 8.23994 12.9607Z" fill="#01247E"/>
<path d="M30.3031 29.9355H4.17969V32.0001H30.3031V29.9355Z" fill="#D0142C"/>
<ellipse cx="2.08988" cy="16.5162" rx="2.08988" ry="2.06451" fill="#01247E"/>
<ellipse cx="32.3926" cy="16.5162" rx="2.08988" ry="2.06451" fill="#01247E"/>
<ellipse cx="17.2413" cy="2.58064" rx="2.61234" ry="2.58064" fill="#01247E"/>
</svg>
