<svg width="162" height="71" viewBox="0 0 162 71" fill="none" xmlns="http://www.w3.org/2000/svg">
<path d="M44.7175 27.4203C42.2679 27.4203 40.3743 26.6727 39.0367 25.1775C37.6991 23.6823 37.0303 21.5614 37.0303 18.8148C37.0303 16.1657 37.691 14.0855 39.0125 12.574C40.3501 11.0463 42.1874 10.2825 44.5242 10.2825C46.9738 10.2825 48.8835 11.0219 50.2534 12.5009C51.6232 13.9798 52.3081 16.0438 52.3081 18.6929C52.3081 21.4395 51.6393 23.5848 50.3017 25.1288C48.9802 26.6565 47.1188 27.4203 44.7175 27.4203ZM44.6934 13.6954C42.5983 13.6954 41.5508 15.4181 41.5508 18.8636C41.5508 20.505 41.7522 21.7239 42.1551 22.5203C42.6547 23.5117 43.4927 24.0074 44.6692 24.0074C46.7481 24.0074 47.7876 22.3334 47.7876 18.9855C47.7876 17.1327 47.5378 15.7919 47.0382 14.9631C46.5548 14.118 45.7731 13.6954 44.6934 13.6954Z" fill="#BF0A30"/>
<path d="M64.5735 12.2571L68.8281 22.6909V15.475C68.8281 14.3861 68.6186 13.8417 68.1996 13.8417C68.0868 13.8417 67.9175 13.8742 67.6919 13.9392C67.4824 13.9879 67.3213 14.0123 67.2084 14.0123C66.87 14.0123 66.5799 13.8579 66.3382 13.5491C66.1126 13.2404 65.9998 12.8584 65.9998 12.4034C65.9998 11.8671 66.1529 11.4364 66.4591 11.1113C66.7653 10.7863 67.1682 10.6238 67.6677 10.6238C67.9256 10.6238 68.3688 10.6644 68.9973 10.7457C69.6258 10.8269 70.1818 10.8675 70.6653 10.8675C71.1004 10.8675 71.6081 10.835 72.1883 10.77C73.0585 10.6725 73.5984 10.6238 73.8079 10.6238C74.3236 10.6238 74.7426 10.7863 75.0649 11.1113C75.3873 11.4364 75.5484 11.8671 75.5484 12.4034C75.5484 12.8584 75.4195 13.2404 75.1616 13.5491C74.9038 13.8579 74.5895 14.0123 74.2189 14.0123C74.0738 14.0123 73.8804 13.9879 73.6387 13.9392C73.3969 13.8742 73.2116 13.8417 73.0827 13.8417C72.7604 13.8417 72.5509 14.0448 72.4542 14.4511C72.4219 14.6137 72.4058 14.9549 72.4058 15.475V25.3969C72.4058 26.4696 71.9707 27.0059 71.1004 27.0059C70.9393 27.0059 70.6895 26.9977 70.351 26.9815C70.0287 26.949 69.787 26.9327 69.6258 26.9327C69.6097 26.9327 69.2149 26.949 68.4413 26.9815C68.4413 26.9815 68.264 26.9815 67.9095 26.9815C67.4421 26.9815 67.0956 26.8677 66.87 26.6402C66.7411 26.5102 66.5558 26.1608 66.314 25.5919L61.6485 14.8656V22.2278C61.6485 23.3329 61.858 23.8855 62.277 23.8855C62.3898 23.8855 62.559 23.8611 62.7846 23.8123C63.0264 23.7473 63.2037 23.7148 63.3165 23.7148C63.6549 23.7148 63.9369 23.8692 64.1625 24.178C64.4043 24.4868 64.5252 24.8687 64.5252 25.3238C64.5252 26.5102 63.9611 27.1034 62.833 27.1034C62.5107 27.1034 61.9788 27.0546 61.2375 26.9571C60.7379 26.8921 60.2383 26.8596 59.7387 26.8596C59.3197 26.8596 58.7557 26.9002 58.0466 26.9815C57.3375 27.0628 56.8862 27.1034 56.6928 27.1034C55.5164 27.1034 54.9282 26.5102 54.9282 25.3238C54.9282 24.8687 55.049 24.4868 55.2908 24.178C55.5486 23.8692 55.8629 23.7148 56.2335 23.7148C56.3786 23.7148 56.572 23.7473 56.8137 23.8123C57.0716 23.8611 57.265 23.8855 57.3939 23.8855C57.829 23.8855 58.0466 23.3329 58.0466 22.2278V15.475C58.0466 14.3861 57.829 13.8417 57.3939 13.8417C57.265 13.8417 57.0716 13.8742 56.8137 13.9392C56.572 13.9879 56.3786 14.0123 56.2335 14.0123C55.8629 14.0123 55.5486 13.8579 55.2908 13.5491C55.049 13.2404 54.9282 12.8584 54.9282 12.4034C54.9282 11.8671 55.0893 11.4364 55.4116 11.1113C55.7339 10.7863 56.153 10.6238 56.6687 10.6238C57.0071 10.6238 57.4986 10.6644 58.1433 10.7457C58.7879 10.8269 59.2956 10.8675 59.6662 10.8675C59.9724 10.8675 60.4962 10.835 61.2375 10.77C61.5759 10.7538 61.9627 10.7213 62.3979 10.6725C62.5913 10.64 62.8008 10.6238 63.0264 10.6238C63.4615 10.6238 63.7999 10.7944 64.0417 11.1357C64.1384 11.2657 64.3156 11.6395 64.5735 12.2571Z" fill="#BF0A30"/>
<path d="M85.2245 10.2825C86.9403 10.2825 88.3701 10.8594 89.5139 12.0133C89.661 11.0544 90.1512 10.575 90.9846 10.575C91.9977 10.575 92.5043 11.0626 92.5043 12.0377C92.5043 12.2002 92.4716 12.5253 92.4063 13.0128C92.3082 13.7442 92.2592 14.2399 92.2592 14.4999C92.2592 14.7924 92.2755 15.0118 92.3082 15.1581C92.3409 15.6782 92.3572 15.9707 92.3572 16.0357C92.3572 16.4583 92.1693 16.8158 91.7935 17.1084C91.4176 17.3846 90.9356 17.5228 90.3473 17.5228C89.3996 17.5228 88.8276 17.0596 88.6315 16.1332C88.4354 15.2069 88.1495 14.573 87.7736 14.2317C87.4141 13.8742 86.834 13.6954 86.0333 13.6954C84.9712 13.6954 84.146 14.1911 83.5577 15.1825C82.9858 16.1576 82.6998 17.5472 82.6998 19.3511C82.6998 20.8788 82.9776 22.0734 83.5332 22.9347C84.1051 23.7798 84.8895 24.2024 85.8863 24.2024C86.5236 24.2024 87.0465 24.0236 87.455 23.6661C87.8799 23.2923 88.0923 22.8291 88.0923 22.2765C88.0923 21.5939 87.8063 21.2526 87.2344 21.2526C87.2017 21.2526 87.1527 21.2526 87.0873 21.2526C87.022 21.2689 86.9648 21.277 86.9157 21.277C86.6543 21.3095 86.5072 21.3258 86.4745 21.3258C86.1477 21.3258 85.8699 21.1876 85.6412 20.9113C85.4124 20.6188 85.298 20.2613 85.298 19.8387C85.298 19.3511 85.4614 18.9611 85.7882 18.6686C86.115 18.376 86.5399 18.2297 87.0628 18.2297C87.406 18.2297 87.9207 18.2785 88.607 18.376C89.3097 18.4573 89.8408 18.4979 90.2003 18.4979C90.7395 18.4979 91.3359 18.4573 91.9896 18.376C92.5125 18.311 92.872 18.2785 93.0681 18.2785C93.591 18.2785 94.0077 18.441 94.3181 18.7661C94.645 19.0749 94.8084 19.4974 94.8084 20.0337C94.8084 20.505 94.694 20.9032 94.4652 21.2283C94.2364 21.537 93.9505 21.6914 93.6073 21.6914L93.019 21.6427C92.5778 21.6427 92.3572 22.0084 92.3572 22.7397C92.3572 23.0485 92.3654 23.3735 92.3818 23.7148L92.4308 24.7631C92.4471 25.1206 92.4553 25.4619 92.4553 25.787C92.4553 26.8759 91.8507 27.4203 90.6415 27.4203C89.4976 27.4203 88.9257 27.0221 88.9257 26.2258V26.0795C87.7982 26.9734 86.5154 27.4203 85.0774 27.4203C83.8192 27.4203 82.6345 27.0953 81.5233 26.4452C80.4121 25.7788 79.6032 24.9175 79.0967 23.8611C78.443 22.5122 78.1162 20.9438 78.1162 19.1561C78.1162 16.4258 78.7535 14.2642 80.0281 12.6715C81.3027 11.0788 83.0348 10.2825 85.2245 10.2825Z" fill="#002868"/>
<path d="M107.634 21.9352H104.374C103.443 21.9352 102.977 22.4878 102.977 23.5929C102.977 23.853 103.116 23.983 103.394 23.983C103.476 23.983 103.598 23.9749 103.761 23.9586C103.925 23.9261 104.047 23.9099 104.129 23.9099C104.734 23.9099 105.036 24.3893 105.036 25.3482C105.036 25.8682 104.897 26.2908 104.619 26.6158C104.342 26.9409 103.974 27.1034 103.516 27.1034C103.288 27.1034 102.781 27.0465 101.997 26.9327C101.654 26.884 101.171 26.8596 100.551 26.8596C99.8805 26.8596 99.3576 26.884 98.9818 26.9327C98.1157 27.0465 97.601 27.1034 97.4376 27.1034C96.931 27.1034 96.5143 26.949 96.1875 26.6402C95.877 26.3314 95.7218 25.9251 95.7218 25.4213C95.7218 24.2837 96.1548 23.7148 97.0209 23.7148C97.1189 23.7148 97.2742 23.7311 97.4866 23.7636C97.699 23.7798 97.8543 23.788 97.9523 23.788C98.2628 23.788 98.5161 23.6173 98.7122 23.276C98.7612 23.1785 98.8756 22.8778 99.0553 22.374L102.438 12.7934C102.83 11.7045 103.271 11.0219 103.761 10.7457C104.121 10.5669 104.914 10.4775 106.139 10.4775C107.512 10.4775 108.378 10.5669 108.737 10.7457C109.097 10.9082 109.391 11.3795 109.62 12.1596L112.757 22.5447C113.002 23.3735 113.288 23.788 113.615 23.788C113.713 23.788 113.885 23.7636 114.13 23.7148H114.399C115.314 23.7148 115.772 24.2511 115.772 25.3238C115.772 25.8601 115.609 26.2908 115.282 26.6158C114.955 26.9409 114.53 27.1034 114.007 27.1034C113.778 27.1034 113.476 27.079 113.1 27.0303C112.643 26.949 112.34 26.9084 112.193 26.9084C111.834 26.8759 111.368 26.8596 110.796 26.8596C110.175 26.8596 109.759 26.8759 109.546 26.9084C108.713 27.0384 108.19 27.1034 107.977 27.1034C107.536 27.1034 107.169 26.9409 106.874 26.6158C106.597 26.2745 106.458 25.852 106.458 25.3482C106.458 24.3893 106.768 23.9099 107.389 23.9099C107.471 23.9099 107.593 23.9261 107.757 23.9586C107.92 23.9749 108.043 23.983 108.124 23.983C108.435 23.983 108.59 23.8123 108.59 23.471C108.59 23.0322 108.5 22.6666 108.321 22.374C108.141 22.0815 107.912 21.9352 107.634 21.9352ZM107.267 18.2054L106.09 13.2078L104.57 18.4004C104.554 18.4492 104.546 18.506 104.546 18.571C104.546 18.7661 104.75 18.8636 105.159 18.8636H106.678C107.103 18.8636 107.316 18.7498 107.316 18.5223C107.316 18.5385 107.299 18.4329 107.267 18.2054Z" fill="#002868"/>
<path d="M128.218 12.1352L130.253 21.0332L132.385 12.5009C132.565 11.7858 132.761 11.2982 132.974 11.0382C133.202 10.7619 133.521 10.6238 133.929 10.6238C134.289 10.6238 134.836 10.6644 135.572 10.7457C136.307 10.8269 136.863 10.8675 137.238 10.8675C137.631 10.8675 138.603 10.8025 140.155 10.6725C140.596 10.64 140.923 10.6238 141.136 10.6238C141.675 10.6238 142.108 10.7863 142.435 11.1113C142.762 11.4201 142.925 11.8508 142.925 12.4034C142.925 12.8584 142.794 13.2404 142.533 13.5491C142.288 13.8579 141.977 14.0123 141.601 14.0123C141.454 14.0123 141.25 13.9879 140.989 13.9392C140.727 13.8742 140.539 13.8417 140.425 13.8417C139.984 13.8417 139.763 14.3861 139.763 15.475V22.2278C139.763 23.3329 139.976 23.8855 140.4 23.8855C140.531 23.8855 140.727 23.8611 140.989 23.8123C141.25 23.7473 141.446 23.7148 141.577 23.7148C141.953 23.7148 142.271 23.8692 142.533 24.178C142.794 24.4868 142.925 24.8687 142.925 25.3238C142.925 25.8764 142.762 26.3152 142.435 26.6402C142.108 26.949 141.675 27.1034 141.136 27.1034C140.825 27.1034 140.302 27.0546 139.567 26.9571C139.077 26.8921 138.587 26.8596 138.096 26.8596C137.786 26.8596 137.328 26.9002 136.724 26.9815C136.119 27.0628 135.662 27.1034 135.351 27.1034C134.861 27.1034 134.461 26.9409 134.15 26.6158C133.856 26.2908 133.709 25.8601 133.709 25.3238C133.709 24.3162 134.044 23.8123 134.714 23.8123C134.812 23.8123 134.885 23.8205 134.934 23.8367C134.983 23.8367 135.041 23.8367 135.106 23.8367C135.171 23.853 135.212 23.8611 135.229 23.8611C135.49 23.8611 135.645 23.6823 135.694 23.3248C135.711 23.1623 135.719 22.886 135.719 22.4959V13.3054L132.312 25.2994C132.018 26.3395 131.536 26.8596 130.866 26.8596H129.297C128.643 26.8596 128.194 26.3964 127.949 25.4701L124.689 13.3054V22.4959C124.689 23.2598 124.762 23.6904 124.909 23.788C124.958 23.8367 125.048 23.8611 125.179 23.8611C125.212 23.8611 125.261 23.853 125.326 23.8367C125.375 23.8367 125.424 23.8367 125.473 23.8367C125.522 23.8205 125.596 23.8123 125.694 23.8123C126.347 23.8123 126.674 24.308 126.674 25.2994C126.674 25.852 126.527 26.2908 126.233 26.6158C125.939 26.9409 125.547 27.1034 125.056 27.1034C124.828 27.1034 124.533 27.079 124.174 27.0303C123.716 26.9652 123.43 26.9246 123.316 26.9084C122.973 26.8759 122.581 26.8596 122.14 26.8596C121.584 26.8596 121.118 26.884 120.742 26.9327C119.729 27.0628 119.223 27.1278 119.223 27.1278C118.716 27.1278 118.299 26.9571 117.973 26.6158C117.646 26.2745 117.482 25.8439 117.482 25.3238C117.482 24.8525 117.605 24.4705 117.85 24.178C118.112 23.8692 118.438 23.7148 118.831 23.7148C118.961 23.7148 119.149 23.7473 119.394 23.8123C119.656 23.8611 119.852 23.8855 119.983 23.8855C120.309 23.8855 120.514 23.6742 120.595 23.2516C120.628 23.0891 120.644 22.7478 120.644 22.2278V15.475C120.644 14.9549 120.628 14.6218 120.595 14.4755C120.514 14.053 120.309 13.8417 119.983 13.8417C119.852 13.8417 119.656 13.8742 119.394 13.9392C119.149 13.9879 118.953 14.0123 118.806 14.0123C118.43 14.0123 118.112 13.8579 117.85 13.5491C117.605 13.2404 117.482 12.8584 117.482 12.4034C117.482 11.217 118.087 10.6238 119.296 10.6238C119.688 10.6238 120.342 10.6644 121.257 10.7457C122.172 10.8269 122.859 10.8675 123.316 10.8675C124.051 10.8675 124.819 10.8188 125.62 10.7213C126.159 10.6563 126.584 10.6238 126.895 10.6238C127.303 10.6238 127.589 10.7213 127.753 10.9163C127.916 11.1113 128.071 11.5176 128.218 12.1352Z" fill="#002868"/>
<path d="M154.206 13.6954C153.666 13.6954 153.307 13.7442 153.127 13.8417C152.882 13.9879 152.759 14.313 152.759 14.8168V16.182C152.759 16.4583 152.792 16.6695 152.857 16.8158C152.939 16.9458 153.135 17.0108 153.446 17.0108C154.165 17.0108 154.524 16.7508 154.524 16.2307V15.9138C154.508 15.8163 154.5 15.6944 154.5 15.5482C154.5 14.8656 154.9 14.5243 155.701 14.5243C156.534 14.5243 156.951 14.9387 156.951 15.7676C156.951 15.9951 156.935 16.247 156.902 16.5233C156.836 17.0596 156.804 17.5553 156.804 18.0103C156.804 18.4329 156.836 18.9692 156.902 19.6193C156.967 20.2694 157 20.7244 157 20.9845C157 21.9433 156.567 22.4228 155.701 22.4228C154.884 22.4228 154.475 22.0084 154.475 21.1795C154.475 21.0982 154.475 21.0576 154.475 21.0576C154.475 20.9763 154.492 20.7813 154.524 20.4725C154.524 20.0825 154.173 19.8875 153.47 19.8875C152.996 19.8875 152.759 20.1475 152.759 20.6676V22.4959C152.759 23.0647 152.857 23.4548 153.054 23.6661C153.266 23.8611 153.65 23.9586 154.206 23.9586H155.627C156.673 23.9586 157.4 23.8692 157.809 23.6904C158.234 23.5117 158.446 23.1948 158.446 22.7397C158.446 22.5122 158.422 22.244 158.373 21.9352C158.323 21.6102 158.299 21.342 158.299 21.1307C158.299 20.5294 158.471 20.0581 158.814 19.7168C159.157 19.3755 159.623 19.2049 160.211 19.2049C161.404 19.2049 162 19.855 162 21.1551C162 21.5777 161.976 22.0246 161.927 22.4959C161.845 23.276 161.804 23.7636 161.804 23.9586C161.804 24.1374 161.845 24.4868 161.927 25.0069C161.976 25.3157 162 25.6326 162 25.9576C162 26.7215 161.518 27.1034 160.554 27.1034C160.244 27.1034 159.729 27.079 159.01 27.0303C157.817 26.949 155.913 26.8921 153.299 26.8596C153.299 26.8596 152.572 26.8596 151.117 26.8596C150.3 26.8596 149.622 26.884 149.083 26.9327L147.22 27.1034C147.204 27.1034 147.171 27.1115 147.122 27.1278C147.073 27.1278 147.032 27.1278 146.999 27.1278C146.493 27.1278 146.076 26.9571 145.749 26.6158C145.439 26.2745 145.284 25.8439 145.284 25.3238C145.284 24.8687 145.406 24.4868 145.651 24.178C145.913 23.8692 146.239 23.7148 146.632 23.7148C146.762 23.7148 146.958 23.7473 147.22 23.8123C147.481 23.8611 147.669 23.8855 147.784 23.8855C148.225 23.8855 148.445 23.3329 148.445 22.2278V15.475C148.445 14.3861 148.225 13.8417 147.784 13.8417C147.686 13.8417 147.49 13.8742 147.195 13.9392C146.983 13.9879 146.795 14.0123 146.632 14.0123C146.256 14.0123 145.937 13.8579 145.676 13.5491C145.414 13.2404 145.284 12.8584 145.284 12.4034C145.284 11.217 145.88 10.6238 147.073 10.6238C147.351 10.6238 147.914 10.6563 148.764 10.7213C150.039 10.8188 151.272 10.8675 152.465 10.8675C152.58 10.8675 153.56 10.8432 155.407 10.7944C156.747 10.7619 157.629 10.7294 158.054 10.6969C158.757 10.6481 159.492 10.6238 160.26 10.6238C161.175 10.6238 161.633 11.0219 161.633 11.8183C161.633 12.0783 161.6 12.4603 161.534 12.9641C161.485 13.4679 161.461 13.8498 161.461 14.1098C161.461 14.3699 161.494 14.7437 161.559 15.2312C161.641 15.7025 161.682 16.0601 161.682 16.3039C161.682 16.7752 161.502 17.1734 161.142 17.4984C160.799 17.8234 160.366 17.986 159.843 17.986C158.618 17.986 158.005 17.3603 158.005 16.1088C158.005 15.8976 158.038 15.605 158.103 15.2312C158.185 14.8574 158.225 14.5812 158.225 14.4024C158.225 14.0448 158.038 13.8254 157.662 13.7442C157.531 13.7117 157.188 13.6954 156.632 13.6954H154.206Z" fill="#002868"/>
<path d="M162 33.4185H37.0303V64.2666L44.7718 57.9387H135.458L142.094 51.6109H98.9435L100.852 48.8425L144.305 49.238L152.047 42.6729H105.085L106.567 40.5373H154.259L162 33.4185Z" fill="#BF0A30"/>
<path d="M59.5709 37.8959L61.9829 48.4189L64.5111 38.3283C64.7242 37.4826 64.9567 36.906 65.2085 36.5985C65.4797 36.2718 65.8575 36.1084 66.3418 36.1084C66.7681 36.1084 67.4171 36.1564 68.2888 36.2525C69.1606 36.3486 69.8193 36.3967 70.2649 36.3967C70.7299 36.3967 71.8826 36.3198 73.723 36.1661C74.2461 36.1276 74.6336 36.1084 74.8854 36.1084C75.5247 36.1084 76.0381 36.3006 76.4256 36.685C76.813 37.0502 77.0068 37.5595 77.0068 38.213C77.0068 38.7512 76.8518 39.2028 76.5418 39.568C76.2512 39.9332 75.8831 40.1158 75.4375 40.1158C75.2632 40.1158 75.021 40.087 74.711 40.0293C74.4011 39.9524 74.1783 39.914 74.0427 39.914C73.5196 39.914 73.2581 40.5579 73.2581 41.8456V49.8316C73.2581 51.1385 73.5099 51.792 74.0136 51.792C74.1686 51.792 74.4011 51.7632 74.711 51.7055C75.021 51.6287 75.2535 51.5902 75.4085 51.5902C75.8541 51.5902 76.2318 51.7728 76.5418 52.138C76.8518 52.5032 77.0068 52.9548 77.0068 53.493C77.0068 54.1465 76.813 54.6654 76.4256 55.0498C76.0381 55.415 75.5247 55.5976 74.8854 55.5976C74.5173 55.5976 73.8974 55.5399 73.0256 55.4246C72.4444 55.3477 71.8632 55.3093 71.282 55.3093C70.9139 55.3093 70.3715 55.3574 69.6547 55.4535C68.9378 55.5496 68.3954 55.5976 68.0273 55.5976C67.4461 55.5976 66.9715 55.4054 66.6034 55.021C66.2547 54.6366 66.0803 54.1273 66.0803 53.493C66.0803 52.3014 66.4775 51.7055 67.2718 51.7055C67.388 51.7055 67.4752 51.7151 67.5333 51.7344C67.5914 51.7344 67.6592 51.7344 67.7367 51.7344C67.8142 51.7536 67.8626 51.7632 67.882 51.7632C68.192 51.7632 68.376 51.5518 68.4341 51.1289C68.4535 50.9367 68.4632 50.61 68.4632 50.1487V39.2797L64.4239 53.4642C64.0752 54.6943 63.5037 55.3093 62.7094 55.3093H60.8496C60.0746 55.3093 59.5419 54.7615 59.2513 53.666L55.3863 39.2797V50.1487C55.3863 51.052 55.4735 51.5614 55.6479 51.6767C55.706 51.7344 55.8125 51.7632 55.9675 51.7632C56.0063 51.7632 56.0644 51.7536 56.1419 51.7344C56.2 51.7344 56.2581 51.7344 56.3162 51.7344C56.3744 51.7151 56.4615 51.7055 56.5778 51.7055C57.3527 51.7055 57.7402 52.2917 57.7402 53.4642C57.7402 54.1177 57.5658 54.6366 57.2171 55.021C56.8684 55.4054 56.4034 55.5976 55.8222 55.5976C55.551 55.5976 55.2023 55.5688 54.7761 55.5111C54.2336 55.4342 53.8946 55.3862 53.759 55.367C53.3522 55.3285 52.8872 55.3093 52.3641 55.3093C51.7054 55.3093 51.1533 55.3381 50.7077 55.3958C49.5066 55.5496 48.906 55.6264 48.906 55.6264C48.3054 55.6264 47.8114 55.4246 47.424 55.021C47.0365 54.6174 46.8428 54.108 46.8428 53.493C46.8428 52.9356 46.9881 52.4839 47.2787 52.138C47.5886 51.7728 47.9761 51.5902 48.4411 51.5902C48.596 51.5902 48.8188 51.6287 49.1094 51.7055C49.4194 51.7632 49.6519 51.792 49.8069 51.792C50.1943 51.792 50.4365 51.5422 50.5334 51.0424C50.5721 50.8502 50.5915 50.4466 50.5915 49.8316V41.8456C50.5915 41.2306 50.5721 40.8366 50.5334 40.6636C50.4365 40.1638 50.1943 39.914 49.8069 39.914C49.6519 39.914 49.4194 39.9524 49.1094 40.0293C48.8188 40.087 48.5864 40.1158 48.412 40.1158C47.9664 40.1158 47.5886 39.9332 47.2787 39.568C46.9881 39.2028 46.8428 38.7512 46.8428 38.213C46.8428 36.8099 47.5596 36.1084 48.9932 36.1084C49.4581 36.1084 50.2331 36.1564 51.318 36.2525C52.4029 36.3486 53.2165 36.3967 53.759 36.3967C54.6308 36.3967 55.5413 36.339 56.4906 36.2237C57.1299 36.1468 57.6336 36.1084 58.0017 36.1084C58.486 36.1084 58.8251 36.2237 59.0188 36.4544C59.2125 36.685 59.3966 37.1655 59.5709 37.8959Z" fill="white"/>
<path d="M81.0234 51.792C81.4108 51.792 81.653 51.5422 81.7499 51.0424C81.7886 50.8502 81.808 50.4466 81.808 49.8316V41.8456C81.808 41.2306 81.7886 40.8366 81.7499 40.6636C81.653 40.1638 81.4108 39.914 81.0234 39.914C80.8684 39.914 80.6359 39.9524 80.3259 40.0293C80.0353 40.087 79.8029 40.1158 79.6285 40.1158C79.1829 40.1158 78.8051 39.9332 78.4952 39.568C78.2046 39.2028 78.0593 38.7512 78.0593 38.213C78.0593 37.5595 78.2433 37.0502 78.6114 36.685C78.9989 36.3006 79.5123 36.1084 80.1516 36.1084C80.4422 36.1084 81.1202 36.1661 82.1857 36.2814C82.9026 36.3583 83.6 36.3967 84.278 36.3967C84.8205 36.3967 85.5954 36.3486 86.6028 36.2525C87.6296 36.1564 88.3077 36.1084 88.637 36.1084C90.0512 36.1084 90.7584 36.8099 90.7584 38.213C90.7584 38.7512 90.6034 39.2028 90.2934 39.568C90.0028 39.9332 89.6347 40.1158 89.1891 40.1158C89.0342 40.1158 88.8017 40.087 88.4917 40.0293C88.1817 39.9524 87.9493 39.914 87.7943 39.914C87.2712 39.914 87.0097 40.5579 87.0097 41.8456V49.8316C87.0097 51.1385 87.2712 51.792 87.7943 51.792C87.9493 51.792 88.1817 51.7632 88.4917 51.7055C88.8017 51.6287 89.0342 51.5902 89.1891 51.5902C89.6347 51.5902 90.0028 51.7728 90.2934 52.138C90.6034 52.5032 90.7584 52.9548 90.7584 53.493C90.7584 54.108 90.5646 54.6174 90.1772 55.021C89.8091 55.4246 89.3344 55.6264 88.7532 55.6264C88.637 55.6264 88.5498 55.6168 88.4917 55.5976L86.6609 55.367C86.196 55.3093 85.6826 55.2805 85.1208 55.2805C84.249 55.2805 83.3385 55.3285 82.3892 55.4246C81.2462 55.5399 80.5003 55.5976 80.1516 55.5976C79.5316 55.5976 79.0279 55.4054 78.6405 55.021C78.253 54.6366 78.0593 54.1273 78.0593 53.493C78.0593 52.9356 78.2046 52.4839 78.4952 52.138C78.8051 51.7728 79.1926 51.5902 79.6576 51.5902C79.8125 51.5902 80.0353 51.6287 80.3259 51.7055C80.6359 51.7632 80.8684 51.792 81.0234 51.792Z" fill="white"/>
<path d="M31.9336 25.9351C30.8879 24.439 30.7592 23.2002 28.1611 24.439C25.563 25.6938 23.4796 26.8119 22.0479 27.5519C22.5627 28.5493 24.3886 30.5442 25.1688 30.5442C25.9491 30.5442 26.3352 30.6729 26.858 30.4235C27.3809 30.1661 31.2821 26.8038 31.9336 25.9351Z" fill="#002868"/>
<path d="M26.1093 30.6332C25.9967 30.6332 25.868 30.6252 25.7313 30.6171C25.5704 30.6171 25.3854 30.6091 25.1682 30.6091C24.3236 30.6091 22.4977 28.5579 21.9909 27.5846L21.9668 27.5203L22.0231 27.5042C22.2725 27.3755 22.5379 27.2307 22.8275 27.0779C24.1627 26.3861 25.9887 25.4128 28.1364 24.3913C28.8603 24.0454 29.4314 23.8765 29.8738 23.8765C30.7184 23.8765 31.0804 24.4797 31.5469 25.2359C31.6837 25.445 31.8204 25.6702 31.9893 25.9115L32.0215 25.9518L31.9893 25.9839C31.3217 26.8848 27.3883 30.2552 26.8976 30.4884C26.6402 30.585 26.415 30.6332 26.1093 30.6332ZM22.1277 27.5766C22.6988 28.6062 24.4604 30.4723 25.1682 30.4723C25.3854 30.4723 25.5704 30.4804 25.7393 30.4884C25.8761 30.4965 25.9967 30.5045 26.1093 30.5045C26.4069 30.5045 26.608 30.4563 26.8333 30.3436C27.3159 30.1104 31.1206 26.8607 31.8526 25.9115C31.6917 25.6944 31.571 25.4772 31.4343 25.268C30.9758 24.52 30.646 23.981 29.8658 23.981C29.4394 23.981 28.8925 24.1419 28.1846 24.4797C26.0289 25.5093 24.211 26.4666 22.8757 27.1664C22.6103 27.3192 22.369 27.4559 22.1277 27.5766Z" fill="#002868"/>
<path d="M5.14006 43.3665C3.44283 43.3665 0.0644531 45.3533 0.0644531 47.5975C1.1021 46.9861 2.27649 45.86 3.44283 45.9726C3.57957 44.9833 4.35982 43.9939 5.14006 43.3665Z" fill="#BF0A30"/>
<path d="M0 47.71V47.5974C0 45.2888 3.44273 43.2939 5.13996 43.2939H5.31692L5.17213 43.4146C4.4482 43.9857 3.63578 44.959 3.50708 45.9806L3.49903 46.0369L3.44273 46.0288C2.574 45.9403 1.72136 46.5517 0.892857 47.1147C0.619369 47.3158 0.353925 47.4928 0.0965248 47.6537L0 47.71ZM4.95495 43.4387C3.28185 43.5594 0.233269 45.3692 0.1287 47.4928C0.353925 47.356 0.57915 47.1952 0.820463 47.0262C1.64897 46.4551 2.50965 45.8519 3.39446 45.9162C3.53925 44.9429 4.27123 44.0259 4.95495 43.4387Z" fill="#BF0A30"/>
<path d="M15.9351 21.9457C17.3588 22.4444 17.3588 23.4499 18.1391 24.3186C18.9193 25.1954 20.0937 25.8147 21.26 26.1928C22.4264 26.5628 24.1236 28.437 24.5097 29.0483C24.8958 29.6757 25.5474 31.1719 24.8958 31.4212C24.2443 31.6706 23.9949 30.7938 24.2443 31.5419C24.5097 32.298 24.381 33.408 24.381 33.408C25.29 33.9068 26.593 34.7835 27.3733 35.6523C28.1535 36.529 28.0248 44.621 27.3733 44.8704C26.7137 45.1197 25.9415 44.621 25.5474 44.0017C25.6841 43.2456 25.5474 42.9962 25.29 42.6342C25.0326 42.2562 25.0326 41.8862 25.5474 41.7575C26.0702 41.6207 26.7137 41.3794 26.8504 40.5107C26.9791 39.6339 26.3276 38.3952 26.3276 38.3952C26.3276 38.3952 25.9335 37.3977 26.0702 36.899C24.8958 36.6497 24.5097 36.4003 23.8582 36.151C23.3434 38.3952 22.2977 44.1304 17.7449 46.7365C19.957 48.8601 20.0857 51.595 18.9113 53.0911C17.7449 54.5872 17.9943 54.9653 18.6458 55.7134C19.3054 56.4614 20.4718 58.0863 20.9866 59.325C21.5014 60.5557 22.6757 61.4325 23.7134 62.0599C24.7591 62.6793 25.9254 62.9286 26.1909 63.6686C25.2739 63.918 24.1075 63.4193 23.1905 64.0467C22.8044 63.2986 22.4103 62.9206 21.6381 63.2986C20.8498 63.6687 20.327 64.0467 19.9489 64.0467C20.0776 62.9206 19.9489 62.7999 20.0776 61.8025C20.2063 60.8131 19.04 58.3195 17.214 57.4428C15.3961 56.566 15.002 55.8179 15.002 54.3299C15.002 52.8418 14.085 51.4743 12.9187 51.0963C12.5326 53.4692 11.3582 55.9547 9.28289 56.9521C7.19956 57.9495 6.02517 57.8289 5.12427 59.8157C4.20728 61.8025 4.47272 64.1754 4.47272 65.4141C4.47272 66.669 5.51841 67.417 6.03321 67.9077C5.13231 67.779 3.95792 68.0284 3.56378 68.2777C3.42704 67.409 2.77549 66.669 1.215 67.1596C1.0863 66.1622 2.13199 65.5348 2.51809 63.918C2.91224 62.3093 2.91223 59.8157 2.64679 58.6896C2.38939 57.5634 2.51809 56.0673 4.20728 56.4454C5.37362 56.0673 5.89647 56.0673 6.41127 55.5686C6.67671 54.8205 6.28257 54.5712 6.15387 54.0725C6.02517 53.5737 5.63907 53.8231 4.85882 52.2063C4.07858 50.5815 1.73785 45.2243 5.12427 43.3662C8.50264 41.492 13.3128 40.3739 13.3128 33.8987C11.1008 32.1532 7.07086 27.4235 6.41931 23.6831C6.41931 21.4389 7.32826 19.8302 8.11654 18.334C6.29061 18.4547 4.98752 18.2053 4.21532 15.4705C6.29061 15.1005 8.50264 15.2211 10.4573 15.5911C12.4119 15.9692 13.0554 15.1085 14.2298 14.3443C15.4042 13.6043 16.4418 13.6043 17.7449 14.473C19.04 15.3498 21.1233 17.3366 23.9869 17.956C24.5097 18.2053 24.5097 19.0821 24.373 19.9589C24.2362 20.8276 23.5927 20.8276 22.9412 20.6989C23.1986 21.7044 21.7748 22.0744 20.6005 21.5757C19.4341 21.077 18.5171 20.8276 17.8656 21.1976C17.2382 21.5757 17.3669 21.9457 15.9351 21.9457Z" fill="#002868"/>
<path d="M3.5309 68.3658L3.52286 68.2773C3.45046 67.8189 3.17698 67.0547 2.14738 67.0547C1.88193 67.0547 1.58431 67.103 1.25452 67.1995L1.18213 67.2317L1.16604 67.1593C1.09364 66.6043 1.36713 66.1699 1.68084 65.647C1.96237 65.1805 2.29216 64.6577 2.47717 63.8935C2.86327 62.2687 2.86327 59.8073 2.60587 58.6972C2.51739 58.287 2.34847 57.2976 2.81501 56.7185C3.10458 56.3565 3.57916 56.2359 4.22267 56.3806C4.55246 56.268 4.8179 56.1956 5.05922 56.1313C5.6625 55.9704 6.02447 55.8739 6.37839 55.536C6.54731 55.0454 6.42665 54.788 6.28187 54.4984C6.22556 54.3777 6.15317 54.249 6.11295 54.0882C6.07273 53.9032 5.98425 53.8388 5.85555 53.7182C5.63032 53.5171 5.29248 53.2355 4.80986 52.222C3.80439 50.1467 1.83367 45.1113 5.09943 43.3015C5.63837 43.02 6.19338 42.7384 6.78862 42.4489C9.81307 40.9849 13.2478 39.3118 13.2638 33.9305C11.2529 32.3298 7.04602 27.5599 6.37035 23.7069C6.37035 21.5431 7.21494 19.9424 7.95497 18.5267L8.02736 18.398C7.82627 18.4141 7.64126 18.4141 7.48039 18.4141C5.99229 18.4141 4.85812 17.9154 4.1744 15.4862L4.15831 15.4138L4.22267 15.4058C5.05922 15.2529 5.96012 15.1725 6.89319 15.1725C8.05954 15.1725 9.27414 15.2931 10.4887 15.5184C10.7944 15.5747 11.084 15.6068 11.3414 15.6068C12.3469 15.6068 12.926 15.1886 13.6017 14.714C13.7947 14.5772 13.9958 14.4244 14.213 14.2877C14.8002 13.9177 15.3472 13.7246 15.8942 13.7246C16.4813 13.7246 17.1168 13.9579 17.7925 14.4164C18.074 14.6094 18.3797 14.8346 18.7336 15.092C20.0126 16.0734 21.7741 17.4006 24.0103 17.8913C24.4849 18.1245 24.6216 18.7841 24.4527 19.9505C24.3642 20.5296 24.0505 20.8031 23.4794 20.8031C23.3507 20.8031 23.214 20.7951 23.037 20.7629C23.0772 20.9962 23.029 21.2133 22.8922 21.3823C22.667 21.6718 22.2326 21.8408 21.6776 21.8408C21.3156 21.8408 20.9376 21.7603 20.5837 21.6236C19.6828 21.2294 19.0956 21.0766 18.6129 21.0766C18.3395 21.0766 18.1062 21.1249 17.9051 21.2455C17.7281 21.342 17.6075 21.4386 17.5029 21.5431C17.2375 21.7764 17.0283 21.9534 16.232 21.9936C16.9881 22.3395 17.2857 22.8543 17.5914 23.3932C17.7603 23.6828 17.9212 23.9804 18.1786 24.27C18.8784 25.0502 19.9804 25.7018 21.2754 26.12C22.482 26.4981 24.1873 28.4205 24.5573 29.0077C24.8469 29.4662 25.3858 30.6004 25.1927 31.1715C25.1445 31.3163 25.0479 31.4048 24.9112 31.4691C24.8308 31.5013 24.7423 31.5254 24.6538 31.5254C24.4849 31.5254 24.3481 31.453 24.2516 31.3967C24.2516 31.3967 24.2597 31.3967 24.2597 31.4048L24.2999 31.5174C24.5331 32.1931 24.4608 33.1583 24.4366 33.3755C25.3295 33.8662 26.6326 34.7429 27.4128 35.6036C28.1287 36.3919 28.0965 42.5856 27.6622 44.3794C27.5576 44.8057 27.4611 44.8942 27.3887 44.9102C27.268 44.9585 27.1474 44.9907 27.0026 44.9907C26.3752 44.9907 25.796 44.5 25.4904 44.0254L25.4823 44.0093V43.9772C25.611 43.2371 25.4823 43.0119 25.233 42.658C25.064 42.4167 25.0077 42.1995 25.0721 42.0225C25.1364 41.8617 25.2893 41.7571 25.5225 41.6927C26.0695 41.564 26.6567 41.3147 26.7774 40.4942C26.898 39.6496 26.2706 38.427 26.2626 38.4189C26.2465 38.3787 25.9006 37.4778 25.9891 36.9469C25.1445 36.77 24.7021 36.5769 24.2757 36.4C24.1551 36.3436 24.0264 36.2954 23.8896 36.2391C23.8575 36.3436 23.8333 36.4643 23.8092 36.593C23.2461 39.0866 22.0798 44.2507 17.8327 46.7362C20.0849 48.9482 20.093 51.667 18.9508 53.1149C17.7844 54.611 18.066 54.9408 18.6853 55.6567C19.353 56.4209 20.5274 58.0537 21.0422 59.2764C21.5811 60.5795 22.844 61.4482 23.7449 61.9871C24.0747 62.1802 24.4205 62.3491 24.7503 62.5019C25.4501 62.8317 26.0534 63.1133 26.2465 63.6361L26.2626 63.7085L26.1902 63.7165C25.9971 63.7728 25.7799 63.797 25.4904 63.797C25.3295 63.797 25.1525 63.797 24.9916 63.7809C24.8308 63.7809 24.6538 63.7728 24.4849 63.7728C24.0827 63.7728 23.6322 63.8211 23.222 64.0946L23.1657 64.1348L23.1335 64.0785C22.8118 63.4752 22.5303 63.2259 22.1763 63.2259C22.0155 63.2259 21.8465 63.2661 21.6535 63.3546C21.4041 63.4752 21.1869 63.5959 20.9939 63.6924C20.5595 63.9337 20.2136 64.1107 19.9402 64.1107H19.8678L19.8758 64.0383C19.9402 63.4833 19.9402 63.1856 19.9402 62.88C19.9402 62.5824 19.9402 62.2928 20.0045 61.7941C20.1252 60.853 19.0232 58.3835 17.1812 57.5068C15.2667 56.5817 14.9369 55.7854 14.9369 54.3295C14.9369 52.9218 14.0924 51.5785 12.9662 51.1763C12.4916 53.9675 11.1242 56.1393 9.29827 57.008C8.75934 57.2654 8.27672 57.4424 7.8504 57.6113C6.63579 58.0779 5.83142 58.3916 5.16378 59.8395C4.40767 61.4965 4.46398 63.435 4.5042 64.7301C4.51224 64.9794 4.52028 65.2127 4.52028 65.4218C4.52028 66.4755 5.2764 67.1593 5.83142 67.6499C5.91185 67.7384 5.99229 67.8028 6.06468 67.8752L6.19339 68.0039L6.00838 67.9878C5.8475 67.9717 5.68663 67.9476 5.49358 67.9476C4.69725 67.9476 3.87678 68.1567 3.57916 68.3497L3.5309 68.3658ZM2.14738 66.918C2.94371 66.918 3.4746 67.3765 3.61938 68.1647C3.98135 67.9717 4.76964 67.7947 5.52575 67.7947C5.64641 67.7947 5.75902 67.8028 5.87163 67.8108C5.83946 67.7786 5.80729 67.7545 5.77511 67.7143C5.23618 67.2236 4.4318 66.4997 4.4318 65.3896C4.4318 65.1886 4.42376 64.9633 4.41571 64.6979C4.38354 63.3948 4.31919 61.4402 5.09139 59.759C5.76707 58.2548 6.59557 57.9492 7.84235 57.4665C8.26867 57.3057 8.74326 57.1207 9.27414 56.8633C11.0759 56.0106 12.4273 53.8227 12.8858 51.0557L12.8938 50.9833L12.9662 50.9994C14.1808 51.3855 15.0898 52.8092 15.0898 54.2893C15.0898 55.6889 15.4035 56.4611 17.2616 57.3459C19.1599 58.2468 20.286 60.7886 20.1654 61.7619C20.101 62.2606 20.101 62.5422 20.101 62.8398C20.101 63.1293 20.101 63.427 20.0447 63.9337C20.2941 63.9015 20.5997 63.7407 20.9778 63.5476C21.1709 63.4431 21.4041 63.3144 21.6454 63.2017C21.8626 63.1052 22.0476 63.057 22.2246 63.057C22.7072 63.057 23.0048 63.4672 23.2542 63.9257C23.6805 63.6522 24.1551 63.62 24.5251 63.62C24.694 63.62 24.871 63.6281 25.0399 63.6361C25.2088 63.6441 25.3777 63.6522 25.5306 63.6522C25.7799 63.6522 25.9649 63.6361 26.1339 63.5959C25.9408 63.1615 25.3777 62.888 24.7262 62.5904C24.3884 62.4295 24.0505 62.2687 23.7127 62.0676C22.7957 61.5206 21.5167 60.6438 20.9537 59.3005C20.4469 58.0859 19.2886 56.4772 18.621 55.705C17.9534 54.9247 17.704 54.5225 18.8864 53.0103C20.0045 51.5866 19.9804 48.908 17.7201 46.7442L17.6557 46.6879L17.7362 46.6477C21.9913 44.2024 23.1496 39.0222 23.7127 36.5287C23.7529 36.3839 23.7851 36.231 23.8173 36.1023L23.8333 36.0299L23.8977 36.046C24.0586 36.1023 24.2114 36.1747 24.3562 36.2391C24.7905 36.416 25.233 36.6171 26.1097 36.7941L26.166 36.8021L26.1499 36.8745C26.0293 37.3411 26.4073 38.3224 26.4073 38.3305C26.4234 38.3787 27.0589 39.5933 26.9302 40.4781C26.7934 41.379 26.1419 41.6445 25.5869 41.7732C25.3938 41.8214 25.2651 41.9099 25.2249 42.0225C25.1686 42.1673 25.2249 42.3523 25.3617 42.5534C25.6191 42.9234 25.7638 43.1808 25.6351 43.945C25.973 44.4759 26.536 44.8298 27.0267 44.8298C27.1474 44.8298 27.26 44.8137 27.3645 44.7735C27.3887 44.7655 27.4691 44.7011 27.5576 44.323C27.9759 42.5936 28.008 36.4 27.3324 35.6519C26.5521 34.7832 25.241 33.9144 24.3562 33.4318L24.324 33.4077V33.3594C24.324 33.3514 24.4527 32.2413 24.1953 31.5335L24.1551 31.4128C24.0827 31.2278 24.0827 31.2037 24.1068 31.1635L24.1229 31.1313H24.1551C24.1873 31.1313 24.2114 31.1474 24.2355 31.1796C24.3079 31.2359 24.4527 31.3565 24.6618 31.3565C24.7342 31.3565 24.8066 31.3485 24.879 31.3163C24.9756 31.2761 25.0479 31.2117 25.0882 31.0991C25.249 30.6165 24.8066 29.5949 24.4608 29.048C24.0988 28.4608 22.4257 26.5866 21.2432 26.2085C19.9241 25.7822 18.806 25.1146 18.0981 24.3182C17.8327 24.0206 17.6557 23.723 17.4868 23.4254C17.149 22.8462 16.8353 22.2993 15.9102 21.9775L15.9344 21.8488C16.9398 21.8488 17.157 21.6718 17.4225 21.4225C17.5351 21.334 17.6557 21.2294 17.8488 21.1168C18.066 20.9881 18.3234 20.9318 18.6129 20.9318C19.1036 20.9318 19.7149 21.1007 20.6319 21.4868C20.9617 21.6397 21.3237 21.7121 21.6696 21.7121C22.1683 21.7121 22.5866 21.5512 22.7876 21.3018C22.9163 21.1329 22.9485 20.9238 22.8922 20.6905L22.8681 20.594L22.9646 20.6101C23.1738 20.6503 23.3346 20.6664 23.4794 20.6664C23.9781 20.6664 24.2436 20.4331 24.324 19.9103C24.4929 18.8163 24.3723 18.1808 23.9701 17.9878C21.7178 17.5052 19.9482 16.1619 18.6532 15.1805C18.3073 14.9151 17.9936 14.6818 17.7201 14.4888C17.0605 14.0544 16.4653 13.8372 15.8942 13.8372C15.3713 13.8372 14.8485 14.0061 14.2774 14.3762C14.0602 14.5209 13.8591 14.6577 13.666 14.7944C12.9743 15.2931 12.379 15.7195 11.3333 15.7195C11.0599 15.7195 10.7703 15.6873 10.4566 15.6229C8.30889 15.2127 6.16121 15.1564 4.3031 15.4862C4.97878 17.7947 6.01642 18.2613 7.47234 18.2613C7.66539 18.2613 7.87453 18.2532 8.12389 18.2452L8.22846 18.2372L8.05954 18.5589C7.3356 19.9585 6.49905 21.5431 6.49905 23.6586C7.16668 27.4955 11.3736 32.2494 13.3684 33.8179L13.3845 33.842V33.8742C13.3845 39.3681 9.90156 41.0492 6.84493 42.5454C6.24969 42.8189 5.69467 43.1004 5.16378 43.39C1.9865 45.1516 3.94113 50.0985 4.93052 52.1496C5.38901 53.131 5.7188 53.4125 5.93599 53.6055C6.08077 53.7262 6.1773 53.8147 6.2336 54.0319C6.27382 54.1686 6.33817 54.2973 6.39448 54.418C6.53927 54.7075 6.6921 55.0052 6.49905 55.5521L6.48296 55.5843C6.09686 55.9543 5.72685 56.0508 5.10748 56.2198C4.85812 56.2922 4.58463 56.3646 4.2468 56.4691L4.23071 56.4772L4.21462 56.4691C3.61134 56.3404 3.16893 56.4369 2.91153 56.7667C2.61391 57.1448 2.54152 57.8366 2.72653 58.6409C2.99197 59.7751 2.99197 62.2606 2.59783 63.8935C2.41282 64.6737 2.08303 65.2046 1.79345 65.6792C1.49583 66.1699 1.26256 66.556 1.29474 67.0225C1.6004 66.9743 1.88998 66.918 2.14738 66.918Z" fill="#002868"/>
<path d="M15.5808 13.9825C15.0579 13.2344 13.9801 12.7357 12.9344 12.8564C11.8967 12.9931 10.8591 13.1057 10.5936 13.6125C10.3362 14.0951 12.2828 15.2212 12.8057 15.2212C13.2481 15.358 15.5486 14.4329 15.5808 13.9825Z" fill="#BF0A30"/>
<path d="M12.9104 15.2936C12.8702 15.2936 12.83 15.2936 12.7978 15.2936C12.3473 15.2855 10.9316 14.5133 10.5938 13.9503C10.5053 13.8055 10.4892 13.6768 10.5375 13.5803C10.819 13.0574 11.8486 12.9207 12.9265 12.792C13.0391 12.7839 13.1517 12.7759 13.2643 12.7759C14.1974 12.7759 15.1546 13.2424 15.6372 13.9422L15.6533 13.9583V13.9744C15.597 14.4892 13.5056 15.2936 12.9104 15.2936ZM13.2643 12.9046C13.1597 12.9046 13.0552 12.9126 12.9426 12.9207C11.9371 13.0413 10.8994 13.162 10.6581 13.6285C10.6179 13.6848 10.642 13.7813 10.6984 13.8779C11.0281 14.4168 12.4036 15.1568 12.8139 15.1568H12.8299C12.846 15.1649 12.8782 15.1649 12.9104 15.1649C13.5378 15.1649 15.42 14.3605 15.5246 13.9824C15.05 13.3389 14.1491 12.9046 13.2643 12.9046Z" fill="#BF0A30"/>
<path d="M8.65442 25.0586C7.87417 23.8118 8.26027 23.4498 8.78311 22.0744C9.30596 20.6989 9.8288 19.3395 9.8288 17.594C9.43466 17.8434 8.66246 17.8433 8.13961 18.3421C7.35133 19.8382 6.44238 21.447 6.44238 23.6912C7.09393 27.4315 11.1238 32.1612 13.3359 33.9067C12.4269 32.298 11.1238 30.7938 10.3436 28.7989C9.55532 26.8041 9.42662 26.3054 8.65442 25.0586Z" fill="#BF0A30"/>
<path d="M13.2965 33.9467C11.2936 32.3621 7.05458 27.5761 6.37891 23.699C6.37891 21.5352 7.2235 19.9345 7.96353 18.5188L8.10027 18.2775C8.43006 17.9558 8.85638 17.8431 9.22639 17.7386C9.45162 17.6662 9.66076 17.6018 9.7975 17.5134L9.89403 17.4651V17.5697C9.89403 19.3232 9.36314 20.7148 8.84834 22.0742C8.7679 22.2833 8.68746 22.4763 8.61507 22.6372C8.22897 23.5783 8.06809 23.9805 8.7116 25.0101C9.36314 26.0478 9.56423 26.5706 10.0549 27.8576C10.1595 28.115 10.2721 28.4207 10.4008 28.7585C10.8995 30.0294 11.6154 31.1073 12.3072 32.1289C12.7013 32.716 13.0633 33.2711 13.3931 33.8502L13.2965 33.9467ZM8.18071 18.366L8.06005 18.5912C7.33611 19.9908 6.49956 21.5754 6.49956 23.691C7.13502 27.375 11.0282 31.8875 13.1035 33.6411C12.83 33.1665 12.5163 32.708 12.2026 32.2173C11.5028 31.1877 10.7869 30.1099 10.2882 28.8229C10.1514 28.485 10.0388 28.1874 9.93425 27.9139C9.45162 26.6511 9.24248 26.1282 8.59898 25.0986C7.92331 24.0207 8.11636 23.5462 8.50246 22.6211C8.57485 22.4522 8.64724 22.2592 8.72768 22.0581C9.2264 20.7389 9.7412 19.3795 9.75728 17.6984C9.62054 17.7788 9.43553 17.819 9.25857 17.8753C8.88856 17.9718 8.48637 18.0845 8.18071 18.366Z" fill="#BF0A30"/>
<path d="M25.5547 43.9934C25.249 44.0336 24.9434 44.291 24.9434 44.653C24.9434 44.9989 25.249 46.5835 25.7719 47.0581C26.2867 47.5327 26.3751 47.8866 26.9382 48.0796C27.26 47.2109 27.3726 45.2804 27.2841 44.9024C26.6406 44.7093 25.7558 44.3634 25.5547 43.9934Z" fill="#BF0A30"/>
<path d="M26.9871 48.1602L26.9308 48.1441C26.5447 48.0074 26.3758 47.8063 26.1586 47.5569C26.038 47.4282 25.9093 47.2834 25.7323 47.1065C25.2014 46.6239 24.8877 45.0151 24.8877 44.6612C24.8877 44.259 25.2255 43.9855 25.5473 43.9372L25.5875 43.9292L25.6036 43.9775C25.7806 44.3153 26.6251 44.6531 27.3008 44.8542L27.333 44.8623L27.341 44.9025C27.4295 45.2645 27.333 47.195 26.9952 48.1039L26.9871 48.1602ZM25.5232 44.0499C25.2738 44.1142 25.0084 44.3394 25.0084 44.6531C25.0084 44.991 25.314 46.5515 25.8127 47.01C25.9977 47.1789 26.1184 47.3317 26.239 47.4685C26.4482 47.7017 26.593 47.8787 26.9067 47.9913C27.2043 47.1145 27.3008 45.369 27.2284 44.9508C26.9308 44.8542 25.8127 44.5003 25.5232 44.0499Z" fill="#BF0A30"/>
<path d="M26.4003 45.3772C26.1831 45.5461 26.0785 45.7552 26.1187 46.0287C26.1589 46.3263 25.797 46.7848 25.5798 46.7526C25.5718 46.7526 25.5637 46.7607 25.5557 46.7687C25.6281 46.8813 25.7005 46.9779 25.7728 47.0503C26.2876 47.5248 26.3761 47.8788 26.9392 48.0718C27.2609 47.2031 27.3736 45.2726 27.2851 44.8945C27.1403 44.8543 26.9794 44.798 26.8185 44.7417H26.8105C26.5772 44.9589 26.6255 45.2082 26.4003 45.3772Z" fill="#BF0A30"/>
<path d="M26.9861 48.1602L26.9298 48.1441C26.5437 48.0074 26.3748 47.8063 26.1576 47.5569C26.0369 47.4282 25.9082 47.2834 25.7313 47.1065C25.6589 47.0341 25.5865 46.9456 25.506 46.8169L25.4658 46.7445L25.5302 46.7284C25.5382 46.7204 25.5543 46.7123 25.5784 46.7123H25.5945C25.6669 46.7123 25.7715 46.6399 25.868 46.5354C26.0048 46.3745 26.0771 46.1895 26.0611 46.0527C26.0208 45.7712 26.1174 45.5299 26.3748 45.3368C26.4632 45.2645 26.5035 45.176 26.5517 45.0634C26.6 44.9588 26.6483 44.822 26.777 44.7175L26.8172 44.6853L26.8493 44.6933C27.0022 44.7497 27.1631 44.7899 27.3159 44.8381L27.3481 44.8462L27.3561 44.8864C27.4446 45.2484 27.3481 47.1789 27.0102 48.0878L26.9861 48.1602ZM25.6589 46.8169C25.7071 46.8973 25.7634 46.9617 25.8117 47.0099C25.9967 47.1789 26.1174 47.3317 26.238 47.4684C26.4472 47.7017 26.5919 47.8787 26.9057 47.9913C27.2033 47.1145 27.2998 45.369 27.2274 44.9507C27.0987 44.9105 26.962 44.8542 26.8333 44.814C26.7367 44.9105 26.6885 44.999 26.6483 45.1036C26.608 45.2081 26.5598 45.3288 26.4391 45.4253C26.2219 45.5862 26.1415 45.7873 26.1817 46.0286C26.2139 46.2217 26.0771 46.463 25.9645 46.5997C25.86 46.7204 25.7554 46.8008 25.6589 46.8169Z" fill="#BF0A30"/>
<path d="M23.1673 64.0305C23.1513 64.2718 23.1513 64.9153 23.1673 65.0682C23.1834 65.229 23.0708 65.0843 23.3604 65.2612C23.658 65.4301 25.7172 66.0978 26.1435 65.9691C26.5698 65.8484 26.6905 65.8243 26.8594 65.6634C26.7388 65.1486 26.4975 63.926 26.1435 63.5801C25.8218 63.6123 23.3121 63.6123 23.1673 64.0305Z" fill="#BF0A30"/>
<path d="M26.0067 66.0575C25.3793 66.0575 23.6257 65.4944 23.3281 65.3175C23.2235 65.2451 23.1672 65.237 23.1511 65.229L23.119 65.2209L23.1029 65.1888C23.0948 65.1566 23.0948 65.1405 23.1029 65.1324C23.1029 65.1324 23.1029 65.1164 23.1029 65.0842C23.0868 64.9314 23.0868 64.2718 23.1029 64.0305V64.0224C23.2235 63.7007 24.2612 63.6041 25.7895 63.5478C25.9504 63.5398 26.0791 63.5398 26.1354 63.5317H26.1676L26.1836 63.5478C26.5215 63.8776 26.7628 64.9555 26.8835 65.5427L26.9237 65.7036L26.8915 65.7357C26.7306 65.8886 26.5939 65.9288 26.2319 66.0333L26.1595 66.0494C26.1193 66.0575 26.063 66.0575 26.0067 66.0575ZM23.2316 65.1324C23.2638 65.1405 23.312 65.1646 23.3925 65.2129C23.674 65.3818 25.4114 65.9368 26.0067 65.9368C26.0549 65.9368 26.0952 65.9368 26.1273 65.9207L26.2078 65.9046C26.5456 65.8081 26.6663 65.7759 26.795 65.6553L26.7789 65.5588C26.6582 65.044 26.433 63.9822 26.1273 63.6604C26.063 63.6685 25.9423 63.6685 25.7975 63.6685C25.1943 63.6846 23.3683 63.757 23.2396 64.0546C23.2235 64.3039 23.2235 64.9314 23.2396 65.0842C23.2316 65.0922 23.2316 65.1083 23.2316 65.1324Z" fill="#BF0A30"/>
<path d="M3.5629 68.3185C3.50659 68.6 3.36985 69.6377 3.83638 70.0077C4.31097 70.3857 7.11824 70.2168 7.49629 69.5411C7.15845 69.0022 6.69192 68.2461 6.15299 67.9324C5.60601 67.5945 4.05357 67.868 3.5629 68.3185Z" fill="#BF0A30"/>
<path d="M4.97918 70.2652C4.70569 70.2652 4.03806 70.2491 3.79675 70.0561C3.31412 69.67 3.42674 68.6323 3.49913 68.3025L3.50718 68.2865L3.52326 68.2704C3.89328 67.9245 4.77809 67.7234 5.42159 67.7234C5.64681 67.7234 5.96856 67.7556 6.1777 67.8843C6.74076 68.2141 7.22339 69.0023 7.55318 69.5171L7.56927 69.5493L7.55318 69.5895C7.26361 70.0722 5.82378 70.2652 4.97918 70.2652ZM3.61979 68.3428C3.56348 68.6323 3.44282 69.6137 3.87719 69.9676C4.02198 70.0722 4.43221 70.1526 4.97918 70.1526C5.99269 70.1526 7.15904 69.9193 7.42448 69.5413C7.10273 69.0345 6.6362 68.2945 6.1214 67.9808C5.97661 67.8923 5.73529 67.844 5.42159 67.844C4.73787 67.836 3.93349 68.0612 3.61979 68.3428Z" fill="#BF0A30"/>
<path d="M15.9339 22.0102H15.9017C14.8319 21.962 13.0623 21.9057 12.0166 19.3156L12.1373 19.2593C13.1508 21.785 14.8078 21.8413 15.9098 21.8815H15.942L15.9339 22.0102Z" fill="white"/>
<path d="M11.1249 1.37801C9.95857 0.565593 8.78418 0.412762 7.54544 1.3941C6.86977 1.49063 6.6365 0.436893 6.57215 0.0910115C6.0493 -0.0939949 5.6632 1.33779 6.60432 2.23869C6.70889 2.67306 6.3791 2.95459 6.21822 3.11546C5.98495 3.33264 5.43798 3.30851 4.94731 2.93046C4.45664 2.5524 4.13489 2.36739 3.51552 1.58715C2.92028 0.839081 3.02485 1.5228 3.02485 1.99738C3.02485 2.46392 4.03032 3.62222 4.52099 3.89571C5.00362 4.17724 5.10014 4.30594 5.00362 4.70813C4.90709 5.11836 4.74622 5.35967 4.61752 5.52055C4.48882 5.66533 4.42447 5.85838 4.0625 5.57685C3.70857 5.28728 3.32247 5.07814 3.2179 4.66791C3.12138 4.26572 2.8318 4.50703 2.86398 4.98966C2.89615 5.44815 3.17768 6.33297 3.8051 6.66276C4.23142 6.87994 4.25555 7.07299 4.29577 7.3143C4.29577 7.59584 4.19924 7.93367 3.77292 8.09455C3.3466 8.25542 2.24461 8.16694 2.01938 7.87737C1.79416 7.59584 1.72981 7.84519 1.79416 8.22325C1.85046 8.59326 2.76745 9.25285 3.419 9.30916C4.07054 9.36546 4.33598 9.36546 4.29577 9.80787C4.26359 10.2503 4.29577 11.4086 4.32794 11.8349C4.36012 12.2693 4.32794 12.3336 4.00619 12.2693C3.6764 12.213 2.9605 11.9877 2.63875 11.7062C2.30896 11.4327 2.27678 11.5775 2.4457 12.1003C2.60658 12.6312 3.74075 13.5643 4.56121 13.6608C4.98753 13.8137 5.23689 14.3124 5.75973 14.5698C6.28257 14.803 7.85111 15.1731 8.55896 15.2857C9.25876 15.3902 12.1706 15.4385 12.4924 15.1891C12.5245 14.8513 12.235 14.5296 11.4225 14.4411C10.6021 14.3445 11.0284 14.9076 9.56443 14.4732C8.10046 14.0389 5.81604 13.8137 6.18605 9.67917C6.35497 7.87737 6.65259 7.86932 6.70889 7.32235C6.77324 6.72711 6.70889 6.25253 6.70889 5.72968C6.70889 5.20684 7.65001 3.46135 8.36591 2.64893C9.78161 1.02409 11.9052 1.90086 11.1249 1.37801Z" fill="#BF0A30"/>
<path d="M10.5056 15.4303C9.70927 15.4303 8.88076 15.3901 8.54293 15.3498C7.8753 15.2453 6.27459 14.8753 5.72761 14.6259C5.45413 14.4892 5.24499 14.2961 5.06803 14.1272C4.89106 13.9583 4.72214 13.8054 4.52909 13.725C3.71667 13.6285 2.55033 12.6954 2.37337 12.1243C2.25271 11.7382 2.25271 11.6175 2.30097 11.5451C2.35728 11.4647 2.46989 11.4888 2.66294 11.6497C2.96056 11.8991 3.62819 12.1243 3.99821 12.1967C4.15908 12.2289 4.21539 12.2047 4.22343 12.1967C4.27169 12.1404 4.25561 11.9876 4.23952 11.8267C4.21539 11.4084 4.18321 10.2421 4.20734 9.78357C4.23148 9.44573 4.08669 9.42964 3.49145 9.36529L3.39492 9.35725C2.74338 9.30094 1.78617 8.65744 1.71378 8.22308C1.6816 8.07025 1.65747 7.82893 1.74595 7.72436C1.81835 7.64393 1.92292 7.6761 2.05162 7.82089C2.17227 7.97372 2.67099 8.09438 3.18579 8.09438C3.41906 8.09438 3.61211 8.07829 3.73276 8.02198C4.05451 7.90133 4.21539 7.66002 4.21539 7.30609C4.18321 7.08086 4.16713 6.9039 3.76494 6.71085C3.11339 6.37301 2.82382 5.46407 2.79164 4.9734C2.77556 4.75622 2.82382 4.55513 2.92034 4.4586C2.96056 4.41838 3.00882 4.38621 3.05709 4.38621C3.11339 4.38621 3.21796 4.41838 3.26622 4.64361C3.34666 4.94927 3.61211 5.15841 3.90168 5.3595C3.96603 5.40776 4.03038 5.45603 4.08669 5.51233C4.1993 5.60081 4.28778 5.64103 4.35213 5.64103C4.40844 5.64103 4.44866 5.59277 4.51301 5.51233C4.52909 5.49624 4.54518 5.47211 4.56127 5.45603C4.73823 5.23884 4.85889 4.98949 4.93128 4.66774C5.01976 4.31381 4.95541 4.2012 4.48083 3.92771C3.95799 3.63814 2.94447 2.47179 2.94447 1.97308C2.94447 1.91677 2.94447 1.83634 2.94447 1.77199C2.93643 1.52263 2.92839 1.30545 3.01687 1.21697C3.04904 1.18479 3.07317 1.17675 3.11339 1.17675C3.18579 1.17675 3.2984 1.21697 3.54776 1.53872C4.0706 2.18222 4.37626 2.41549 4.75432 2.70506C4.82671 2.75332 4.89106 2.80159 4.96346 2.86594C5.22086 3.05899 5.51848 3.1716 5.77588 3.1716C5.93675 3.1716 6.06545 3.13138 6.14589 3.05094L6.17002 3.03486C6.33089 2.89007 6.59634 2.62462 6.5159 2.25461C5.92871 1.69155 5.83218 0.887174 6.03328 0.380417C6.14589 0.0908419 6.35503 -0.0539454 6.55612 0.0184484L6.58829 0.034536L6.59634 0.0667108C6.717 0.661949 6.95831 1.37784 7.4892 1.32958C8.07639 0.863043 8.65554 0.629774 9.26687 0.629774C9.8621 0.629774 10.4734 0.854999 11.125 1.29741C11.2698 1.39393 11.3502 1.46632 11.318 1.53872C11.3019 1.61916 11.1893 1.61916 10.9561 1.6272C10.401 1.63524 9.25882 1.67546 8.37401 2.67289C7.6742 3.46922 6.73308 5.20667 6.73308 5.71343C6.73308 5.89843 6.74113 6.05931 6.74917 6.22823C6.76526 6.56606 6.78134 6.9039 6.73308 7.30609C6.70895 7.51523 6.66069 7.63588 6.58829 7.8048C6.48373 8.10242 6.31481 8.51265 6.21828 9.679C5.88045 13.4033 7.69029 13.902 9.15425 14.2961C9.291 14.3363 9.42774 14.3685 9.5484 14.4007C9.91841 14.5052 10.208 14.5696 10.401 14.5696C10.586 14.5696 10.6826 14.5052 10.7791 14.465C10.9158 14.3926 11.0526 14.3283 11.3904 14.3685C12.4683 14.4892 12.5326 14.9798 12.5246 15.1729L12.5165 15.2051L12.5005 15.2211C12.3074 15.4142 11.1652 15.4303 10.5056 15.4303ZM2.40554 11.6256C2.40554 11.6336 2.38141 11.706 2.50207 12.0921C2.66294 12.615 3.79711 13.5159 4.56127 13.6043C4.80258 13.6848 4.97954 13.8537 5.16455 14.0307C5.34151 14.2157 5.53456 14.3765 5.78392 14.4972C6.28263 14.7466 7.82703 15.1085 8.56706 15.2131C8.9049 15.2614 9.71732 15.3016 10.5056 15.3016C11.5191 15.3016 12.2431 15.2453 12.4281 15.1407C12.4361 14.8029 12.0661 14.5776 11.4065 14.4892C11.1089 14.4489 10.9882 14.5052 10.8676 14.5857C10.763 14.642 10.6504 14.6903 10.4332 14.6903C10.2241 14.6903 9.9345 14.642 9.55644 14.5213C9.42774 14.4811 9.29904 14.4489 9.1623 14.4168C7.73855 14.0307 5.77588 13.4998 6.12176 9.67095C6.22633 8.47243 6.39525 8.07025 6.5159 7.75654C6.57221 7.61175 6.62047 7.48305 6.6446 7.29805C6.68482 6.91195 6.67678 6.57411 6.66069 6.22823C6.65265 6.06735 6.6446 5.89039 6.6446 5.71343C6.6446 5.17449 7.57768 3.42096 8.3177 2.60049C9.23469 1.55481 10.4171 1.52263 10.9802 1.51459C11.0687 1.50654 11.1491 1.50654 11.2054 1.4985C11.1893 1.48241 11.1491 1.45828 11.0848 1.41806C9.8058 0.533248 8.7038 0.541292 7.58572 1.45024L7.57768 1.45828H7.56159C7.52941 1.45828 7.50528 1.46632 7.47311 1.46632C7.1594 1.46632 6.74917 1.23306 6.52395 0.131061C6.39525 0.114973 6.26654 0.219542 6.18611 0.42868C6.02523 0.806737 6.02523 1.59502 6.66069 2.19026L6.66873 2.19831L6.67678 2.21439C6.78134 2.66484 6.46764 2.96246 6.29872 3.12334L6.26654 3.13943C6.16198 3.23595 6.0011 3.3003 5.80805 3.3003C5.51848 3.3003 5.19673 3.1716 4.91519 2.96246C4.83476 2.90616 4.77041 2.85789 4.70606 2.80159C4.328 2.52006 4.00625 2.27874 3.47536 1.60307C3.25014 1.31349 3.16166 1.28936 3.13752 1.28936C3.08122 1.34567 3.08926 1.58698 3.08926 1.76394C3.09731 1.83634 3.09731 1.90873 3.09731 1.96504C3.09731 2.3994 4.09473 3.54161 4.56931 3.80706C5.05998 4.09663 5.18868 4.24142 5.08411 4.69991C5.00367 5.02166 4.86693 5.29515 4.67388 5.52842C4.66584 5.54451 4.64171 5.56864 4.63366 5.58473C4.56931 5.66516 4.49692 5.76169 4.37626 5.76169C4.27974 5.76169 4.17517 5.70538 4.03842 5.59277C3.97407 5.55255 3.91777 5.50429 3.84538 5.44798C3.53971 5.22276 3.25818 5.01362 3.1697 4.65165C3.14557 4.54708 3.10535 4.50686 3.08122 4.50686C3.07317 4.50686 3.04904 4.51491 3.03296 4.52295C2.97665 4.59534 2.92839 4.75622 2.93643 4.94927C2.97665 5.41581 3.25014 6.26845 3.85342 6.58215C4.31191 6.82346 4.33604 7.04065 4.37626 7.28196C4.37626 7.57958 4.27974 7.95763 3.8132 8.12655C3.66841 8.17482 3.45927 8.20699 3.20992 8.20699C2.74338 8.20699 2.15619 8.10242 1.97922 7.88524C1.89879 7.78067 1.86661 7.78067 1.86661 7.78067C1.85052 7.79676 1.81835 7.92546 1.85857 8.16677C1.91487 8.51265 2.79969 9.15615 3.43514 9.21246L3.53167 9.2205C4.11082 9.26877 4.40039 9.30094 4.36822 9.76748C4.33604 10.2179 4.36822 11.3843 4.40039 11.7945C4.41648 12.0519 4.41648 12.1806 4.34409 12.253C4.29582 12.3013 4.22343 12.3093 4.17517 12.3093C4.13495 12.3093 4.0706 12.3013 3.99821 12.2932C3.69254 12.2369 2.95252 12.0117 2.59859 11.7221C2.46185 11.6417 2.41359 11.6256 2.40554 11.6256Z" fill="#BF0A30"/>
<path d="M15.934 3.23628C16.0305 2.92258 15.9018 2.86627 15.572 3.04323C15.2503 3.23628 14.9607 3.42129 14.5987 3.54195C14.2368 3.67065 14.1724 3.70282 14.1724 3.10758C14.1724 2.52039 14.0437 1.61949 13.9472 1.17708C13.8506 0.734675 13.6496 0.662281 13.5852 1.29774C13.5209 1.92515 13.5852 2.42386 13.4243 2.8904C13.2635 3.35694 12.9658 3.94413 12.4189 4.19349C11.8638 4.44285 11.5099 4.79677 11.3169 4.85308C11.1238 4.90938 10.5286 4.98178 10.3114 4.38654C10.0781 3.78326 10.0781 3.58216 10.1183 3.38911C10.1505 3.20411 9.9816 3.22824 9.73225 3.50977C9.4668 3.78326 9.43463 4.19349 9.43463 4.62785C9.43463 5.06222 9.88508 5.43223 9.88508 5.65745C9.88508 5.87463 9.9253 6.09182 9.82877 6.31704C9.73225 6.53422 9.5955 7.19381 9.27375 6.92837C8.94396 6.67901 8.75091 6.42965 8.49351 6.31704C8.23611 6.1803 7.81783 6.6227 8.00284 7.25012C8.19589 7.86949 8.59003 8.05449 8.68656 8.3682C8.78308 8.68191 8.84744 9.99304 8.65439 10.17C8.46133 10.3631 8.42916 10.4274 8.65439 10.8618C8.87961 11.2961 8.91178 12.2051 8.84743 12.6636C8.78308 13.1381 9.0807 14.0632 9.43463 14.3447C9.78855 14.6343 11.1882 14.7791 10.9629 14.2241C10.7297 13.661 10.416 13.476 10.1183 13.0979C9.82877 12.7279 9.82877 10.5722 10.1183 9.5265C10.416 8.45668 11.4536 5.32766 13.2715 4.88525C15.0894 4.45089 13.8587 4.66003 14.3815 4.6359C14.8963 4.60372 15.194 4.45089 15.387 4.13718C15.572 3.82348 15.9018 3.54999 15.934 3.23628Z" fill="#BF0A30"/>
<path d="M10.4323 14.6662C10.0382 14.6662 9.57971 14.5456 9.38666 14.3927C9.01664 14.0951 8.71098 13.1379 8.77533 12.6633C8.83968 12.2048 8.80751 11.32 8.59033 10.8857C8.35706 10.4352 8.38119 10.3387 8.59837 10.1295C8.75924 9.98476 8.72707 8.72993 8.61446 8.39209C8.57424 8.27144 8.4938 8.16687 8.38923 8.05426C8.2364 7.87729 8.05139 7.64402 7.93074 7.27401C7.83421 6.9603 7.87443 6.66269 8.03531 6.43746C8.15596 6.26854 8.35706 6.1881 8.50989 6.25245C8.67881 6.33289 8.81555 6.46159 8.96838 6.59834C9.06491 6.69486 9.16948 6.79139 9.29013 6.87987C9.33035 6.91204 9.36253 6.92813 9.3947 6.92813C9.5234 6.92813 9.61993 6.63856 9.69232 6.45355C9.70841 6.39724 9.73254 6.32485 9.74863 6.28463C9.82102 6.12376 9.82102 5.96288 9.81298 5.78592C9.81298 5.7457 9.80493 5.70548 9.80493 5.65722C9.80493 5.58482 9.72449 5.46417 9.64406 5.34351C9.50731 5.15046 9.34644 4.90915 9.34644 4.62762C9.34644 4.22543 9.37057 3.77498 9.6521 3.46127C9.75667 3.34062 9.91755 3.20387 10.0382 3.20387C10.0784 3.20387 10.1106 3.21192 10.1267 3.24409C10.1589 3.27627 10.1669 3.32453 10.1589 3.38888C10.1267 3.5578 10.1186 3.75889 10.3439 4.35413C10.5771 4.94937 11.2126 4.80458 11.2769 4.78045C11.3574 4.76436 11.4619 4.68392 11.5987 4.57935C11.7837 4.45065 12.0491 4.27369 12.3789 4.12086C12.7892 3.9439 13.127 3.50953 13.3522 2.85799C13.4488 2.56842 13.4568 2.25471 13.4729 1.91687C13.4809 1.70773 13.489 1.50664 13.5131 1.28141C13.5533 0.943577 13.6257 0.774658 13.7464 0.774658C13.8751 0.774658 13.9555 0.983796 13.9957 1.15272C14.0923 1.57903 14.229 2.49602 14.229 3.0993C14.229 3.3004 14.237 3.41301 14.2531 3.47736C14.2692 3.54975 14.2933 3.54975 14.3175 3.54975C14.3657 3.54975 14.4462 3.51758 14.5507 3.47736C14.8645 3.37279 15.1138 3.228 15.3793 3.06713L15.5401 2.97865C15.6688 2.89821 15.7734 2.87408 15.8538 2.87408C15.9262 2.87408 15.9664 2.90625 15.9906 2.93038C16.0308 2.98669 16.0308 3.09126 15.9906 3.24409C15.9664 3.45323 15.8056 3.66237 15.6447 3.85542C15.5643 3.95999 15.4838 4.05651 15.4275 4.15303C15.2103 4.49087 14.8966 4.65175 14.3738 4.68392C14.3014 4.69197 14.2692 4.69197 14.2451 4.68392C14.1325 4.72414 13.867 4.78849 13.2798 4.93328C11.4056 5.38373 10.36 8.8345 10.1669 9.52626C9.86928 10.6443 9.89341 12.7196 10.1589 13.0494C10.2554 13.1701 10.3439 13.2666 10.4404 13.3712C10.6495 13.5803 10.8506 13.7975 11.0115 14.1997C11.0678 14.3284 11.0276 14.4169 10.9954 14.4651C10.9069 14.634 10.6415 14.6662 10.4323 14.6662ZM8.38923 6.36507C8.30879 6.36507 8.20423 6.42137 8.13183 6.52594C7.99509 6.71095 7.97096 6.97639 8.05139 7.24184C8.15596 7.58772 8.33293 7.78881 8.48576 7.98186C8.59033 8.10252 8.68685 8.21513 8.73511 8.35992C8.8236 8.64949 8.92012 10.0089 8.68685 10.2341C8.51793 10.395 8.47771 10.4272 8.6949 10.8374C8.92816 11.2959 8.96838 12.2048 8.90403 12.6875C8.83968 13.1218 9.12121 14.0388 9.46709 14.3123C9.63601 14.441 10.0704 14.5536 10.4323 14.5536C10.6817 14.5536 10.8426 14.4973 10.9069 14.4088C10.9311 14.3686 10.9311 14.3203 10.9069 14.2479C10.7461 13.8779 10.553 13.6768 10.36 13.4597C10.2634 13.3551 10.1669 13.2586 10.0704 13.1379C9.77276 12.7518 9.76471 10.58 10.0623 9.50213C10.3358 8.52079 11.3735 5.27112 13.2637 4.82067C13.8268 4.67588 14.0762 4.61957 14.1968 4.57935C14.237 4.53914 14.3175 4.53914 14.3175 4.53914H14.3738L14.3818 4.55522H14.3899C14.8805 4.53914 15.1621 4.39435 15.3471 4.08869C15.4195 3.99216 15.4919 3.88759 15.5723 3.79107C15.7251 3.59802 15.8699 3.41301 15.886 3.228C15.9423 3.05908 15.9182 3.01887 15.9021 3.00278C15.9021 3.00278 15.8538 2.95452 15.6206 3.09126L15.4677 3.18778C15.1942 3.34866 14.9449 3.4854 14.6392 3.59802C14.5025 3.64628 14.414 3.67845 14.3497 3.67845C14.2531 3.67845 14.1968 3.63019 14.1646 3.53367C14.1405 3.43714 14.1325 3.33257 14.1325 3.10735C14.1325 2.51211 13.9957 1.61925 13.9072 1.19293C13.8509 0.959665 13.8027 0.911402 13.7866 0.903358C13.7866 0.903358 13.7142 0.943577 13.682 1.31359C13.6579 1.53077 13.6498 1.73187 13.6418 1.93296C13.6338 2.28688 13.6257 2.60863 13.5051 2.9143C13.2718 3.60606 12.9179 4.05651 12.4674 4.2576C12.1537 4.40239 11.9044 4.57131 11.7113 4.70805C11.5665 4.80458 11.4459 4.88502 11.3574 4.91719C11.3172 4.92524 11.2126 4.95741 11.0678 4.95741C10.8506 4.95741 10.4565 4.88502 10.2715 4.41044C10.0462 3.83933 10.0302 3.60606 10.0784 3.38083C10.0865 3.34062 10.0784 3.33257 10.0784 3.33257C10.0543 3.33257 9.95776 3.38083 9.78885 3.56584C9.56362 3.8152 9.51536 4.16108 9.51536 4.63566C9.51536 4.87697 9.66015 5.09415 9.78885 5.2872C9.88537 5.43199 9.97385 5.56069 9.97385 5.66526C9.97385 5.71352 9.9819 5.75374 9.9819 5.79396C9.9819 5.97897 9.98994 6.15593 9.9095 6.34094C9.89341 6.38116 9.87733 6.43746 9.8532 6.50181C9.77276 6.74312 9.66014 7.05683 9.44296 7.05683C9.38666 7.05683 9.32231 7.04074 9.266 6.98444C9.12926 6.88791 9.01664 6.79139 8.92012 6.70291C8.77533 6.56616 8.63859 6.4455 8.4938 6.37311C8.43749 6.36507 8.41336 6.36507 8.38923 6.36507Z" fill="#BF0A30"/>
<path d="M14.4704 13.1061C14.9289 12.6396 15.2184 11.988 15.0254 11.2399C14.8323 10.4919 14.8002 9.87251 14.3738 9.39793C13.9475 8.93943 14.213 8.25571 14.768 8.61768C15.315 8.99574 15.7976 9.64728 15.87 10.3954C15.9424 11.1515 15.9424 11.8674 15.7976 12.2374C15.6689 12.6074 15.5724 12.7039 16.0952 12.3259C16.6181 11.9478 18.0096 10.9584 18.1785 10.339C18.3394 9.71968 18.6049 8.62573 18.5003 7.84548C18.4038 7.07328 18.2027 7.07328 17.9774 6.5987C17.7522 6.13216 18.0096 5.23126 18.4279 5.72193C18.8542 6.22064 19.176 6.79175 19.176 7.19394C19.176 7.59613 19.2484 7.56395 19.5058 7.19394C19.7632 6.81588 20.286 6.34934 20.6399 5.81846C21.0019 5.27952 21.4202 5.19104 21.388 5.60128C21.3558 6.00346 21.4845 6.43782 21.1949 6.87219C20.9054 7.30655 19.8677 8.30398 19.4736 8.76247C19.0875 9.23705 19.2805 9.79207 19.2484 10.1621C19.2081 10.5401 19.2484 10.2908 19.6988 10.0173C20.1573 9.73576 20.5756 9.51858 20.9375 9.42206C21.2915 9.32553 21.6213 9.67141 21.2915 10.0736C20.9697 10.4838 20.5112 10.9745 20.093 11.1434C19.6666 11.2882 19.0875 11.626 18.7577 11.7306C18.4279 11.8271 18.1866 11.8432 17.7764 12.2293C16.6744 13.2831 15.7654 13.2187 15.3069 13.5646C14.8565 13.9185 14.0521 13.6289 14.4704 13.1061Z" fill="#BF0A30"/>
<path d="M14.8481 13.7816C14.6068 13.7816 14.3977 13.677 14.3253 13.5322C14.277 13.4357 14.2609 13.2748 14.4299 13.0657C14.7275 12.752 15.194 12.1165 14.9688 11.2558C14.9205 11.0789 14.8803 10.91 14.8481 10.741C14.7355 10.2343 14.639 9.79188 14.3333 9.446C14.084 9.1886 14.0679 8.86685 14.1564 8.68184C14.2529 8.44053 14.5264 8.39227 14.8079 8.57728C15.3066 8.91511 15.8697 9.5747 15.9421 10.4032C15.9823 10.9019 16.0306 11.8109 15.8697 12.2694C15.8536 12.3176 15.8375 12.3659 15.8214 12.4061C15.8134 12.4383 15.8054 12.4544 15.7893 12.4865C15.8697 12.4383 15.9823 12.3498 16.0708 12.2935L16.0949 12.2774C16.6097 11.9074 17.9691 10.9341 18.122 10.3469C18.2265 9.93667 18.5483 8.70597 18.4437 7.87747C18.3794 7.35462 18.2748 7.20179 18.138 6.98461C18.0817 6.89613 18.0093 6.79961 17.9369 6.63873C17.7922 6.34111 17.8324 5.91479 17.9691 5.70565C18.0496 5.56891 18.1461 5.54478 18.2104 5.54478C18.307 5.54478 18.4035 5.59304 18.492 5.70565C18.9746 6.27676 19.2561 6.83178 19.2561 7.21788C19.2561 7.33854 19.2642 7.39484 19.2722 7.42702C19.3205 7.3868 19.4331 7.23397 19.4653 7.17766C19.5859 7.00874 19.7548 6.81569 19.9398 6.6146C20.157 6.36524 20.4144 6.09176 20.6075 5.80218C20.8166 5.48847 21.0579 5.30347 21.2429 5.30347C21.3073 5.30347 21.3636 5.31955 21.4038 5.37586C21.4521 5.43217 21.4762 5.52065 21.4682 5.62522C21.4601 5.72979 21.4601 5.8424 21.4601 5.96306C21.4682 6.26872 21.4762 6.59851 21.2671 6.92831C21.0821 7.20179 20.6557 7.6442 20.2294 8.08661C19.9479 8.38422 19.6905 8.64967 19.5377 8.84272C19.2722 9.16447 19.2883 9.53448 19.3124 9.86428C19.3205 9.99298 19.3285 10.1136 19.3205 10.2102C19.3205 10.2262 19.3205 10.2504 19.3205 10.2826C19.3929 10.2102 19.5055 10.1136 19.6824 10.001C20.1972 9.67927 20.6075 9.48622 20.9292 9.38969C21.1544 9.33339 21.3797 9.42991 21.4601 9.61492C21.5405 9.77579 21.5003 9.97689 21.3555 10.1539C20.8729 10.7571 20.4707 11.103 20.1248 11.2317C19.9318 11.3041 19.6985 11.4248 19.4733 11.5293C19.2079 11.65 18.9585 11.7787 18.7815 11.827C18.7333 11.835 18.685 11.8591 18.6368 11.8672C18.3874 11.9235 18.1622 11.9878 17.8243 12.3015C17.1004 13.0094 16.4408 13.2266 15.9582 13.3794C15.7008 13.4598 15.4997 13.5322 15.3629 13.6368C15.2101 13.7253 15.0332 13.7816 14.8481 13.7816ZM14.4701 8.58532C14.3736 8.58532 14.3012 8.63358 14.2609 8.73011C14.2046 8.87489 14.2207 9.14034 14.4218 9.36556C14.7516 9.73558 14.8481 10.1941 14.9688 10.7089C15.001 10.8778 15.0412 11.0467 15.0895 11.2237C15.3308 12.1487 14.8401 12.8244 14.5184 13.1542C14.462 13.2346 14.3816 13.3633 14.4379 13.4759C14.4942 13.5966 14.6551 13.6609 14.8481 13.6609C15.009 13.6609 15.1619 13.6127 15.2825 13.5322C15.4514 13.4035 15.6686 13.3231 15.918 13.2427C16.3925 13.0818 17.028 12.8726 17.7439 12.1889C18.0978 11.8511 18.3472 11.7867 18.6046 11.7143C18.6528 11.7063 18.7011 11.6822 18.7494 11.6741C18.9183 11.6259 19.1516 11.5052 19.409 11.3765C19.6342 11.2719 19.8755 11.1593 20.0766 11.095C20.3903 10.9582 20.7844 10.6284 21.251 10.0493C21.3636 9.90449 21.3958 9.75971 21.3475 9.63905C21.2912 9.51839 21.1223 9.45404 20.9534 9.49426C20.6477 9.5747 20.2455 9.76775 19.7387 10.0815C19.5698 10.186 19.4572 10.2906 19.3929 10.3549C19.3285 10.4113 19.3044 10.4434 19.2642 10.4434H19.232L19.1998 10.4113C19.1676 10.3791 19.1676 10.3228 19.1837 10.178C19.1918 10.0815 19.1918 9.96884 19.1837 9.85623C19.1516 9.51839 19.1274 9.10816 19.4331 8.75424C19.594 8.56119 19.8594 8.2877 20.1329 7.99812C20.5351 7.57985 20.9775 7.11331 21.1464 6.86396C21.3475 6.56634 21.3395 6.25263 21.3314 5.96306C21.3234 5.85044 21.3234 5.72979 21.3395 5.61717C21.3475 5.54478 21.3314 5.48043 21.3073 5.4563C21.2268 5.37586 20.9534 5.49652 20.704 5.87457C20.5029 6.17219 20.2455 6.45372 20.0203 6.70308C19.8433 6.89613 19.6744 7.07309 19.5618 7.25006C19.3929 7.49941 19.3205 7.57181 19.2481 7.57181C19.1355 7.57181 19.1274 7.41093 19.1274 7.22592C19.1274 6.86396 18.8539 6.34111 18.3954 5.79414C18.323 5.7137 18.2587 5.67348 18.2024 5.67348C18.1461 5.67348 18.0978 5.72979 18.0656 5.77C17.9611 5.95501 17.9209 6.34915 18.0415 6.59851C18.1139 6.7433 18.1783 6.83982 18.2426 6.93635C18.3794 7.13744 18.5 7.31441 18.5644 7.86138C18.6609 8.62554 18.4196 9.66318 18.2426 10.3871C18.0737 11.0145 16.7384 11.9798 16.1673 12.39L16.1432 12.4061C15.8456 12.6152 15.7812 12.6555 15.733 12.6555C15.7008 12.6555 15.6767 12.6474 15.6606 12.6233C15.6284 12.567 15.6525 12.5187 15.7008 12.382C15.7169 12.3418 15.741 12.2935 15.749 12.2452C15.8697 11.9154 15.8858 11.28 15.8214 10.4354C15.749 9.64709 15.2182 9.02772 14.7436 8.70597C14.631 8.60945 14.5425 8.58532 14.4701 8.58532Z" fill="#BF0A30"/>
<path d="M9.47559 15.1886C9.73299 14.7703 10.4328 14.1831 11.2935 14.1429C12.1622 14.1027 13.3768 14.8508 13.3366 15.0599C13.2964 15.269 11.4302 15.8482 11.0361 15.8965C10.65 15.9367 9.82951 15.6793 9.47559 15.1886Z" fill="#002868"/>
<path d="M10.9475 15.9533C10.5373 15.9533 9.78115 15.72 9.42722 15.2133L9.41113 15.1811L9.42722 15.1409C9.68462 14.7387 10.3925 14.1274 11.2934 14.071C11.3255 14.071 11.3416 14.071 11.3738 14.071C12.138 14.071 13.1032 14.61 13.3365 14.8996C13.3847 14.9559 13.4089 15.0202 13.3928 15.0685C13.3365 15.3259 11.3738 15.905 11.044 15.9452C11.0199 15.9533 10.9797 15.9533 10.9475 15.9533ZM9.55592 15.1891C9.9018 15.6396 10.674 15.8728 11.036 15.8246C11.5025 15.7844 13.2078 15.2133 13.2802 15.0443C13.2802 15.0363 13.2641 15.0041 13.1997 14.9478C12.9021 14.6341 11.961 14.1676 11.3014 14.2078C10.4649 14.24 9.80528 14.795 9.55592 15.1891Z" fill="#002868"/>
<path d="M15.3073 13.6927C15.7014 13.4031 17.1976 11.6737 17.5435 11.5852C17.8893 11.5048 18.9752 12.1322 19.1924 12.3413C19.4096 12.5424 19.4981 13.0492 18.9752 13.1698C18.4524 13.2985 16.8919 13.6283 16.4173 13.9983C15.9347 14.3764 15.2188 14.2316 15.3073 13.6927Z" fill="#002868"/>
<path d="M15.8223 14.2798C15.6292 14.2798 15.4442 14.2074 15.3396 14.0948C15.2512 13.9822 15.219 13.8454 15.2431 13.6845V13.6684L15.2672 13.6443C15.412 13.5397 15.7418 13.1939 16.0877 12.8399C16.7956 12.116 17.3104 11.5932 17.5195 11.5449C17.5436 11.5369 17.5678 11.5288 17.608 11.5288C18.0182 11.5288 19.0076 12.0999 19.2248 12.3091C19.3454 12.4297 19.458 12.6549 19.3937 12.8882C19.3535 13.0169 19.2569 13.1697 18.9754 13.2421L18.7824 13.2984C18.1549 13.4432 16.8599 13.7328 16.4416 14.0626C16.2647 14.1913 16.0394 14.2798 15.8223 14.2798ZM15.3638 13.7248C15.3557 13.8454 15.3799 13.9339 15.4362 13.9982C15.5166 14.1028 15.6533 14.1511 15.8223 14.1511C16.0073 14.1511 16.2164 14.0787 16.3692 13.958C16.8036 13.6121 18.0745 13.3145 18.7502 13.1617L18.9432 13.1134C19.1202 13.0732 19.2328 12.9767 19.273 12.8399C19.3132 12.671 19.2328 12.486 19.1363 12.3814C18.9271 12.1964 17.978 11.6414 17.5999 11.6414C17.5678 11.6414 17.5517 11.6414 17.5436 11.6495C17.3506 11.7058 16.6669 12.3975 16.1681 12.9204C15.8303 13.2904 15.5327 13.6041 15.3638 13.7248Z" fill="#002868"/>
<path d="M31.5954 25.9028C31.885 26.0074 32.2711 25.9189 32.44 25.5972C32.6009 25.2915 33.0594 23.7391 32.818 23.0795C32.5767 22.4199 32.6652 22.066 32.255 21.6396C31.5632 22.259 30.5819 23.916 30.4854 24.2941C30.968 24.7606 31.5954 25.4846 31.5954 25.9028Z" fill="#BF0A30"/>
<path d="M32.2551 21.551L32.2953 21.5993C32.5769 21.8969 32.6332 22.1543 32.7056 22.4761C32.7538 22.645 32.794 22.83 32.8745 23.0713C33.1238 23.747 32.6573 25.3155 32.4884 25.6292C32.3034 25.9831 31.877 26.0716 31.5714 25.967L31.5312 25.959L31.5392 25.9027C31.5392 25.5166 30.944 24.8248 30.4372 24.3422L30.4131 24.3181L30.4211 24.2779C30.5096 23.9159 31.4909 22.2428 32.2068 21.5912L32.2551 21.551ZM31.6518 25.8625C31.9012 25.9188 32.239 25.8383 32.3838 25.5649C32.5366 25.2672 32.9951 23.7389 32.7619 23.1035C32.6814 22.8702 32.6332 22.6772 32.601 22.5002C32.5286 22.2026 32.4723 21.9773 32.2551 21.728C31.5875 22.3634 30.6946 23.8757 30.5579 24.2779C30.7831 24.5031 31.6036 25.3316 31.6518 25.8625Z" fill="#BF0A30"/>
<path d="M31.4908 24.2785C31.7563 24.2302 31.9574 24.0935 32.0378 23.828C32.1424 23.5465 32.6733 23.3052 32.8502 23.4339C32.8583 23.4419 32.8663 23.4339 32.8824 23.4258C32.8743 23.2971 32.8502 23.1765 32.818 23.0719C32.5767 22.4123 32.6652 22.0584 32.255 21.6321C31.5632 22.2514 30.5819 23.9085 30.4854 24.2865C30.598 24.3911 30.7106 24.5117 30.8312 24.6404L30.8393 24.6485C31.1449 24.5761 31.2093 24.3348 31.4908 24.2785Z" fill="#BF0A30"/>
<path d="M32.2551 21.5513L32.2953 21.5995C32.5768 21.8972 32.6331 22.1546 32.7055 22.4763C32.7538 22.6452 32.794 22.8302 32.8744 23.0715C32.9066 23.1681 32.9307 23.2807 32.9388 23.4335V23.5139L32.8744 23.4979C32.8664 23.5059 32.8422 23.5059 32.8181 23.4898L32.802 23.4818C32.7377 23.4496 32.609 23.4576 32.4722 23.5139C32.2792 23.5944 32.1264 23.7231 32.0781 23.8518C31.9816 24.1253 31.7885 24.2942 31.4748 24.3425C31.3622 24.3666 31.2898 24.4309 31.1933 24.5033C31.1048 24.5757 30.9922 24.6722 30.8313 24.7044L30.775 24.7125L30.7509 24.6883C30.6463 24.5677 30.5176 24.4551 30.405 24.3425L30.3809 24.3183L30.3889 24.2781C30.4774 23.9161 31.4587 22.243 32.1746 21.5915L32.2551 21.5513ZM32.8101 23.345C32.802 23.2485 32.7779 23.1681 32.7618 23.1037C32.6814 22.8704 32.6331 22.6774 32.6009 22.5004C32.5285 22.2028 32.4722 21.9776 32.2551 21.7282C31.5874 22.3637 30.6946 23.8759 30.5578 24.2781C30.6543 24.3746 30.7509 24.4872 30.8474 24.5757C30.9761 24.5355 31.0565 24.4792 31.145 24.4068C31.2335 24.3344 31.322 24.254 31.4829 24.2218C31.7483 24.1816 31.9172 24.0448 31.9896 23.8035C32.054 23.6185 32.2792 23.4657 32.4481 23.4013C32.5929 23.345 32.7135 23.3209 32.8101 23.345Z" fill="#BF0A30"/>
<path d="M23.2297 35.7649C23.1815 35.9338 23.1171 36.0947 23.0528 36.2475C22.5299 37.3576 21.621 38.1056 21.0981 38.8617C20.5833 39.6018 20.3179 40.8485 19.6663 41.7253C19.0148 42.6021 18.1059 43.9695 16.8028 44.8382C15.5077 45.715 13.1589 47.3318 12.25 48.3212C13.1589 48.4579 13.2957 48.3212 13.2957 48.3212C13.1589 49.1899 12.9015 49.0693 12.7728 50.0667C13.9392 49.3186 15.371 48.3212 16.2799 48.0799L15.7571 47.3318C16.5373 47.2112 16.666 46.9618 17.8404 46.7044C22.3932 44.0982 23.4308 38.363 23.9537 36.1188L23.2297 35.7649Z" fill="white"/>
<path d="M12.701 50.1872L12.7171 50.0505C12.7895 49.5196 12.894 49.3024 12.9986 49.0852C13.0871 48.9163 13.1675 48.7474 13.2238 48.4095C13.1595 48.4256 13.063 48.4256 12.9343 48.4256C12.7493 48.4256 12.524 48.4176 12.2505 48.3693L12.1299 48.3613L12.2103 48.2728C13.063 47.3397 15.1624 45.8516 16.7711 44.7818C17.9053 44.0176 18.7579 42.8593 19.3773 42.0147C19.4577 41.8941 19.5462 41.7895 19.6267 41.6769C19.9725 41.2184 20.2058 40.6473 20.431 40.0923C20.6241 39.6177 20.8091 39.1673 21.0504 38.8214C21.2354 38.5479 21.4767 38.2985 21.718 38.009C22.1604 37.5102 22.6592 36.9311 22.997 36.2232C23.0613 36.0704 23.1177 35.9256 23.182 35.7487L23.1981 35.6763L24.0346 36.0865L24.0186 36.1348C23.9864 36.2635 23.9542 36.4083 23.922 36.5611C23.3509 39.0707 22.1846 44.275 17.8731 46.7525L17.857 46.7606C17.2538 46.8893 16.932 47.0099 16.6505 47.1225C16.4092 47.2191 16.2 47.3075 15.8702 47.3638L16.385 48.1039L16.3046 48.136C15.5485 48.3452 14.4063 49.0772 13.3928 49.7368C13.1997 49.8655 12.9906 49.9942 12.8056 50.1148L12.701 50.1872ZM13.3847 48.136L13.3525 48.3211C13.2962 48.7474 13.1917 48.9485 13.1032 49.1335C13.0067 49.3265 12.9182 49.5115 12.8538 49.9218C13.0067 49.8333 13.1675 49.7287 13.3284 49.6161C14.3097 48.9887 15.4198 48.2728 16.1839 48.0315L15.653 47.2673L15.7496 47.2593C16.1196 47.1949 16.3368 47.1064 16.6022 47.0099C16.8837 46.8893 17.2135 46.7686 17.8249 46.6319C22.072 44.1866 23.2303 39.0144 23.7933 36.5289C23.8255 36.4002 23.8577 36.2715 23.8818 36.1509L23.2624 35.8532C23.2142 35.99 23.1659 36.1348 23.1016 36.2635C22.7557 37.0035 22.2489 37.5746 21.7985 38.0894C21.5572 38.3709 21.3239 38.6283 21.1469 38.8857C20.9056 39.2236 20.7206 39.674 20.5356 40.1406C20.3023 40.6956 20.0691 41.2747 19.7151 41.7493C19.6347 41.8458 19.5543 41.9665 19.4738 42.0871C18.8464 42.9317 17.9938 44.0981 16.8435 44.8703C15.283 45.916 13.2721 47.3317 12.3873 48.2487C12.5964 48.2808 12.7814 48.2889 12.9343 48.2889C13.1917 48.2889 13.2641 48.2487 13.2641 48.2487L13.3847 48.136Z" fill="#002868"/>
<path d="M24.3568 33.4081C24.3568 33.4081 24.4855 32.2981 24.22 31.542C23.9626 32.0487 23.9626 32.0487 23.6972 32.7968C23.6811 32.8531 23.6569 32.9336 23.6328 33.022L24.3568 33.4081Z" fill="white"/>
<path d="M24.413 33.5127L23.5684 33.0623L23.5764 33.014C23.6005 32.9175 23.6247 32.837 23.6488 32.7807C23.9142 32.0246 23.9142 32.0246 24.1716 31.5259L24.244 31.3972L24.2923 31.5259C24.5577 32.274 24.429 33.376 24.429 33.4242L24.413 33.5127ZM23.7051 32.9899L24.3003 33.3116C24.3164 33.0542 24.3727 32.2981 24.2119 31.7109C24.0188 32.0809 23.9947 32.1372 23.7614 32.821C23.7453 32.8692 23.7292 32.9255 23.7051 32.9899Z" fill="black"/>
<path d="M23.2142 18.6474C22.6914 18.8163 22.2248 18.8565 21.7422 18.8163C22.5224 18.9771 23.3912 19.1058 23.5601 19.4356C23.729 19.7735 23.8657 20.1033 24.3886 19.9424C24.5173 19.0656 24.5173 18.1889 24.0025 17.9395C23.8336 17.8993 23.6646 17.8591 23.5038 17.8188H23.4877C23.4796 18.2291 23.3027 18.4382 23.2142 18.6474Z" fill="#BF0A30"/>
<path d="M24.1395 20.0388C23.8097 20.0388 23.6729 19.7814 23.5442 19.524L23.512 19.4516C23.3753 19.1942 22.7157 19.0655 22.0803 18.9368C21.9596 18.9207 21.855 18.8886 21.7344 18.8644L21.7505 18.7357C22.2411 18.784 22.6916 18.7357 23.1742 18.5909C23.1903 18.5507 23.2225 18.5025 23.2386 18.4622C23.327 18.3014 23.4236 18.1163 23.4236 17.8107V17.7544L23.504 17.7463L23.512 17.7544C23.689 17.8026 23.8499 17.8429 24.0108 17.875C24.4853 18.1083 24.6221 18.7679 24.4532 19.9342L24.4451 19.9745L24.4129 19.9825C24.3084 20.0147 24.2279 20.0388 24.1395 20.0388ZM22.3779 18.8805C22.9731 19.0092 23.4879 19.1379 23.6247 19.4034L23.6568 19.4757C23.7775 19.7171 23.8821 19.9262 24.1395 19.9262C24.1958 19.9262 24.2601 19.9182 24.3325 19.886C24.4853 18.8081 24.3647 18.1968 23.9705 18.0037C23.8418 17.9716 23.6971 17.9313 23.5362 17.8992C23.5201 18.1887 23.4236 18.3737 23.3431 18.5346C23.319 18.5829 23.2868 18.6312 23.2707 18.6714L23.2627 18.7035L23.2305 18.7116C22.949 18.792 22.6675 18.8483 22.3779 18.8805Z" fill="#BF0A30"/>
<path d="M15.0664 16.5244C15.6295 16.6129 16.6752 16.7336 17.1497 16.6129C17.4554 16.822 17.9782 17.184 18.1472 17.3127C17.7611 17.731 16.9728 17.8999 16.3695 17.731C15.7662 17.5701 15.2916 17.192 15.0664 16.5244Z" fill="white"/>
<path d="M16.8678 17.8598C16.6828 17.8598 16.5219 17.8437 16.353 17.7874C15.6613 17.5943 15.2189 17.1841 15.0097 16.5406L14.9775 16.4441L15.0741 16.4521C15.5004 16.5165 16.0956 16.5969 16.5863 16.5969C16.8196 16.5969 16.9965 16.5808 17.1333 16.5487L17.1574 16.5406L17.1815 16.5487C17.455 16.7337 17.8974 17.0635 18.1146 17.2082L18.2353 17.3048L18.187 17.353C17.9055 17.6748 17.3987 17.8598 16.8678 17.8598ZM15.1625 16.605C15.3717 17.1519 15.7819 17.5059 16.3852 17.6748C16.538 17.7231 16.6989 17.7472 16.8678 17.7472C17.3344 17.7472 17.7848 17.5863 18.0503 17.3289H18.0422C17.8331 17.1761 17.4068 16.8704 17.1413 16.6934C17.0046 16.7256 16.8196 16.7337 16.5943 16.7337C16.1278 16.7256 15.5808 16.6693 15.1625 16.605Z" fill="white"/>
<path d="M16.5058 16.6691C16.5058 16.6772 16.5058 16.6852 16.5058 16.7013C16.6345 16.9909 16.4575 17.2402 16.2403 17.4494C16.176 17.5217 16.1518 17.5781 16.1357 17.6424C16.2162 17.6746 16.2966 17.7148 16.3771 17.7389C16.9803 17.9078 17.7606 17.7389 18.1547 17.3207C17.9858 17.2 17.463 16.83 17.1573 16.6208C16.9884 16.653 16.7551 16.6691 16.5058 16.6691Z" fill="#BF0A30"/>
<path d="M22.9645 20.7319C22.1119 20.7319 21.2995 20.7319 20.9858 20.6113C20.7043 20.4906 20.4469 20.4022 19.8838 20.4022V20.2815C20.471 20.2815 20.7364 20.37 21.034 20.4906C21.3236 20.6113 22.1521 20.6113 22.9645 20.6113V20.7319Z" fill="white"/>
<path d="M9.11319 16.838C8.60643 16.838 8.01119 16.6771 7.31139 16.3313C6.69202 16.0417 6.45875 16.0095 5.86351 16.0497L5.85547 15.921C6.45875 15.8808 6.73224 15.921 7.35965 16.2186C8.3249 16.6852 9.07297 16.8139 9.66017 16.6369L9.70038 16.7576C9.51538 16.8058 9.33037 16.838 9.11319 16.838Z" fill="white"/>
</svg>
