<svg width="145" height="64" viewBox="0 0 145 64" fill="none" xmlns="http://www.w3.org/2000/svg">
<path d="M36.4047 25.3891C34.1366 25.3891 32.3832 24.6969 31.1447 23.3125C29.9061 21.928 29.2869 19.9642 29.2869 17.4211C29.2869 14.9682 29.8987 13.042 31.1223 11.6426C32.3608 10.228 34.0619 9.52075 36.2257 9.52075C38.4938 9.52075 40.2621 10.2054 41.5305 11.5748C42.7989 12.9442 43.433 14.8554 43.433 17.3082C43.433 19.8514 42.8138 21.8378 41.5752 23.2673C40.3516 24.6819 38.6281 25.3891 36.4047 25.3891ZM36.3823 12.6809C34.4425 12.6809 33.4725 14.276 33.4725 17.4662C33.4725 18.9861 33.6591 20.1147 34.0321 20.8521C34.4947 21.77 35.2706 22.229 36.36 22.229C38.2849 22.229 39.2474 20.679 39.2474 17.5791C39.2474 15.8636 39.0161 14.6221 38.5535 13.8547C38.1058 13.0721 37.3821 12.6809 36.3823 12.6809Z" fill="#BF0A30"/>
<path d="M54.7899 11.3491L58.7293 21.0101V14.3287C58.7293 13.3204 58.5354 12.8163 58.1474 12.8163C58.0429 12.8163 57.8862 12.8464 57.6773 12.9066C57.4833 12.9518 57.3341 12.9743 57.2297 12.9743C56.9163 12.9743 56.6477 12.8314 56.4239 12.5455C56.215 12.2595 56.1105 11.9059 56.1105 11.4845C56.1105 10.988 56.2523 10.5892 56.5358 10.2882C56.8193 9.98725 57.1924 9.83677 57.6549 9.83677C57.8937 9.83677 58.3041 9.87439 58.886 9.94963C59.468 10.0249 59.9828 10.0625 60.4305 10.0625C60.8334 10.0625 61.3034 10.0324 61.8406 9.9722C62.6464 9.88191 63.1463 9.83677 63.3403 9.83677C63.8178 9.83677 64.2058 9.98725 64.5042 10.2882C64.8026 10.5892 64.9519 10.988 64.9519 11.4845C64.9519 11.9059 64.8325 12.2595 64.5937 12.5455C64.355 12.8314 64.064 12.9743 63.7208 12.9743C63.5865 12.9743 63.4074 12.9518 63.1836 12.9066C62.9598 12.8464 62.7882 12.8163 62.6688 12.8163C62.3703 12.8163 62.1764 13.0044 62.0868 13.3806C62.057 13.5311 62.0421 13.8471 62.0421 14.3287V23.5156C62.0421 24.5088 61.6392 25.0054 60.8334 25.0054C60.6841 25.0054 60.4528 24.9979 60.1395 24.9828C59.841 24.9527 59.6172 24.9377 59.468 24.9377C59.4531 24.9377 59.0875 24.9527 58.3712 24.9828C58.3712 24.9828 58.2071 24.9828 57.8788 24.9828C57.446 24.9828 57.1252 24.8775 56.9163 24.6668C56.7969 24.5464 56.6253 24.2229 56.4015 23.6962L52.0815 13.7644V20.5812C52.0815 21.6045 52.2755 22.1161 52.6635 22.1161C52.7679 22.1161 52.9246 22.0936 53.1335 22.0484C53.3574 21.9882 53.5215 21.9581 53.626 21.9581C53.9393 21.9581 54.2005 22.1011 54.4094 22.387C54.6332 22.6729 54.7451 23.0266 54.7451 23.4479C54.7451 24.5464 54.2229 25.0957 53.1783 25.0957C52.8799 25.0957 52.3874 25.0506 51.701 24.9603C51.2384 24.9001 50.7758 24.87 50.3133 24.87C49.9253 24.87 49.403 24.9076 48.7464 24.9828C48.0899 25.0581 47.672 25.0957 47.493 25.0957C46.4037 25.0957 45.859 24.5464 45.859 23.4479C45.859 23.0266 45.9709 22.6729 46.1947 22.387C46.4335 22.1011 46.7245 21.9581 47.0677 21.9581C47.202 21.9581 47.3811 21.9882 47.6049 22.0484C47.8436 22.0936 48.0227 22.1161 48.1421 22.1161C48.545 22.1161 48.7464 21.6045 48.7464 20.5812V14.3287C48.7464 13.3204 48.545 12.8163 48.1421 12.8163C48.0227 12.8163 47.8436 12.8464 47.6049 12.9066C47.3811 12.9518 47.202 12.9743 47.0677 12.9743C46.7245 12.9743 46.4335 12.8314 46.1947 12.5455C45.9709 12.2595 45.859 11.9059 45.859 11.4845C45.859 10.988 46.0082 10.5892 46.3067 10.2882C46.6051 9.98725 46.9931 9.83677 47.4706 9.83677C47.784 9.83677 48.2391 9.87439 48.836 9.94963C49.4329 10.0249 49.9029 10.0625 50.2461 10.0625C50.5296 10.0625 51.0146 10.0324 51.701 9.9722C52.0144 9.95715 52.3725 9.92706 52.7754 9.88191C52.9545 9.85181 53.1485 9.83677 53.3574 9.83677C53.7603 9.83677 54.0736 9.99477 54.2975 10.3108C54.387 10.4312 54.5511 10.7773 54.7899 11.3491Z" fill="#BF0A30"/>
<path d="M73.9113 9.52075C75.5 9.52075 76.8239 10.055 77.8831 11.1234C78.0192 10.2355 78.4731 9.79162 79.2448 9.79162C80.1829 9.79162 80.6519 10.2431 80.6519 11.146C80.6519 11.2964 80.6217 11.5974 80.5611 12.0489C80.4704 12.726 80.425 13.185 80.425 13.4258C80.425 13.6966 80.4401 13.8998 80.4704 14.0352C80.5006 14.5168 80.5157 14.7876 80.5157 14.8478C80.5157 15.2391 80.3417 15.5702 79.9937 15.841C79.6457 16.0968 79.1994 16.2248 78.6547 16.2248C77.7771 16.2248 77.2476 15.7959 77.066 14.9381C76.8844 14.0804 76.6197 13.4935 76.2717 13.1775C75.9388 12.8464 75.4017 12.6809 74.6603 12.6809C73.6768 12.6809 72.9127 13.1399 72.368 14.0578C71.8385 14.9607 71.5737 16.2473 71.5737 17.9177C71.5737 19.3322 71.8309 20.4383 72.3453 21.2358C72.8749 22.0183 73.6011 22.4096 74.5241 22.4096C75.1142 22.4096 75.5984 22.2441 75.9766 21.913C76.37 21.5669 76.5667 21.138 76.5667 20.6264C76.5667 19.9943 76.3019 19.6783 75.7724 19.6783C75.7421 19.6783 75.6967 19.6783 75.6362 19.6783C75.5757 19.6934 75.5227 19.7009 75.4773 19.7009C75.2352 19.731 75.0991 19.746 75.0688 19.746C74.7662 19.746 74.509 19.6181 74.2971 19.3623C74.0853 19.0914 73.9794 18.7604 73.9794 18.3691C73.9794 17.9177 74.1307 17.5565 74.4333 17.2857C74.7359 17.0148 75.1293 16.8794 75.6135 16.8794C75.9312 16.8794 76.4078 16.9245 77.0433 17.0148C77.6939 17.09 78.1857 17.1276 78.5185 17.1276C79.0178 17.1276 79.5701 17.09 80.1753 17.0148C80.6595 16.9546 80.9924 16.9245 81.1739 16.9245C81.6581 16.9245 82.0439 17.075 82.3314 17.3759C82.634 17.6619 82.7853 18.0531 82.7853 18.5497C82.7853 18.9861 82.6794 19.3548 82.4676 19.6558C82.2557 19.9417 81.991 20.0846 81.6732 20.0846L81.1285 20.0395C80.72 20.0395 80.5157 20.3781 80.5157 21.0552C80.5157 21.3412 80.5233 21.6421 80.5384 21.9581L80.5838 22.9288C80.599 23.2598 80.6065 23.5758 80.6065 23.8768C80.6065 24.885 80.0467 25.3891 78.9271 25.3891C77.8679 25.3891 77.3384 25.0205 77.3384 24.2831V24.1477C76.2944 24.9753 75.1066 25.3891 73.7751 25.3891C72.6101 25.3891 71.5132 25.0882 70.4843 24.4862C69.4554 23.8693 68.7065 23.0717 68.2374 22.0936C67.6322 20.8446 67.3296 19.3924 67.3296 17.7371C67.3296 15.209 67.9197 13.2076 69.0998 11.7328C70.28 10.2581 71.8838 9.52075 73.9113 9.52075Z" fill="#002868"/>
<path d="M94.6612 20.3104H91.6426C90.7802 20.3104 90.349 20.822 90.349 21.8453C90.349 22.086 90.4776 22.2064 90.7348 22.2064C90.8105 22.2064 90.9239 22.1989 91.0752 22.1839C91.2265 22.1538 91.34 22.1387 91.4157 22.1387C91.9755 22.1387 92.2554 22.5826 92.2554 23.4705C92.2554 23.952 92.1268 24.3433 91.8696 24.6443C91.6124 24.9452 91.2719 25.0957 90.8483 25.0957C90.6365 25.0957 90.1674 25.043 89.4412 24.9377C89.1234 24.8925 88.6771 24.87 88.1021 24.87C87.4818 24.87 86.9976 24.8925 86.6496 24.9377C85.8477 25.043 85.3711 25.0957 85.2198 25.0957C84.7507 25.0957 84.3649 24.9527 84.0623 24.6668C83.7748 24.3809 83.6311 24.0047 83.6311 23.5382C83.6311 22.4848 84.032 21.9581 84.8339 21.9581C84.9247 21.9581 85.0685 21.9732 85.2652 22.0033C85.4619 22.0183 85.6056 22.0259 85.6964 22.0259C85.9839 22.0259 86.2184 21.8678 86.3999 21.5518C86.4453 21.4615 86.5513 21.1832 86.7177 20.7167L89.8497 11.8457C90.2128 10.8375 90.6213 10.2054 91.0752 9.94963C91.4081 9.7841 92.1419 9.70133 93.2767 9.70133C94.5477 9.70133 95.3496 9.7841 95.6825 9.94963C96.0153 10.1001 96.2877 10.5365 96.4995 11.2588L99.4045 20.8747C99.6315 21.6421 99.8963 22.0259 100.199 22.0259C100.29 22.0259 100.449 22.0033 100.675 21.9581H100.925C101.772 21.9581 102.196 22.4547 102.196 23.4479C102.196 23.9445 102.045 24.3433 101.742 24.6443C101.44 24.9452 101.046 25.0957 100.562 25.0957C100.35 25.0957 100.07 25.0731 99.7223 25.028C99.2986 24.9527 99.0187 24.9151 98.8825 24.9151C98.5497 24.885 98.1185 24.87 97.5889 24.87C97.0139 24.87 96.6281 24.885 96.4314 24.9151C95.6598 25.0355 95.1756 25.0957 94.9789 25.0957C94.5704 25.0957 94.2299 24.9452 93.9576 24.6443C93.7004 24.3282 93.5718 23.937 93.5718 23.4705C93.5718 22.5826 93.8592 22.1387 94.4342 22.1387C94.5099 22.1387 94.6233 22.1538 94.7746 22.1839C94.9259 22.1989 95.0394 22.2064 95.1151 22.2064C95.4025 22.2064 95.5463 22.0484 95.5463 21.7324C95.5463 21.3261 95.4631 20.9875 95.2966 20.7167C95.1302 20.4458 94.9184 20.3104 94.6612 20.3104ZM94.3207 16.8568L93.2313 12.2294L91.8242 17.0374C91.8091 17.0825 91.8015 17.1352 91.8015 17.1954C91.8015 17.3759 91.9906 17.4662 92.3689 17.4662H93.776C94.1694 17.4662 94.3661 17.3609 94.3661 17.1502C94.3661 17.1653 94.351 17.0675 94.3207 16.8568Z" fill="#002868"/>
<path d="M113.721 11.2363L115.604 19.4752L117.579 11.5748C117.745 10.9127 117.927 10.4613 118.123 10.2205C118.335 9.96468 118.63 9.83677 119.009 9.83677C119.341 9.83677 119.848 9.87439 120.529 9.94963C121.21 10.0249 121.725 10.0625 122.073 10.0625C122.436 10.0625 123.336 10.0023 124.773 9.88191C125.182 9.85181 125.484 9.83677 125.681 9.83677C126.18 9.83677 126.581 9.98725 126.884 10.2882C127.187 10.5741 127.338 10.9729 127.338 11.4845C127.338 11.9059 127.217 12.2595 126.975 12.5455C126.748 12.8314 126.46 12.9743 126.112 12.9743C125.976 12.9743 125.787 12.9518 125.545 12.9066C125.303 12.8464 125.129 12.8163 125.023 12.8163C124.614 12.8163 124.41 13.3204 124.41 14.3287V20.5812C124.41 21.6045 124.607 22.1161 125 22.1161C125.121 22.1161 125.303 22.0936 125.545 22.0484C125.787 21.9882 125.969 21.9581 126.09 21.9581C126.438 21.9581 126.733 22.1011 126.975 22.387C127.217 22.6729 127.338 23.0266 127.338 23.4479C127.338 23.9596 127.187 24.3659 126.884 24.6668C126.581 24.9527 126.18 25.0957 125.681 25.0957C125.394 25.0957 124.909 25.0506 124.229 24.9603C123.775 24.9001 123.321 24.87 122.867 24.87C122.579 24.87 122.156 24.9076 121.596 24.9828C121.036 25.0581 120.612 25.0957 120.325 25.0957C119.871 25.0957 119.5 24.9452 119.213 24.6443C118.941 24.3433 118.804 23.9445 118.804 23.4479C118.804 22.5149 119.115 22.0484 119.735 22.0484C119.826 22.0484 119.894 22.056 119.939 22.071C119.985 22.071 120.037 22.071 120.098 22.071C120.159 22.086 120.196 22.0936 120.211 22.0936C120.454 22.0936 120.597 21.928 120.643 21.597C120.658 21.4465 120.665 21.1907 120.665 20.8295V12.3197L117.511 23.4253C117.238 24.3884 116.792 24.87 116.172 24.87H114.719C114.114 24.87 113.698 24.4411 113.471 23.5834L110.452 12.3197V20.8295C110.452 21.5368 110.52 21.9356 110.657 22.0259C110.702 22.071 110.785 22.0936 110.906 22.0936C110.937 22.0936 110.982 22.086 111.042 22.071C111.088 22.071 111.133 22.071 111.179 22.071C111.224 22.056 111.292 22.0484 111.383 22.0484C111.988 22.0484 112.291 22.5074 112.291 23.4253C112.291 23.937 112.155 24.3433 111.882 24.6443C111.61 24.9452 111.247 25.0957 110.793 25.0957C110.581 25.0957 110.309 25.0731 109.976 25.028C109.552 24.9678 109.287 24.9302 109.181 24.9151C108.864 24.885 108.501 24.87 108.092 24.87C107.578 24.87 107.146 24.8925 106.798 24.9377C105.86 25.0581 105.391 25.1183 105.391 25.1183C104.922 25.1183 104.536 24.9603 104.234 24.6443C103.931 24.3282 103.78 23.9295 103.78 23.4479C103.78 23.0115 103.893 22.6579 104.12 22.387C104.362 22.1011 104.665 21.9581 105.028 21.9581C105.149 21.9581 105.323 21.9882 105.55 22.0484C105.792 22.0936 105.974 22.1161 106.095 22.1161C106.397 22.1161 106.587 21.9205 106.662 21.5293C106.692 21.3788 106.708 21.0628 106.708 20.5812V14.3287C106.708 13.8471 106.692 13.5386 106.662 13.4032C106.587 13.0119 106.397 12.8163 106.095 12.8163C105.974 12.8163 105.792 12.8464 105.55 12.9066C105.323 12.9518 105.142 12.9743 105.005 12.9743C104.657 12.9743 104.362 12.8314 104.12 12.5455C103.893 12.2595 103.78 11.9059 103.78 11.4845C103.78 10.386 104.34 9.83677 105.459 9.83677C105.822 9.83677 106.428 9.87439 107.275 9.94963C108.122 10.0249 108.758 10.0625 109.181 10.0625C109.862 10.0625 110.573 10.0173 111.315 9.92706C111.814 9.86686 112.207 9.83677 112.495 9.83677C112.873 9.83677 113.138 9.92706 113.289 10.1076C113.441 10.2882 113.584 10.6644 113.721 11.2363Z" fill="#002868"/>
<path d="M137.783 12.6809C137.284 12.6809 136.951 12.726 136.784 12.8163C136.557 12.9518 136.444 13.2527 136.444 13.7192V14.9833C136.444 15.2391 136.474 15.4347 136.535 15.5702C136.61 15.6905 136.792 15.7507 137.079 15.7507C137.745 15.7507 138.078 15.51 138.078 15.0284V14.735C138.063 14.6447 138.055 14.5318 138.055 14.3964C138.055 13.7644 138.426 13.4483 139.167 13.4483C139.939 13.4483 140.325 13.8321 140.325 14.5995C140.325 14.8102 140.31 15.0435 140.279 15.2993C140.219 15.7959 140.189 16.2548 140.189 16.6762C140.189 17.0675 140.219 17.564 140.279 18.166C140.34 18.7679 140.37 19.1893 140.37 19.43C140.37 20.3179 139.969 20.7618 139.167 20.7618C138.411 20.7618 138.032 20.3781 138.032 19.6106C138.032 19.5354 138.032 19.4977 138.032 19.4977C138.032 19.4225 138.048 19.2419 138.078 18.956C138.078 18.5949 137.753 18.4143 137.102 18.4143C136.663 18.4143 136.444 18.655 136.444 19.1366V20.8295C136.444 21.3562 136.535 21.7174 136.716 21.913C136.913 22.0936 137.268 22.1839 137.783 22.1839H139.099C140.068 22.1839 140.741 22.1011 141.119 21.9356C141.512 21.77 141.709 21.4766 141.709 21.0552C141.709 20.8446 141.686 20.5963 141.641 20.3104C141.596 20.0094 141.573 19.7611 141.573 19.5655C141.573 19.0087 141.732 18.5723 142.05 18.2563C142.367 17.9403 142.799 17.7822 143.343 17.7822C144.448 17.7822 145 18.3842 145 19.588C145 19.9793 144.977 20.3931 144.932 20.8295C144.856 21.5518 144.818 22.0033 144.818 22.1839C144.818 22.3494 144.856 22.6729 144.932 23.1545C144.977 23.4404 145 23.7338 145 24.0348C145 24.7421 144.554 25.0957 143.661 25.0957C143.374 25.0957 142.897 25.0731 142.231 25.028C141.127 24.9527 139.364 24.9001 136.943 24.87C136.943 24.87 136.27 24.87 134.923 24.87C134.167 24.87 133.539 24.8925 133.039 24.9377L131.315 25.0957C131.299 25.0957 131.269 25.1032 131.224 25.1183C131.178 25.1183 131.141 25.1183 131.11 25.1183C130.641 25.1183 130.255 24.9603 129.953 24.6443C129.665 24.3282 129.522 23.9295 129.522 23.4479C129.522 23.0266 129.635 22.6729 129.862 22.387C130.104 22.1011 130.407 21.9581 130.77 21.9581C130.891 21.9581 131.072 21.9882 131.315 22.0484C131.557 22.0936 131.731 22.1161 131.837 22.1161C132.245 22.1161 132.449 21.6045 132.449 20.5812V14.3287C132.449 13.3204 132.245 12.8163 131.837 12.8163C131.746 12.8163 131.564 12.8464 131.292 12.9066C131.095 12.9518 130.921 12.9743 130.77 12.9743C130.422 12.9743 130.127 12.8314 129.885 12.5455C129.643 12.2595 129.522 11.9059 129.522 11.4845C129.522 10.386 130.074 9.83677 131.178 9.83677C131.436 9.83677 131.958 9.86686 132.744 9.92706C133.925 10.0173 135.067 10.0625 136.171 10.0625C136.277 10.0625 137.185 10.0399 138.895 9.99477C140.136 9.96468 140.953 9.93458 141.346 9.90448C141.997 9.85934 142.678 9.83677 143.389 9.83677C144.236 9.83677 144.66 10.2054 144.66 10.9428C144.66 11.1836 144.629 11.5372 144.569 12.0037C144.523 12.4702 144.501 12.8238 144.501 13.0646C144.501 13.3054 144.531 13.6515 144.592 14.1029C144.667 14.5393 144.705 14.8704 144.705 15.0961C144.705 15.5325 144.539 15.9012 144.206 16.2022C143.888 16.5031 143.487 16.6536 143.003 16.6536C141.868 16.6536 141.301 16.0743 141.301 14.9156C141.301 14.7199 141.331 14.4491 141.391 14.1029C141.467 13.7568 141.505 13.501 141.505 13.3355C141.505 13.0044 141.331 12.8013 140.983 12.726C140.862 12.6959 140.544 12.6809 140.03 12.6809H137.783Z" fill="#002868"/>
<path d="M145 30.9431H29.2869V59.5062L36.4549 53.6471H120.424L126.568 47.788H86.6141L88.3808 45.2247L128.616 45.5909L135.784 39.512H92.3004L93.6731 37.5346H137.832L145 30.9431Z" fill="#BF0A30"/>
<path d="M49.177 34.8476L54.1072 46.6502V38.4877C54.1072 37.2559 53.8645 36.6401 53.3789 36.6401C53.2482 36.6401 53.0521 36.6768 52.7907 36.7504C52.5479 36.8055 52.3611 36.8331 52.2304 36.8331C51.8382 36.8331 51.5021 36.6584 51.2219 36.3091C50.9605 35.9598 50.8298 35.5278 50.8298 35.0131C50.8298 34.4064 51.0072 33.9192 51.362 33.5515C51.7168 33.1838 52.1837 33 52.7626 33C53.0614 33 53.575 33.046 54.3033 33.1379C55.0317 33.2298 55.676 33.2758 56.2362 33.2758C56.7404 33.2758 57.3287 33.239 58.001 33.1655C59.0095 33.0552 59.6351 33 59.8778 33C60.4754 33 60.961 33.1838 61.3345 33.5515C61.708 33.9192 61.8947 34.4064 61.8947 35.0131C61.8947 35.5278 61.7453 35.9598 61.4465 36.3091C61.1477 36.6584 60.7836 36.8331 60.3541 36.8331C60.186 36.8331 59.9619 36.8055 59.6818 36.7504C59.4016 36.6768 59.1869 36.6401 59.0375 36.6401C58.664 36.6401 58.4212 36.8699 58.3091 37.3295C58.2718 37.5133 58.2531 37.8994 58.2531 38.4877V49.7112C58.2531 50.9245 57.7489 51.5312 56.7404 51.5312C56.5537 51.5312 56.2642 51.522 55.872 51.5036C55.4985 51.4669 55.2184 51.4485 55.0317 51.4485C55.013 51.4485 54.5554 51.4669 53.659 51.5036C53.659 51.5036 53.4536 51.5036 53.0428 51.5036C52.5012 51.5036 52.0997 51.3749 51.8382 51.1176C51.6888 50.9705 51.4741 50.5752 51.1939 49.9318L45.7875 37.7983V46.1263C45.7875 47.3764 46.0303 48.0015 46.5158 48.0015C46.6466 48.0015 46.8426 47.9739 47.1041 47.9187C47.3842 47.8452 47.5896 47.8084 47.7204 47.8084C48.1125 47.8084 48.4394 47.9831 48.7008 48.3324C48.9809 48.6817 49.121 49.1137 49.121 49.6284C49.121 50.9705 48.4674 51.6415 47.1601 51.6415C46.7866 51.6415 46.1703 51.5864 45.3113 51.4761C44.7324 51.4025 44.1534 51.3657 43.5745 51.3657C43.089 51.3657 42.4353 51.4117 41.6136 51.5036C40.7919 51.5956 40.269 51.6415 40.0449 51.6415C38.6816 51.6415 38 50.9705 38 49.6284C38 49.1137 38.1401 48.6817 38.4202 48.3324C38.719 47.9831 39.0832 47.8084 39.5127 47.8084C39.6808 47.8084 39.9049 47.8452 40.185 47.9187C40.4838 47.9739 40.7079 48.0015 40.8573 48.0015C41.3615 48.0015 41.6136 47.3764 41.6136 46.1263V38.4877C41.6136 37.2559 41.3615 36.6401 40.8573 36.6401C40.7079 36.6401 40.4838 36.6768 40.185 36.7504C39.9049 36.8055 39.6808 36.8331 39.5127 36.8331C39.0832 36.8331 38.719 36.6584 38.4202 36.3091C38.1401 35.9598 38 35.5278 38 35.0131C38 34.4064 38.1868 33.9192 38.5603 33.5515C38.9338 33.1838 39.4193 33 40.0169 33C40.4091 33 40.9787 33.046 41.7257 33.1379C42.4727 33.2298 43.0609 33.2758 43.4905 33.2758C43.8453 33.2758 44.4522 33.239 45.3113 33.1655C45.7035 33.1471 46.1517 33.1103 46.6559 33.0552C46.88 33.0184 47.1228 33 47.3842 33C47.8884 33 48.2806 33.193 48.5608 33.5791C48.6728 33.7262 48.8782 34.149 49.177 34.8476Z" fill="white"/>
<path d="M68.4504 47.0087C67.7781 47.0087 67.2645 46.6594 66.9097 45.9608C66.7042 46.2366 66.6015 46.5031 66.6015 46.7605C66.6015 47.2569 66.8256 47.6705 67.2738 48.0015C67.7407 48.314 68.329 48.4702 69.0386 48.4702C70.3085 48.4702 71.2516 48.0198 71.8679 47.119C72.2601 46.5491 72.4562 45.6575 72.4562 44.4441V38.074C72.4562 37.5593 72.4001 37.21 72.2881 37.0261C72.1387 36.7687 71.8399 36.6401 71.3917 36.6401C71.1863 36.6401 70.8781 36.6768 70.4673 36.7504C70.0751 36.8055 69.7763 36.8331 69.5709 36.8331C69.16 36.8331 68.8145 36.6676 68.5344 36.3367C68.2729 36.0058 68.1422 35.5738 68.1422 35.0406C68.1422 34.4156 68.329 33.9192 68.7025 33.5515C69.0946 33.1838 69.5989 33 70.2151 33C70.626 33 71.1582 33.0368 71.8119 33.1103C72.783 33.2206 73.7821 33.2758 74.8092 33.2758C75.4255 33.2758 76.1725 33.2298 77.0502 33.1379C77.9466 33.046 78.5256 33 78.787 33C79.4406 33 79.9729 33.1838 80.3837 33.5515C80.7946 33.9192 81 34.3972 81 34.9855C81 35.5002 80.8413 35.9415 80.5238 36.3091C80.2063 36.6584 79.8048 36.8331 79.3192 36.8331C79.0765 36.8331 78.843 36.7963 78.6189 36.7228C78.2267 36.6676 78.04 36.6401 78.0587 36.6401C77.5918 36.6401 77.3584 37.118 77.3584 38.074V45.3266C77.3584 46.5215 77.1996 47.4775 76.8821 48.1945C76.5833 48.9115 76.0511 49.5733 75.2854 50.18C73.7541 51.3933 71.8866 52 69.6829 52C67.5913 52 65.8545 51.4761 64.4726 50.4282C63.0906 49.3619 62.3996 48.0198 62.3996 46.402C62.3996 45.0968 62.8572 43.9845 63.7722 43.0653C64.6873 42.1277 65.7798 41.6589 67.0497 41.6589C68.0582 41.6589 68.9172 41.9531 69.6269 42.5414C70.3365 43.1113 70.6914 43.8099 70.6914 44.6372C70.6914 45.299 70.4673 45.8597 70.0191 46.3193C69.5895 46.7789 69.0666 47.0087 68.4504 47.0087Z" fill="white"/>
<path d="M15.4906 7.72139C15.0434 7.71317 14.4866 7.70495 14.0394 7.69673C14.0394 7.33491 14.0394 6.96925 14.0394 6.60307C15.0932 6.60307 16.1219 6.60307 17 6.60307C13.8889 3.64746 12.9104 2.55146 10.1418 0C8.64953 1.44487 7.62225 2.40812 6.0815 3.85299C4.46244 5.3713 4.37649 5.33075 3 6.55373C4.60467 6.56195 4.3106 6.53728 5.91526 6.55373C5.91526 6.96925 5.91526 7.34725 5.91526 7.75429C5.45052 7.77073 5.10855 7.80362 4.64381 7.82007C4.64381 10.0649 4.60573 11.7409 4.60573 13.9858C8.46395 14.0351 11.6324 13.9364 15.4906 13.9858C15.4906 11.6705 15.4906 10.0405 15.4906 7.72139ZM6.38 7.75429C6.38 7.34725 6.38 6.94563 6.38 6.55373C7.07273 6.56195 7.77422 6.56195 8.46694 6.57017C8.46694 6.94563 8.46694 7.3 8.46694 7.69673C7.76545 7.70495 7.08149 7.73784 6.38 7.75429ZM8.92115 7.69673C8.92115 7.31847 8.92115 6.94563 8.92115 6.57017C9.61387 6.5784 10.3347 6.5784 11.0274 6.58662C11.0274 6.94563 11.0274 7.32362 11.0274 7.68028C10.3347 7.68028 9.62264 7.6885 8.92115 7.69673ZM11.5305 7.68028C11.5305 7.31847 11.5305 6.94563 11.5305 6.58662C12.2232 6.59484 12.8951 6.59484 13.5878 6.60307C13.5878 7.0165 13.5878 7.34725 13.5878 7.69673C12.8863 7.68028 12.232 7.68028 11.5305 7.68028Z" fill="#BF0A30"/>
<path d="M7.97377 55.7492C5.2531 55.5594 2.95488 55.0809 0.407072 54C0.256759 57.3333 0.150313 60.6667 0 64C6.86181 63.7607 14.0319 63.8049 21 64C20.8873 61.2937 20.5 57 20 54C18.5872 55.0976 15.3619 55.6667 14.7982 55.7492C11.4763 56.2607 11.3107 55.9884 7.97377 55.7492Z" fill="#002868"/>
<path d="M12.1412 54.9138C13.7545 54.88 14.5569 54.8444 16.1558 54.5404C16.5609 54.4644 18.8054 53.8404 20.022 53.3037C19.776 48.5321 19.3401 43.7632 19.0001 39C18.5378 39.21 16.3748 40.4467 14.8419 40.75C11.3976 41.4316 9.26657 41.4463 6.69106 41.1001C4.54963 40.8045 3.34915 40.33 1.5 39C1 45 0.745742 49.1736 0.526764 53.3037C1.77834 53.8949 3.29901 54.2533 4.62293 54.5404C7.58187 55.1907 9.13883 54.9813 12.1412 54.9138Z" fill="#002868"/>
<path d="M14.5625 40.0815C16.4124 39.5091 16.7754 39.5839 18.9999 38.2916C18.6687 33.1312 18.3638 29.1509 17.9462 24C16.9597 24.3618 15.5706 24.5448 14.5625 24.7829C9.5 25.5 6.17613 25.152 1.99989 24C1.83428 28.4654 1.66561 33.5346 1.5 38C2.50806 38.8188 4.36233 39.6816 5.5 40.0815C7.5 40.7845 12.7127 40.654 14.5625 40.0815Z" fill="#002868"/>
<path d="M17.9999 22.9158C17.6877 19.9584 17.4862 17.3199 17.1926 14C12.2752 14 7.37773 14 2.5 14C2.35876 17.0573 2.21009 20.1222 2.06886 23.1795C3.14671 23.4176 4.17053 23.602 5.26325 23.7249C9.55238 24.2088 13.8446 24.1219 17.9999 22.9158Z" fill="#002868"/>
<path d="M13.5 48.5C15.4564 52.4128 16.4448 58.8464 17 64C12.7863 64 8.12496 63.8722 4.01998 64C3.8938 60.7375 4.38503 57.5303 4.94021 54.3189C5.40286 51.6186 6.52188 48.7266 8.5239 46.9719C9.23891 46.3415 10.1642 45.8645 11.0811 46.0348C12.2588 46.2563 13 47.5 13.5 48.5Z" fill="#BF0A30"/>
</svg>
