<svg width="234" height="50" viewBox="0 0 234 50" fill="none" xmlns="http://www.w3.org/2000/svg">
<path d="M125.405 15.8684C123.137 15.8684 121.383 15.1762 120.145 13.7917C118.906 12.4073 118.287 10.4435 118.287 7.90034C118.287 5.44747 118.899 3.52129 120.122 2.12181C121.361 0.707269 123.062 0 125.226 0C127.494 0 129.262 0.684696 130.53 2.05409C131.799 3.42348 132.433 5.33461 132.433 7.78747C132.433 10.3306 131.814 12.317 130.575 13.7466C129.352 15.1611 127.628 15.8684 125.405 15.8684ZM125.382 3.16014C123.442 3.16014 122.473 4.75525 122.473 7.94548C122.473 9.46536 122.659 10.594 123.032 11.3313C123.495 12.2493 124.271 12.7083 125.36 12.7083C127.285 12.7083 128.247 11.1583 128.247 8.05834C128.247 6.34284 128.016 5.10136 127.554 4.3339C127.106 3.55139 126.382 3.16014 125.382 3.16014Z" fill="#BF0A30"/>
<path d="M143.79 1.82836L147.729 11.4893V4.80792C147.729 3.79969 147.535 3.29557 147.147 3.29557C147.043 3.29557 146.886 3.32567 146.677 3.38586C146.483 3.431 146.334 3.45358 146.23 3.45358C145.916 3.45358 145.648 3.31062 145.424 3.0247C145.215 2.73878 145.111 2.38515 145.111 1.9638C145.111 1.46721 145.252 1.06843 145.536 0.767462C145.819 0.466497 146.192 0.316015 146.655 0.316015C146.894 0.316015 147.304 0.353635 147.886 0.428877C148.468 0.504118 148.983 0.541738 149.43 0.541738C149.833 0.541738 150.303 0.511642 150.841 0.451449C151.646 0.361159 152.146 0.316015 152.34 0.316015C152.818 0.316015 153.206 0.466497 153.504 0.767462C153.803 1.06843 153.952 1.46721 153.952 1.9638C153.952 2.38515 153.832 2.73878 153.594 3.0247C153.355 3.31062 153.064 3.45358 152.721 3.45358C152.586 3.45358 152.407 3.431 152.184 3.38586C151.96 3.32567 151.788 3.29557 151.669 3.29557C151.37 3.29557 151.176 3.48367 151.087 3.85988C151.057 4.01036 151.042 4.32638 151.042 4.80792V13.9949C151.042 14.9881 150.639 15.4847 149.833 15.4847C149.684 15.4847 149.453 15.4771 149.139 15.4621C148.841 15.432 148.617 15.4169 148.468 15.4169C148.453 15.4169 148.087 15.432 147.371 15.4621C147.371 15.4621 147.207 15.4621 146.879 15.4621C146.446 15.4621 146.125 15.3567 145.916 15.1461C145.797 15.0257 145.625 14.7022 145.401 14.1755L141.082 4.24361V11.0605C141.082 12.0838 141.276 12.5954 141.663 12.5954C141.768 12.5954 141.925 12.5728 142.134 12.5277C142.357 12.4675 142.522 12.4374 142.626 12.4374C142.939 12.4374 143.2 12.5803 143.409 12.8663C143.633 13.1522 143.745 13.5058 143.745 13.9272C143.745 15.0257 143.223 15.5749 142.178 15.5749C141.88 15.5749 141.387 15.5298 140.701 15.4395C140.238 15.3793 139.776 15.3492 139.313 15.3492C138.925 15.3492 138.403 15.3868 137.746 15.4621C137.09 15.5373 136.672 15.5749 136.493 15.5749C135.404 15.5749 134.859 15.0257 134.859 13.9272C134.859 13.5058 134.971 13.1522 135.195 12.8663C135.434 12.5803 135.724 12.4374 136.068 12.4374C136.202 12.4374 136.381 12.4675 136.605 12.5277C136.844 12.5728 137.023 12.5954 137.142 12.5954C137.545 12.5954 137.746 12.0838 137.746 11.0605V4.80792C137.746 3.79969 137.545 3.29557 137.142 3.29557C137.023 3.29557 136.844 3.32567 136.605 3.38586C136.381 3.431 136.202 3.45358 136.068 3.45358C135.724 3.45358 135.434 3.31062 135.195 3.0247C134.971 2.73878 134.859 2.38515 134.859 1.9638C134.859 1.46721 135.008 1.06843 135.307 0.767462C135.605 0.466497 135.993 0.316015 136.471 0.316015C136.784 0.316015 137.239 0.353635 137.836 0.428877C138.433 0.504118 138.903 0.541738 139.246 0.541738C139.53 0.541738 140.015 0.511642 140.701 0.451449C141.014 0.436401 141.373 0.406304 141.775 0.361159C141.954 0.331063 142.148 0.316015 142.357 0.316015C142.76 0.316015 143.074 0.474021 143.297 0.790034C143.387 0.91042 143.551 1.25653 143.79 1.82836Z" fill="#BF0A30"/>
<path d="M162.911 0C164.5 0 165.824 0.534214 166.883 1.60264C167.019 0.714793 167.473 0.270869 168.245 0.270869C169.183 0.270869 169.652 0.722317 169.652 1.62521C169.652 1.7757 169.622 2.07666 169.561 2.52811C169.47 3.20528 169.425 3.66425 169.425 3.90502C169.425 4.17589 169.44 4.37904 169.47 4.51448C169.501 4.99602 169.516 5.26689 169.516 5.32708C169.516 5.71834 169.342 6.0494 168.994 6.32027C168.646 6.57609 168.199 6.704 167.655 6.704C166.777 6.704 166.248 6.27512 166.066 5.41737C165.884 4.55962 165.62 3.97274 165.272 3.65673C164.939 3.32567 164.402 3.16014 163.66 3.16014C162.677 3.16014 161.913 3.61911 161.368 4.53705C160.838 5.43995 160.574 6.72657 160.574 8.39693C160.574 9.81147 160.831 10.9175 161.345 11.7151C161.875 12.4976 162.601 12.8888 163.524 12.8888C164.114 12.8888 164.598 12.7233 164.977 12.3922C165.37 12.0461 165.567 11.6173 165.567 11.1056C165.567 10.4736 165.302 10.1576 164.772 10.1576C164.742 10.1576 164.697 10.1576 164.636 10.1576C164.576 10.1726 164.523 10.1801 164.477 10.1801C164.235 10.2102 164.099 10.2253 164.069 10.2253C163.766 10.2253 163.509 10.0974 163.297 9.84156C163.085 9.57069 162.979 9.23963 162.979 8.84838C162.979 8.39693 163.131 8.03577 163.433 7.7649C163.736 7.49403 164.129 7.3586 164.613 7.3586C164.931 7.3586 165.408 7.40374 166.043 7.49403C166.694 7.56927 167.186 7.60689 167.519 7.60689C168.018 7.60689 168.57 7.56927 169.175 7.49403C169.659 7.43384 169.992 7.40374 170.174 7.40374C170.658 7.40374 171.044 7.55423 171.331 7.85519C171.634 8.14111 171.785 8.53236 171.785 9.02896C171.785 9.46536 171.679 9.83404 171.468 10.135C171.256 10.4209 170.991 10.5639 170.673 10.5639L170.129 10.5187C169.72 10.5187 169.516 10.8573 169.516 11.5345C169.516 11.8204 169.523 12.1214 169.538 12.4374L169.584 13.408C169.599 13.7391 169.607 14.0551 169.607 14.356C169.607 15.3643 169.047 15.8684 167.927 15.8684C166.868 15.8684 166.338 15.4997 166.338 14.7623V14.6269C165.294 15.4546 164.107 15.8684 162.775 15.8684C161.61 15.8684 160.513 15.5674 159.484 14.9655C158.455 14.3485 157.706 13.551 157.237 12.5728C156.632 11.3238 156.33 9.87166 156.33 8.21635C156.33 5.68824 156.92 3.68682 158.1 2.2121C159.28 0.737365 160.884 0 162.911 0Z" fill="#002868"/>
<path d="M183.661 10.7896H180.643C179.78 10.7896 179.349 11.3012 179.349 12.3245C179.349 12.5653 179.478 12.6857 179.735 12.6857C179.81 12.6857 179.924 12.6782 180.075 12.6631C180.227 12.633 180.34 12.618 180.416 12.618C180.976 12.618 181.255 13.0619 181.255 13.9497C181.255 14.4313 181.127 14.8225 180.87 15.1235C180.612 15.4245 180.272 15.5749 179.848 15.5749C179.636 15.5749 179.167 15.5223 178.441 15.4169C178.123 15.3718 177.677 15.3492 177.102 15.3492C176.482 15.3492 175.998 15.3718 175.65 15.4169C174.848 15.5223 174.371 15.5749 174.22 15.5749C173.751 15.5749 173.365 15.432 173.062 15.1461C172.775 14.8602 172.631 14.484 172.631 14.0175C172.631 12.9641 173.032 12.4374 173.834 12.4374C173.925 12.4374 174.068 12.4524 174.265 12.4825C174.462 12.4976 174.606 12.5051 174.696 12.5051C174.984 12.5051 175.218 12.3471 175.4 12.0311C175.445 11.9408 175.551 11.6624 175.718 11.1959L178.85 2.32496C179.213 1.31672 179.621 0.684696 180.075 0.428877C180.408 0.263345 181.142 0.180579 182.277 0.180579C183.548 0.180579 184.35 0.263345 184.682 0.428877C185.015 0.579359 185.288 1.01576 185.5 1.73807L188.405 11.3539C188.631 12.1214 188.896 12.5051 189.199 12.5051C189.29 12.5051 189.449 12.4825 189.675 12.4374H189.925C190.772 12.4374 191.196 12.934 191.196 13.9272C191.196 14.4238 191.045 14.8225 190.742 15.1235C190.44 15.4245 190.046 15.5749 189.562 15.5749C189.35 15.5749 189.07 15.5524 188.722 15.5072C188.299 15.432 188.019 15.3944 187.883 15.3944C187.55 15.3643 187.118 15.3492 186.589 15.3492C186.014 15.3492 185.628 15.3643 185.431 15.3944C184.66 15.5148 184.176 15.5749 183.979 15.5749C183.57 15.5749 183.23 15.4245 182.958 15.1235C182.7 14.8075 182.572 14.4162 182.572 13.9497C182.572 13.0619 182.859 12.618 183.434 12.618C183.51 12.618 183.623 12.633 183.775 12.6631C183.926 12.6782 184.039 12.6857 184.115 12.6857C184.403 12.6857 184.546 12.5277 184.546 12.2117C184.546 11.8054 184.463 11.4668 184.297 11.1959C184.13 10.925 183.918 10.7896 183.661 10.7896ZM183.321 7.33603L182.231 2.70869L180.824 7.51661C180.809 7.56175 180.802 7.61442 180.802 7.67461C180.802 7.85519 180.991 7.94548 181.369 7.94548H182.776C183.169 7.94548 183.366 7.84014 183.366 7.62947C183.366 7.64452 183.351 7.5467 183.321 7.33603Z" fill="#002868"/>
<path d="M202.721 1.7155L204.604 9.95442L206.579 2.05409C206.745 1.39196 206.927 0.940517 207.123 0.699744C207.335 0.443925 207.63 0.316015 208.009 0.316015C208.341 0.316015 208.848 0.353635 209.529 0.428877C210.21 0.504118 210.725 0.541738 211.073 0.541738C211.436 0.541738 212.336 0.481545 213.773 0.361159C214.182 0.331063 214.484 0.316015 214.681 0.316015C215.18 0.316015 215.581 0.466497 215.884 0.767462C216.187 1.05338 216.338 1.45216 216.338 1.9638C216.338 2.38515 216.217 2.73878 215.975 3.0247C215.748 3.31062 215.46 3.45358 215.112 3.45358C214.976 3.45358 214.787 3.431 214.545 3.38586C214.303 3.32567 214.129 3.29557 214.023 3.29557C213.614 3.29557 213.41 3.79969 213.41 4.80792V11.0605C213.41 12.0838 213.607 12.5954 214 12.5954C214.121 12.5954 214.303 12.5728 214.545 12.5277C214.787 12.4675 214.969 12.4374 215.09 12.4374C215.438 12.4374 215.733 12.5803 215.975 12.8663C216.217 13.1522 216.338 13.5058 216.338 13.9272C216.338 14.4388 216.187 14.8451 215.884 15.1461C215.581 15.432 215.18 15.5749 214.681 15.5749C214.394 15.5749 213.909 15.5298 213.229 15.4395C212.775 15.3793 212.321 15.3492 211.867 15.3492C211.579 15.3492 211.156 15.3868 210.596 15.4621C210.036 15.5373 209.612 15.5749 209.325 15.5749C208.871 15.5749 208.5 15.4245 208.213 15.1235C207.941 14.8225 207.804 14.4238 207.804 13.9272C207.804 12.9942 208.115 12.5277 208.735 12.5277C208.826 12.5277 208.894 12.5352 208.939 12.5502C208.985 12.5502 209.037 12.5502 209.098 12.5502C209.159 12.5653 209.196 12.5728 209.211 12.5728C209.454 12.5728 209.597 12.4073 209.643 12.0762C209.658 11.9257 209.665 11.6699 209.665 11.3088V2.79898L206.511 13.9046C206.238 14.8677 205.792 15.3492 205.172 15.3492H203.719C203.114 15.3492 202.698 14.9204 202.471 14.0626L199.452 2.79898V11.3088C199.452 12.016 199.52 12.4148 199.657 12.5051C199.702 12.5502 199.785 12.5728 199.906 12.5728C199.937 12.5728 199.982 12.5653 200.042 12.5502C200.088 12.5502 200.133 12.5502 200.179 12.5502C200.224 12.5352 200.292 12.5277 200.383 12.5277C200.988 12.5277 201.291 12.9866 201.291 13.9046C201.291 14.4162 201.155 14.8225 200.882 15.1235C200.61 15.4245 200.247 15.5749 199.793 15.5749C199.581 15.5749 199.309 15.5524 198.976 15.5072C198.552 15.447 198.287 15.4094 198.181 15.3944C197.864 15.3643 197.501 15.3492 197.092 15.3492C196.578 15.3492 196.146 15.3718 195.798 15.4169C194.86 15.5373 194.391 15.5975 194.391 15.5975C193.922 15.5975 193.536 15.4395 193.234 15.1235C192.931 14.8075 192.78 14.4087 192.78 13.9272C192.78 13.4908 192.893 13.1371 193.12 12.8663C193.362 12.5803 193.665 12.4374 194.028 12.4374C194.149 12.4374 194.323 12.4675 194.55 12.5277C194.792 12.5728 194.974 12.5954 195.095 12.5954C195.397 12.5954 195.587 12.3998 195.662 12.0085C195.692 11.858 195.708 11.542 195.708 11.0605V4.80792C195.708 4.32638 195.692 4.01789 195.662 3.88245C195.587 3.4912 195.397 3.29557 195.095 3.29557C194.974 3.29557 194.792 3.32567 194.55 3.38586C194.323 3.431 194.142 3.45358 194.005 3.45358C193.657 3.45358 193.362 3.31062 193.12 3.0247C192.893 2.73878 192.78 2.38515 192.78 1.9638C192.78 0.865276 193.34 0.316015 194.459 0.316015C194.822 0.316015 195.428 0.353635 196.275 0.428877C197.122 0.504118 197.758 0.541738 198.181 0.541738C198.862 0.541738 199.573 0.496593 200.315 0.406303C200.814 0.346111 201.207 0.316015 201.495 0.316015C201.873 0.316015 202.138 0.406304 202.289 0.586883C202.441 0.767462 202.584 1.14367 202.721 1.7155Z" fill="#002868"/>
<path d="M226.783 3.16014C226.284 3.16014 225.951 3.20528 225.784 3.29557C225.557 3.431 225.444 3.73197 225.444 4.19847V5.46252C225.444 5.71834 225.474 5.91397 225.535 6.0494C225.61 6.16979 225.792 6.22998 226.079 6.22998C226.745 6.22998 227.078 5.98921 227.078 5.50766V5.21422C227.063 5.12393 227.055 5.01107 227.055 4.87564C227.055 4.24361 227.426 3.9276 228.167 3.9276C228.939 3.9276 229.325 4.31133 229.325 5.07879C229.325 5.28946 229.31 5.52271 229.279 5.77853C229.219 6.27512 229.189 6.7341 229.189 7.15545C229.189 7.5467 229.219 8.04329 229.279 8.64522C229.34 9.24715 229.37 9.66851 229.37 9.90928C229.37 10.7971 228.969 11.241 228.167 11.241C227.411 11.241 227.032 10.8573 227.032 10.0899C227.032 10.0146 227.032 9.977 227.032 9.977C227.032 9.90176 227.048 9.72118 227.078 9.43526C227.078 9.0741 226.753 8.89352 226.102 8.89352C225.663 8.89352 225.444 9.13429 225.444 9.61584V11.3088C225.444 11.8355 225.535 12.1966 225.716 12.3922C225.913 12.5728 226.268 12.6631 226.783 12.6631H228.099C229.068 12.6631 229.741 12.5803 230.119 12.4148C230.512 12.2493 230.709 11.9558 230.709 11.5345C230.709 11.3238 230.686 11.0755 230.641 10.7896C230.596 10.4886 230.573 10.2403 230.573 10.0447C230.573 9.48793 230.732 9.05153 231.05 8.73552C231.367 8.4195 231.799 8.26149 232.343 8.26149C233.448 8.26149 234 8.86342 234 10.0673C234 10.4585 233.977 10.8724 233.932 11.3088C233.856 12.0311 233.818 12.4825 233.818 12.6631C233.818 12.8286 233.856 13.1522 233.932 13.6337C233.977 13.9196 234 14.2131 234 14.514C234 15.2213 233.554 15.5749 232.661 15.5749C232.374 15.5749 231.897 15.5524 231.231 15.5072C230.127 15.432 228.364 15.3793 225.943 15.3492C225.943 15.3492 225.27 15.3492 223.923 15.3492C223.167 15.3492 222.539 15.3718 222.039 15.4169L220.315 15.5749C220.299 15.5749 220.269 15.5825 220.224 15.5975C220.178 15.5975 220.141 15.5975 220.11 15.5975C219.641 15.5975 219.255 15.4395 218.953 15.1235C218.665 14.8075 218.522 14.4087 218.522 13.9272C218.522 13.5058 218.635 13.1522 218.862 12.8663C219.104 12.5803 219.407 12.4374 219.77 12.4374C219.891 12.4374 220.072 12.4675 220.315 12.5277C220.557 12.5728 220.731 12.5954 220.837 12.5954C221.245 12.5954 221.449 12.0838 221.449 11.0605V4.80792C221.449 3.79969 221.245 3.29557 220.837 3.29557C220.746 3.29557 220.564 3.32567 220.292 3.38586C220.095 3.431 219.921 3.45358 219.77 3.45358C219.422 3.45358 219.127 3.31062 218.885 3.0247C218.643 2.73878 218.522 2.38515 218.522 1.9638C218.522 0.865276 219.074 0.316015 220.178 0.316015C220.436 0.316015 220.958 0.346111 221.744 0.406303C222.925 0.496593 224.067 0.541738 225.171 0.541738C225.277 0.541738 226.185 0.519166 227.895 0.474021C229.136 0.443925 229.953 0.413828 230.346 0.383731C230.997 0.338587 231.678 0.316015 232.389 0.316015C233.236 0.316015 233.66 0.684697 233.66 1.42206C233.66 1.66283 233.629 2.01647 233.569 2.48296C233.523 2.94946 233.501 3.30309 233.501 3.54387C233.501 3.78464 233.531 4.13075 233.592 4.5822C233.667 5.0186 233.705 5.34966 233.705 5.57538C233.705 6.01178 233.539 6.38046 233.206 6.68143C232.888 6.98239 232.487 7.13288 232.003 7.13288C230.868 7.13288 230.301 6.55352 230.301 5.3948C230.301 5.19917 230.331 4.92831 230.391 4.5822C230.467 4.23609 230.505 3.98027 230.505 3.81473C230.505 3.48367 230.331 3.28052 229.983 3.20528C229.862 3.17518 229.544 3.16014 229.03 3.16014H226.783Z" fill="#002868"/>
<path d="M234 21.4224H118.287V49.9855L125.455 44.1264H209.424L215.568 38.2673H175.614L177.381 35.7039L217.616 36.0701L224.784 29.9913H181.3L182.673 28.0138H226.832L234 21.4224Z" fill="#BF0A30"/>
<path d="M131.825 37.9741C132.194 37.9741 132.425 37.7457 132.518 37.2889C132.555 37.1132 132.573 36.7443 132.573 36.182V28.8819C132.573 28.3197 132.555 27.9595 132.518 27.8014C132.425 27.3445 132.194 27.1161 131.825 27.1161C131.677 27.1161 131.456 27.1513 131.16 27.2216C130.883 27.2743 130.662 27.3006 130.496 27.3006C130.071 27.3006 129.711 27.1337 129.415 26.7999C129.138 26.4661 129 26.0532 129 25.5612C129 24.9639 129.175 24.4983 129.526 24.1645C129.896 23.8131 130.385 23.6374 130.994 23.6374C131.271 23.6374 131.917 23.6901 132.933 23.7955C133.616 23.8658 134.281 23.9009 134.927 23.9009C135.444 23.9009 136.183 23.857 137.143 23.7691C138.122 23.6813 138.768 23.6374 139.082 23.6374C140.43 23.6374 141.104 24.2787 141.104 25.5612C141.104 26.0532 140.956 26.4661 140.661 26.7999C140.384 27.1337 140.033 27.3006 139.608 27.3006C139.46 27.3006 139.239 27.2743 138.943 27.2216C138.648 27.1513 138.426 27.1161 138.279 27.1161C137.78 27.1161 137.531 27.7047 137.531 28.8819V36.182C137.531 37.3768 137.78 37.9741 138.279 37.9741C138.426 37.9741 138.648 37.9478 138.943 37.8951C139.239 37.8248 139.46 37.7896 139.608 37.7896C140.033 37.7896 140.384 37.9566 140.661 38.2904C140.956 38.6242 141.104 39.0371 141.104 39.529C141.104 40.0913 140.919 40.5568 140.55 40.9258C140.199 41.2948 139.747 41.4792 139.193 41.4792C139.082 41.4792 138.999 41.4705 138.943 41.4529L137.198 41.2421C136.755 41.1894 136.266 41.163 135.73 41.163C134.9 41.163 134.032 41.2069 133.127 41.2948C132.037 41.4002 131.327 41.4529 130.994 41.4529C130.403 41.4529 129.923 41.2772 129.554 40.9258C129.185 40.5744 129 40.1088 129 39.529C129 39.0195 129.138 38.6066 129.415 38.2904C129.711 37.9566 130.08 37.7896 130.523 37.7896C130.671 37.7896 130.883 37.8248 131.16 37.8951C131.456 37.9478 131.677 37.9741 131.825 37.9741Z" fill="white"/>
<path d="M154.804 35.8658H151.121C150.068 35.8658 149.542 36.4631 149.542 37.6579C149.542 37.939 149.699 38.0795 150.013 38.0795C150.105 38.0795 150.244 38.0708 150.428 38.0532C150.613 38.018 150.751 38.0005 150.844 38.0005C151.527 38.0005 151.869 38.5188 151.869 39.5554C151.869 40.1176 151.712 40.5744 151.398 40.9258C151.084 41.2772 150.668 41.4529 150.151 41.4529C149.893 41.4529 149.32 41.3914 148.434 41.2684C148.046 41.2157 147.502 41.1894 146.8 41.1894C146.043 41.1894 145.452 41.2157 145.027 41.2684C144.049 41.3914 143.467 41.4529 143.282 41.4529C142.71 41.4529 142.239 41.286 141.87 40.9522C141.519 40.6183 141.344 40.1791 141.344 39.6344C141.344 38.4046 141.833 37.7896 142.811 37.7896C142.922 37.7896 143.098 37.8072 143.338 37.8424C143.578 37.8599 143.753 37.8687 143.864 37.8687C144.215 37.8687 144.501 37.6842 144.723 37.3153C144.778 37.2098 144.907 36.8848 145.11 36.3402L148.933 25.9829C149.376 24.8057 149.874 24.0678 150.428 23.7691C150.835 23.5759 151.73 23.4792 153.115 23.4792C154.666 23.4792 155.645 23.5759 156.051 23.7691C156.457 23.9448 156.789 24.4544 157.048 25.2977L160.593 36.5246C160.87 37.4207 161.193 37.8687 161.563 37.8687C161.673 37.8687 161.867 37.8424 162.144 37.7896H162.449C163.483 37.7896 164 38.3694 164 39.529C164 40.1088 163.815 40.5744 163.446 40.9258C163.077 41.2772 162.597 41.4529 162.006 41.4529C161.747 41.4529 161.406 41.4265 160.981 41.3738C160.464 41.286 160.122 41.2421 159.956 41.2421C159.55 41.2069 159.024 41.1894 158.377 41.1894C157.676 41.1894 157.205 41.2069 156.965 41.2421C156.023 41.3826 155.432 41.4529 155.192 41.4529C154.694 41.4529 154.278 41.2772 153.946 40.9258C153.632 40.5568 153.475 40.1 153.475 39.5554C153.475 38.5188 153.826 38.0005 154.527 38.0005C154.62 38.0005 154.758 38.018 154.943 38.0532C155.128 38.0708 155.266 38.0795 155.358 38.0795C155.709 38.0795 155.885 37.8951 155.885 37.5261C155.885 37.0517 155.783 36.6564 155.58 36.3402C155.377 36.0239 155.118 35.8658 154.804 35.8658ZM154.389 31.8336L153.06 26.4309L151.342 32.0444C151.324 32.0971 151.315 32.1586 151.315 32.2289C151.315 32.4397 151.545 32.5451 152.007 32.5451H153.724C154.204 32.5451 154.444 32.4221 154.444 32.1762C154.444 32.1937 154.426 32.0795 154.389 31.8336Z" fill="white"/>
<path d="M64.9992 42.8795C64.823 42.8795 64.7875 42.5924 64.5558 42.6869C64.4924 42.7906 64.4924 42.9199 64.5558 43.0231C64.3063 43.1366 64.0351 43.1977 63.76 43.201C63.5633 43.2256 63.3639 43.1879 63.191 43.0924C61.9725 42.5138 61.2168 41.4648 59.8015 41.3808C59.4692 41.0691 59.0963 41.3808 58.739 41.1433C57.9483 41.3016 57.2282 40.9452 56.4725 40.9305C55.9735 40.8279 55.4689 40.7536 54.9616 40.7078C54.8355 40.4458 54.5788 40.6532 54.4326 40.5151C54.1909 40.3421 53.7575 40.4704 53.5713 40.2133C49.9 38.9372 46.7672 35.6619 45.9765 31.8037C45.6292 31.9543 45.3519 32.2283 45.2008 32.5705C45.108 33.0181 44.9696 33.4558 44.7879 33.8766C44.4706 34.03 44.425 33.5104 44.2439 33.3821C44.1333 32.3926 43.7405 31.4626 43.9166 30.3595C43.5893 30.1963 43.6293 30.6564 43.4132 30.8C43.2115 31.0969 43.4888 31.6956 43.0253 31.849C42.3252 30.7705 42.7486 29.8705 42.5219 28.7423C42.139 28.7423 42.4513 29.3804 41.9479 29.2718C41.4445 28.4454 41.6356 27.3178 41.7062 26.5111C42.0157 25.9997 42.2613 25.4534 42.4363 24.8836C42.139 24.6909 41.9679 25.0664 41.7362 25.1608C41.2327 25.2847 40.6332 25.6553 40.1547 25.4577C40.2053 24.9632 40.7843 24.6614 40.9205 24.2013C40.7393 24.0032 40.5376 24.2608 40.3365 24.3252C39.7291 24.5921 39.0673 24.7176 38.4027 24.6914C38.196 24.5184 37.9543 24.4093 38.126 24.1178C38.4666 23.935 38.7228 23.6304 38.8411 23.2669C38.141 23.5442 37.2697 23.9595 36.4134 23.727C36.2123 23.7772 36 23.7003 35.8794 23.5344C35.8139 23.1883 36.1667 23.0939 36.3023 22.8024C36.0306 22.5798 35.7989 22.9607 35.5116 22.9362H33.9252C33.4217 22.773 33.8246 22.4417 33.9252 22.1546C34.0757 22.0711 34.1891 21.9352 34.2424 21.7736C33.7451 21.8184 33.2656 21.9777 32.8422 22.2386C32.4649 22.2785 32.092 22.3527 31.7292 22.4613C31.5175 22.1251 30.9384 22.5356 30.8679 22.1098L31.2407 21.6945C30.7623 21.4521 30.3344 21.9172 29.866 21.927C29.2514 21.9717 28.5163 22.1349 27.8917 21.8577C27.8617 21.7141 27.9423 21.4816 27.7356 21.462C26.6526 21.7441 25.5751 22.2834 24.316 22.2534C24.1715 22.1972 24.0398 22.1126 23.9281 22.0061C23.8376 21.808 24.0993 21.7736 24.0943 21.6006C23.5909 21.6006 23.1624 21.9668 22.664 22.0951C22.08 22.3674 21.2843 22.2141 20.7047 22.5104C20.4074 22.3178 19.6973 22.7086 19.6973 22.1049C19.2489 21.8227 18.9116 22.4117 18.4382 22.392C17.4713 22.6098 16.2827 23.2134 15.4164 22.6294C15.502 22.5405 15.4164 22.4264 15.3209 22.3674C13.9378 22.8958 12.4686 23.1736 10.9844 23.1889C10.7227 23.1343 10.7727 22.8177 10.6216 22.6944C9.97701 22.8821 9.42801 23.1889 8.78344 23.3128C7.78935 23.6381 6.72357 23.691 5.70115 23.4661C5.57501 23.125 6.01343 23.0011 6.00843 22.6796C4.66372 23.0311 3.299 23.8078 1.80314 23.7532C1.12301 23.6244 0.599568 23.8968 0.0655717 23.59C0.0766851 23.4994 0.0533441 23.4077 0 23.333C0.209487 23.0923 0.477877 22.9078 0.780715 22.7986C1.87871 21.9133 2.75 21.3987 3.90356 20.5079C6.04344 19.1221 8.06496 17.5666 9.94756 15.8577C10.481 15.5183 10.9483 15.0876 11.3273 14.5866C11.2367 14.4185 10.7633 14.3443 10.995 14.0179C12.1374 13.4415 13.2232 12.7625 14.2384 11.9897C14.5907 11.8658 14.8174 11.5443 15.1703 11.4952C16.2933 10.5057 17.9553 9.96643 19.1994 9.21487C20.8314 8.63087 22.3723 7.73086 24.0698 7.43885C24.1804 7.18179 24.3921 7.518 24.5733 7.34007C25.9736 6.7315 27.4744 6.87505 28.7886 6.53393C29.5843 6.74187 30.5717 6.20754 31.463 6.50445L31.6391 6.41549C34.0163 6.41549 36.2223 6.41549 38.7256 6.6087C39.0229 6.8363 39.4607 6.73751 39.788 6.82156C40.4926 6.97547 41.1844 7.18015 41.8579 7.43503C43.1976 8.09818 44.25 9.20123 44.0489 10.7049C43.7821 11.9515 43.641 13.5048 44.779 14.3754C44.9352 14.687 45.1163 14.9741 45.2824 15.3649C45.358 16.0919 45.368 16.493 45.4686 17.1213C45.5897 17.2348 45.5642 17.4924 45.7959 17.3685C46.2543 16.755 47.08 16.9379 47.6896 16.6066C48.5359 16.4483 49.296 16.2011 50.1829 16.3544C50.7319 16.1121 51.2403 16.4483 51.7943 16.3249C52.2844 16.48 52.7917 16.5744 53.3052 16.6071C53.9853 16.82 54.6299 16.6666 55.2545 16.9684C56.0152 16.8647 56.6447 17.2801 57.2693 17.3592C58.0044 17.3145 58.8457 18.304 59.3847 17.3936C60.5177 15.6176 60.3922 13.3373 59.722 11.4226C59.5987 10.0172 60.3127 8.66744 61.5552 7.95954C62.9504 7.14849 64.5769 7.23254 66.0172 6.53993C66.984 6.49026 67.6992 5.63937 68.586 5.73379C69.8096 5.36265 70.9632 5.48163 72.3484 5.5706C72.6218 5.6863 72.9097 5.76654 73.2047 5.80802C73.9149 6.11476 74.65 6.07 75.2746 6.48098L75.3352 6.4264C76.9266 6.79263 78.6842 7.61842 80.3362 7.98465C81.0763 8.30885 81.8387 8.58175 82.6177 8.80116C82.8294 9.08333 83.3229 8.95453 83.5946 9.2116C83.763 9.19741 83.9308 9.24325 84.068 9.3404C84.457 9.37479 84.8371 9.47522 85.191 9.63732C86.3696 9.7563 87.5282 10.3348 88.5906 10.4637C89.094 10.8544 90.147 10.3398 90.2826 11.2305C93.3399 12.601 95.9387 14.4458 98.9149 16.0291C99.1266 16.0591 99.3183 16.1694 99.4489 16.3359C99.3228 16.4303 99.2983 16.6071 99.3939 16.731C99.3956 16.7327 99.3967 16.7348 99.3983 16.7365C101.156 17.8494 102.863 19.21 104.742 20.3726C106.624 21.9106 108.61 23.322 110.685 24.597C110.634 24.8841 111.188 24.8148 110.932 25.0915C110.524 25.0915 109.96 24.9136 109.491 25.0915C109.093 25.0828 108.696 25.0227 108.313 24.9136C108.026 25.0915 107.718 24.6958 107.432 24.8492C107.22 24.567 106.963 24.9731 106.782 24.6958C106.223 24.5621 105.709 24.1418 105.125 24.2013C105.372 24.77 106.132 25.1264 106.394 25.6853L106.223 25.8584C105.311 25.8584 104.309 25.789 103.544 25.7448C103.392 25.5221 103.01 25.616 102.773 25.5025C102.331 25.306 101.874 25.1406 101.408 25.008C101.126 25.473 102.546 25.8191 101.725 26.1804L101.635 26.0668C101.487 26.1875 101.281 26.2142 101.106 26.1362C100.511 25.9233 99.8368 25.8196 99.2472 25.6018C98.4381 25.3016 97.6619 24.9223 96.9306 24.4688C96.3566 25.0326 95.9232 24.5823 95.2536 24.5031C94.5551 24.4671 93.8756 24.2652 93.2743 23.9142C92.952 23.9142 92.5892 23.5829 92.3275 23.7363C92.5742 24.1866 93.4505 24.1669 93.2893 24.8099C92.9365 24.8404 92.5814 24.829 92.2319 24.7755C91.8163 24.6647 91.4101 24.5206 91.0183 24.3449C89.2457 23.9492 87.7243 22.9154 86.1429 22.0001C85.5178 21.8402 84.9315 21.5575 84.4203 21.1689C83.6196 20.8174 83.2823 20.1302 82.5972 19.7394L82.5116 19.8584C83.0139 20.4768 83.4168 21.1678 83.7052 21.9063C83.7957 22.0498 84.0575 22.04 83.9769 22.2725C83.7202 22.5694 83.4735 22.3418 83.1812 22.2725C82.5322 21.9395 81.8587 21.6552 81.1663 21.4216C81.0452 21.2704 80.8774 21.1629 80.6879 21.1148C80.4967 21.575 81.1913 21.8522 81.3325 22.2479C81.3819 22.3855 81.4442 22.5181 81.5186 22.6436C81.0802 22.8565 80.6373 22.5497 80.2845 22.5841C79.6988 22.3996 79.132 22.1611 78.5925 21.8719C78.4463 21.9314 78.3208 21.6197 78.2096 21.8719C78.3102 22.3271 78.8692 22.4608 79.0859 22.8614C78.9198 23.1829 78.5069 23.1037 78.1796 23.1436C78.0285 22.9111 77.6762 23.1436 77.5601 22.8914C77.2078 22.9258 76.8499 22.738 76.4976 22.743C75.8975 22.5339 75.3202 22.2654 74.775 21.9417C74.675 21.9898 74.6334 22.1082 74.6822 22.2064C74.6928 22.2277 74.7073 22.2474 74.725 22.2632C75.3196 22.6785 75.5408 23.3417 76.1959 23.6386C76.1959 23.8416 76.1959 24.1582 75.9442 24.1631C74.6484 23.8919 73.4064 23.4137 72.2673 22.7484C72.2073 22.7271 72.1406 22.7386 72.0912 22.7779C72.5446 23.4307 73.1792 24.1386 73.4009 24.8852C72.8219 25.2165 72.3079 24.5932 71.7739 24.46C71.2399 24.1828 70.822 23.9901 70.3186 23.7128C70.6081 24.4005 70.9571 25.0626 71.361 25.6913C71.5422 25.9435 71.0737 26.1018 70.8976 25.9582C70.188 25.5014 69.4295 25.1215 68.636 24.8252C68.636 25.5423 69.225 26.1957 68.7972 26.8932C68.7166 27.2097 69.0539 27.749 68.5555 27.8183C68.2498 27.2327 67.8287 26.7131 67.3163 26.2895C67.2319 26.4855 67.2713 26.7114 67.4169 26.8681C67.548 27.5258 67.6536 28.2779 67.7847 28.8766C67.7186 29.1784 67.5958 29.465 67.4219 29.7226C66.8223 29.2723 66.4145 28.3324 65.7649 27.8871C65.9916 28.7429 66.5456 29.9993 65.9816 30.9097C66.0088 31.0587 65.9577 31.211 65.8455 31.3152H65.6088C65.2159 30.7711 64.9892 29.9398 64.3096 29.6429C64.1635 29.7914 64.3096 30.0435 64.234 30.192C64.194 30.9441 64.9392 31.468 65.2415 32.171C66.3345 33.655 67.1652 35.3863 68.5755 36.6482C68.5755 37.0788 67.9965 36.9795 67.7342 37.1427C67.5275 37.2022 67.2307 37.0684 67.0896 37.2666C66.495 36.9893 65.941 37.0586 65.4026 36.6384C64.5363 37.2071 63.8917 36.3316 62.9649 36.7224C64.9242 37.6328 64.6519 39.9377 66.6417 40.8481C67.1857 41.4419 67.6492 42.3321 67.543 43.1038C67.4247 43.6835 67.0574 44.1845 66.5356 44.4792L65.0247 42.9554L64.9992 42.8795Z" fill="black"/>
<path d="M72.967 6.11846C73.506 6.19105 74.0378 6.30512 74.5584 6.45958C76.7744 7.04849 78.9099 7.86446 81.1059 8.53742C82.405 9.07285 83.7414 9.51549 85.105 9.86316C85.2206 9.80367 85.3717 10.0264 85.5784 9.93739C86.732 10.3429 88.0311 10.5214 89.1041 10.8969C89.2903 11.238 88.7819 10.9313 88.7263 11.1638C88.3001 11.3286 87.8628 11.4623 87.4166 11.5644C85.5734 12.0938 84.2187 11.8313 82.4456 11.5246C82.2089 11.4012 81.961 11.3002 81.7054 11.2227C81.1764 11.178 80.7286 10.9558 80.2296 10.8816C80.1996 10.6786 79.9373 10.827 79.7862 10.8025C79.635 10.7779 79.3683 10.4663 79.046 10.5896C78.9804 10.3866 78.6937 10.5896 78.5726 10.4559C77.7113 10.1464 76.82 9.92265 75.9132 9.78784C75.732 9.67923 75.4647 9.60009 75.2586 9.48602C74.5784 9.23877 73.8133 9.22895 73.1887 8.86763C72.7153 8.73391 71.7229 9.04065 71.6473 8.26398C71.355 8.26398 71.2744 8.61547 70.9472 8.48175C70.811 8.83324 70.4437 8.80814 70.1664 8.97624C69.6986 9.07339 69.2135 9.0532 68.7562 8.91675L68.021 8.87691C67.3259 9.32719 66.4296 10.1186 65.5383 9.59408C65.191 9.77201 64.7981 9.26279 64.4809 9.67322C64.7026 10.1382 64.7365 10.6688 64.5764 11.1572C64.2941 11.6818 63.7351 11.6965 63.3578 11.8204C63.6968 12.5861 63.5579 13.4752 63 14.1056C62.8577 14.1416 62.7405 14.2404 62.6827 14.3725C63.2823 14.867 62.9444 15.6044 62.8439 16.2424C62.5116 17.0835 60.8896 16.9449 61.2974 18.1472C61.0202 18.7012 60.235 19.0374 60.4867 19.8092C60.1944 21.1944 58.2201 20.8877 58.3107 22.4165C58.2913 22.8569 58.1596 23.2854 57.9279 23.663C57.4244 23.9054 57.1472 24.2569 56.5581 24.2962C56.3364 25.0232 56.392 25.9734 55.4852 26.1955C55.843 26.5317 55.0167 27.6796 55.8374 27.5409C55.923 27.3974 55.8374 27.1103 56.0942 27.1354C56.3109 27.709 57.066 28.555 56.517 29.0299C55.6707 29.2722 55.4746 28.4459 55.0512 28.0802L54.9956 26.398H54.7339C53.8865 27.2495 53.3075 28.323 53.0669 29.49C52.6485 29.1843 52.3812 28.7187 52.3317 28.2084C52.2701 28.1266 52.1673 28.0851 52.065 28.0998C51.5616 28.7133 51.5616 29.4949 51.5616 30.301C50.8865 30.1427 50.6953 29.4845 50.2974 28.9753C50.0257 28.5501 49.9852 28.1195 49.6829 27.6888C49.2194 27.8717 49.2345 28.4508 49.0383 28.8563C48.9022 29.4403 49.1239 29.9495 48.9277 30.5035H48.7416C47.9864 29.7972 47.4208 28.9185 47.0946 27.9459C46.7606 28.0474 46.5083 28.3176 46.435 28.6533C46.5306 28.9054 46.2689 29.0588 46.2438 29.2618C45.9971 29.9593 46.43 31.0133 45.5287 31.3544C45.1947 31.8292 44.9114 32.3363 44.6824 32.8684C44.6124 32.8717 44.5457 32.8422 44.5013 32.7893C44.3712 31.7534 44.3879 30.7044 44.5518 29.6728C44.6802 29.3137 44.8714 28.9785 45.1158 28.6833C45.0503 28.3962 44.7636 28.609 44.6474 28.6833C44.144 29.2422 43.5544 29.8606 43.1366 30.4145L43.046 30.3059C42.8698 28.9256 43.5494 27.4416 44.4257 26.2987L44.2746 26.1306C43.5044 26.7266 42.8359 27.4394 42.2953 28.2428H42.0886C41.988 26.5006 42.7359 24.8152 44.1034 23.7013C44.1168 23.6052 44.0812 23.5086 44.0078 23.4442C43.7761 23.6816 43.6806 23.3405 43.4188 23.4442C42.6681 24.0331 41.908 24.7153 40.9561 24.9975C41.1173 24.4135 41.6107 23.9141 41.918 23.3601C42.462 22.8902 42.5676 22.1381 43.4288 22.3706C43.57 22.1676 44.129 22.1577 43.9323 21.7866C43.635 21.5885 43.3783 21.9995 43.081 22.0093H42.6126C42.9399 20.9357 43.8417 20.4265 44.6724 19.5357C44.6724 18.8726 43.7506 18.9517 43.5294 18.3536C43.3077 17.6064 42.7943 16.9831 42.6881 16.2064C42.1141 15.326 40.5927 14.5242 41.449 13.3819C41.8569 13.169 41.3784 12.8377 41.3734 12.5457C41.2995 12.0261 41.3267 11.4973 41.454 10.9875C41.1823 10.6164 40.5977 10.8887 40.331 10.6065C39.3236 10.3691 39.782 8.31092 38.3867 9.12251C38.12 8.92439 37.7116 9.12251 37.3793 8.99862C36.3719 9.16672 35.5861 7.7422 34.6699 8.65259C33.8036 9.2213 32.4183 9.14708 31.3003 9.19183C30.8257 8.94459 30.3284 8.74264 29.8144 8.58818C29.0898 9.16782 28.2202 9.54551 27.2962 9.68141C26.5054 9.83969 25.7853 9.5133 24.9696 9.41451C23.4231 9.99852 22.134 11.3488 20.5276 11.8881C19.6863 12.3083 18.9006 12.7886 17.9743 13.1543C16.9657 13.681 15.8855 14.0625 14.7659 14.2874C14.2102 14.396 13.6362 14.3774 13.0888 14.2328C12.706 14.2328 12.0814 14.3119 11.9053 13.9408C13.804 12.5392 15.8094 11.2822 17.9037 10.1814C21.57 8.59855 25.0907 6.91641 29.0898 6.88148C32.3788 6.75267 35.4006 6.57474 38.7346 6.99009C38.9463 7.27718 39.238 6.81216 39.4097 7.17785C40.9711 7.43 42.7187 7.76676 43.3983 9.36922C44.3401 10.7594 42.2903 12.4464 43.7911 13.7127C44.4607 14.7961 45.1659 16.0132 45.1058 17.3733C45.2203 17.7253 45.4442 18.0332 45.7454 18.2537C46.345 17.4273 47.6291 17.0022 48.5354 16.893C48.9133 16.6261 49.4417 16.7003 49.9101 16.6059C51.0915 16.5797 52.2723 16.6692 53.4359 16.8728C53.7531 16.7489 54.116 17.0857 54.4433 16.9667C54.4783 17.1697 54.7656 16.9667 54.8867 17.1004C56.3976 17.4121 57.6011 17.5605 58.8858 18.3666C59.3493 18.0943 59.626 17.4563 59.9988 16.9863C60.9229 15.2807 61.0174 13.2569 60.2556 11.4754C59.8227 10.4859 60.4467 9.49693 61.0463 8.71972C61.7008 7.6707 62.8244 7.90321 63.8113 7.47803C64.1452 7.54244 64.4914 7.47312 64.7731 7.28537C65.7844 7.10908 66.7602 6.77505 67.6643 6.29584C68.2233 6.42465 68.5911 5.80135 69.0646 6.00384C70.3187 5.6327 71.764 5.88486 72.9476 6.06333L72.967 6.11846Z" fill="#002868"/>
<path d="M30.7162 9.49287C30.6357 9.86892 30.1422 9.98736 29.9405 10.3487C29.2815 10.7662 28.4874 10.9267 27.7145 10.799C27.4806 10.627 27.26 10.4387 27.0549 10.2351C27.4022 9.96825 27.9612 10.1014 28.3696 9.89402C29.1654 9.93387 29.8805 8.4493 30.7118 9.49832L30.7162 9.49287Z" fill="#002868"/>
<path d="M37.5354 9.61108C37.9988 9.33873 38.4217 9.8485 38.8551 9.52212C38.9157 9.60617 39.1824 9.72024 39.0113 9.89326C38.3478 10.2371 37.6421 10.4953 36.9108 10.6601C36.0295 10.7638 36.2413 9.7448 35.7678 9.44298L35.8784 9.06201C36.3518 9.30926 37.0014 9.3289 37.5354 9.60617V9.61108Z" fill="#002868"/>
<path d="M35.4198 9.65088C35.6137 9.93088 35.7604 10.2398 35.8527 10.5662C36.0288 10.6797 36.3561 10.9619 36.0694 11.1349C35.6415 11.6294 34.8708 11.3379 34.2262 11.4367C34.0451 11.2981 33.6922 11.333 33.6572 11.0459C33.4005 10.0564 34.6646 10.1012 34.9719 9.34906L35.2286 9.14111C35.5509 9.21534 35.2286 9.48224 35.4148 9.6356L35.4198 9.65088Z" fill="#002868"/>
<path d="M78.0385 8.21143C77.8368 8.39427 77.5351 8.31022 77.3384 8.48869C77.419 8.22671 77.7768 8.33532 77.9174 8.21143L77.978 8.27092L78.0335 8.21143H78.0385Z" fill="black"/>
<path d="M34.3524 9.29956C34.0745 9.67179 33.7211 9.9829 33.3149 10.2149C32.8821 10.5025 32.3992 10.7088 31.8896 10.8234C31.5046 10.783 31.1834 10.5167 31.0789 10.1505C31.0661 9.93159 31.1339 9.71546 31.2701 9.54189C32.1919 9.8983 33.3299 9.64068 34.1712 9.30447H34.3474L34.3524 9.29956Z" fill="#002868"/>
<path d="M26.5814 10.2443C26.078 11.0062 25.3423 11.4565 24.5665 12.0498C22.39 13.6926 19.8261 14.7679 17.1128 15.1761C16.6383 15.3191 16.136 15.3497 15.647 15.2651C15.9343 14.9387 16.5988 14.4982 17.0017 14.0829C17.848 13.8651 18.397 13.4197 19.2427 13.1976C21.1364 12.2343 22.9662 11.1552 24.7221 9.96704C25.3511 9.98833 25.9746 10.0811 26.5814 10.2443Z" fill="#002868"/>
<path d="M72.1862 9.46256C72.1862 10.0116 72.1256 10.7288 71.4861 11.0306C71.0893 11.1627 70.6692 11.2118 70.2519 11.1742C70.3025 10.7435 70.6398 10.1552 70.1363 9.76438L69.9502 9.48221C70.5948 9.48221 71.1088 8.76994 71.7383 9.20986C71.9261 9.1913 72.1045 9.29336 72.1818 9.46202L72.1862 9.46256Z" fill="#002868"/>
<path d="M68.8873 9.53676C68.9267 9.83804 68.7978 10.1366 68.55 10.3183C68.0466 10.4422 67.2353 10.6103 66.8424 10.2687L66.7769 10.1006C67.477 9.91281 68.1316 8.88836 68.8823 9.53676H68.8873Z" fill="#002868"/>
<path d="M76.1904 11.0658C76.6938 11.5161 76.86 12.1198 77.3689 12.4805L77.3389 12.54C78.2708 13.5296 79.1571 14.8946 79.9428 15.8546C76.8855 15.7755 74.5889 13.0645 72.3074 10.9474C72.3074 10.3983 72.9069 10.0124 72.5947 9.46338C72.8264 9.46338 73.1587 9.56708 73.4509 9.58728C74.5189 10.0572 75.6619 9.94859 76.1909 11.0713L76.1904 11.0658Z" fill="#002868"/>
<path d="M69.9701 10.2589C69.8596 10.6644 69.9351 11.2484 69.4061 11.4509C69.0033 11.6932 68.3031 11.9454 67.8247 11.6337C67.7752 11.4154 67.7419 11.1938 67.7241 10.9706C68.0114 10.6191 68.3993 10.9706 68.7315 10.6884C69.1261 10.4259 69.3678 9.99363 69.3811 9.52588L69.9857 10.2632L69.9701 10.2589Z" fill="#002868"/>
<path d="M30.7668 10.5708C30.9691 10.8464 31.2375 11.0685 31.5475 11.2186C32.1971 11.3474 32.6305 10.991 33.154 10.8622C33.4562 11.2284 32.9022 11.4162 32.8772 11.7033C31.0291 13.0689 29.7444 14.8547 27.4028 15.3093C27.3172 15.5173 27.0505 15.3093 26.9644 15.5222L25.0557 15.621C26.7782 13.8253 28.8025 12.3708 30.5957 10.5156H30.8024L30.7418 10.5751L30.7668 10.5708Z" fill="#002868"/>
<path d="M38.8752 10.4124C38.6974 11.1301 38.7447 11.8833 39.0114 12.5742C38.6691 13.0988 37.8734 12.9105 37.3444 12.9847C36.8109 12.7074 36.5514 12.0983 36.7248 11.5301C36.7248 10.6099 37.8628 11.159 38.2912 10.6296C38.558 10.7087 38.6691 10.3922 38.8752 10.4167V10.4124Z" fill="#002868"/>
<path d="M40.21 11.0657L40.9501 11.3675C40.8696 11.7136 41.2069 12.4853 40.7134 12.6687C40.5778 12.6403 40.4367 12.6747 40.3306 12.7626C39.8933 12.6818 39.5071 12.4324 39.2576 12.07C39.1526 11.5482 39.2015 11.0073 39.3987 10.5117C39.751 10.5614 39.9022 10.9571 40.2044 11.0657H40.21Z" fill="#002868"/>
<path d="M29.1953 11.2833C27.1255 13.3464 24.9295 15.1219 22.1189 15.5329C21.5205 15.6469 20.9087 15.6802 20.3008 15.6316C21.6255 14.5035 23.3225 13.5735 24.6372 12.4802C25.489 12.0218 26.2937 11.4831 27.0394 10.8723C27.5428 11.4661 28.5502 11.1594 29.1948 11.2877V11.2833H29.1953Z" fill="#002868"/>
<path d="M66.3691 10.2793C66.438 10.628 66.3502 10.9888 66.1273 11.2688C65.7751 11.3332 65.3416 11.6596 65.1199 11.2688C65.5228 10.9173 64.9888 10.5811 65.1199 10.121C65.5884 10.0222 65.9156 10.3038 66.3591 10.2645L66.3691 10.2793Z" fill="#002868"/>
<path d="M80.0477 11.4267C80.2794 11.3623 80.3144 11.5353 80.375 11.6739C81.1807 12.2328 81.6192 13.3511 82.3893 13.9695C82.7622 14.7959 83.744 15.2658 84.1119 16.1216C83.614 16.1336 83.1172 16.0752 82.636 15.9486C82.0504 15.727 81.4925 15.4399 80.974 15.0928C80.6206 14.9181 80.2833 14.7123 79.9666 14.4793C78.5935 13.2403 77.3422 11.8769 76.2297 10.4082C76.6587 10.448 77.0832 10.5245 77.4989 10.6358C78.239 10.9971 79.297 10.9425 80.0472 11.4174V11.4267H80.0477Z" fill="#002868"/>
<path d="M67.4163 11.6989C67.4591 12.0886 67.353 12.48 67.119 12.7971C66.6828 13.0842 66.1227 13.1186 65.6532 12.886C65.6776 12.5782 65.6093 12.2704 65.457 12.0008C66.0977 11.938 66.6223 11.473 66.7512 10.853C66.789 10.7531 66.9023 10.7023 67.004 10.74C67.0301 10.7498 67.054 10.7645 67.0735 10.7836C67.4008 10.9517 67.3252 11.3824 67.4158 11.7039V11.6989H67.4163Z" fill="#002868"/>
<path d="M36.1956 11.6001C36.5029 12.2234 35.6922 12.5302 35.4299 12.8566C33.5212 14.2516 32.0053 16.1264 29.2703 15.9534L29.1492 15.8399C30.4861 14.3166 31.9592 12.9144 33.5512 11.6498C34.4119 11.9347 35.3471 11.9151 36.195 11.5952V11.6001H36.1956Z" fill="#002868"/>
<path d="M75.2078 14.5582L75.5351 14.7563L75.4745 14.8158C75.8018 15.098 76.3108 15.3747 76.4364 15.8594C73.8576 16.171 71.9638 14.2564 70.3374 12.5895L70.3724 11.6938C70.9364 11.8521 71.4854 11.4117 72.0394 11.2583L75.1973 14.5631L75.2078 14.5582Z" fill="#002868"/>
<path d="M65.2611 12.7225C65.1794 13.2007 64.8738 13.6133 64.4354 13.8354L63.7603 13.7961C63.9214 13.1876 64.1231 12.9256 63.9314 12.2379C64.2187 12.025 64.4754 11.7085 64.8883 11.7434C65.0522 12.0572 65.1772 12.3896 65.2611 12.7329V12.7225Z" fill="#002868"/>
<path d="M69.8945 11.7583C69.8189 12.4012 69.9245 13.1435 69.1694 13.4748C68.7565 13.4301 68.4087 13.6675 68.0814 13.4153H67.8797C67.758 13.3073 67.6185 13.2199 67.4668 13.1583C67.6318 12.8461 67.7524 12.5131 67.8246 12.1687C67.9658 11.9117 68.1469 12.2823 68.3536 12.2135C68.9732 12.2877 69.4061 11.9313 69.9301 11.778L69.8945 11.7583Z" fill="#002868"/>
<path d="M96.2049 14.909C96.6989 15.2813 97.2385 15.5907 97.8114 15.8292L98.0531 16.0765C95.4092 16.2495 92.8354 15.3544 90.5994 14.0483C90.1765 13.514 89.7331 13.4894 89.2547 13.0588C88.7062 12.7804 88.1794 12.4633 87.6782 12.1091C87.6782 11.7925 88.1216 12.1091 88.1817 11.8367C88.9474 11.9355 89.4258 10.9165 90.1459 11.5349C92.1102 12.5888 94.2807 13.7809 96.1894 14.9188L96.2049 14.909Z" fill="#002868"/>
<path d="M81.9114 11.9068C82.2337 11.9859 82.4754 12.2381 82.8283 12.1442C83.0094 12.3472 83.5634 12.189 83.8357 12.4411C85.241 12.4116 85.785 14.1282 86.7969 14.7116C87.3309 14.9889 87.6632 15.503 88.2572 15.7754C88.3761 15.8518 88.4705 15.9599 88.5289 16.087C87.8354 16.1814 87.1303 16.1596 86.444 16.0226V15.9582C84.5553 15.5129 83.0845 14.1276 81.8409 12.5994C81.483 12.4067 81.3874 11.981 81.1157 11.7834C81.2119 11.7141 81.3424 11.7141 81.438 11.7834C81.5591 11.9865 81.7303 11.7834 81.9114 11.9172V11.9068V11.9068Z" fill="#002868"/>
<path d="M37.1574 13.3313C37.4546 13.4399 37.8625 13.3313 38.1292 13.4846C37.5558 14.0337 36.949 14.5478 36.3111 15.0232C35.2181 15.771 33.9045 16.1432 32.5742 16.0821C33.5211 15.0925 34.7702 14.3061 35.6865 13.2772C36.0388 13.2128 36.1094 12.6343 36.5278 12.8269C36.6884 13.0447 36.9056 13.2156 37.1574 13.3214V13.3313Z" fill="#002868"/>
<path d="M41.111 13.0442C40.937 13.5213 40.8387 14.0218 40.8187 14.5283C40.4958 14.7548 40.083 14.817 39.7057 14.6964C39.5179 14.5774 39.3189 14.4764 39.1111 14.3945C38.925 14.078 38.6527 13.5682 38.9955 13.2124C39.2423 12.3418 39.8768 13.3062 40.3153 13.1283C40.5764 13.0732 40.8437 13.0481 41.111 13.0541V13.0442V13.0442Z" fill="#002868"/>
<path d="M88.0812 12.9797C89.0886 13.5337 89.7282 14.2711 90.6501 14.6864C91.5819 15.76 93.3145 15.6066 94.2513 16.6655C91.9348 16.9127 89.3053 16.3042 87.5933 14.7312C86.6787 14.1303 85.8758 13.3787 85.2212 12.5098C85.6596 12.3564 86.2286 12.3712 86.8026 12.2129C87.246 12.3166 87.6389 12.7472 88.0818 12.965L88.0812 12.9797Z" fill="#002868"/>
<path d="M70.9021 14.0735C71.6272 15.0085 72.6697 15.6765 73.4604 16.6955C73.2037 17.1409 72.5841 16.9777 72.1712 16.9575C70.9621 16.6601 69.9019 15.9451 69.1845 14.9441C68.8222 14.7078 68.5233 14.3885 68.3132 14.014C68.9278 13.9398 69.8241 13.9846 70.0858 13.1926C70.4737 13.3853 70.5892 13.8454 70.9015 14.0681L70.9021 14.0735Z" fill="#002868"/>
<path d="M67.079 13.8411C67.139 14.1757 66.9829 14.5119 66.6862 14.6871C66.1433 14.7722 65.5932 14.8023 65.0442 14.7761C64.2079 14.1331 65.437 13.9595 65.4826 13.3564C66.0516 13.7472 66.9934 12.8914 67.079 13.8509V13.8411V13.8411Z" fill="#002868"/>
<path d="M38.4267 14.0336C38.6078 14.3501 38.8851 14.8894 39.328 14.9931C39.0507 15.6955 38.3511 15.9379 37.7716 16.3832C37.1003 16.9017 36.2074 17.0507 35.3994 16.7789C35.5906 16.0814 36.3813 15.9231 36.8097 15.3937L38.3206 13.979H38.4967L38.4411 14.0336H38.4267V14.0336Z" fill="#002868"/>
<path d="M13.4864 14.8503C14.2216 14.8503 14.69 14.6522 15.3396 14.8503C15.3396 15.1915 14.9873 15.0283 14.8361 15.2362C12.6151 17.1258 10.9781 18.9809 8.52041 20.6778C7.91084 20.9845 7.42241 21.5385 6.71727 21.6373C5.82598 22.3447 4.59684 22.6612 3.48884 23.1213C2.69813 23.1213 1.7057 23.3882 0.935547 23.1759C1.50955 22.414 2.64311 21.9539 3.3327 21.306C6.50611 19.4121 9.45226 17.1732 12.1161 14.6326C12.5896 14.8252 13.053 14.5534 13.5014 14.8602L13.4864 14.8503Z" fill="#002868"/>
<path d="M20.6079 14.8455C19.9683 15.34 19.3587 15.5332 18.9003 16.1762L18.8397 16.1216C16.926 17.4823 15.1129 18.9958 13.2997 20.4454C13.0152 20.5589 12.7652 20.7434 12.5746 20.9797C11.2699 21.8159 9.96574 22.5926 8.32874 22.83C7.71918 23.1318 7.0946 22.9735 6.39502 23.0428C6.55616 22.5183 7.08516 22.365 7.42745 21.984C9.85016 20.0895 12.2473 18.0761 14.5794 15.9486C15.6624 15.894 16.6849 15.5578 17.7473 15.5627C17.8884 15.3548 18.2507 15.5627 18.4169 15.4044C19.147 15.1916 19.8472 14.9738 20.5773 14.7266V14.8455H20.6079Z" fill="#002868"/>
<path d="M70.5744 17.4522C69.6731 17.7589 68.7212 17.289 67.9455 16.7891C67.3459 16.4277 67.1548 15.6811 66.7064 15.305C66.6713 14.9885 67.0536 15.0081 67.2098 14.8106C67.3959 14.5617 67.5199 14.274 67.5726 13.9695C68.5801 15.0725 69.6225 16.2007 70.5594 17.4326L70.5744 17.4522Z" fill="#002868"/>
<path d="M64.5709 14.672C64.5571 15.0634 64.4965 15.452 64.3898 15.8297C64.0375 15.8892 63.8158 16.3242 63.3824 16.2548C63.2212 15.6763 63.6191 15.0328 63.2868 14.5531C63.2307 14.4046 63.3085 14.2392 63.4596 14.1846C63.4674 14.1819 63.4752 14.1792 63.4829 14.177C63.8708 14.4242 64.4498 14.0384 64.5504 14.6715H64.5709V14.672Z" fill="#002868"/>
<path d="M24.5267 15.335C24.5267 15.538 24.2394 15.6564 24.3355 15.919C24.7839 16.2803 25.4485 15.8349 25.9269 16.1662C24.8339 17.23 23.7665 18.1453 22.6735 19.0949C21.71 20.1773 20.5025 21.0238 19.1478 21.5685C18.9516 21.9495 18.7094 21.6427 18.4782 21.9593C18.2165 22.0286 18.0398 22.0581 17.7481 22.1225C17.2446 22.2513 16.5795 22.4636 16.1011 22.1569C18.3726 19.8612 21.2082 17.868 23.5704 15.7705C23.8371 15.5516 24.1588 15.4065 24.5022 15.3502L24.5267 15.335Z" fill="#002868"/>
<path d="M28.898 16.3344C29.1298 16.2406 29.1648 16.4731 29.2859 16.5271C27.5833 17.9221 26.0675 19.911 24.0932 21.0534C22.839 21.4491 21.8266 22.0822 20.4419 21.9981C20.4419 21.6816 20.8748 21.6123 20.8648 21.2711C22.1589 19.9405 23.6048 18.7976 25.0701 17.4866C25.6963 17.0216 26.2658 16.4873 26.7671 15.8934C27.4422 15.8934 28.2273 15.453 28.9325 15.3247C28.8219 15.5818 28.1012 16.21 28.8975 16.3142V16.3344H28.898Z" fill="#002868"/>
<path d="M41.0409 15.0232C41.4338 15.5624 41.9122 15.8986 42.1895 16.3839C42.1895 16.7599 41.7211 16.5078 41.5499 16.7152C41.0832 16.7566 40.637 16.5159 40.4219 16.1066C40.2358 15.676 40.6636 15.1766 41.0465 15.0232H41.0409Z" fill="#002868"/>
<path d="M40.1292 15.2012C39.9386 15.5729 39.9386 16.0117 40.1292 16.3834C40.3232 16.5662 40.4526 16.8058 40.4971 17.0662C39.6964 17.922 38.4072 18.1201 37.2537 17.9716C37.6287 17.3451 38.1461 16.8118 38.7645 16.4134C39.1974 16.0029 39.5097 15.6465 39.9431 15.2061H40.1498L40.1292 15.2012Z" fill="#002868"/>
<path d="M22.658 16.0129C20.3086 18.0782 17.8398 20.0092 15.2643 21.7961C14.0657 22.1324 12.8416 22.7065 11.5774 22.5925C11.5769 22.5488 11.5541 22.5079 11.5168 22.4838C12.8371 21.2351 14.2435 20.078 15.7271 19.0208C16.9107 17.987 18.331 17.0417 19.5146 16.1466C20.5659 16.1292 21.6144 16.0386 22.6524 15.8743V16.0129H22.658Z" fill="#002868"/>
<path d="M66.0565 15.2756C66.56 16.5025 67.4012 17.6056 68.0458 18.8025C66.58 18.8915 65.7843 17.6449 64.7418 16.883C63.5533 16.1904 65.3964 16.0075 65.0591 15.1763C65.3914 15.239 65.7281 15.2723 66.0665 15.2751H66.0565V15.2756Z" fill="#002868"/>
<path d="M32.2824 16.5072C32.5241 16.7299 32.1162 17.0017 31.9751 17.1752C29.9908 19.1543 27.8754 21.8451 24.7275 21.6273V21.4838C26.4195 19.6581 28.2532 18.2979 29.8497 16.5618L29.8197 16.3888C30.4848 16.3533 31.1383 16.2005 31.7484 15.9385C31.7412 16.2157 31.929 16.4613 32.2018 16.5323C32.2318 16.5618 32.2624 16.5323 32.2874 16.5028L32.2824 16.5072Z" fill="#002868"/>
<path d="M35.3042 16.136C35.2237 16.5715 34.6347 16.5268 34.7352 17.0114C34.9653 17.1097 35.1848 17.2309 35.3898 17.3728C34.5035 18.5157 33.0327 19.6138 31.9652 20.6181C30.9578 21.1125 29.9054 21.726 28.6362 21.553C29.0763 20.8386 29.6153 20.1874 30.2377 19.6187C31.0939 18.5058 32.3731 17.6942 33.0782 16.5022C33.8134 16.5022 34.5891 16.1807 35.3042 16.136Z" fill="#002868"/>
<path d="M82.1234 16.2251C82.5463 16.7196 83.0047 17.3877 83.4831 17.8974V18.041C83.876 18.6397 84.445 19.144 84.8428 19.7477L84.7823 19.8023C85.2051 20.2574 85.6886 20.8513 86.0814 21.331C85.1696 21.2071 84.2383 20.4801 83.5231 19.9212L83.5787 19.8617C82.4229 18.9361 81.4421 17.8177 80.6825 16.557C80.8287 16.4975 81.0604 16.3146 80.8787 16.1465C80.637 15.8398 80.103 15.5876 80.118 15.187C80.7387 15.6236 81.416 15.9762 82.1328 16.236L82.1234 16.2251Z" fill="#002868"/>
<path d="M77.449 15.6369C78.2608 15.9628 79.1048 16.2045 79.9672 16.359C81.1208 18.0062 82.2788 19.8516 83.3162 21.5877C82.8128 21.5877 82.3394 21.2068 81.8054 21.1571C80.7207 20.5316 79.7572 19.7227 78.9598 18.7676C78.3252 18.0603 77.6001 17.1253 76.9955 16.3634C76.9605 16.1309 77.4034 16.0965 77.2472 15.8094L76.7083 15.3149C77.0305 15.2805 77.1867 15.5922 77.4484 15.6167V15.6369H77.449Z" fill="#002868"/>
<path d="M74.7749 16.1506V16.2101C75.2784 16.1702 75.7518 16.4475 76.3664 16.3487C77.5872 17.6401 78.6913 19.034 79.6654 20.5142C80.0899 20.9448 80.4311 21.4475 80.6728 21.9982C78.6079 21.7854 77.0215 20.4351 75.6362 18.7333C75.1828 18.1395 74.5532 17.6351 74.1554 17.0069C74.4071 16.4229 73.6114 16.3885 73.4858 15.983L72.9468 15.4885C73.6014 15.7904 74.1053 16.1566 74.7849 16.1664L74.7749 16.1506Z" fill="#002868"/>
<path d="M87.099 16.5071C87.3919 16.6048 87.7031 16.6387 88.0109 16.6059C90.7103 18.9064 93.0475 21.3107 95.933 23.8977C94.6389 23.8683 93.2736 23.3192 92.1156 22.8291C89.25 20.8107 86.8073 18.1292 84.4302 15.5869C85.2353 16.0274 86.2122 16.5268 87.099 16.5071Z" fill="#002868"/>
<path d="M42.6176 17.363C43.0105 17.8575 42.9699 18.5703 43.5089 19.0151C43.2522 19.4255 42.8338 19.1139 42.5015 19.1783C42.2598 18.8961 41.7563 18.6838 41.7713 18.1593C42.003 17.8973 42.1086 16.0471 42.6076 17.3581L42.6176 17.363Z" fill="#002868"/>
<path d="M41.4639 17.1304C41.1566 17.7144 42.0985 19.0745 40.7993 19.015C40.2603 19.2655 39.648 19.3196 39.0718 19.1684C39.5752 18.3469 40.4215 17.8721 40.9355 17.1451H41.4389L41.4639 17.1304Z" fill="#002868"/>
<path d="M63.8812 16.6158C64.5764 17.4421 65.1909 18.6341 65.8605 19.6286C65.8605 19.8316 66.1022 19.9107 66.0772 20.123C64.4302 20.0685 63.2166 18.4562 62.1892 17.2936C62.6276 17.1697 62.9649 16.4427 63.4383 16.6949C63.5239 16.487 63.7306 16.6354 63.8768 16.5961L63.8812 16.6158Z" fill="#002868"/>
<path d="M37.1174 17.2245C36.9462 17.457 36.8051 17.66 36.6139 17.9269C36.7751 18.2402 37.1218 18.4176 37.4752 18.3674C37.5658 18.5109 37.747 18.679 37.5408 18.768C36.5889 19.6533 35.5259 20.252 34.4485 21.1427C34.1084 21.3458 33.7473 21.5117 33.3705 21.6372C32.8671 21.7016 32.2325 22.0629 31.7285 21.7311C32.8715 20.3808 34.1462 19.4557 35.2942 18.1643C35.7527 17.6398 36.2711 17.1104 36.9762 17.2343H37.1224L37.1174 17.2245Z" fill="#002868"/>
<path d="M84.1377 16.7301C85.0089 16.3049 85.4474 17.5908 86.0164 17.9521C87.335 19.1599 88.5808 20.4415 89.7482 21.7907C90.5189 22.3545 91.3096 23.3735 92.0298 23.9919C91.5264 23.9471 91.0829 23.695 90.5539 23.6557C89.362 23.2501 88.2529 22.6388 87.2805 21.8502C85.9508 20.3263 84.0621 18.4368 83.0146 16.4976C83.4025 16.7497 83.7804 16.4528 84.1377 16.735V16.7301Z" fill="#002868"/>
<path d="M90.4231 16.6509C90.6509 16.8321 90.931 16.9374 91.2238 16.9527C91.8784 17.5586 92.5897 18.1022 93.3493 18.5754C94.9657 19.8913 96.915 21.7563 98.6176 23.0274C98.7081 23.082 98.7387 23.2255 98.8843 23.1611L98.8287 23.2206C99.2816 23.7795 99.8067 24.2784 100.39 24.7047L100.36 24.7641C100.36 24.8236 100.451 24.8236 100.511 24.8187L100.456 24.8782C100.646 24.9688 100.811 25.1047 100.934 25.2739C100.652 25.65 100.315 25.0218 99.8767 25.15C99.5794 24.9273 99.111 24.9967 98.8693 24.7145C98.2591 24.5082 97.6718 24.2413 97.1167 23.9182C94.0144 21.8207 91.5111 19.2232 88.6956 16.6312C88.905 16.5183 89.1312 16.4364 89.3651 16.3889C89.748 16.4975 90.0503 16.8343 90.4276 16.6858L90.4231 16.6509Z" fill="#002868"/>
<path d="M95.5804 16.3933C95.7616 16.5614 96.1094 16.4675 96.3206 16.6356C96.9351 16.4478 97.7003 16.6951 98.3348 16.5908C101.699 18.3914 104.671 21.1521 107.828 23.1306C108.332 23.6944 108.961 23.8281 109.39 24.3968C106.64 24.2997 104.005 23.2899 101.916 21.5325C100.541 20.4938 99.045 19.3706 97.6147 18.4258C96.8023 17.6879 95.9227 17.0253 94.9858 16.4468C95.167 16.3589 95.3731 16.3343 95.5698 16.3774L95.5804 16.3933Z" fill="#002868"/>
<path d="M71.9844 17.363C72.5734 17.5088 73.1958 17.446 73.742 17.1851C75.1017 18.8869 76.7337 20.7813 78.2395 22.4782V22.5623C77.7361 22.5623 77.2321 22.2408 76.7687 22.3101V22.2506C74.0493 21.5034 73.1174 19.2826 71.3093 17.3827L70.8608 17.0759C71.1781 16.9226 71.4248 17.3532 71.7171 17.2293L71.9844 17.363Z" fill="#002868"/>
<path d="M69.0838 17.8924C69.7939 18.1347 70.4335 17.8329 71.1437 17.8924C72.0555 19.0129 72.8968 20.1875 73.6619 21.4095C74.2359 22.1469 74.7449 22.6266 75.2939 23.3635C72.6095 22.9328 70.6758 20.7562 69.0488 18.7728C68.6943 18.4595 68.3887 18.096 68.1425 17.6943L67.9258 17.2986C68.2531 17.5213 68.7265 17.625 69.0843 17.8771V17.8924H69.0838Z" fill="#002868"/>
<path d="M62.8789 19.1733C63.4884 20.2273 64.4703 20.7561 64.9387 21.8101C64.6464 21.934 64.3191 21.6813 64.0574 21.8101C63.7601 21.5874 63.1661 21.4586 62.8689 21.142C62.0681 20.8402 61.4636 20.0193 60.854 19.366C60.9596 18.8464 61.5491 18.8715 61.6853 18.3121C61.6997 18.0834 61.7542 17.8591 61.8464 17.6489C62.0681 18.2226 62.6927 18.579 62.8789 19.1777V19.1733Z" fill="#002868"/>
<path d="M95.4393 17.3232C97.3019 18.8815 99.2578 20.3289 101.297 21.6568C101.921 22.1513 102.556 22.785 103.18 23.2347C103.945 23.7882 104.666 24.3989 105.336 25.0604C104.782 25.2433 104.187 24.996 103.573 25.0604C102.395 24.9414 101.408 24.2144 100.37 23.774C99.2667 23.1409 98.3554 22.1464 97.1413 21.3648C95.8116 19.8808 93.6962 18.471 92.1953 17.1502C92.8099 17.0263 93.2577 17.3631 93.8723 17.2294C94.4613 17.2741 95.0103 16.8336 95.4337 17.3429L95.4393 17.3232Z" fill="#002868"/>
<path d="M39.1118 18.3321C39.0613 18.7677 38.5073 19.0051 38.4923 19.4401C38.7657 19.5967 39.054 19.7255 39.3535 19.826C37.8827 21.0382 36.4224 22.8535 34.272 22.4725L34.4681 22.067C35.7573 20.6272 37.2081 19.648 38.6184 18.4064C38.7601 18.2939 38.9529 18.2655 39.1218 18.3321H39.1118Z" fill="#002868"/>
<path d="M42.6676 19.7027C43.106 19.6039 43.5438 19.48 43.9823 19.3813C44.0595 19.42 44.1067 19.4992 44.1034 19.5843C43.2332 20.3468 42.1208 20.7894 40.9555 20.8358L40.7488 20.6972L40.6883 20.7567C40.5671 20.6131 40.391 20.5935 40.4716 20.3855L41.6501 19.1782C42.0024 19.1782 42.3653 19.569 42.6576 19.7076L42.6676 19.7027Z" fill="#002868"/>
<path d="M68.8523 19.2526C70.182 20.9249 71.6879 22.5918 72.7303 24.358C72.0441 24.0845 71.409 23.6998 70.8516 23.22C69.4013 22.7255 68.9629 21.5035 67.8849 20.5734C67.661 20.2591 67.387 19.9818 67.0742 19.752C66.9481 19.3563 66.4196 19.3661 66.4696 18.9011C67.1948 19.3061 68.0477 19.4316 68.8618 19.2526H68.8523Z" fill="#002868"/>
<path d="M40.5521 19.5994C40.5521 20.119 39.6202 20.0939 40.0486 20.7619C40.1442 21.138 40.6432 20.9546 40.7082 21.2962C39.4996 22.2858 38.2305 23.5078 36.5835 23.4336L36.4023 23.2655C37.1386 22.3867 37.9849 21.6019 38.9206 20.9306C39.4241 20.4901 40.0436 20.0153 40.5676 19.5999L40.5521 19.5994Z" fill="#002868"/>
<path d="M64.1023 19.8711C65.5226 21.479 67.0484 22.7453 68.0859 24.5709C68.4532 25.2679 68.5937 26.0588 68.4887 26.8365C68.0759 26.7328 68.0959 26.2727 67.733 26.02C66.61 24.5862 65.3186 23.2878 63.885 22.1514C64.3884 22.2257 64.8619 22.4183 65.3959 22.1809L65.6526 21.8594L64.0206 19.8804H64.1062L64.1023 19.8711Z" fill="#002868"/>
<path d="M70.5042 24.7732C70.4792 24.9812 70.7159 25.0554 70.6303 25.2677C69.8991 24.9244 69.2206 24.4818 68.6155 23.9518C67.3919 23.0316 66.5051 21.612 65.4526 20.5335C65.8349 20.6481 66.2434 20.6481 66.6262 20.5335C66.674 20.4243 66.6918 20.3048 66.6768 20.1875L66.4956 20.0243L66.6112 19.9353C68.0265 21.4837 69.4973 22.9033 70.5142 24.7732H70.5042V24.7732Z" fill="#002868"/>
<path d="M61.3829 20.5639C62.0424 21.1228 62.3903 21.8105 63.1504 22.1123C63.211 22.3153 63.6539 22.3546 63.6539 22.6761C63.4649 22.7553 63.2693 22.818 63.0699 22.8639C63.0093 22.6909 62.8381 22.7798 62.7176 22.7553C62.068 22.478 61.2673 22.2952 60.7838 21.7657C60.4943 21.5982 60.2398 21.3782 60.0337 21.1179C60.321 20.821 60.8144 20.5541 60.8044 20.094C61.0967 20.0345 61.1973 20.4897 61.404 20.5885L61.3829 20.5639Z" fill="#002868"/>
<path d="M42.5521 20.9992C42.7032 21.2612 42.2953 21.4397 42.3003 21.6967C42.0181 22.3102 41.8925 23.1464 41.1673 23.4777C40.4405 23.923 39.6015 24.1594 38.7446 24.1604C39.4298 23.3096 40.1799 22.5727 40.9206 21.6869C41.0995 21.366 41.4502 21.1739 41.8219 21.1924C42.0836 21.1924 42.2298 20.9255 42.5521 21.0047V20.9992Z" fill="#002868"/>
<path d="M59.7557 21.3753C60.2592 22.5133 62.274 22.5624 62.0823 24.1801C62.0823 24.3482 62.1479 24.7243 61.8306 24.7936C61.2188 24.9251 60.5815 24.7379 60.1436 24.2991C60.5014 23.3396 59.8313 22.2562 59.5796 21.3704H59.7557V21.3753Z" fill="#002868"/>
<path d="M59.8214 23.2201C60.0076 23.6158 59.7509 23.9968 59.7309 24.3728C59.1641 24.4585 58.5845 24.3614 58.0789 24.0956C58.5662 23.4827 58.819 22.7213 58.794 21.9435C58.8496 21.8 59.0507 21.5975 59.2019 21.7356C59.5458 22.1646 59.7603 22.6787 59.8214 23.2201Z" fill="#002868"/>
<path d="M67.0841 26.9551C67.0841 27.5336 67.5575 28.355 67.3358 28.9341C67.0057 28.6383 66.7118 28.3064 66.4595 27.9446C65.1653 26.6734 64.3946 25.0753 62.6165 24.3926C62.4604 23.9919 62.4804 23.5318 62.3242 23.1607C62.9132 23.1607 63.6839 23.5367 64.1124 23.0073C65.3109 23.9275 66.6606 25.3717 67.0841 26.9649V26.9551V26.9551Z" fill="#002868"/>
<path d="M59.7258 25.2089C59.8998 25.8327 59.7858 26.5002 59.4136 27.0346C58.9429 27.0853 58.4695 26.9642 58.0838 26.6934C57.4543 26.1989 58.1138 25.4223 57.8066 24.8235C57.7766 24.71 57.6554 24.5714 57.7716 24.4824C58.3711 24.9769 59.328 24.4824 59.7258 25.2143V25.2089V25.2089Z" fill="#002868"/>
<path d="M57.4592 25.0848C57.4592 25.5449 57.5148 26.267 57.0513 26.6185C56.5829 26.7173 56.4873 26.4897 56.1045 26.4154C56.4168 25.886 56.9608 25.3866 56.7996 24.7584C57.2075 24.432 57.3886 24.8621 57.4542 25.0897L57.4592 25.0848Z" fill="#002868"/>
<path d="M62.3648 25.0952L62.5665 24.8921C62.6927 25.1443 62.8282 24.7982 62.9494 24.9663C64.3652 26.1906 65.3915 27.7892 65.9055 29.5718C65.82 29.8337 65.9055 30.319 65.6638 30.5859C64.2891 28.2804 62.1737 26.8854 60.1638 25.1443V24.8872C60.7934 25.4761 61.6397 25.1989 62.3698 25.0952H62.3648Z" fill="#002868"/>
<path d="M63.785 29.275C63.7345 29.6161 63.9112 29.6461 63.8606 29.9873C63.2966 29.7449 62.8132 29.0867 62.3042 28.7259C61.4729 28.2314 60.8939 27.3456 60.1488 26.8953C60.1204 26.5395 60.1827 26.1825 60.3299 25.8567C61.4129 26.9303 63.166 27.7271 63.785 29.275Z" fill="#002868"/>
<path d="M57.9833 27.4647C57.9027 27.8108 58.1745 28.2119 57.8572 28.5034L57.4793 28.6813C57.5349 28.3942 57.2126 28.6071 57.0915 28.4635C56.9464 27.9587 56.7275 27.4773 56.4419 27.0341C57.0365 27.1924 57.8972 26.3169 57.9778 27.4647H57.9833V27.4647Z" fill="#002868"/>
<path d="M58.5673 27.3905C59.0536 27.4861 59.5564 27.4659 60.0332 27.3311C61.0501 28.1825 61.6891 29.3887 61.8163 30.6948C61.6485 30.6064 61.4968 30.4912 61.3679 30.3537C60.2299 29.458 59.4442 28.4095 58.3462 27.6231V27.3905H58.5529H58.5673Z" fill="#002868"/>
<path d="M63.4833 40.5347C63.9656 40.2957 64.4118 39.9906 64.808 39.6293C64.5563 38.9716 64.3346 38.2538 63.7706 37.9225L63.8311 37.8931H63.7156C63.1366 37.0127 62.013 36.7502 61.1973 36.1318C60.9 36.0821 60.6938 35.6373 60.4821 35.6373C60.3904 35.9779 60.1126 36.2399 59.762 36.3152C58.684 35.3606 57.2993 35.103 56.3924 34.114C55.9562 33.8449 55.5539 33.5262 55.1938 33.1643L55.2494 33.1048C54.6498 32.6496 54.242 31.6208 53.8797 30.7994L53.3357 30.3791C53.2429 30.2476 53.1084 30.1504 52.9528 30.1018L53.0084 30.0424C52.4444 29.77 52.5805 29.3645 52.0465 29.1123C51.9888 29.6303 51.9888 30.1526 52.0465 30.6706C52.0765 30.8387 52.2683 31.2693 51.8854 31.2491C51.1119 30.6809 50.4584 29.9703 49.9617 29.1565L49.9867 29.1271C49.78 28.9884 49.8005 28.6326 49.5688 28.6326C49.2565 29.1866 49.3371 30.1166 49.3471 30.6509C49.3571 31.1853 49.715 31.4227 49.6944 31.8828H49.5233C48.3903 31.2497 47.6595 30.0227 47.005 28.7712C46.8177 29.0872 46.7155 29.4447 46.7077 29.8098C46.2748 31.5166 46.8488 33.4951 47.7151 34.8901C48.8031 36.3741 50.1628 38.0661 51.981 38.9415C52.8823 39.9311 54.3781 39.8121 55.4511 40.3661C57.3954 40.4108 58.9768 40.8955 60.815 40.9151C61.0617 41.0636 61.5957 40.8753 61.918 40.9795C62.4742 40.9381 63.0176 40.794 63.5194 40.5544L63.4833 40.5347Z" fill="white"/>
<path d="M63.7801 40.6827C63.2517 40.9256 62.6899 41.0926 62.1131 41.1772C61.9975 41.3317 61.7936 41.3939 61.6097 41.3306C61.4941 41.3601 61.408 41.5036 61.5241 41.5877C62.2631 41.9299 62.9783 42.3196 63.6645 42.7551C63.8762 42.8938 64.0168 42.6907 64.168 42.5674C63.9263 42.2606 63.4278 42.1815 63.035 41.8748C62.8538 41.6766 63.1155 41.4392 63.2867 41.3552C63.7118 41.5254 64.113 41.7481 64.4803 42.0183C65.4271 42.3447 65.9911 43.057 66.4951 43.8784C66.873 43.725 66.9535 43.2944 67.1197 42.9434C67.1702 41.4938 66.0167 40.6729 64.9843 39.822C64.6347 40.1981 64.2024 40.4906 63.7201 40.6778L63.7801 40.6827Z" fill="#BF0A30"/>
<path d="M54.2362 30.6903C54.3674 30.8388 54.3468 31.1455 54.478 31.294C55.022 32.0854 55.5154 33.0301 56.4067 33.4706C55.4615 31.8414 54.8714 30.0375 54.6741 28.1725L54.483 27.5443C54.1607 27.4947 54.2562 27.8658 54.0245 27.9848C53.6972 28.6627 53.4 29.34 53.6667 30.1369L54.2407 30.6859L54.2362 30.6903Z" fill="#002868"/>
<path d="M60.6579 31.3481C59.3499 31.1173 58.2419 30.268 57.6968 29.0776C58.1402 29.0776 58.2758 28.6322 58.4169 28.3457C59.4466 29.1093 60.2262 30.1534 60.6579 31.3481Z" fill="#002868"/>
<path d="M55.2889 28.9934C55.6229 29.7548 56.0541 30.4714 56.5731 31.1253C56.6081 31.5013 57.0215 31.6198 57.2076 31.8326L57.1471 31.8921C57.8772 32.9111 59.5798 32.8467 59.7003 34.4301C59.9671 34.6227 59.9221 34.9742 60.0982 35.1969C60.0443 35.3252 59.9554 35.4365 59.8415 35.5184C58.2501 35.2362 57.3232 33.6982 56.4819 32.5504C55.9913 31.6383 55.6145 30.6717 55.3589 29.6713C55.2272 29.4759 55.17 29.2412 55.1978 29.0081H55.2883V28.9934H55.2889Z" fill="#002868"/>
<path d="M59.3578 32.3619L59.3022 32.6239C57.7914 32.3368 56.7084 30.8976 56.0288 29.5271C56.3761 29.3737 56.9151 29.651 57.1668 29.24C57.892 30.1455 58.5365 31.4264 59.3528 32.3614H59.3578V32.3619Z" fill="#002868"/>
<path d="M62.1081 29.1367C64.4702 31.0465 65.9205 34.0391 67.5925 36.5126C67.2552 36.6425 66.8835 36.66 66.5351 36.5623C64.5202 35.8598 63.9462 33.7378 63.0094 32.1102C62.1681 31.2348 62.3748 30.1317 62.002 29.1422H62.1231L62.1081 29.1367Z" fill="#002868"/>
<path d="M62.657 32.7233C63.5383 33.9748 64.0573 34.9146 64.853 36.2502C64.4452 36.4631 63.8456 36.2158 63.4077 36.0226C62.3553 35.0085 61.7657 33.5491 61.0006 32.2381C61.0812 31.981 61.4035 31.8025 61.1917 31.4565C61.0656 31.0853 60.7639 30.7191 60.8139 30.3682C61.4485 31.1896 62.4303 31.57 62.662 32.7178L62.657 32.7233Z" fill="#002868"/>
<path d="M60.4062 31.9963C60.6951 32.8259 61.1096 33.6081 61.6353 34.3165C61.8954 34.9049 62.2432 35.4518 62.6677 35.9392V36.0527C62.2293 36.2355 61.897 35.8398 61.4892 35.8202C60.4817 35.2067 60.0939 34.0049 59.5754 33.0104C59.7466 32.7184 60.0033 32.4264 59.8777 32.1099C59.4571 31.975 59.1448 31.6263 59.062 31.1995C59.4249 31.5706 60.2106 31.4074 60.4017 32.0105L60.4062 31.9963Z" fill="#002868"/>
<path d="M61.544 38.2293C61.8491 38.3106 62.1202 38.4836 62.3197 38.7238C62.2441 38.9928 62.023 39.1986 61.7457 39.2581C60.8894 39.1342 60.7383 38.3035 59.872 38.2686C59.7509 38.155 59.7764 38.0164 59.9276 37.9766C60.4504 38.1474 60.9983 38.2342 61.5495 38.2336L61.544 38.2293Z" fill="black"/>
</svg>
