<svg width="182" height="52" viewBox="0 0 182 52" fill="none" xmlns="http://www.w3.org/2000/svg">
<path d="M73.201 15.8965C70.9328 15.8965 69.1795 15.2042 67.9409 13.8198C66.7024 12.4354 66.0831 10.4716 66.0831 7.92841C66.0831 5.47555 66.6949 3.54937 67.9186 2.14988C69.1571 0.735345 70.8582 0.0280762 73.0219 0.0280762C75.2901 0.0280762 77.0584 0.712772 78.3267 2.08216C79.5951 3.45156 80.2293 5.36268 80.2293 7.81555C80.2293 10.3587 79.61 12.3451 78.3715 13.7747C77.1479 15.1892 75.4244 15.8965 73.201 15.8965ZM73.1786 3.18821C71.2387 3.18821 70.2688 4.78333 70.2688 7.97356C70.2688 9.49343 70.4553 10.6221 70.8284 11.3594C71.291 12.2774 72.0669 12.7363 73.1562 12.7363C75.0812 12.7363 76.0437 11.1864 76.0437 8.08642C76.0437 6.37092 75.8124 5.12944 75.3498 4.36198C74.9021 3.57947 74.1784 3.18821 73.1786 3.18821Z" fill="#BF0A30"/>
<path d="M91.5862 1.85644L95.5256 11.5174V4.836C95.5256 3.82776 95.3316 3.32365 94.9436 3.32365C94.8392 3.32365 94.6825 3.35374 94.4736 3.41394C94.2796 3.45908 94.1304 3.48165 94.0259 3.48165C93.7126 3.48165 93.444 3.33869 93.2201 3.05278C93.0112 2.76686 92.9068 2.41323 92.9068 1.99187C92.9068 1.49528 93.0485 1.0965 93.3321 0.795538C93.6156 0.494573 93.9886 0.344091 94.4512 0.344091C94.69 0.344091 95.1003 0.381712 95.6823 0.456953C96.2643 0.532194 96.7791 0.569815 97.2267 0.569815C97.6296 0.569815 98.0997 0.539718 98.6369 0.479525C99.4427 0.389236 99.9426 0.344091 100.137 0.344091C100.614 0.344091 101.002 0.494573 101.3 0.795538C101.599 1.0965 101.748 1.49528 101.748 1.99187C101.748 2.41323 101.629 2.76686 101.39 3.05278C101.151 3.33869 100.86 3.48165 100.517 3.48165C100.383 3.48165 100.204 3.45908 99.9799 3.41394C99.756 3.35374 99.5844 3.32365 99.465 3.32365C99.1666 3.32365 98.9726 3.51175 98.8831 3.88796C98.8532 4.03844 98.8383 4.35445 98.8383 4.836V14.023C98.8383 15.0161 98.4354 15.5127 97.6296 15.5127C97.4804 15.5127 97.2491 15.5052 96.9357 15.4902C96.6373 15.4601 96.4135 15.445 96.2643 15.445C96.2493 15.445 95.8837 15.4601 95.1675 15.4902C95.1675 15.4902 95.0033 15.4902 94.675 15.4902C94.2423 15.4902 93.9215 15.3848 93.7126 15.1741C93.5932 15.0538 93.4216 14.7302 93.1978 14.2035L88.8778 4.27169V11.0885C88.8778 12.1118 89.0718 12.6235 89.4598 12.6235C89.5642 12.6235 89.7209 12.6009 89.9298 12.5558C90.1536 12.4956 90.3178 12.4655 90.4222 12.4655C90.7356 12.4655 90.9967 12.6084 91.2056 12.8943C91.4295 13.1803 91.5414 13.5339 91.5414 13.9552C91.5414 15.0538 91.0191 15.603 89.9746 15.603C89.6761 15.603 89.1837 15.5579 88.4973 15.4676C88.0347 15.4074 87.5721 15.3773 87.1095 15.3773C86.7215 15.3773 86.1993 15.4149 85.5427 15.4902C84.8861 15.5654 84.4683 15.603 84.2892 15.603C83.1999 15.603 82.6553 15.0538 82.6553 13.9552C82.6553 13.5339 82.7672 13.1803 82.991 12.8943C83.2298 12.6084 83.5208 12.4655 83.864 12.4655C83.9983 12.4655 84.1773 12.4956 84.4012 12.5558C84.6399 12.6009 84.819 12.6235 84.9384 12.6235C85.3412 12.6235 85.5427 12.1118 85.5427 11.0885V4.836C85.5427 3.82776 85.3412 3.32365 84.9384 3.32365C84.819 3.32365 84.6399 3.35374 84.4012 3.41394C84.1773 3.45908 83.9983 3.48165 83.864 3.48165C83.5208 3.48165 83.2298 3.33869 82.991 3.05278C82.7672 2.76686 82.6553 2.41323 82.6553 1.99187C82.6553 1.49528 82.8045 1.0965 83.1029 0.795538C83.4014 0.494573 83.7893 0.344091 84.2669 0.344091C84.5802 0.344091 85.0353 0.381712 85.6322 0.456953C86.2291 0.532194 86.6992 0.569815 87.0424 0.569815C87.3259 0.569815 87.8109 0.539718 88.4973 0.479525C88.8106 0.464477 89.1688 0.43438 89.5717 0.389235C89.7507 0.359139 89.9447 0.344091 90.1536 0.344091C90.5565 0.344091 90.8699 0.502097 91.0937 0.81811C91.1833 0.938497 91.3474 1.28461 91.5862 1.85644Z" fill="#BF0A30"/>
<path d="M110.707 0.0280762C112.296 0.0280762 113.62 0.56229 114.679 1.63072C114.815 0.742869 115.269 0.298945 116.041 0.298945C116.979 0.298945 117.448 0.750393 117.448 1.65329C117.448 1.80377 117.418 2.10474 117.357 2.55618C117.267 3.23336 117.221 3.69233 117.221 3.9331C117.221 4.20397 117.236 4.40712 117.267 4.54255C117.297 5.0241 117.312 5.29497 117.312 5.35516C117.312 5.74642 117.138 6.07748 116.79 6.34835C116.442 6.60417 115.996 6.73208 115.451 6.73208C114.573 6.73208 114.044 6.3032 113.862 5.44545C113.681 4.5877 113.416 4.00082 113.068 3.6848C112.735 3.35374 112.198 3.18821 111.456 3.18821C110.473 3.18821 109.709 3.64718 109.164 4.56513C108.635 5.46802 108.37 6.75465 108.37 8.425C108.37 9.83954 108.627 10.9456 109.141 11.7431C109.671 12.5257 110.397 12.9169 111.32 12.9169C111.91 12.9169 112.395 12.7514 112.773 12.4203C113.166 12.0742 113.363 11.6453 113.363 11.1337C113.363 10.5017 113.098 10.1857 112.569 10.1857C112.538 10.1857 112.493 10.1857 112.432 10.1857C112.372 10.2007 112.319 10.2082 112.273 10.2082C112.031 10.2383 111.895 10.2534 111.865 10.2534C111.562 10.2534 111.305 10.1255 111.093 9.86964C110.881 9.59877 110.776 9.26771 110.776 8.87645C110.776 8.42501 110.927 8.06385 111.229 7.79298C111.532 7.52211 111.925 7.38667 112.41 7.38667C112.727 7.38667 113.204 7.43182 113.839 7.52211C114.49 7.59735 114.982 7.63497 115.315 7.63497C115.814 7.63497 116.366 7.59735 116.971 7.52211C117.456 7.46192 117.788 7.43182 117.97 7.43182C118.454 7.43182 118.84 7.5823 119.128 7.88327C119.43 8.16918 119.581 8.56044 119.581 9.05703C119.581 9.49343 119.476 9.86211 119.264 10.1631C119.052 10.449 118.787 10.592 118.469 10.592L117.925 10.5468C117.516 10.5468 117.312 10.8854 117.312 11.5626C117.312 11.8485 117.319 12.1494 117.335 12.4655L117.38 13.4361C117.395 13.7671 117.403 14.0832 117.403 14.3841C117.403 15.3923 116.843 15.8965 115.723 15.8965C114.664 15.8965 114.135 15.5278 114.135 14.7904V14.655C113.091 15.4826 111.903 15.8965 110.571 15.8965C109.406 15.8965 108.309 15.5955 107.28 14.9936C106.252 14.3766 105.503 13.579 105.034 12.6009C104.428 11.3519 104.126 9.89974 104.126 8.24443C104.126 5.71632 104.716 3.7149 105.896 2.24017C107.076 0.765441 108.68 0.0280762 110.707 0.0280762Z" fill="#002868"/>
<path d="M131.457 10.8177H128.439C127.576 10.8177 127.145 11.3293 127.145 12.3526C127.145 12.5934 127.274 12.7138 127.531 12.7138C127.607 12.7138 127.72 12.7062 127.871 12.6912C128.023 12.6611 128.136 12.646 128.212 12.646C128.772 12.646 129.052 13.09 129.052 13.9778C129.052 14.4594 128.923 14.8506 128.666 15.1516C128.409 15.4525 128.068 15.603 127.644 15.603C127.433 15.603 126.964 15.5504 126.237 15.445C125.92 15.3999 125.473 15.3773 124.898 15.3773C124.278 15.3773 123.794 15.3999 123.446 15.445C122.644 15.5504 122.167 15.603 122.016 15.603C121.547 15.603 121.161 15.4601 120.858 15.1741C120.571 14.8882 120.427 14.512 120.427 14.0455C120.427 12.9922 120.828 12.4655 121.63 12.4655C121.721 12.4655 121.865 12.4805 122.061 12.5106C122.258 12.5257 122.402 12.5332 122.493 12.5332C122.78 12.5332 123.015 12.3752 123.196 12.0592C123.241 11.9689 123.347 11.6905 123.514 11.224L126.646 2.35303C127.009 1.3448 127.417 0.712773 127.871 0.456953C128.204 0.291421 128.938 0.208656 130.073 0.208656C131.344 0.208656 132.146 0.291421 132.479 0.456953C132.811 0.607435 133.084 1.04383 133.296 1.76615L136.201 11.382C136.428 12.1494 136.692 12.5332 136.995 12.5332C137.086 12.5332 137.245 12.5106 137.472 12.4655H137.721C138.569 12.4655 138.992 12.9621 138.992 13.9552C138.992 14.4518 138.841 14.8506 138.538 15.1516C138.236 15.4525 137.842 15.603 137.358 15.603C137.146 15.603 136.866 15.5805 136.518 15.5353C136.095 15.4601 135.815 15.4224 135.679 15.4224C135.346 15.3923 134.915 15.3773 134.385 15.3773C133.81 15.3773 133.424 15.3923 133.228 15.4224C132.456 15.5428 131.972 15.603 131.775 15.603C131.367 15.603 131.026 15.4525 130.754 15.1516C130.497 14.8356 130.368 14.4443 130.368 13.9778C130.368 13.09 130.655 12.646 131.23 12.646C131.306 12.646 131.419 12.6611 131.571 12.6912C131.722 12.7062 131.836 12.7138 131.911 12.7138C132.199 12.7138 132.342 12.5558 132.342 12.2397C132.342 11.8334 132.259 11.4949 132.093 11.224C131.926 10.9531 131.715 10.8177 131.457 10.8177ZM131.117 7.3641L130.027 2.73676L128.62 7.54468C128.605 7.58983 128.598 7.6425 128.598 7.70269C128.598 7.88327 128.787 7.97356 129.165 7.97356H130.572C130.966 7.97356 131.162 7.86822 131.162 7.65754C131.162 7.67259 131.147 7.57478 131.117 7.3641Z" fill="#002868"/>
<path d="M150.517 1.74358L152.4 9.9825L154.375 2.08216C154.541 1.42004 154.723 0.968593 154.92 0.727821C155.131 0.472001 155.426 0.344091 155.805 0.344091C156.138 0.344091 156.644 0.381712 157.325 0.456953C158.006 0.532194 158.521 0.569815 158.869 0.569815C159.232 0.569815 160.132 0.509621 161.569 0.389235C161.978 0.359139 162.281 0.344091 162.477 0.344091C162.977 0.344091 163.378 0.494573 163.68 0.795538C163.983 1.08146 164.134 1.48023 164.134 1.99187C164.134 2.41323 164.013 2.76686 163.771 3.05278C163.544 3.33869 163.256 3.48165 162.908 3.48165C162.772 3.48165 162.583 3.45908 162.341 3.41394C162.099 3.35374 161.925 3.32365 161.819 3.32365C161.411 3.32365 161.206 3.82776 161.206 4.836V11.0885C161.206 12.1118 161.403 12.6235 161.796 12.6235C161.917 12.6235 162.099 12.6009 162.341 12.5558C162.583 12.4956 162.765 12.4655 162.886 12.4655C163.234 12.4655 163.529 12.6084 163.771 12.8943C164.013 13.1803 164.134 13.5339 164.134 13.9552C164.134 14.4669 163.983 14.8732 163.68 15.1741C163.378 15.4601 162.977 15.603 162.477 15.603C162.19 15.603 161.706 15.5579 161.025 15.4676C160.571 15.4074 160.117 15.3773 159.663 15.3773C159.376 15.3773 158.952 15.4149 158.392 15.4902C157.832 15.5654 157.409 15.603 157.121 15.603C156.667 15.603 156.296 15.4525 156.009 15.1516C155.737 14.8506 155.6 14.4518 155.6 13.9552C155.6 13.0222 155.911 12.5558 156.531 12.5558C156.622 12.5558 156.69 12.5633 156.735 12.5783C156.781 12.5783 156.834 12.5783 156.894 12.5783C156.955 12.5934 156.992 12.6009 157.008 12.6009C157.25 12.6009 157.393 12.4354 157.439 12.1043C157.454 11.9538 157.462 11.698 157.462 11.3368V2.82705L154.307 13.9327C154.034 14.8958 153.588 15.3773 152.968 15.3773H151.515C150.91 15.3773 150.494 14.9484 150.267 14.0907L147.248 2.82705V11.3368C147.248 12.0441 147.317 12.4429 147.453 12.5332C147.498 12.5783 147.581 12.6009 147.702 12.6009C147.733 12.6009 147.778 12.5934 147.839 12.5783C147.884 12.5783 147.929 12.5783 147.975 12.5783C148.02 12.5633 148.088 12.5558 148.179 12.5558C148.784 12.5558 149.087 13.0147 149.087 13.9327C149.087 14.4443 148.951 14.8506 148.678 15.1516C148.406 15.4525 148.043 15.603 147.589 15.603C147.377 15.603 147.105 15.5805 146.772 15.5353C146.348 15.4751 146.083 15.4375 145.978 15.4224C145.66 15.3923 145.297 15.3773 144.888 15.3773C144.374 15.3773 143.942 15.3999 143.594 15.445C142.656 15.5654 142.187 15.6256 142.187 15.6256C141.718 15.6256 141.332 15.4676 141.03 15.1516C140.727 14.8356 140.576 14.4368 140.576 13.9552C140.576 13.5188 140.689 13.1652 140.916 12.8943C141.158 12.6084 141.461 12.4655 141.824 12.4655C141.945 12.4655 142.119 12.4956 142.346 12.5558C142.588 12.6009 142.77 12.6235 142.891 12.6235C143.194 12.6235 143.383 12.4278 143.458 12.0366C143.489 11.8861 143.504 11.5701 143.504 11.0885V4.836C143.504 4.35445 143.489 4.04596 143.458 3.91053C143.383 3.51927 143.194 3.32365 142.891 3.32365C142.77 3.32365 142.588 3.35374 142.346 3.41394C142.119 3.45908 141.938 3.48165 141.802 3.48165C141.454 3.48165 141.158 3.33869 140.916 3.05278C140.689 2.76686 140.576 2.41323 140.576 1.99187C140.576 0.893352 141.136 0.344091 142.255 0.344091C142.619 0.344091 143.224 0.381712 144.071 0.456953C144.918 0.532194 145.554 0.569815 145.978 0.569815C146.658 0.569815 147.37 0.524669 148.111 0.434379C148.61 0.374187 149.004 0.344091 149.291 0.344091C149.669 0.344091 149.934 0.43438 150.085 0.614959C150.237 0.795538 150.38 1.17174 150.517 1.74358Z" fill="#002868"/>
<path d="M174.579 3.18821C174.08 3.18821 173.747 3.23336 173.58 3.32365C173.353 3.45908 173.24 3.76005 173.24 4.22654V5.49059C173.24 5.74642 173.27 5.94204 173.331 6.07748C173.406 6.19786 173.588 6.25806 173.875 6.25806C174.541 6.25806 174.874 6.01728 174.874 5.53574V5.2423C174.859 5.15201 174.851 5.03915 174.851 4.90371C174.851 4.27169 175.222 3.95567 175.963 3.95567C176.735 3.95567 177.121 4.3394 177.121 5.10686C177.121 5.31754 177.106 5.55079 177.076 5.80661C177.015 6.3032 176.985 6.76217 176.985 7.18352C176.985 7.57478 177.015 8.07137 177.076 8.6733C177.136 9.27523 177.166 9.69658 177.166 9.93736C177.166 10.8252 176.765 11.2691 175.963 11.2691C175.207 11.2691 174.829 10.8854 174.829 10.1179C174.829 10.0427 174.829 10.0051 174.829 10.0051C174.829 9.92983 174.844 9.74925 174.874 9.46334C174.874 9.10218 174.549 8.9216 173.898 8.9216C173.459 8.9216 173.24 9.16237 173.24 9.64392V11.3368C173.24 11.8635 173.331 12.2247 173.512 12.4203C173.709 12.6009 174.065 12.6912 174.579 12.6912H175.895C176.864 12.6912 177.537 12.6084 177.915 12.4429C178.309 12.2774 178.505 11.9839 178.505 11.5626C178.505 11.3519 178.483 11.1036 178.437 10.8177C178.392 10.5167 178.369 10.2684 178.369 10.0728C178.369 9.516 178.528 9.07961 178.846 8.76359C179.163 8.44758 179.595 8.28957 180.139 8.28957C181.244 8.28957 181.796 8.8915 181.796 10.0954C181.796 10.4866 181.773 10.9004 181.728 11.3368C181.652 12.0592 181.615 12.5106 181.615 12.6912C181.615 12.8567 181.652 13.1803 181.728 13.6618C181.773 13.9477 181.796 14.2412 181.796 14.5421C181.796 15.2494 181.35 15.603 180.457 15.603C180.17 15.603 179.693 15.5805 179.027 15.5353C177.923 15.4601 176.16 15.4074 173.739 15.3773C173.739 15.3773 173.066 15.3773 171.719 15.3773C170.963 15.3773 170.335 15.3999 169.836 15.445L168.111 15.603C168.096 15.603 168.065 15.6105 168.02 15.6256C167.975 15.6256 167.937 15.6256 167.906 15.6256C167.437 15.6256 167.052 15.4676 166.749 15.1516C166.462 14.8356 166.318 14.4368 166.318 13.9552C166.318 13.5339 166.431 13.1803 166.658 12.8943C166.9 12.6084 167.203 12.4655 167.566 12.4655C167.687 12.4655 167.869 12.4956 168.111 12.5558C168.353 12.6009 168.527 12.6235 168.633 12.6235C169.041 12.6235 169.246 12.1118 169.246 11.0885V4.836C169.246 3.82776 169.041 3.32365 168.633 3.32365C168.542 3.32365 168.36 3.35374 168.088 3.41394C167.891 3.45908 167.717 3.48165 167.566 3.48165C167.218 3.48165 166.923 3.33869 166.681 3.05278C166.439 2.76686 166.318 2.41323 166.318 1.99187C166.318 0.893352 166.87 0.344091 167.975 0.344091C168.232 0.344091 168.754 0.374187 169.541 0.434379C170.721 0.524669 171.863 0.569815 172.968 0.569815C173.074 0.569815 173.981 0.547242 175.691 0.502097C176.932 0.472001 177.749 0.441904 178.142 0.411807C178.793 0.366663 179.474 0.344091 180.185 0.344091C181.032 0.344091 181.456 0.712773 181.456 1.45014C181.456 1.69091 181.425 2.04454 181.365 2.51104C181.32 2.97754 181.297 3.33117 181.297 3.57194C181.297 3.81271 181.327 4.15882 181.388 4.61027C181.463 5.04667 181.501 5.37773 181.501 5.60346C181.501 6.03986 181.335 6.40854 181.002 6.7095C180.684 7.01047 180.283 7.16095 179.799 7.16095C178.664 7.16095 178.097 6.58159 178.097 5.42288C178.097 5.22725 178.127 4.95638 178.188 4.61027C178.263 4.26416 178.301 4.00834 178.301 3.84281C178.301 3.51175 178.127 3.3086 177.779 3.23336C177.658 3.20326 177.34 3.18821 176.826 3.18821H174.579Z" fill="#002868"/>
<path d="M181.796 21.4504H66.0831V50.0135L73.2512 44.1544H157.22L163.364 38.2953H123.41L125.177 35.732L165.412 36.0982L172.58 30.0194H129.097L130.469 28.0419H174.628L181.796 21.4504Z" fill="#BF0A30"/>
<path d="M85.6814 35.4897C85.1996 35.4721 84.9588 35.7361 84.9588 36.2815V37.1261C84.9588 37.7243 85.2264 38.0235 85.7616 38.0235C85.9757 38.0235 86.2434 37.9971 86.5645 37.9443C86.957 37.8739 87.2871 37.8387 87.5547 37.8387C88.0008 37.8387 88.3576 37.9971 88.6252 38.3138C88.8928 38.6305 89.0266 39.0528 89.0266 39.5806C89.0266 40.1613 88.8482 40.6276 88.4914 40.9795C88.1346 41.3314 87.6707 41.5073 87.0998 41.5073C86.6002 41.5073 85.8598 41.4633 84.8785 41.3754C83.8972 41.2874 83.1568 41.2434 82.6572 41.2434C81.89 41.2434 81.2477 41.2698 80.7303 41.3226L79.419 41.4545C79.0621 41.4897 78.8213 41.5073 78.6964 41.5073C78.1255 41.5073 77.6616 41.3314 77.3047 40.9795C76.9658 40.6276 76.7963 40.1613 76.7963 39.5806C76.7963 39.088 76.9301 38.6745 77.1977 38.3402C77.4832 38.0059 77.8311 37.8387 78.2414 37.8387C78.402 37.8387 78.625 37.8739 78.9105 37.9443C79.196 37.9971 79.4011 38.0235 79.526 38.0235C80.0077 38.0235 80.2486 37.4252 80.2486 36.2287V28.9179C80.2486 28.3548 80.2308 27.9941 80.1951 27.8358C80.1059 27.3783 79.8829 27.1496 79.526 27.1496C79.3833 27.1496 79.1692 27.1847 78.8837 27.2551C78.6161 27.3079 78.402 27.3343 78.2414 27.3343C77.8311 27.3343 77.4832 27.1671 77.1977 26.8328C76.9301 26.4985 76.7963 26.085 76.7963 25.5924C76.7963 25.0117 76.9747 24.5454 77.3315 24.1935C77.6883 23.824 78.1522 23.6393 78.7232 23.6393C78.741 23.6393 78.7678 23.6393 78.8034 23.6393C78.8391 23.6569 78.8748 23.6657 78.9105 23.6657C79.3387 23.6657 79.9899 23.7097 80.8641 23.7976C81.7384 23.8856 82.3985 23.9296 82.8446 23.9296C83.7009 23.9296 84.6376 23.8944 85.6546 23.824C86.9392 23.7361 87.6707 23.6921 87.8491 23.6921C89.7938 23.6921 91.3639 24.2375 92.5593 25.3284C93.7725 26.4018 94.3791 27.8182 94.3791 29.5777C94.3791 31.4076 93.7547 32.8592 92.5058 33.9325C91.2747 35.0059 89.5887 35.5425 87.4477 35.5425C87.2693 35.5425 86.9303 35.5337 86.4307 35.5161L85.6814 35.4897ZM84.9588 31.0293C84.9588 31.522 85.0034 31.8299 85.0926 31.9531C85.1818 32.0586 85.4227 32.1202 85.8152 32.1378L86.2434 32.1642C88.3487 32.2874 89.4013 31.4692 89.4013 29.7097C89.4013 28.0205 88.4557 27.1759 86.5645 27.1759C86.1006 27.1759 85.7795 27.2023 85.6011 27.2551C85.2799 27.3431 85.0837 27.5542 85.0123 27.8886C84.9766 28.0645 84.9588 28.3284 84.9588 28.6803V31.0293Z" fill="white"/>
<path d="M105.911 35.912H102.352C101.335 35.912 100.826 36.5103 100.826 37.7067C100.826 37.9883 100.978 38.129 101.281 38.129C101.37 38.129 101.504 38.1202 101.683 38.1026C101.861 38.0674 101.995 38.0498 102.084 38.0498C102.744 38.0498 103.074 38.5689 103.074 39.607C103.074 40.1701 102.923 40.6276 102.619 40.9795C102.316 41.3314 101.915 41.5073 101.415 41.5073C101.165 41.5073 100.612 41.4457 99.7558 41.3226C99.3812 41.2698 98.8548 41.2434 98.1769 41.2434C97.4454 41.2434 96.8744 41.2698 96.4641 41.3226C95.5185 41.4457 94.9565 41.5073 94.778 41.5073C94.225 41.5073 93.77 41.3402 93.4132 41.0059C93.0742 40.6715 92.9047 40.2317 92.9047 39.6862C92.9047 38.4545 93.3775 37.8387 94.3231 37.8387C94.4301 37.8387 94.5996 37.8563 94.8316 37.8915C95.0635 37.9091 95.233 37.9179 95.3401 37.9179C95.679 37.9179 95.9556 37.7331 96.1697 37.3636C96.2232 37.2581 96.3481 36.9325 96.5444 36.3871L100.238 26.0147C100.666 24.8358 101.147 24.0968 101.683 23.7976C102.075 23.6041 102.941 23.5073 104.279 23.5073C105.777 23.5073 106.723 23.6041 107.115 23.7976C107.508 23.9736 107.829 24.4839 108.079 25.3284L111.504 36.5718C111.772 37.4692 112.084 37.9179 112.441 37.9179C112.548 37.9179 112.736 37.8915 113.003 37.8387H113.298C114.297 37.8387 114.796 38.4193 114.796 39.5806C114.796 40.1613 114.618 40.6276 114.261 40.9795C113.904 41.3314 113.44 41.5073 112.869 41.5073C112.62 41.5073 112.29 41.4809 111.879 41.4281C111.38 41.3402 111.05 41.2962 110.889 41.2962C110.496 41.261 109.988 41.2434 109.364 41.2434C108.686 41.2434 108.231 41.261 107.999 41.2962C107.089 41.4369 106.518 41.5073 106.286 41.5073C105.804 41.5073 105.403 41.3314 105.082 40.9795C104.778 40.61 104.627 40.1525 104.627 39.607C104.627 38.5689 104.966 38.0498 105.644 38.0498C105.733 38.0498 105.867 38.0674 106.045 38.1026C106.223 38.1202 106.357 38.129 106.446 38.129C106.785 38.129 106.955 37.9443 106.955 37.5748C106.955 37.0997 106.857 36.7038 106.661 36.3871C106.464 36.0704 106.214 35.912 105.911 35.912ZM105.51 31.8739L104.225 26.4633L102.566 32.085C102.548 32.1378 102.539 32.1994 102.539 32.2698C102.539 32.4809 102.762 32.5865 103.208 32.5865H104.867C105.331 32.5865 105.563 32.4633 105.563 32.217C105.563 32.2346 105.545 32.1202 105.51 31.8739Z" fill="white"/>
<path d="M14 10C14 8.5 13 6 11.5 5.5L14.5 2.5L20.5 4.5L22.5 7L21.5 11.5C19.3333 12.1667 14 12.912 14 10Z" fill="#070808" stroke="black"/>
<path d="M8.21582 2.20768C9.40826 -0.172675 12.2197 1.10246 14.179 1.4423L13.9234 2.80315C13.0718 1.78264 11.4533 1.01725 10.1751 1.95306C11.1972 2.88786 12.56 3.3129 13.8382 3.73845C13.8382 4.1635 13.6677 4.92888 13.6677 5.35393C13.3269 5.35393 12.7309 5.43864 12.3901 5.43864C11.964 5.43864 11.0272 5.43864 10.5165 5.43864C10.6864 4.84317 11.0277 3.65324 11.1977 3.05828C10.4308 2.80315 8.98221 2.3781 8.21582 2.20768Z" fill="#412B19"/>
<path fill-rule="evenodd" clip-rule="evenodd" d="M10.2191 3.58352C9.47835 3.3576 8.57642 3.10354 8.04295 2.98491L7.04675 2.76339L7.50384 1.85094C7.87722 1.10561 8.40542 0.601976 9.04564 0.311046C9.66755 0.0284392 10.3348 -0.0262144 10.956 0.00987444C11.5764 0.0459169 12.2044 0.176421 12.7693 0.308231C12.9356 0.34704 13.0943 0.385353 13.2467 0.422152C13.6361 0.51617 13.9846 0.600312 14.3151 0.657629L15.1107 0.795623L14.6344 3.33083V3.73837C14.6344 4.00892 14.585 4.35371 14.5463 4.62327C14.5446 4.63532 14.5429 4.64722 14.5412 4.65895C14.4952 4.97989 14.464 5.21144 14.464 5.35384V6.15014H13.6677C13.5416 6.15014 13.349 6.1668 13.1006 6.18926C13.0927 6.18997 13.0848 6.19069 13.0768 6.19142C12.861 6.21096 12.5971 6.23485 12.3901 6.23485H9.46115L9.75073 5.22005C9.84096 4.90385 9.98065 4.41608 10.117 3.94002C10.1515 3.81944 10.1858 3.69962 10.2191 3.58352ZM11.798 3.85483C11.7501 4.02224 11.6989 4.20089 11.6473 4.38106C11.6224 4.46814 11.5973 4.55556 11.5725 4.64225H12.3901C12.5133 4.64225 12.7 4.62635 12.9402 4.60466C12.9468 4.55789 12.9533 4.51244 12.9595 4.46896C12.9613 4.4569 12.963 4.445 12.9647 4.43326C12.9716 4.38467 12.9782 4.33813 12.9845 4.29364C12.6008 4.16434 12.1996 4.02255 11.798 3.85483Z" fill="#412B19"/>
<path d="M14.7963 1.50732C16.3295 1.76245 19.2257 1.08228 19.2257 3.46264C20.7594 4.22802 22.207 5.16282 23.5704 6.18333C21.1855 7.62889 22.2075 10.2644 22.633 12.3896C20.5885 11.0298 21.9519 7.88352 22.3774 5.92821C21.3549 5.41745 20.4181 4.82248 19.6512 3.97239C18.4588 4.73727 16.5739 5.10229 15.2963 4.50732C16.2336 4.16699 13.9559 4.27321 14.2962 3.50732C14.2962 3.50732 15.5326 1.84666 15.4769 1.84666L14.7963 1.50732Z" fill="#070808"/>
<path fill-rule="evenodd" clip-rule="evenodd" d="M14.5937 1.74938L14.927 0.721924C15.229 0.772174 15.6123 0.779455 16.1007 0.788734C16.1172 0.789047 16.1338 0.789362 16.1505 0.789681C16.6298 0.798837 17.1953 0.81184 17.7225 0.903615C18.246 0.99473 18.8328 1.1789 19.2917 1.60594C19.6677 1.95585 19.8982 2.41171 19.9839 2.95585C21.4195 3.70584 22.7737 4.59243 24.0476 5.54594L24.992 6.25289L23.9832 6.8644C23.5077 7.15263 23.2359 7.47641 23.0754 7.80969C22.9107 8.15161 22.8396 8.55304 22.8441 9.02406C22.8487 9.49883 22.9294 10.0129 23.0442 10.5643C23.0981 10.8228 23.1575 11.081 23.2182 11.3447L23.2294 11.3936C23.2932 11.6709 23.3582 11.955 23.4139 12.2334L23.7909 14.1161L22.1921 13.0527C20.7875 12.1185 20.6385 10.587 20.7879 9.2911C20.8639 8.63199 21.0225 7.96802 21.1803 7.36875C21.2324 7.17108 21.2834 6.98386 21.3319 6.80544C21.3756 6.64499 21.4173 6.49167 21.4562 6.34428C20.7692 5.96514 20.1067 5.5222 19.5085 4.96236C18.9292 5.24294 18.2757 5.44339 17.6194 5.53804C16.7414 5.66468 15.7824 5.61221 14.9602 5.22929L13.2142 4.41626L13.6495 4.25823C13.6074 4.1957 13.5695 4.12558 13.5387 4.04716C13.4201 3.74484 13.4551 3.43955 13.5686 3.18406L13.6046 3.10303L13.6575 3.0319L13.7098 2.96153L13.8481 2.77473C13.9625 2.6199 14.1141 2.41399 14.2636 2.20853C14.3832 2.04421 14.4994 1.88299 14.5937 1.74938ZM16.0911 2.38144C16.0562 2.43523 16.014 2.49708 15.9701 2.56035C15.8567 2.72363 15.7031 2.93709 15.5513 3.14565C15.4812 3.24198 15.4108 3.33822 15.344 3.4293C15.4059 3.44577 15.4726 3.46365 15.5252 3.47901C15.5267 3.47945 15.5283 3.47991 15.5299 3.48037C15.6014 3.50121 15.7747 3.55173 15.9229 3.64846C15.9753 3.6827 16.1171 3.78025 16.217 3.96171C16.5686 4.02187 16.9689 4.02279 17.3921 3.96175C17.7498 3.91016 18.103 3.81709 18.4294 3.69402V3.46274C18.4294 3.04392 18.3102 2.86808 18.2068 2.77182C18.0747 2.64895 17.8417 2.5409 17.4494 2.47262C17.061 2.40501 16.6149 2.39144 16.1201 2.38199C16.1104 2.38181 16.1008 2.38163 16.0911 2.38144Z" fill="#070808"/>
<path d="M9.90762 2.9019C10.894 1.66289 12.6568 1.97541 13.7474 2.73574C13.8146 2.98188 13.8442 3.41437 13.9112 3.66002C12.5663 3.58628 11.1396 3.53483 9.90762 2.9019Z" fill="#D39B29"/>
<path fill-rule="evenodd" clip-rule="evenodd" d="M11.8093 1.27291C12.6858 1.29581 13.5477 1.62561 14.2029 2.08239L14.4397 2.24752L14.5157 2.52608C14.5627 2.69855 14.5929 2.91114 14.6143 3.06137C14.6155 3.06963 14.6166 3.0777 14.6177 3.08556C14.6446 3.27396 14.662 3.38644 14.6795 3.45036L14.97 4.51544L13.8676 4.455C13.7964 4.4511 13.7242 4.44726 13.6511 4.44338C12.3948 4.37664 10.8791 4.29611 9.54375 3.61008L8.67944 3.16604L9.28464 2.40582C9.964 1.55245 10.9126 1.24949 11.8093 1.27291Z" fill="#D39B29"/>
<path d="M24.7416 6.11811C26.8713 5.01289 28.8301 6.9682 30.3644 8.15913C31.642 9.34956 33.6014 10.1144 33.8575 11.985C34.0274 13.0903 34.1978 14.195 34.3693 15.3007C30.7047 14.1103 29.5985 10.1144 26.3631 8.49897C27.5545 13.175 32.2395 15.3859 34.8815 19.0414C33.7733 18.5317 32.7518 17.9362 31.644 17.3412C31.5568 21.6774 35.3076 24.0583 37.9456 26.8637C36.8393 26.3534 35.8158 25.9284 34.7953 25.5033C30.9614 25.2482 26.8713 25.2482 23.4654 23.1225C21.7617 22.1024 19.9733 21.0824 17.9283 20.6574C20.5698 24.3129 24.9987 25.7584 29.3444 26.2682C30.8767 26.2682 31.7288 27.5433 32.8365 28.4786C32.9232 28.0536 33.0926 27.3729 33.1773 27.0336C33.4319 27.2035 33.7728 27.4586 33.9427 27.6285C34.283 31.3693 37.9451 33.8353 39.9921 36.8111C39.6513 37.0663 38.9691 37.4913 38.6277 37.7459C35.9867 36.1305 34.1116 33.5802 32.1533 31.1993C31.813 32.2198 31.3869 33.3251 30.9614 34.3451C31.813 35.7054 32.5793 37.1505 33.4314 38.5113C33.6014 38.6812 34.0269 39.0211 34.1978 39.2762C33.8575 39.2762 33.0896 39.3619 32.7498 39.4466C33.0059 40.9769 33.3462 42.5072 33.6866 44.1226C33.1758 44.0379 32.24 44.0379 31.814 44.0379C30.4506 44.0379 29.173 44.1226 27.8948 44.2079C27.8091 43.1878 27.8948 42.252 27.7234 41.232C27.0427 35.6207 21.7602 32.5602 17.8426 29.0741C14.8612 26.609 12.3055 23.1225 11.709 19.2118C11.8794 16.4911 13.7535 14.2807 14.946 11.985C16.3093 11.56 17.6722 11.135 19.035 10.6247C19.2906 10.7946 19.9723 10.9645 20.3127 11.0497C19.9718 12.4101 21.3347 12.8351 22.272 13.2602V13.6C22.0164 14.195 21.6755 14.7899 21.3347 15.3002C19.2906 14.7052 17.0752 14.5348 15.4572 16.1503C18.4385 16.2355 21.4204 16.5753 24.316 17.3407V16.8315C24.316 16.4064 24.316 15.5563 24.316 15.1313C23.6343 12.2397 22.697 8.49897 24.7416 6.11811Z" fill="#05327A"/>
<path fill-rule="evenodd" clip-rule="evenodd" d="M25.2446 6.75974C24.4874 7.71901 24.2446 8.96766 24.3022 10.4013C24.3604 11.8523 24.7195 13.3738 25.0553 14.7971C25.0673 14.8477 25.0792 14.8983 25.0911 14.9487L25.1124 15.0388V18.375L24.1126 18.1107C21.2904 17.3647 18.3718 17.0303 15.4345 16.9464L13.5859 16.8935L14.8946 15.5869C16.6661 13.8181 18.9905 13.892 20.9753 14.3793C21.1032 14.1652 21.2259 13.9434 21.338 13.7197C21.0009 13.5656 20.6232 13.3716 20.3182 13.1296C20.0379 12.9073 19.764 12.6081 19.6032 12.2034C19.5326 12.0257 19.4889 11.8406 19.4716 11.6493C19.4513 11.6433 19.431 11.6372 19.4107 11.631C19.2913 11.5948 19.1431 11.5475 18.9948 11.4886C17.8208 11.9174 16.6501 12.2875 15.4954 12.6479C15.2248 13.1457 14.9308 13.6352 14.6426 14.1121C14.6196 14.1501 14.5967 14.1881 14.5738 14.2259C14.2487 14.7636 13.9327 15.2861 13.6445 15.8184C13.0423 16.9301 12.5997 18.0175 12.5097 19.1777C13.0913 22.7978 15.484 26.0907 18.35 28.4605L18.3612 28.4697L18.372 28.4793C19.1258 29.1501 19.9284 29.8027 20.7546 30.4744C20.9841 30.6609 21.2153 30.8489 21.4478 31.0392C22.5078 31.9066 23.583 32.8127 24.561 33.7942C26.5158 35.756 28.1372 38.0742 28.5117 41.1183C28.6048 41.6803 28.6266 42.2101 28.6374 42.7026C28.6397 42.8088 28.6416 42.9124 28.6433 43.0141C28.6454 43.1316 28.6475 43.2466 28.6502 43.3604C29.6688 43.2958 30.7131 43.2417 31.814 43.2417H31.8441C32.0365 43.2417 32.3496 43.2416 32.6877 43.2511C32.424 42.0104 32.1678 40.7935 31.9644 39.5782L31.8429 38.8521L32.5572 38.6741C32.568 38.6714 32.5791 38.6687 32.5904 38.666C32.2171 38.058 31.8598 37.4386 31.509 36.8304L31.5065 36.826C31.1007 36.1224 30.7033 35.4336 30.2865 34.7677L30.0679 34.4186L30.2265 34.0386C30.6468 33.0312 31.0654 31.9448 31.3979 30.9475L31.8535 29.5814L32.7683 30.6936C33.0215 31.0014 33.271 31.3087 33.5187 31.6138C35.117 33.5828 36.6422 35.4617 38.6102 36.7884C38.6902 36.7347 38.7711 36.6809 38.8494 36.6289L38.8633 36.6197C38.4904 36.1414 38.0763 35.6659 37.639 35.1794C37.4754 34.9974 37.3076 34.8129 37.1378 34.6261C36.6628 34.1037 36.1722 33.5642 35.7158 33.0167C34.801 31.9194 33.9467 30.7043 33.4828 29.2945L33.3484 29.9531L32.3228 29.0872C32.0431 28.851 31.7803 28.5966 31.5418 28.3657C31.5229 28.3474 31.5041 28.3292 31.4854 28.3112C31.2239 28.0582 30.9903 27.8356 30.7513 27.6439C30.285 27.2697 29.861 27.0646 29.3444 27.0646H29.2979L29.2517 27.0592C24.8295 26.5405 20.1213 25.0518 17.2829 21.1239L16.0807 19.4601L18.0904 19.8779C20.2821 20.3334 22.1749 21.4218 23.8745 22.4393L23.8808 22.4431L23.8871 22.447C26.7312 24.2222 30.084 24.422 33.5597 24.6291C33.8965 24.6492 34.2345 24.6693 34.5733 24.691C34.0869 24.2123 33.6071 23.7145 33.1645 23.1904C31.8381 21.6197 30.799 19.7579 30.8479 17.3253L30.8741 16.0239L30.9689 16.0748C30.9496 16.057 30.9302 16.0392 30.9109 16.0214C30.4552 15.6024 29.9903 15.175 29.5251 14.7257C27.8475 13.1053 26.2436 11.2553 25.5914 8.69568L25.1617 7.00918L26.7188 7.78663C28.3528 8.6025 29.4922 9.96563 30.5106 11.1841C30.6128 11.3063 30.7137 11.4271 30.8138 11.5458C31.6243 12.5061 32.3989 13.3564 33.3551 13.9537C33.26 13.3378 33.1652 12.722 33.0705 12.1061L33.0685 12.0932C32.9797 11.4449 32.6018 10.9488 31.9812 10.4263C31.7073 10.1956 31.4108 9.97967 31.0879 9.74444C31.0403 9.70982 30.9922 9.67478 30.9435 9.63921C30.5854 9.37763 30.1992 9.08998 29.8485 8.76674C29.6519 8.6136 29.4587 8.45765 29.267 8.30284C28.6547 7.80848 28.0567 7.32562 27.405 6.98209C26.6366 6.57705 25.9451 6.4521 25.2446 6.75974ZM32.5686 18.7529C32.8365 20.026 33.5003 21.1196 34.3813 22.1628C34.979 22.8706 35.6647 23.5409 36.3844 24.2249C36.4995 24.3343 36.6157 24.4443 36.7326 24.5549C37.3363 25.1261 37.9566 25.713 38.5257 26.3183L37.6121 27.5868C36.565 27.1039 35.5923 26.6979 34.6112 26.2893C34.2356 26.265 33.8541 26.2429 33.4679 26.2206C33.4408 26.219 33.4136 26.2174 33.3864 26.2159L33.6194 26.3713C33.8849 26.5485 34.2788 26.8386 34.5058 27.0656L34.7096 27.2694L34.7358 27.5565C34.8834 29.1794 35.7537 30.5751 36.9391 31.9969C37.3718 32.516 37.8279 33.0176 38.2955 33.5319C38.4701 33.7239 38.6462 33.9176 38.8234 34.1148C39.4641 34.8275 40.1057 35.5713 40.6482 36.3599L41.0818 36.9903L40.4693 37.4487C40.2797 37.5907 40.0074 37.7716 39.7622 37.9345L39.7508 37.9421C39.4871 38.1173 39.253 38.2731 39.1039 38.3843L38.672 38.7065L38.2123 38.4253C35.8562 36.9841 34.0789 34.8361 32.4296 32.8012C32.2446 33.2956 32.0496 33.7916 31.8528 34.2729C32.2071 34.8531 32.5472 35.4428 32.8815 36.0225L32.886 36.0303C33.2749 36.7044 33.656 37.3651 34.0542 38.0052C34.0791 38.028 34.107 38.053 34.1397 38.0821C34.1951 38.1315 34.2642 38.1932 34.3556 38.2779C34.5016 38.4132 34.7158 38.6188 34.8594 38.8331L35.6898 40.0726H34.1979C34.0775 40.0726 33.8815 40.087 33.6751 40.1087C33.8557 41.0867 34.0654 42.0728 34.2839 43.1005C34.344 43.3832 34.4048 43.669 34.4658 43.9586L34.7061 45.099L33.5563 44.9083C33.126 44.8369 32.2693 44.8343 31.814 44.8343C30.4811 44.8343 29.2289 44.9171 27.9478 45.0025L27.1669 45.0546L27.1014 44.2746C27.0647 43.8383 27.0573 43.411 27.0505 43.0177C27.0488 42.9221 27.0472 42.8286 27.0452 42.7375C27.0347 42.2573 27.014 41.8153 26.9381 41.3641L26.9351 41.3461L26.9329 41.328C26.6226 38.7697 25.265 36.7571 23.4328 34.9182C22.5153 33.9974 21.4929 33.134 20.4392 32.2717C20.2163 32.0893 19.9914 31.9064 19.7658 31.7231C18.9392 31.0511 18.104 30.3721 17.324 29.6787C14.2547 27.1374 11.5567 23.4943 10.9218 19.332L10.9089 19.2475L10.9143 19.1622C11.01 17.6332 11.5829 16.2807 12.244 15.0599C12.5511 14.4929 12.8859 13.9394 13.2069 13.4086C13.2312 13.3684 13.2555 13.3283 13.2796 13.2883C13.6266 12.7142 13.9547 12.1661 14.2393 11.6181L14.3923 11.3237L14.709 11.2249C16.0755 10.7989 17.4172 10.3802 18.7558 9.87905L19.137 9.73636L19.5 9.5C19.5 9.5 19.9326 9.47363 20 9.5C20.0789 9.53087 20.3887 9.46619 20.5 9.5C20.7225 9.56757 22.5663 9.10478 22.7388 9.14797L22.7152 10.5638L22.9629 12.6479C22.9124 12.8496 21.0588 11.5537 21.0833 11.6153C21.1763 11.6632 21.3239 11.7358 21.459 11.8429C21.7308 12.0173 21.8553 12.0964 22.2423 12.3358C22.3543 12.3847 22.476 12.4784 22.6009 12.5351L22.9728 12.7037C22.874 11.9 22.803 11.3026 22.7108 10.4652C22.6429 8.77236 22.9297 7.00585 24.1375 5.59943L24.2379 5.48244L24.3748 5.41141C25.757 4.6941 27.0704 5.00542 28.1476 5.57323C28.9515 5.99694 29.7223 6.62065 30.3544 7.1321C30.5323 7.276 30.6992 7.41102 30.8527 7.53019L30.881 7.55218L30.9073 7.57663C31.1883 7.83844 31.5155 8.08476 31.8829 8.35317C31.9285 8.38646 31.9748 8.42018 32.0217 8.45433C32.3406 8.68643 32.6867 8.93837 33.0069 9.20798C33.748 9.83194 34.4763 10.6517 34.6455 11.8701C34.8151 12.9731 34.9851 14.0755 35.1562 15.1788L35.3545 16.4581L34.1233 16.0581C33.4936 15.8536 32.9334 15.5757 32.4265 15.2499C33.529 16.2712 34.6445 17.3541 35.5269 18.5751L37.3023 21.0315L34.5488 19.7649C33.8692 19.4524 33.2148 19.1051 32.5686 18.7529ZM23.0683 13.2081V13.7639L23.0036 13.9145C22.7246 14.564 22.358 15.202 21.9969 15.7426L21.8383 15.98C22.4006 16.0807 22.9613 16.1948 23.5198 16.3237V15.2242C23.5113 15.1883 23.5027 15.1521 23.4942 15.1158C23.3537 14.5211 23.2014 13.8769 23.0683 13.2081ZM32.5728 26.1676C32.1537 26.1417 31.7305 26.1133 31.3049 26.0794C31.4609 26.1807 31.6082 26.2895 31.748 26.4017C31.9689 26.5789 32.1786 26.7707 32.3756 26.9579C32.3862 26.9153 32.396 26.876 32.4048 26.8408L32.5728 26.1676ZM21.2668 22.7817C21.8354 23.0838 22.3975 23.4121 22.9617 23.7491C22.3698 23.4661 21.8027 23.1451 21.2668 22.7817Z" fill="#002868"/>
<path d="M2.84913 6.28869C5.31921 5.60852 7.44895 7.64904 8.38625 9.68956C9.32356 11.7306 9.91953 13.8558 11.1972 15.6412C11.8788 14.6207 12.4748 13.5155 13.0713 12.4108C13.3264 11.9005 13.8377 10.9652 14.1785 10.4554C15.2862 10.4554 16.3935 10.4554 17.5007 10.5402L19.0345 10.6254C17.6716 11.1356 16.3083 11.5607 14.9454 11.9857C13.753 14.2814 11.8788 16.4918 11.7084 19.2125C12.3049 23.1231 14.8607 26.6097 17.842 29.0748C21.7602 32.5603 27.0417 35.6209 27.7223 41.2322C27.4677 41.0623 26.8702 40.7219 26.6161 40.552C26.0187 42.1675 25.3385 43.783 24.6568 45.3984C26.1881 44.7443 32.3442 39.1516 34.0073 44.9569C38.7766 44.6155 54.1298 49.9196 40.2457 49.9897C32.9703 49.9256 26.3034 49.6263 19.2891 50.1597C12.4798 50.6028 7.54819 51.5847 6.68206 49.9897C5.35479 47.5462 10.0894 46.6736 12.2192 46.2485C15.2005 45.9939 18.1819 45.4837 20.8229 44.1228C20.7377 40.127 18.9487 36.5562 16.7338 33.3252C15.9674 33.1553 15.2857 33.0701 14.5188 32.9854C13.1565 35.0254 12.6452 37.5762 11.1115 39.532C10.5155 41.3174 10.0894 43.188 9.32306 44.9734C9.06743 42.0828 8.89701 39.2769 8.64138 36.3868L7.61937 36.4715C7.44895 36.5567 7.19332 36.5567 7.0229 36.5567C6.59685 37.2374 5.57483 38.5125 5.14879 39.1075C4.80795 33.8365 5.91567 28.14 3.5303 23.2088C2.42308 20.828 1.7414 18.3624 1.06022 15.8116C1.06022 12.6654 -0.217422 8.49913 2.84913 6.28869Z" fill="#002868"/>
<path fill-rule="evenodd" clip-rule="evenodd" d="M3.19776 7.02186C2.03986 7.9183 1.65809 9.18598 1.60047 10.7287C1.5705 11.5313 1.63017 12.373 1.7021 13.2413C1.7101 13.3378 1.71827 13.4349 1.72647 13.5324C1.78745 14.2568 1.85019 15.002 1.85608 15.7052C2.52866 18.2211 3.1911 20.5894 4.24988 22.8675C5.51364 25.4831 5.83754 28.2721 5.90233 31.0117C5.92918 32.1469 5.91147 33.2909 5.89409 34.4133C5.89051 34.6445 5.88694 34.8747 5.88378 35.1038C5.87582 35.6812 5.87039 36.2526 5.87328 36.8179C6.06706 36.5534 6.23398 36.316 6.34793 36.134L6.58191 35.7602H7.02291C7.11256 35.7602 7.18074 35.7596 7.24191 35.7535C7.26272 35.7514 7.27733 35.7491 7.28659 35.7474L7.40059 35.6904L9.36482 35.5276L9.4346 36.3164C9.56291 37.7671 9.66978 39.1959 9.77619 40.6186L9.77631 40.6203C9.78696 40.7627 9.79761 40.905 9.80827 41.0473C9.97877 40.4706 10.1546 39.8833 10.3561 39.2797L10.3998 39.1489L10.4849 39.0404C11.1808 38.153 11.6572 37.1146 12.1481 35.9751C12.1918 35.8736 12.2357 35.7711 12.2799 35.6678C12.7197 34.6413 13.1925 33.5374 13.8566 32.543L14.1254 32.1406L14.6063 32.1937C15.379 32.2791 16.0959 32.368 16.9062 32.5476L17.2129 32.6156L17.3906 32.8748C19.6386 36.1539 21.5289 39.8805 21.619 44.1056L21.6296 44.6027L21.1876 44.8305C18.4211 46.256 15.3325 46.7791 12.3314 47.0379C12.3001 47.0442 12.2684 47.0505 12.2364 47.0569C11.1469 47.2737 9.61546 47.5786 8.48053 48.0884C7.87973 48.3583 7.51289 48.6339 7.34863 48.8782C7.27655 48.9854 7.24986 49.0768 7.24761 49.165C7.24526 49.2569 7.26837 49.4006 7.38181 49.6095C7.41996 49.6797 7.57717 49.8544 8.20194 49.9678C8.79965 50.0762 9.63537 50.0935 10.7201 50.0433C11.7954 49.9935 13.0588 49.8809 14.4968 49.751L14.6236 49.7396C16.0214 49.6133 17.5712 49.4733 19.233 49.3651C24.6992 48.9498 29.9659 49.0364 35.4258 49.1263C37.0133 49.1524 38.6172 49.1788 40.247 49.1932C41.961 49.1844 43.1897 49.0946 44.0276 48.9538C44.4436 48.884 44.7412 48.8051 44.9447 48.728C44.712 48.5361 44.3246 48.2989 43.7777 48.037C42.496 47.4234 40.6219 46.8062 38.7623 46.3638C36.8864 45.9176 35.1302 45.6746 34.0642 45.7509L33.4197 45.797L33.2418 45.1759C32.8722 43.8858 32.3151 43.4111 31.8054 43.239C31.2361 43.0469 30.4801 43.1436 29.5714 43.4973C28.6805 43.8439 27.7711 44.3862 26.9602 44.907C26.7592 45.036 26.5667 45.1622 26.3826 45.283L26.3509 45.3037C26.1794 45.4163 26.0138 45.5248 25.8601 45.6235C25.5494 45.823 25.2317 46.0186 24.9696 46.1305L23.1567 46.9049L23.9232 45.0887C24.6058 43.4708 25.279 41.8716 25.8693 40.2756L26.2195 39.3287L26.52 39.5296C25.9234 37.7877 24.8125 36.3036 23.4321 34.9182C22.5148 33.9974 21.4924 33.134 20.4388 32.2718C20.2152 32.0888 19.9896 31.9055 19.7634 31.7216C18.9375 31.0503 18.1029 30.3718 17.3235 29.6791C14.2541 27.1378 11.5561 23.4947 10.9212 19.3324L10.9084 19.2478L10.9137 19.1625C10.9709 18.2489 11.1985 17.3982 11.5135 16.6011L11.2197 17.0408L10.5496 16.1044C9.85964 15.1402 9.36423 14.099 8.9304 13.0705C8.76041 12.6675 8.60386 12.2772 8.44964 11.8927C8.19734 11.2637 7.95125 10.6502 7.66265 10.0217M14.6162 11.2541L14.6236 11.2518L14.6176 11.2517L14.6162 11.2541ZM17.5531 9.74533L19.0786 9.83009L19.3137 11.3709C18.0326 11.8505 16.7538 12.2552 15.4948 12.6483C15.2242 13.1461 14.9302 13.6356 14.642 14.1125C14.6191 14.1505 14.5961 14.1884 14.5732 14.2263C14.2481 14.7639 13.9321 15.2865 13.6439 15.8187C13.0417 16.9305 12.5991 18.0179 12.5091 19.178C13.0907 22.7982 15.4834 26.0911 18.3495 28.4609L18.3606 28.47L18.3713 28.4796C19.1246 29.1497 19.9266 29.8017 20.752 30.4728C20.9822 30.6598 21.2141 30.8484 21.4474 31.0393C22.5073 31.9066 23.5825 32.8126 24.5604 33.7941C26.5188 35.7598 28.1425 38.0832 28.5129 41.1361L28.6371 42.1601C28.7555 42.1087 28.8745 42.0595 28.9939 42.0131C30.0235 41.6124 31.2141 41.3586 32.3147 41.7301C33.3256 42.0713 34.0904 42.8768 34.576 44.1452C35.8464 44.1581 37.5035 44.4274 39.1308 44.8145C41.0574 45.2728 43.0481 45.922 44.4654 46.6005C45.1592 46.9327 45.7909 47.3066 46.1963 47.7157C46.3976 47.9188 46.6118 48.1982 46.6894 48.5516C46.7788 48.9585 46.6622 49.348 46.3986 49.6496C46.1662 49.9154 45.8434 50.0896 45.5186 50.2136C45.1822 50.3421 44.7713 50.4438 44.2914 50.5244C43.331 50.6857 42.0039 50.777 40.2497 50.7858L40.2387 50.7859C38.5786 50.7712 36.9548 50.7445 35.3549 50.7182C29.9077 50.6288 24.7367 50.5439 19.3495 50.9535L19.3408 50.9541C17.6978 51.061 16.164 51.1995 14.7619 51.3262L14.64 51.3372C13.2111 51.4662 11.9108 51.5825 10.7937 51.6342C9.68612 51.6855 8.70095 51.6769 7.91759 51.5348C7.16129 51.3975 6.37721 51.0968 5.9823 50.3696C5.76394 49.9675 5.64468 49.5494 5.65553 49.1243C5.66648 48.6955 5.80857 48.3144 6.02699 47.9896C6.44374 47.3697 7.14481 46.9425 7.82798 46.6356C9.13506 46.0485 10.8282 45.7126 11.8839 45.5031C11.946 45.4908 12.0059 45.4789 12.0633 45.4674L12.107 45.4587L12.1514 45.4549C14.9232 45.2182 17.615 44.7626 20.0065 43.6372C19.8009 40.1713 18.2544 37.0034 16.2559 34.0384C15.809 33.95 15.3818 33.8886 14.9255 33.8334C14.4746 34.5924 14.1183 35.4227 13.7368 36.3117C13.6952 36.4088 13.6532 36.5066 13.6108 36.6051C13.1391 37.7002 12.6141 38.8699 11.8249 39.9106C11.6511 40.4403 11.4849 41.0011 11.3142 41.5771C10.9528 42.7967 10.5712 44.0842 10.0548 45.2873L8.52987 45.0433C8.40161 43.593 8.29478 42.1647 8.18841 40.7426L8.18815 40.7391C8.1011 39.5753 8.01435 38.4156 7.91614 37.2457L7.80273 37.2551C7.67865 37.297 7.56019 37.3187 7.46419 37.3309C7.2457 37.6461 6.97664 38.0066 6.72076 38.3446C6.60774 38.4939 6.49705 38.6392 6.39196 38.7771C6.15069 39.0937 5.93894 39.3716 5.79622 39.5709L4.49804 41.3837L4.35416 39.1586C4.26677 37.8073 4.27266 36.4361 4.29134 35.0819C4.29458 34.8469 4.29819 34.6126 4.3018 34.379C4.31913 33.2573 4.33622 32.1504 4.31018 31.0493C4.24733 28.3921 3.93282 25.8693 2.81348 23.5554L2.80819 23.5445C1.66787 21.0924 0.970972 18.5635 0.290892 16.0169L0.263932 15.9159V15.8114C0.263932 15.0752 0.204103 14.4363 0.139339 13.6648C0.131245 13.5683 0.123074 13.471 0.114933 13.3727C0.0431293 12.5059 -0.0249518 11.5779 0.00898386 10.6693C0.0772815 8.84062 0.566358 6.95236 2.3835 5.64251L2.49967 5.55878L2.63773 5.52076C4.15591 5.10271 5.54943 5.53579 6.65337 6.31929C7.74499 7.09404 8.59376 8.23339 9.10987 9.35697C9.41076 10.0121 9.6872 10.7002 9.95257 11.3607C10.1037 11.737 10.2513 12.1043 10.3978 12.4516C10.6473 13.043 10.9051 13.6071 11.1975 14.1405C11.5959 13.4668 11.9758 12.7634 12.3647 12.0431C12.6281 11.5177 13.1515 10.5586 13.5166 10.0126L13.753 9.65894H14.193C15.2885 9.65894 16.4183 9.65894 17.5531 9.74533ZM28.0729 42.4232L27.2803 41.8943C27.2186 41.8531 27.1284 41.7973 27.0207 41.7319C26.8043 42.2909 26.5803 42.8492 26.352 43.4062C26.8731 43.0775 27.459 42.7283 28.0729 42.4232ZM3.19776 7.02186C4.09953 6.81866 4.95798 7.06897 5.73161 7.61803C6.55668 8.20361 7.24146 9.10483 7.66265 10.0217" fill="#002868"/>
<path d="M26.3604 8.49902C29.5979 10.1145 30.7046 14.1103 34.3671 15.3008C34.1972 14.195 34.0268 13.0903 33.8549 11.9851C38.7113 16.3208 43.3117 20.9968 48.7621 24.4834C48.4227 24.9084 47.6558 25.6733 47.3145 26.0983C50.0397 29.3293 53.7032 31.6244 57.1106 34.0053C58.1321 34.5156 58.3036 36.3004 57.0259 36.4709C54.0446 35.706 51.4888 33.9201 48.9335 32.3051C47.3145 32.645 45.7807 32.1352 44.5031 30.9448C43.9923 30.9448 42.9708 30.7748 42.4601 30.6896C41.8646 30.2646 41.2681 29.7543 40.6696 29.2441C38.796 29.0737 36.9229 28.6486 35.0478 28.3093L33.9396 27.6291C33.7697 27.4592 33.4278 27.2041 33.1742 27.0341C33.0875 27.3735 32.9181 28.0541 32.8334 28.4792C31.7251 27.5439 30.8735 26.2688 29.3413 26.2688C24.9951 25.7585 20.5657 24.3129 17.9252 20.6574C19.9697 21.0825 21.7586 22.1025 23.4623 23.1225C26.8692 25.2482 30.9582 25.2482 34.7912 25.5034C35.8117 25.9284 36.8352 26.3535 37.9414 26.8637C35.3014 24.0583 31.5527 21.6775 31.6404 17.3413C32.7487 17.9368 33.7702 18.5317 34.8779 19.0415C32.2374 15.386 27.5524 13.175 26.3604 8.49902Z" fill="#002868"/>
<path fill-rule="evenodd" clip-rule="evenodd" d="M25.159 7.00952L26.716 7.78644C28.3517 8.60263 29.4919 9.96651 30.511 11.1855C30.6127 11.3072 30.7132 11.4275 30.813 11.5456C31.6237 12.5062 32.3982 13.3566 33.3541 13.9538C33.2591 13.3383 33.1638 12.7229 33.0681 12.1074L32.7262 9.90993L34.3852 11.391C35.5036 12.3895 36.6017 13.3991 37.6943 14.4037C41.3975 17.8086 45.0376 21.1555 49.1912 23.8125L49.9361 24.289L49.3844 24.9801C49.1943 25.2182 48.899 25.5356 48.6343 25.8201L48.622 25.8332C48.5356 25.9261 48.4522 26.0158 48.3738 26.1009C50.568 28.5306 53.3083 30.4165 56.084 32.3269C56.564 32.6572 57.0449 32.9882 57.5244 33.3229C58.3048 33.7431 58.7112 34.5916 58.7266 35.3492C58.7348 35.7515 58.6356 36.1897 58.3617 36.5595C58.0768 36.9439 57.6486 37.1911 57.1312 37.2601L56.9779 37.2806L56.8281 37.2421C54.0612 36.5323 51.6451 34.9849 49.3948 33.5436C49.1847 33.409 48.9761 33.2754 48.7687 33.1435C47.0805 33.397 45.4976 32.8551 44.1846 31.728C43.5892 31.6854 42.774 31.5493 42.3616 31.4804L42.1474 31.4447L41.9975 31.3377C41.4358 30.9368 40.878 30.4676 40.3437 30.0125C38.9835 29.8729 37.6149 29.6093 36.2869 29.3535C35.8209 29.2637 35.3599 29.1749 34.906 29.0928L34.7588 29.0661L33.6651 28.3949C33.646 28.481 33.6288 28.5622 33.6143 28.6348L33.3507 29.9577L32.3198 29.0877C32.0397 28.8512 31.7765 28.5965 31.5378 28.3654C31.5191 28.3473 31.5005 28.3294 31.4821 28.3116C31.2205 28.0586 30.9869 27.8359 30.748 27.6442C30.2818 27.2701 29.8578 27.065 29.3413 27.065H29.2947L29.2485 27.0596C24.826 26.5403 20.1171 25.0517 17.2797 21.1237L16.078 19.46L18.0873 19.8778C20.2785 20.3333 22.1717 21.4216 23.8714 22.4392L23.8777 22.443L23.8839 22.4469C26.7289 24.2221 30.0811 24.4219 33.5558 24.629C33.8922 24.649 34.2299 24.6692 34.5683 24.6908C34.0819 24.2122 33.6021 23.7143 33.1596 23.1902C31.8335 21.6194 30.7951 19.7576 30.8443 17.3251L30.8707 16.0236L30.9673 16.0755C30.9472 16.0571 30.9272 16.0386 30.9071 16.0202C30.4518 15.6015 29.9874 15.1745 29.5227 14.7256C27.8453 13.1052 26.2413 11.2552 25.5888 8.69565L25.159 7.00952ZM32.5647 18.7527C32.8323 20.0259 33.4958 21.1196 34.3765 22.1628C34.9741 22.8706 35.6596 23.5408 36.3794 24.2248C36.4956 24.3352 36.6129 24.4462 36.7308 24.5577C37.3336 25.1279 37.9529 25.7139 38.5214 26.3179L37.6079 27.5867C36.5609 27.1038 35.5881 26.6978 34.6071 26.2892C34.2316 26.2649 33.8501 26.2428 33.4641 26.2205C33.4372 26.2189 33.4104 26.2174 33.3836 26.2158L33.6175 26.3725C33.8531 26.5304 34.1959 26.7805 34.4281 26.9945L35.3372 27.5525C35.7807 27.6337 36.2179 27.7179 36.6507 27.8012C38.0404 28.0688 39.3845 28.3275 40.7418 28.451L40.9938 28.4739L41.2079 28.6564C41.7525 29.1208 42.2679 29.5603 42.7757 29.9347C43.3284 30.0257 44.1206 30.1484 44.5031 30.1484H44.8166L45.046 30.3621C46.1632 31.4031 47.441 31.8047 48.7699 31.5257L49.086 31.4594L49.359 31.6319C49.661 31.8228 49.9606 32.0143 50.2587 32.2048C52.4774 33.6229 54.6123 34.9873 57.0356 35.6496C57.0648 35.6345 57.0763 35.6191 57.082 35.6114C57.1034 35.5826 57.137 35.5107 57.1343 35.3817C57.1285 35.0952 56.9582 34.8192 56.7548 34.7176L56.7025 34.6915L56.6546 34.658C56.1797 34.3262 55.6964 33.9939 55.2084 33.6585C52.2478 31.6234 49.1189 29.4726 46.7058 26.6117L46.2833 26.1107L46.6937 25.5997C46.8813 25.366 47.1708 25.055 47.4324 24.7739L47.4561 24.7483C47.489 24.713 47.5215 24.6781 47.5534 24.6438C43.5887 21.99 40.0448 18.7306 36.5509 15.5173C36.0283 15.0366 35.5067 14.5569 34.9851 14.0805C35.0415 14.4469 35.0979 14.8133 35.1542 15.1797L35.3506 16.4577L34.121 16.058C33.4901 15.8529 32.9288 15.5741 32.4211 15.2472C33.5243 16.2693 34.6407 17.3531 35.5234 18.5751L37.2978 21.0316L34.545 19.7648C33.8655 19.4521 33.2111 19.1049 32.5647 18.7527ZM32.5737 26.1678C32.153 26.1418 31.7281 26.1133 31.3008 26.0792C31.4571 26.1807 31.6047 26.2897 31.7447 26.4021C31.9655 26.5793 32.1751 26.7709 32.372 26.958C32.3831 26.9139 32.3934 26.8733 32.4027 26.8369L32.5737 26.1678ZM21.2615 22.7805C21.8318 23.0834 22.3955 23.4126 22.9613 23.7506C22.3676 23.4669 21.7988 23.145 21.2615 22.7805Z" fill="#002868"/>
<path d="M21.3341 15.3008C21.675 14.7905 22.0158 14.195 22.2714 13.6006C23.0378 14.6206 23.7195 15.7263 24.316 16.8315V17.3413C21.4198 16.5764 18.4385 16.2361 15.4567 16.1509C17.0746 14.5359 19.2896 14.7058 21.3341 15.3008Z" fill="#002868"/>
<path fill-rule="evenodd" clip-rule="evenodd" d="M22.0827 12.0237L22.9081 13.1222C23.7034 14.1807 24.4059 15.3215 25.0167 16.4533L25.1123 16.6303V18.3751L24.1126 18.1111C21.2898 17.3656 18.3716 17.0307 15.4339 16.9468L13.585 16.8939L14.8941 15.5872C16.6656 13.819 18.9895 13.8925 20.9746 14.3797C21.1851 14.0273 21.3818 13.6537 21.5399 13.2859L22.0827 12.0237ZM22.3784 15.1349C22.2531 15.3473 22.1244 15.5513 21.9963 15.743L21.8376 15.9806C22.245 16.0535 22.6515 16.1335 23.057 16.221C22.84 15.854 22.6138 15.4908 22.3784 15.1349Z" fill="#002868"/>
<path d="M32.1527 31.1995C34.111 33.5803 35.9862 36.1311 38.6282 37.7461C38.9675 37.4914 39.6482 37.0659 39.9915 36.8113L40.3319 36.5561C42.4616 38.0869 44.9307 39.2768 46.4629 41.4878C44.3332 42.7629 42.1188 44.1233 39.5635 44.2932C37.348 43.018 35.9862 40.977 34.1963 39.2768C34.0263 39.0217 33.6008 38.6819 33.4309 38.512C32.5788 37.1511 31.8139 35.7061 30.9618 34.3457C31.3858 33.3252 31.8114 32.22 32.1527 31.1995Z" fill="#002868"/>
<path fill-rule="evenodd" clip-rule="evenodd" d="M31.8539 29.5825L32.7678 30.6935C33.0211 31.0015 33.2707 31.309 33.5186 31.6144C35.1166 33.5831 36.6415 35.4617 38.6096 36.7878C38.6955 36.73 38.7826 36.672 38.8664 36.6163L38.869 36.6145C39.1307 36.4403 39.3646 36.2847 39.5157 36.1727L39.5173 36.1716L40.0004 35.5L40.7967 35.9095C41.312 36.2798 41.8506 36.6316 42.4075 36.9942L42.4541 37.0246C42.9914 37.3745 43.5454 37.7352 44.0833 38.1181C45.1912 38.9067 46.2759 39.8197 47.1175 41.0341L47.6023 41.7337L46.8721 42.1709C46.8022 42.2127 46.7321 42.2548 46.6616 42.2971C44.6226 43.5196 42.3056 44.9088 39.6164 45.0877L39.3755 45.1037L39.1663 44.9833C37.9612 44.2896 37.0051 43.397 36.144 42.4938C35.819 42.153 35.5162 41.8209 35.2199 41.4959C34.7039 40.93 34.2076 40.3857 33.6479 39.8541L33.5831 39.7926L33.5336 39.7182C33.5071 39.6784 33.424 39.5871 33.2721 39.4462C33.2152 39.3934 33.1588 39.3428 33.1015 39.2913C33.0897 39.2807 33.0778 39.27 33.0659 39.2594C33.0024 39.2023 32.9279 39.135 32.8679 39.075L32.804 39.0111L32.756 38.9345C32.3227 38.2424 31.9128 37.5311 31.5113 36.8346L31.5065 36.8262C31.101 36.1226 30.704 35.434 30.287 34.7683L30.0687 34.4198L30.2265 34.0401C30.6455 33.0317 31.0638 31.9447 31.3976 30.9468L31.8539 29.5825ZM32.4287 32.8007C32.2439 33.2951 32.0491 33.7912 31.853 34.2727C32.2083 34.8545 32.5491 35.4458 32.884 36.0269L32.8863 36.0309C33.2749 36.7052 33.6556 37.3657 34.0537 38.0057C34.0784 38.0284 34.1061 38.0531 34.1384 38.0819C34.1939 38.1314 34.2631 38.1932 34.3552 38.2786C34.482 38.3962 34.6611 38.5676 34.7999 38.752C35.3753 39.3035 35.9277 39.9084 36.4562 40.4871C36.7435 40.8017 37.0237 41.1085 37.2967 41.3948C38.0605 42.196 38.8343 42.9142 39.7518 43.4786C41.7051 43.285 43.4659 42.3404 45.2809 41.2659C44.6767 40.5741 43.9549 39.9816 43.1598 39.4156C42.6492 39.0522 42.1193 38.7071 41.5738 38.3519L41.5384 38.3288C41.1445 38.0723 40.7426 37.8102 40.3454 37.5379C40.1765 37.6574 39.9709 37.7943 39.7796 37.9215L39.7496 37.9415C39.4868 38.1164 39.2537 38.2722 39.1062 38.3829L38.674 38.7072L38.2129 38.4254C35.8557 36.9845 34.0781 34.8359 32.4287 32.8007Z" fill="#002868"/>
<path d="M7.61985 36.4707L8.64186 36.386C8.89749 39.2761 9.06791 42.082 9.32354 44.9726V45.5681L7.61985 45.3135C7.36372 42.4223 7.53464 39.4465 7.61985 36.4707Z" fill="#05327A"/>
<path fill-rule="evenodd" clip-rule="evenodd" d="M9.36534 35.5271L9.43511 36.3159C9.56343 37.7667 9.6703 39.1956 9.77671 40.6183L9.77683 40.6198C9.8834 42.0447 9.98953 43.4635 10.1168 44.9026L10.1199 44.9376V46.4923L6.88203 46.0084L6.8267 45.3838C6.60892 42.9257 6.69356 40.4041 6.7766 37.9301C6.79325 37.4338 6.80984 36.9395 6.82392 36.448L6.8443 35.7361L9.36534 35.5271ZM8.2809 41.9657C8.28223 42.8584 8.3052 43.7428 8.36449 44.6197L8.49517 44.6392C8.41791 43.7414 8.34816 42.8515 8.2809 41.9657Z" fill="#05327A"/>
<path d="M26.6157 40.5518C26.8703 40.7217 27.4673 41.0625 27.7219 41.2319C27.8933 42.2519 27.8086 43.1877 27.8933 44.2078C27.554 44.293 26.955 44.5476 26.7019 44.6328C26.1896 44.8879 25.1681 45.2278 24.6573 45.3977C25.338 43.7827 26.0187 42.1672 26.6157 40.5518Z" fill="#FAFDFF"/>
<path fill-rule="evenodd" clip-rule="evenodd" d="M26.2184 39.3293L27.0576 39.8894C27.1648 39.9609 27.3571 40.0765 27.5782 40.209L27.5977 40.2207C27.7975 40.3405 28.0207 40.4743 28.163 40.569L28.45 40.7599L28.5071 41.0999C28.6027 41.6685 28.6251 42.2042 28.6362 42.7022C28.6386 42.8105 28.6405 42.9161 28.6423 43.0198C28.6491 43.4055 28.6555 43.7649 28.6868 44.1418L28.7428 44.8154L28.0872 44.9801C27.9694 45.0096 27.7767 45.0779 27.5478 45.1647C27.4909 45.1863 27.4299 45.2099 27.3684 45.2336C27.2396 45.2832 27.1087 45.3336 27.0086 45.3692C26.4351 45.6456 25.4243 45.9818 24.9393 46.1431L23.2408 46.7081L23.9235 45.0884C24.6054 43.4705 25.279 41.8716 25.8687 40.2757L26.2184 39.3293ZM26.9943 41.7991C26.7043 42.5465 26.4006 43.2925 26.0921 44.0355C26.1877 43.9952 26.2739 43.9563 26.3468 43.92L26.3959 43.8956L26.4478 43.8781C26.5179 43.8545 26.6181 43.8159 26.7482 43.7657C26.8178 43.7388 26.8959 43.7087 26.9826 43.6758C27.009 43.6658 27.0362 43.6555 27.064 43.6451C27.0565 43.4311 27.0529 43.2226 27.0494 43.0228C27.0477 42.9255 27.046 42.8303 27.044 42.7375C27.0368 42.4122 27.0248 42.1043 26.9943 41.7991Z" fill="#FAFDFF"/>
<path d="M16.217 46.2937L20.8484 45.9092L23.8323 49.1733L18.642 49.2439L16.217 46.2937ZM26.4026 45.9213L32.0014 45.6611L33.487 49.1267L28.805 49.1196L26.4026 45.9213ZM38.4869 46.3067C42.9333 46.4706 48.278 49.659 40.0141 49.1643C39.3334 47.9738 39.0823 47.4967 38.4869 46.3067ZM11.5019 46.9358C12.2688 47.8711 12.7916 48.8079 13.559 49.658C5.77534 50.5627 5.33576 48.0455 11.5019 46.9358Z" fill="#C58C2B"/>
<path d="M12.2407 46.7932C13.1881 46.5466 14.0918 46.3146 15.5945 46.3827L18.035 49.4538C17.6089 49.4538 14.5284 49.5982 14.5284 49.5982L12.2407 46.7932ZM32.7718 45.677L37.7279 46.2043L39.4101 49.2663L34.0875 49.3019L32.7718 45.677ZM21.6038 46.0048L25.4096 45.8138L28.1484 49.0583C27.7223 49.0583 24.548 49.0934 24.548 49.0934L21.6038 46.0048Z" fill="#002868"/>
<path fill-rule="evenodd" clip-rule="evenodd" d="M31.5882 44.7502L38.2256 45.4564L40.7511 50.0536L33.5307 50.1019L31.5882 44.7502ZM33.9552 46.6037L34.6442 48.5018L38.0689 48.4789L37.2302 46.9521L33.9552 46.6037ZM28.5 45L29.8625 49.8546H28.1483C27.9406 49.8546 27.0466 49.8633 26.1966 49.8721C25.7733 49.8765 25.3634 49.8808 25.0592 49.8841L24.5573 49.8896L24.2105 49.8934L19.8284 45.2965L28.5 45ZM24.8854 48.2933L25.042 48.2916C25.3463 48.2883 25.7565 48.2839 26.1801 48.2796C26.2685 48.2786 26.3576 48.2777 26.4466 48.2768L25.0555 46.6289L23.3789 46.713L24.8854 48.2933ZM13.6678 47.2831L14.892 48.7841L14.9798 48.7801C15.2756 48.7665 15.6746 48.7485 16.087 48.7304C16.2006 48.7254 16.316 48.7204 16.4311 48.7154L15.2011 47.1677C14.6025 47.1601 14.1144 47.2066 13.6678 47.2831ZM14.5655 50.3935L14.1648 50.4123L10.8395 46.3351L12.04 46.0226C13.0107 45.7699 14.0069 45.5136 15.6305 45.5872L15.9924 45.6036L19.6848 50.25H18.0349C17.8445 50.25 16.9933 50.2848 16.1567 50.3215C15.7457 50.3395 15.3479 50.3575 15.0527 50.371L14.5655 50.3935Z" fill="#002868"/>
</svg>
