<svg width="220" height="51" viewBox="0 0 220 51" fill="none" xmlns="http://www.w3.org/2000/svg">
<path d="M5.7973 47.2915C7.75569 45.808 8.52339 43.8765 9.74543 41.9913C12.1425 38.2364 15.746 34.5588 19.1301 31.6383C21.1981 29.8613 25.9766 23.4641 28.311 23.325C29.9247 23.2323 31.9301 25.5501 33.4969 25.9364C36.0036 26.5391 38.244 25.5965 40.5001 23.6186C47.284 17.6849 49.164 6.25027 57.828 1.87728C59.097 1.24374 62.5908 -0.456009 63.8912 0.115724C65.2385 0.70291 66.3353 4.44236 66.9776 5.69399C68.0273 7.73369 80.7804 32.8281 85.6372 39.7971C88.285 43.5984 91.5281 47.6932 94.7085 50.9845H67.8393C68.09 50.4592 68.372 49.9647 68.6853 49.5629C70.299 47.4305 72.5394 46.8279 72.1321 43.2739C70.4557 45.2209 68.1526 46.4725 66.2099 48.9912C65.6302 49.7329 64.9722 50.3819 64.2828 51H60.6637C61.2748 48.2804 58.0316 45.02 57.5773 42.5631C57.0289 39.6117 57.922 36.4903 58.7367 33.539C58.815 31.1748 58.8933 28.826 59.1127 26.5082C59.708 27.8989 60.3974 29.3823 61.0867 30.8348C61.3218 31.082 61.5411 31.3756 61.6978 31.731C62.6378 26.4773 58.862 21.7025 64.9722 17.994C65.1602 15.6452 64.5492 13.5592 64.0322 11.3804C63.5778 9.41798 63.6562 7.33193 63.2175 5.27678C62.5908 2.40266 61.9484 2.61899 59.2694 3.82427C55.8226 5.36949 53.6448 8.32087 51.4358 11.2723C50.6994 12.2612 50.0571 13.281 49.446 14.3163C50.7151 13.0956 52.2661 12.1685 54.1462 11.1795C52.7205 14.9962 48.8664 17.654 45.6859 20.6827C45.5449 20.899 44.2915 22.6606 43.7902 23.3714C45.0436 22.846 46.4379 22.367 47.6286 22.2279C46.5633 24.1594 38.197 28.2852 37.351 29.9231C36.3326 31.901 36.693 33.5853 37.304 35.3005C37.3823 35.316 37.4763 35.3469 37.5547 35.3623C39.4504 35.0996 40.7821 34.0798 42.6465 33.369C40.5941 35.1151 39.8734 37.2629 39.1684 39.4572C39.0744 39.8898 38.385 47.2297 38.103 51H29.5017C30.6611 49.5011 31.6795 47.8477 31.8048 46.4725C32.1338 47.2142 33.7005 48.574 33.6692 48.5431C33.5909 44.9736 34.0609 41.3887 34.1392 37.881C32.2591 40.0289 30.3634 48.1413 26.7913 49.2539C26.7913 49.2384 26.7913 49.223 26.7913 49.223C26.3526 46.9824 25.0993 44.8345 25.6789 42.3622C26.7443 42.7794 27.7313 43.4747 28.546 44.1856C28.405 41.466 25.9296 39.4263 26.6816 36.9075C26.7286 36.8612 26.7756 36.8148 26.8226 36.7685C27.4807 37.093 28.5774 37.0621 29.2511 37.402C29.0317 35.3469 27.418 34.3734 27.2143 32.1328C27.042 30.2476 27.7783 27.698 28.3267 25.9519C24.0339 29.2587 20.7594 33.029 17.4537 37.1548C17.203 37.4638 16.9523 37.7729 16.7017 38.0819C18.331 37.402 20.0701 36.9075 21.7778 35.9804C19.8037 39.2872 15.3699 40.4152 12.5029 42.9803C12.4559 43.0266 10.7951 44.8964 9.98044 45.8235C8.7114 47.2915 7.44235 48.7903 5.71896 49.8565C4.87293 50.3819 3.94858 50.6755 3.08689 51H0.000442151C1.70816 49.4857 3.9799 48.6822 5.7973 47.2915ZM64.9095 34.2188C64.3925 37.2784 62.8258 39.9207 62.5751 42.9648L62.4341 43.1039C64.4552 41.5123 66.1159 39.7971 66.5233 37.2475C67.0873 38.0665 67.432 39.5962 67.9176 40.6624C68.701 38.2982 70.205 35.3469 69.9544 33.2608C69.641 30.603 66.9463 28.6406 66.9149 25.6583C66.9463 25.6274 65.4266 31.1902 64.9095 34.2188Z" fill="#002868"/>
<path d="M53.0335 43.9229C53.0178 43.9229 53.5818 43.9229 53.5662 43.9229C54.1145 45.808 55.0545 48.6512 56.1982 50.9691H48.819C52.2188 49.5166 51.8114 47.3996 53.0335 43.9229Z" fill="#002868"/>
<path d="M106.661 17.0695C104.313 17.0695 102.498 16.3363 101.216 14.87C99.9336 13.4036 99.2925 11.3236 99.2925 8.62999C99.2925 6.03199 99.9259 3.99185 101.193 2.50955C102.475 1.01132 104.236 0.262207 106.476 0.262207C108.824 0.262207 110.655 0.987415 111.968 2.43783C113.281 3.88825 113.937 5.91245 113.937 8.51045C113.937 11.2041 113.296 13.308 112.014 14.8221C110.747 16.3204 108.963 17.0695 106.661 17.0695ZM106.638 3.60932C104.63 3.60932 103.626 5.29882 103.626 8.6778C103.626 10.2876 103.819 11.483 104.205 12.264C104.684 13.2363 105.487 13.7224 106.615 13.7224C108.608 13.7224 109.604 12.0807 109.604 8.79734C109.604 6.98034 109.365 5.6654 108.886 4.85253C108.422 4.02372 107.673 3.60932 106.638 3.60932Z" fill="#BF0A30"/>
<path d="M125.695 2.19875L129.773 12.4314V5.3546C129.773 4.28671 129.572 3.75277 129.17 3.75277C129.062 3.75277 128.9 3.78464 128.684 3.8484C128.483 3.89622 128.328 3.92012 128.22 3.92012C127.896 3.92012 127.618 3.76871 127.386 3.46587C127.17 3.16304 127.062 2.78848 127.062 2.3422C127.062 1.81622 127.208 1.39385 127.502 1.07508C127.795 0.756306 128.182 0.59692 128.661 0.59692C128.908 0.59692 129.333 0.636766 129.935 0.716459C130.538 0.796152 131.071 0.835999 131.534 0.835999C131.951 0.835999 132.438 0.804122 132.994 0.740367C133.828 0.644735 134.346 0.59692 134.546 0.59692C135.041 0.59692 135.442 0.756306 135.751 1.07508C136.06 1.39385 136.215 1.81622 136.215 2.3422C136.215 2.78848 136.091 3.16304 135.844 3.46587C135.597 3.76871 135.296 3.92012 134.94 3.92012C134.801 3.92012 134.616 3.89622 134.384 3.8484C134.152 3.78464 133.975 3.75277 133.851 3.75277C133.542 3.75277 133.341 3.952 133.249 4.35047C133.218 4.50985 133.202 4.84456 133.202 5.3546V15.0851C133.202 16.1371 132.785 16.6631 131.951 16.6631C131.797 16.6631 131.557 16.6551 131.233 16.6391C130.924 16.6073 130.692 16.5913 130.538 16.5913C130.522 16.5913 130.144 16.6073 129.402 16.6391C129.402 16.6391 129.232 16.6391 128.892 16.6391C128.444 16.6391 128.112 16.5276 127.896 16.3044C127.772 16.1769 127.595 15.8342 127.363 15.2764L122.891 4.7569V11.9771C122.891 13.0609 123.092 13.6028 123.493 13.6028C123.601 13.6028 123.764 13.5789 123.98 13.5311C124.212 13.4674 124.381 13.4355 124.49 13.4355C124.814 13.4355 125.084 13.5869 125.301 13.8897C125.532 14.1926 125.648 14.5671 125.648 15.0134C125.648 16.1769 125.108 16.7587 124.026 16.7587C123.717 16.7587 123.207 16.7109 122.497 16.6152C122.018 16.5515 121.539 16.5196 121.06 16.5196C120.658 16.5196 120.118 16.5595 119.438 16.6391C118.758 16.7188 118.326 16.7587 118.14 16.7587C117.013 16.7587 116.449 16.1769 116.449 15.0134C116.449 14.5671 116.565 14.1926 116.796 13.8897C117.044 13.5869 117.345 13.4355 117.7 13.4355C117.839 13.4355 118.025 13.4674 118.256 13.5311C118.503 13.5789 118.689 13.6028 118.812 13.6028C119.229 13.6028 119.438 13.0609 119.438 11.9771V5.3546C119.438 4.28671 119.229 3.75277 118.812 3.75277C118.689 3.75277 118.503 3.78464 118.256 3.8484C118.025 3.89622 117.839 3.92012 117.7 3.92012C117.345 3.92012 117.044 3.76871 116.796 3.46587C116.565 3.16304 116.449 2.78848 116.449 2.3422C116.449 1.81622 116.603 1.39385 116.912 1.07508C117.221 0.756306 117.623 0.59692 118.117 0.59692C118.442 0.59692 118.913 0.636766 119.531 0.716459C120.149 0.796152 120.635 0.835999 120.991 0.835999C121.284 0.835999 121.786 0.804122 122.497 0.740367C122.821 0.724428 123.192 0.692551 123.609 0.644735C123.794 0.612858 123.995 0.59692 124.212 0.59692C124.629 0.59692 124.953 0.764275 125.185 1.09899C125.277 1.22649 125.447 1.59308 125.695 2.19875Z" fill="#BF0A30"/>
<path d="M145.913 0.262207C147.569 0.262207 148.949 0.828029 150.053 1.95967C150.195 1.01929 150.668 0.549103 151.472 0.549103C152.449 0.549103 152.938 1.02726 152.938 1.98358C152.938 2.14297 152.907 2.46174 152.844 2.9399C152.749 3.65714 152.702 4.14326 152.702 4.39828C152.702 4.68518 152.717 4.90035 152.749 5.0438C152.781 5.55383 152.796 5.84073 152.796 5.90448C152.796 6.31889 152.615 6.66954 152.252 6.95643C151.89 7.22739 151.424 7.36287 150.857 7.36287C149.942 7.36287 149.39 6.90862 149.201 6.00011C149.012 5.09161 148.736 4.47001 148.373 4.1353C148.026 3.78465 147.467 3.60932 146.694 3.60932C145.669 3.60932 144.873 4.09545 144.305 5.0677C143.753 6.02402 143.477 7.38677 143.477 9.15596C143.477 10.6542 143.745 11.8257 144.281 12.6704C144.833 13.4992 145.59 13.9136 146.552 13.9136C147.167 13.9136 147.672 13.7383 148.066 13.3877C148.476 13.0211 148.681 12.5668 148.681 12.0249C148.681 11.3555 148.405 11.0208 147.853 11.0208C147.821 11.0208 147.774 11.0208 147.711 11.0208C147.648 11.0367 147.593 11.0447 147.545 11.0447C147.293 11.0766 147.151 11.0925 147.12 11.0925C146.804 11.0925 146.536 10.957 146.316 10.6861C146.095 10.3992 145.984 10.0485 145.984 9.63412C145.984 9.15596 146.142 8.77344 146.457 8.48654C146.773 8.19965 147.183 8.0562 147.687 8.0562C148.018 8.0562 148.515 8.10401 149.177 8.19964C149.855 8.27934 150.368 8.31918 150.715 8.31918C151.235 8.31918 151.811 8.27934 152.441 8.19964C152.946 8.13589 153.293 8.10401 153.482 8.10401C153.987 8.10401 154.389 8.2634 154.688 8.58217C155.004 8.88501 155.162 9.29941 155.162 9.82539C155.162 10.2876 155.051 10.6781 154.83 10.9969C154.61 11.2997 154.334 11.4511 154.003 11.4511L153.435 11.4033C153.009 11.4033 152.796 11.7619 152.796 12.4792C152.796 12.782 152.804 13.1008 152.82 13.4355L152.867 14.4635C152.883 14.8142 152.891 15.1489 152.891 15.4677C152.891 16.5355 152.307 17.0695 151.141 17.0695C150.037 17.0695 149.485 16.679 149.485 15.898V15.7546C148.397 16.6312 147.159 17.0695 145.771 17.0695C144.557 17.0695 143.414 16.7507 142.342 16.1132C141.27 15.4597 140.489 14.6149 140 13.5789C139.37 12.256 139.054 10.7179 139.054 8.9647C139.054 6.28701 139.669 4.16717 140.899 2.60519C142.129 1.0432 143.8 0.262207 145.913 0.262207Z" fill="#002868"/>
<path d="M167.538 11.6902H164.392C163.493 11.6902 163.044 12.2321 163.044 13.3159C163.044 13.571 163.178 13.6985 163.446 13.6985C163.525 13.6985 163.643 13.6905 163.801 13.6746C163.959 13.6427 164.077 13.6267 164.156 13.6267C164.739 13.6267 165.031 14.0969 165.031 15.0373C165.031 15.5474 164.897 15.9618 164.629 16.2805C164.361 16.5993 164.006 16.7587 163.564 16.7587C163.344 16.7587 162.855 16.7029 162.098 16.5913C161.767 16.5435 161.302 16.5196 160.702 16.5196C160.056 16.5196 159.551 16.5435 159.189 16.5913C158.353 16.7029 157.856 16.7587 157.699 16.7587C157.21 16.7587 156.808 16.6073 156.492 16.3044C156.193 16.0016 156.043 15.6031 156.043 15.109C156.043 13.9933 156.461 13.4355 157.297 13.4355C157.391 13.4355 157.541 13.4514 157.746 13.4833C157.951 13.4992 158.101 13.5072 158.195 13.5072C158.495 13.5072 158.739 13.3399 158.929 13.0051C158.976 12.9095 159.086 12.6146 159.26 12.1205L162.524 2.72473C162.902 1.65684 163.328 0.987415 163.801 0.716459C164.148 0.541134 164.913 0.453471 166.095 0.453471C167.42 0.453471 168.255 0.541134 168.602 0.716459C168.949 0.875845 169.233 1.33807 169.454 2.10312L172.481 12.2879C172.718 13.1008 172.994 13.5072 173.309 13.5072C173.404 13.5072 173.569 13.4833 173.806 13.4355H174.066C174.949 13.4355 175.391 13.9615 175.391 15.0134C175.391 15.5394 175.233 15.9618 174.918 16.2805C174.602 16.5993 174.192 16.7587 173.688 16.7587C173.467 16.7587 173.175 16.7348 172.813 16.687C172.371 16.6073 172.079 16.5674 171.937 16.5674C171.59 16.5355 171.141 16.5196 170.589 16.5196C169.99 16.5196 169.588 16.5355 169.383 16.5674C168.579 16.6949 168.074 16.7587 167.869 16.7587C167.443 16.7587 167.089 16.5993 166.805 16.2805C166.537 15.9458 166.403 15.5314 166.403 15.0373C166.403 14.0969 166.702 13.6267 167.302 13.6267C167.38 13.6267 167.499 13.6427 167.656 13.6746C167.814 13.6905 167.932 13.6985 168.011 13.6985C168.311 13.6985 168.46 13.5311 168.46 13.1964C168.46 12.7661 168.374 12.4074 168.2 12.1205C168.027 11.8337 167.806 11.6902 167.538 11.6902ZM167.183 8.03229L166.048 3.13116L164.581 8.22355C164.566 8.27137 164.558 8.32715 164.558 8.39091C164.558 8.58217 164.755 8.6778 165.149 8.6778H166.616C167.026 8.6778 167.231 8.56623 167.231 8.34309C167.231 8.35903 167.215 8.25543 167.183 8.03229Z" fill="#002868"/>
<path d="M187.401 2.07921L189.364 10.8056L191.422 2.43783C191.595 1.73653 191.785 1.25837 191.989 1.00335C192.21 0.732398 192.518 0.59692 192.912 0.59692C193.259 0.59692 193.787 0.636766 194.497 0.716459C195.206 0.796152 195.742 0.835999 196.105 0.835999C196.483 0.835999 197.422 0.772244 198.92 0.644735C199.345 0.612858 199.661 0.59692 199.866 0.59692C200.386 0.59692 200.804 0.756306 201.119 1.07508C201.435 1.37791 201.592 1.80029 201.592 2.3422C201.592 2.78848 201.466 3.16304 201.214 3.46587C200.977 3.76871 200.678 3.92012 200.315 3.92012C200.173 3.92012 199.976 3.89622 199.724 3.8484C199.472 3.78464 199.29 3.75277 199.18 3.75277C198.754 3.75277 198.541 4.28671 198.541 5.3546V11.9771C198.541 13.0609 198.746 13.6028 199.156 13.6028C199.282 13.6028 199.472 13.5789 199.724 13.5311C199.976 13.4674 200.165 13.4355 200.291 13.4355C200.654 13.4355 200.962 13.5869 201.214 13.8897C201.466 14.1926 201.592 14.5671 201.592 15.0134C201.592 15.5553 201.435 15.9857 201.119 16.3044C200.804 16.6073 200.386 16.7587 199.866 16.7587C199.566 16.7587 199.062 16.7109 198.352 16.6152C197.879 16.5515 197.406 16.5196 196.933 16.5196C196.633 16.5196 196.192 16.5595 195.608 16.6391C195.025 16.7188 194.583 16.7587 194.284 16.7587C193.811 16.7587 193.424 16.5993 193.125 16.2805C192.841 15.9618 192.699 15.5394 192.699 15.0134C192.699 14.0252 193.022 13.5311 193.669 13.5311C193.763 13.5311 193.834 13.5391 193.882 13.555C193.929 13.555 193.984 13.555 194.047 13.555C194.11 13.571 194.15 13.5789 194.166 13.5789C194.418 13.5789 194.568 13.4036 194.615 13.053C194.631 12.8936 194.639 12.6226 194.639 12.2401V3.22679L191.351 14.9895C191.067 16.0096 190.602 16.5196 189.955 16.5196H188.442C187.811 16.5196 187.377 16.0654 187.141 15.1569L183.995 3.22679V12.2401C183.995 12.9892 184.066 13.4116 184.208 13.5072C184.255 13.555 184.342 13.5789 184.468 13.5789C184.5 13.5789 184.547 13.571 184.61 13.555C184.657 13.555 184.705 13.555 184.752 13.555C184.799 13.5391 184.87 13.5311 184.965 13.5311C185.595 13.5311 185.911 14.0172 185.911 14.9895C185.911 15.5314 185.769 15.9618 185.485 16.2805C185.201 16.5993 184.823 16.7587 184.35 16.7587C184.129 16.7587 183.845 16.7348 183.498 16.687C183.057 16.6232 182.781 16.5834 182.67 16.5674C182.339 16.5355 181.961 16.5196 181.535 16.5196C180.999 16.5196 180.55 16.5435 180.187 16.5913C179.209 16.7188 178.72 16.7826 178.72 16.7826C178.232 16.7826 177.83 16.6152 177.514 16.2805C177.199 15.9458 177.041 15.5234 177.041 15.0134C177.041 14.5512 177.159 14.1766 177.396 13.8897C177.648 13.5869 177.964 13.4355 178.342 13.4355C178.468 13.4355 178.65 13.4674 178.886 13.5311C179.138 13.5789 179.328 13.6028 179.454 13.6028C179.769 13.6028 179.966 13.3956 180.045 12.9812C180.077 12.8218 180.092 12.4871 180.092 11.9771V5.3546C180.092 4.84456 180.077 4.51782 180.045 4.37437C179.966 3.95997 179.769 3.75277 179.454 3.75277C179.328 3.75277 179.138 3.78464 178.886 3.8484C178.65 3.89622 178.46 3.92012 178.318 3.92012C177.956 3.92012 177.648 3.76871 177.396 3.46587C177.159 3.16304 177.041 2.78848 177.041 2.3422C177.041 1.17868 177.625 0.59692 178.791 0.59692C179.17 0.59692 179.801 0.636766 180.684 0.716459C181.567 0.796152 182.229 0.835999 182.67 0.835999C183.38 0.835999 184.121 0.788183 184.894 0.69255C185.414 0.628797 185.824 0.59692 186.124 0.59692C186.518 0.59692 186.794 0.692551 186.952 0.883814C187.109 1.07508 187.259 1.47354 187.401 2.07921Z" fill="#002868"/>
<path d="M212.478 3.60932C211.957 3.60932 211.61 3.65714 211.437 3.75277C211.2 3.89622 211.082 4.21499 211.082 4.70909V6.04793C211.082 6.31889 211.114 6.52609 211.177 6.66954C211.256 6.79705 211.445 6.8608 211.744 6.8608C212.438 6.8608 212.785 6.60578 212.785 6.09575V5.78494C212.769 5.68931 212.762 5.56977 212.762 5.42632C212.762 4.7569 213.148 4.42219 213.92 4.42219C214.725 4.42219 215.127 4.82863 215.127 5.6415C215.127 5.86464 215.111 6.11169 215.079 6.38264C215.016 6.90862 214.985 7.39474 214.985 7.84103C214.985 8.25543 215.016 8.7814 215.079 9.41895C215.143 10.0565 215.174 10.5028 215.174 10.7578C215.174 11.6982 214.756 12.1684 213.92 12.1684C213.132 12.1684 212.738 11.7619 212.738 10.9491C212.738 10.8694 212.738 10.8295 212.738 10.8295C212.738 10.7498 212.754 10.5586 212.785 10.2557C212.785 9.8732 212.446 9.68194 211.768 9.68194C211.311 9.68194 211.082 9.93696 211.082 10.447V12.2401C211.082 12.7979 211.177 13.1805 211.366 13.3877C211.571 13.5789 211.942 13.6746 212.478 13.6746H213.85C214.859 13.6746 215.56 13.5869 215.955 13.4116C216.365 13.2363 216.57 12.9254 216.57 12.4792C216.57 12.256 216.546 11.993 216.499 11.6902C216.451 11.3714 216.428 11.1084 216.428 10.9012C216.428 10.3115 216.593 9.84929 216.924 9.51458C217.255 9.17987 217.705 9.01252 218.273 9.01252C219.424 9.01252 219.999 9.65006 219.999 10.9252C219.999 11.3396 219.976 11.7779 219.928 12.2401C219.849 13.0051 219.81 13.4833 219.81 13.6746C219.81 13.8499 219.849 14.1926 219.928 14.7026C219.976 15.0054 219.999 15.3162 219.999 15.635C219.999 16.3841 219.534 16.7587 218.604 16.7587C218.304 16.7587 217.807 16.7348 217.114 16.687C215.962 16.6073 214.125 16.5515 211.603 16.5196C211.603 16.5196 210.901 16.5196 209.497 16.5196C208.709 16.5196 208.055 16.5435 207.534 16.5913L205.737 16.7587C205.721 16.7587 205.689 16.7667 205.642 16.7826C205.595 16.7826 205.555 16.7826 205.524 16.7826C205.035 16.7826 204.633 16.6152 204.318 16.2805C204.018 15.9458 203.868 15.5234 203.868 15.0134C203.868 14.5671 203.986 14.1926 204.223 13.8897C204.475 13.5869 204.791 13.4355 205.169 13.4355C205.295 13.4355 205.484 13.4674 205.737 13.5311C205.989 13.5789 206.17 13.6028 206.281 13.6028C206.706 13.6028 206.919 13.0609 206.919 11.9771V5.3546C206.919 4.28671 206.706 3.75277 206.281 3.75277C206.186 3.75277 205.997 3.78464 205.713 3.8484C205.508 3.89622 205.327 3.92012 205.169 3.92012C204.806 3.92012 204.499 3.76871 204.247 3.46587C203.994 3.16304 203.868 2.78848 203.868 2.3422C203.868 1.17868 204.444 0.59692 205.595 0.59692C205.863 0.59692 206.407 0.628797 207.227 0.69255C208.457 0.788183 209.647 0.835999 210.798 0.835999C210.909 0.835999 211.855 0.812091 213.637 0.764275C214.93 0.732398 215.781 0.70052 216.191 0.668643C216.869 0.620827 217.579 0.59692 218.32 0.59692C219.203 0.59692 219.644 0.987416 219.644 1.76841C219.644 2.02343 219.613 2.39798 219.55 2.89208C219.502 3.38618 219.479 3.76074 219.479 4.01576C219.479 4.27077 219.51 4.63736 219.573 5.11552C219.652 5.57774 219.692 5.92839 219.692 6.16747C219.692 6.62969 219.518 7.02019 219.171 7.33896C218.84 7.65773 218.422 7.81712 217.918 7.81712C216.735 7.81712 216.144 7.20348 216.144 5.97621C216.144 5.769 216.175 5.48211 216.238 5.11552C216.317 4.74893 216.357 4.47798 216.357 4.30265C216.357 3.952 216.175 3.73683 215.813 3.65714C215.687 3.62526 215.355 3.60932 214.819 3.60932H212.478Z" fill="#002868"/>
<path d="M220 21.2715H99.2925V50.6842L106.77 44.6509H194.363L200.772 38.6175H153.438L155.281 35.9779L202.909 36.3549L210.386 30.0953H159.37L160.802 28.059H212.522L220 21.2715Z" fill="#BF0A30"/>
<path d="M116.821 24.0723C118.531 24.0723 120.018 24.6757 121.283 25.8827C121.265 25.831 121.256 25.7448 121.256 25.6241C121.256 24.6585 121.79 24.1757 122.859 24.1757C123.358 24.1757 123.759 24.3309 124.062 24.6413C124.382 24.9344 124.542 25.3223 124.542 25.8051C124.542 26.0293 124.516 26.3569 124.462 26.7879C124.373 27.4949 124.329 28.0035 124.329 28.3139C124.329 28.538 124.355 28.8743 124.409 29.3226C124.48 29.7536 124.516 30.0812 124.516 30.3054C124.516 30.8399 124.311 31.2709 123.901 31.5985C123.509 31.9261 122.993 32.0899 122.352 32.0899C120.998 32.0899 120.339 31.5468 120.374 30.4605L120.401 29.6588C120.419 29.0898 120.178 28.6242 119.68 28.2622C119.181 27.8828 118.548 27.6932 117.783 27.6932C115.396 27.6932 114.202 29.5208 114.202 33.1762C114.202 35.0729 114.487 36.4609 115.057 37.3402C115.645 38.2024 116.571 38.6334 117.836 38.6334C118.62 38.6334 119.261 38.461 119.76 38.1161C120.259 37.7541 120.499 37.2885 120.481 36.7195L120.454 35.7884C120.437 35.2539 120.615 34.8229 120.989 34.4953C121.363 34.1676 121.844 34.0038 122.432 34.0038C123.18 34.0038 123.768 34.2452 124.195 34.728C124.64 35.2108 124.863 35.866 124.863 36.6936C124.863 38.3317 124.186 39.6766 122.832 40.7284C121.496 41.7629 119.769 42.2802 117.649 42.2802C115.048 42.2802 112.991 41.4784 111.477 39.8749C109.981 38.2713 109.232 36.0815 109.232 33.3055C109.232 30.4433 109.909 28.1932 111.263 26.5552C112.617 24.8999 114.469 24.0723 116.821 24.0723Z" fill="white"/>
<path d="M136.345 42.2543C133.637 42.2543 131.544 41.4612 130.066 39.8749C128.587 38.2886 127.848 36.0384 127.848 33.1245C127.848 30.314 128.578 28.107 130.039 26.5034C131.518 24.8827 133.548 24.0723 136.131 24.0723C138.839 24.0723 140.949 24.8568 142.463 26.4258C143.978 27.9949 144.735 30.1847 144.735 32.9952C144.735 35.9091 143.995 38.1851 142.517 39.8231C141.056 41.4439 138.999 42.2543 136.345 42.2543ZM136.318 27.6932C134.002 27.6932 132.845 29.5208 132.845 33.1762C132.845 34.9177 133.067 36.2109 133.513 37.0557C134.065 38.1075 134.991 38.6334 136.291 38.6334C138.589 38.6334 139.738 36.8574 139.738 33.3055C139.738 31.3399 139.462 29.9174 138.91 29.0381C138.375 28.1415 137.512 27.6932 136.318 27.6932Z" fill="white"/>
</svg>
