<svg width="383" height="348" viewBox="0 0 383 348" fill="none" xmlns="http://www.w3.org/2000/svg">
<path d="M199.551 43.3753L199.504 43.554L199.208 44.6976L198.335 48.1989L154.648 222.734C154.038 222.357 153.434 222.015 152.824 221.638C151.939 221.089 151.034 220.576 150.149 220.027L193.783 45.7771L194.656 42.2757L194.75 41.9184L194.999 40.9535L198.558 42.8289L199.551 43.3753Z" fill="white"/>
<path d="M181.314 155.138L180.552 154.693L178.717 153.595C177.827 153.046 176.943 152.532 176.026 151.983L175.263 151.537L175.491 150.607L201.732 45.3115L203.194 39.5175L209.427 42.7946L208.836 45.0839L181.637 154.278L181.314 155.138ZM177.372 150.53C178.013 150.908 178.654 151.285 179.294 151.662L180.273 152.245L207.204 44.1951L207.278 43.8734L204.33 42.3378L203.385 46.1643L177.372 150.53Z" fill="#004F74"/>
<path d="M209.977 44.5968C209.839 45.2044 209.589 45.7787 209.272 46.2833C208.614 47.2931 207.687 47.8818 206.673 48.0455L184.475 152.608C183.874 152.229 183.282 151.886 182.682 151.508L204.714 47.8026L205.279 45.3011L205.676 43.5145L205.91 42.4781L206.7 42.8882L207.727 43.4354L207.964 43.5726L209.977 44.5968Z" fill="#004F74"/>
<path d="M224.69 44.9066C224.574 45.5244 224.335 46.1083 224.023 46.6214C223.37 47.6481 222.39 48.247 221.311 48.4136C220.614 48.5 219.848 48.4068 219.126 48.1317C218.347 47.8578 217.576 47.3666 216.869 46.6568C216.648 46.4441 216.419 46.1953 216.219 45.9459C214.297 43.5593 213.827 40.1298 215.214 37.9299C216.723 35.5104 219.925 35.4822 222.368 37.8945C224.289 39.7744 225.14 42.617 224.69 44.9066Z" fill="white"/>
<path d="M219.565 49.3533C219.386 49.3207 219.198 49.2521 219.011 49.1835C218.073 48.8404 217.162 48.2434 216.354 47.4634C216.088 47.1791 215.823 46.8949 215.585 46.6101C213.329 43.7598 212.806 39.7163 214.406 37.1865C215.262 35.7938 216.638 35.0421 218.215 35.0466C219.821 35.0504 221.449 35.7777 222.825 37.1617C225.011 39.3256 226.111 42.6336 225.547 45.4321C225.398 46.159 225.126 46.8522 224.773 47.4385C224.038 48.6116 222.891 49.3586 221.555 49.5304C220.935 49.579 220.234 49.5208 219.565 49.3533ZM219.627 37.3347C219.288 37.2329 218.966 37.2032 218.652 37.2096C217.54 37.232 216.6 37.7577 215.987 38.7111C214.87 40.4711 215.235 43.3233 216.801 45.2825C216.964 45.4964 217.148 45.6737 217.332 45.851C217.892 46.4189 218.524 46.8043 219.189 47.0805C219.789 47.3218 220.404 47.3817 220.987 47.2976C221.932 47.17 222.701 46.6477 223.233 45.8407C223.485 45.4374 223.692 44.9627 223.776 44.4543C224.167 42.528 223.403 40.1906 221.888 38.7008C221.181 37.9911 220.418 37.5359 219.627 37.3347Z" fill="#004F74"/>
<path d="M221.996 44.6632C221.142 45.9942 219.335 46.0299 217.955 44.67C217.114 43.847 216.611 42.7253 216.564 41.6677C216.755 42.1019 217.055 42.4976 217.395 42.8194C218.644 43.9994 220.257 44.004 221.028 42.8207C221.537 42.0075 221.539 40.9124 221.121 39.8985C222.434 41.2232 222.821 43.3328 221.996 44.6632Z" fill="#004F74"/>
<path d="M320.983 144.568C320.983 144.568 323.531 154.941 334.251 167.563L346.453 155.772L334.66 147.943L320.983 144.568Z" fill="#DA1A2D"/>
<path d="M328.858 161.002C329.368 154.389 332.903 152.74 333.092 148.641C333.092 148.641 330.597 144.968 328.324 140.795C326.085 136.656 324.711 153.21 324.711 153.21L328.858 161.002Z" fill="white"/>
<path d="M329.024 161.943L324.431 153.279L324.446 153.173C324.613 151.016 325.605 140.294 327.472 139.855C327.87 139.774 328.224 140.011 328.574 140.637C330.805 144.706 333.307 148.414 333.311 148.449L333.384 148.553L333.37 148.659C333.285 150.567 332.462 152.002 331.619 153.507C330.564 155.371 329.393 157.45 329.106 161.058L329.024 161.943ZM324.965 153.124L328.649 160.082C329.048 156.86 330.146 154.888 331.158 153.131C331.976 151.662 332.707 150.407 332.822 148.709C332.414 148.085 330.131 144.689 328.118 140.932C328.002 140.723 327.778 140.376 327.58 140.417C326.508 140.693 325.42 147.994 324.965 153.124Z" fill="white"/>
<path d="M334.233 169.065L333.575 168.288C322.788 155.599 320.179 145.231 320.08 144.8L319.657 143.114L335.03 146.914L348.155 155.645L334.233 169.065ZM322.512 146.039C323.666 149.367 326.897 157.084 334.322 166.03L344.795 155.91L334.349 148.989L322.512 146.039Z" fill="#004F74"/>
<path d="M368.68 161.971C365.439 161.932 359.762 166.463 355.775 169.538C351.781 172.576 344.31 175.47 339.968 173.451C338.357 172.72 337.415 171.83 336.89 170.894C334.332 166.066 343.459 159.128 337.791 154.769C334.508 152.252 330.424 153.179 326.141 155.239C319.465 158.444 312.29 164.32 307.01 163.852C298.369 163.055 292.361 152.764 283.88 151.854C274.087 150.79 262.116 173.75 253.811 168.865C252.012 167.811 251.189 166.298 251.065 164.625C250.931 162.442 252.02 159.977 253.814 157.824C253.814 157.824 253.814 157.824 253.844 157.824C253.867 157.787 253.867 157.787 253.89 157.75C258.585 151.527 260.789 146.414 255.388 142.924C254.867 142.607 254.292 142.328 253.671 142.123C252.701 134.127 251.157 124.796 249.987 118.226C249.114 113.289 248.442 109.952 248.442 109.952L251.444 72.7563C252.277 72.9569 253.272 72.899 254.413 72.6557C256.58 72.208 259.103 70.9509 261.403 69.0428C264.873 66.1256 268.37 63.645 271.56 65.3979C274.75 67.1508 276.456 73.199 276.456 73.199C284.869 76.9523 286.583 71.3766 295.243 75.5983C300.053 77.972 303.728 88.6417 306.641 95.6841C310.004 96.6316 316.865 96.0094 319.26 94.573C320.441 100.888 324.903 118.5 338.128 129.182C351.436 139.971 367.173 154.789 368.68 161.971Z" fill="#DA1A2D"/>
<path d="M258.2 82.8784C261.589 83.3822 264.537 80.1066 267.35 78.0121C269.292 76.5649 272.276 73.5092 275.087 73.8436C276.376 73.9953 278.211 75.1269 280.276 78.7184L281.074 83.1146C281.074 83.1146 279.476 80.2106 276.868 79.7239C274.26 79.2373 271.042 82.0412 268.661 84.1986C266.28 86.3559 262.442 89.9483 257.845 90.2107L258.2 82.8784Z" fill="white"/>
<path d="M257.581 90.5412L257.927 82.5523L258.223 82.5816C260.812 82.958 263.161 81.0236 265.393 79.1657C265.963 78.6733 266.565 78.1802 267.146 77.7611C267.492 77.4949 267.892 77.154 268.324 76.8122C270.273 75.2187 272.681 73.246 275.097 73.5533C276.32 73.7065 278.26 74.6875 280.499 78.5664L280.537 78.6022L281.66 84.8258L280.795 83.2662C280.789 83.2295 279.247 80.4733 276.809 80.0195C274.408 79.6016 271.431 82.0667 268.861 84.4479L268.691 84.5993C266.371 86.7169 262.459 90.235 257.898 90.4965L257.581 90.5412ZM258.49 83.2369L258.218 89.8632C262.465 89.4626 265.972 86.2488 268.356 84.1296L268.527 83.9782C271.214 81.5205 274.303 78.9423 276.941 79.4278C278.576 79.7178 279.84 80.9365 280.567 81.8376L280.023 78.8357C277.828 75.0293 275.994 74.303 275.099 74.1784C272.922 73.9388 270.593 75.7991 268.734 77.3535C268.302 77.6953 267.903 78.0363 267.556 78.3024C266.975 78.7215 266.405 79.2139 265.803 79.707C263.501 81.53 261.152 83.4644 258.49 83.2369Z" fill="white"/>
<path d="M281.225 80.252C282.464 83.3454 286.477 87.178 291.606 88.2625C296.735 89.347 303.179 85.8773 310.228 93.3096L308.266 88.3229C308.266 88.3229 307.455 85.8804 303.831 84.2804C300.597 82.8911 295.658 82.3899 293.437 82.4823C287.626 82.8117 281.537 82.4129 279.978 75.6885L281.225 80.252Z" fill="white"/>
<path d="M310.991 94.5479L309.979 93.4728C305.085 88.3133 300.462 88.5025 296.386 88.678C294.686 88.7573 293.051 88.835 291.544 88.5059C286.363 87.4253 282.208 83.4577 280.967 80.3342L280.961 80.2977L279.942 76.545C279.869 76.2901 279.796 76.0351 279.717 75.7436L280.279 75.6195L280.498 76.3844C282.305 82.2448 288.092 82.4666 293.406 82.15C295.776 82.0173 300.714 82.5905 303.902 83.9412C307.582 85.5363 308.467 88.0452 308.517 88.154L310.991 94.5479ZM281.485 80.1378C282.671 83.116 286.624 86.8318 291.612 87.9173C293.048 88.2114 294.657 88.1711 296.325 88.0927C300.24 87.9212 304.67 87.7368 309.371 92.0942L307.914 88.4259C307.908 88.3893 307.052 86.0632 303.647 84.5712C300.556 83.218 295.72 82.679 293.414 82.8101C288.513 83.0796 283.777 82.7581 281.216 79.2642L281.485 80.1378Z" fill="white"/>
<path d="M254.889 115.863C260.653 114.134 270.821 101.895 278.05 102.323C282.982 102.618 284.728 103.535 291.32 108.831C296.884 113.306 302.225 116.747 308.049 113.862C313.563 111.139 316.206 116.884 316.206 116.884L312.803 109.657C312.803 109.657 310.433 107.486 307.797 107.323C304.855 107.13 301.035 111.311 292.568 104.909C285.956 99.9224 283.09 96.686 278.001 96.241C270.192 95.5204 261.518 107.451 255.55 108.723C254.622 113.213 254.889 115.863 254.889 115.863Z" fill="white"/>
<path d="M254.633 116.291L254.609 115.907C254.591 115.792 254.358 113.143 255.291 108.695L255.329 108.502L255.523 108.458C257.953 107.933 260.878 105.587 264.013 103.082C268.397 99.5443 273.384 95.5675 278.065 95.9842C282.208 96.3765 284.944 98.5365 289.166 101.889C290.233 102.746 291.451 103.714 292.807 104.718C298.966 109.366 302.621 108.309 305.277 107.509C306.237 107.215 307.075 107.001 307.847 107.019C310.549 107.18 312.919 109.349 313.03 109.423L313.069 109.461L316.483 116.758L315.957 117.041L315.951 117.003C315.709 116.509 313.272 111.687 308.226 114.165C302.121 117.171 296.451 113.317 291.19 109.069C284.488 103.703 282.899 102.937 278.069 102.639C273.85 102.403 268.503 106.658 263.781 110.398C260.497 113.022 257.384 115.45 255.016 116.165L254.633 116.291ZM255.843 109.027C255.164 112.276 255.167 114.507 255.206 115.429C257.457 114.601 260.354 112.295 263.433 109.868C268.244 106.05 273.684 101.753 278.103 101.985C283.034 102.279 284.801 103.118 291.548 108.559C296.653 112.658 302.144 116.439 307.966 113.556C311.079 112.013 313.32 113.109 314.717 114.381L312.594 109.858C312.248 109.559 310.141 107.806 307.812 107.674C307.101 107.616 306.336 107.867 305.404 108.122C302.614 108.925 298.837 110.062 292.449 105.227C291.087 104.186 289.869 103.217 288.808 102.398C284.553 99.0468 282 96.9974 278.031 96.6391C273.588 96.2546 268.69 100.152 264.394 103.611C261.253 106.078 258.329 108.424 255.843 109.027Z" fill="white"/>
<path d="M280.22 87.8373C279.435 86.7885 278.663 85.8131 276.428 85.6481C273.901 85.4904 270.786 86.5265 267.893 89.3623C262.65 94.5783 260.94 96.2791 257.022 97.3722L257.064 102.935C257.064 102.935 260.723 103.064 268.27 95.3953C274.475 89.0867 280.25 90.6736 281.499 91.7844L280.22 87.8373Z" fill="white"/>
<path d="M256.804 103.299L256.765 97.1498L256.985 97.1074C260.779 96.0547 262.429 94.3929 267.425 89.4798L267.734 89.1774C270.429 86.5318 273.522 85.1651 276.48 85.3856C278.875 85.5465 279.709 86.7041 280.482 87.6792L280.52 87.715L282.141 92.7936L281.345 92.077C280.091 90.9299 274.457 89.5981 268.51 95.6767C260.999 103.341 257.263 103.325 257.127 103.291L256.804 103.299ZM257.364 97.6504L257.41 102.621C258.422 102.448 261.962 101.439 268.105 95.1713C273.551 89.6208 278.851 90.0771 280.999 91.1282L279.979 87.9864C279.239 87.0106 278.543 86.1073 276.444 85.9758C274.836 85.8688 271.578 86.2083 268.127 89.6095L267.818 89.9119C262.861 94.8608 261.119 96.5618 257.364 97.6504Z" fill="white"/>
<path d="M282.891 90.5859C285.251 93.742 290.191 96.316 294.316 98.2821C302.704 102.248 304.706 100.091 307.53 100.427C309.09 100.609 311.176 100.815 312.896 103.84L311.311 98.5946C311.311 98.5946 309.532 96.0152 306.075 95.1781C302.514 94.3065 299.367 95.8269 293.504 93.7936C288.608 92.1055 283.284 89.5782 281.85 87.3228L282.891 90.5859Z" fill="white"/>
<path d="M312.871 104.163C312.8 104.128 312.73 104.093 312.686 104.02C311.067 101.218 309.172 100.97 307.677 100.786L307.547 100.789C306.784 100.697 306.115 100.788 305.316 100.882C303.113 101.159 300.403 101.522 294.242 98.612C290.12 96.6476 285.108 94.0039 282.711 90.8145C282.673 90.7785 282.667 90.7417 282.661 90.705L281.621 87.4446C281.565 87.2983 281.633 87.112 281.757 87.0719C281.875 86.9951 282.048 87.0646 282.131 87.1733C283.558 89.39 289.007 91.912 293.622 93.4948C297.103 94.6999 299.632 94.6364 301.837 94.581C303.329 94.5436 304.691 94.5094 306.15 94.879C309.675 95.7506 311.518 98.3261 311.568 98.4356C311.574 98.4724 311.612 98.5084 311.618 98.5452L313.202 103.786C313.258 103.932 313.19 104.119 313.066 104.159C312.968 104.161 312.904 104.163 312.871 104.163ZM283.171 90.4337C285.48 93.4776 290.421 96.0861 294.434 97.9794C300.422 100.82 303.067 100.458 305.178 100.221C305.977 100.127 306.743 100.034 307.539 100.125L307.669 100.121C308.931 100.274 310.593 100.491 312.101 102.189L311.064 98.7437C310.816 98.4176 309.103 96.245 306.023 95.5099C304.634 95.1755 303.337 95.2081 301.845 95.2455C299.575 95.3025 297.013 95.3668 293.43 94.1273C291.432 93.439 285.343 91.1916 282.592 88.6388L283.171 90.4337Z" fill="white"/>
<path d="M253.691 123.553C253.801 124.393 253.853 125.445 253.844 126.465L249.269 121.641L248.925 94.4205L251.455 76.6052C252.217 76.7944 253.146 76.7328 254.222 76.4914C255.713 76.1679 258.606 74.1884 260.307 73.0859C259.668 89.7231 260.654 118.822 260.654 118.822C258.53 120.604 254.844 123.028 253.691 123.553Z" fill="#004F74"/>
<path d="M277.442 70.6812C278.235 71.4864 278.827 72.6119 279.22 73.8141C279.616 75.0509 279.811 76.3299 280.003 77.5742C280.173 78.8541 280.313 80.1003 280.476 81.3109C280.642 82.5562 280.805 83.7668 280.972 85.0121C281.326 87.467 281.684 89.9566 282.068 92.4452C282.26 93.6896 282.426 94.9348 282.567 96.181C282.707 97.4272 282.8 98.7099 282.842 99.9945C282.4 98.8288 282.062 97.6593 281.745 96.4543C281.429 95.2493 281.163 94.0424 280.92 92.8C280.438 90.3497 279.955 87.8994 279.594 85.3752C279.402 84.1309 279.232 82.851 279.117 81.6039C278.974 80.323 278.884 79.075 278.769 77.8278C278.654 76.5807 278.494 75.4047 278.283 74.2306C278.075 73.0912 277.788 71.9199 277.442 70.6812Z" fill="white"/>
<path d="M359.241 146.022C355.64 147.489 351.948 149.449 349.962 151.037C348.28 152.354 345.33 154.299 342.535 155.638C341.537 156.11 339.941 156.67 339.226 156.91C339.182 158.196 338.125 158.556 337.643 159.585C337.343 160.234 337.075 163.186 336.675 163.685C336.796 164.4 337.264 163.56 337.057 164.207C339.736 164.231 343.354 162.952 344.518 162.401C347.954 160.899 351.655 158.486 353.797 156.782C356.117 154.924 360.948 152.678 364.483 151.439C362.795 149.582 361.055 147.763 359.241 146.022Z" fill="white"/>
<path d="M355.609 141.363C354.126 140.036 352.674 138.709 351.222 137.382C348.441 138.602 345.769 140.009 344.202 141.017C339.584 144.004 336.423 145.307 334.414 145.797C334.516 145.833 334.67 145.83 334.76 145.941C335.973 148.025 339.711 151.642 339.73 151.717C341.931 150.771 344.869 148.833 347.681 147.01C350.182 145.419 354.05 143.613 356.961 142.541C356.497 142.174 356.053 141.768 355.609 141.363Z" fill="white"/>
<path d="M344.585 131.793C343.559 131.058 342.523 130.285 341.549 129.511C339.745 130.339 338.291 131.083 337.68 131.359C337.4 131.478 337.129 131.634 336.797 131.791C335.095 132.654 332.769 133.869 330.503 134.592C329.561 134.912 328.788 135.04 328.22 135.126C329.68 136.947 330.9 138.924 332.204 140.862C332.304 141.011 332.364 141.123 332.464 141.272C334.884 140.546 337.426 139.328 339.928 138.072C340.229 137.915 340.499 137.759 340.748 137.641C343.354 136.308 345.894 135.203 347.905 134.334C346.85 133.486 345.733 132.639 344.585 131.793Z" fill="white"/>
<path d="M333.342 122.041C333.161 121.819 332.98 121.596 332.799 121.373C332.178 121.611 331.558 121.849 330.999 122.086C330.606 122.245 330.182 122.403 329.706 122.601C328.3 123.156 326.531 123.868 324.882 124.201C324.562 124.283 324.264 124.326 324.017 124.331C324.027 124.368 321.557 124.642 321.557 124.642C322.571 126.545 324.494 128.732 325.395 130.674C327.302 130.261 330.601 128.991 332.204 128.358C332.658 128.198 333.051 128.04 333.414 127.882C334.747 127.404 336.113 126.813 337.436 126.297C335.991 125.006 334.639 123.6 333.342 122.041Z" fill="white"/>
<path d="M327.803 111.203C327.002 111.444 326.171 111.685 325.268 111.889C324.889 111.972 324.458 112.093 324.027 112.213C322.294 112.659 319.062 113.509 317.002 113.399C317.548 114.214 317.386 115.267 317.779 116.085C318.398 117.424 319.431 118.455 320.252 119.865C321.798 119.647 324.962 119.136 326.234 118.812C326.634 118.692 327.044 118.609 327.393 118.527C328.87 118.161 330.276 117.759 331.51 117.285C330.178 115.322 328.949 113.282 327.803 111.203Z" fill="white"/>
<path d="M316.115 108.556C316.165 108.63 316.255 108.741 316.305 108.815C321.32 109.132 324.986 108.273 327.353 107.401C326.39 105.316 325.55 103.117 324.926 100.913C322.856 101.741 319.034 102.716 313.303 101.887C314.316 104.046 315.226 106.282 316.115 108.556Z" fill="white"/>
<path d="M255.08 170.469C254.565 170.334 254.035 170.127 253.544 169.81C250.983 168.299 250.302 166.128 250.231 164.563C250.09 162.197 251.136 159.515 253.167 157.03L253.236 156.92C255.406 154.067 258.202 149.927 257.61 146.988C257.369 145.791 256.55 144.752 255.108 143.8C254.685 143.518 254.186 143.31 253.626 143.103L252.937 142.863L252.837 142.064C251.883 134.142 250.325 124.74 249.169 118.244C248.312 113.381 247.64 110.043 247.633 110.007L247.597 109.826L247.621 109.643L250.715 71.3953L251.677 71.6295C252.382 71.7964 253.255 71.7411 254.281 71.5367C255.741 71.2136 257.401 70.522 258.942 69.5414L259.132 69.4279C259.75 69.0138 260.368 68.5997 260.911 68.1143C264.517 65.1217 268.318 62.3435 272.028 64.4127C275.013 66.0604 276.775 70.722 277.324 72.386C280.917 73.8748 283.136 73.5354 285.469 73.157C288.159 72.7345 290.97 72.3093 295.642 74.6127C300.209 76.8455 303.476 85.0449 306.363 92.2688C306.721 93.1355 307.041 93.9665 307.353 94.7612C310.634 95.4553 316.71 94.8866 318.837 93.6383L320.088 92.8826L320.31 94.5901C321.422 103.601 324.558 116.904 338.721 128.329C343.525 132.196 367.594 152.077 369.627 161.724L369.883 162.993L368.783 162.981C366.028 162.931 360.698 167.054 357.163 169.79L356.399 170.389C352.573 173.35 344.609 176.656 339.731 174.393C337.985 173.593 336.801 172.562 336.12 171.302C334.699 168.637 335.982 165.767 337.226 163.008C338.972 159.108 339.51 157.239 337.375 155.572C334.879 153.623 331.568 153.84 326.639 156.169C324.582 157.161 322.432 158.446 320.328 159.657C315.501 162.494 310.956 165.216 307.096 164.826C302.463 164.379 298.608 161.439 294.859 158.569C291.29 155.841 287.903 153.255 283.975 152.83C279.706 152.376 274.689 157.148 269.857 161.77C264.572 166.875 259.616 171.646 255.08 170.469ZM254.642 158.601C252.926 160.679 251.997 162.885 252.112 164.668C252.208 166.05 252.905 167.091 254.257 167.9C258.027 170.114 263.349 165.044 268.519 160.123C273.634 155.239 278.934 150.206 283.953 150.754C288.412 151.24 292.192 154.109 295.835 156.909C299.509 159.707 302.972 162.365 307.075 162.749C310.434 163.078 314.956 160.393 319.341 157.784C321.438 156.537 323.649 155.25 325.759 154.221C329.515 152.427 334.302 150.757 338.345 153.876C342.283 156.923 340.452 161.007 338.976 164.281C337.926 166.636 336.937 168.843 337.767 170.392C338.163 171.148 339.031 171.822 340.316 172.45C344.354 174.33 351.572 171.405 355.244 168.593L356.015 168.03C359.711 165.181 364.201 161.732 367.47 161.005C364.875 154.176 351.001 140.85 337.781 130.17C326.853 121.335 320.745 110.538 318.665 96.2652C315.506 97.3901 309.781 97.7326 306.646 96.8532L306.131 96.7186L305.9 96.1771C305.49 95.2023 305.103 94.1906 304.672 93.1069C302.089 86.6415 298.882 78.5866 295.094 76.7376C290.936 74.7146 288.505 75.0586 285.966 75.4779C283.391 75.8615 280.701 76.284 276.344 74.3381L275.845 74.1303L275.668 73.5513C275.239 72.0304 273.588 67.7671 271.352 66.504C268.609 64.9968 265.318 67.4361 262.156 70.0547C261.659 70.4662 261.132 70.8784 260.568 71.2549L260.186 71.4818C258.409 72.6496 256.558 73.4548 254.802 73.8207C253.951 73.9848 253.176 74.0744 252.433 74.0177L249.53 110.039C249.684 110.801 250.274 113.885 251.037 118.131C252.156 124.446 253.671 133.484 254.634 141.296C255.103 141.505 255.511 141.715 255.896 141.961C257.867 143.267 259.076 144.88 259.456 146.766C260.069 149.813 258.668 153.305 254.749 158.526L254.642 158.601Z" fill="#004F74"/>
<path d="M241.723 159.314C245.556 161.54 256.964 155.626 263.161 148.233C275.225 133.734 283.74 144.323 286.373 146.424C295.685 153.872 301.113 158.03 313.88 149.828C326.648 141.627 330.238 146.861 330.238 146.861L327.349 141.806C327.349 141.806 324.066 135.182 311.209 143.938C299.366 151.996 292.657 145.267 289.417 142.235C283.629 136.745 274.285 126.731 260.977 141.738C248.425 155.896 242.241 152.351 242.241 152.351L241.723 159.314Z" fill="white"/>
<path d="M242.486 159.937C242.172 159.866 241.886 159.756 241.628 159.605L241.443 159.492L242.019 151.793L242.422 152.019C242.495 152.056 248.62 155.201 260.781 141.478C266.469 135.061 271.946 132.55 277.502 133.858C282.183 134.954 285.899 138.479 288.907 141.314C289.143 141.544 289.379 141.774 289.609 141.964L289.805 142.156C292.971 145.144 299.616 151.427 311.013 143.635C318.111 138.795 322.348 138.681 324.613 139.408C326.772 140.099 327.525 141.576 327.57 141.653L330.453 146.659L329.966 147.026C329.927 146.988 326.332 142.199 314.005 150.095C300.934 158.445 295.401 154.023 286.17 146.667C285.901 146.438 285.592 146.17 285.205 145.826C281.86 142.764 274.047 135.645 263.37 148.422C257.531 155.435 247.038 161.075 242.486 159.937ZM242.059 159.081C245.973 160.946 256.914 155.136 262.932 147.961C274.012 134.701 282.105 142.127 285.602 145.303C285.955 145.648 286.298 145.915 286.533 146.145C295.54 153.349 300.955 157.656 313.691 149.552C322.592 143.875 327.115 144.581 329.118 145.591L327.044 141.983C327.038 141.943 326.347 140.662 324.435 140.043C322.242 139.354 318.219 139.541 311.334 144.217C299.528 152.218 292.686 145.743 289.403 142.64L289.206 142.448C288.97 142.218 288.74 142.027 288.504 141.797C282.633 136.203 273.754 127.773 261.185 141.94C250.272 154.251 244.095 153.314 242.53 152.765L242.059 159.081Z" fill="white"/>
<path d="M245.599 142.685C249.058 146.753 251.143 145.795 262.334 135.604C273.526 125.414 279.478 126.236 286.653 132.443C292.829 137.812 298.202 144.145 305.127 142.39C312.058 140.674 321.46 131.395 325.455 137.058L321.653 130.173C321.653 130.173 318.506 127.549 309.442 133.129C306.815 134.769 304.389 136.169 302.071 135.995C296.512 135.555 291.864 130.262 289.026 127.905C283.422 123.226 276.199 113.449 261.609 127.852C249.438 139.874 244.032 138.174 244.032 138.174L245.599 142.685Z" fill="white"/>
<path d="M248.44 145.137C247.393 144.891 246.434 144.094 245.413 142.868L245.373 142.83L243.513 137.708L244.078 137.889C244.112 137.888 249.542 139.31 261.347 127.635C274.569 114.59 281.938 121.21 287.294 126.042C287.917 126.613 288.534 127.145 289.111 127.639C289.611 128.057 290.194 128.59 290.816 129.161C293.654 131.749 297.508 135.289 301.973 135.64C304.155 135.817 306.428 134.542 309.176 132.824C318.29 127.175 321.57 129.79 321.715 129.865L321.755 129.903L325.601 136.852L325.115 137.217C322.61 133.68 317.846 136.353 312.763 139.153C310.177 140.593 307.495 142.075 305.086 142.648C299.071 144.14 294.253 139.764 289.166 135.159C288.269 134.321 287.338 133.484 286.373 132.648C279.582 126.757 273.744 125.542 262.472 135.792C254.672 143.052 251.172 145.848 248.44 145.137ZM245.898 142.502C249.154 146.333 251.02 145.5 262.169 135.33C273.764 124.758 279.787 126.086 286.842 132.165C287.806 133.002 288.737 133.839 289.635 134.677C294.609 139.206 299.309 143.468 305.028 142.023C307.337 141.452 309.985 139.971 312.576 138.57C316.849 136.223 321.245 133.795 324.221 135.478L321.426 130.421C321.017 130.158 317.762 128.403 309.603 133.439C306.76 135.199 304.392 136.516 302.042 136.344C297.37 135.959 293.404 132.343 290.527 129.717C289.904 129.146 289.36 128.651 288.828 128.234C288.25 127.74 287.633 127.208 287.005 126.598C284.324 124.163 281.262 121.424 277.266 120.825C272.615 120.126 267.542 122.534 261.83 128.17C251.704 138.195 246.195 138.773 244.556 138.62L245.898 142.502Z" fill="white"/>
<path d="M303.476 79.1809C304.456 80.3094 305.245 81.689 305.926 83.1067C306.269 83.8331 306.584 84.5602 306.872 85.2882C307.003 85.6701 307.163 86.0511 307.263 86.3989C307.395 86.7807 307.499 87.1634 307.631 87.5453C308.574 90.6034 309.592 93.5892 310.508 96.6482C311.396 99.7079 312.181 102.841 313.008 105.867C313.84 108.929 314.743 111.883 315.84 114.831C316.359 116.289 316.933 117.745 317.531 119.165C318.129 120.585 318.727 122.005 319.404 123.388C319.743 124.08 320.049 124.737 320.415 125.427L321.459 127.501L322.507 129.609L323.527 131.718C324.885 134.519 326.188 137.321 327.547 140.122C327.885 140.813 328.224 141.505 328.59 142.195C328.929 142.887 329.295 143.577 329.634 144.269C330.339 145.651 331.067 146.997 331.8 148.378C328.074 143.648 325.012 138.197 322.066 132.778L320.971 130.741L319.876 128.704L318.781 126.667C318.415 125.977 318.048 125.286 317.706 124.56C317.024 123.142 316.366 121.689 315.759 120.198C315.153 118.708 314.602 117.217 314.074 115.689C313.575 114.161 313.075 112.633 312.655 111.067C312.234 109.502 311.842 107.935 311.505 106.367C310.804 103.232 310.186 100.094 309.409 97.0309C309.049 95.4986 308.577 93.9695 308.161 92.4388C307.717 90.9089 307.329 89.3774 306.806 87.8849C306.547 87.1561 306.283 86.3924 306.052 85.6628C305.82 84.9332 305.556 84.1695 305.297 83.4407C304.755 82.0189 304.181 80.5629 303.476 79.1809Z" fill="white"/>
<path d="M317.403 120.587L317.33 120.55C317.218 120.476 314.913 118.751 310.817 119.208C309 119.411 307.531 120.149 306.096 120.885C304.316 121.785 302.786 122.563 300.938 122.107C297.522 121.266 293.613 117.566 291.507 115.603C291.238 115.378 291.003 115.151 290.807 114.962C285.98 110.51 282.863 108.303 278.332 107.646C272.262 106.797 265.637 112.598 261.272 116.438C260.35 117.238 259.55 117.958 258.889 118.48C256.334 120.487 253.212 121.85 252.171 122.304L251.949 122.388L251.989 122.658C252.127 123.586 252.199 124.748 252.193 125.835C252.2 126.106 252.207 126.378 252.208 126.61C252.224 127.619 252.234 128.589 252.294 129.441L252.324 129.867L252.674 129.741C254.244 129.234 256.665 128.123 259.27 125.998C260.737 124.795 262.13 123.555 263.469 122.395C268.361 118.036 272.609 114.316 278.07 114.676C281.935 114.924 284.813 117.332 288.115 120.116C288.535 120.455 288.961 120.831 289.38 121.17C289.649 121.395 289.951 121.62 290.298 121.922C293.025 124.217 298.124 128.468 301.295 129.238C304.226 129.976 306.673 128.592 309.031 127.288C312.346 125.416 315.51 123.664 319.982 127.078L321.039 127.865L317.403 120.587Z" fill="white"/>
<path d="M337.32 154.438C332.872 149.254 329.771 143.259 325.093 134.18C323.832 131.754 322.411 128.982 320.815 125.968C315.831 116.51 314.448 110.783 313.112 105.196C312.425 102.367 311.719 99.3986 310.551 95.9508L312.221 95.2005C313.431 98.7526 314.169 101.755 314.866 104.654C316.211 110.312 317.515 115.654 322.348 124.835C323.944 127.849 325.365 130.621 326.626 133.047C331.228 141.988 334.287 147.878 338.571 152.891L337.32 154.438Z" fill="#004F74"/>
<path d="M325.021 101.655C325.533 104.655 326.219 107.473 327.122 110.251C327.997 113.029 329.031 115.733 330.143 118.399C331.256 121.065 332.447 123.693 333.69 126.286C334.932 128.878 336.23 131.468 337.454 134.131C335.652 131.976 334.023 129.641 332.544 127.161C331.064 124.68 329.734 122.056 328.585 119.321C327.436 116.586 326.492 113.704 325.817 110.745C325.166 107.75 324.811 104.676 325.021 101.655Z" fill="white"/>
<path d="M326.561 94.5549C326.543 96.2685 326.661 97.978 326.861 99.685C327.06 101.392 327.369 103.096 327.731 104.798C328.457 108.201 329.391 111.529 330.458 114.818C331.002 116.444 331.551 118.105 332.15 119.73C332.75 121.355 333.345 122.945 333.998 124.568C335.247 127.781 336.546 130.958 337.771 134.206C336.843 132.801 335.988 131.324 335.188 129.846C334.384 128.332 333.634 126.817 332.93 125.23C331.526 122.092 330.196 118.881 329.044 115.56C328.441 113.901 327.919 112.238 327.421 110.541C326.922 108.843 326.474 107.109 326.08 105.373C325.869 104.505 325.709 103.601 325.553 102.732C325.42 101.827 325.264 100.958 325.154 100.017C324.942 98.2056 324.835 96.3559 324.891 94.5013L326.561 94.5549Z" fill="#004F74"/>
<path d="M337.314 154.439C332.865 149.256 329.763 143.261 325.085 134.181C323.823 131.755 322.402 128.983 320.806 125.969C315.369 115.68 314.07 110.162 312.542 103.77C311.967 101.361 311.379 98.8458 310.507 95.917L312.191 95.2718C313.071 98.2707 313.66 100.786 314.268 103.23C315.744 109.446 317.025 114.825 322.316 124.872C323.912 127.885 325.333 130.658 326.594 133.084C331.197 142.025 334.257 147.916 338.541 152.928L337.314 154.439Z" fill="#004F74"/>
<path d="M281.195 76.2388L283.439 102.28L281.195 76.2388Z" fill="white"/>
<path d="M281.694 76.0505C281.809 77.1219 281.901 78.2289 282.015 79.3002C282.13 80.3716 282.222 81.4786 282.314 82.5856C282.495 84.7649 282.677 86.9443 282.858 89.1236L283.106 92.4109C283.199 93.5179 283.263 94.5913 283.355 95.6983C283.486 97.8796 283.595 100.097 283.577 102.318C283.122 100.185 282.767 98.0469 282.46 95.8725C282.295 94.8031 282.178 93.6972 282.038 92.6268L281.617 89.381C281.335 87.2056 281.08 85.0639 280.824 82.8875C280.709 81.8161 280.567 80.7111 280.452 79.6398C280.338 78.5684 280.22 77.4624 280.106 76.391L281.694 76.0505Z" fill="#004F74"/>
<path d="M258.168 79.2439C258.412 80.0659 258.552 80.4945 258.782 81.2449C259.429 81.0504 259.735 80.9356 260.34 80.6701C259.882 81.4 259.646 81.7292 259.159 82.4598C259.419 83.2095 259.516 83.5671 259.769 84.281C259.218 84.0415 258.954 83.9036 258.354 83.5573C257.83 84.2528 257.535 84.5832 256.946 85.2442C257.133 84.3405 257.23 83.9065 257.417 83.0028C256.81 82.6207 256.503 82.4117 255.852 81.9587C256.632 81.8331 257.01 81.7886 257.687 81.5935C257.927 80.6526 258.017 80.1828 258.168 79.2439Z" fill="white"/>
<path d="M256.942 90.2431C257.198 90.9592 257.319 91.2812 257.576 91.9973C258.277 91.5846 258.624 91.3603 259.282 90.8764C258.789 91.7536 258.513 92.1928 257.961 93.0713C258.21 93.7514 258.338 94.1094 258.588 94.7895C258 94.6944 257.718 94.6285 257.079 94.4263C256.49 95.2695 256.177 95.6735 255.514 96.4462C255.754 95.5025 255.874 95.0307 256.114 94.087C255.462 93.8129 255.129 93.6399 254.427 93.2587C255.295 93.0949 255.686 92.9418 256.468 92.6356C256.634 91.6214 256.754 91.1495 256.942 90.2431Z" fill="white"/>
<path d="M255.476 101.039C255.774 101.794 255.942 102.189 256.27 102.943C257.123 102.489 257.527 102.226 258.329 101.665C257.739 102.693 257.437 103.171 256.773 104.128C257.102 104.882 257.269 105.277 257.605 106.067C256.845 105.903 256.461 105.803 255.687 105.566C254.979 106.452 254.602 106.859 253.813 107.638C254.107 106.653 254.228 106.179 254.485 105.158C253.696 104.849 253.306 104.713 252.497 104.296C253.496 104.128 253.982 103.973 254.879 103.59C255.136 102.569 255.279 102.059 255.476 101.039Z" fill="white"/>
<path d="M254.215 112.481C254.588 113.277 254.767 113.711 255.14 114.507C256.212 114.154 256.722 113.924 257.71 113.464C256.976 114.43 256.571 114.877 255.723 115.736C256.096 116.531 256.298 116.929 256.702 117.724C255.792 117.488 255.34 117.388 254.385 117.08C253.499 117.904 253.056 118.315 252.094 119.067C252.453 118.073 252.636 117.594 252.963 116.6C252.031 116.255 251.589 116.046 250.643 115.628C251.781 115.457 252.35 115.372 253.46 115.055C253.78 114.025 253.925 113.51 254.215 112.481Z" fill="white"/>
<path d="M241.722 158.511C241.698 158.547 238.587 163.091 238.626 165.214C237.704 159.007 236.088 150.448 234.589 142.911C237.683 142.581 240.384 142.615 242.405 143.269C243.026 143.465 243.568 143.734 244.027 144.04C249.027 147.483 246.632 152.468 241.722 158.511Z" fill="#DA1A2D"/>
<path d="M238.386 157.926C236.371 147.016 250.182 142.82 249.167 136.496C247.608 127.064 242.835 136.379 242.835 136.379C242.835 136.379 234.831 135.668 236.823 149.487C237.491 154.26 238.386 157.926 238.386 157.926Z" fill="white"/>
<path d="M238.124 158.013C238.119 157.977 237.245 154.273 236.555 149.57C235.792 144.371 236.349 140.594 238.174 138.309C239.846 136.206 242.078 136.077 242.681 136.096C243.129 135.268 245.225 131.556 247.157 132.038L247.187 132.037C248.28 132.328 249 133.764 249.46 136.486C249.945 139.384 247.592 141.753 244.902 144.487C241.449 147.95 237.555 151.886 238.682 157.927L238.124 158.013ZM247.06 132.609C245.598 132.257 243.678 135.325 243.047 136.548L242.978 136.692L242.823 136.661C242.794 136.661 240.336 136.478 238.56 138.69C236.833 140.83 236.346 144.463 237.078 149.449C237.368 151.43 237.688 153.196 237.96 154.644C238.402 150.089 241.622 146.88 244.495 143.965C247.081 141.341 249.33 139.081 248.897 136.536C248.519 134.168 247.869 132.8 247.06 132.609Z" fill="white"/>
<path d="M167.229 138.335L166.882 139.404C166.875 138.945 167.001 138.588 167.229 138.335Z" fill="white"/>
<path d="M166.731 140.452C166.285 140.356 165.968 139.899 165.923 139.399C165.87 138.65 166.109 138 166.56 137.523C166.879 137.193 167.396 137.144 167.777 137.42C168.163 137.732 168.306 138.265 168.162 138.734L167.804 139.816C167.629 140.285 167.207 140.547 166.731 140.452Z" fill="#004F74"/>
<path d="M249.839 152.576C248.561 156.293 243.782 160.887 243.488 161.181C243.513 161.144 243.513 161.144 243.539 161.108C248.604 154.968 251.097 149.932 245.832 146.526C245.322 146.217 244.757 145.945 244.141 145.746C242.038 145.085 239.26 145.049 236.015 145.382C227.154 146.253 215.107 149.853 205.768 150.414C192.032 151.231 183.408 145.407 182.469 141.496C183.14 137.83 176.86 135.845 175.27 137.531L203.533 54.0302C205.919 52.109 209.91 53.8311 211.347 55.9763C212.785 58.1215 221.225 58.1199 227.052 57.1478C232.878 56.1757 240.015 54.7051 244.217 59.212C248.389 63.7196 248.478 67.1157 248.563 75.3053C248.563 75.9134 248.58 76.6284 248.553 77.4519C248.481 87.4341 247.645 110.922 248.424 120.024C249.142 128.734 250.873 144.25 250.214 150.599C250.099 151.46 249.983 152.107 249.839 152.576Z" fill="#DA1A2D"/>
<path d="M252.049 111.396L244.205 109.453L230.097 108.719L202.801 112.053L194.161 103.889L189.579 101.464L205.87 53.8148C208.328 51.8664 212.452 53.6132 213.942 55.789C215.432 57.9648 224.145 57.9637 230.158 56.9781C236.17 55.9926 243.534 54.5015 247.884 59.0727C252.202 63.6446 252.303 67.089 252.413 75.3949C252.415 76.0117 252.435 76.7368 252.408 77.572C252.408 85.1913 251.954 100.369 252.049 111.396Z" fill="#004F74"/>
<path d="M249.731 58.7061C250.252 59.3132 250.753 59.9906 251.229 60.6689C251.682 61.3827 252.116 62.1668 252.425 62.9902C252.763 63.8473 252.976 64.7436 253.141 65.6765C253.28 66.6103 253.342 67.5468 253.404 68.4834C253.478 70.3583 253.423 72.2379 253.416 74.081C253.413 74.6027 253.375 75.0213 253.37 75.5083L253.295 76.9018L253.17 79.6879L252.118 101.909C251.95 105.601 251.785 109.327 251.694 113.016C251.636 114.861 251.603 116.705 251.67 118.511C251.74 120.351 251.81 122.192 251.905 124.031L252.17 129.585C252.24 131.425 252.313 133.3 252.357 135.141C252.405 137.017 252.423 138.859 252.368 140.739C252.336 142.583 252.229 144.464 251.937 146.283C252.003 145.342 252.046 144.436 252.035 143.498C252.025 142.559 252.017 141.656 251.98 140.718C251.91 138.878 251.789 137.039 251.668 135.201C251.546 133.362 251.4 131.525 251.253 129.687L250.809 124.14C250.662 122.302 250.537 120.429 250.442 118.59C250.343 116.716 250.346 114.838 250.376 112.96C250.438 109.237 250.577 105.511 250.745 101.82C250.935 98.0924 251.129 94.3998 251.348 90.7062C251.593 87.0117 251.809 83.2835 252.105 79.5871L252.514 74.0787C252.598 72.2328 252.708 70.3861 252.715 68.543C252.748 66.699 252.63 64.8952 252.085 63.211C251.567 61.526 250.682 60.0627 249.731 58.7061Z" fill="white"/>
<path d="M251.346 108.387C249.186 106.087 246.824 104.667 244.167 103.812C238.459 101.951 231.594 103.542 224.346 105.222C220.097 106.196 215.675 107.134 211.706 107.464C196.188 108.736 193.973 102.015 193.966 101.975C192.278 97.5531 187.262 96.9113 185.807 99.2947L183.773 105.913C184.864 105.331 186.559 104.057 188.261 104.616C190.926 105.51 190.476 107.393 192.135 109.864C194.851 113.904 203.614 115.894 212.642 115.369C217.157 115.106 221.789 114.044 226.288 112.985C232.42 111.569 238.699 110.589 242.815 111.411C245.959 112.016 250.197 113.313 251.811 116.621L251.346 108.387Z" fill="white"/>
<path d="M249.734 133.992C248.174 132.414 246.179 131.161 244.338 130.534C237.418 128.29 228.974 130.014 220.025 131.868C214.963 132.926 209.677 133.674 204.895 134.293C189.964 136.203 184.578 127.788 184.083 126.934C182.315 123.748 181.072 121.927 178.793 120.917C177.919 120.503 175.037 119.978 173.927 121.616L172.065 129.014C173.078 128.598 175.044 127.452 176.784 128.239C178.051 128.801 179.029 129.762 179.644 131.243C180.455 133.231 182.622 136.25 184.573 137.622C191.078 142.196 196.176 142.711 205.9 142.138C211.17 141.823 216.62 140.717 221.873 139.615C229.994 137.937 237.703 136.348 243.033 138.076C246.423 139.18 250.204 140.944 250.813 144.47C250.797 144.038 249.734 133.992 249.734 133.992Z" fill="white"/>
<path d="M250.536 121.824C248.689 119.24 246.538 118.056 244.482 117.386C238.134 115.303 230.491 116.99 222.366 118.768C217.696 119.79 212.867 120.856 208.421 121.117C201.238 121.52 192.316 121.526 188.051 113.465C185.788 109.179 182.1 108.508 179.586 111.271L177.801 117.6C179.013 116.776 180.088 116.115 181.532 116.36C182.737 116.572 184.329 117.251 185.265 119.419C186.003 121.949 188.262 124.245 190.288 125.472C195.387 128.539 200.906 129.566 209.374 129.094C214.284 128.822 219.338 127.712 224.233 126.645C231.526 125.045 238.355 124.172 243.155 125.097C247.369 125.916 249.598 126.979 251.655 129.797L250.536 121.824Z" fill="white"/>
<path d="M181.714 138.276L180.109 137.177C183.361 129.282 190.516 104.309 190.516 104.309C190.827 104.799 191.975 105.874 191.975 105.874C187.853 121.358 185.01 130.31 181.714 138.276Z" fill="#DA1A2D"/>
<path d="M194.037 150.505C186.764 148.688 182.302 144.903 181.539 141.738C181.512 141.56 181.49 141.417 181.524 141.238C181.703 140.196 180.908 139.429 180.187 138.947C178.544 137.88 176.441 137.826 175.934 138.34C175.615 138.67 175.099 138.719 174.718 138.443C174.331 138.131 174.188 137.598 174.331 137.129L202.569 53.6216C202.634 53.441 202.729 53.2597 202.897 53.1481C205.775 50.8205 210.369 52.8493 212.076 55.3456C212.954 56.6468 219.912 57.2198 226.824 56.0768L227.723 55.9107C233.403 54.9781 240.493 53.7947 244.81 58.4422C249.35 63.3344 249.371 67.0903 249.467 75.3519C249.457 75.8888 249.469 76.5682 249.463 77.5343C249.459 80.3249 249.363 84.1195 249.293 88.4859C249.144 95.7521 248.994 104.02 249.019 110.817C249.048 114.823 249.155 117.932 249.319 120.003C249.447 121.646 249.645 123.537 249.828 125.535C250.641 134.458 251.665 145.558 251.118 150.831C251.118 150.831 251.118 150.831 251.123 150.867C251.014 151.764 250.878 152.483 250.715 153.024C249.326 157.03 244.333 161.845 244.115 162.029C243.74 162.397 243.146 162.34 242.804 161.92C242.432 161.5 242.395 160.857 242.734 160.455L242.759 160.418L242.784 160.382C245.126 157.567 248.166 153.483 247.723 150.596C247.543 149.42 246.771 148.402 245.365 147.473C244.953 147.197 244.46 146.995 243.905 146.794C242.094 146.233 239.581 146.118 236.151 146.456C232.174 146.845 227.635 147.784 222.794 148.766C216.999 149.952 211.024 151.179 205.865 151.49C201.375 151.748 197.401 151.349 194.037 150.505ZM183.465 141.438C183.935 142.893 185.986 145.023 189.636 146.718C192.75 148.141 198.051 149.758 205.655 149.313C210.691 149.005 216.609 147.816 222.344 146.631C227.215 145.648 231.816 144.707 235.848 144.282C239.518 143.902 242.282 144.046 244.32 144.673C245.033 144.905 245.696 145.21 246.242 145.554C247.751 146.553 248.76 147.708 249.274 149.054C249.538 143.538 248.578 133.259 247.9 125.62C247.717 123.622 247.55 121.73 247.391 120.088C247.211 117.911 247.109 114.837 247.064 110.724C247.003 103.892 247.183 95.6234 247.327 88.3216C247.428 83.9545 247.498 80.1962 247.502 77.4057C247.513 76.4752 247.507 75.8314 247.487 75.2953C247.387 67.2127 247.358 64.2083 243.444 59.9798C239.83 56.1013 233.547 57.1209 228.02 58.0496L227.121 58.2157C223.484 58.8098 212.637 59.8032 210.477 56.5672C209.324 54.8795 206.149 53.4583 204.217 54.7242L176.902 135.811C178.283 135.776 179.894 136.235 181.13 137.062C182.809 138.164 183.669 139.752 183.465 141.438Z" fill="#004F74"/>
<path d="M237.675 165.422C236.546 158.14 234.625 148.324 233.563 143.135L233.333 141.97L234.367 141.871C237.937 141.494 240.625 141.636 242.604 142.258C243.297 142.488 243.94 142.791 244.47 143.132C246.333 144.396 247.432 145.964 247.702 147.802C248.138 150.772 246.572 154.185 242.439 159.298L242.335 159.407C240.531 161.407 239.499 163.564 239.545 165.302L237.675 165.422ZM235.653 143.896C236.53 148.238 237.839 154.912 238.866 160.883C239.407 159.875 240.097 158.863 240.972 157.882L241.046 157.773C243.333 154.98 246.303 150.927 245.883 148.063C245.712 146.897 244.964 145.887 243.6 144.965C243.201 144.691 242.722 144.491 242.183 144.292C240.618 143.836 238.468 143.68 235.653 143.896Z" fill="#004F74"/>
<path d="M221.736 60.8063C221.906 61.8653 222.001 62.3763 222.212 63.3612C223.206 63.4516 223.684 63.4789 224.623 63.4606C223.818 64.0258 223.39 64.3272 222.518 64.8571C222.719 65.8056 222.806 66.2801 222.99 67.1556C222.24 66.6208 221.876 66.3349 221.091 65.6542C220.151 66.1488 219.685 66.4143 218.668 66.8371C219.159 65.9484 219.404 65.504 219.856 64.5794C219.062 63.8623 218.671 63.467 217.821 62.641C218.978 62.9115 219.533 63.0106 220.565 63.1369C221.056 62.2482 221.292 61.7674 221.736 60.8063Z" fill="white"/>
<path d="M231.524 60.3903C231.774 61.3003 231.88 61.7373 232.172 62.5733C233.091 62.4822 233.541 62.4002 234.519 62.3079C233.762 62.9448 233.365 63.2453 232.599 63.8459C232.881 64.6454 233.029 65.0085 233.332 65.7711C232.532 65.3842 232.136 65.209 231.395 64.8209C230.6 65.422 230.232 65.722 229.408 66.3236C229.76 65.475 229.917 65.0328 230.261 64.1478C229.54 63.7227 229.215 63.4729 228.535 62.9739C229.433 62.9197 229.892 62.8741 230.773 62.7471C231.079 61.8262 231.227 61.3476 231.524 60.3903Z" fill="white"/>
<path d="M242.212 58.8738C242.569 59.8555 242.752 60.3645 243.1 61.3096C244.105 61.3266 244.621 61.3898 245.612 61.5901C244.839 62.0446 244.432 62.3088 243.639 62.8003C243.987 63.7454 244.161 64.218 244.489 65.2002C243.667 64.484 243.235 64.1629 242.39 63.5936C241.577 64.1221 241.17 64.3863 240.348 64.8784C240.65 64.067 240.778 63.6251 241.063 62.7408C240.198 62.2085 239.764 61.9973 238.886 61.5385C239.944 61.408 240.463 61.3612 241.509 61.3041C241.785 60.3834 241.933 59.9045 242.212 58.8738Z" fill="white"/>
<path d="M251.675 61.2814C251.93 62.5587 252.057 63.1973 252.324 64.4031C253.068 65.278 253.443 65.8044 254.122 67.037C253.599 66.585 253.328 66.4483 252.726 66.283C252.993 67.4888 253.107 68.0565 253.394 69.2262C252.762 67.957 252.446 67.3224 251.781 66.1608C251.154 66.1386 250.81 66.1816 250.137 66.3386C250.386 65.5493 250.497 65.155 250.753 64.4012C250.076 63.3111 249.754 62.7835 249.05 61.8366C249.89 62.2461 250.324 62.5219 251.106 63.1821C251.335 62.4289 251.446 62.0346 251.675 61.2814Z" fill="white"/>
<path d="M216.762 73.16C216.993 74.0808 217.104 74.5227 217.296 75.4072C218.445 75.311 218.987 75.1895 220.078 74.9834C219.116 75.7051 218.64 76.0844 217.647 76.8067C217.869 77.6906 217.95 78.1332 218.172 79.0171C217.322 78.6264 216.907 78.4124 216.05 77.8738C214.979 78.5236 214.454 78.8298 213.296 79.3703C213.873 78.4339 214.142 77.9476 214.69 77.0119C213.784 76.4002 213.332 76.0389 212.389 75.2799C213.711 75.5134 214.329 75.5755 215.527 75.5524C216.005 74.5809 216.274 74.0947 216.762 73.16Z" fill="white"/>
<path d="M228.402 71.0293C228.698 71.727 228.85 72.0943 229.155 72.8288C230.277 72.622 230.888 72.5362 232.098 72.4388C231.098 73.0134 230.633 73.3185 229.661 74.0037C229.975 74.775 230.158 75.1417 230.521 75.9861C229.541 75.5608 229.054 75.4221 228.162 75.1061C227.199 75.8281 226.732 76.2443 225.767 77.0774C226.206 76.0694 226.415 75.5841 226.813 74.6509C225.96 74.3712 225.563 74.2308 224.74 73.9505C225.814 73.6707 226.346 73.5123 227.42 73.2325C227.848 72.2987 228.036 71.8508 228.402 71.0293Z" fill="white"/>
<path d="M239.91 70.4442C240.24 71.3469 240.409 71.8163 240.735 72.8282C241.743 73.1719 242.247 73.3437 243.223 73.7972C242.438 74.0309 242.032 74.1481 241.227 74.4186C241.561 75.4666 241.719 76.009 242.05 77.1662C241.234 76.1641 240.806 75.6998 239.995 74.843C239.19 75.1135 238.763 75.2675 237.955 75.6471C238.248 74.8049 238.413 74.4016 238.686 73.5961C237.872 72.8485 237.449 72.5295 236.621 71.964C237.626 72.0532 238.142 72.1521 239.153 72.3867C239.455 71.5806 239.6 71.2141 239.91 70.4442Z" fill="white"/>
<path d="M249.563 73.8715C249.862 74.9802 250.043 75.5519 250.35 76.6965C251.237 77.2897 251.699 77.6039 252.558 78.1976C251.896 78.2472 251.569 78.2898 250.874 78.4479C251.209 79.5919 251.355 80.1283 251.69 81.2723C250.912 80.2813 250.523 79.7858 249.757 78.7226C249.035 78.8812 248.667 78.9966 247.897 79.1922C248.155 78.3238 248.284 77.8896 248.551 77.057C247.785 75.9938 247.416 75.4619 246.63 74.4351C247.557 74.9555 248.039 75.2334 248.946 75.7902C249.192 74.9939 249.337 74.6313 249.563 73.8715Z" fill="white"/>
<path d="M224.573 67.03C224.803 67.8354 224.903 68.2385 225.123 69.0073C226.124 68.8406 226.61 68.7576 227.602 68.5542C226.779 69.1961 226.347 69.499 225.473 70.1786C225.694 70.9475 225.814 71.3133 226.055 72.0449C225.262 71.729 224.87 71.5893 224.097 71.2361C223.223 71.9158 222.771 72.2559 221.838 72.9367C222.263 72.008 222.48 71.562 222.905 70.6334C222.144 70.2064 221.763 69.9929 220.975 69.456C222.033 69.3986 222.528 69.3522 223.538 69.2222C224.011 68.3662 224.198 67.9208 224.573 67.03Z" fill="white"/>
<path d="M235.526 65.4627C235.935 66.2363 236.089 66.6054 236.459 67.3426C237.547 67.3216 238.061 67.3118 239.148 67.4025C238.323 67.8649 237.886 68.0594 237.041 68.5594C237.389 69.3342 237.583 69.7398 237.951 70.5886C237.075 70.01 236.746 69.7931 235.747 69.3285C234.781 69.8309 234.302 70.1006 233.355 70.677C233.732 69.8882 233.901 69.4757 234.217 68.6881C233.268 68.297 232.828 68.1194 231.978 67.7637C233.029 67.5946 233.594 67.5465 234.724 67.4504C235.071 66.6622 235.209 66.2502 235.526 65.4627Z" fill="white"/>
<path d="M246.06 65.8672C246.383 66.909 246.526 67.4122 246.857 68.49C247.786 68.9413 248.241 69.1851 249.146 69.7815C248.425 69.8683 248.081 69.9836 247.357 70.1789C247.66 71.2573 247.811 71.7965 248.151 72.9103C247.382 71.9136 246.984 71.4155 246.203 70.4913C245.459 70.7232 245.058 70.8397 244.294 71.1081C244.567 70.3074 244.711 69.943 244.984 69.1422C244.2 68.3266 243.798 67.937 242.981 67.2305C243.966 67.4276 244.453 67.5624 245.414 67.9045C245.658 67.1043 245.795 66.7039 246.06 65.8672Z" fill="white"/>
<path d="M211.486 85.3161C211.768 86.313 211.89 86.7933 212.211 87.8265C213.548 87.7266 214.222 87.6393 215.521 87.3916C214.44 88.2662 213.871 88.6484 212.703 89.4134C213.025 90.4466 213.176 90.9263 213.507 91.9965C212.424 91.4234 211.898 91.1365 210.826 90.489C209.6 91.1437 208.942 91.4162 207.609 91.8873C208.249 90.9469 208.549 90.4586 209.17 89.4443C208.09 88.7597 207.565 88.3615 206.477 87.5286C207.967 87.7969 208.709 87.8569 210.113 87.9041C210.634 86.8546 210.925 86.3293 211.486 85.3161Z" fill="white"/>
<path d="M224.942 82.4259C225.338 83.4441 225.521 83.9536 225.926 85.0083C227.164 84.7643 227.762 84.6793 229.036 84.5811C228.019 85.3705 227.531 85.7831 226.541 86.6819C226.926 87.7737 227.118 88.3195 227.473 89.4119C226.48 88.845 226.006 88.5977 225.001 88.1044C224.012 89.0031 223.511 89.4892 222.463 90.3891C222.874 89.1719 223.054 88.5821 223.435 87.3655C222.439 86.9085 221.936 86.6619 220.978 86.2408C222.198 85.9239 222.808 85.7654 224.037 85.4849C224.371 84.1959 224.581 83.6055 224.942 82.4259Z" fill="white"/>
<path d="M237.149 82.3446C237.442 83.4652 237.598 84.0071 237.882 85.0915C238.917 85.4344 239.457 85.6417 240.516 86.093C239.639 86.2921 239.213 86.4459 238.332 86.7541C238.607 87.8023 238.764 88.3443 239.031 89.3563C238.182 88.5738 237.763 88.1461 236.964 87.3263C236.079 87.7435 235.65 88.0063 234.8 88.5682C235.165 87.5436 235.334 87.0316 235.708 86.0431C234.908 85.2232 234.527 84.8311 233.765 84.0468C234.748 84.1727 235.262 84.2715 236.279 84.542C236.622 83.6631 236.807 83.2234 237.149 82.3446Z" fill="white"/>
<path d="M247.571 86.1532C247.956 87.1331 248.129 87.6052 248.505 88.5487C249.555 89.0036 250.075 89.2129 251.108 89.595C250.304 89.7936 249.904 89.838 249.083 89.9638C249.45 90.871 249.643 91.306 250.001 92.1768C249.106 91.3897 248.649 90.9598 247.745 90.1363C246.894 90.2627 246.435 90.3082 245.535 90.4722C245.873 89.8072 246.028 89.475 246.336 88.8106C245.452 87.9502 244.987 87.4838 244.123 86.5864C245.211 87.0771 245.741 87.3228 246.82 87.7771C247.138 87.1492 247.263 86.8175 247.571 86.1532Z" fill="white"/>
<path d="M220.379 77.8081C220.607 78.6122 220.715 79.0511 220.952 79.8917C222.082 79.5389 222.627 79.3446 223.795 79.0279C222.821 79.892 222.378 80.3784 221.422 81.3157C221.774 82.2643 221.921 82.7392 222.283 83.7243C221.327 83.3387 220.859 83.1273 219.933 82.7411C218.968 83.6418 218.456 84.0927 217.414 84.9215C217.882 83.8099 218.101 83.2544 218.51 82.144C217.613 81.7572 217.175 81.5453 216.329 81.1207C217.494 80.9143 218.079 80.756 219.188 80.4404C219.685 79.3283 219.913 78.8094 220.379 77.8081Z" fill="white"/>
<path d="M233.323 75.2919C233.754 76.2012 233.811 76.6773 234.16 77.735C235.177 77.8988 235.714 78.0351 236.747 78.3821C235.914 78.7287 235.488 78.9206 234.653 79.3774C234.942 80.4363 235.115 81.0202 235.385 82.1163C234.559 81.288 234.461 80.8861 233.347 80.2104C232.224 80.8196 231.715 81.1599 230.666 81.9512C231.036 80.806 231.225 80.2517 231.622 79.2161C230.527 78.6134 229.983 78.3303 229.021 77.9085C230.243 77.7012 230.874 77.6155 232.238 77.6256C232.712 76.662 232.919 76.1807 233.323 75.2919Z" fill="white"/>
<path d="M243.633 77.9175C243.957 79.102 244.103 79.7486 244.443 81.0049C245.419 81.5626 245.907 81.8415 246.883 82.3992C246.122 82.6672 245.735 82.7111 244.933 82.7995C245.261 83.8756 245.431 84.3774 245.743 85.3816C244.903 84.4242 244.515 83.9628 243.696 82.9689C242.874 83.0938 242.459 83.1383 241.625 83.3356C241.962 82.5709 242.127 82.1705 242.408 81.4069C241.617 80.4124 241.221 79.9152 240.414 78.8488C241.402 79.3341 241.89 79.6129 242.886 80.1341C243.22 79.2251 243.348 78.7895 243.633 77.9175Z" fill="white"/>
<path d="M206.225 98.1994C206.591 99.2763 206.764 99.8336 207.121 100.873C208.763 100.954 209.564 100.976 211.117 100.946C209.796 101.644 209.111 101.956 207.7 102.544C208.067 103.621 208.261 104.14 208.658 105.217C207.381 104.531 206.739 104.17 205.443 103.41C203.953 103.924 203.209 104.125 201.63 104.529C202.376 103.618 202.74 103.125 203.447 102.177C202.163 101.342 201.532 100.906 200.29 99.9952C202.008 100.373 202.867 100.506 204.538 100.699C205.265 99.7128 205.598 99.2206 206.225 98.1994Z" fill="white"/>
<path d="M221.447 96.7035C221.828 97.7625 222.022 98.3103 222.394 99.3327C223.62 99.125 224.214 99.0032 225.302 98.8349C224.406 99.6613 223.953 100.111 222.969 100.94C223.311 101.963 223.488 102.437 223.82 103.424C222.914 103 222.407 102.752 221.393 102.257C220.35 103.087 219.79 103.465 218.649 104.26C219.126 103.184 219.345 102.628 219.775 101.48C218.693 100.949 218.147 100.666 217.027 100.099C218.449 99.961 219.14 99.874 220.426 99.6652C220.826 98.5174 221.036 97.925 221.447 96.7035Z" fill="white"/>
<path d="M233.467 94.9699C233.738 95.9553 233.884 96.4295 234.205 97.3773C235.345 97.3184 235.934 97.3069 237.1 97.3576C236.107 97.8907 235.61 98.1572 234.673 98.7993C234.985 99.7106 235.122 100.148 235.446 100.986C234.505 100.527 234.06 100.279 233.178 99.8192C232.229 100.535 231.789 100.91 230.908 101.661C231.275 100.627 231.474 100.109 231.87 99.0741C231.038 98.5766 230.661 98.3637 229.917 97.8645C230.873 97.6624 231.424 97.615 232.486 97.4842C232.863 96.4861 233.061 95.9685 233.467 94.9699Z" fill="white"/>
<path d="M245.63 95.8047C246.021 96.647 246.221 97.0866 246.621 97.9657C247.818 98.3121 248.441 98.5218 249.585 99.017C248.678 99.1085 248.209 99.1545 247.27 99.3574C247.679 100.273 247.879 100.713 248.307 101.702C247.279 100.835 246.79 100.438 245.74 99.7195C244.75 99.9604 244.219 100.118 243.206 100.508C243.58 99.7243 243.787 99.3508 244.14 98.6049C243.129 97.9223 242.628 97.5995 241.636 96.9904C242.876 97.1512 243.501 97.25 244.73 97.4849C245.093 96.7758 245.279 96.4396 245.63 95.8047Z" fill="white"/>
<path d="M216.238 90.8692C216.615 91.8972 216.774 92.4117 217.161 93.4764C218.52 93.2653 219.18 93.1417 220.479 92.9317C219.415 93.8396 218.898 94.2933 217.756 95.1287C218.142 96.1934 218.341 96.7442 218.728 97.8089C217.633 97.2755 217.081 96.9904 215.977 96.4202C214.796 97.2194 214.2 97.6006 212.902 98.2912C213.471 97.208 213.722 96.6486 214.252 95.5292C213.148 94.9589 212.587 94.637 211.474 94.03C212.938 94.0017 213.646 93.9511 215.044 93.7762C215.535 92.6205 215.786 92.0611 216.238 90.8692Z" fill="white"/>
<path d="M229.883 88.5545C230.209 89.677 230.251 90.2223 230.481 91.3102C231.427 91.2551 231.927 91.2817 232.957 91.3342C232.082 91.9341 231.668 92.27 230.828 93.0148C231.058 94.1027 231.179 94.6102 231.421 95.625C230.646 95.0576 230.412 94.8074 229.572 94.2049C228.654 94.9877 228.199 95.3973 227.27 96.2532C227.659 95.0802 227.839 94.494 228.219 93.2848C227.33 92.7198 226.856 92.4378 225.908 91.8739C227.108 91.6681 227.699 91.5836 228.829 91.4521C229.248 90.2786 229.457 89.6918 229.883 88.5545Z" fill="white"/>
<path d="M241.023 89.6472C241.357 90.6348 241.534 91.11 241.88 92.0238C243.029 92.3328 243.638 92.5051 244.767 92.8514C243.834 93.0536 243.348 93.1367 242.412 93.4494C242.758 94.3631 242.926 94.8017 243.293 95.6782C242.319 94.9975 241.852 94.6752 240.9 93.9573C239.914 94.3078 239.435 94.538 238.456 95.0357C238.86 94.1442 239.048 93.6987 239.441 92.8811C238.518 92.1627 238.071 91.8031 237.208 91.0835C238.321 91.246 238.882 91.3456 240.051 91.6174C240.474 90.7992 240.641 90.391 241.023 89.6472Z" fill="white"/>
<path d="M183.235 137.628C184.091 134.316 184.982 131.038 185.931 127.759C186.851 124.481 187.835 121.237 188.814 117.957C190.747 111.433 193.062 105.112 195.314 98.7566C197.566 92.4014 199.784 86.0117 202.065 79.6557L205.487 70.1217L208.943 60.6221L205.962 70.3564L202.952 80.0916C200.956 86.5814 198.895 93.0376 196.864 99.493C194.803 105.949 192.87 112.473 190.525 118.795C189.355 121.974 188.18 125.117 186.976 128.262C185.742 131.407 184.503 134.517 183.235 137.628Z" fill="white"/>
<path fill-rule="evenodd" clip-rule="evenodd" d="M75.9403 74.1858C83.7994 74.5104 90.3938 73.3564 97.1509 70.1107C90.2312 74.312 82.0469 76.0972 74.1878 75.6103C74.0975 77.738 74.7479 79.3969 76.1752 80.5689C65.2808 82.336 67.6476 92.5958 68.6954 98.6904C71.2248 95.8234 75.7777 95.8415 78.2709 98.7445C73.6277 95.2104 70.0685 98.6904 67.3404 101.9C62.6069 107.472 59.2826 114.486 57.2952 121.518C59.7704 119.264 62.643 117.461 65.8228 116.217C60.8725 119.282 52.5797 125.9 57.512 132.247C60.475 136.051 67.3404 136.322 72.4895 134.392C66.4732 131.616 64.0522 124.259 67.3043 118.453C64.1064 127.631 72.1462 135.042 75.8319 132.734C76.1571 132.517 76.5004 132.301 76.8256 132.066C72.1282 129.073 69.2013 123.97 68.9484 118.417C70.2673 125.81 78.3793 135.006 83.9259 130.191C86.13 128.28 88.2981 127.234 91.1165 126.459C100.114 123.934 98.0723 105.236 87.2683 99.8084C98.1988 102.838 102.824 124.565 91.8211 128.424C90.1951 129.001 88.7859 129.704 87.4309 131.201C96.3379 147.79 108.894 160.448 117.711 176.892C126.745 166.759 140.602 162.107 154.098 164.92C140.746 163.423 127.612 169.085 119.536 179.795C127.702 178.263 136.157 178.714 144.179 181.13C136.483 179.651 128.063 180.408 120.403 181.869C108.949 184.069 88.8762 213.766 82.8961 224.08C87.3586 220.276 92.6884 217.589 98.4156 216.273C89.9964 220.24 69.2013 235.17 77.8554 246.115C81.5772 239.84 88.0271 235.584 95.3442 234.701C89.0388 236.45 83.7452 240.687 80.6377 246.367C78.9033 249.559 81.1797 252.768 84.2692 253.94C84.7028 248.026 88.4968 242.797 94.1337 240.597C89.5266 243.446 86.5637 248.224 85.9674 253.471C85.7326 255.599 87.9909 256.555 89.8157 257.492C88.6775 247.99 96.0127 239.515 105.624 239.299C97.711 240.651 92.2547 247.575 92.3812 255.239C92.5077 262.199 103.149 260.486 102.426 265.408C101.541 271.413 104.107 271.395 104.974 274.893C106.04 273.306 107.431 271.936 109.075 270.926C107.503 272.332 106.293 274.045 105.498 275.975C104.884 277.453 103.908 281.402 106.455 281.528C110.864 281.727 115.272 281.366 119.59 280.446C115.525 282.195 111.207 283.169 106.817 283.331C110.864 294.367 113.989 305.726 116.121 317.266C117.079 322.423 112.978 317.735 113.05 324.587C113.122 331.187 102.173 336.362 96.5185 336.902C92.598 337.281 86.4191 339.643 89.1834 344.584C91.8031 349.29 105.389 348.136 109.238 346.946C113.068 345.756 115.742 342.907 118.56 346.116C120.024 347.775 120.403 348.316 122.553 346.693C123.131 346.261 123.872 346.459 124.504 346.946C125.787 347.92 126.781 347.866 128.136 346.928C129.31 346.116 129.798 345.485 131.261 346.585C134.188 348.785 137.007 343.772 136.772 340.148C136.537 336.47 135.453 331.187 135.381 328.879C135.326 326.697 135.326 322.369 131.55 324.154C126.528 326.534 120.493 325.435 116.645 321.341C121.144 324.587 127.106 324.767 131.767 321.9C129.599 311.803 129.689 305.546 130.069 295.665C130.213 292.185 129.87 288.488 128.063 286.234C121.306 277.706 114.025 271.647 104.667 266.021C114.784 270.691 124.721 278.12 131.315 286.631C134.369 290.58 128.949 293.627 135.272 298.063C137.151 299.379 136.681 307.259 137.404 310.144C138.687 315.247 138.036 315.806 137.476 321.54C136.88 327.526 140.692 333.621 145.028 328.536C149.509 323.271 156.645 314.111 156.176 308.179C155.814 303.833 158.886 302.913 160.999 300.263C162.12 298.856 160.367 296.729 162.011 296.422C166.925 295.484 162.878 289.696 164.83 289.498C169.563 288.993 168.154 281.925 160.783 279.491C155.941 277.904 152.887 278.679 148.714 274.406C146.582 272.242 144.432 273.757 145.245 275.073C147.54 278.769 144.577 284.377 134.82 288.2C137.982 286.469 149.274 278.517 142.21 274.64C137.151 271.863 128.136 260.684 125.263 256.897C120.963 251.236 118.94 247.467 113.646 243.464C111.225 241.625 111.496 242.418 110.864 239.75C109.238 232.771 94.1698 231.996 88.4968 233.583C94.4589 230.77 109.725 231.96 112.399 238.974C113.375 241.517 112.526 240.615 115.001 242.346C119.951 245.826 123.745 251.145 127.684 255.725C137.458 245.898 148.642 226.605 157.549 214.361C152.291 218.184 146.311 220.979 139.933 222.548C157.892 214.56 172.96 202.19 170.792 181.256C169.906 172.655 166.528 163.982 160.042 161.728C148.714 157.815 136.194 158.987 125.751 164.992C136.139 157.364 149.545 155.778 161.632 159.69C160.783 158.104 159.536 157.437 157.964 156.805C148.949 153.181 141.614 157.004 133.339 146.816C142.914 155.092 147.214 151.811 156.573 154.533C134.423 136.322 118.56 148.565 100.602 137.818C120.439 146.654 133.267 134.933 153.321 149.701C147.973 144.454 141.234 140.794 133.899 139.189C139.915 139.892 145.624 142.038 150.557 145.41C142.083 124.926 149.473 108.301 123.709 98.8527C130.484 100.115 136.663 103.343 141.505 108.049C139.084 98.1134 134.152 90.3599 124.432 86.1586C130.846 87.4389 136.266 91.514 139.337 97.1037C142.282 89.5305 137.368 84.2113 130.177 82.6606C133.538 82.7688 136.699 84.1031 139.102 86.3209C136.681 74.9071 120.168 76.9807 111.695 78.3511C107.124 82.7147 96.9341 83.6162 98.7046 76.4758C99.1744 74.6366 100.638 73.2662 99.2828 70.237C101.035 72.3466 99.8971 74.3121 99.5538 76.3135C98.4336 83.0212 107.919 80.605 110.918 76.1512C113.845 71.8237 109.689 56.9118 106.455 53.1433C107.738 53.9186 108.768 55.0185 109.454 56.3168C126.311 41.1705 142.517 25.3209 158.018 8.8042C162.481 4.04392 154.64 -3.42106 149.979 1.75394C134.947 18.451 120.421 35.3283 105.715 52.3499C92.1825 40.1066 66.6178 47.6437 71.3874 68.7043C78.9394 67.1175 87.9006 70.4533 95.5791 68.8486C87.3044 71.8418 79.4633 68.4338 70.466 70.3271C60.7821 76.6561 68.569 73.8793 75.9403 74.1858ZM106.763 196.204C110.719 192.399 115.128 189.045 119.897 186.269C115.724 189.785 111.821 193.571 108.19 197.646C122.643 191.786 137.332 201.397 151.84 193.301C146.383 194.779 140.692 195.212 135.055 194.563C138.741 193.012 147.991 183.618 138.56 183.185C133.158 182.933 126.582 183.384 121.216 184.429C116.717 185.295 110.647 191.408 106.763 196.204ZM112.508 85.2751C114.314 88.5388 114.333 92.5598 112.49 95.8775C113.303 93.5154 113.249 90.991 112.417 88.7191C112.797 90.396 112.941 92.668 111.478 95.4628C110.358 97.5545 112.273 98.6183 114.64 99.8985C120.819 103.234 126.311 107.886 130.683 113.404C125.715 109.347 119.969 106.3 113.754 104.478C124.721 109.257 135.633 117.822 139.265 129.578C139.283 123.952 138.018 118.381 135.525 113.314C138.325 116.812 140.15 120.977 140.819 125.413C145.751 111.24 129.093 100.764 117.548 97.8249C124.631 96.13 132.454 98.2937 138.344 102.549C134.604 94.1465 127.07 88.07 118.127 86.1226C115.055 85.4554 113.375 85.185 112.508 85.2751ZM109.436 53.7563C124.739 35.3824 146.98 9.63364 146.98 9.63364C130.972 27.3765 107.865 52.6744 107.865 52.6744C107.612 52.4761 107.413 52.3318 107.07 52.2237C135.832 20.1098 150.232 4.04392 150.232 4.04392C151.027 6.24374 152.815 7.95672 155.055 8.64191C153.484 8.51569 151.984 7.88459 150.792 6.83878C123.221 38.1051 109.436 53.7563 109.436 53.7563ZM81.8301 105.452C79.5898 109.365 76.3016 112.557 72.3088 114.666C67.7018 117.082 77.6205 126.477 87.2863 122.095C82.7154 122.618 78.1806 120.869 75.1634 117.389C76.7172 118.164 78.3974 118.687 80.0957 118.976C85.6603 119.913 79.4634 114.161 81.8301 105.452ZM76.7894 86.6275C77.2592 89.5485 76.5907 94.8858 73.0496 95.3186C71.6765 95.4989 70.3576 96.0038 69.2194 96.7971C69.4362 93.1909 70.3034 89.6567 71.7849 86.357C70.3395 87.9437 69.3459 89.8551 68.8761 91.9467C68.4425 87.2225 70.0505 82.9491 75.2899 82.1377C73.5916 84.9866 72.4714 88.1601 71.9836 91.4599C73.1219 89.4404 74.784 87.7634 76.7894 86.6275ZM70.3757 105.867C69.1291 106.3 67.8282 107.147 66.5635 107.345C69.1652 105.308 71.0622 102.513 71.9836 99.3396C66.2383 104.154 62.2997 109.726 60.1678 116.902C61.4687 116.343 66.3287 114.306 69.9059 111.907C73.5916 109.473 76.2474 103.829 70.3757 105.867ZM128.461 165.731C114.224 167.48 116.446 160.52 101.631 149.791C107.594 156.715 112.869 164.216 117.368 172.15C120.602 169.301 124.378 167.119 128.461 165.731ZM82.083 49.3927C88.2981 46.7421 95.4526 47.5535 100.927 51.5204C94.2602 48.2748 86.4372 48.4551 79.9512 52.0433C83.3116 50.691 86.9611 50.2943 90.5203 50.8893C86.8527 50.8713 82.4083 52.3138 79.373 54.7841C76.3197 57.2724 73.3025 62.5015 78.8129 64.8997C80.9268 65.8193 83.0406 66.4143 84.5944 67.352C80.5654 66.1799 76.3016 65.9996 72.1824 66.8291C71.1887 59.4542 75.2357 52.3319 82.083 49.3927ZM144.884 170.113C151.984 169.211 159.193 170.022 165.914 172.457C153.267 164.721 136.989 166.416 126.203 176.586C137.169 176.009 148.154 178.353 157.928 183.348C157.657 175.648 151.045 171.14 144.884 170.113ZM137.133 236.883C135.471 240.02 127.792 251.722 124.215 247.521C122.047 244.943 119.446 242.761 116.555 241.012C118.669 239.569 120.71 238.019 122.661 236.36C127.323 232.411 135.814 230.5 142.3 226.334C137.729 232.826 131.261 237.748 123.8 240.435C128.479 240.381 133.05 239.155 137.133 236.883ZM103.854 231.491C94.0253 228.714 83.4923 232.122 77.1327 240.092C78.8491 234.286 82.8961 229.436 88.3161 226.713C93.7362 223.99 100.042 223.612 105.751 225.703C100.186 225.18 94.5854 226.172 89.5447 228.57C94.5131 227.398 99.7525 228.462 103.854 231.491ZM90.5745 132.716C106.853 151.612 118.163 143.679 136.374 152.442C117.693 146.51 102.246 151.901 90.5745 132.716ZM158.813 195.933C152.147 201.541 139.211 202.569 119.969 199.035C123.474 200.153 126.997 201 130.43 201.559C124.287 202.028 118.271 203.705 112.743 206.518C126.961 201.559 149.473 205.724 158.813 195.933ZM99.7164 89.224C102.553 85.8341 106.636 83.7244 111.044 83.3638C106.943 84.644 103.113 86.6094 99.7164 89.224ZM115.001 240.164C123.041 231.924 135.886 219.663 146.257 212.324C153.158 207.455 161.162 203.182 165.57 194.509C162.824 202.966 156.049 207.564 148.732 212.504C137.729 219.933 124.848 232.032 115.001 240.164ZM126.058 82.6245C127.377 81.6147 129.581 80.028 131.135 79.7395C129.96 80.2263 128.1 81.6869 126.943 82.8769C130.521 83.472 134.459 87.8716 134.73 90.0354C132.905 85.816 126.618 81.9033 122.354 83.8687C118.705 85.5456 113.845 83.3097 110.34 81.7951C113.917 82.895 118.361 84.9686 121.993 83.2195C122.914 82.7868 124.125 82.336 126.058 82.6245ZM82.1734 95.2645C81.7036 94.2908 81.8662 93.4253 81.3965 92.8302C80.4028 91.568 81.1074 91.0271 80.5112 90.36C79.4453 89.1879 80.8003 86.6455 79.3369 86.5734C76.7352 86.4291 77.3856 83.5621 77.1869 81.4705C77.8193 83.6883 77.0424 85.7259 79.3911 86.0685C81.9566 86.4471 79.5176 88.647 81.2339 90.0534C81.7398 90.4681 81.0713 91.4418 81.9385 92.1811C82.6251 92.7761 82.5709 94.7957 84.2872 96.3644C89.5086 92.3434 95.9585 90.1977 102.589 90.3058C93.0858 91.0091 84.0704 96.3283 79.7886 104.893C77.6025 109.257 73.7181 112.611 68.9484 114.089C72.1462 112.232 75.1996 110.104 77.1327 106.985C78.0541 105.488 78.8852 100.98 79.8428 100.205C81.27 99.1051 80.6196 96.9774 82.1734 95.2645Z" fill="#004F74"/>
<path d="M20.079 215L24.7856 229.594H40.1242L27.7314 238.6L32.4718 253.16L20.079 244.153L7.65237 253.16L12.3928 238.6L0 229.594H15.3386L20.079 215Z" fill="#004F74"/>
<path d="M264.079 215L268.786 229.594H284.124L271.731 238.6L276.472 253.16L264.079 244.153L251.652 253.16L256.393 238.6L244 229.594H259.339L264.079 215Z" fill="#004F74"/>
</svg>
