<svg width="371" height="331" viewBox="0 0 371 331" fill="none" xmlns="http://www.w3.org/2000/svg">
<path fill-rule="evenodd" clip-rule="evenodd" d="M36.1313 118.936C28.3152 127.52 21.9524 131.998 17.0467 132.376C14.7451 132.553 12.8519 133.266 11.0137 133.805C0.346127 136.934 -2.34431 126.055 1.9565 120.742C4.53307 117.558 2.9188 113.319 8.30759 109.293C14.2738 104.838 22.2509 100.19 23.9594 93.2866C30.0473 91.9288 36.4612 93.3181 41.4651 97.1436C36.7912 92.4207 30.1612 90.3151 23.7198 91.3738C20.8369 75.446 23.6413 66.689 31.0057 61.4978C37.7259 56.767 47.8948 60.4587 53.7156 65.1777C49.513 60.8366 43.861 58.3098 37.942 58.0107C42.0543 56.523 46.9246 55.4997 52.4666 54.6693C54.0848 58.975 56.0565 60.195 60.3455 59.9746C81.1701 58.8963 93.6012 54.3348 97.6468 46.2901C92.7136 53.524 80.2628 57.4282 60.2984 57.9989C55.919 58.1249 55.7658 56.5191 54.5443 52.1465C53.3385 47.8329 53.0911 43.3029 53.8177 38.8713C54.8743 32.4443 47.6944 22.4908 57.7532 21.9871C67.0815 21.5187 75.8638 21.7194 85.1646 22.7034C89.8542 23.1993 92.1205 27.2058 93.7701 31.2754C95.0624 34.4594 92.0891 38.4856 90.4512 41.2249C92.6782 38.4581 96.2917 34.6837 94.9288 31.0628L94.8974 30.9841C95.5533 30.3898 96.3703 29.646 97.0223 29.0163C99.1 29.5633 100.644 27.989 100.494 25.9857C100.113 28.6502 97.2579 29.6893 95.569 26.4738C94.9406 27.0169 94.2965 27.5364 93.6327 28.0402C91.9359 24.6122 89.5557 21.9398 85.3217 21.3849C75.526 20.1058 66.2645 19.8027 56.3511 20.338C57.2741 18.5945 58.1578 16.8352 59.0022 15.0523C65.9896 0.313035 81.229 -4.33111 95.1291 4.38651C106.378 11.4393 109.52 24.5768 104.556 43.8028C103.703 47.1048 100.557 48.9625 97.2775 49.2419C100.942 49.8441 104.583 48.1635 106.523 45.0425C114.013 44.3734 123.903 45.6093 125.592 54.2167C126.731 60.0101 126.087 66.0475 123.703 71.5102C126.991 66.3348 128.133 60.1793 127.069 54.2993C129.17 58.1524 130.502 63.0366 131.574 68.6923C132.827 75.3003 128.2 82.3728 123.644 86.8281C128.833 83.2741 132.776 77.524 134.3 71.3568C142.285 71.2741 149.759 71.8684 157.552 76.8235C155.337 77.9137 154.802 78.8189 152.45 78.752C147.682 78.6221 146.001 81.1803 146.295 85.3325C146.452 87.5286 147.815 88.3512 149.166 88.2213C152.175 87.9261 151.774 83.5142 156.252 82.3256C151.169 82.853 151.743 87.3082 149.143 87.4735C148.133 87.5365 147.14 86.8556 147.073 85.1751C146.927 81.503 148.283 79.5509 152.43 79.7359C155.486 79.8737 155.498 78.87 158.223 77.8861C159.74 77.3391 161.432 77.4453 162.245 78.996C163.2 80.8222 163.663 82.731 163.754 84.7225C163.871 87.2335 160.238 87.6152 159.484 85.2144C159.064 83.8763 158.4 82.6247 157.52 81.5227C158.208 82.6916 158.695 83.9668 158.966 85.2932C159.641 88.6424 164.924 88.4457 164.708 84.7303C164.567 82.2981 163.93 79.9209 162.842 77.7405C168.058 75.6231 173.031 78.8346 172.666 84.1203C172.493 86.5998 169.806 86.6195 169.245 84.5414C168.648 82.3335 166.857 80.9481 164.547 81.2315C166.684 81.5227 167.736 82.4279 168.322 84.6201C169.323 88.3709 173.655 88.0009 174.044 84.2856C174.358 81.322 173.043 78.4214 170.666 76.6975C173.506 76.2764 176.043 78.6103 178.278 83.6992C177.108 83.4512 175.914 83.3017 174.712 83.2426C183.875 85.8441 191.287 92.0941 194.621 101.174C196.416 106.058 195.517 109.974 190.313 112.831C173.502 122.069 152.348 114.658 144.956 96.9153C143.569 93.5897 143.255 90.5395 145.898 87.6388C143.503 89.3942 142.568 92.2987 143.051 95.1325C139.803 93.7235 138.243 95.8291 134.092 92.9245C131.256 90.9409 128.259 91.7871 124.547 91.976C122.085 85.6198 116.704 81.2472 109.858 80.3932C117.269 82.0383 128.047 94.1131 118.416 100.095C111.995 104.082 106.296 109.148 101.916 115.335C106.814 110.049 112.442 105.57 118.868 102.457C118.872 104.85 119.528 107.888 116.602 111.281C106.083 123.458 92.419 132.498 77.0971 137.406C92.1794 134.155 106.61 125.78 117.533 114.547C117.065 124.879 112.533 134.6 104.929 141.59C111.728 136.772 116.511 129.759 118.593 121.872C119.567 127.571 120.643 133.112 120.345 139.846C136.723 142.015 139.752 168.703 132.481 182.62C127.953 180.79 124.331 177.527 121.264 173.658C123.448 177.975 126.814 181.577 130.961 184.036C152.226 196.639 148.683 222.433 159.775 238.475C154.143 236.964 148.082 239.266 144.901 244.316C149.276 239.207 157.552 237.499 163.306 242.458C170.05 248.271 167.823 254.785 175.25 259.764C179.527 262.629 177.312 262.42 179.339 266.242C182.96 273.066 173.255 275.924 167.159 277.872C156.13 281.394 157.19 270.178 154.912 265.876C153.169 262.586 151.389 259.894 148.294 257.894C147.375 257.304 146.668 256.418 146.295 255.364C146.472 256.591 147.167 257.575 148.086 258.363C150.769 260.669 151.641 261.779 153.707 266.132C156.177 271.335 154.818 282.76 167.41 280.316C170.336 283.465 173.027 286.338 176.417 288.923C181.507 292.804 176.432 301.766 168.785 301.655C175.113 303.104 180.871 297.708 179.955 291.336C180.026 291.379 180.093 291.419 180.164 291.462C191.118 298.035 188.259 307.976 196.228 318.418C198.973 322.011 198.816 328.584 193.71 329.662C187.336 331.004 174.221 332.779 174.26 326.88C174.296 321.759 175.093 318.182 172.925 312.809C168.946 302.946 162.112 297.767 154.437 292.8C158.974 291.194 162.458 287.18 163.192 282.126C161.908 286.845 155.537 293.493 150.435 290.25C142.788 285.393 134.673 280.021 127.902 270.087C126.661 268.269 125.321 266.368 123.632 264.313C128.569 266.655 134.092 267.651 139.626 267.123C129.736 266.565 122.293 262.688 115.51 255.757C101.971 241.923 90.9815 228.565 82.537 215.684C88.2282 220.261 94.8816 223.61 102.085 225.432C85.7615 218.915 77.6548 209.792 70.691 194.368C67.2268 186.693 64.4971 180.097 62.2858 173.811C71.4726 168.569 81.4333 164.775 91.8063 162.583C81.1544 163.878 71.0681 166.952 61.4767 171.47C61.8223 163.472 66.2056 156.203 73.1105 152.177C66.5199 154.896 61.7752 160.591 60.1491 167.325C56.7006 153.771 71.4766 142.397 83.2204 140.334C71.4962 141.409 60.4751 150.138 57.8553 159.745C54.9921 149.859 51.7321 136.032 55.4752 130.491C63.9668 117.912 77.8944 108.955 92.8393 106.424C76.4962 108.002 61.8655 116.806 52.7729 130.188C55.4673 123.379 59.5129 117.188 64.6699 111.997C59.1437 116.145 54.7878 121.592 51.9442 127.795C50.5617 124.308 48.6253 121.12 47.1092 116.83C50.9465 111.749 55.9151 112.123 60.699 108.423C63.629 106.156 65.2394 104.85 68.8411 104.834C77.3249 104.799 76.6886 96.4981 69.8505 96.0888C68.4876 96.0062 67.1208 96.1243 65.7932 96.4312C59.3086 97.9347 71.182 81.2748 74.2652 76.5716C76.7907 72.7225 73.2401 69.8966 70.3611 73.6513C69.6306 74.5998 68.3973 76.2095 66.6534 78.4843C68.0398 77.0399 69.4302 75.5955 70.8246 74.1551C73.409 71.4788 75.2079 73.1751 73.3658 75.8513C70.0862 80.6096 55.9779 99.139 65.9935 97.8835C67.2779 97.7222 68.5662 97.5647 69.8584 97.6356C74.6659 97.9032 74.9605 103.425 68.9825 103.272C64.8624 103.161 62.8985 104.385 59.6346 106.975C55.1295 110.549 50.9976 109.533 46.0055 114.083C44.9568 115.039 44.9922 115.366 43.6411 115.039C40.1179 114.181 37.1721 111.718 35.711 108.349C36.7283 112.17 39.678 115.122 43.4093 116.177C41.1745 117.704 38.4526 118.77 36.5673 116.629C33.6372 113.304 29.1322 105.33 33.2602 102.953C35.9546 101.402 38.7982 100.123 41.7479 99.1429C38.6882 99.7254 35.7307 100.725 32.9499 102.114C32.1015 102.539 31.4888 103.122 31.0685 103.819C23.4802 104.598 15.9862 108.057 10.3303 113.17C16.3397 109.033 23.2406 106.393 30.4636 105.452C29.631 109.742 33.3034 116.252 36.1313 118.936ZM58.7312 35.9313C58.9944 34.3885 58.9983 32.8064 58.7391 31.2596C59.2929 32.8457 59.4932 34.5302 59.3243 36.2029C59.5246 35.5299 59.6581 34.8332 59.7171 34.1327C60.3298 37.1435 63.5583 36.1832 64.5835 34.4082C62.1365 34.4436 61.8145 32.7158 60.6087 32.5348C62.6157 28.1937 64.9095 30.6653 67.4114 28.8234C67.6275 31.9326 66.4177 33.3377 65.5615 34.6758C64.2967 36.6476 65.7107 36.7263 67.5214 36.683C69.1906 36.6437 69.2378 34.0225 68.9943 32.6765C69.3988 33.9162 69.5009 35.2308 69.2888 36.5099C69.8112 34.9041 69.6463 33.621 69.3596 32.5899C69.0532 31.4879 68.0438 29.4689 69.9566 29.0281C67.596 27.438 62.4468 27.9418 60.4241 30.504C60.2277 29.7365 60.3651 28.9494 60.754 28.3078C58.8569 28.4062 57.6511 28.6935 58.2796 31.5784C58.5938 33.0071 58.7469 34.4672 58.7312 35.9313ZM71.1034 36.8601C71.5983 35.4866 71.5237 33.9713 70.9032 32.6489C72.3917 33.2117 74.0021 33.3849 75.5771 33.1448C74.9565 33.6171 74.2024 33.8847 73.4208 33.9123C75.6595 34.3728 77.9573 34.479 80.2314 34.2272C78.3697 38.2849 74.5676 36.746 71.1034 36.8601ZM82.3288 52.6306C77.8944 53.827 73.248 54.4371 68.6408 54.7638C68.6329 51.5522 68.7586 48.3446 69.0178 45.1448C73.1184 45.0032 77.2228 44.9559 81.3272 44.9953L80.6988 51.3908C81.9792 42.7795 83.2596 34.172 84.5401 25.5607C87.855 26.0605 88.9823 27.8513 90.6044 30.7204C92.5211 34.1091 90.5494 37.4387 88.7898 40.7093C90.8636 37.8952 93.5502 34.3059 91.3349 30.1222C89.3554 26.3793 88.994 24.8208 84.4576 24.2422C75.4239 23.0891 66.783 23.2465 57.7336 23.9116C53.7038 24.2068 53.8413 27.3278 54.7878 30.992C56.9166 39.2491 53.7038 42.7165 56.791 52.9297C57.7925 56.2436 58.7901 56.2515 62.1326 56.1137C73.9628 55.6296 87.8786 54.689 96.4724 45.6604C92.7215 48.7342 88.4324 50.7926 83.8802 52.1819L84.4733 45.0465C85.6987 45.074 86.9281 45.1094 88.1535 45.1527C86.9792 44.9913 85.7577 44.8536 84.4969 44.7395L84.6383 43.0235C85.8087 43.051 86.9792 43.0825 88.1535 43.1258C87.0302 42.9684 85.8637 42.8385 84.6657 42.7283L84.7954 41.1816C85.9148 41.2091 87.0341 41.2406 88.1575 41.28C87.0813 41.1304 85.9697 41.0045 84.8189 40.8982L84.9564 39.2334C86.0247 39.3003 87.0891 39.3751 88.1535 39.4577C87.0931 39.3042 86.0326 39.1625 84.9721 39.0287L85.9501 27.2531C84.7443 35.7149 83.5346 44.1727 82.3288 52.6306ZM34.7566 103.96C33.3191 108.156 34.9727 112.792 38.7354 115.13C35.6325 112.304 34.14 108.112 34.7566 103.96ZM43.967 112.875C39.5052 111.533 36.7951 107.003 37.722 102.425C37.887 106.751 40.2397 110.69 43.967 112.875ZM137.894 83.0734C136.095 84.4981 133.825 85.3128 131.401 85.2695C135.596 84.6241 140.572 80.5388 140.282 76.0048C143.986 77.5949 148.141 77.768 151.967 76.5007C148.377 74.2928 144.284 73.1003 140.117 73.0137C142.689 73.2184 145.215 73.9268 147.544 75.1114C143.99 73.7182 140.125 73.301 136.354 73.9071C137.788 73.8441 139.221 73.9897 140.612 74.3479C136.028 74.4384 135.027 76.2882 132.858 79.728C131.405 82.0383 129.642 84.1518 127.607 86.0016C130.683 86.958 134.033 86.3361 136.566 84.3407C137.053 83.9589 137.497 83.5339 137.894 83.0734ZM22.6986 118.503C25.2202 117.212 27.4197 115.366 29.1243 113.099C26.9641 116.673 23.8808 119.597 20.2045 121.565C22.3844 120.837 24.4268 119.778 26.261 118.44C21.9367 122.431 16.9642 125.682 11.5479 128.043C13.2604 121.486 17.9814 116.133 24.2657 113.63C17.1841 115.173 11.273 119.841 8.07976 126.193C2.80094 136.698 -1.22494 126.173 5.96273 118.802C9.01454 115.673 12.5377 113.079 16.3868 111.104C13.5903 113.193 11.1669 115.783 9.25806 118.774C11.8935 115.512 14.8943 112.816 18.2878 110.812C30.2594 103.752 29.0615 114.063 22.6986 118.503ZM27.2587 100.89C25.0238 101.398 22.8596 102.205 20.8329 103.303C23.0992 102.441 25.4755 101.886 27.8871 101.658C23.0011 102.701 18.4135 104.826 14.4505 107.872C18.2367 105.487 22.4472 103.874 26.8384 103.118C21.4928 104.649 16.4536 107.129 11.976 110.454C14.9846 104.712 19.5447 103.374 23.1582 98.525C24.851 96.2502 28.0128 95.6559 30.715 96.0731C29.1832 95.5654 27.5729 95.345 25.9625 95.4198C28.0992 95.1521 30.2673 95.282 32.3568 95.8015C30.6954 95.16 28.9436 94.7822 27.1762 94.6838C29.9766 94.5263 32.781 95.0734 35.3301 96.2895C30.715 97.2617 32.3333 99.7451 27.2587 100.89ZM194.582 328.308C188.643 325.907 181.978 326.088 176.177 328.804C182.167 327.041 188.51 326.868 194.582 328.308ZM158.538 274.224C162.725 267.702 170.847 264.939 178.133 267.56C170.914 266.521 163.636 268.997 158.538 274.224ZM44.9058 106.967C43.6018 101.922 46.0055 97.8678 52.117 94.8097C52.1523 98.3401 50.0314 101.536 46.7675 102.87C49.454 102.382 51.7203 100.572 52.7887 98.0528C51.6378 103.889 46.3669 103.858 44.9058 106.967ZM83.3971 69.0032C89.2454 71.0498 95.6947 68.401 98.4284 62.832C94.9131 67.4801 89.1551 69.8415 83.3971 69.0032ZM81.7475 57.7234C78.0515 62.2101 71.6219 63.2885 66.6691 60.2462C68.849 62.3125 71.8732 63.2374 74.8347 62.7415C77.7923 62.2416 80.3532 60.3879 81.7475 57.7234ZM100.435 25.478C101.111 24.7342 101.763 23.9785 102.38 23.2189C103.597 21.7273 101.936 19.6414 100.353 21.5699C98.99 23.2347 97.4936 24.624 95.9578 26.1196L99.2924 23.7188C99.8973 24.2658 100.318 24.8523 100.435 25.478ZM69.0807 44.3577C69.1161 43.9444 69.1553 43.5312 69.1946 43.114C73.3029 42.9763 77.4113 42.929 81.5197 42.9763L81.3704 44.5151C77.4702 44.2908 73.299 44.2554 69.0807 44.3577ZM69.2732 42.3269C69.3124 41.9727 69.3478 41.6184 69.391 41.2642C73.4915 41.1265 77.5959 41.0832 81.7004 41.1343L81.5668 42.504C77.6705 42.2678 73.4993 42.2285 69.2732 42.3269ZM69.4852 40.4731L69.5285 40.1229C69.5913 39.6073 69.5206 39.1704 69.3556 38.8162C73.5386 38.7808 77.7216 38.8634 81.9007 39.0681L81.7436 40.666C77.863 40.4259 73.6996 40.3826 69.4852 40.4731ZM56.9716 37.9622C57.0187 35.6637 56.8774 33.2826 56.0486 30.4331C55.377 28.1189 55.0667 25.7535 57.8357 25.478C66.4256 24.6201 74.6619 24.4666 83.2361 25.4111L81.9321 38.6863C73.5897 37.7969 65.3533 37.5607 56.9716 37.9622ZM66.3195 38.8595C66.2253 39.0799 66.1585 39.3357 66.1231 39.627C66.0878 39.9418 66.0524 40.2567 66.0171 40.5755C64.4342 40.6345 62.8475 40.7132 61.2803 40.8037C61.2803 40.5125 61.2842 40.2213 61.2842 39.93C61.2881 39.5955 61.2371 39.2964 61.1467 39.0366C62.871 38.9579 64.5953 38.8989 66.3195 38.8595ZM65.9386 41.398C65.9071 41.7404 65.8757 42.0868 65.8521 42.4331C64.3282 42.4922 62.8042 42.5669 61.2921 42.6535C61.2881 42.319 61.2842 41.9845 61.2842 41.6539C62.8317 41.5515 64.3871 41.4689 65.9386 41.398ZM65.7932 43.2518C65.7657 43.6571 65.7461 44.0586 65.7264 44.464C64.2575 44.523 62.7924 44.5938 61.3353 44.6765C61.3235 44.2829 61.3117 43.8893 61.3039 43.4958C62.8003 43.4013 64.2968 43.3187 65.7932 43.2518ZM65.6911 45.2826C65.6008 47.9668 65.6911 50.6588 66.0014 53.3154C65.8325 48.7657 66.1113 44.216 66.834 39.7214C67.0422 38.4226 68.8764 38.336 68.6054 39.9654C67.7845 44.8772 67.4154 49.8559 67.5096 54.8385C65.699 54.9487 63.9 55.0235 62.1208 55.0747C61.7359 51.8986 61.4845 48.7106 61.3628 45.5148C62.8082 45.4282 64.2496 45.3495 65.6911 45.2826ZM57.9143 39.2137C57.875 39.4026 57.8514 39.6073 57.8514 39.8316C57.8514 40.2291 57.8514 40.6266 57.8593 41.0241C57.5176 41.0478 57.1798 41.0714 56.8381 41.0989C56.8695 40.4889 56.9048 39.8828 56.9323 39.2767C57.2544 39.2531 57.5843 39.2334 57.9143 39.2137ZM57.8711 41.8861C57.8789 42.2127 57.8907 42.5394 57.9025 42.8661C57.5176 42.8936 57.1366 42.9212 56.7595 42.9487C56.7674 42.6181 56.7792 42.2914 56.7949 41.9687C57.1523 41.9412 57.5136 41.9136 57.8711 41.8861ZM57.9418 43.728C57.9614 44.1137 57.985 44.4994 58.0125 44.889C57.5922 44.9166 57.168 44.9481 56.7517 44.9795C56.7399 44.586 56.7399 44.2003 56.7399 43.8224C57.1444 43.787 57.5451 43.7555 57.9418 43.728ZM58.0832 45.7431C58.3031 48.3367 58.688 50.9146 59.2811 53.4453C58.5977 48.9468 58.362 44.3892 58.5663 39.8474C58.6095 38.8516 60.4201 38.5997 60.3533 39.8907C60.0902 44.9677 60.3023 50.0566 60.9896 55.0904C59.3007 55.0471 58.5387 54.6221 57.9457 52.5637C57.2073 50.0055 56.8931 47.8251 56.787 45.8454C57.2191 45.806 57.6511 45.7746 58.0832 45.7431ZM92.2501 72.565C83.4443 70.5145 75.1097 66.7834 67.7139 61.5765C74.8701 67.9996 83.4286 72.6595 92.7018 75.1783C104.033 64.5243 105.801 56.3577 98.0042 50.6785C103.499 57.0307 101.582 64.3275 92.2501 72.565ZM69.2378 71.6874C68.0516 73.9071 67.4625 75.017 67.4625 75.017C68.519 73.6001 69.2653 72.5965 69.7091 72.0061C71.5473 69.5385 67.4782 65.6263 64.937 70.3217C63.688 72.628 62.4782 74.6273 60.9582 76.7526C56.2411 83.345 51.2058 89.8035 45.6167 95.6716C40.6285 100.906 39.8116 108.325 47.227 111.214C41.0409 108.053 41.6222 101.548 46.3786 97.0216C52.3605 91.3266 57.9457 83.219 62.4547 76.6385C64.6935 73.3718 67.0697 75.3318 65.3769 78.1144C63.3895 81.381 61.457 84.6831 59.5875 88.0206C61.7634 84.8445 63.9393 81.6723 66.1231 78.5001C67.867 75.9655 66.2959 73.2538 63.9943 73.9583L65.9268 70.3689C67.6117 67.24 70.3375 69.6329 69.2378 71.6874ZM146.044 253.817C138.2 245.013 140.926 239.518 129.512 229.407C123.405 224 119.658 218.702 116.464 213.621C117.615 218.69 117.855 223.949 117.14 229.152C117.332 220.54 114.913 210.398 109.944 203.27C107.486 199.74 104.63 196.375 100.636 193.215C92.0537 186.429 88.7898 182.198 90.3923 174.299C86.2565 178.818 81.0444 182.238 75.2197 184.221C82.4702 180.593 89.7796 174.134 92.9453 166.483C97.3404 155.861 105.663 147.206 116.295 143.66C112.772 145.301 109.532 147.399 106.641 149.874C112.156 147.623 118.475 148.135 123.601 151.37C110.204 145.958 100.997 153.078 95.8989 163.901C100.129 159.458 106.386 157.34 112.599 158.498C102.729 157.632 94.7285 164.059 92.5722 173.386C90.8833 180.687 93.1024 184.277 101.319 190.334C114.944 200.378 115.53 211.842 127.639 224.019C133.597 230.01 144.634 225.865 150.792 221.898C145.894 226.656 139.206 229.037 132.458 228.483C139.975 235.48 144.645 243.19 146.044 253.817ZM59.4421 89.2525C56.9049 91.1967 54.2183 92.4325 51.2058 93.5267C54.3008 92.708 57.2623 91.4486 59.9999 89.7917C62.8239 88.0796 63.2049 90.8583 61.1507 92.7199C60.0666 93.6998 59.0611 94.6405 57.8043 95.3804C52.494 98.4896 57.2819 102.248 51.029 106.951C57.765 103.252 53.6763 98.9225 58.2285 96.2345C59.5089 95.4788 60.6401 94.5775 61.7988 93.5621C64.8506 90.8779 62.9653 86.5486 59.4421 89.2525ZM146.122 92.9403C156.091 102.264 168.168 109.529 182.999 110.387C175.749 109.222 168.769 106.841 162.344 103.366C171.833 107.66 182.284 109.687 192.866 109.151C176.13 107.975 160.007 102.382 146.122 92.9403Z" fill="#002868"/>
<path d="M42.079 274L46.7856 288.594H62.1242L49.7314 297.6L54.4718 312.16L42.079 303.153L29.6524 312.16L34.3928 297.6L22 288.594H37.3386L42.079 274Z" fill="#002868"/>
<path d="M223.079 199L227.786 213.594H243.124L230.731 222.6L235.472 237.16L223.079 228.153L210.652 237.16L215.393 222.6L203 213.594H218.339L223.079 199Z" fill="#002868"/>
<path d="M217.309 153.375L215.263 51.0061L215.199 47.9086L215.175 46.8921V46.748L214.117 46.7721L210.319 46.8441L210.335 47.6845L210.343 48.0047L210.398 51.1021L212.476 154.752L217.309 153.375Z" fill="white"/>
<path d="M213.344 154.504L211.266 51.0859L211.202 47.7003L214.323 47.6362L216.449 153.623L218.177 153.127L216.131 50.9898L216.067 47.8843L216.035 45.8594L209.427 45.9874L209.531 51.1259L211.609 155L213.344 154.504Z" fill="#002868"/>
<path d="M217.309 153.376L215.255 51.0065C216.187 50.4463 216.935 49.5738 217.333 48.4773C217.524 47.9411 217.62 47.3888 217.628 46.8525L215.43 46.8925L215.175 46.9006L214.053 46.9246L213.201 46.9406L213.217 47.869L213.249 49.4618L213.296 51.6869L215.343 153.944L217.309 153.376Z" fill="#002868"/>
<path d="M217.628 46.8444C217.628 47.3886 217.532 47.9329 217.333 48.4691C216.935 49.5737 216.187 50.4381 215.255 50.9984C214.658 51.3585 213.989 51.5906 213.289 51.6707C212.564 51.7507 211.808 51.6787 211.067 51.4066C210.828 51.3185 210.605 51.2145 210.39 51.0944C208.305 49.9499 207.309 47.4207 208.145 45.1075C209.069 42.5543 211.871 41.2417 214.403 42.1701C216.417 42.9145 217.651 44.8194 217.628 46.8444Z" fill="white"/>
<path d="M213.909 52.4627C213.742 52.4947 213.567 52.5267 213.4 52.5427C212.508 52.6468 211.632 52.5427 210.788 52.2306C210.51 52.1265 210.239 52.0065 209.984 51.8624C207.516 50.5098 206.378 47.4843 207.341 44.811C207.867 43.3543 208.925 42.1938 210.311 41.5454C211.704 40.8891 213.265 40.8251 214.714 41.3534C217.006 42.1938 218.527 44.4028 218.503 46.844C218.503 47.4923 218.384 48.1326 218.161 48.7649C217.707 50.0135 216.839 51.07 215.717 51.7504C215.159 52.0865 214.546 52.3346 213.909 52.4627ZM211.935 42.8421C211.632 42.9061 211.338 43.0021 211.043 43.1382C210.072 43.5944 209.331 44.4028 208.965 45.4193C208.296 47.2762 209.085 49.3972 210.812 50.3417C210.995 50.4457 211.179 50.5258 211.37 50.5978C211.959 50.8139 212.572 50.886 213.193 50.8139C213.758 50.7499 214.315 50.5578 214.809 50.2616C215.605 49.7814 216.194 49.0611 216.521 48.1806C216.68 47.7404 216.76 47.2922 216.76 46.852V46.844C216.776 45.1392 215.717 43.5944 214.116 43.0102C213.408 42.738 212.652 42.69 211.935 42.8421Z" fill="#002868"/>
<path d="M215.271 47.7159C214.761 49.1165 213.217 49.8449 211.824 49.3327C210.972 49.0205 210.375 48.3242 210.152 47.5078C210.398 47.7639 210.701 47.972 211.059 48.1001C212.317 48.5563 213.702 47.908 214.164 46.6433C214.467 45.8109 214.284 44.9225 213.766 44.2822C215.096 44.8345 215.773 46.3472 215.271 47.7159Z" fill="#002868"/>
<path d="M328.453 91.465C328.453 91.465 333.533 98.2282 345.825 103.671L352.107 90.4725L340.372 88.9678L328.453 91.465Z" fill="#BC2030"/>
<path d="M339.544 100.621C337.928 95.4344 340.467 92.7852 339.369 89.6156C339.369 89.6156 336.057 87.8228 332.832 85.5817C329.6 83.3406 333.557 96.3549 333.557 96.3549L339.544 100.621Z" fill="white"/>
<path d="M340.005 101.253L333.35 96.515L333.326 96.435C332.816 94.7462 330.332 86.2861 331.789 85.2136C332.092 84.9895 332.498 85.0455 332.983 85.3817C336.168 87.5907 339.464 89.3836 339.496 89.3996L339.583 89.4476L339.615 89.5356C340.125 91.0163 339.878 92.401 339.607 93.8657C339.281 95.6746 338.907 97.7316 339.79 100.541L340.005 101.253ZM333.772 96.2109L339.114 100.013C338.453 97.4355 338.803 95.5065 339.114 93.7857C339.369 92.353 339.599 91.1204 339.169 89.7998C338.628 89.5036 335.611 87.8228 332.697 85.7978C332.529 85.6858 332.235 85.5097 332.084 85.6218C331.224 86.2461 332.545 92.1609 333.772 96.2109Z" fill="white"/>
<path d="M346.247 104.807L345.475 104.463C333.119 98.9883 327.968 92.2651 327.753 91.985L326.925 90.8804L340.332 88.0791L353.405 89.7519L346.247 104.807ZM330.085 92.009C331.988 94.042 336.853 98.5881 345.411 102.518L350.801 91.1846L340.412 89.856L330.085 92.009Z" fill="#002868"/>
<path d="M369.726 84.87C367.051 86.0706 363.516 91.6573 361.008 95.4751C358.5 99.293 353.062 104.303 348.986 104.439C347.473 104.487 346.47 104.199 345.817 103.671C342.513 101.006 348.27 92.3056 342.521 91.161C339.185 90.4967 336.056 92.7698 333.039 95.9473C328.334 100.91 323.915 108.073 319.456 109.706C312.14 112.387 304.624 106.913 297.403 109.442C289.075 112.363 284.983 134.23 276.925 133.701C275.19 133.589 274.123 132.773 273.613 131.548C272.953 129.964 273.231 127.691 274.171 125.369C274.171 125.369 274.171 125.361 274.179 125.353C274.187 125.337 274.195 125.313 274.203 125.289C276.511 118.822 277.037 114.132 271.727 113.532C271.225 113.476 270.676 113.492 270.102 113.58C267.308 107.913 263.669 101.462 261.074 96.9718C259.115 93.5942 257.746 91.3211 257.746 91.3211L250.883 62.1391C251.608 61.971 252.436 61.5548 253.303 60.9465C254.967 59.7779 256.759 57.881 258.16 55.5759C260.286 52.0702 262.547 48.8527 265.612 48.9808C268.685 49.1008 271.607 52.9987 271.607 52.9987C279.481 52.6305 279.497 47.7802 287.682 47.6761C292.244 47.6201 297.936 54.2953 302.108 58.5053C305.102 57.9451 310.619 54.8716 312.235 52.8786C314.775 57.1927 322.888 68.7663 336.454 71.7997C350.013 74.8332 366.693 80.0197 369.726 84.87Z" fill="#BC2030"/>
<path d="M256.639 65.3888C259.426 64.5483 260.756 61.1387 262.34 58.6015C263.431 56.8566 264.872 53.5911 267.157 52.8307C268.192 52.4865 269.959 52.6706 272.579 54.5275L274.473 57.4409C274.473 57.4409 272.395 55.8802 270.238 56.4645C268.072 57.0487 266.384 60.2263 265.166 62.6274C263.948 65.0286 262.006 69.0065 258.51 70.8234L256.639 65.3888Z" fill="white"/>
<path d="M258.359 71.1686L256.313 65.2217L256.56 65.1496C258.678 64.5093 259.936 62.2763 261.154 60.1232C261.464 59.571 261.791 58.9947 262.117 58.4664C262.316 58.1463 262.531 57.7701 262.754 57.3699C263.805 55.529 265.111 53.2399 267.061 52.5916C268.056 52.2635 269.84 52.2955 272.706 54.3204L272.746 54.3444L275.429 58.4744L274.306 57.634C274.29 57.618 272.3 56.1613 270.278 56.6976C268.295 57.2258 266.703 60.0912 265.365 62.7325L265.278 62.9086C264.084 65.2697 262.085 69.2236 258.606 71.0325L258.359 71.1686ZM256.958 65.5418L258.646 70.4562C261.822 68.6713 263.638 65.0776 264.856 62.6845L264.943 62.5004C266.329 59.7631 267.993 56.7936 270.174 56.2094C271.536 55.8412 272.849 56.2734 273.693 56.6816L272.403 54.6966C269.593 52.7117 267.961 52.8157 267.236 53.0558C265.469 53.6401 264.211 55.8412 263.208 57.61C262.977 58.0102 262.762 58.3944 262.555 58.7226C262.228 59.2428 261.926 59.7791 261.599 60.3553C260.373 62.5244 259.115 64.7655 256.958 65.5418Z" fill="white"/>
<path d="M273.16 56.6176C275.015 58.4424 279.251 59.7871 283.542 58.7626C287.833 57.7381 291.846 52.9118 299.489 55.8332L296.527 52.8958C296.527 52.8958 295.174 51.399 291.917 51.5351C289.003 51.6552 285.015 53.0478 283.327 53.9202C278.892 56.2173 274.052 58.0822 270.907 53.7442L273.16 56.6176Z" fill="white"/>
<path d="M300.508 56.4817L299.401 56.0575C294.091 54.0245 290.548 55.8173 287.435 57.4021C286.121 58.0664 284.879 58.6987 283.605 59.0029C279.235 60.0514 274.872 58.6427 272.993 56.7938L272.969 56.7698L271.098 54.3927C270.962 54.2326 270.827 54.0645 270.7 53.8884L271.098 53.5843L271.48 54.0645C274.585 57.7063 279.155 55.7933 283.215 53.6883C285.015 52.7519 289.043 51.3992 291.909 51.2792C295.245 51.1431 296.655 52.6558 296.718 52.7198L300.508 56.4817ZM273.343 56.4496C275.142 58.2025 279.29 59.5231 283.486 58.5146C284.712 58.2185 285.922 57.6102 287.212 56.9539C290.214 55.4332 293.597 53.7203 298.541 55.2331L296.352 53.064C296.328 53.04 295.014 51.6473 291.925 51.7754C289.131 51.8874 285.198 53.2161 283.438 54.1285C279.696 56.0655 275.907 57.5142 272.913 55.8894L273.343 56.4496Z" fill="white"/>
<path d="M266.345 90.7446C270.206 87.5671 274.402 75.5933 279.975 73.4083C283.772 71.9196 285.325 71.9516 291.79 73.3602C297.236 74.5448 302.22 75.0891 305.794 71.1192C309.186 67.3494 312.777 70.4228 312.777 70.4228L308.199 66.581C308.199 66.581 305.81 65.8927 303.78 66.685C301.511 67.5735 299.799 71.7755 291.654 70.2468C285.293 69.0542 282.212 67.8136 278.247 69.2383C272.18 71.4233 268.996 82.6607 264.856 85.5821C265.389 88.9838 266.345 90.7446 266.345 90.7446Z" fill="white"/>
<path d="M266.273 91.1292L266.13 90.865C266.09 90.793 265.15 89.0322 264.617 85.6145L264.593 85.4624L264.72 85.3744C266.4 84.1898 267.953 81.5406 269.601 78.7392C271.918 74.7853 274.545 70.3032 278.176 68.9985C281.392 67.838 284.091 68.4142 288.175 69.2787C289.226 69.5028 290.413 69.7509 291.71 69.999C297.658 71.1196 300.102 69.1266 301.885 67.6699C302.53 67.1496 303.079 66.6934 303.7 66.4533C305.786 65.6369 308.175 66.3172 308.278 66.3413L308.326 66.3573L312.944 70.2311L312.625 70.6153L312.602 70.5993C312.291 70.3432 309.083 67.846 305.985 71.2876C302.22 75.4656 296.885 74.7293 291.742 73.6087C285.198 72.1841 283.781 72.1921 280.07 73.6408C276.83 74.9134 273.996 79.6997 271.488 83.9177C269.744 86.8471 268.104 89.6244 266.504 90.9371L266.273 91.1292ZM265.126 85.6865C265.532 88.1597 266.154 89.7365 266.424 90.3368C267.881 89.0001 269.426 86.3989 271.058 83.6616C273.606 79.3715 276.488 74.5052 279.887 73.1685C283.677 71.6798 285.245 71.6718 291.846 73.1125C296.846 74.201 302.029 74.9294 305.611 70.9435C307.522 68.8144 309.512 68.7824 310.938 69.1986L308.079 66.7975C307.737 66.7094 305.643 66.2132 303.868 66.9095C303.326 67.1256 302.801 67.5498 302.188 68.0461C300.333 69.5588 297.785 71.6398 291.607 70.4792C290.293 70.2311 289.107 69.983 288.056 69.7589C283.908 68.8785 281.408 68.3502 278.327 69.4627C274.871 70.7033 272.292 75.1055 270.015 78.9873C268.383 81.7727 266.838 84.4059 265.126 85.6865Z" fill="white"/>
<path d="M276.464 61.2429C275.564 60.7627 274.673 60.3145 272.905 60.9868C270.891 61.7552 268.781 63.612 267.364 66.7175C264.784 72.3603 263.98 74.2091 261.249 76.3942L262.881 80.4281C262.881 80.4281 265.764 79.2195 269.386 70.9836C272.372 64.1963 277.316 63.3159 278.598 63.6841L276.464 61.2429Z" fill="white"/>
<path d="M262.746 80.7558L260.947 76.3137L261.09 76.1936C263.717 74.0966 264.537 72.2958 266.982 66.9492L267.133 66.613C268.447 63.7317 270.469 61.6507 272.81 60.7542C274.704 60.0259 275.7 60.5541 276.575 61.0184L276.615 61.0424L279.346 64.1559L278.526 63.9237C277.212 63.5476 272.475 64.5721 269.609 71.0872C265.986 79.3232 263.096 80.6118 262.969 80.6678L262.746 80.7558ZM261.544 76.4658L263.001 80.0675C263.733 79.5953 266.201 77.6023 269.155 70.8791C271.783 64.9082 276.026 63.3715 277.985 63.3635L276.297 61.4426C275.453 60.9943 274.649 60.5861 272.985 61.2264C271.695 61.7147 269.283 63.0993 267.579 66.8291L267.428 67.1653C264.999 72.4879 264.155 74.3448 261.544 76.4658Z" fill="white"/>
<path d="M278.597 63.6753C281.328 65.1239 285.898 65.252 289.64 65.212C297.259 65.124 298.175 62.8509 300.476 62.1065C301.734 61.6983 303.398 61.106 305.611 62.6828L302.88 59.4492C302.88 59.4492 300.755 58.2166 297.841 58.8249C294.839 59.4492 292.841 61.6503 287.721 62.2506C283.454 62.7468 278.613 62.8028 276.862 61.6823L278.597 63.6753Z" fill="white"/>
<path d="M305.667 62.9314C305.603 62.9474 305.532 62.9314 305.476 62.8914C303.422 61.4267 301.885 61.9229 300.659 62.3231L300.564 62.3551C299.958 62.5472 299.449 62.8594 298.86 63.2116C297.244 64.188 295.237 65.4046 289.648 65.4687C285.906 65.5087 281.257 65.3726 278.486 63.8999C278.462 63.8839 278.438 63.8679 278.414 63.8439L276.671 61.8509C276.591 61.7549 276.591 61.6188 276.671 61.5227C276.75 61.4267 276.886 61.4107 276.989 61.4747C278.725 62.5873 283.653 62.4752 287.69 62.003C290.731 61.6508 292.658 60.7144 294.362 59.898C295.492 59.3537 296.559 58.8335 297.785 58.5773C300.763 57.953 302.912 59.1776 303 59.2256C303.024 59.2416 303.048 59.2577 303.064 59.2817L305.794 62.5152C305.874 62.6113 305.874 62.7554 305.786 62.8434C305.763 62.8914 305.715 62.9234 305.667 62.9314ZM278.757 63.4757C281.432 64.8683 285.978 65.0044 289.64 64.9644C295.094 64.9004 297.037 63.7238 298.597 62.7793C299.186 62.4192 299.744 62.083 300.404 61.8749L300.5 61.8429C301.527 61.5148 302.857 61.0825 304.528 61.7869L302.721 59.6498C302.435 59.4978 300.476 58.5293 297.888 59.0736C296.726 59.3137 295.731 59.7939 294.576 60.3542C292.841 61.1946 290.866 62.139 287.745 62.5072C285.994 62.7153 280.636 63.2356 277.77 62.3632L278.757 63.4757Z" fill="white"/>
<path d="M267.714 96.6835C268.096 97.2758 268.438 98.0442 268.773 98.8206L263.184 97.0277L254.275 76.6179L250.867 62.1389C251.592 61.9708 252.42 61.5546 253.288 60.9463C254.506 60.0899 256.464 57.4326 257.611 55.9199C262.3 68.7501 272.387 90.3045 272.387 90.3045C271.066 92.5055 268.558 95.8271 267.714 96.6835Z" fill="#002868"/>
<path d="M266.647 50.166C267.698 50.4301 268.669 50.9984 269.489 51.7348C270.31 52.4711 270.939 53.3675 271.552 54.2239C272.157 55.0964 272.73 55.9688 273.311 56.8332C273.892 57.6976 274.481 58.538 275.079 59.3864C276.289 61.0753 277.491 62.7881 278.717 64.4769C279.33 65.3253 279.927 66.1817 280.492 67.0621C281.066 67.9426 281.607 68.847 282.085 69.8074C281.257 69.1271 280.508 68.3908 279.784 67.6224C279.059 66.862 278.375 66.0616 277.714 65.2532C276.392 63.6205 275.071 61.9877 273.844 60.2749C273.231 59.4184 272.634 58.538 272.069 57.6496C271.504 56.7612 270.97 55.8487 270.429 54.9763C269.888 54.0959 269.314 53.2715 268.693 52.4791C268.088 51.6867 267.396 50.9584 266.647 50.166Z" fill="white"/>
<path d="M359.488 79.3232C356.876 81.7724 354.281 84.6298 352.975 86.5667C351.884 88.1835 349.886 90.7447 347.872 92.8097C347.171 93.5301 345.993 94.5546 345.459 95.0108C345.682 95.9953 344.886 96.6516 344.703 97.628C344.591 98.2203 344.966 100.541 344.727 101.062C344.974 101.558 345.165 100.742 345.149 101.302C347.322 100.309 349.974 97.9962 350.833 97.1558C353.309 94.7387 355.833 91.5531 357.242 89.4641C358.763 87.207 362.218 83.6933 364.822 81.4523C363.07 80.6679 361.287 79.9636 359.488 79.3232Z" fill="white"/>
<path d="M353.851 77.0923C352.394 76.6361 350.953 76.1879 349.504 75.7637C347.49 77.7326 345.595 79.8056 344.528 81.1503C341.359 85.1362 339.05 87.3052 337.538 88.4338C337.641 88.4338 337.761 88.3617 337.84 88.4258C339.233 89.5543 342.975 90.8589 343.023 90.907C344.623 89.3622 346.622 86.793 348.541 84.3838C350.252 82.2388 353.031 79.4294 355.173 77.5165C354.735 77.3724 354.297 77.2284 353.851 77.0923Z" fill="white"/>
<path d="M341.733 73.7132C340.746 73.5451 339.783 73.353 338.827 73.1289C337.537 74.4175 336.486 75.5221 336.057 75.9863C335.873 76.1864 335.666 76.4025 335.443 76.6426C334.241 77.9392 332.593 79.7081 330.905 81.0927C330.189 81.677 329.616 82.0772 329.154 82.3494C330.682 83.1657 332.06 84.2062 333.509 85.1667C333.612 85.2307 333.708 85.3108 333.795 85.3828C335.611 83.9421 337.426 82.0772 339.201 80.1723C339.416 79.9402 339.615 79.7321 339.791 79.54C341.646 77.571 343.461 75.7702 344.95 74.3775C343.883 74.1294 342.816 73.8973 341.733 73.7132Z" fill="white"/>
<path d="M329.44 70.1909C329.249 70.0948 329.058 69.9908 328.875 69.8867C328.421 70.3029 327.975 70.7111 327.538 71.0953C327.259 71.3434 326.932 71.6396 326.59 71.9597C325.555 72.9122 324.265 74.1048 322.984 74.9772C322.737 75.1453 322.514 75.2893 322.299 75.4094C322.315 75.4174 320.364 76.5619 320.372 76.5699C321.558 77.6104 323.549 78.5469 324.655 79.6754C326.112 78.6589 328.549 76.4579 329.711 75.3854C330.03 75.0892 330.332 74.8171 330.587 74.585C331.558 73.7206 332.577 72.7761 333.525 71.8877C332.147 71.4315 330.786 70.8712 329.44 70.1909Z" fill="white"/>
<path d="M321.105 63.9414C320.508 64.4376 319.863 64.9419 319.186 65.4301C318.891 65.6462 318.573 65.8783 318.239 66.1345C316.909 67.1269 314.449 69.0078 312.745 69.6882C313.342 70.0884 313.438 70.9528 313.892 71.417C314.648 72.1854 315.699 72.5855 316.638 73.3299C317.856 72.5775 320.34 71.0088 321.312 70.2804C321.63 70.0483 321.925 69.8242 322.196 69.6241C323.334 68.7997 324.385 67.9433 325.317 67.1349C323.844 66.1665 322.442 65.094 321.105 63.9414Z" fill="white"/>
<path d="M309.25 66.3349C309.321 66.375 309.385 66.415 309.457 66.455C313.605 64.8062 316.423 62.7652 318.167 61.2045C316.965 59.9879 315.85 58.6593 314.903 57.2266C313.39 58.6272 310.46 60.8123 305.635 62.349C306.893 63.6216 308.079 64.9583 309.25 66.3349Z" fill="white"/>
<path d="M278.295 134.478C277.833 134.574 277.356 134.614 276.862 134.574C274.362 134.414 273.279 133.022 272.81 131.885C272.085 130.148 272.276 127.747 273.343 125.098L273.383 124.994C274.442 122.016 275.715 117.838 274.489 115.853C273.988 115.037 273.048 114.565 271.631 114.397C271.217 114.349 270.747 114.365 270.23 114.445L269.601 114.541L269.322 113.972C266.544 108.346 262.889 101.863 260.318 97.4124C258.391 94.0828 257.014 91.8017 256.998 91.7777L256.926 91.6576L249.832 61.4911L250.676 61.291C251.281 61.147 252.014 60.7788 252.794 60.2345C253.933 59.4341 255.111 58.2816 256.138 56.969L256.265 56.8009C256.679 56.2566 257.061 55.6963 257.404 55.1281C259.609 51.5023 262.061 47.9646 265.636 48.1087C268.51 48.2207 271.122 51.0621 271.989 52.1026C275.317 51.8625 277.061 50.758 278.908 49.5894C281.026 48.2448 283.223 46.8601 287.658 46.8041C291.973 46.756 296.726 51.6944 300.922 56.0485C301.424 56.5687 301.909 57.073 302.371 57.5452C305.261 56.8249 310.118 54.0875 311.543 52.3187L312.395 51.2702L313 52.4788C316.184 58.8498 322.092 67.6941 336.63 70.9357C341.566 72.0402 366.382 77.867 370.467 84.3901L371 85.2465L370.084 85.6547C367.807 86.6712 364.44 91.8177 362.21 95.2113L361.733 95.9397C359.312 99.6214 353.588 105.144 349.01 105.296C347.362 105.352 346.136 105.032 345.268 104.336C343.429 102.855 343.771 100.222 344.098 97.6685C344.56 94.0588 344.536 92.434 342.346 92.0018C339.791 91.4975 337.115 92.8902 333.66 96.54C332.203 98.0767 330.754 99.8536 329.345 101.574C326.097 105.552 323.023 109.314 319.743 110.515C315.818 111.947 311.901 111.187 308.103 110.451C304.465 109.746 301.033 109.082 297.682 110.251C294.051 111.523 291.129 117.03 288.295 122.36C285.238 128.147 282.324 133.63 278.295 134.478ZM275.007 125.626L274.975 125.706C274.075 127.907 273.876 129.916 274.41 131.213C274.824 132.213 275.66 132.741 276.973 132.829C280.652 133.07 283.757 127.219 286.766 121.552C289.752 115.925 292.841 110.106 297.108 108.61C300.906 107.281 304.728 108.025 308.438 108.738C312.164 109.458 315.683 110.147 319.154 108.874C321.988 107.833 325.054 104.088 328.007 100.47C329.432 98.725 330.905 96.9161 332.402 95.3394C335.037 92.562 338.58 89.4806 342.681 90.297C346.693 91.0974 346.216 94.8752 345.825 97.9086C345.547 100.07 345.284 102.119 346.359 102.983C346.884 103.407 347.752 103.599 348.954 103.559C352.744 103.439 357.967 98.5009 360.276 94.9872L360.753 94.2669C363.078 90.7212 365.905 86.3991 368.428 84.6222C364.575 80.4682 349.814 75.6899 336.248 72.6565C325.03 70.1513 317.291 64.3245 311.989 54.3517C309.656 56.4087 305.038 58.8499 302.244 59.3701L301.79 59.4581L301.463 59.13C300.89 58.5457 300.293 57.9294 299.664 57.2731C295.906 53.3752 291.233 48.5169 287.666 48.5569C283.717 48.6049 281.822 49.8055 279.824 51.0701C277.793 52.3507 275.7 53.6794 271.623 53.8714L271.161 53.8955L270.883 53.5273C270.134 52.5348 267.722 49.9416 265.549 49.8535C262.913 49.7495 260.803 52.847 258.869 56.0325C258.558 56.5367 258.224 57.041 257.866 57.5372V57.5452L257.627 57.8654C256.456 59.4101 255.119 60.7227 253.773 61.6752C253.12 62.1394 252.484 62.4916 251.886 62.7317L258.534 91.0013C258.845 91.5136 260.111 93.6266 261.799 96.54C264.306 100.87 267.826 107.121 270.588 112.652C271.018 112.62 271.424 112.628 271.806 112.668C273.765 112.892 275.158 113.652 275.946 114.933C277.22 116.99 276.934 120.175 274.999 125.586L275.007 125.626Z" fill="#002868"/>
<path d="M273.295 126.499C276.758 126.691 283.637 118.847 286.201 111.748C291.201 97.8771 300.476 102.127 303.016 102.655C312.028 104.512 317.219 105.465 324.488 95.612C331.757 85.7593 335.865 88.0403 335.865 88.0403L332.314 85.6152C332.314 85.6152 328.039 82.2776 320.866 92.5385C314.258 101.999 307.379 99.734 304.138 98.7815C298.295 97.0607 288.542 93.4829 282.777 108.098C277.34 121.897 271.75 121.624 271.75 121.624L273.295 126.499Z" fill="white"/>
<path d="M274.028 126.683C273.765 126.739 273.518 126.763 273.287 126.747L273.112 126.739L271.408 121.353L271.766 121.369C271.822 121.369 277.268 121.417 282.554 108.002C285.031 101.727 288.422 98.1815 292.92 97.157C292.984 97.141 293.048 97.125 293.112 97.117C296.846 96.3326 300.532 97.4372 303.501 98.3256C303.74 98.3976 303.979 98.4697 304.21 98.5337L304.409 98.5897C307.618 99.5342 314.289 101.511 320.667 92.3868C324.632 86.72 327.737 85.1833 329.647 84.8951C331.439 84.623 332.426 85.3754 332.466 85.4074L336.001 87.8246L335.738 88.2488C335.698 88.2247 331.694 86.2318 324.679 95.7484C317.243 105.833 311.869 104.721 302.96 102.888C302.697 102.832 302.379 102.744 302.005 102.64C298.669 101.711 290.858 99.5422 286.432 111.82C284.019 118.527 277.746 125.907 274.028 126.683ZM273.478 126.251C276.918 126.179 283.486 118.543 285.97 111.66C290.556 98.9419 298.677 101.207 302.148 102.167C302.514 102.271 302.825 102.36 303.072 102.408C311.79 104.2 317.044 105.289 324.289 95.4602C329.361 88.5849 332.936 87.5284 334.711 87.5524L332.179 85.8236C332.155 85.8076 331.288 85.1593 329.695 85.4074C327.888 85.6875 324.918 87.1842 321.073 92.6909C314.488 102.111 307.586 100.07 304.266 99.086L304.067 99.0299C303.836 98.9659 303.597 98.8939 303.358 98.8218C297.427 97.053 288.462 94.3717 283.008 108.202C278.263 120.232 273.407 121.697 272.085 121.865L273.478 126.251Z" fill="white"/>
<path d="M269.903 113.204C273.629 114.797 274.911 113.42 280.437 102.695C285.962 91.9697 290.643 90.505 297.721 92.2738C303.836 93.8026 309.592 96.2757 314.281 92.738C318.979 89.2083 323.429 79.7238 328.007 82.213L323.238 78.8354C323.238 78.8354 320.149 78.123 314.934 85.0143C313.422 87.0153 312.004 88.8002 310.205 89.4725C305.922 91.0652 300.978 89.0723 298.207 88.432C292.721 87.1674 284.601 82.9974 277.714 97.7404C271.966 110.034 267.459 110.731 267.459 110.731L269.903 113.204Z" fill="white"/>
<path d="M272.706 113.932C271.854 114.108 270.93 113.908 269.816 113.428L269.768 113.412L266.942 110.555L267.427 110.483C267.475 110.483 271.902 109.602 277.499 97.6364C283.749 84.254 291.105 86.263 296.471 87.7277C297.108 87.9037 297.705 88.0638 298.279 88.1999C298.78 88.3199 299.361 88.48 299.982 88.6481C302.817 89.4405 306.702 90.529 310.133 89.2484C311.821 88.6241 313.167 86.9673 314.751 84.8783C319.998 77.947 323.175 78.5793 323.31 78.6113L323.358 78.6193L328.166 82.0209L327.904 82.4451C325.061 80.9004 322.219 84.326 319.21 87.9518C317.665 89.8087 316.073 91.7296 314.449 92.9542C310.38 96.0197 305.555 94.683 300.46 93.2743C299.552 93.0262 298.613 92.7621 297.681 92.53C290.962 90.8412 286.264 91.9857 280.683 102.823C276.758 110.379 274.943 113.46 272.706 113.932ZM270.047 112.988C273.55 114.469 274.712 113.268 280.214 102.575C285.946 91.4414 290.811 90.2809 297.777 92.0257C298.716 92.2578 299.656 92.522 300.571 92.7701C305.555 94.1467 310.261 95.4514 314.13 92.53C315.699 91.3454 317.283 89.4485 318.804 87.6076C321.343 84.5421 323.963 81.3966 326.646 81.5487L323.143 79.0675C322.768 79.0275 319.831 78.9474 315.133 85.1584C313.501 87.3195 312.108 89.0243 310.293 89.6966C306.71 91.0332 302.737 89.9207 299.831 89.1123C299.218 88.9442 298.645 88.7842 298.151 88.6641C297.57 88.528 296.965 88.368 296.328 88.1919C293.637 87.4555 290.588 86.6231 287.427 87.5836C283.749 88.6961 280.644 92.0497 277.945 97.8365C273.152 108.089 269.211 110.355 267.929 110.843L270.047 112.988Z" fill="white"/>
<path d="M289.64 48.9727C290.89 49.4289 292.037 50.1412 293.103 50.9336C293.637 51.3338 294.154 51.75 294.656 52.1902C294.903 52.4143 295.142 52.6384 295.373 52.8785C295.611 53.1106 295.842 53.3508 296.065 53.5909C297.888 55.5118 299.759 57.3367 301.575 59.2816C303.366 61.2346 305.062 63.2595 306.789 65.2285C308.509 67.2054 310.285 69.0703 312.195 70.8312C313.135 71.7196 314.106 72.576 315.093 73.4164C316.081 74.2568 317.084 75.0652 318.119 75.8336C318.636 76.2258 319.146 76.5859 319.679 76.9621L321.296 78.1067L322.896 79.2592L324.48 80.4358C326.59 82.0045 328.676 83.5893 330.794 85.126C331.319 85.5102 331.853 85.8944 332.386 86.2706C332.919 86.6548 333.453 87.031 333.994 87.4072C335.069 88.1515 336.16 88.8878 337.267 89.6162C332.402 87.5752 327.888 84.7258 323.509 81.8365L321.861 80.7559L320.229 79.6594L318.589 78.5789C318.039 78.2187 317.474 77.8265 316.933 77.4343C315.858 76.634 314.815 75.8016 313.796 74.9371C312.785 74.0647 311.805 73.1603 310.85 72.2318C309.902 71.2954 308.979 70.3269 308.095 69.3264C307.211 68.318 306.368 67.2935 305.555 66.253C303.915 64.172 302.363 62.059 300.691 60.058C299.863 59.0575 298.971 58.0891 298.095 57.1126C297.212 56.1441 296.36 55.1436 295.42 54.2312C294.951 53.775 294.481 53.3267 294.019 52.8705C293.557 52.4143 293.103 51.9421 292.634 51.4939C291.694 50.5974 290.731 49.725 289.64 48.9727Z" fill="white"/>
<path d="M315.954 73.0645L315.898 73.0565C315.802 73.0405 313.581 72.6483 310.651 74.3611C309.353 75.1215 308.454 76.138 307.586 77.1224C306.503 78.347 305.564 79.4115 304.075 79.7237C301.272 80.308 297.307 79.1234 295.174 78.4831C294.911 78.403 294.68 78.331 294.473 78.275C289.601 76.8743 286.655 76.4021 283.08 77.5146C278.271 79.0033 274.943 85.2463 272.746 89.3763C272.276 90.2488 271.878 91.0091 271.528 91.5934C270.166 93.8585 268.2 95.8514 267.555 96.5078L267.412 96.6518L267.523 96.8199C267.905 97.4122 268.248 98.1806 268.566 98.9249C268.646 99.101 268.717 99.2851 268.797 99.4612C269.092 100.166 269.37 100.83 269.665 101.382L269.808 101.662L270.047 101.454C271.074 100.558 272.587 98.997 273.956 96.6358C274.728 95.3072 275.421 93.9945 276.09 92.7219C278.55 88.0637 280.676 84.0378 284.887 82.421C287.849 81.2844 290.683 81.9568 293.956 82.7251C294.37 82.8212 294.784 82.9172 295.206 83.0213C295.46 83.0773 295.763 83.1493 296.097 83.2294C298.796 83.8697 303.812 85.0542 306.392 84.51C308.78 84.0137 310.237 82.2369 311.646 80.5161C313.621 78.0989 315.492 75.8178 319.807 76.6342L320.826 76.8263L315.954 73.0645Z" fill="white"/>
<path d="M343.556 92.4893C337.975 90.3603 333.358 87.0787 326.359 82.1163C324.48 80.7877 322.355 79.2749 320.006 77.6422C312.625 72.5197 309.592 68.7339 306.662 65.0681C305.165 63.1952 303.613 61.2583 301.479 59.1293L302.705 57.8887C304.911 60.0897 306.487 62.0667 308.016 63.9716C311.001 67.7014 313.82 71.2231 320.993 76.2015C323.35 77.8423 325.483 79.355 327.362 80.6836C334.249 85.574 338.803 88.7995 344.177 90.8485L343.556 92.4893Z" fill="#002868"/>
<path d="M314.417 58.4014C315.834 60.4423 317.378 62.2992 319.082 64.0281C320.77 65.7569 322.569 67.3737 324.424 68.9264C326.287 70.4712 328.198 71.9679 330.157 73.4166C332.115 74.8733 334.106 76.29 336.072 77.8027C333.755 76.9223 331.534 75.8177 329.4 74.5611C327.267 73.2965 325.229 71.8638 323.31 70.2631C321.399 68.6623 319.616 66.8934 318.055 64.9245C316.503 62.9716 315.189 60.7705 314.417 58.4014Z" fill="white"/>
<path d="M313.024 52.5586C313.557 53.8472 314.234 55.0958 314.974 56.3044C315.723 57.513 316.551 58.6735 317.434 59.8021C319.194 62.0672 321.16 64.1882 323.214 66.2292C324.241 67.2456 325.292 68.2461 326.367 69.2226C327.442 70.1991 328.533 71.1515 329.639 72.096C331.845 73.9849 334.074 75.8498 336.287 77.7947C334.974 77.1384 333.716 76.37 332.49 75.5777C331.256 74.7773 330.061 73.9289 328.891 73.0485C326.566 71.2636 324.289 69.3907 322.14 67.3817C321.057 66.3812 320.006 65.3487 318.987 64.2762C317.968 63.2037 316.988 62.0912 316.057 60.9306C315.587 60.3543 315.141 59.754 314.703 59.1538C314.281 58.5375 313.852 57.9212 313.461 57.2809C312.673 56.0002 311.965 54.6556 311.415 53.2229L313.024 52.5586Z" fill="#002868"/>
<path d="M343.556 92.4895C337.975 90.3605 333.357 87.0789 326.359 82.1165C324.48 80.7879 322.354 79.2752 320.006 77.6424C311.965 72.0637 309.067 68.422 305.715 64.2039C304.449 62.6112 303.135 60.9544 301.447 59.0975L302.737 57.9209C304.457 59.8178 305.786 61.4906 307.076 63.1074C310.34 67.2134 313.167 70.7671 320.993 76.2017C323.35 77.8425 325.483 79.3552 327.362 80.6838C334.249 85.5742 338.803 88.7998 344.177 90.8487L343.556 92.4895Z" fill="#002868"/>
<path d="M271.591 53.0068L283.51 71.3356L271.591 53.0068Z" fill="white"/>
<path d="M272.316 52.5273C272.817 53.2877 273.303 54.0561 273.797 54.8244C274.29 55.5928 274.776 56.3612 275.254 57.1376C276.217 58.6823 277.172 60.2351 278.12 61.7958L279.529 64.1409C279.999 64.9253 280.468 65.7017 280.93 66.4941C281.846 68.0708 282.73 69.6716 283.502 71.3444C282.292 69.9597 281.185 68.503 280.118 67.0303C279.585 66.294 279.067 65.5416 278.534 64.7973L276.965 62.5562C275.922 61.0594 274.895 59.5547 273.868 58.05C273.359 57.2976 272.849 56.5373 272.348 55.7769C271.846 55.0165 271.336 54.2562 270.851 53.4958L272.316 52.5273Z" fill="#002868"/>
<path d="M256.01 62.1562C256.44 62.6925 256.655 62.9486 257.069 63.4449C257.563 63.0367 257.794 62.8206 258.24 62.3884C258.049 63.1087 257.945 63.4689 257.714 64.1972C258.12 64.6695 258.319 64.9016 258.709 65.3338C258.184 65.3578 257.905 65.3578 257.332 65.3338C257.069 66.0621 256.918 66.4303 256.592 67.1587C256.528 66.3983 256.488 66.0221 256.408 65.2617C255.795 65.1977 255.477 65.1577 254.816 65.0617C255.445 64.6775 255.74 64.4774 256.273 64.0772C256.17 63.3088 256.122 62.9246 256.01 62.1562Z" fill="white"/>
<path d="M259.434 70.5525C259.832 70.9847 260.031 71.2008 260.421 71.625C260.915 71.0488 261.13 70.7366 261.552 70.1123C261.353 70.9767 261.257 71.4089 261.018 72.2813C261.4 72.7055 261.591 72.9137 261.974 73.3379C261.456 73.4819 261.193 73.546 260.62 73.634C260.341 74.4984 260.19 74.9306 259.824 75.763C259.784 74.9466 259.76 74.5384 259.697 73.738C259.084 73.7781 258.757 73.7861 258.064 73.7621C258.749 73.2978 259.052 73.0417 259.601 72.4975C259.545 71.7131 259.513 71.3289 259.434 70.5525Z" fill="white"/>
<path d="M262.65 78.9089C263.096 79.3651 263.327 79.5892 263.789 80.0454C264.378 79.3811 264.649 79.0289 265.158 78.3086C264.943 79.3011 264.816 79.7973 264.513 80.7578C264.983 81.214 265.222 81.4381 265.716 81.8943C265.039 82.0464 264.697 82.1184 264.004 82.2385C263.646 83.1749 263.439 83.6312 262.977 84.5116C262.961 83.6632 262.945 83.239 262.905 82.3826C262.189 82.4546 261.822 82.4786 261.042 82.4786C261.822 81.9664 262.181 81.6702 262.826 81.0539C262.77 80.1975 262.738 79.7653 262.65 78.9089Z" fill="white"/>
<path d="M266.217 87.6722C266.727 88.1444 266.982 88.3765 267.491 88.8327C268.263 88.1604 268.622 87.8002 269.314 87.0879C268.948 88.0804 268.741 88.5766 268.287 89.5451C268.805 90.0013 269.06 90.2254 269.577 90.6656C268.773 90.8417 268.367 90.9217 267.539 91.0498C267.029 92.0023 266.751 92.4745 266.169 93.3949C266.209 92.5225 266.225 92.0903 266.241 91.2179C265.397 91.3059 264.975 91.3299 264.107 91.3459C265.007 90.7937 265.437 90.4975 266.257 89.8572C266.257 88.9848 266.249 88.5446 266.217 87.6722Z" fill="white"/>
<path d="M274.203 125.297C274.195 125.313 272.953 129.963 273.614 131.556C270.923 127.258 266.934 121.423 263.351 116.341C265.891 114.892 268.192 113.876 270.103 113.588C270.684 113.499 271.225 113.483 271.727 113.54C277.029 114.14 276.512 118.822 274.203 125.297Z" fill="#BC2030"/>
<path d="M270.278 126.426C265.254 119.015 275.62 110.546 272.802 106.176C268.622 99.6772 267.443 108.53 267.443 108.53C267.443 108.53 260.485 111.067 266.392 120.703C268.423 124.009 270.278 126.426 270.278 126.426Z" fill="white"/>
<path d="M270.086 126.579C270.071 126.555 268.2 124.106 266.185 120.825C263.972 117.215 263.271 114.157 264.115 111.732C264.888 109.507 266.703 108.571 267.228 108.339C267.348 107.554 268.001 103.96 269.736 103.568C269.744 103.568 269.752 103.568 269.76 103.56C270.755 103.352 271.814 104.161 273.016 106.025C274.298 108.026 273.056 110.692 271.615 113.781C269.784 117.711 267.706 122.169 270.485 126.267L270.086 126.579ZM269.856 104.064C269.848 104.064 269.848 104.064 269.84 104.064C268.534 104.361 267.849 107.41 267.69 108.563L267.674 108.715L267.531 108.771C267.507 108.779 265.373 109.587 264.569 111.924C263.789 114.197 264.474 117.111 266.599 120.576C267.443 121.945 268.255 123.17 268.916 124.13C267.913 120.544 269.617 116.895 271.153 113.597C272.531 110.644 273.725 108.09 272.586 106.322C271.551 104.689 270.604 103.904 269.856 104.064Z" fill="white"/>
<path d="M211.354 133.135L211.378 134.063C211.218 133.743 211.226 133.423 211.354 133.135Z" fill="white"/>
<path d="M211.553 134.927C211.163 135.007 210.765 134.807 210.589 134.447C210.335 133.903 210.319 133.335 210.55 132.798C210.709 132.422 211.115 132.206 211.513 132.286C211.911 132.366 212.206 132.71 212.221 133.119L212.245 134.047C212.253 134.463 211.975 134.823 211.577 134.919C211.569 134.919 211.561 134.919 211.553 134.927Z" fill="#002868"/>
<path d="M276.79 116.557C276.854 119.798 274.338 125.033 274.179 125.353C274.187 125.337 274.195 125.313 274.203 125.289C276.512 118.822 277.037 114.132 271.727 113.531C271.225 113.475 270.676 113.491 270.102 113.579C268.192 113.867 265.891 114.884 263.351 116.333C256.377 120.302 247.595 127.466 240.135 131.364C229.14 137.111 220.358 135.966 218.432 133.397C217.89 130.419 212.15 131.268 211.354 133.133L209.467 60.2096C210.844 57.8805 214.61 57.6884 216.441 58.7529C218.272 59.8174 225.151 56.6799 229.626 53.7825C234.1 50.8931 239.498 47.1233 244.275 48.9322C249.044 50.7411 250.119 53.2382 252.651 59.3452C252.842 59.8014 253.057 60.3457 253.295 60.954C256.233 68.4296 262.579 86.3102 265.915 92.8093C269.123 99.0523 275.166 110.01 276.519 114.996C276.687 115.612 276.782 116.14 276.79 116.557Z" fill="#BC2030"/>
<path d="M262.348 86.0076L255.565 87.4243L244.18 91.9705L223.543 104.296L214.316 101.391L209.992 101.263L208.926 60.2272C210.303 57.8981 214.069 57.706 215.9 58.7705C217.731 59.835 224.61 56.6975 229.084 53.8001C233.559 50.9107 238.957 47.1409 243.734 48.9498C248.503 50.7586 249.578 53.2558 252.109 59.3628C252.3 59.819 252.515 60.3633 252.754 60.9716C254.944 66.5502 259.028 77.8997 262.348 86.0076Z" fill="#002868"/>
<path d="M242.85 49.2295C243.574 49.4616 244.299 49.7257 244.999 50.0539C245.692 50.382 246.369 50.7822 246.982 51.2705C247.595 51.7587 248.136 52.343 248.598 52.9753C249.06 53.6156 249.458 54.2879 249.816 54.9762C250.525 56.3609 251.13 57.7776 251.759 59.1703C251.926 59.5545 252.053 59.8906 252.197 60.2588L252.611 61.3313L253.439 63.4763L260.063 80.6286C261.17 83.478 262.284 86.3353 263.47 89.1447C264.06 90.5534 264.649 91.946 265.333 93.2907C266.026 94.6433 266.751 95.988 267.467 97.3406L269.641 101.391C270.357 102.751 271.066 104.112 271.75 105.489C272.427 106.865 273.096 108.258 273.693 109.675C274.29 111.091 274.848 112.54 275.182 114.037C274.943 113.308 274.641 112.604 274.322 111.908C274.004 111.211 273.661 110.531 273.311 109.851C272.602 108.498 271.862 107.161 271.09 105.841C270.333 104.512 269.553 103.199 268.765 101.879L266.432 97.9169C265.652 96.5963 264.896 95.2596 264.163 93.899C263.415 92.5303 262.778 91.1056 262.157 89.705C260.939 86.8716 259.792 84.0222 258.678 81.1648C257.579 78.2995 256.488 75.4261 255.437 72.5447C254.394 69.6553 253.351 66.7739 252.356 63.8685L250.859 59.5385C250.302 58.1058 249.776 56.6731 249.163 55.2884C248.558 53.9037 247.81 52.5911 246.711 51.5666C245.62 50.5581 244.243 49.8378 242.85 49.2295Z" fill="white"/>
<path d="M262.236 84.1415C260.055 83.3091 257.921 83.181 255.716 83.5012C250.947 84.2055 246.162 87.6792 241.098 91.353C238.129 93.506 235.024 95.675 232.094 97.2838C220.669 103.543 217.397 99.717 217.381 99.701C215.032 97.2518 211.107 98.5484 210.589 100.701L210.653 105.952C211.322 105.168 212.309 103.703 213.742 103.503C215.963 103.199 216.083 104.631 217.922 105.744C220.955 107.577 228.033 105.88 234.729 102.382C238.065 100.637 241.305 98.2843 244.442 96.0112C248.725 92.9057 253.232 90.0643 256.544 89.1839C259.06 88.5196 262.571 87.9113 264.585 89.6401L262.236 84.1415Z" fill="white"/>
<path d="M271.297 103.046C269.744 102.502 267.913 102.31 266.361 102.542C260.565 103.399 254.577 107.561 248.24 111.963C244.649 114.46 240.82 116.821 237.333 118.926C226.465 125.465 220.342 121.519 219.769 121.087C217.659 119.502 216.266 118.67 214.316 118.758C213.551 118.79 211.226 119.43 210.804 120.943L211.139 126.73C211.808 126.097 213.034 124.601 214.515 124.537C215.621 124.489 216.585 124.809 217.405 125.625C218.495 126.714 220.876 128.058 222.683 128.33C228.718 129.243 232.723 127.81 239.968 124.024C243.893 121.975 247.754 119.286 251.488 116.693C257.26 112.683 262.706 108.889 267.189 108.233C270.015 107.817 273.319 107.705 274.641 109.962C274.529 109.666 271.297 103.046 271.297 103.046Z" fill="white"/>
<path d="M266.83 94.0494C264.824 92.9049 262.921 92.8648 261.185 93.121C255.907 93.9053 250.525 97.7152 244.824 101.749C241.544 104.078 238.145 106.479 234.856 108.2C229.538 110.978 222.779 114.075 217.635 110.025C214.905 107.872 211.951 108.68 210.717 111.458L210.908 116.412C211.632 115.428 212.285 114.595 213.424 114.267C214.379 113.995 215.749 113.915 216.967 115.06C218.145 116.54 220.398 117.325 222.213 117.453C226.791 117.781 231.218 116.572 237.484 113.299C241.114 111.402 244.665 108.881 248.105 106.447C253.232 102.814 258.168 99.8442 261.998 98.8037C265.373 97.8913 267.316 97.8592 269.545 99.0758L266.83 94.0494Z" fill="white"/>
<path d="M219.387 129.732L217.659 129.556C218.392 122.192 217.89 100.142 217.89 100.142C218.304 100.374 219.618 100.734 219.618 100.734C220.183 114.276 220.12 122.28 219.387 129.732Z" fill="#BC2030"/>
<path d="M230.565 135.814C224.084 137.167 219.292 136.006 217.731 133.925C217.652 133.813 217.596 133.693 217.572 133.557C217.413 132.701 216.521 132.429 215.804 132.349C214.132 132.165 212.397 132.901 212.15 133.477C211.991 133.853 211.593 134.07 211.187 133.989C210.789 133.909 210.494 133.565 210.478 133.157L208.591 60.234C208.583 60.0659 208.631 59.9059 208.711 59.7618C210.375 56.9524 214.738 56.7524 216.863 57.993C217.962 58.6333 223.838 56.4722 229.14 53.0466L229.833 52.5983C234.196 49.765 239.626 46.2433 244.562 48.1162C249.721 50.0691 250.883 52.8705 253.431 59.0094C253.598 59.4176 253.805 59.9139 254.084 60.6262C254.904 62.7232 255.971 65.5726 257.205 68.8622C259.267 74.3608 261.6 80.5878 263.67 85.6462C264.888 88.6317 265.899 90.9048 266.671 92.3935C267.276 93.562 267.977 94.9147 268.733 96.3394C272.069 102.694 276.225 110.61 277.348 114.748C277.348 114.756 277.348 114.756 277.348 114.764C277.539 115.477 277.642 116.053 277.65 116.533C277.714 120.047 275.063 125.505 274.951 125.738C274.752 126.146 274.267 126.338 273.845 126.162C273.423 125.986 273.2 125.521 273.343 125.081L273.359 125.033C273.359 125.033 273.367 125.001 273.375 124.993C274.434 122.016 275.708 117.838 274.482 115.853C273.98 115.036 273.04 114.564 271.623 114.396C271.209 114.348 270.74 114.364 270.222 114.444C268.582 114.684 266.472 115.557 263.773 117.093C260.652 118.87 257.205 121.263 253.558 123.801C249.187 126.842 244.665 129.98 240.533 132.141C236.95 134.021 233.575 135.19 230.565 135.814ZM219.228 133.005C220.048 133.909 222.357 134.734 225.852 134.63C228.822 134.542 233.646 133.773 239.729 130.596C243.766 128.491 248.24 125.377 252.571 122.368C256.249 119.807 259.729 117.389 262.921 115.581C265.811 113.932 268.112 113.003 269.967 112.723C270.628 112.619 271.249 112.603 271.822 112.667C273.343 112.843 274.529 113.34 275.349 114.156C273.908 109.93 270.071 102.622 267.205 97.1638C266.456 95.7311 265.748 94.3864 265.143 93.2019C264.338 91.6411 263.335 89.384 262.077 86.3105C259.999 81.2281 257.659 74.9851 255.597 69.4785C254.363 66.1889 253.304 63.3475 252.484 61.2665C252.205 60.5702 252.006 60.0739 251.847 59.6818C249.355 53.6789 248.423 51.4378 243.965 49.749C239.848 48.1882 235.032 51.3097 230.788 54.0631L230.088 54.5113C227.301 56.3121 218.734 61.0904 215.995 59.5057C214.546 58.6653 211.537 58.7853 210.335 60.4581L212.174 131.252C213.289 130.7 214.753 130.46 215.995 130.604C217.715 130.804 218.886 131.668 219.228 133.005Z" fill="#002868"/>
<path d="M272.881 132.013C269.72 126.955 265.111 120.336 262.643 116.838L262.085 116.046L262.921 115.566C265.811 113.917 268.112 112.988 269.967 112.708C270.628 112.604 271.249 112.588 271.822 112.652C273.781 112.876 275.174 113.637 275.962 114.917C277.236 116.974 276.95 120.16 275.015 125.57L274.975 125.682C274.075 127.883 273.876 129.892 274.41 131.189L272.881 132.013ZM264.617 116.63C266.679 119.568 269.8 124.058 272.483 128.172C272.626 127.211 272.913 126.179 273.343 125.106L273.383 125.002C274.442 122.025 275.715 117.847 274.489 115.862C273.988 115.045 273.048 114.573 271.631 114.405C271.217 114.357 270.747 114.373 270.23 114.453C268.757 114.661 266.918 115.381 264.617 116.63Z" fill="#002868"/>
<path d="M221.887 59.7061C222.253 60.4424 222.444 60.7946 222.811 61.4829C223.678 61.1548 224.084 60.9787 224.881 60.6105C224.307 61.3789 224.013 61.763 223.376 62.5314C223.734 63.1877 223.917 63.5079 224.268 64.1162C223.527 63.9961 223.145 63.9161 222.357 63.716C221.68 64.4764 221.322 64.8525 220.55 65.5889C220.78 64.7085 220.892 64.2603 221.099 63.3718C220.279 63.1237 219.849 62.9876 218.973 62.6835C220.016 62.4194 220.502 62.2833 221.425 61.9712C221.624 61.0827 221.712 60.6265 221.887 59.7061Z" fill="white"/>
<path d="M228.917 56.4639C229.307 57.0722 229.507 57.3523 229.905 57.8805C230.661 57.4323 231.051 57.2082 231.847 56.736C231.322 57.5204 231.059 57.9046 230.526 58.6809C230.924 59.1772 231.123 59.4173 231.537 59.8655C230.764 59.8895 230.406 59.8975 229.69 59.8815C229.148 60.6579 228.878 61.0421 228.32 61.8344C228.44 61.0341 228.495 60.6339 228.591 59.8255C227.89 59.7694 227.548 59.7294 226.863 59.6094C227.62 59.2012 227.986 58.9931 228.734 58.5609C228.822 57.7445 228.862 57.3283 228.917 56.4639Z" fill="white"/>
<path d="M236.298 52.0781C236.807 52.7024 237.062 53.0066 237.556 53.6149C238.431 53.2387 238.869 53.0706 239.745 52.8385C239.18 53.5028 238.901 53.847 238.32 54.5513C238.813 55.1516 239.052 55.4557 239.538 56.056C238.678 55.8399 238.256 55.7679 237.412 55.6558C236.831 56.3762 236.528 56.7364 235.939 57.4647C236.011 56.7124 236.043 56.3282 236.099 55.5278C235.263 55.4718 234.841 55.4638 234.005 55.4638C234.88 54.9515 235.31 54.7034 236.186 54.2552C236.25 53.4228 236.266 52.9906 236.298 52.0781Z" fill="white"/>
<path d="M244.299 50.9023C244.848 51.7828 245.119 52.215 245.66 53.0554C246.576 53.4156 247.038 53.6637 247.969 54.336C247.372 54.1999 247.077 54.2159 246.496 54.352C247.03 55.1684 247.292 55.5766 247.818 56.361C246.926 55.6406 246.472 55.2965 245.581 54.6642C244.991 54.9203 244.705 55.0964 244.108 55.5046C244.148 54.7922 244.163 54.44 244.195 53.7277C243.312 53.1594 242.874 52.9113 242.006 52.4711C242.898 52.4231 243.343 52.4471 244.243 52.6392C244.275 51.9349 244.283 51.5827 244.299 50.9023Z" fill="white"/>
<path d="M223.057 70.3037C223.423 70.92 223.607 71.2162 223.965 71.8084C224.896 71.2882 225.326 71 226.186 70.4078C225.549 71.3362 225.223 71.8084 224.522 72.7369C224.872 73.3292 225.048 73.6253 225.398 74.2176C224.618 74.2336 224.22 74.2336 223.392 74.1696C222.643 75.082 222.245 75.5302 221.377 76.3787C221.672 75.4262 221.807 74.962 222.07 74.0255C221.202 73.8975 220.748 73.8094 219.793 73.5853C220.939 73.2491 221.465 73.049 222.46 72.5848C222.723 71.6564 222.834 71.2001 223.057 70.3037Z" fill="white"/>
<path d="M230.812 65.2119C231.202 65.6361 231.401 65.8522 231.807 66.2844C232.707 65.6841 233.176 65.388 234.18 64.8438C233.471 65.6601 233.129 66.0843 232.46 66.9728C232.882 67.429 233.105 67.6611 233.567 68.1653C232.659 68.2374 232.237 68.2934 231.433 68.4054C230.78 69.3419 230.462 69.8301 229.817 70.8306C229.976 69.9022 230.055 69.4459 230.207 68.5815C229.442 68.6936 229.076 68.7496 228.344 68.8377C229.18 68.2054 229.586 67.8852 230.446 67.2529C230.597 66.4045 230.669 66.0043 230.812 65.2119Z" fill="white"/>
<path d="M239.156 61.2354C239.641 61.8036 239.88 62.1078 240.382 62.7401C241.321 62.596 241.799 62.548 242.754 62.4839C242.117 62.9802 241.799 63.2363 241.162 63.7646C241.664 64.4449 241.918 64.8051 242.444 65.5574C241.512 65.1172 241.059 64.9251 240.167 64.597C239.53 65.1492 239.203 65.4294 238.582 66.0377C238.662 65.2613 238.702 64.8851 238.789 64.1568C237.922 63.9086 237.492 63.8206 236.656 63.7085C237.547 63.3724 238.009 63.2363 238.933 63.0202C239.012 62.3079 239.06 61.9477 239.156 61.2354Z" fill="white"/>
<path d="M247.683 60.7861C248.216 61.5305 248.487 61.9067 249.028 62.651C249.96 62.7391 250.429 62.7951 251.337 62.9071C250.764 63.2193 250.469 63.4034 249.88 63.8036C250.421 64.5479 250.7 64.9161 251.249 65.6445C250.334 65.2123 249.864 64.9561 248.94 64.4599C248.327 64.8921 248.017 65.1242 247.388 65.5965C247.428 64.8041 247.452 64.4199 247.492 63.6675C246.568 63.1553 246.106 62.8991 245.183 62.4269C246.138 62.4349 246.616 62.4589 247.555 62.523C247.611 61.8106 247.635 61.4585 247.683 60.7861Z" fill="white"/>
<path d="M226.401 63.4287C226.752 63.973 226.927 64.2371 227.285 64.7414C228.081 64.2291 228.479 63.965 229.275 63.4367C228.702 64.2531 228.416 64.6693 227.826 65.5177C228.177 66.006 228.352 66.2461 228.702 66.7103C227.978 66.7903 227.619 66.8224 226.895 66.8464C226.29 67.7108 225.979 68.151 225.334 69.0234C225.518 68.143 225.597 67.7028 225.764 66.8464C225.032 66.8224 224.666 66.7983 223.901 66.6943C224.785 66.2541 225.199 66.014 226.019 65.5177C226.178 64.6773 226.258 64.2611 226.401 63.4287Z" fill="white"/>
<path d="M233.845 58.9854C234.323 59.4176 234.538 59.6257 235 60.0579C235.876 59.6177 236.322 59.4175 237.213 59.0734C236.608 59.7377 236.306 60.0659 235.708 60.7542C236.162 61.2104 236.393 61.4425 236.847 61.9388C236.003 61.8427 235.701 61.7867 234.777 61.8347C234.076 62.5791 233.734 62.9633 233.065 63.7636C233.201 63.0113 233.264 62.6431 233.392 61.9228C232.54 61.9868 232.142 62.0188 231.369 62.0828C232.213 61.5546 232.651 61.2985 233.575 60.7942C233.694 60.0739 233.75 59.7217 233.845 58.9854Z" fill="white"/>
<path d="M241.95 56.001C242.46 56.6813 242.715 57.0175 243.224 57.7138C244.14 57.6658 244.601 57.6818 245.525 57.7698C244.928 58.138 244.625 58.3541 244.02 58.8023C244.53 59.5147 244.793 59.8748 245.31 60.6032C244.402 60.139 243.957 59.9149 243.065 59.5307C242.444 60.0109 242.133 60.267 241.504 60.7873C241.584 60.0669 241.616 59.6988 241.688 58.9784C240.812 58.6583 240.374 58.5222 239.522 58.3061C240.43 58.058 240.883 57.9619 241.799 57.8339C241.863 57.1135 241.895 56.7453 241.95 56.001Z" fill="white"/>
<path d="M223.965 80.7803C224.395 81.4286 224.61 81.7567 225.064 82.4051C226.163 81.8128 226.688 81.4846 227.715 80.8123C226.991 81.8848 226.608 82.4131 225.78 83.4295C226.242 84.0859 226.481 84.414 226.959 85.0783C225.956 85.0623 225.454 85.0463 224.435 84.9743C223.535 85.9427 223.058 86.407 222.039 87.2794C222.381 86.3029 222.54 85.8147 222.843 84.8302C221.816 84.7102 221.29 84.6301 220.215 84.406C221.521 84.0458 222.134 83.8137 223.304 83.2855C223.583 82.277 223.718 81.7808 223.965 80.7803Z" fill="white"/>
<path d="M232.874 74.5693C233.415 75.1936 233.694 75.5138 234.244 76.1701C235.239 75.5058 235.74 75.1856 236.799 74.6093C236.091 75.6098 235.756 76.1381 235.095 77.2106C235.637 77.8909 235.907 78.2351 236.449 78.9394C235.501 78.8994 235.024 78.8914 234.068 78.8994C233.408 79.9879 233.073 80.5482 232.38 81.6527C232.476 80.5642 232.516 80.0119 232.587 78.9314C231.648 78.9554 231.178 78.9795 230.263 79.0275C231.242 78.3151 231.728 77.947 232.699 77.2426C232.771 76.1541 232.81 75.6178 232.874 74.5693Z" fill="white"/>
<path d="M241.839 70.7676C242.333 71.5039 242.571 71.8721 243.057 72.6005C244.036 72.4564 244.538 72.4084 245.549 72.3203C244.841 72.8326 244.49 73.1127 243.806 73.721C244.275 74.4333 244.514 74.7775 244.984 75.4578C244.076 75.1777 243.63 75.0336 242.747 74.7295C242.078 75.4018 241.751 75.77 241.138 76.5543C241.234 75.6099 241.282 75.1457 241.393 74.2493C240.533 73.9371 240.111 73.785 239.275 73.4969C240.159 73.1927 240.613 73.0727 241.56 72.8726C241.664 71.9922 241.728 71.576 241.839 70.7676Z" fill="white"/>
<path d="M250.987 70.4072C251.512 71.0235 251.767 71.3197 252.285 71.896C253.288 71.8319 253.781 71.7919 254.745 71.6798C254.108 72.1441 253.773 72.3522 253.081 72.7764C253.582 73.3286 253.837 73.5928 254.339 74.121C253.399 73.8649 252.929 73.7288 251.99 73.4487C251.273 73.8809 250.907 74.105 250.167 74.5852C250.318 73.9369 250.39 73.6168 250.517 72.9845C249.578 72.6723 249.1 72.5042 248.16 72.1441C249.187 72.088 249.697 72.064 250.716 72C250.835 71.3597 250.891 71.0475 250.987 70.4072Z" fill="white"/>
<path d="M227.635 72.5691C227.994 73.1134 228.177 73.3855 228.543 73.9458C229.419 73.2335 229.857 72.8733 230.772 72.1689C230.111 73.2174 229.841 73.7617 229.236 74.8502C229.713 75.4425 229.96 75.7467 230.462 76.363C229.562 76.435 229.124 76.475 228.272 76.5471C227.635 77.6276 227.301 78.1718 226.584 79.2203C226.744 78.1878 226.815 77.6676 226.943 76.6431C226.099 76.6911 225.693 76.7151 224.881 76.6991C225.828 76.0828 226.282 75.7467 227.166 75.0503C227.357 74.0258 227.452 73.5296 227.635 72.5691Z" fill="white"/>
<path d="M236.282 66.7656C236.839 67.2939 236.99 67.638 237.484 68.3104C238.384 68.0222 238.853 67.9262 239.801 67.7901C239.172 68.3904 238.853 68.6946 238.248 69.3909C238.734 70.0952 238.973 70.4634 239.45 71.2078C238.591 70.8956 238.415 70.6235 237.333 70.5354C236.505 71.4319 236.138 71.9201 235.43 72.9206C235.517 71.8961 235.565 71.3918 235.677 70.4314C234.634 70.3914 234.108 70.3914 233.208 70.4394C234.212 69.7911 234.737 69.4869 235.884 68.9587C236.043 68.0382 236.122 67.598 236.282 66.7656Z" fill="white"/>
<path d="M244.912 65.5322C245.461 66.3326 245.74 66.7488 246.313 67.6132C247.308 67.6452 247.81 67.6692 248.789 67.6773C248.168 68.1975 247.834 68.3816 247.157 68.7898C247.675 69.4781 247.937 69.8143 248.447 70.4706C247.5 70.0784 247.03 69.8703 246.09 69.4301C245.398 69.8543 245.047 70.0704 244.347 70.5586C244.466 69.8143 244.522 69.4541 244.625 68.7418C243.694 68.2936 243.224 68.0614 242.285 67.5812C243.264 67.5492 243.766 67.5492 244.761 67.5732C244.816 66.7328 244.848 66.3246 244.912 65.5322Z" fill="white"/>
<path d="M225.183 91.8174C225.685 92.4977 225.939 92.8419 226.457 93.5142C227.81 92.9619 228.471 92.6658 229.737 92.0415C228.806 93.074 228.312 93.5782 227.269 94.5547C227.787 95.219 228.049 95.5552 228.583 96.2035C227.388 96.1795 226.791 96.1475 225.589 96.0594C224.474 97.0039 223.893 97.4601 222.691 98.3485C223.121 97.3641 223.328 96.8678 223.718 95.8834C222.516 95.7393 221.911 95.6512 220.701 95.4191C222.182 95.0509 222.906 94.8268 224.315 94.3306C224.674 93.3301 224.849 92.8259 225.183 91.8174Z" fill="white"/>
<path d="M235.907 86.0547C236.449 86.727 236.711 87.0551 237.237 87.7115C238.232 87.0712 238.702 86.759 239.578 86.1828C238.989 87.1832 238.694 87.6955 238.041 88.728C238.543 89.3683 238.789 89.6884 239.267 90.2887C238.407 90.3127 237.946 90.3207 236.982 90.3447C236.266 91.3852 235.891 91.9055 235.063 92.954C235.231 91.9375 235.302 91.4173 235.438 90.3768C234.426 90.3928 233.909 90.3928 232.85 90.4008C234.012 89.7365 234.578 89.4003 235.637 88.736C235.756 87.6714 235.812 87.1352 235.907 86.0547Z" fill="white"/>
<path d="M244.06 81.1475C244.506 81.7958 244.729 82.0999 245.167 82.7002C246.114 82.212 246.608 81.9718 247.627 81.5396C246.903 82.324 246.544 82.7482 245.86 83.6206C246.305 84.1969 246.528 84.4691 246.974 85.0053C246.083 85.0213 245.653 85.0213 244.817 85.0133C244.164 85.9257 243.853 86.398 243.272 87.3344C243.376 86.398 243.431 85.9177 243.543 84.9653C242.747 84.9173 242.364 84.8853 241.624 84.7972C242.412 84.269 242.834 84.0048 243.726 83.4926C243.861 82.5401 243.925 82.0679 244.06 81.1475Z" fill="white"/>
<path d="M253.383 78.0508C253.885 78.555 254.14 78.8031 254.649 79.3154C255.732 79.1153 256.273 79.0433 257.332 78.9712C256.6 79.3874 256.218 79.6115 255.453 80.1318C255.971 80.66 256.242 80.9322 256.783 81.5164C255.756 81.2363 255.246 81.1483 254.243 80.9882C253.463 81.5725 253.073 81.8926 252.285 82.5889C252.452 81.8446 252.531 81.4764 252.699 80.7721C251.719 80.652 251.234 80.604 250.278 80.5079C251.337 80.1398 251.879 79.9717 252.961 79.6996C253.137 79.0112 253.224 78.6831 253.383 78.0508Z" fill="white"/>
<path d="M229.737 83.4049C230.255 84.0532 230.517 84.3813 231.043 85.0456C232.134 84.3653 232.659 84.0211 233.694 83.3408C233.001 84.4373 232.643 84.9896 231.871 86.0781C232.404 86.7425 232.675 87.0786 233.208 87.7429C232.189 87.7509 231.672 87.7589 230.629 87.7589C229.801 88.8234 229.371 89.3517 228.439 90.3762C228.686 89.3357 228.798 88.8075 229.005 87.7509C227.962 87.7349 227.436 87.7189 226.385 87.6709C227.595 87.0786 228.177 86.7585 229.307 86.0941C229.506 85.0136 229.586 84.4774 229.737 83.4049Z" fill="white"/>
<path d="M238.981 77.4746C239.49 78.203 239.649 78.6191 240.087 79.3635C240.899 78.9393 241.337 78.7472 242.237 78.379C241.608 79.1874 241.313 79.6196 240.756 80.5161C241.186 81.2524 241.393 81.6126 241.815 82.3089C241.035 82.1809 240.78 82.0608 239.928 81.9488C239.307 82.9252 239.005 83.4295 238.384 84.454C238.455 83.3895 238.495 82.8612 238.575 81.7887C237.683 81.7006 237.213 81.6766 236.274 81.6366C237.261 80.9963 237.747 80.6842 238.71 80.1239C238.805 79.0594 238.861 78.5311 238.981 77.4746Z" fill="white"/>
<path d="M247.539 74.9531C248.025 75.5694 248.264 75.8736 248.75 76.4499C249.785 76.2338 250.318 76.1297 251.361 75.9616C250.621 76.4659 250.238 76.738 249.498 77.3303C249.976 77.8905 250.215 78.1547 250.692 78.6829C249.737 78.5389 249.267 78.4668 248.336 78.3067C247.595 78.9631 247.221 79.3232 246.504 80.0836C246.656 79.2432 246.735 78.835 246.895 78.0426C245.979 77.8585 245.533 77.7545 244.649 77.5304C245.621 77.2182 246.122 77.0822 247.149 76.826C247.301 76.0497 247.38 75.6815 247.539 74.9531Z" fill="white"/>
<path d="M218.161 129.716C217.874 126.89 217.627 124.057 217.42 121.231C217.205 118.398 217.03 115.573 216.863 112.739C216.497 107.081 216.545 101.406 216.489 95.7392C216.457 90.0725 216.393 84.3977 216.385 78.731L216.362 70.2229L216.37 61.7148L216.823 70.2069L217.245 78.699C217.532 84.3657 217.771 90.0244 218.034 95.6912C218.272 101.358 218.623 107.017 218.551 112.691C218.535 115.525 218.503 118.366 218.44 121.199C218.392 124.041 218.296 126.874 218.161 129.716Z" fill="white"/>
</svg>
