<svg width="293" height="147" viewBox="0 0 293 147" fill="none" xmlns="http://www.w3.org/2000/svg">
<rect width="293" height="147" rx="10" fill="white"/>
<mask id="mask0_163_399" style="mask-type:alpha" maskUnits="userSpaceOnUse" x="46" y="24" width="200" height="100">
<rect x="46" y="24" width="200" height="100" fill="white"/>
</mask>
<g mask="url(#mask0_163_399)">
<path d="M51.2693 93.655C53.0497 92.3171 53.7476 90.5749 54.8585 88.8745C57.0377 85.4878 60.3136 82.1707 63.3901 79.5365C65.2701 77.9337 69.6142 72.1637 71.7364 72.0382C73.2034 71.9546 75.0265 74.0452 76.4508 74.3937C78.7297 74.9372 80.7664 74.087 82.8174 72.3031C88.9846 66.9511 90.6937 56.6375 98.5701 52.6932C99.7237 52.1218 102.9 50.5887 104.082 51.1044C105.307 51.634 106.304 55.0068 106.888 56.1358C107.842 57.9755 119.436 80.6097 123.851 86.8954C126.258 90.324 129.207 94.0174 132.098 96.9861H107.671C107.899 96.5122 108.156 96.0662 108.44 95.7038C109.907 93.7805 111.944 93.2369 111.574 90.0313C110.05 91.7874 107.956 92.9164 106.19 95.1881C105.663 95.8571 105.065 96.4425 104.438 97H101.148C101.704 94.547 98.7552 91.6062 98.3422 89.3902C97.8437 86.7282 98.6555 83.9128 99.3961 81.2508C99.4674 79.1184 99.5386 76.9999 99.738 74.9093C100.279 76.1637 100.906 77.5017 101.533 78.8118C101.746 79.0348 101.946 79.2996 102.088 79.6202C102.943 74.8815 99.5101 70.5748 105.065 67.2299C105.236 65.1114 104.68 63.2299 104.21 61.2647C103.797 59.4946 103.868 57.6131 103.47 55.7594C102.9 53.1671 102.316 53.3622 99.8804 54.4493C96.747 55.8431 94.7672 58.5051 92.7589 61.1671C92.0895 62.0591 91.5056 62.979 90.9501 63.9128C92.1038 62.8117 93.5138 61.9755 95.223 61.0835C93.9269 64.526 90.4231 66.9232 87.5318 69.655C87.4036 69.8501 86.2642 71.4389 85.8084 72.0801C86.9478 71.6062 88.2155 71.1741 89.2979 71.0487C88.3294 72.7909 80.7237 76.5121 79.9546 77.9895C79.0288 79.7735 79.3564 81.2926 79.9118 82.8397C79.9831 82.8536 80.0685 82.8815 80.1397 82.8954C81.8631 82.6585 83.0738 81.7386 84.7687 81.0975C82.9029 82.6724 82.2477 84.6097 81.6067 86.5888C81.5213 86.9791 80.8946 93.5993 80.6382 97H72.8189C73.8728 95.6481 74.7986 94.1568 74.9126 92.9164C75.2117 93.5854 76.636 94.8118 76.6075 94.784C76.5363 91.5644 76.9635 88.331 77.0348 85.1672C75.3256 87.1045 73.6022 94.4216 70.3548 95.4251C70.3548 95.4111 70.3548 95.3972 70.3548 95.3972C69.956 93.3763 68.8166 91.439 69.3436 89.209C70.3121 89.5853 71.2094 90.2125 71.95 90.8536C71.8219 88.4007 69.5715 86.5609 70.2551 84.2892C70.2979 84.2473 70.3406 84.2055 70.3833 84.1637C70.9815 84.4564 71.9785 84.4285 72.591 84.7352C72.3916 82.8815 70.9246 82.0034 70.7394 79.9825C70.5827 78.2822 71.2521 75.9825 71.7506 74.4076C67.8481 77.3902 64.8713 80.7909 61.8661 84.5121C61.6382 84.7909 61.4103 85.0696 61.1824 85.3484C62.6637 84.7351 64.2446 84.2892 65.7971 83.4529C64.0025 86.4355 59.9717 87.4529 57.3653 89.7665C57.3226 89.8083 55.8128 91.4948 55.0722 92.331C53.9185 93.655 52.7648 95.007 51.1981 95.9686C50.429 96.4425 49.5887 96.7073 48.8053 97H45.9994C47.5519 95.6341 49.6171 94.9094 51.2693 93.655ZM105.008 81.8641C104.538 84.6236 103.114 87.0069 102.886 89.7526L102.757 89.878C104.595 88.4425 106.105 86.8954 106.475 84.5958C106.988 85.3345 107.301 86.7142 107.743 87.6759C108.455 85.5435 109.822 82.8815 109.594 81C109.309 78.6027 106.859 76.8327 106.831 74.1428C106.859 74.1149 105.478 79.1323 105.008 81.8641Z" fill="#002868"/>
<path d="M94.2111 90.6162C94.1968 90.6162 94.7096 90.6162 94.6953 90.6162C95.1938 92.3166 96.0484 94.881 97.0881 96.9716H90.3797C93.4704 95.6615 93.1001 93.7521 94.2111 90.6162Z" fill="#002868"/>
<path d="M142.965 66.3963C140.83 66.3963 139.18 65.735 138.014 64.4124C136.849 63.0898 136.266 61.2138 136.266 58.7842C136.266 56.4409 136.842 54.6008 137.993 53.2638C139.159 51.9125 140.76 51.2368 142.796 51.2368C144.931 51.2368 146.595 51.8909 147.789 53.1991C148.983 54.5074 149.579 56.3331 149.579 58.6764C149.579 61.106 148.997 63.0036 147.831 64.3693C146.679 65.7207 145.057 66.3963 142.965 66.3963ZM142.944 54.2558C141.118 54.2558 140.205 55.7796 140.205 58.8274C140.205 60.2793 140.381 61.3575 140.732 62.062C141.167 62.9389 141.897 63.3774 142.923 63.3774C144.734 63.3774 145.64 61.8966 145.64 58.9352C145.64 57.2963 145.422 56.1103 144.987 55.3771C144.566 54.6296 143.885 54.2558 142.944 54.2558Z" fill="#BF0A30"/>
<path d="M160.268 52.9835L163.975 62.2129V55.83C163.975 54.8668 163.793 54.3852 163.428 54.3852C163.329 54.3852 163.182 54.4139 162.985 54.4714C162.803 54.5145 162.662 54.5361 162.564 54.5361C162.269 54.5361 162.016 54.3995 161.806 54.1264C161.609 53.8533 161.511 53.5154 161.511 53.1129C161.511 52.6385 161.644 52.2575 161.911 51.97C162.178 51.6825 162.529 51.5387 162.964 51.5387C163.189 51.5387 163.575 51.5747 164.123 51.6465C164.671 51.7184 165.155 51.7544 165.576 51.7544C165.956 51.7544 166.398 51.7256 166.904 51.6681C167.662 51.5818 168.132 51.5387 168.315 51.5387C168.764 51.5387 169.129 51.6825 169.41 51.97C169.691 52.2575 169.832 52.6385 169.832 53.1129C169.832 53.5154 169.719 53.8533 169.495 54.1264C169.27 54.3995 168.996 54.5361 168.673 54.5361C168.547 54.5361 168.378 54.5145 168.167 54.4714C167.957 54.4139 167.795 54.3852 167.683 54.3852C167.402 54.3852 167.22 54.5649 167.135 54.9243C167.107 55.068 167.093 55.3699 167.093 55.83V64.6065C167.093 65.5553 166.714 66.0297 165.956 66.0297C165.815 66.0297 165.597 66.0226 165.303 66.0082C165.022 65.9794 164.811 65.965 164.671 65.965C164.657 65.965 164.312 65.9794 163.638 66.0082C163.638 66.0082 163.484 66.0082 163.175 66.0082C162.768 66.0082 162.466 65.9075 162.269 65.7063C162.157 65.5913 161.995 65.2822 161.785 64.779L157.719 55.2909V61.8032C157.719 62.7808 157.901 63.2695 158.267 63.2695C158.365 63.2695 158.512 63.248 158.709 63.2049C158.92 63.1473 159.074 63.1186 159.172 63.1186C159.467 63.1186 159.713 63.2552 159.91 63.5283C160.12 63.8015 160.226 64.1393 160.226 64.5418C160.226 65.5913 159.734 66.116 158.751 66.116C158.47 66.116 158.007 66.0729 157.361 65.9866C156.925 65.9291 156.49 65.9004 156.055 65.9004C155.69 65.9004 155.198 65.9363 154.58 66.0082C153.962 66.0801 153.569 66.116 153.4 66.116C152.375 66.116 151.863 65.5913 151.863 64.5418C151.863 64.1393 151.968 63.8015 152.179 63.5283C152.403 63.2552 152.677 63.1186 153 63.1186C153.127 63.1186 153.295 63.1473 153.506 63.2049C153.73 63.248 153.899 63.2695 154.011 63.2695C154.39 63.2695 154.58 62.7808 154.58 61.8032V55.83C154.58 54.8668 154.39 54.3852 154.011 54.3852C153.899 54.3852 153.73 54.4139 153.506 54.4714C153.295 54.5145 153.127 54.5361 153 54.5361C152.677 54.5361 152.403 54.3995 152.179 54.1264C151.968 53.8533 151.863 53.5154 151.863 53.1129C151.863 52.6385 152.003 52.2575 152.284 51.97C152.565 51.6825 152.93 51.5387 153.379 51.5387C153.674 51.5387 154.103 51.5747 154.664 51.6465C155.226 51.7184 155.668 51.7544 155.991 51.7544C156.258 51.7544 156.715 51.7256 157.361 51.6681C157.656 51.6537 157.993 51.625 158.372 51.5818C158.54 51.5531 158.723 51.5387 158.92 51.5387C159.299 51.5387 159.594 51.6897 159.804 51.9916C159.889 52.1066 160.043 52.4372 160.268 52.9835Z" fill="#BF0A30"/>
<path d="M178.648 51.2368C180.153 51.2368 181.407 51.7472 182.411 52.7679C182.54 51.9197 182.97 51.4956 183.701 51.4956C184.59 51.4956 185.034 51.9269 185.034 52.7894C185.034 52.9332 185.006 53.2207 184.948 53.652C184.862 54.2989 184.819 54.7374 184.819 54.9674C184.819 55.2262 184.834 55.4202 184.862 55.5496C184.891 56.0097 184.905 56.2684 184.905 56.3259C184.905 56.6997 184.74 57.016 184.411 57.2747C184.081 57.5191 183.658 57.6413 183.142 57.6413C182.311 57.6413 181.809 57.2316 181.637 56.4122C181.465 55.5928 181.214 55.0321 180.884 54.7302C180.569 54.4139 180.06 54.2558 179.358 54.2558C178.426 54.2558 177.702 54.6942 177.186 55.5712C176.684 56.4337 176.433 57.6629 176.433 59.2586C176.433 60.61 176.677 61.6666 177.164 62.4285C177.666 63.1761 178.354 63.5499 179.229 63.5499C179.788 63.5499 180.246 63.3917 180.605 63.0755C180.977 62.7448 181.164 62.3351 181.164 61.8463C181.164 61.2425 180.913 60.9406 180.411 60.9406C180.383 60.9406 180.34 60.9406 180.282 60.9406C180.225 60.955 180.175 60.9622 180.132 60.9622C179.902 60.9909 179.773 61.0053 179.745 61.0053C179.458 61.0053 179.214 60.8831 179.014 60.6387C178.813 60.38 178.713 60.0637 178.713 59.6899C178.713 59.2586 178.856 58.9136 179.143 58.6548C179.429 58.3961 179.802 58.2667 180.261 58.2667C180.562 58.2667 181.013 58.3098 181.615 58.3961C182.232 58.468 182.698 58.5039 183.013 58.5039C183.486 58.5039 184.009 58.468 184.583 58.3961C185.041 58.3386 185.357 58.3098 185.529 58.3098C185.987 58.3098 186.353 58.4536 186.625 58.7411C186.912 59.0142 187.055 59.388 187.055 59.8624C187.055 60.2793 186.955 60.6315 186.754 60.9191C186.554 61.1922 186.303 61.3288 186.002 61.3288L185.486 61.2857C185.099 61.2857 184.905 61.6091 184.905 62.256C184.905 62.5292 184.912 62.8167 184.927 63.1186L184.97 64.0458C184.984 64.3621 184.991 64.664 184.991 64.9515C184.991 65.9147 184.461 66.3963 183.4 66.3963C182.397 66.3963 181.895 66.0441 181.895 65.3397V65.2103C180.906 66.001 179.78 66.3963 178.519 66.3963C177.415 66.3963 176.376 66.1088 175.401 65.5338C174.426 64.9444 173.717 64.1824 173.272 63.248C172.699 62.0548 172.412 60.6675 172.412 59.0861C172.412 56.671 172.971 54.7589 174.09 53.3501C175.208 51.9412 176.727 51.2368 178.648 51.2368Z" fill="#002868"/>
<path d="M198.307 61.5444H195.447C194.63 61.5444 194.221 62.0332 194.221 63.0108C194.221 63.2408 194.343 63.3558 194.587 63.3558C194.659 63.3558 194.766 63.3486 194.909 63.3342C195.053 63.3055 195.16 63.2911 195.232 63.2911C195.762 63.2911 196.028 63.7152 196.028 64.5634C196.028 65.0234 195.906 65.3972 195.662 65.6847C195.418 65.9722 195.096 66.116 194.694 66.116C194.494 66.116 194.049 66.0657 193.361 65.965C193.06 65.9219 192.637 65.9004 192.093 65.9004C191.505 65.9004 191.046 65.9219 190.717 65.965C189.957 66.0657 189.505 66.116 189.362 66.116C188.917 66.116 188.552 65.9794 188.265 65.7063C187.993 65.4331 187.857 65.0737 187.857 64.6281C187.857 63.6218 188.237 63.1186 188.996 63.1186C189.082 63.1186 189.219 63.133 189.405 63.1617C189.591 63.1761 189.727 63.1833 189.813 63.1833C190.086 63.1833 190.308 63.0323 190.48 62.7304C190.523 62.6442 190.623 62.3782 190.781 61.9326L193.748 53.4579C194.092 52.4947 194.479 51.8909 194.909 51.6465C195.225 51.4884 195.92 51.4093 196.995 51.4093C198.199 51.4093 198.959 51.4884 199.274 51.6465C199.59 51.7903 199.848 52.2072 200.049 52.8972L202.801 62.0835C203.016 62.8167 203.267 63.1833 203.553 63.1833C203.639 63.1833 203.79 63.1617 204.005 63.1186H204.241C205.044 63.1186 205.446 63.593 205.446 64.5418C205.446 65.0162 205.302 65.3972 205.016 65.6847C204.729 65.9722 204.356 66.116 203.897 66.116C203.697 66.116 203.432 66.0944 203.102 66.0513C202.7 65.9794 202.435 65.9435 202.306 65.9435C201.991 65.9147 201.582 65.9004 201.081 65.9004C200.536 65.9004 200.17 65.9147 199.984 65.9435C199.253 66.0585 198.794 66.116 198.608 66.116C198.221 66.116 197.898 65.9722 197.64 65.6847C197.397 65.3828 197.275 65.009 197.275 64.5634C197.275 63.7152 197.547 63.2911 198.092 63.2911C198.163 63.2911 198.271 63.3055 198.414 63.3342C198.558 63.3486 198.665 63.3558 198.737 63.3558C199.009 63.3558 199.145 63.2049 199.145 62.903C199.145 62.5148 199.067 62.1913 198.909 61.9326C198.751 61.6738 198.551 61.5444 198.307 61.5444ZM197.984 58.2451L196.952 53.8245L195.619 58.4176C195.605 58.4608 195.598 58.5111 195.598 58.5686C195.598 58.7411 195.777 58.8274 196.135 58.8274H197.468C197.841 58.8274 198.027 58.7267 198.027 58.5255C198.027 58.5398 198.013 58.4464 197.984 58.2451Z" fill="#002868"/>
<path d="M216.364 52.8757L218.149 60.7466L220.019 53.1991C220.177 52.5666 220.349 52.1353 220.535 51.9053C220.736 51.6609 221.016 51.5387 221.374 51.5387C221.689 51.5387 222.17 51.5747 222.815 51.6465C223.46 51.7184 223.947 51.7544 224.277 51.7544C224.621 51.7544 225.474 51.6968 226.836 51.5818C227.223 51.5531 227.509 51.5387 227.696 51.5387C228.169 51.5387 228.549 51.6825 228.835 51.97C229.122 52.2431 229.265 52.6241 229.265 53.1129C229.265 53.5154 229.151 53.8533 228.921 54.1264C228.706 54.3995 228.434 54.5361 228.104 54.5361C227.975 54.5361 227.796 54.5145 227.567 54.4714C227.337 54.4139 227.173 54.3852 227.072 54.3852C226.685 54.3852 226.492 54.8668 226.492 55.83V61.8032C226.492 62.7808 226.678 63.2695 227.051 63.2695C227.165 63.2695 227.337 63.248 227.567 63.2049C227.796 63.1473 227.968 63.1186 228.083 63.1186C228.412 63.1186 228.692 63.2552 228.921 63.5283C229.151 63.8015 229.265 64.1393 229.265 64.5418C229.265 65.0306 229.122 65.4188 228.835 65.7063C228.549 65.9794 228.169 66.116 227.696 66.116C227.423 66.116 226.965 66.0729 226.32 65.9866C225.89 65.9291 225.459 65.9004 225.029 65.9004C224.757 65.9004 224.356 65.9363 223.825 66.0082C223.295 66.0801 222.894 66.116 222.621 66.116C222.191 66.116 221.84 65.9722 221.568 65.6847C221.31 65.3972 221.181 65.0162 221.181 64.5418C221.181 63.6505 221.474 63.2049 222.062 63.2049C222.148 63.2049 222.213 63.212 222.256 63.2264C222.299 63.2264 222.349 63.2264 222.406 63.2264C222.464 63.2408 222.499 63.248 222.514 63.248C222.743 63.248 222.879 63.0898 222.922 62.7736C222.937 62.6298 222.944 62.3854 222.944 62.0404V53.9108L219.955 64.5203C219.697 65.4403 219.274 65.9004 218.686 65.9004H217.31C216.737 65.9004 216.343 65.4906 216.128 64.6712L213.268 53.9108V62.0404C213.268 62.7161 213.332 63.097 213.461 63.1833C213.504 63.2264 213.583 63.248 213.698 63.248C213.726 63.248 213.769 63.2408 213.827 63.2264C213.87 63.2264 213.913 63.2264 213.956 63.2264C213.999 63.212 214.063 63.2049 214.149 63.2049C214.723 63.2049 215.009 63.6433 215.009 64.5203C215.009 65.009 214.88 65.3972 214.622 65.6847C214.364 65.9722 214.02 66.116 213.59 66.116C213.39 66.116 213.132 66.0944 212.816 66.0513C212.415 65.9938 212.164 65.9579 212.064 65.9435C211.763 65.9147 211.419 65.9004 211.031 65.9004C210.544 65.9004 210.136 65.9219 209.806 65.965C208.917 66.0801 208.473 66.1376 208.473 66.1376C208.028 66.1376 207.663 65.9866 207.376 65.6847C207.089 65.3828 206.946 65.0019 206.946 64.5418C206.946 64.1249 207.054 63.7871 207.269 63.5283C207.498 63.2552 207.785 63.1186 208.129 63.1186C208.243 63.1186 208.408 63.1473 208.623 63.2049C208.853 63.248 209.025 63.2695 209.139 63.2695C209.426 63.2695 209.605 63.0827 209.677 62.7089C209.705 62.5651 209.72 62.2632 209.72 61.8032V55.83C209.72 55.3699 209.705 55.0752 209.677 54.9458C209.605 54.5721 209.426 54.3852 209.139 54.3852C209.025 54.3852 208.853 54.4139 208.623 54.4714C208.408 54.5145 208.236 54.5361 208.107 54.5361C207.777 54.5361 207.498 54.3995 207.269 54.1264C207.054 53.8533 206.946 53.5154 206.946 53.1129C206.946 52.0634 207.476 51.5387 208.537 51.5387C208.881 51.5387 209.455 51.5747 210.257 51.6465C211.06 51.7184 211.662 51.7544 212.064 51.7544C212.709 51.7544 213.382 51.7112 214.085 51.625C214.558 51.5675 214.931 51.5387 215.203 51.5387C215.561 51.5387 215.812 51.625 215.955 51.7975C216.099 51.97 216.235 52.3294 216.364 52.8757Z" fill="#002868"/>
<path d="M239.161 54.2558C238.688 54.2558 238.373 54.2989 238.215 54.3852C238 54.5145 237.893 54.8021 237.893 55.2477V56.4553C237.893 56.6997 237.921 56.8866 237.979 57.016C238.05 57.131 238.222 57.1885 238.495 57.1885C239.125 57.1885 239.441 56.9585 239.441 56.4984V56.2181C239.426 56.1319 239.419 56.024 239.419 55.8946C239.419 55.2909 239.77 54.989 240.473 54.989C241.204 54.989 241.569 55.3555 241.569 56.0887C241.569 56.29 241.555 56.5128 241.526 56.7572C241.469 57.2316 241.44 57.6701 241.44 58.0726C241.44 58.4464 241.469 58.9208 241.526 59.4958C241.584 60.0709 241.612 60.4734 241.612 60.7034C241.612 61.5516 241.233 61.9757 240.473 61.9757C239.756 61.9757 239.398 61.6091 239.398 60.8759C239.398 60.8041 239.398 60.7681 239.398 60.7681C239.398 60.6962 239.412 60.5237 239.441 60.2506C239.441 59.9056 239.132 59.733 238.516 59.733C238.1 59.733 237.893 59.9631 237.893 60.4231V62.0404C237.893 62.5436 237.979 62.8886 238.151 63.0755C238.337 63.248 238.674 63.3342 239.161 63.3342H240.408C241.326 63.3342 241.964 63.2552 242.322 63.097C242.695 62.9389 242.881 62.6586 242.881 62.256C242.881 62.0548 242.86 61.8176 242.817 61.5444C242.774 61.2569 242.752 61.0197 242.752 60.8328C242.752 60.3009 242.903 59.884 243.204 59.5821C243.505 59.2802 243.913 59.1293 244.429 59.1293C245.476 59.1293 245.999 59.7043 245.999 60.8544C245.999 61.2281 245.977 61.6235 245.934 62.0404C245.863 62.7304 245.827 63.1617 245.827 63.3342C245.827 63.4924 245.863 63.8015 245.934 64.2615C245.977 64.5346 245.999 64.815 245.999 65.1025C245.999 65.7782 245.576 66.116 244.73 66.116C244.458 66.116 244.006 66.0944 243.376 66.0513C242.329 65.9794 240.659 65.9291 238.366 65.9004C238.366 65.9004 237.728 65.9004 236.452 65.9004C235.735 65.9004 235.14 65.9219 234.667 65.965L233.033 66.116C233.019 66.116 232.99 66.1232 232.947 66.1376C232.904 66.1376 232.868 66.1376 232.839 66.1376C232.395 66.1376 232.03 65.9866 231.743 65.6847C231.471 65.3828 231.334 65.0019 231.334 64.5418C231.334 64.1393 231.442 63.8015 231.657 63.5283C231.886 63.2552 232.173 63.1186 232.517 63.1186C232.632 63.1186 232.804 63.1473 233.033 63.2049C233.262 63.248 233.427 63.2695 233.528 63.2695C233.915 63.2695 234.108 62.7808 234.108 61.8032V55.83C234.108 54.8668 233.915 54.3852 233.528 54.3852C233.442 54.3852 233.27 54.4139 233.012 54.4714C232.825 54.5145 232.66 54.5361 232.517 54.5361C232.187 54.5361 231.908 54.3995 231.678 54.1264C231.449 53.8533 231.334 53.5154 231.334 53.1129C231.334 52.0634 231.858 51.5387 232.904 51.5387C233.148 51.5387 233.642 51.5675 234.388 51.625C235.506 51.7112 236.588 51.7544 237.634 51.7544C237.735 51.7544 238.595 51.7328 240.215 51.6897C241.39 51.6609 242.164 51.6322 242.537 51.6034C243.153 51.5603 243.798 51.5387 244.472 51.5387C245.275 51.5387 245.676 51.8909 245.676 52.5954C245.676 52.8254 245.648 53.1632 245.59 53.6089C245.547 54.0545 245.526 54.3924 245.526 54.6224C245.526 54.8524 245.555 55.183 245.612 55.6143C245.684 56.0312 245.719 56.3475 245.719 56.5631C245.719 56.98 245.562 57.3322 245.246 57.6198C244.945 57.9073 244.565 58.0511 244.107 58.0511C243.032 58.0511 242.494 57.4976 242.494 56.3906C242.494 56.2037 242.523 55.945 242.58 55.6143C242.652 55.2837 242.688 55.0393 242.688 54.8811C242.688 54.5649 242.523 54.3708 242.193 54.2989C242.078 54.2702 241.777 54.2558 241.29 54.2558H239.161Z" fill="#002868"/>
<path d="M246 70.186H136.266V96.7152L143.064 91.2733H222.694L228.52 85.8314H185.489L187.165 83.4506L230.463 83.7907L237.26 78.1448H190.882L192.184 76.3081H239.202L246 70.186Z" fill="#BF0A30"/>
<path d="M152.2 72.7119C153.755 72.7119 155.107 73.2562 156.257 74.3449C156.241 74.2982 156.233 74.2204 156.233 74.1116C156.233 73.2407 156.718 72.8052 157.69 72.8052C158.143 72.8052 158.508 72.9452 158.783 73.2251C159.075 73.4895 159.22 73.8394 159.22 74.2749C159.22 74.4771 159.196 74.7725 159.147 75.1613C159.066 75.799 159.026 76.2577 159.026 76.5377C159.026 76.7399 159.05 77.0431 159.099 77.4475C159.164 77.8363 159.196 78.1318 159.196 78.3339C159.196 78.816 159.01 79.2048 158.637 79.5003C158.281 79.7958 157.811 79.9435 157.228 79.9435C155.998 79.9435 155.399 79.4537 155.431 78.4739L155.455 77.7507C155.471 77.2375 155.253 76.8176 154.799 76.491C154.346 76.1489 153.771 75.9778 153.075 75.9778C150.905 75.9778 149.82 77.6263 149.82 80.9233C149.82 82.634 150.079 83.886 150.597 84.6791C151.132 85.4567 151.974 85.8455 153.123 85.8455C153.836 85.8455 154.419 85.69 154.872 85.3789C155.326 85.0523 155.544 84.6324 155.528 84.1192L155.504 83.2794C155.488 82.7973 155.65 82.4085 155.99 82.113C156.33 81.8176 156.767 81.6698 157.301 81.6698C157.981 81.6698 158.516 81.8875 158.904 82.323C159.309 82.7584 159.512 83.3494 159.512 84.0959C159.512 85.5733 158.896 86.7864 157.666 87.7351C156.451 88.6682 154.88 89.1347 152.953 89.1347C150.589 89.1347 148.719 88.4116 147.342 86.9652C145.982 85.5189 145.302 83.5438 145.302 81.04C145.302 78.4583 145.917 76.4288 147.148 74.9514C148.379 73.4584 150.063 72.7119 152.2 72.7119Z" fill="white"/>
<path d="M169.95 89.1114C167.488 89.1114 165.586 88.396 164.241 86.9652C162.897 85.5345 162.225 83.5049 162.225 80.8767C162.225 78.3417 162.889 76.3511 164.217 74.9047C165.561 73.4429 167.407 72.7119 169.755 72.7119C172.217 72.7119 174.136 73.4195 175.512 74.8347C176.889 76.25 177.577 78.2251 177.577 80.76C177.577 83.3883 176.905 85.4411 175.561 86.9186C174.233 88.3805 172.363 89.1114 169.95 89.1114ZM169.925 75.9778C167.82 75.9778 166.768 77.6263 166.768 80.9233C166.768 82.4941 166.97 83.6605 167.375 84.4225C167.877 85.3712 168.719 85.8455 169.901 85.8455C171.99 85.8455 173.035 84.2436 173.035 81.04C173.035 79.267 172.784 77.984 172.282 77.1909C171.796 76.3822 171.01 75.9778 169.925 75.9778Z" fill="white"/>
</g>
</svg>
