<svg width="293" height="147" viewBox="0 0 293 147" fill="none" xmlns="http://www.w3.org/2000/svg">
<rect width="293" height="147" rx="10" fill="white"/>
<mask id="mask0_699_477" style="mask-type:alpha" maskUnits="userSpaceOnUse" x="46" y="24" width="200" height="100">
<rect x="46" y="24" width="200" height="100" fill="white"/>
</mask>
<g mask="url(#mask0_699_477)">
<path d="M134.226 47.6982C134.469 46.5487 134.602 45.3554 134.602 44.1327C134.602 40.3476 133.372 36.8407 131.273 34C135.942 36.1232 139.874 39.5788 142.562 43.8838C139.462 44.4988 136.619 45.8313 134.226 47.6982Z" fill="#BE0133"/>
<path d="M150.363 43.8988C147.896 47.845 146.475 52.5086 146.475 57.5018C146.475 52.5013 145.046 47.8376 142.572 43.8841C143.824 43.6352 145.12 43.5034 146.445 43.5034C147.778 43.5107 149.096 43.6425 150.363 43.8988Z" fill="#BE0133"/>
<path d="M158.268 44.1332C158.268 45.3559 158.393 46.5492 158.644 47.6987C156.258 45.8391 153.438 44.5139 150.353 43.8989C153.025 39.616 156.928 36.1676 161.567 34.0444C159.491 36.8778 158.268 40.3627 158.268 44.1332Z" fill="#BE0133"/>
<path d="M165.426 57.5239C165.426 57.5459 165.419 57.5605 165.412 57.5898C165.389 57.7289 165.36 57.8607 165.331 57.9925C163.902 65.2699 160.242 71.7566 155.088 76.7204C153.107 78.624 150.905 80.3078 148.527 81.7209C147.842 82.1235 147.15 82.5116 146.436 82.8703C145.729 82.5116 145.029 82.1309 144.352 81.7282C141.974 80.3225 139.779 78.6459 137.806 76.7497C132.637 71.7858 128.962 65.2845 127.534 57.9925C127.504 57.8607 127.482 57.7216 127.453 57.5898C127.445 57.5532 127.445 57.5093 127.431 57.48C127.453 57.4873 127.46 57.4873 127.482 57.5019C127.629 57.5678 127.777 57.6264 127.924 57.6996C134.05 60.4378 139.293 64.7867 143.108 70.2044C144.381 72.0128 145.501 73.9456 146.436 75.981C147.378 73.9383 148.505 72.0055 149.794 70.1825C153.615 64.7867 158.851 60.4598 164.97 57.7289C165.11 57.6703 165.257 57.6044 165.397 57.5459C165.404 57.5386 165.419 57.5312 165.426 57.5239Z" fill="url(#paint0_linear_699_477)"/>
<path d="M134.598 44.1327C134.598 45.3554 134.473 46.5487 134.223 47.6982C131.057 50.1655 128.671 53.5699 127.478 57.4941C127.463 57.4868 127.448 57.4795 127.426 57.4721C127.058 55.4149 126.859 53.2917 126.859 51.1246C126.859 44.9161 128.457 39.081 131.27 34C133.361 36.848 134.598 40.3476 134.598 44.1327Z" fill="#1E1E1E"/>
<path d="M165.393 57.5385C165.253 57.5971 165.106 57.663 164.966 57.7216C158.847 60.4451 153.612 64.7793 149.79 70.1751C148.501 71.9981 147.375 73.9383 146.432 75.9736C145.497 73.9383 144.378 72.0055 143.104 70.1971C139.29 64.7793 134.047 60.4378 127.92 57.6923C127.773 57.6264 127.626 57.5605 127.479 57.4946C128.671 53.5704 131.057 50.166 134.223 47.6987C136.617 45.8244 139.459 44.4993 142.559 43.8843C145.033 47.8378 146.462 52.5015 146.462 57.5019C146.462 52.5088 147.89 47.8451 150.35 43.8989C153.435 44.5139 156.255 45.8464 158.641 47.6987C161.822 50.1806 164.208 53.5997 165.393 57.5385Z" fill="#1E1E1E"/>
<path d="M165.995 51.1319C165.995 53.3136 165.797 55.4515 165.421 57.5307C165.406 57.5307 165.399 57.538 165.392 57.538C164.206 53.5992 161.813 50.1801 158.639 47.6982C158.396 46.5488 158.264 45.3554 158.264 44.1327C158.264 40.3622 159.486 36.87 161.563 34.0439C161.57 34.0366 161.585 34.0293 161.599 34.022C164.405 39.103 165.995 44.9307 165.995 51.1319Z" fill="#1E1E1E"/>
<path d="M140.687 58.0064L131.711 51.9663" stroke="white" stroke-miterlimit="10"/>
<path d="M152.232 58.0069L161.209 51.9741" stroke="white" stroke-miterlimit="10"/>
<path d="M46 94.5045V91.2318C46 91.122 46.1399 90.9829 46.3019 90.9829H59.0039C59.1954 90.9829 59.3058 91.122 59.3058 91.2318V94.5045C59.3058 94.6436 59.1954 94.7534 59.0039 94.7534H46.3019C46.1399 94.7534 46 94.6436 46 94.5045ZM54.7699 98.9631V112.749C54.7699 112.859 54.63 112.998 54.4386 112.998H50.8673C50.6758 112.998 50.5654 112.859 50.5654 112.749V98.9631H54.7699Z" fill="black"/>
<path d="M74.8371 112.998H70.8829C70.8019 112.998 70.6325 112.918 70.6031 112.83L66.5605 104.11H64.1821V112.749C64.1821 112.859 64.0422 112.998 63.8802 112.998H60.2574C60.1174 112.998 59.9775 112.859 59.9775 112.749V100.061H64.1821H67.4221C68.3351 100.061 70.6841 99.9515 70.6841 97.5282C70.6841 95.1048 68.0848 94.9657 67.4221 94.9657H64.1821H59.9775V91.2318C59.9775 91.122 60.1174 90.9829 60.2574 90.9829H67.4221C68.6665 90.9829 74.896 91.0415 74.896 97.5282C74.896 100.881 73.0404 102.646 70.8313 103.444C72.2157 106.555 73.7105 109.579 75.0948 112.632C75.1684 112.83 75.058 112.998 74.8371 112.998Z" fill="black"/>
<path d="M93.0159 112.998H89.1943C89.1133 112.998 88.9734 112.939 88.9439 112.829L84.57 100.559L80.255 112.829C80.2256 112.939 80.0856 112.998 79.9752 112.998H76.183C75.9326 112.998 75.8222 112.829 75.9032 112.668L84.2902 91.1511C84.3712 90.9314 84.7615 90.9314 84.8425 91.1511L93.2516 112.668C93.3473 112.829 93.2074 112.998 93.0159 112.998Z" fill="black"/>
<path d="M107.376 100.2V103.693C107.376 103.803 107.236 103.942 107.074 103.942H98.3854V112.991H98.3559H95.6167H94.4533C94.2839 112.991 94.1514 112.852 94.1514 112.742V91.2318C94.1514 91.122 94.2913 90.9829 94.4533 90.9829H104.666V94.973H98.3854V99.9515H107.074C107.236 99.9515 107.376 100.069 107.376 100.2Z" fill="black"/>
<path d="M121.263 100.2V103.693C121.263 103.803 121.123 103.942 120.961 103.942H112.272V112.991H112.243H109.503H108.34C108.171 112.991 108.038 112.852 108.038 112.742V91.2318C108.038 91.122 108.178 90.9829 108.34 90.9829H118.553V94.973H112.272V99.9515H120.961C121.13 99.9515 121.263 100.069 121.263 100.2Z" fill="black"/>
<path d="M131.255 109.477V112.749C131.255 112.859 131.144 112.998 130.953 112.998H122.235C122.065 112.998 121.933 112.859 121.933 112.749V109.477C121.933 109.337 122.073 109.228 122.235 109.228H124.502V101.438V94.7534V90.9829H128.736V94.7534V101.438V109.228H130.953C131.144 109.228 131.255 109.337 131.255 109.477Z" fill="black"/>
<path d="M148.603 108.949V112.749C148.603 112.859 148.493 112.998 148.301 112.998H144.701C139.193 112.998 131.719 111.402 131.719 101.994C131.719 92.2275 139.274 90.9902 144.701 90.9902H148.301C148.493 90.9902 148.603 91.1293 148.603 91.2392V99.8783H144.369V95.0096C139.554 94.7607 135.982 96.7741 135.982 102.001C135.982 108.796 141.682 109.074 144.369 108.964H148.603V108.949Z" fill="black"/>
<path d="M170.134 106.585C170.134 110.714 166.813 112.998 163.271 112.998C163.271 112.998 163.271 112.998 163.242 112.998V109.037C163.271 109.037 163.271 109.037 163.271 109.037C164.736 109.037 166.04 108.049 166.04 106.592C166.04 104.967 164.516 103.978 163.271 103.92C163.08 103.92 161.585 103.92 159.98 103.18C157.682 102.133 156.379 100.178 156.379 97.6233C156.379 93.4941 159.729 90.9902 163.271 90.9902C167.063 90.9902 169.994 93.5234 170.053 97.2646C170.082 97.3451 169.942 97.4842 169.751 97.4842H166.29C166.121 97.4842 165.988 97.3451 165.988 97.2646C165.929 95.6978 164.714 94.9511 163.278 94.9511C161.754 94.9511 160.51 95.8589 160.51 97.6233C160.51 99.2194 161.865 100.047 163.278 100.047C163.418 100.047 164.965 100.047 166.541 100.786C168.86 101.855 170.134 104 170.134 106.585Z" fill="#BE0133"/>
<path d="M192.24 110.545L189.861 112.94C189.721 113.02 189.559 113.02 189.42 112.94L187.424 110.934C185.679 112.061 183.602 112.749 181.415 112.749C175.053 112.749 170.819 107.632 170.819 101.826C170.819 96.0785 174.862 90.9829 181.415 90.9829C187.726 90.9829 192.041 96.0712 192.041 101.826C192.041 103.971 191.349 106.424 190.215 108.151L192.232 110.187C192.38 110.275 192.38 110.436 192.24 110.545ZM181.423 108.869C182.387 108.869 183.551 108.569 184.523 108.1L175.392 99.0217C175.061 99.9003 174.869 100.867 174.869 101.826C174.862 105.486 177.439 108.869 181.423 108.869ZM181.423 94.8632C180.068 94.8632 178.904 95.222 177.932 95.8296L187.314 105.157C187.755 104.22 188.035 102.902 188.035 101.826C188.035 98.1651 185.708 94.8632 181.423 94.8632Z" fill="#BE0133"/>
<path d="M210.03 91.2318V105.648C210.03 110.297 206.43 112.991 201.724 112.991C197.159 112.991 193.426 110.187 193.426 105.648V94.973H197.601V105.618C197.851 107.793 199.677 108.949 201.724 108.949C203.801 108.949 205.848 107.873 205.848 105.648V91.2318C205.848 91.122 205.958 90.9829 206.15 90.9829H209.751C209.898 90.9829 210.03 91.122 210.03 91.2318Z" fill="#BE0133"/>
<path d="M227.989 112.998H224.167C224.086 112.998 223.946 112.939 223.917 112.829L219.543 100.559L215.228 112.829C215.198 112.939 215.058 112.998 214.948 112.998H211.156C210.905 112.998 210.795 112.829 210.876 112.668L219.263 91.1511C219.344 90.9314 219.734 90.9314 219.815 91.1511L228.224 112.668C228.32 112.829 228.18 112.998 227.989 112.998Z" fill="#BE0133"/>
<path d="M245.999 101.994C245.999 111.402 238.555 112.998 233.047 112.998H229.424C229.255 112.998 229.122 112.859 229.122 112.749V104.11H233.356V108.949C236.044 109.059 241.743 108.781 241.743 101.987C241.743 96.7594 238.172 94.7534 233.356 94.995V99.8637H229.122V91.2318C229.122 91.122 229.262 90.9829 229.424 90.9829H233.047C238.444 90.9829 245.999 92.2202 245.999 101.994Z" fill="#BE0133"/>
</g>
<defs>
<linearGradient id="paint0_linear_699_477" x1="146.431" y1="57.4823" x2="146.431" y2="82.8753" gradientUnits="userSpaceOnUse">
<stop stop-color="#BE0133"/>
<stop offset="0.1346" stop-color="#BA0132"/>
<stop offset="0.2799" stop-color="#AD012E"/>
<stop offset="0.4304" stop-color="#970129"/>
<stop offset="0.5843" stop-color="#790120"/>
<stop offset="0.741" stop-color="#520016"/>
<stop offset="0.8977" stop-color="#230009"/>
<stop offset="1"/>
</linearGradient>
</defs>
</svg>
