<svg width="293" height="147" viewBox="0 0 293 147" fill="none" xmlns="http://www.w3.org/2000/svg">
<rect width="293" height="147" rx="10" fill="white"/>
<mask id="mask0_699_463" style="mask-type:alpha" maskUnits="userSpaceOnUse" x="53" y="25" width="200" height="100">
<rect x="53" y="25" width="200" height="100" fill="white"/>
</mask>
<g mask="url(#mask0_699_463)">
<path d="M113.176 88.9351C115.057 88.9351 116.676 88.5349 118.035 87.7343C119.402 86.9338 120.451 85.814 121.183 84.3747C121.923 82.9355 122.293 81.2621 122.293 79.3545C122.293 77.4469 121.923 75.7735 121.183 74.3343C120.451 72.8951 119.402 71.7752 118.035 70.9747C116.676 70.1742 115.057 69.7739 113.176 69.7739C111.295 69.7739 109.671 70.1742 108.304 70.9747C106.945 71.7752 105.896 72.8951 105.156 74.3343C104.424 75.7735 104.059 77.4469 104.059 79.3545C104.059 81.2621 104.424 82.9355 105.156 84.3747C105.896 85.814 106.945 86.9338 108.304 87.7343C109.671 88.5349 111.295 88.9351 113.176 88.9351ZM113.176 85.6649C111.391 85.6394 110.05 85.0603 109.153 83.9277C108.264 82.795 107.82 81.2706 107.82 79.3545C107.82 77.4384 108.264 75.9012 109.153 74.7431C110.05 73.5849 111.391 73.0186 113.176 73.0441C114.969 73.0696 116.31 73.6487 117.199 74.7814C118.087 75.914 118.531 77.4384 118.531 79.3545C118.531 81.2706 118.087 82.8078 117.199 83.966C116.31 85.1242 114.969 85.6905 113.176 85.6649Z" fill="#01247E"/>
<path d="M124.9 88.5519H128.505V76.2887L136.682 88.5519H140.287V70.1571H136.682V82.4203L128.505 70.1571H124.9V88.5519Z" fill="#01247E"/>
<path d="M226.155 88.9351C227.67 88.9351 229.002 88.637 230.152 88.0409C231.301 87.4363 232.198 86.5889 232.842 85.4989C233.487 84.4088 233.809 83.1271 233.809 81.6539V70.1571H230.204V81.6283C230.204 82.4203 230.026 83.1186 229.668 83.7233C229.311 84.3279 228.828 84.8048 228.219 85.154C227.609 85.4946 226.921 85.6649 226.155 85.6649C225.406 85.6649 224.722 85.4989 224.104 85.1667C223.495 84.8261 223.007 84.3535 222.641 83.7488C222.284 83.1442 222.106 82.4373 222.106 81.6283V70.1571L218.501 70.1827V81.6539C218.501 83.1271 218.823 84.4088 219.467 85.4989C220.112 86.5889 221.009 87.4363 222.158 88.0409C223.307 88.637 224.64 88.9351 226.155 88.9351Z" fill="#01247E"/>
<path d="M237.456 88.5519H241.008V80.1721L248.506 88.5519H252.999L244.639 79.2268L252.503 70.1571H248.166L241.008 78.6392V70.1571H237.456V88.5519Z" fill="#01247E"/>
<path d="M152.171 89.1309C153.982 89.1309 155.554 88.7477 156.886 87.9812C158.219 87.2063 159.25 86.1375 159.982 84.7749C160.713 83.4124 161.079 81.8497 161.079 80.0868C161.079 80.0442 161.075 79.8824 161.066 79.6014C161.057 79.3204 161.044 79.1245 161.027 79.0138H154.261V81.6964H157.239C156.952 83.1526 156.377 84.2171 155.515 84.8899C154.661 85.5627 153.625 85.8863 152.406 85.8607C150.621 85.8352 149.28 85.2561 148.383 84.1235C147.495 82.9908 147.051 81.4664 147.051 79.5503C147.051 77.6342 147.495 76.097 148.383 74.9389C149.28 73.7807 150.621 73.2144 152.406 73.2399C153.608 73.2484 154.592 73.5763 155.358 74.2235C156.133 74.8622 156.69 75.7181 157.03 76.7911L160.661 76.2801C160.191 74.2703 159.264 72.7162 157.879 71.6176C156.494 70.519 154.592 69.9697 152.171 69.9697C150.534 69.9697 149.041 70.3444 147.691 71.0938C146.35 71.8433 145.279 72.9333 144.478 74.364C143.685 75.7862 143.289 77.515 143.289 79.5503C143.289 81.1088 143.524 82.4841 143.994 83.6764C144.473 84.8686 145.122 85.8692 145.941 86.6783C146.768 87.4873 147.717 88.1005 148.788 88.5177C149.859 88.9265 150.987 89.1309 152.171 89.1309Z" fill="#D0142C"/>
<path d="M161.881 88.7477H165.538L166.726 84.9154H173.806L175.021 88.7477H178.678L172.931 70.3529H167.628L161.881 88.7477ZM167.732 81.6708L170.24 73.6104L172.787 81.6708H167.732Z" fill="#D0142C"/>
<path d="M181.019 88.7477H184.337V77.7619L189.797 88.7477H191.05L196.51 77.7619V88.7477H199.828V70.3529H196.641L190.424 82.565L184.206 70.3529H181.019V88.7477Z" fill="#D0142C"/>
<path d="M203.494 88.7477H215.772V85.5031H207.047V80.7766H214.205V77.532H207.047V73.5976H215.772V70.3529H203.494V88.7477Z" fill="#D0142C"/>
<path d="M62.3637 71.5805C62.9991 69.645 69.2466 64.6127 72.5927 61.645C75.5153 64.3547 82.1864 69.2579 82.8217 71.5805C83.1618 72.8237 83.2029 73.774 82.6946 74.8062C82.1555 75.9011 81.2514 77.0229 80.2803 77.5159C79.0097 78.1611 76.2142 77.774 74.3081 77.6449C73.9884 77.6233 75.1057 81.9182 75.7002 84.2035L75.7059 84.2255L76.7487 81.3869L89.8105 75.8385L87.4356 89.5158H57.7035L55.375 75.9675H56.5186L68.4367 81.3869L69.7337 84.2255C70.1149 82.118 71.4222 77.611 71.0044 77.6449C67.8277 77.903 67.4465 77.903 65.7946 77.5159C64.2883 77.1629 63.2149 75.7943 62.745 74.9353C62.1096 73.774 62.1193 72.325 62.3637 71.5805Z" fill="#01247E"/>
<path d="M87.4357 90.6772H57.75V92.9998H87.4357V90.6772Z" fill="#D0142C"/>
<ellipse cx="55.3749" cy="75.5809" rx="2.37486" ry="2.32257" fill="#01247E"/>
<ellipse cx="89.8094" cy="75.5809" rx="2.37486" ry="2.32257" fill="#01247E"/>
<ellipse cx="72.5926" cy="59.9032" rx="2.96857" ry="2.90321" fill="#01247E"/>
</g>
</svg>
