<svg width="293" height="147" viewBox="0 0 293 147" fill="none" xmlns="http://www.w3.org/2000/svg">
<rect width="293" height="147" rx="10" fill="white"/>
<mask id="mask0_163_413" style="mask-type:alpha" maskUnits="userSpaceOnUse" x="46" y="24" width="200" height="100">
<rect x="46" y="24" width="200" height="100" fill="white"/>
</mask>
<g mask="url(#mask0_163_413)">
<path d="M102.993 66.4875C100.403 66.4875 98.401 65.7108 96.9867 64.1574C95.5724 62.604 94.8652 60.4006 94.8652 57.5471C94.8652 54.7949 95.5639 52.6336 96.9611 51.0634C98.3754 49.4762 100.318 48.6826 102.789 48.6826C105.379 48.6826 107.398 49.4509 108.846 50.9874C110.295 52.5239 111.019 54.6682 111.019 57.4204C111.019 60.2739 110.312 62.5027 108.897 64.1068C107.5 65.6939 105.532 66.4875 102.993 66.4875ZM102.968 52.2284C100.752 52.2284 99.6449 54.0182 99.6449 57.5977C99.6449 59.3031 99.8579 60.5694 100.284 61.3968C100.812 62.4267 101.698 62.9417 102.942 62.9417C105.14 62.9417 106.239 61.2026 106.239 57.7244C106.239 55.7995 105.975 54.4065 105.447 53.5454C104.936 52.6674 104.109 52.2284 102.968 52.2284Z" fill="#BF0A30"/>
<path d="M123.987 50.7341L128.486 61.5741V54.0773C128.486 52.946 128.264 52.3804 127.821 52.3804C127.702 52.3804 127.523 52.4141 127.285 52.4817C127.063 52.5323 126.893 52.5576 126.773 52.5576C126.416 52.5576 126.109 52.3972 125.853 52.0764C125.615 51.7556 125.495 51.3588 125.495 50.8861C125.495 50.3289 125.657 49.8814 125.981 49.5437C126.305 49.206 126.731 49.0372 127.259 49.0372C127.532 49.0372 128 49.0794 128.665 49.1638C129.329 49.2483 129.917 49.2905 130.428 49.2905C130.888 49.2905 131.425 49.2567 132.039 49.1892C132.959 49.0879 133.53 49.0372 133.751 49.0372C134.296 49.0372 134.739 49.206 135.08 49.5437C135.421 49.8814 135.591 50.3289 135.591 50.8861C135.591 51.3588 135.455 51.7556 135.182 52.0764C134.91 52.3972 134.578 52.5576 134.186 52.5576C134.032 52.5576 133.828 52.5323 133.572 52.4817C133.317 52.4141 133.121 52.3804 132.984 52.3804C132.644 52.3804 132.422 52.5914 132.32 53.0135C132.286 53.1824 132.269 53.537 132.269 54.0773V64.3854C132.269 65.4997 131.809 66.0569 130.888 66.0569C130.718 66.0569 130.454 66.0485 130.096 66.0316C129.755 65.9978 129.5 65.981 129.329 65.981C129.312 65.981 128.895 65.9978 128.077 66.0316C128.077 66.0316 127.889 66.0316 127.515 66.0316C127.02 66.0316 126.654 65.9134 126.416 65.677C126.279 65.542 126.083 65.1789 125.828 64.588L120.895 53.4441V61.0928C120.895 62.241 121.116 62.8151 121.559 62.8151C121.678 62.8151 121.857 62.7898 122.096 62.7391C122.352 62.6716 122.539 62.6378 122.658 62.6378C123.016 62.6378 123.314 62.7982 123.553 63.119C123.808 63.4398 123.936 63.8366 123.936 64.3094C123.936 65.542 123.34 66.1582 122.147 66.1582C121.806 66.1582 121.244 66.1076 120.46 66.0063C119.932 65.9387 119.404 65.905 118.875 65.905C118.432 65.905 117.836 65.9472 117.086 66.0316C116.337 66.116 115.859 66.1582 115.655 66.1582C114.411 66.1582 113.789 65.542 113.789 64.3094C113.789 63.8366 113.917 63.4398 114.172 63.119C114.445 62.7982 114.777 62.6378 115.169 62.6378C115.323 62.6378 115.527 62.6716 115.783 62.7391C116.055 62.7898 116.26 62.8151 116.396 62.8151C116.856 62.8151 117.086 62.241 117.086 61.0928V54.0773C117.086 52.946 116.856 52.3804 116.396 52.3804C116.26 52.3804 116.055 52.4141 115.783 52.4817C115.527 52.5323 115.323 52.5576 115.169 52.5576C114.777 52.5576 114.445 52.3972 114.172 52.0764C113.917 51.7556 113.789 51.3588 113.789 50.8861C113.789 50.3289 113.959 49.8814 114.3 49.5437C114.641 49.206 115.084 49.0372 115.629 49.0372C115.987 49.0372 116.507 49.0794 117.189 49.1638C117.87 49.2483 118.407 49.2905 118.799 49.2905C119.123 49.2905 119.676 49.2567 120.46 49.1892C120.818 49.1723 121.227 49.1385 121.687 49.0879C121.891 49.0541 122.113 49.0372 122.352 49.0372C122.812 49.0372 123.169 49.2145 123.425 49.5691C123.527 49.7041 123.715 50.0925 123.987 50.7341Z" fill="#BF0A30"/>
<path d="M145.823 48.6826C147.637 48.6826 149.149 49.282 150.359 50.4808C150.514 49.4846 151.033 48.9865 151.914 48.9865C152.985 48.9865 153.521 49.4931 153.521 50.5062C153.521 50.675 153.486 51.0127 153.417 51.5192C153.313 52.2791 153.261 52.794 153.261 53.0642C153.261 53.3681 153.279 53.5961 153.313 53.748C153.348 54.2883 153.365 54.5923 153.365 54.6598C153.365 55.0988 153.166 55.4703 152.769 55.7742C152.372 56.0612 151.862 56.2047 151.24 56.2047C150.238 56.2047 149.633 55.7235 149.426 54.7611C149.218 53.7987 148.916 53.1402 148.519 52.7856C148.139 52.4141 147.525 52.2284 146.679 52.2284C145.556 52.2284 144.683 52.7434 144.061 53.7733C143.456 54.7864 143.154 56.2301 143.154 58.1043C143.154 59.6914 143.448 60.9324 144.035 61.8273C144.64 62.7053 145.469 63.1443 146.523 63.1443C147.197 63.1443 147.75 62.9586 148.182 62.5871C148.631 62.1988 148.856 61.7176 148.856 61.1435C148.856 60.4343 148.553 60.0798 147.948 60.0798C147.914 60.0798 147.862 60.0798 147.793 60.0798C147.724 60.0967 147.663 60.1051 147.612 60.1051C147.335 60.1389 147.18 60.1558 147.145 60.1558C146.8 60.1558 146.506 60.0122 146.264 59.7252C146.022 59.4213 145.901 59.0498 145.901 58.6108C145.901 58.1043 146.074 57.699 146.419 57.3951C146.765 57.0912 147.214 56.9392 147.767 56.9392C148.13 56.9392 148.674 56.9899 149.4 57.0912C150.143 57.1756 150.704 57.2178 151.084 57.2178C151.655 57.2178 152.285 57.1756 152.976 57.0912C153.529 57.0236 153.909 56.9899 154.117 56.9899C154.669 56.9899 155.11 57.1587 155.438 57.4964C155.784 57.8172 155.957 58.2562 155.957 58.8134C155.957 59.3031 155.836 59.7167 155.594 60.0544C155.352 60.3753 155.05 60.5357 154.687 60.5357L154.065 60.485C153.598 60.485 153.365 60.8649 153.365 61.6247C153.365 61.9455 153.374 62.2832 153.391 62.6378L153.443 63.7269C153.46 64.0983 153.469 64.4529 153.469 64.7906C153.469 65.9219 152.829 66.4875 151.551 66.4875C150.341 66.4875 149.737 66.0738 149.737 65.2465V65.0945C148.545 66.0232 147.188 66.4875 145.668 66.4875C144.337 66.4875 143.085 66.1498 141.91 65.4744C140.735 64.7821 139.88 63.8873 139.344 62.7898C138.653 61.3883 138.308 59.759 138.308 57.9016C138.308 55.065 138.981 52.8194 140.329 51.1647C141.677 49.51 143.508 48.6826 145.823 48.6826Z" fill="#002868"/>
<path d="M169.518 60.7889H166.071C165.086 60.7889 164.594 61.363 164.594 62.5112C164.594 62.7813 164.741 62.9164 165.034 62.9164C165.121 62.9164 165.25 62.9079 165.423 62.8911C165.596 62.8573 165.725 62.8404 165.812 62.8404C166.451 62.8404 166.771 63.3385 166.771 64.3347C166.771 64.875 166.624 65.314 166.33 65.6517C166.036 65.9894 165.648 66.1582 165.164 66.1582C164.922 66.1582 164.386 66.0992 163.557 65.981C163.194 65.9303 162.684 65.905 162.028 65.905C161.32 65.905 160.767 65.9303 160.369 65.981C159.454 66.0992 158.909 66.1582 158.737 66.1582C158.201 66.1582 157.76 65.9978 157.415 65.677C157.087 65.3562 156.922 64.9341 156.922 64.4107C156.922 63.2288 157.38 62.6378 158.296 62.6378C158.4 62.6378 158.564 62.6547 158.788 62.6885C159.013 62.7053 159.177 62.7138 159.281 62.7138C159.609 62.7138 159.877 62.5365 160.084 62.1819C160.136 62.0806 160.257 61.7682 160.447 61.2448L164.024 51.2913C164.438 50.16 164.905 49.4509 165.423 49.1638C165.803 48.9781 166.641 48.8852 167.937 48.8852C169.388 48.8852 170.304 48.9781 170.684 49.1638C171.064 49.3327 171.375 49.8223 171.617 50.6328L174.934 61.4221C175.193 62.2832 175.496 62.7138 175.841 62.7138C175.945 62.7138 176.126 62.6884 176.386 62.6378H176.671C177.638 62.6378 178.122 63.195 178.122 64.3094C178.122 64.8666 177.949 65.314 177.604 65.6517C177.258 65.9894 176.809 66.1582 176.256 66.1582C176.014 66.1582 175.694 66.1329 175.297 66.0823C174.813 65.9978 174.494 65.9556 174.338 65.9556C173.958 65.9219 173.466 65.905 172.861 65.905C172.204 65.905 171.764 65.9219 171.539 65.9556C170.658 66.0907 170.105 66.1582 169.881 66.1582C169.414 66.1582 169.025 65.9894 168.714 65.6517C168.421 65.2971 168.274 64.8581 168.274 64.3347C168.274 63.3385 168.602 62.8404 169.259 62.8404C169.345 62.8404 169.475 62.8573 169.647 62.8911C169.82 62.9079 169.95 62.9164 170.036 62.9164C170.364 62.9164 170.528 62.7391 170.528 62.3845C170.528 61.9286 170.433 61.5487 170.243 61.2448C170.053 60.9409 169.811 60.7889 169.518 60.7889ZM169.129 56.9139L167.885 51.7219L166.278 57.1165C166.261 57.1672 166.252 57.2263 166.252 57.2938C166.252 57.4964 166.468 57.5977 166.9 57.5977H168.507C168.956 57.5977 169.181 57.4795 169.181 57.2431C169.181 57.26 169.164 57.1503 169.129 56.9139Z" fill="#002868"/>
<path d="M191.282 50.6075L193.433 59.8518L195.688 50.9874C195.878 50.2444 196.085 49.7379 196.31 49.4678C196.551 49.1807 196.888 49.0372 197.32 49.0372C197.7 49.0372 198.279 49.0794 199.057 49.1638C199.834 49.2483 200.422 49.2905 200.819 49.2905C201.234 49.2905 202.262 49.2229 203.903 49.0879C204.37 49.0541 204.715 49.0372 204.94 49.0372C205.51 49.0372 205.968 49.206 206.313 49.5437C206.659 49.8645 206.832 50.312 206.832 50.8861C206.832 51.3588 206.693 51.7556 206.417 52.0764C206.158 52.3972 205.829 52.5576 205.432 52.5576C205.277 52.5576 205.061 52.5323 204.784 52.4817C204.508 52.4141 204.309 52.3804 204.188 52.3804C203.722 52.3804 203.488 52.946 203.488 54.0773V61.0928C203.488 62.241 203.713 62.8151 204.162 62.8151C204.3 62.8151 204.508 62.7898 204.784 62.7391C205.061 62.6716 205.268 62.6378 205.406 62.6378C205.804 62.6378 206.14 62.7982 206.417 63.119C206.693 63.4398 206.832 63.8366 206.832 64.3094C206.832 64.8835 206.659 65.3393 206.313 65.677C205.968 65.9978 205.51 66.1582 204.94 66.1582C204.611 66.1582 204.059 66.1076 203.281 66.0063C202.763 65.9387 202.244 65.905 201.726 65.905C201.398 65.905 200.914 65.9472 200.275 66.0316C199.635 66.116 199.152 66.1582 198.823 66.1582C198.305 66.1582 197.882 65.9894 197.554 65.6517C197.243 65.314 197.087 64.8666 197.087 64.3094C197.087 63.2625 197.441 62.7391 198.15 62.7391C198.253 62.7391 198.331 62.7475 198.383 62.7644C198.435 62.7644 198.495 62.7644 198.564 62.7644C198.633 62.7813 198.677 62.7898 198.694 62.7898C198.97 62.7898 199.134 62.604 199.186 62.2326C199.204 62.0637 199.212 61.7767 199.212 61.3714V51.8232L195.61 64.2841C195.299 65.3647 194.789 65.905 194.081 65.905H192.422C191.731 65.905 191.256 65.4238 190.997 64.4613L187.55 51.8232V61.3714C187.55 62.165 187.628 62.6125 187.783 62.7138C187.835 62.7644 187.93 62.7898 188.068 62.7898C188.103 62.7898 188.155 62.7813 188.224 62.7644C188.276 62.7644 188.327 62.7644 188.379 62.7644C188.431 62.7475 188.509 62.7391 188.612 62.7391C189.304 62.7391 189.649 63.2541 189.649 64.2841C189.649 64.8581 189.494 65.314 189.183 65.6517C188.872 65.9894 188.457 66.1582 187.939 66.1582C187.697 66.1582 187.386 66.1329 187.006 66.0823C186.522 66.0147 186.219 65.9725 186.099 65.9556C185.736 65.9219 185.321 65.905 184.855 65.905C184.267 65.905 183.775 65.9303 183.377 65.981C182.306 66.116 181.771 66.1836 181.771 66.1836C181.235 66.1836 180.794 66.0063 180.449 65.6517C180.103 65.2971 179.93 64.8497 179.93 64.3094C179.93 63.8197 180.06 63.4229 180.319 63.119C180.596 62.7982 180.941 62.6378 181.356 62.6378C181.494 62.6378 181.693 62.6716 181.952 62.7391C182.228 62.7898 182.436 62.8151 182.574 62.8151C182.919 62.8151 183.135 62.5956 183.222 62.1566C183.256 61.9877 183.274 61.6332 183.274 61.0928V54.0773C183.274 53.537 183.256 53.1908 183.222 53.0389C183.135 52.5999 182.919 52.3804 182.574 52.3804C182.436 52.3804 182.228 52.4141 181.952 52.4817C181.693 52.5323 181.485 52.5576 181.33 52.5576C180.933 52.5576 180.596 52.3972 180.319 52.0764C180.06 51.7556 179.93 51.3588 179.93 50.8861C179.93 49.6535 180.57 49.0372 181.848 49.0372C182.263 49.0372 182.954 49.0794 183.922 49.1638C184.889 49.2483 185.615 49.2905 186.099 49.2905C186.876 49.2905 187.688 49.2398 188.535 49.1385C189.105 49.071 189.554 49.0372 189.882 49.0372C190.314 49.0372 190.617 49.1385 190.789 49.3411C190.962 49.5437 191.126 49.9659 191.282 50.6075Z" fill="#002868"/>
<path d="M218.759 52.2284C218.189 52.2284 217.809 52.2791 217.618 52.3804C217.359 52.5323 217.23 52.87 217.23 53.3934V54.8118C217.23 55.0988 217.264 55.3183 217.333 55.4703C217.42 55.6053 217.627 55.6729 217.955 55.6729C218.716 55.6729 219.096 55.4027 219.096 54.8624V54.5332C219.078 54.4318 219.07 54.3052 219.07 54.1533C219.07 53.4441 219.493 53.0895 220.34 53.0895C221.221 53.0895 221.661 53.5201 221.661 54.3812C221.661 54.6176 221.644 54.8793 221.61 55.1663C221.54 55.7235 221.506 56.2385 221.506 56.7113C221.506 57.1503 221.54 57.7075 221.61 58.3829C221.679 59.0582 221.713 59.531 221.713 59.8012C221.713 60.7974 221.255 61.2955 220.34 61.2955C219.476 61.2955 219.044 60.8649 219.044 60.0038C219.044 59.9194 219.044 59.8772 219.044 59.8772C219.044 59.7927 219.061 59.5901 219.096 59.2693C219.096 58.8641 218.724 58.6615 217.981 58.6615C217.48 58.6615 217.23 58.9316 217.23 59.4719V61.3714C217.23 61.9624 217.333 62.3676 217.541 62.5871C217.765 62.7898 218.171 62.8911 218.759 62.8911H220.262C221.368 62.8911 222.137 62.7982 222.568 62.6125C223.018 62.4267 223.242 62.0975 223.242 61.6247C223.242 61.3883 223.216 61.1097 223.165 60.7889C223.113 60.4512 223.087 60.1726 223.087 59.9531C223.087 59.3284 223.268 58.8387 223.631 58.4842C223.994 58.1296 224.486 57.9523 225.108 57.9523C226.37 57.9523 227 58.6277 227 59.9785C227 60.4175 226.974 60.8818 226.922 61.3714C226.836 62.1819 226.793 62.6884 226.793 62.8911C226.793 63.0768 226.836 63.4398 226.922 63.9801C226.974 64.3009 227 64.6302 227 64.9679C227 65.7615 226.49 66.1582 225.471 66.1582C225.143 66.1582 224.599 66.1329 223.838 66.0823C222.577 65.9978 220.564 65.9387 217.8 65.905C217.8 65.905 217.031 65.905 215.493 65.905C214.629 65.905 213.912 65.9303 213.342 65.981L211.373 66.1582C211.355 66.1582 211.321 66.1667 211.269 66.1836C211.217 66.1836 211.174 66.1836 211.139 66.1836C210.604 66.1836 210.163 66.0063 209.818 65.6517C209.489 65.2971 209.325 64.8497 209.325 64.3094C209.325 63.8366 209.455 63.4398 209.714 63.119C209.99 62.7982 210.336 62.6378 210.751 62.6378C210.889 62.6378 211.096 62.6716 211.373 62.7391C211.649 62.7898 211.848 62.8151 211.969 62.8151C212.435 62.8151 212.668 62.241 212.668 61.0928V54.0773C212.668 52.946 212.435 52.3804 211.969 52.3804C211.865 52.3804 211.658 52.4141 211.347 52.4817C211.122 52.5323 210.923 52.5576 210.751 52.5576C210.353 52.5576 210.016 52.3972 209.74 52.0764C209.463 51.7556 209.325 51.3588 209.325 50.8861C209.325 49.6535 209.956 49.0372 211.217 49.0372C211.511 49.0372 212.107 49.071 213.005 49.1385C214.353 49.2398 215.657 49.2905 216.919 49.2905C217.04 49.2905 218.076 49.2651 220.029 49.2145C221.445 49.1807 222.378 49.1469 222.828 49.1132C223.571 49.0625 224.348 49.0372 225.16 49.0372C226.128 49.0372 226.611 49.4509 226.611 50.2782C226.611 50.5484 226.577 50.9452 226.508 51.4686C226.456 51.992 226.43 52.3888 226.43 52.659C226.43 52.9291 226.465 53.3175 226.534 53.824C226.62 54.3137 226.663 54.6851 226.663 54.9384C226.663 55.428 226.473 55.8417 226.093 56.1794C225.73 56.5171 225.272 56.686 224.72 56.686C223.424 56.686 222.776 56.0359 222.776 54.7358C222.776 54.5163 222.81 54.2123 222.879 53.824C222.966 53.4357 223.009 53.1486 223.009 52.9629C223.009 52.5914 222.81 52.3635 222.413 52.2791C222.275 52.2453 221.912 52.2284 221.324 52.2284H218.759Z" fill="#002868"/>
<path d="M226.999 72.7197H94.8652V104.769L103.051 98.1944H198.935L205.951 91.6203H155.168L157.186 88.7441L208.29 89.155L216.475 82.3344H161.662L163.229 80.1156H218.814L226.999 72.7197Z" fill="#BF0A30"/>
<path d="M108.382 91.8077C108.793 91.8077 109.049 91.5482 109.152 91.029C109.193 90.8293 109.213 90.41 109.213 89.771V81.4742C109.213 80.8352 109.193 80.4259 109.152 80.2461C109.049 79.727 108.793 79.4674 108.382 79.4674C108.218 79.4674 107.972 79.5073 107.643 79.5872C107.335 79.6471 107.089 79.677 106.905 79.677C106.432 79.677 106.032 79.4873 105.704 79.108C105.396 78.7286 105.242 78.2593 105.242 77.7002C105.242 77.0213 105.437 76.4921 105.827 76.1127C106.238 75.7134 106.781 75.5137 107.459 75.5137C107.766 75.5137 108.485 75.5736 109.613 75.6934C110.373 75.7733 111.112 75.8132 111.83 75.8132C112.404 75.8132 113.225 75.7633 114.293 75.6634C115.38 75.5636 116.099 75.5137 116.447 75.5137C117.946 75.5137 118.695 76.2425 118.695 77.7002C118.695 78.2593 118.53 78.7286 118.202 79.108C117.894 79.4873 117.504 79.677 117.032 79.677C116.868 79.677 116.622 79.6471 116.293 79.5872C115.965 79.5073 115.719 79.4674 115.555 79.4674C115.001 79.4674 114.724 80.1363 114.724 81.4742V89.771C114.724 91.1288 115.001 91.8077 115.555 91.8077C115.719 91.8077 115.965 91.7778 116.293 91.7179C116.622 91.638 116.868 91.5981 117.032 91.5981C117.504 91.5981 117.894 91.7878 118.202 92.1672C118.53 92.5466 118.695 93.0158 118.695 93.5749C118.695 94.2139 118.489 94.7431 118.079 95.1624C117.689 95.5817 117.186 95.7914 116.571 95.7914C116.447 95.7914 116.355 95.7814 116.293 95.7615L114.354 95.5218C113.862 95.4619 113.318 95.432 112.723 95.432C111.799 95.432 110.835 95.4819 109.829 95.5817C108.618 95.7016 107.828 95.7615 107.459 95.7615C106.802 95.7615 106.268 95.5618 105.858 95.1624C105.447 94.763 105.242 94.2339 105.242 93.5749C105.242 92.9959 105.396 92.5266 105.704 92.1672C106.032 91.7878 106.443 91.5981 106.935 91.5981C107.099 91.5981 107.335 91.638 107.643 91.7179C107.972 91.7778 108.218 91.8077 108.382 91.8077Z" fill="white"/>
<path d="M132.075 77.5205L137.493 90.3401V81.4742C137.493 80.1363 137.226 79.4674 136.692 79.4674C136.549 79.4674 136.333 79.5073 136.046 79.5872C135.779 79.6471 135.574 79.677 135.43 79.677C134.999 79.677 134.63 79.4873 134.322 79.108C134.035 78.7286 133.891 78.2593 133.891 77.7002C133.891 77.0412 134.086 76.5121 134.476 76.1127C134.866 75.7134 135.379 75.5137 136.015 75.5137C136.344 75.5137 136.908 75.5636 137.708 75.6634C138.509 75.7633 139.217 75.8132 139.832 75.8132C140.386 75.8132 141.033 75.7733 141.772 75.6934C142.88 75.5736 143.567 75.5137 143.834 75.5137C144.491 75.5137 145.025 75.7134 145.435 76.1127C145.845 76.5121 146.051 77.0412 146.051 77.7002C146.051 78.2593 145.886 78.7286 145.558 79.108C145.23 79.4873 144.83 79.677 144.358 79.677C144.173 79.677 143.927 79.6471 143.619 79.5872C143.311 79.5073 143.075 79.4674 142.911 79.4674C142.5 79.4674 142.233 79.717 142.11 80.2162C142.069 80.4159 142.049 80.8352 142.049 81.4742V93.6648C142.049 94.9827 141.495 95.6416 140.386 95.6416C140.181 95.6416 139.863 95.6317 139.432 95.6117C139.022 95.5718 138.714 95.5518 138.509 95.5518C138.488 95.5518 137.985 95.5718 137 95.6117C137 95.6117 136.775 95.6117 136.323 95.6117C135.728 95.6117 135.287 95.4719 134.999 95.1924C134.835 95.0326 134.599 94.6033 134.291 93.9044L128.35 80.7254V89.771C128.35 91.1288 128.617 91.8077 129.15 91.8077C129.294 91.8077 129.51 91.7778 129.797 91.7179C130.105 91.638 130.33 91.5981 130.474 91.5981C130.905 91.5981 131.264 91.7878 131.552 92.1672C131.859 92.5466 132.013 93.0158 132.013 93.5749C132.013 95.0326 131.295 95.7615 129.858 95.7615C129.448 95.7615 128.771 95.7016 127.827 95.5817C127.191 95.5019 126.554 95.4619 125.918 95.4619C125.385 95.4619 124.666 95.5119 123.763 95.6117C122.86 95.7115 122.286 95.7615 122.039 95.7615C120.541 95.7615 119.792 95.0326 119.792 93.5749C119.792 93.0158 119.946 92.5466 120.254 92.1672C120.582 91.7878 120.983 91.5981 121.455 91.5981C121.639 91.5981 121.886 91.638 122.193 91.7179C122.522 91.7778 122.768 91.8077 122.932 91.8077C123.486 91.8077 123.763 91.1288 123.763 89.771V81.4742C123.763 80.1363 123.486 79.4674 122.932 79.4674C122.768 79.4674 122.522 79.5073 122.193 79.5872C121.886 79.6471 121.639 79.677 121.455 79.677C120.983 79.677 120.582 79.4873 120.254 79.108C119.946 78.7286 119.792 78.2593 119.792 77.7002C119.792 77.0412 119.997 76.5121 120.408 76.1127C120.818 75.7134 121.352 75.5137 122.009 75.5137C122.44 75.5137 123.066 75.5636 123.886 75.6634C124.707 75.7633 125.354 75.8132 125.826 75.8132C126.216 75.8132 126.883 75.7733 127.827 75.6934C128.258 75.6734 128.75 75.6335 129.304 75.5736C129.551 75.5336 129.817 75.5137 130.105 75.5137C130.659 75.5137 131.09 75.7233 131.398 76.1427C131.521 76.3024 131.747 76.7617 132.075 77.5205Z" fill="white"/>
<path fill-rule="evenodd" clip-rule="evenodd" d="M75.6416 111C74.1616 107.109 73.4569 101.89 73.0693 96.2792L75.5359 94.7407L78.1786 96.3998C77.791 101.95 77.0863 107.139 75.6416 111ZM76.7339 89.7936L75.6768 86.9883L74.6197 89.7936L74.4083 90.3668H73.7035H70.2856L73.0693 92.0862L73.6331 92.4482L73.4216 93.0213L72.3645 95.8267L75.1483 94.1073L75.7121 93.7453L76.2758 94.1073L79.0596 95.8267L78.0025 93.0213L77.791 92.4482L78.3548 92.0862L81.1385 90.3668H77.7206H77.0158L76.7339 89.7936ZM72.7521 89.7635C72.5407 83.2478 72.5407 76.6718 72.1531 71.5135V71.423H79.13V71.5135C78.7072 76.6718 78.7424 83.2176 78.531 89.7635H77.4387L76.2054 86.4755L75.5711 84.756L74.9368 86.4755L73.7035 89.7635H72.7521ZM65 54.4399H86.3184V56.4912H65V54.4399ZM70.2856 68.4366H81.1385V71.0007H70.2856V68.4366ZM72.0826 68.0143C71.9769 62.8259 70.6027 61.2875 67.2199 57.366L75.6416 57.2755L84.0632 57.366C80.6805 61.2875 79.3062 62.8259 79.2005 68.0143H72.0826Z" fill="#002868"/>
<path fill-rule="evenodd" clip-rule="evenodd" d="M81.1031 53.7765C82.9354 51.5141 83.6754 49.5232 83.4287 47.653C83.182 45.7827 82.9001 44.9984 83.4639 43.5505C84.0277 42.1025 86.3886 41.1071 86.3886 41.1071C86.3886 41.1071 85.4372 42.6154 85.261 43.8521C85.0848 45.0889 85.5782 47.5021 85.5782 47.5021L87.6219 45.5414C87.6219 45.5414 87.7276 48.9501 86.7762 50.6997C86.0362 52.0571 84.6972 53.2939 84.1334 53.7765H81.1031ZM67.0435 45.5716C68.2768 43.3695 67.7835 41.8612 67.7835 41.8612C67.7835 41.8612 69.2634 42.8868 69.2987 45.2699C69.3339 47.653 68.6996 48.8596 69.2282 50.3678C69.651 51.6046 71.2719 53.1732 71.871 53.7463H67.2197C64.8236 50.6695 65.2112 48.7691 67.0435 45.5716ZM72.7519 53.7765C70.4967 50.8203 69.6863 48.8596 70.6024 46.2654C71.5186 43.6108 72.6462 42.5852 72.8928 41.4087C73.1395 40.2323 73.1395 39.7497 73.1395 39.7497C73.1395 39.7497 73.5623 39.8401 74.0556 41.2277C74.549 42.6154 74.549 43.3393 74.549 43.3393C74.549 43.3393 76.8746 40.3831 78.8479 39.1765C80.8212 37.9699 84.2744 38.0001 84.2744 38.0001C84.2744 38.0001 81.2792 39.448 80.8564 41.2579C80.4336 43.0678 81.9487 45.843 81.7021 48.8294C81.5259 51.1823 80.6097 53.0525 80.2221 53.7463H72.7519V53.7765Z" fill="#BF0A30"/>
</g>
</svg>
