<svg width="20" height="18" viewBox="0 0 20 18" fill="none" xmlns="http://www.w3.org/2000/svg">
<mask id="mask0_1410_358" style="mask-type:alpha" maskUnits="userSpaceOnUse" x="0" y="0" width="20" height="18">
<rect width="20" height="18" fill="#C4C4C4"/>
</mask>
<g mask="url(#mask0_1410_358)">
<path d="M0 6.25232V10.7475C0 11.405 0.539918 11.939 1.19982 11.939H5.54716V5.06079H1.19982C0.539918 5.06079 0 5.59479 0 6.25232Z" fill="white"/>
<path d="M6.34668 12.2737L13.5336 16.9323C13.5976 16.9761 13.6736 17 13.7496 17C13.8175 17 13.8815 16.9841 13.9415 16.9522C14.0695 16.8804 14.1495 16.745 14.1495 16.6015V0.39826C14.1495 0.250813 14.0695 0.119306 13.9415 0.0475751C13.8135 -0.0201708 13.6576 -0.0161858 13.5336 0.0635153L6.34668 4.72603V12.2737V12.2737Z" fill="white"/>
<path d="M17.4251 13.3296C17.5051 13.4093 17.6051 13.4452 17.709 13.4452C17.813 13.4452 17.913 13.4054 17.993 13.3296C20.6686 10.6636 20.6686 6.33188 17.993 3.66588C17.837 3.51046 17.5851 3.51046 17.4291 3.66588C17.2731 3.8213 17.2731 4.07235 17.4291 4.22777C18.5729 5.3675 19.2048 6.8858 19.2048 8.49577C19.2048 10.1097 18.5729 11.624 17.4291 12.7638C17.2691 12.9232 17.2691 13.1742 17.4251 13.3296Z" fill="white"/>
<path d="M15.5979 11.5126C15.6779 11.5923 15.7779 11.6281 15.8819 11.6281C15.9859 11.6281 16.0859 11.5883 16.1658 11.5126C16.9737 10.7076 17.4177 9.6396 17.4177 8.49987C17.4177 7.36014 16.9737 6.29215 16.1658 5.48717C16.0099 5.33175 15.7579 5.33175 15.6019 5.48717C15.446 5.64259 15.446 5.89364 15.6019 6.04906C16.9577 7.39999 16.9577 9.59576 15.6019 10.9467C15.442 11.1021 15.442 11.3532 15.5979 11.5126Z" fill="white"/>
</g>
</svg>
