<svg width="27" height="29" viewBox="0 0 27 29" fill="none" xmlns="http://www.w3.org/2000/svg">
<path d="M6 22.5V11.5H20.5V22.5H6Z" fill="black"/>
<path d="M23.938 6.6458C23.5944 6.6458 23.3244 6.91775 23.3244 7.24999V8.20458H21.9744C21.8948 3.66729 18.127 0 13.5003 0C8.87954 0 5.11223 3.66729 5.03188 8.20458H3.68196V7.24999C3.68196 6.91777 3.41197 6.6458 3.06828 6.6458C1.38069 6.6458 0 8.00509 0 9.66666V18.1248C0 18.4632 0.276224 18.729 0.613679 18.729H3.06828C3.41194 18.729 3.68196 18.4632 3.68196 18.1248V9.41308H23.3243V18.1248C23.3243 18.4632 23.5942 18.729 23.9379 18.729L26.3863 18.7288C26.73 18.7288 27 18.463 27 18.1246V9.66644C27 8.00493 25.6256 6.64558 23.938 6.64558L23.938 6.6458ZM10.7266 7.28023C9.62211 7.28023 8.72604 6.39817 8.72604 5.31062C8.72604 4.22324 9.62194 3.34124 10.7266 3.34124C11.831 3.34124 12.7271 4.2233 12.7271 5.31062C12.7269 6.39823 11.831 7.28023 10.7266 7.28023ZM16.2799 7.28023C15.1755 7.28023 14.2794 6.39817 14.2794 5.31062C14.2794 4.22324 15.1753 3.34124 16.2799 3.34124C17.3846 3.34124 18.2805 4.2233 18.2805 5.31062C18.2802 6.39823 17.3843 7.28023 16.2799 7.28023Z" fill="black"/>
<path d="M15.2002 26.3478C15.2002 27.8099 16.415 29 17.9001 29C19.3852 29 20.594 27.8099 20.594 26.3478V24.7441H15.2002V26.3478Z" fill="black"/>
<path d="M6.41288 26.3478C6.41288 27.8099 7.62172 29 9.10652 29C10.5915 29 11.8004 27.8099 11.8004 26.3478V24.7441H6.4126L6.41288 26.3478Z" fill="black"/>
<path d="M5.0222 22.9306C5.0222 23.2644 5.29664 23.5348 5.63587 23.5348H21.3693C21.7085 23.5348 21.983 23.2644 21.983 22.9306L21.9828 10.6201H5.02197L5.0222 22.9306ZM18.9425 22.3561H14.9288C14.5895 22.3561 14.3151 22.0856 14.3151 21.7519C14.3151 21.4181 14.5895 21.1477 14.9288 21.1477H18.9425C19.2817 21.1477 19.5562 21.4181 19.5562 21.7519C19.5562 22.0856 19.2818 22.3561 18.9425 22.3561ZM14.8706 12.1549H18.8844C19.2236 12.1549 19.4981 12.4253 19.4981 12.7591C19.4981 13.0928 19.2236 13.3633 18.8844 13.3633H14.8706C14.5314 13.3633 14.257 13.0929 14.257 12.7591C14.257 12.4253 14.5314 12.1549 14.8706 12.1549ZM14.8706 16.6512H18.8844C19.2236 16.6512 19.4981 16.9216 19.4981 17.2554C19.4981 17.5891 19.2236 17.8596 18.8844 17.8596H14.8706C14.5314 17.8596 14.257 17.5891 14.257 17.2554C14.257 16.9216 14.5314 16.6512 14.8706 16.6512ZM7.36346 12.6326C7.36346 12.3004 7.63969 12.0284 7.97714 12.0284H12.2725C12.6162 12.0284 12.8862 12.3001 12.8862 12.6326V21.7493C12.8862 22.0877 12.6162 22.3535 12.2725 22.3535H7.97714C7.63971 22.3535 7.36346 22.0877 7.36346 21.7493V12.6326Z" fill="black"/>
</svg>
