<svg width="22" height="29" viewBox="0 0 22 29" fill="none" xmlns="http://www.w3.org/2000/svg">
<path d="M1.42834 26.7103V1.90785L19.7777 1.49902V27.9095L10.2931 28.3729L1.42834 26.7103Z" fill="white"/>
<path d="M18.6501 0H3.31969C1.47883 0 0 1.49583 0 3.35798V25.642C0 27.5041 1.47878 29 3.31969 29H18.6803C20.5212 29 22 27.5042 22 25.642V3.35798C21.9697 1.49589 20.4909 0 18.65 0H18.6501ZM10.9849 27.9924C10.2606 27.9924 9.68736 27.4124 9.68736 26.6799C9.68736 25.9472 10.2608 25.3674 10.9849 25.3674C11.7092 25.3674 12.2825 25.9474 12.2825 26.6799C12.2825 27.4124 11.7092 27.9924 10.9849 27.9924ZM19.3744 23.4135C19.3744 23.9324 18.982 24.3293 18.469 24.3293H3.50071C2.98771 24.3293 2.59531 23.9324 2.59531 23.4135V3.54103C2.59531 3.02211 2.98769 2.62519 3.50071 2.62519H18.469C18.982 2.62519 19.3744 3.02209 19.3744 3.54103V23.4135Z" fill="black"/>
</svg>
