<svg width="506" height="185" viewBox="0 0 506 185" fill="none" xmlns="http://www.w3.org/2000/svg">
<path d="M86.7066 181.882V145.246H0V106.531C5.69416 98.2163 11.5609 88.4293 17.6001 77.1699C23.812 65.7374 29.7649 53.4387 35.4591 40.2739C41.1533 26.9359 45.8984 13.5112 49.6945 0H100.424C99.7341 5.71629 97.8361 12.2121 94.7302 19.4874C91.6243 26.7627 87.7419 34.471 83.083 42.6124C78.4242 50.7538 73.3339 58.8085 67.8123 66.7767C62.2907 74.5716 56.7691 82.0201 51.2475 89.1222C45.7259 96.051 40.4631 102.027 35.4591 107.051H86.7066V69.8947C88.9497 66.7767 91.3654 62.9658 93.9537 58.4621C96.7145 53.9583 99.4753 49.2814 102.236 44.4312C104.997 39.4078 107.413 34.5576 109.483 29.8806C111.554 25.0304 113.021 20.7865 113.883 17.1489H135.883V107.051H160.731V145.246H135.883V181.882H86.7066Z" fill="#FF0000" fill-opacity="0.7"/>
<path d="M253.129 185C238.463 185 226.212 182.835 216.376 178.504C206.541 174 198.776 167.678 193.082 159.537C187.388 151.395 183.333 141.695 180.917 130.435C178.501 119.003 177.294 106.358 177.294 92.5C177.294 78.6423 178.501 66.0838 180.917 54.8244C183.333 43.3919 187.388 33.6049 193.082 25.4635C198.776 17.3221 206.541 11.0861 216.376 6.75562C226.212 2.25187 238.463 0 253.129 0C267.969 0 280.22 2.25187 289.883 6.75562C299.718 11.0861 307.397 17.3221 312.918 25.4635C318.612 33.6049 322.667 43.3919 325.083 54.8244C327.499 66.0838 328.706 78.6423 328.706 92.5C328.706 106.358 327.499 119.003 325.083 130.435C322.667 141.695 318.612 151.395 312.918 159.537C307.397 167.678 299.718 174 289.883 178.504C280.22 182.835 267.969 185 253.129 185ZM253.129 149.923C259.169 149.923 264 148.364 267.624 145.246C271.247 142.128 273.835 137.278 275.388 130.695C276.941 124.113 277.718 115.625 277.718 105.232V79.5084C277.718 68.942 276.941 60.4541 275.388 54.045C273.835 47.4626 271.247 42.699 267.624 39.7542C264 36.6362 259.169 35.0773 253.129 35.0773C247.09 35.0773 242.259 36.6362 238.635 39.7542C235.012 42.699 232.337 47.4626 230.612 54.045C229.059 60.4541 228.282 68.942 228.282 79.5084V105.232C228.282 115.625 229.059 124.113 230.612 130.695C232.337 137.278 235.012 142.128 238.635 145.246C242.259 148.364 247.09 149.923 253.129 149.923Z" fill="#FF0000" fill-opacity="0.7"/>
<path d="M431.976 181.882V145.246H345.269V106.531C350.963 98.2163 356.83 88.4293 362.869 77.1699C369.081 65.7374 375.034 53.4387 380.728 40.2739C386.423 26.9359 391.168 13.5112 394.964 0H445.694C445.003 5.71629 443.105 12.2121 439.999 19.4874C436.894 26.7627 433.011 34.471 428.352 42.6124C423.693 50.7538 418.603 58.8085 413.082 66.7767C407.56 74.5716 402.038 82.0201 396.517 89.1222C390.995 96.051 385.732 102.027 380.728 107.051H431.976V69.8947C434.219 66.7767 436.635 62.9658 439.223 58.4621C441.984 53.9583 444.745 49.2814 447.505 44.4312C450.266 39.4078 452.682 34.5576 454.753 29.8806C456.823 25.0304 458.29 20.7865 459.153 17.1489H481.153V107.051H506V145.246H481.153V181.882H431.976Z" fill="#FF0000" fill-opacity="0.7"/>
</svg>
