<svg width="499" height="186" viewBox="0 0 499 186" fill="none" xmlns="http://www.w3.org/2000/svg">
<path d="M79.2567 186C61.8758 186 47.2759 183.475 35.4569 178.424C23.8118 173.199 14.9475 166.059 8.86423 157.003C2.95474 147.772 0 137.062 0 124.871H45.8854C45.8854 129.399 46.9283 133.579 49.014 137.41C51.0997 141.242 54.2282 144.289 58.3996 146.553C62.571 148.817 67.6984 149.949 73.7817 149.949C79.865 149.949 84.9054 148.817 88.903 146.553C93.0744 144.115 96.203 140.893 98.2887 136.888C100.374 132.882 101.417 128.354 101.417 123.303C101.417 118.079 100.374 113.463 98.2887 109.458C96.203 105.452 93.0744 102.317 88.903 100.053C84.9054 97.6152 79.9519 96.3961 74.0424 96.3961C68.3067 96.3961 63.7877 97.2669 60.4853 99.0084C57.183 100.75 54.6628 102.666 52.9247 104.756C51.3604 106.671 50.0568 108.239 49.014 109.458L7.82138 103.711L15.382 3.13484H139.481V47.545H54.2282L52.1425 74.7135C52.1425 74.7135 53.6199 73.7556 56.5747 71.8399C59.7032 69.9242 64.1353 68.0084 69.871 66.0927C75.6067 64.0028 82.4721 62.9579 90.4673 62.9579C103.155 62.9579 114.105 65.3961 123.317 70.2725C132.703 75.1489 139.916 82.2022 144.956 91.4326C150.171 100.489 152.778 111.374 152.778 124.087C152.778 135.407 149.736 145.77 143.653 155.174C137.743 164.579 129.314 172.067 118.364 177.64C107.414 183.213 94.378 186 79.2567 186Z" fill="#FF0000" fill-opacity="0.7"/>
<path d="M250.804 186C236.03 186 223.689 183.823 213.782 179.469C203.875 174.941 196.054 168.584 190.318 160.399C184.583 152.213 180.498 142.461 178.065 131.14C175.631 119.646 174.415 106.933 174.415 93C174.415 79.0674 175.631 66.441 178.065 55.1208C180.498 43.6264 184.583 33.7865 190.318 25.6011C196.054 17.4157 203.875 11.1461 213.782 6.79214C223.689 2.26405 236.03 0 250.804 0C265.751 0 278.091 2.26405 287.825 6.79214C297.732 11.1461 305.466 17.4157 311.028 25.6011C316.764 33.7865 320.848 43.6264 323.282 55.1208C325.715 66.441 326.932 79.0674 326.932 93C326.932 106.933 325.715 119.646 323.282 131.14C320.848 142.461 316.764 152.213 311.028 160.399C305.466 168.584 297.732 174.941 287.825 179.469C278.091 183.823 265.751 186 250.804 186ZM250.804 150.733C256.887 150.733 261.753 149.166 265.403 146.031C269.053 142.896 271.661 138.02 273.225 131.402C274.789 124.784 275.571 116.25 275.571 105.801V79.9382C275.571 69.3146 274.789 60.7809 273.225 54.3371C271.661 47.7191 269.053 42.9298 265.403 39.9691C261.753 36.8343 256.887 35.2669 250.804 35.2669C244.72 35.2669 239.854 36.8343 236.204 39.9691C232.554 42.9298 229.86 47.7191 228.122 54.3371C226.557 60.7809 225.775 69.3146 225.775 79.9382V105.801C225.775 116.25 226.557 124.784 228.122 131.402C229.86 138.02 232.554 142.896 236.204 146.031C239.854 149.166 244.72 150.733 250.804 150.733Z" fill="#FF0000" fill-opacity="0.7"/>
<path d="M350.394 182.865V170.326C350.394 163.011 351.958 156.132 355.087 149.688C358.215 143.07 362.387 136.888 367.601 131.14C372.989 125.219 378.898 119.646 385.329 114.421C391.76 109.022 398.365 103.798 405.143 98.7472C412.096 93.5225 418.614 88.7332 424.697 84.3792C430.78 80.0253 435.734 75.5843 439.557 71.0562C443.381 66.5281 445.293 61.4775 445.293 55.9045C445.293 52.5955 444.511 49.5478 442.947 46.7612C441.382 43.8006 438.949 41.4494 435.647 39.7079C432.518 37.7921 428.26 36.8343 422.872 36.8343C417.484 36.8343 412.878 37.8792 409.054 39.9691C405.404 42.059 402.536 45.0197 400.451 48.8511C398.539 52.5084 397.583 56.6882 397.583 61.3904V66.6152H351.176C351.002 65.5702 350.915 64.6124 350.915 63.7416C350.915 62.6966 350.915 61.7388 350.915 60.868C350.915 48.5028 353.696 37.7921 359.258 28.736C364.994 19.6798 373.51 12.6264 384.808 7.57585C396.279 2.52528 410.618 0 427.825 0C438.428 0 447.987 1.30618 456.504 3.91853C465.02 6.35675 472.233 10.0141 478.143 14.8905C484.226 19.5927 488.832 25.2528 491.961 31.8708C495.263 38.4888 496.914 45.8905 496.914 54.0758C496.914 62.0871 495.437 69.3146 492.482 75.7584C489.527 82.2022 485.356 88.2107 479.968 93.7837C474.58 99.3567 468.41 104.756 461.457 109.98C454.505 115.205 446.944 120.517 438.775 125.916C434.604 128.702 431.215 131.053 428.608 132.969C426 134.711 424.089 136.017 422.872 136.888C421.655 137.758 420.873 138.368 420.525 138.716H499V182.865H350.394Z" fill="#FF0000" fill-opacity="0.7"/>
</svg>
